<svg width="34" height="34" viewBox="0 0 34 34" fill="none" xmlns="http://www.w3.org/2000/svg">
<path d="M20.3634 16.1983V20.4183C20.3634 21.1217 20.0118 21.4733 19.3084 21.4733V21.4733C18.6051 21.4733 18.2534 21.1217 18.2534 20.4183V16.1983C18.2534 15.495 18.6051 15.1433 19.3084 15.1433V15.1433C20.0118 15.1433 20.3634 15.495 20.3634 16.1983Z" fill="#d1d1d1"/>
<path d="M16.3634 16.1983V20.4183C16.3634 21.1217 16.0118 21.4733 15.3084 21.4733V21.4733C14.6051 21.4733 14.2534 21.1217 14.2534 20.4183V16.1983C14.2534 15.495 14.6051 15.1433 15.3084 15.1433V15.1433C16.0118 15.1433 16.3634 15.495 16.3634 16.1983Z" fill="#d1d1d1"/>
<path fill-rule="evenodd" clip-rule="evenodd" d="M26.7813 9.33183H21.4804V8.04407C21.4804 6.91516 20.5652 6 19.4363 6H14.6668C13.5379 6 12.6228 6.91516 12.6228 8.04407V9.33183H7.02203C6.45758 9.33183 6 9.78941 6 10.3539C6 10.9183 6.45758 11.3759 7.02203 11.3759H8.53464V25.0779C8.53464 26.5832 9.75485 27.8034 11.2601 27.8034H22.8431C24.3483 27.8034 25.5685 26.5832 25.5685 25.0779V11.3759H26.7813C27.3458 11.3759 27.8034 10.9183 27.8034 10.3539C27.8034 9.78941 27.3458 9.33183 26.7813 9.33183ZM14.667 9.33183V8.04407H19.4365V9.33183H14.667ZM22.8433 25.7593C23.2196 25.7593 23.5246 25.4542 23.5246 25.0779V11.3759H10.5789V25.0779C10.5789 25.4542 10.8839 25.7593 11.2602 25.7593H22.8433Z" fill="#d1d1d1"/>
</svg>
