<svg width="109" height="51" viewBox="0 0 109 51" fill="none" xmlns="http://www.w3.org/2000/svg">
<rect width="108.245" height="51" rx="17" fill="#717DFE"/>
<mask id="mask0_342_254" style="mask-type:alpha" maskUnits="userSpaceOnUse" x="0" y="0" width="109" height="51">
<rect width="108.245" height="51" rx="17" fill="#7890F5"/>
</mask>
<g mask="url(#mask0_342_254)">
<path d="M92.3347 59.3265H85.645C75.1393 59.3265 66.6123 50.7995 66.6123 40.2938V33.6041C66.6123 23.0985 75.1393 14.5714 85.645 14.5714H92.3347C102.84 14.5714 111.367 23.0985 111.367 33.6041V40.2938C111.367 50.7995 102.84 59.3265 92.3347 59.3265Z" fill="#6370FF"/>
<path d="M111.367 40.2938V33.6041C111.367 23.0985 102.84 14.5714 92.3347 14.5714H85.645C75.1393 14.5714 66.6123 23.0985 66.6123 33.6041V40.2938C66.6123 50.7995 75.1393 59.3265 85.645 59.3265H92.3347C92.9471 59.3265 93.5596 59.2794 94.1249 59.2323C101.616 56.4057 107.693 50.7053 111.085 43.4974C111.273 42.4609 111.367 41.3774 111.367 40.2938V40.2938Z" fill="#6370FF"/>
<path d="M111.367 34.7635V33.7658C111.367 23.1709 102.84 14.5714 92.3347 14.5714H85.645C75.1393 14.619 66.6123 23.2184 66.6123 33.8133V40.5598C66.6123 49.6819 72.9251 57.3311 81.405 59.279C82.0175 59.3265 82.5828 59.3265 83.1952 59.3265C97.564 59.3265 109.389 48.6841 111.367 34.7635V34.7635Z" fill="#6874FF"/>
<path d="M92.3294 14.5714H85.6411C75.1376 14.5714 66.6123 23.0288 66.6123 33.4486V40.0837C66.6123 45.6908 69.0616 50.6905 72.9709 54.1482C76.1267 55.4565 79.5651 56.2041 83.1918 56.2041C97.6047 56.2041 109.286 44.6161 109.286 30.318C109.286 27.8416 108.909 25.4585 108.297 23.169C104.952 18.0291 99.0649 14.5714 92.3294 14.5714V14.5714Z" fill="#6D79FF"/>
<path d="M107.204 30.4201C107.204 25.9995 105.974 21.814 103.845 18.2869C100.675 15.9355 96.7487 14.5716 92.4908 14.5716H85.7255C75.1754 14.5246 66.6123 23.0367 66.6123 33.524V40.202C66.6123 43.541 67.5112 46.6919 69.0251 49.4195C72.9991 52.3823 77.9667 54.1223 83.3127 54.1223C96.4648 54.1693 107.204 43.4939 107.204 30.4201V30.4201Z" fill="#717DFE"/>
<path d="M85.8436 14.6658C75.2283 14.6658 66.6123 23.2073 66.6123 33.7309V40.4319C66.6123 41.942 66.8027 43.4049 67.1359 44.7735C71.0869 49.2566 76.942 52.0408 83.4159 52.0408C95.4117 52.0408 105.123 42.4139 105.123 30.5219C105.123 24.7646 102.838 19.5737 99.1722 15.704C97.1253 14.9962 94.9356 14.5714 92.6507 14.5714H85.8436V14.6658Z" fill="#7681FE"/>
<path d="M85.4485 14.5714C75.0513 14.5714 66.6123 23.1806 66.6123 33.7874V40.2561C69.876 46.0589 76.0304 49.9592 83.0706 49.9592C93.5145 49.9592 102 41.3025 102 30.6481C102 23.9892 98.7364 18.1388 93.701 14.6666C93.1881 14.619 92.6286 14.5714 92.0691 14.5714H85.4485V14.5714Z" fill="#7B86FE"/>
<path d="M88.6441 14.5714H85.5907C75.2559 14.5714 66.8472 23.0058 66.6123 33.5008C67.8807 41.6476 74.8331 47.8776 83.1479 47.8776C92.4022 47.8776 99.9184 40.21 99.9184 30.7692C99.9184 23.2454 95.2208 16.8717 88.6441 14.5714V14.5714Z" fill="#808AFE"/>
<path d="M68.6938 30.1837C68.6938 32.0972 69.0707 33.992 69.803 35.7599C70.5353 37.5278 71.6086 39.1341 72.9617 40.4872C74.3148 41.8403 75.9211 42.9136 77.689 43.6459C79.4569 44.3782 81.3517 44.7551 83.2653 44.7551C85.1788 44.7551 87.0736 44.3782 88.8415 43.6459C90.6094 42.9136 92.2158 41.8403 93.5688 40.4872C94.9219 39.1341 95.9952 37.5278 96.7275 35.7599C97.4598 33.992 97.8367 32.0972 97.8367 30.1837C97.8367 26.3191 96.3015 22.6128 93.5688 19.8801C90.8362 17.1474 87.1299 15.6122 83.2653 15.6122C79.4007 15.6122 75.6944 17.1474 72.9617 19.8801C70.229 22.6128 68.6938 26.3191 68.6938 30.1837V30.1837Z" fill="#848EFD"/>
<path d="M70.7755 30.7041C70.7755 33.8785 72.0914 36.923 74.4337 39.1677C76.776 41.4124 79.9528 42.6735 83.2653 42.6735C86.5778 42.6735 89.7546 41.4124 92.0969 39.1677C94.4392 36.923 95.7551 33.8785 95.7551 30.7041C95.7551 27.5296 94.4392 24.4851 92.0969 22.2404C89.7546 19.9957 86.5778 18.7347 83.2653 18.7347C79.9528 18.7347 76.776 19.9957 74.4337 22.2404C72.0914 24.4851 70.7755 27.5296 70.7755 30.7041V30.7041Z" fill="#8993FD"/>
<path d="M73.8979 30.7041C73.8979 32.0025 74.1402 33.2883 74.611 34.4879C75.0817 35.6876 75.7717 36.7776 76.6416 37.6958C77.5114 38.6139 78.5441 39.3423 79.6806 39.8392C80.8171 40.3361 82.0352 40.5918 83.2653 40.5918C84.4954 40.5918 85.7135 40.3361 86.85 39.8392C87.9865 39.3423 89.0192 38.6139 89.889 37.6958C90.7588 36.7776 91.4488 35.6876 91.9196 34.4879C92.3903 33.2883 92.6326 32.0025 92.6326 30.7041C92.6326 28.0817 91.6457 25.5667 89.889 23.7124C88.1323 21.8581 85.7497 20.8163 83.2653 20.8163C80.7809 20.8163 78.3983 21.8581 76.6416 23.7124C74.8849 25.5667 73.8979 28.0817 73.8979 30.7041V30.7041Z" fill="#8E97FD"/>
<g opacity="0.8">
<path d="M88.5 44.2497C83.6752 44.2497 79.75 40.3244 79.75 35.4997C79.75 30.6749 83.6752 26.7497 88.5 26.7497C93.3247 26.7497 97.25 30.6749 97.25 35.4997C97.25 36.6389 97.0339 37.7482 96.6077 38.7961C96.5201 39.0109 96.3508 39.1822 96.137 39.2723C95.9232 39.3625 95.6823 39.3641 95.4673 39.2768C95.2524 39.1892 95.081 39.02 94.9908 38.8061C94.9006 38.5923 94.899 38.3514 94.9864 38.1364C95.3272 37.2992 95.5017 36.4036 95.5 35.4997C95.5 31.6401 92.3596 28.4997 88.5 28.4997C84.6404 28.4997 81.5 31.6401 81.5 35.4997C81.5 39.3593 84.6404 42.4997 88.5 42.4997C89.5937 42.4997 90.6408 42.2547 91.6118 41.772C91.8196 41.6686 92.06 41.6521 92.28 41.7259C92.5 41.7998 92.6817 41.9581 92.785 42.1659C92.8884 42.3737 92.9049 42.614 92.8311 42.8341C92.7572 43.0541 92.5989 43.2358 92.3911 43.3391C91.1827 43.9416 89.8503 44.2534 88.5 44.2497Z" fill="white"/>
<path d="M88.5 32.583C86.8918 32.583 85.5834 33.8915 85.5834 35.4997C85.5834 37.108 86.8918 38.4164 88.5 38.4164C89.2736 38.4164 90.0155 38.1091 90.5624 37.5621C91.1094 37.0151 91.4167 36.2733 91.4167 35.4997C91.4167 33.8915 90.1083 32.583 88.5 32.583ZM88.5 40.1664C85.927 40.1664 83.8334 38.0728 83.8334 35.4997C83.8334 32.9266 85.927 30.833 88.5 30.833C91.0731 30.833 93.1667 32.9266 93.1667 35.4997C93.1669 36.1126 93.0463 36.7195 92.8118 37.2857C92.5773 37.852 92.2336 38.3665 91.8002 38.7999C91.3668 39.2332 90.8523 39.577 90.2861 39.8115C89.7198 40.0459 89.1129 40.1665 88.5 40.1664Z" fill="white"/>
<path d="M93.696 41.0533C93.5356 41.0533 93.3795 41.0376 93.2293 41.0067C92.1452 40.7827 91.4166 39.8167 91.4166 38.6033V31.708C91.4166 31.5931 91.4393 31.4794 91.4832 31.3732C91.5272 31.267 91.5917 31.1706 91.6729 31.0893C91.7542 31.0081 91.8506 30.9436 91.9568 30.8996C92.0629 30.8557 92.1767 30.833 92.2916 30.833C92.4065 30.833 92.5203 30.8557 92.6265 30.8996C92.7326 30.9436 92.8291 31.0081 92.9103 31.0893C92.9916 31.1706 93.056 31.267 93.1 31.3732C93.144 31.4794 93.1666 31.5931 93.1666 31.708V38.603C93.1666 38.8285 93.2206 39.2179 93.5837 39.2931C93.985 39.3748 94.5952 39.0429 94.9936 38.1195C95.0885 37.9108 95.2614 37.7478 95.4752 37.6652C95.689 37.5827 95.9267 37.5873 96.1371 37.6781C96.3475 37.7689 96.514 37.9386 96.6006 38.1507C96.6873 38.3629 96.6874 38.6006 96.6007 38.8127C95.9159 40.3982 94.723 41.0536 93.6957 41.0536" fill="white"/>
</g>
</g>
</svg>
