<svg width="109" height="51" viewBox="0 0 109 51" fill="none" xmlns="http://www.w3.org/2000/svg">
<rect width="108.245" height="51" rx="17" fill="#717DFE"/>
<mask id="mask0_342_254" style="mask-type:alpha" maskUnits="userSpaceOnUse" x="0" y="0" width="109" height="51">
<rect width="108.245" height="51" rx="17" fill="#7890F5"/>
</mask>
<g mask="url(#mask0_342_254)">
<path d="M92.3347 59.3265H85.645C75.1393 59.3265 66.6123 50.7995 66.6123 40.2938V33.6041C66.6123 23.0985 75.1393 14.5714 85.645 14.5714H92.3347C102.84 14.5714 111.367 23.0985 111.367 33.6041V40.2938C111.367 50.7995 102.84 59.3265 92.3347 59.3265Z" fill="#6370FF"/>
<path d="M111.367 40.2938V33.6041C111.367 23.0985 102.84 14.5714 92.3347 14.5714H85.645C75.1393 14.5714 66.6123 23.0985 66.6123 33.6041V40.2938C66.6123 50.7995 75.1393 59.3265 85.645 59.3265H92.3347C92.9471 59.3265 93.5596 59.2794 94.1249 59.2323C101.616 56.4057 107.693 50.7053 111.085 43.4974C111.273 42.4609 111.367 41.3774 111.367 40.2938V40.2938Z" fill="#6370FF"/>
<path d="M111.367 34.7635V33.7658C111.367 23.1709 102.84 14.5714 92.3347 14.5714H85.645C75.1393 14.619 66.6123 23.2184 66.6123 33.8133V40.5598C66.6123 49.6819 72.9251 57.3311 81.405 59.279C82.0175 59.3265 82.5828 59.3265 83.1952 59.3265C97.564 59.3265 109.389 48.6841 111.367 34.7635V34.7635Z" fill="#6874FF"/>
<path d="M92.3294 14.5714H85.6411C75.1376 14.5714 66.6123 23.0288 66.6123 33.4486V40.0837C66.6123 45.6908 69.0616 50.6905 72.9709 54.1482C76.1267 55.4565 79.5651 56.2041 83.1918 56.2041C97.6047 56.2041 109.286 44.6161 109.286 30.318C109.286 27.8416 108.909 25.4585 108.297 23.169C104.952 18.0291 99.0649 14.5714 92.3294 14.5714V14.5714Z" fill="#6D79FF"/>
<path d="M107.204 30.4201C107.204 25.9995 105.974 21.814 103.845 18.2869C100.675 15.9355 96.7487 14.5716 92.4908 14.5716H85.7255C75.1754 14.5246 66.6123 23.0367 66.6123 33.524V40.202C66.6123 43.541 67.5112 46.6919 69.0251 49.4195C72.9991 52.3823 77.9667 54.1223 83.3127 54.1223C96.4648 54.1693 107.204 43.4939 107.204 30.4201V30.4201Z" fill="#717DFE"/>
<path d="M85.8436 14.6658C75.2283 14.6658 66.6123 23.2073 66.6123 33.7309V40.4319C66.6123 41.942 66.8027 43.4049 67.1359 44.7735C71.0869 49.2566 76.942 52.0408 83.4159 52.0408C95.4117 52.0408 105.123 42.4139 105.123 30.5219C105.123 24.7646 102.838 19.5737 99.1722 15.704C97.1253 14.9962 94.9356 14.5714 92.6507 14.5714H85.8436V14.6658Z" fill="#7681FE"/>
<path d="M85.4485 14.5714C75.0513 14.5714 66.6123 23.1806 66.6123 33.7874V40.2561C69.876 46.0589 76.0304 49.9592 83.0706 49.9592C93.5145 49.9592 102 41.3025 102 30.6481C102 23.9892 98.7364 18.1388 93.701 14.6666C93.1881 14.619 92.6286 14.5714 92.0691 14.5714H85.4485V14.5714Z" fill="#7B86FE"/>
<path d="M88.6441 14.5714H85.5907C75.2559 14.5714 66.8472 23.0058 66.6123 33.5008C67.8807 41.6476 74.8331 47.8776 83.1479 47.8776C92.4022 47.8776 99.9184 40.21 99.9184 30.7692C99.9184 23.2454 95.2208 16.8717 88.6441 14.5714V14.5714Z" fill="#808AFE"/>
<path d="M68.6938 30.1837C68.6938 32.0972 69.0707 33.992 69.803 35.7599C70.5353 37.5278 71.6086 39.1341 72.9617 40.4872C74.3148 41.8403 75.9211 42.9136 77.689 43.6459C79.4569 44.3782 81.3517 44.7551 83.2653 44.7551C85.1788 44.7551 87.0736 44.3782 88.8415 43.6459C90.6094 42.9136 92.2158 41.8403 93.5688 40.4872C94.9219 39.1341 95.9952 37.5278 96.7275 35.7599C97.4598 33.992 97.8367 32.0972 97.8367 30.1837C97.8367 26.3191 96.3015 22.6128 93.5688 19.8801C90.8362 17.1474 87.1299 15.6122 83.2653 15.6122C79.4007 15.6122 75.6944 17.1474 72.9617 19.8801C70.229 22.6128 68.6938 26.3191 68.6938 30.1837V30.1837Z" fill="#848EFD"/>
<path d="M70.7755 30.7041C70.7755 33.8785 72.0914 36.923 74.4337 39.1677C76.776 41.4124 79.9528 42.6735 83.2653 42.6735C86.5778 42.6735 89.7546 41.4124 92.0969 39.1677C94.4392 36.923 95.7551 33.8785 95.7551 30.7041C95.7551 27.5296 94.4392 24.4851 92.0969 22.2404C89.7546 19.9957 86.5778 18.7347 83.2653 18.7347C79.9528 18.7347 76.776 19.9957 74.4337 22.2404C72.0914 24.4851 70.7755 27.5296 70.7755 30.7041V30.7041Z" fill="#8993FD"/>
<path d="M73.8979 30.7041C73.8979 32.0025 74.1402 33.2883 74.611 34.4879C75.0817 35.6876 75.7717 36.7776 76.6416 37.6958C77.5114 38.6139 78.5441 39.3423 79.6806 39.8392C80.8171 40.3361 82.0352 40.5918 83.2653 40.5918C84.4954 40.5918 85.7135 40.3361 86.85 39.8392C87.9865 39.3423 89.0192 38.6139 89.889 37.6958C90.7588 36.7776 91.4488 35.6876 91.9196 34.4879C92.3903 33.2883 92.6326 32.0025 92.6326 30.7041C92.6326 28.0817 91.6457 25.5667 89.889 23.7124C88.1323 21.8581 85.7497 20.8163 83.2653 20.8163C80.7809 20.8163 78.3983 21.8581 76.6416 23.7124C74.8849 25.5667 73.8979 28.0817 73.8979 30.7041V30.7041Z" fill="#8E97FD"/>
<path opacity="0.8" d="M95.6528 31.3787H90.636L90.1764 30.1837C89.9466 29.6054 89.2573 29.1429 88.6446 29.1429H85.6958C85.083 29.1429 84.3937 29.6054 84.1639 30.1837L83.7044 31.3787H82.364C81.1385 31.3787 80.1428 32.3809 80.1428 33.6145V42.5193C80.1428 43.7528 81.1385 44.7551 82.364 44.7551H95.6145C96.8399 44.7551 97.8356 43.7528 97.8356 42.5193V33.576C97.8739 32.3809 96.8782 31.3787 95.6528 31.3787ZM89.0275 41.7483C86.9978 41.7483 85.3511 40.0907 85.3511 38.0476C85.3511 36.0045 86.9978 34.3469 89.0275 34.3469C91.0572 34.3469 92.704 36.0045 92.704 38.0476C92.704 40.0907 91.0572 41.7483 89.0275 41.7483ZM94.1975 34.6939C93.7762 34.6939 93.4699 34.3469 93.4699 33.9614C93.4699 33.576 93.8145 33.229 94.1975 33.229C94.6188 33.229 94.9251 33.576 94.9251 33.9614C94.9251 34.3469 94.5805 34.6939 94.1975 34.6939Z" fill="white"/>
</g>
</svg>
