<svg width="109" height="51" viewBox="0 0 109 51" fill="none" xmlns="http://www.w3.org/2000/svg">
<rect x="0.510254" width="108.245" height="51" rx="17" fill="#FF9F23"/>
<mask id="mask0_342_288" style="mask-type:alpha" maskUnits="userSpaceOnUse" x="0" y="0" width="109" height="51">
<rect x="0.510254" width="108.245" height="51" rx="17" fill="url(#paint0_linear_342_288)"/>
</mask>
<g mask="url(#mask0_342_288)">
<path d="M93.1242 56.152H86.9168C77.1685 56.152 69.2562 48.2397 69.2562 38.4914V32.284C69.2562 22.5357 77.1685 14.6234 86.9168 14.6234H93.1242C102.873 14.6234 110.785 22.5357 110.785 32.284V38.4914C110.785 48.2397 102.873 56.152 93.1242 56.152Z" fill="#FF9A23"/>
<path d="M110.785 38.4914V32.284C110.785 22.5357 102.873 14.6234 93.1242 14.6234H86.9168C77.1685 14.6234 69.2562 22.5357 69.2562 32.284V38.4914C69.2562 48.2397 77.1685 56.152 86.9168 56.152H93.1242C93.6925 56.152 94.2608 56.1083 94.7854 56.0646C101.736 53.4417 107.375 48.1523 110.523 41.464C110.697 40.5023 110.785 39.4969 110.785 38.4914V38.4914Z" fill="#FF9A23"/>
<path d="M93.1242 14.6234H86.9168C77.1685 14.6234 69.2562 22.5357 69.2562 32.284V38.4914C69.2562 45.2672 73.1031 51.1686 78.7422 54.1412C80.6657 54.5783 82.6328 54.8406 84.6874 54.8406C98.7197 54.8406 110.129 43.4312 110.129 29.3989C110.129 28.6557 110.085 27.9126 110.042 27.2132C107.856 19.9129 101.124 14.6234 93.1242 14.6234V14.6234Z" fill="#FF9F23"/>
<path d="M107.069 29.3989C107.069 25.5083 106.064 21.8363 104.315 18.6014C101.255 16.1097 97.4082 14.6234 93.1679 14.6234H86.9168C77.1685 14.6234 69.2562 22.5357 69.2562 32.284V38.4915C69.2562 41.8575 70.2179 45.0486 71.8791 47.7152C75.5074 50.2506 79.9225 51.7369 84.6874 51.7369C97.0148 51.7806 107.069 41.7263 107.069 29.3989Z" fill="#FFA423"/>
<path d="M86.9168 14.6234C77.1685 14.6234 69.2562 22.5357 69.2562 32.284V38.4914C69.2562 39.4532 69.3437 40.3712 69.4748 41.2892C73.0157 45.7917 78.4799 48.6769 84.6874 48.6769C95.3537 48.6769 104.009 40.0214 104.009 29.3552C103.965 23.8034 101.605 18.7763 97.8454 15.2792C96.3591 14.8857 94.7854 14.6234 93.1679 14.6234H86.9168Z" fill="#FFAA23"/>
<path d="M91.4194 14.6234H86.9168C77.1685 14.6234 69.2562 22.5357 69.2562 32.284V34.4697C71.4857 41.2454 78.0428 46.054 85.6928 45.5732C93.7799 45.0923 100.337 38.5789 100.862 30.4917C101.343 23.4974 97.3208 17.3337 91.4194 14.6234V14.6234Z" fill="#FFAF23"/>
<path d="M71.7041 29.5738C71.7041 31.3017 72.0444 33.0127 72.7057 34.6091C73.3669 36.2055 74.3362 37.6561 75.558 38.8779C76.7798 40.0997 78.2304 41.0689 79.8268 41.7302C81.4232 42.3914 83.1342 42.7318 84.8621 42.7318C86.59 42.7318 88.301 42.3914 89.8975 41.7302C91.4939 41.0689 92.9444 40.0997 94.1662 38.8779C95.388 37.6561 96.3573 36.2055 97.0185 34.6091C97.6798 33.0127 98.0201 31.3017 98.0201 29.5738C98.0201 27.8458 97.6798 26.1348 97.0185 24.5384C96.3573 22.942 95.388 21.4915 94.1662 20.2697C92.9444 19.0478 91.4939 18.0786 89.8975 17.4174C88.301 16.7561 86.59 16.4158 84.8621 16.4158C83.1342 16.4158 81.4232 16.7561 79.8268 17.4174C78.2304 18.0786 76.7798 19.0478 75.558 20.2697C74.3362 21.4915 73.3669 22.942 72.7057 24.5384C72.0444 26.1348 71.7041 27.8458 71.7041 29.5738V29.5738Z" fill="#FFB423"/>
<path d="M74.8079 29.5301C74.8079 30.8504 75.0679 32.1578 75.5732 33.3777C76.0785 34.5975 76.8191 35.7059 77.7527 36.6395C78.6863 37.5731 79.7947 38.3137 81.0145 38.819C82.2344 39.3243 83.5418 39.5843 84.8621 39.5843C86.1825 39.5843 87.4899 39.3243 88.7098 38.819C89.9296 38.3137 91.038 37.5731 91.9716 36.6395C92.9052 35.7059 93.6458 34.5975 94.1511 33.3777C94.6564 32.1578 94.9164 30.8504 94.9164 29.5301C94.9164 26.8635 93.8571 24.3061 91.9716 22.4206C90.0861 20.5351 87.5287 19.4758 84.8621 19.4758C82.1956 19.4758 79.6382 20.5351 77.7527 22.4206C75.8671 24.3061 74.8079 26.8635 74.8079 29.5301V29.5301Z" fill="#FFB923"/>
<path opacity="0.8" d="M87.6284 28.9977C87.884 27.7118 89.1622 26.8546 90.477 27.1046C91.4995 27.2832 92.2664 28.069 92.4125 29.0692C94.3115 29.9622 95.6628 31.9625 95.6628 34.32L95.7723 36.2846C95.7723 36.2846 95.7723 36.8561 96.101 37.7491C96.7584 37.7491 97.3062 38.2849 97.3062 38.9636C97.3062 39.6065 96.7584 40.1423 96.0645 40.1423H83.9399C83.2825 40.1423 82.7347 39.6065 82.7347 38.9636C82.7347 38.3206 83.2825 37.7848 83.9399 37.7848H83.9764C84.2686 36.8918 84.2686 36.3203 84.2686 36.3203L84.159 34.3557C84.159 31.891 85.6928 29.8193 87.6284 28.9977V28.9977ZM92.449 41.3568C92.449 42.6784 91.3534 43.7143 90.0022 43.7143C88.651 43.7143 87.5554 42.6427 87.5554 41.3211L92.449 41.3568V41.3568Z" fill="white"/>
</g>
<defs>
<linearGradient id="paint0_linear_342_288" x1="18.5511" y1="7.28571" x2="83.8201" y2="51.3237" gradientUnits="userSpaceOnUse">
<stop stop-color="#E9C460"/>
<stop offset="1" stop-color="#FFDF89"/>
</linearGradient>
</defs>
</svg>
