<svg width="109" height="51" viewBox="0 0 109 51" fill="none" xmlns="http://www.w3.org/2000/svg">
<rect width="108.245" height="51" rx="17" fill="#FF9F23"/>
<path fill-rule="evenodd" clip-rule="evenodd" d="M108.245 24.0607V34C108.245 43.3888 100.634 51 91.2449 51H73.9433C70.7334 47.8016 68.746 43.3771 68.746 38.4915V32.284C68.746 22.5358 76.6583 14.6235 86.4065 14.6235H92.614C99.3937 14.6235 105.285 18.4505 108.245 24.0607Z" fill="#FF9A23"/>
<path fill-rule="evenodd" clip-rule="evenodd" d="M108.245 24.0607V34C108.245 43.3888 100.634 51 91.2449 51H73.9433C70.7334 47.8016 68.746 43.3771 68.746 38.4915V32.284C68.746 22.5358 76.6583 14.6235 86.4065 14.6235H92.614C99.3937 14.6235 105.285 18.4505 108.245 24.0607Z" fill="#FF9A23"/>
<path fill-rule="evenodd" clip-rule="evenodd" d="M108.245 24.0613V34C108.245 43.3888 100.634 51 91.2449 51H73.9613C70.74 47.7948 68.746 43.3698 68.746 38.4915V32.284C68.746 22.5358 76.6583 14.6235 86.4065 14.6235H92.614C99.4083 14.6235 105.288 18.4389 108.245 24.0613Z" fill="#FF9F23"/>
<rect width="108.245" height="51" rx="17" fill="#FF9F23"/>
<path fill-rule="evenodd" clip-rule="evenodd" d="M89.9426 51H78.4559C75.8827 50.3223 73.4911 49.1983 71.3688 47.7152C69.7077 45.0486 68.746 41.8575 68.746 38.4915V32.284C68.746 22.5358 76.6583 14.6235 86.4065 14.6235H92.6577C96.898 14.6235 100.745 16.1098 103.805 18.6015C105.553 21.8363 106.559 25.5083 106.559 29.3989C106.559 39.7342 99.4916 48.4717 89.9426 51Z" fill="#FFA423"/>
<path d="M86.4065 14.6235C76.6583 14.6235 68.746 22.5358 68.746 32.284V38.4915C68.746 39.4532 68.8334 40.3712 68.9645 41.2892C72.5054 45.7918 77.9697 48.6769 84.1771 48.6769C94.8434 48.6769 103.499 40.0215 103.499 29.3552C103.455 23.8035 101.095 18.7763 97.3351 15.2792C95.8488 14.8858 94.2751 14.6235 92.6577 14.6235H86.4065Z" fill="#FFAA23"/>
<path d="M90.9091 14.6235H86.4065C76.6583 14.6235 68.746 22.5358 68.746 32.284V34.4698C70.9754 41.2455 77.5325 46.054 85.1825 45.5732C93.2697 45.0923 99.8268 38.5789 100.351 30.4918C100.832 23.4975 96.8105 17.3338 90.9091 14.6235V14.6235Z" fill="#FFAF23"/>
<path d="M71.1938 29.5738C71.1938 31.3017 71.5342 33.0127 72.1954 34.6091C72.8567 36.2055 73.8259 37.6561 75.0477 38.8779C76.2696 40.0997 77.7201 41.0689 79.3165 41.7302C80.9129 42.3914 82.6239 42.7318 84.3518 42.7318C86.0798 42.7318 87.7908 42.3914 89.3872 41.7302C90.9836 41.0689 92.4341 40.0997 93.656 38.8779C94.8778 37.6561 95.847 36.2055 96.5083 34.6091C97.1695 33.0127 97.5098 31.3017 97.5098 29.5738C97.5098 27.8458 97.1695 26.1348 96.5083 24.5384C95.847 22.942 94.8778 21.4915 93.656 20.2697C92.4341 19.0478 90.9836 18.0786 89.3872 17.4174C87.7908 16.7561 86.0798 16.4158 84.3518 16.4158C82.6239 16.4158 80.9129 16.7561 79.3165 17.4174C77.7201 18.0786 76.2696 19.0478 75.0477 20.2697C73.8259 21.4915 72.8567 22.942 72.1954 24.5384C71.5342 26.1348 71.1938 27.8458 71.1938 29.5738V29.5738Z" fill="#FFB423"/>
<path d="M74.2976 29.5301C74.2976 30.8504 74.5577 32.1578 75.0629 33.3777C75.5682 34.5975 76.3088 35.7059 77.2424 36.6395C78.1761 37.5731 79.2844 38.3137 80.5043 38.819C81.7241 39.3243 83.0315 39.5843 84.3519 39.5843C85.6722 39.5843 86.9797 39.3243 88.1995 38.819C89.4193 38.3137 90.5277 37.5731 91.4613 36.6395C92.395 35.7059 93.1356 34.5975 93.6408 33.3777C94.1461 32.1578 94.4062 30.8504 94.4062 29.5301C94.4062 26.8635 93.3469 24.3061 91.4613 22.4206C89.5758 20.5351 87.0185 19.4758 84.3519 19.4758C81.6853 19.4758 79.128 20.5351 77.2424 22.4206C75.3569 24.3061 74.2976 26.8635 74.2976 29.5301V29.5301Z" fill="#FFB923"/>
<path opacity="0.8" d="M87.1181 28.9977C87.3738 27.7118 88.652 26.8546 89.9667 27.1046C90.9893 27.2832 91.7562 28.069 91.9023 29.0692C93.8013 29.9622 95.1525 31.9625 95.1525 34.32L95.2621 36.2846C95.2621 36.2846 95.2621 36.8561 95.5908 37.7491C96.2481 37.7491 96.7959 38.2849 96.7959 38.9636C96.7959 39.6065 96.2481 40.1423 95.5542 40.1423H83.4296C82.7723 40.1423 82.2245 39.6065 82.2245 38.9636C82.2245 38.3206 82.7723 37.7848 83.4296 37.7848H83.4662C83.7583 36.8918 83.7583 36.3203 83.7583 36.3203L83.6488 34.3557C83.6488 31.891 85.1826 29.8193 87.1181 28.9977V28.9977ZM91.9388 41.3568C91.9388 42.6784 90.8432 43.7143 89.4919 43.7143C88.1407 43.7143 87.0451 42.6427 87.0451 41.3211L91.9388 41.3568V41.3568Z" fill="white"/>
</svg>
