<svg width="111" height="51" viewBox="0 0 111 51" fill="none" xmlns="http://www.w3.org/2000/svg">
<rect x="0.734741" width="109.286" height="51" rx="17" fill="#2FCC7E"/>
<mask id="mask0_342_270" style="mask-type:alpha" maskUnits="userSpaceOnUse" x="0" y="0" width="111" height="51">
<rect x="0.734741" width="109.286" height="51" rx="17" fill="#93FFCC"/>
</mask>
<g mask="url(#mask0_342_270)">
<path d="M92.5431 62.0327H85.4489C74.308 62.0327 65.2654 52.9901 65.2654 41.8492V34.755C65.2654 23.6141 74.308 14.5714 85.4489 14.5714H92.5431C103.684 14.5714 112.727 23.6141 112.727 34.755V41.8492C112.727 52.9901 103.684 62.0327 92.5431 62.0327Z" fill="#24C570"/>
<path d="M112.727 41.8492V34.755C112.727 23.6141 103.684 14.5714 92.5431 14.5714H85.4489C74.308 14.5714 65.2654 23.6141 65.2654 34.755V41.8492C65.2654 52.9901 74.308 62.0327 85.4489 62.0327H92.5431C93.1926 62.0327 93.842 61.9827 94.4415 61.9328C102.385 58.8852 108.88 52.9401 112.427 45.2464C112.627 44.1972 112.727 43.0482 112.727 41.8492V41.8492Z" fill="#24C570"/>
<path d="M112.727 38.0523V34.755C112.727 23.6141 103.684 14.5714 92.5431 14.5714H85.4489C74.308 14.5714 65.2654 23.6141 65.2654 34.755V41.8492C65.2654 52.5404 73.5586 61.2833 84.0001 61.9827C98.1385 61.4332 109.779 51.3914 112.727 38.0523Z" fill="#28C775"/>
<path d="M92.5431 14.5714H85.4489C74.308 14.5714 65.2654 23.6141 65.2654 34.7549V41.8492C65.2654 48.7935 68.8125 54.9385 74.1581 58.5855C76.9059 59.4847 79.8535 59.9344 82.901 59.9344C98.6881 59.9344 111.428 47.1948 111.428 31.4077C111.428 29.759 111.228 28.1104 111.028 26.4617C107.781 19.5174 100.736 14.5714 92.5431 14.5714V14.5714Z" fill="#2BCA79"/>
<path d="M92.5431 14.5714H85.4489C74.308 14.5714 65.2654 23.6141 65.2654 34.755V41.8492C65.2654 46.5453 66.8641 50.8418 69.6118 54.289C73.5086 56.5372 78.1049 57.8861 82.901 57.8861C97.4891 57.8861 109.379 45.9958 109.379 31.4077C109.379 27.6108 108.53 24.0137 107.131 20.7164C103.434 16.9695 98.2385 14.5714 92.5431 14.5714Z" fill="#2FCC7E"/>
<path d="M107.081 34.3553C107.831 28.0604 106.082 22.1153 102.785 17.4191C99.7372 15.6206 96.2401 14.5714 92.5431 14.5714H85.4489C74.308 14.5714 65.2654 23.6141 65.2654 34.755V41.8991C65.2664 44.6641 65.8272 47.4002 66.914 49.9426C71.4603 53.8394 77.4055 56.1375 83.9501 55.8377C95.8404 55.3381 105.732 46.1457 107.081 34.3553V34.3553Z" fill="#32CF82"/>
<path d="M85.4489 14.5714C74.308 14.5714 65.2654 23.6141 65.2654 34.755V41.8492C65.2654 43.1481 65.3653 44.3971 65.6151 45.6461C69.7117 50.642 75.9566 53.7894 82.9509 53.7894C94.6414 53.7394 104.483 44.497 105.233 32.8065C105.632 26.0621 102.985 19.8172 98.5382 15.4707C96.6397 14.8712 94.6414 14.5714 92.5431 14.5714H85.4489V14.5714Z" fill="#36D187"/>
<path d="M65.2654 34.755V41.4994C69.8117 49.4929 79.6536 54.0392 89.9952 50.4921C96.1402 48.3938 100.836 43.248 102.435 36.9532C104.833 27.7107 101.036 19.2676 94.2417 14.6214C93.6422 14.5714 93.0427 14.5714 92.4432 14.5714H85.3989C74.308 14.5714 65.2654 23.6141 65.2654 34.755Z" fill="#39D48B"/>
<path d="M89.8953 14.5714H85.4489C74.308 14.5714 65.2654 23.6141 65.2654 34.755V36.2537C67.3637 44.0474 74.4579 49.7427 82.901 49.7427C92.9927 49.7427 101.186 41.5494 101.186 31.4576C101.086 23.8139 96.4899 17.3192 89.8953 14.5714Z" fill="#3DD690"/>
<path d="M82.6513 15.3208C81.0026 15.3208 79.4039 15.5706 77.8552 16.0202C74.2082 17.469 71.1606 19.8171 68.9125 22.9146C67.3637 25.4126 66.4645 28.3102 66.4645 31.4576C66.4645 40.4003 73.7086 47.6444 82.6513 47.6444C91.594 47.6944 98.838 40.4503 98.838 31.5076C98.838 22.5649 91.594 15.3208 82.6513 15.3208Z" fill="#40D994"/>
<path d="M68.5128 31.5076C68.5128 35.2573 70.0024 38.8535 72.6539 41.505C75.3053 44.1565 78.9015 45.646 82.6513 45.646C86.401 45.646 89.9972 44.1565 92.6487 41.505C95.3001 38.8535 96.7897 35.2573 96.7897 31.5076C96.7897 27.7578 95.3001 24.1617 92.6487 21.5102C89.9972 18.8587 86.401 17.3691 82.6513 17.3691C78.9015 17.3691 75.3053 18.8587 72.6539 21.5102C70.0024 24.1617 68.5128 27.7578 68.5128 31.5076V31.5076Z" fill="#44DB99"/>
<path d="M70.561 31.5076C70.561 34.7141 71.8348 37.7893 74.1021 40.0566C76.3695 42.324 79.4447 43.5977 82.6512 43.5977C85.8577 43.5977 88.9328 42.324 91.2002 40.0566C93.4675 37.7893 94.7413 34.7141 94.7413 31.5076C94.7413 28.3011 93.4675 25.2259 91.2002 22.9586C88.9328 20.6913 85.8577 19.4175 82.6512 19.4175C79.4447 19.4175 76.3695 20.6913 74.1021 22.9586C71.8348 25.2259 70.561 28.3011 70.561 31.5076V31.5076Z" fill="#47DE9D"/>
<path d="M72.6094 31.5076C72.6094 34.1708 73.6673 36.725 75.5505 38.6082C77.4338 40.4914 79.9879 41.5494 82.6512 41.5494C85.3144 41.5494 87.8686 40.4914 89.7518 38.6082C91.635 36.725 92.693 34.1708 92.693 31.5076C92.693 28.8443 91.635 26.2902 89.7518 24.407C87.8686 22.5238 85.3144 21.4658 82.6512 21.4658C79.9879 21.4658 77.4338 22.5238 75.5505 24.407C73.6673 26.2902 72.6094 28.8443 72.6094 31.5076V31.5076Z" fill="#4BE0A2"/>
<path opacity="0.8" d="M83.2182 30.1837H95.1516C96.4562 30.1837 97.5306 31.0163 97.5306 32.0472V41.365C97.5306 42.3959 96.4946 43.2286 95.1516 43.2286H89.2041L84.4844 46.8367L84.753 43.1889H83.2566C81.952 43.1889 80.8776 42.3563 80.8776 41.3254V32.0472C80.8776 31.0163 81.9136 30.1837 83.2182 30.1837V30.1837ZM93.8854 38.0344C94.6912 38.0344 95.3435 37.3604 95.3435 36.5277C95.3435 35.6951 94.6912 35.021 93.8854 35.021C93.0796 35.021 92.4273 35.6951 92.4273 36.5277C92.4273 37.3604 93.0796 38.0344 93.8854 38.0344ZM89.3192 38.0344C90.125 38.0344 90.7773 37.3604 90.7773 36.5277C90.7773 35.6951 90.125 35.021 89.3192 35.021C88.5134 35.021 87.8611 35.6951 87.8611 36.5277C87.8611 37.3604 88.5134 38.0344 89.3192 38.0344ZM84.6379 38.0344C85.4437 38.0344 86.096 37.3604 86.096 36.5277C86.096 35.6951 85.4437 35.021 84.6379 35.021C83.8321 35.021 83.1798 35.6951 83.1798 36.5277C83.1798 37.3604 83.8321 38.0344 84.6379 38.0344Z" fill="white"/>
</g>
</svg>
