<svg width="24" height="24" viewBox="0 0 24 24" fill="none" xmlns="http://www.w3.org/2000/svg">
<path fill-rule="evenodd" clip-rule="evenodd" d="M12.0002 24C5.37233 24 0 18.6278 0 12C0 5.37225 5.37233 0 12.0002 0C18.6277 0 24 5.37225 24 12C24 18.6278 18.6277 24 12.0002 24ZM12.0002 1.5C6.2101 1.5 1.50002 6.21 1.50002 12C1.50002 17.7896 6.2101 22.5 12.0002 22.5C17.7899 22.5 22.5 17.7896 22.5 12C22.5 6.21 17.7899 1.5 12.0002 1.5ZM11.9155 19.5345C11.9307 19.5343 11.9459 19.5341 11.9608 19.5341C16.7391 19.4779 18.6134 15.3938 18.6903 15.2205C18.8594 14.8418 18.6888 14.3985 18.3108 14.2301C17.9302 14.0595 17.4884 14.2316 17.3208 14.6096L17.3207 14.6098C17.3005 14.6537 15.7647 17.9896 11.9432 18.0341C11.9314 18.0341 11.9197 18.0343 11.9079 18.0345C11.8962 18.0347 11.8845 18.0349 11.8727 18.0349C8.2715 18.0349 6.71785 14.745 6.65335 14.6036C6.48198 14.2286 6.03984 14.0618 5.66184 14.2316C5.28458 14.4023 5.11695 14.8459 5.28758 15.2239C5.36746 15.4012 7.28861 19.5349 11.8697 19.5349C11.8779 19.5349 11.8861 19.5348 11.8943 19.5347C11.9014 19.5347 11.9085 19.5346 11.9155 19.5345ZM15.7382 11.2463C14.9114 11.2463 14.242 10.5757 14.242 9.74962C14.242 8.92425 14.9114 8.25412 15.7382 8.25412C16.5648 8.25412 17.2345 8.92425 17.2345 9.74962C17.2345 10.5757 16.5648 11.2463 15.7382 11.2463ZM6.74186 9.74962C6.74186 10.5757 7.41124 11.2463 8.23813 11.2463C9.06464 11.2463 9.7344 10.5757 9.7344 9.74962C9.7344 8.92425 9.06464 8.25412 8.23813 8.25412C7.41124 8.25412 6.74186 8.92425 6.74186 9.74962Z" fill="#d1d1d1"/>
</svg>
