<svg width="24" height="24" viewBox="0 0 24 24" fill="none" xmlns="http://www.w3.org/2000/svg">
<rect width="24" height="24" fill="white" fill-opacity="0.01"/>
<path fill-rule="evenodd" clip-rule="evenodd" d="M16.5882 6.32813L21.8724 18.0424C22.0621 18.4635 22.0391 18.9613 21.8114 19.3596C21.583 19.7581 21.1821 20 20.7507 20H2.24997C1.81845 20 1.41745 19.7579 1.18925 19.3596C0.960931 18.9615 0.937685 18.4635 1.12776 18.0424L7.57059 3.76054C7.78054 3.29519 8.21542 3 8.6923 3C9.16918 3 9.60456 3.29519 9.81451 3.76054L12.6588 10.0667L14.3448 6.32813C14.5548 5.86278 14.9902 5.56759 15.4665 5.56759C15.9429 5.56759 16.3783 5.86278 16.5882 6.32813ZM14.0504 13.1524L15.9129 17.2818H18.7457L15.4665 10.0123L14.0504 13.1524Z" fill="#d1d1d1"/>
</svg>
