<?xml version="1.0" encoding="UTF-8"?>
<svg width="758px" height="758px" viewBox="0 0 758 758" version="1.1" xmlns="http://www.w3.org/2000/svg" xmlns:xlink="http://www.w3.org/1999/xlink">
    <title>l1b5338edf4629f76e5ffe77d0f530006-s24501657523@chatroom5335987328051803559-m915b03aabbb7e5a93f3e2582997d8a2d</title>
    <defs>
        <path d="M38.792,110.04 C44.0613333,110.04 48.7413333,109.485333 52.832,108.376 C56.9226667,107.266667 60.3546667,105.308 63.128,102.5 C65.9013333,99.692 67.9986667,95.896 69.42,91.112 C70.8413333,86.328 71.552,80.2613333 71.552,72.912 C71.552,65.5626667 70.8413333,59.496 69.42,54.712 C67.9986667,49.928 65.9013333,46.132 63.128,43.324 C60.3546667,40.516 56.9226667,38.5573333 52.832,37.448 C48.7413333,36.3386667 44.0613333,35.784 38.792,35.784 C33.592,35.784 28.9466667,36.3386667 24.856,37.448 C20.7653333,38.5573333 17.3333333,40.516 14.56,43.324 C11.7866667,46.132 9.672,49.928 8.216,54.712 C6.76,59.496 6.032,65.5626667 6.032,72.912 C6.032,80.2613333 6.76,86.328 8.216,91.112 C9.672,95.896 11.7866667,99.692 14.56,102.5 C17.3333333,105.308 20.7653333,107.266667 24.856,108.376 C28.9466667,109.485333 33.592,110.04 38.792,110.04 Z M38.792,96.832 C35.464,96.832 32.76,96.416 30.68,95.584 C28.6,94.752 26.9706667,93.4 25.792,91.528 C24.6133333,89.656 23.7986667,87.1946667 23.348,84.144 C22.8973333,81.0933333 22.672,77.3493333 22.672,72.912 C22.672,68.544 22.8973333,64.8173333 23.348,61.732 C23.7986667,58.6466667 24.6133333,56.1333333 25.792,54.192 C26.9706667,52.2506667 28.6,50.8466667 30.68,49.98 C32.76,49.1133333 35.464,48.68 38.792,48.68 C42.12,48.68 44.8413333,49.1133333 46.956,49.98 C49.0706667,50.8466667 50.7173333,52.2506667 51.896,54.192 C53.0746667,56.1333333 53.8893333,58.6466667 54.34,61.732 C54.7906667,64.8173333 55.016,68.544 55.016,72.912 C55.016,77.3493333 54.7906667,81.0933333 54.34,84.144 C53.8893333,87.1946667 53.0746667,89.656 51.896,91.528 C50.7173333,93.4 49.0706667,94.752 46.956,95.584 C44.8413333,96.416 42.12,96.832 38.792,96.832 Z M102.856,109 L102.856,64.592 L113.88,64.592 L113.88,52.84 L102.856,52.84 C102.856,50.344 102.977333,48.2986667 103.22,46.704 C103.462667,45.1093333 103.913333,43.844 104.572,42.908 C105.230667,41.972 106.149333,41.3306667 107.328,40.984 C108.506667,40.6373333 110.032,40.464 111.904,40.464 C112.666667,40.464 113.429333,40.4986667 114.192,40.568 C114.954667,40.6373333 115.682667,40.7413333 116.376,40.88 L116.376,40.88 L116.376,30.064 C115.336,29.9253333 114.278667,29.804 113.204,29.7 C112.129333,29.596 111.037333,29.544 109.928,29.544 C106.530667,29.544 103.462667,29.8213333 100.724,30.376 C97.9853333,30.9306667 95.6626667,32.0226667 93.756,33.652 C91.8493333,35.2813333 90.376,37.5866667 89.336,40.568 C88.296,43.5493333 87.776,47.4666667 87.776,52.32 L87.776,52.32 L87.776,52.84 L79.144,52.84 L79.144,64.592 L87.776,64.592 L87.776,109 L102.856,109 Z M142.064,109 L142.064,64.592 L153.088,64.592 L153.088,52.84 L142.064,52.84 C142.064,50.344 142.185333,48.2986667 142.428,46.704 C142.670667,45.1093333 143.121333,43.844 143.78,42.908 C144.438667,41.972 145.357333,41.3306667 146.536,40.984 C147.714667,40.6373333 149.24,40.464 151.112,40.464 C151.874667,40.464 152.637333,40.4986667 153.4,40.568 C154.162667,40.6373333 154.890667,40.7413333 155.584,40.88 L155.584,40.88 L155.584,30.064 C154.544,29.9253333 153.486667,29.804 152.412,29.7 C151.337333,29.596 150.245333,29.544 149.136,29.544 C145.738667,29.544 142.670667,29.8213333 139.932,30.376 C137.193333,30.9306667 134.870667,32.0226667 132.964,33.652 C131.057333,35.2813333 129.584,37.5866667 128.544,40.568 C127.504,43.5493333 126.984,47.4666667 126.984,52.32 L126.984,52.32 L126.984,52.84 L118.352,52.84 L118.352,64.592 L126.984,64.592 L126.984,109 L142.064,109 Z M185.432,110.04 C187.858667,110.04 190.198667,109.918667 192.452,109.676 C194.705333,109.433333 196.768,109.138667 198.64,108.792 C200.512,108.445333 202.158667,108.029333 203.58,107.544 C205.001333,107.058667 206.128,106.573333 206.96,106.088 L206.96,106.088 L206.96,94.232 C206.058667,94.7173333 204.897333,95.2026667 203.476,95.688 C202.054667,96.1733333 200.512,96.5893333 198.848,96.936 C197.184,97.2826667 195.450667,97.5773333 193.648,97.82 C191.845333,98.0626667 190.077333,98.184 188.344,98.184 C183.352,98.184 179.642667,97.248 177.216,95.376 C174.789333,93.504 173.437333,90.5573333 173.16,86.536 L173.16,86.536 L209.352,84.248 C209.490667,83.4853333 209.612,82.3933333 209.716,80.972 C209.82,79.5506667 209.872,78.0426667 209.872,76.448 C209.872,72.8426667 209.542667,69.532 208.884,66.516 C208.225333,63.5 206.994667,60.9 205.192,58.716 C203.389333,56.532 200.928,54.8333333 197.808,53.62 C194.688,52.4066667 190.701333,51.8 185.848,51.8 C181.48,51.8 177.562667,52.2506667 174.096,53.152 C170.629333,54.0533333 167.717333,55.6133333 165.36,57.832 C163.002667,60.0506667 161.2,63.032 159.952,66.776 C158.704,70.52 158.08,75.2346667 158.08,80.92 C158.08,86.6053333 158.704,91.32 159.952,95.064 C161.2,98.808 162.985333,101.789333 165.308,104.008 C167.630667,106.226667 170.490667,107.786667 173.888,108.688 C177.285333,109.589333 181.133333,110.04 185.432,110.04 Z M173.16,76.032 C173.229333,73.8133333 173.506667,71.8893333 173.992,70.26 C174.477333,68.6306667 175.205333,67.296 176.176,66.256 C177.146667,65.216 178.412,64.436 179.972,63.916 C181.532,63.396 183.490667,63.136 185.848,63.136 C188.066667,63.136 189.852,63.4306667 191.204,64.02 C192.556,64.6093333 193.596,65.4066667 194.324,66.412 C195.052,67.4173333 195.537333,68.596 195.78,69.948 C196.022667,71.3 196.144,72.7386667 196.144,74.264 L196.144,74.264 L173.16,76.032 Z M237.016,109 L237.016,77.072 C237.432,74.784 238.16,72.8773333 239.2,71.352 C240.24,69.8266667 241.453333,68.6133333 242.84,67.712 C244.226667,66.8106667 245.769333,66.1693333 247.468,65.788 C249.166667,65.4066667 250.882667,65.216 252.616,65.216 L252.616,65.216 L254.072,65.216 L254.488,51.8 L253.344,51.8 C251.68,51.8 250.050667,51.9386667 248.456,52.216 C246.861333,52.4933333 245.370667,53.048 243.984,53.88 C242.597333,54.712 241.297333,55.856 240.084,57.312 C238.870667,58.768 237.848,60.64 237.016,62.928 L237.016,62.928 L237.016,52.84 L221.936,52.84 L221.936,109 L237.016,109 Z M282.776,110.04 C292.690667,110.04 299.797333,108.185333 304.096,104.476 C308.394667,100.766667 310.544,95.376 310.544,88.304 C310.544,84.9066667 310.266667,82.012 309.712,79.62 C309.157333,77.228 308.1,75.148 306.54,73.38 C304.98,71.612 302.830667,70.0866667 300.092,68.804 C297.353333,67.5213333 293.834667,66.36 289.536,65.32 C286.901333,64.696 284.769333,64.1066667 283.14,63.552 C281.510667,62.9973333 280.262667,62.3906667 279.396,61.732 C278.529333,61.0733333 277.957333,60.328 277.68,59.496 C277.402667,58.664 277.264,57.6586667 277.264,56.48 C277.264,53.4293333 278.182667,51.384 280.02,50.344 C281.857333,49.304 284.821333,48.784 288.912,48.784 C290.437333,48.784 292.049333,48.8533333 293.748,48.992 C295.446667,49.1306667 297.128,49.3386667 298.792,49.616 C300.456,49.8933333 301.981333,50.188 303.368,50.5 C304.754667,50.812 305.898667,51.1066667 306.8,51.384 L306.8,51.384 L306.8,38.384 C304.858667,37.6906667 302.310667,37.084 299.156,36.564 C296.001333,36.044 292.378667,35.784 288.288,35.784 C279.898667,35.784 273.398667,37.396 268.788,40.62 C264.177333,43.844 261.872,49.2693333 261.872,56.896 C261.872,60.1546667 262.184,62.8933333 262.808,65.112 C263.432,67.3306667 264.506667,69.22 266.032,70.78 C267.557333,72.34 269.585333,73.6573333 272.116,74.732 C274.646667,75.8066667 277.853333,76.7946667 281.736,77.696 C284.509333,78.3893333 286.745333,79.048 288.444,79.672 C290.142667,80.296 291.46,80.9893333 292.396,81.752 C293.332,82.5146667 293.973333,83.3813333 294.32,84.352 C294.666667,85.3226667 294.84,86.5013333 294.84,87.888 C294.84,89.4826667 294.632,90.8346667 294.216,91.944 C293.8,93.0533333 293.089333,93.9546667 292.084,94.648 C291.078667,95.3413333 289.761333,95.8266667 288.132,96.104 C286.502667,96.3813333 284.509333,96.52 282.152,96.52 C280.28,96.52 278.390667,96.4333333 276.484,96.26 C274.577333,96.0866667 272.722667,95.8786667 270.92,95.636 C269.117333,95.3933333 267.418667,95.0986667 265.824,94.752 C264.229333,94.4053333 262.877333,94.024 261.768,93.608 L261.768,93.608 L261.768,107.44 C263.986667,108.064 266.985333,108.653333 270.764,109.208 C274.542667,109.762667 278.546667,110.04 282.776,110.04 Z M338.832,109 L338.832,72.184 C339.664,69.1333333 341.085333,67.0186667 343.096,65.84 C345.106667,64.6613333 347.672,64.072 350.792,64.072 C354.397333,64.072 356.824,64.8693333 358.072,66.464 C359.32,68.0586667 359.944,70.7626667 359.944,74.576 L359.944,74.576 L359.944,109 L375.024,109 L375.024,70.624 C375.024,67.504 374.712,64.7826667 374.088,62.46 C373.464,60.1373333 372.424,58.1786667 370.968,56.584 C369.512,54.9893333 367.588,53.7933333 365.196,52.996 C362.804,52.1986667 359.874667,51.8 356.408,51.8 C352.248,51.8 348.66,52.4586667 345.644,53.776 C342.628,55.0933333 340.357333,57.0693333 338.832,59.704 L338.832,59.704 L338.832,29.96 L323.752,29.96 L323.752,109 L338.832,109 Z M414.544,110.04 C418.912,110.04 422.794667,109.589333 426.192,108.688 C429.589333,107.786667 432.449333,106.226667 434.772,104.008 C437.094667,101.789333 438.88,98.808 440.128,95.064 C441.376,91.32 442,86.6053333 442,80.92 C442,75.2346667 441.376,70.52 440.128,66.776 C438.88,63.032 437.094667,60.0506667 434.772,57.832 C432.449333,55.6133333 429.589333,54.0533333 426.192,53.152 C422.794667,52.2506667 418.912,51.8 414.544,51.8 C410.176,51.8 406.276,52.2506667 402.844,53.152 C399.412,54.0533333 396.534667,55.6133333 394.212,57.832 C391.889333,60.0506667 390.104,63.032 388.856,66.776 C387.608,70.52 386.984,75.2346667 386.984,80.92 C386.984,86.6053333 387.608,91.32 388.856,95.064 C390.104,98.808 391.889333,101.789333 394.212,104.008 C396.534667,106.226667 399.412,107.786667 402.844,108.688 C406.276,109.589333 410.176,110.04 414.544,110.04 Z M414.544,98.6 C412.256,98.6 410.349333,98.3226667 408.824,97.768 C407.298667,97.2133333 406.068,96.26 405.132,94.908 C404.196,93.556 403.52,91.736 403.104,89.448 C402.688,87.16 402.48,84.3173333 402.48,80.92 C402.48,77.5226667 402.670667,74.68 403.052,72.392 C403.433333,70.104 404.092,68.2666667 405.028,66.88 C405.964,65.4933333 407.212,64.5053333 408.772,63.916 C410.332,63.3266667 412.256,63.032 414.544,63.032 C416.832,63.032 418.738667,63.3266667 420.264,63.916 C421.789333,64.5053333 423.02,65.4933333 423.956,66.88 C424.892,68.2666667 425.568,70.104 425.984,72.392 C426.4,74.68 426.608,77.5226667 426.608,80.92 C426.608,84.3173333 426.417333,87.16 426.036,89.448 C425.654667,91.736 424.996,93.556 424.06,94.908 C423.124,96.26 421.876,97.2133333 420.316,97.768 C418.756,98.3226667 416.832,98.6 414.544,98.6 Z M482.56,109 L491.816,70.624 L492.44,70.624 L501.696,109 L520.624,109 L536.016,52.84 L520.208,52.84 L511.368,93.4 L510.744,93.4 L500.864,52.84 L483.808,52.84 L473.928,93.4 L473.304,93.4 L464.464,52.84 L448.448,52.84 L463.632,109 L482.56,109 Z" id="path-1"></path>
    </defs>
    <g id="页面-1" stroke="none" stroke-width="1" fill="none" fill-rule="evenodd">
        <g id="l1b5338edf4629f76e5ffe77d0f530006-s24501657523@chatroom5335987328051803559-m915b03aabbb7e5a93f3e2582997d8a2d">
            <rect id="矩形" fill="#3693EF" fill-rule="nonzero" x="0" y="0" width="758" height="758" rx="112"></rect>
            <g id="编组-23" transform="translate(68.000000, 76.000000)">
                <g id="资源-5">
                    <path d="M442.9311,68.9386816 L442.9311,226.99789 L467,226.99789 L467,69.6524686 C467,43.965059 446.586007,22.5425267 420.921427,22.2213226 C414.771077,22.1385126 408.665512,23.2788275 402.958896,25.5761215 C398.38998,27.4505744 393.134811,25.8145944 390.434153,21.67706 C381.259465,7.19710487 364.890987,-1.08188478 347.801699,0.114050995 C330.712412,1.30998677 315.654265,11.7882621 308.582063,27.4052006 C306.061276,32.9391971 299.907328,35.831973 294.042664,34.2397112 C290.263992,33.2085557 286.370177,32.6599388 282.453935,32.6069234 C256.299063,32.2321852 235.109516,53.8599313 235.109516,80.0380694 L235.109516,89.0585526 C235.109516,94.0550616 231.748784,96.4105587 228.58417,95.2417325 C222.973869,93.172372 217.016563,92.2089022 211.040615,92.4044292 C185.723698,93.1895948 165.82674,114.442603 165.82674,139.790963 C165.829602,142.584658 164.678255,145.25521 162.645545,147.169753 C160.612835,149.084295 157.879684,150.072424 155.093794,149.899972 C154.460871,149.899972 153.827948,149.846438 153.18611,149.846438 L70.8169844,149.846438 C45.2593779,149.846438 23.9093718,170.117989 23.4369082,195.689408 C23.3303186,201.850051 24.4484628,207.970436 26.7263246,213.694685 C28.4973696,218.246119 26.7216407,223.412011 22.5276386,225.909365 C7.38655239,235.064739 -1.27798402,252.004245 0.153548992,269.651582 C1.58508201,287.298918 12.8663649,302.617561 29.2847595,309.208307 C34.4532534,311.298902 37.2002021,316.967355 35.6407321,322.324144 C34.4925917,326.340967 33.8928555,330.494834 33.8578506,334.672659 C33.5547608,360.779418 55.1276271,381.880746 81.2022692,381.880746 L86.1586798,381.880746 C88.9115925,381.873919 91.5132248,383.140521 93.2073339,385.312375 C94.9014431,387.484229 95.4979581,390.317664 94.823484,392.989056 C91.3285871,407.380636 94.4714893,422.582372 103.385832,434.403822 C112.300175,446.225271 126.044733,453.41826 140.830741,454 L161.690455,454 C177.250939,453.990149 189.859986,441.361898 189.859983,425.787569 L189.859983,139.095021 C189.859983,126.598448 199.981454,116.467973 212.466921,116.467973 C224.952388,116.467973 235.073858,126.598448 235.073858,139.095021 L235.073858,243.236544 L235.073858,243.236544 L235.073858,245.368983 C235.071491,248.564283 236.338642,251.629392 238.596053,253.888811 C240.853463,256.148229 243.915849,257.416508 247.108308,257.414138 L247.108308,257.414138 C250.300768,257.416508 253.363154,256.148229 255.620564,253.888811 C257.877975,251.629392 259.145126,248.564283 259.142759,245.368983 L259.142759,234.233906 L259.142759,234.233906 L259.142759,79.3153601 C259.142759,66.8187866 269.264229,56.6883122 281.749696,56.6883122 C294.235163,56.6883122 304.356634,66.8187866 304.356634,79.3153601 L304.356634,243.236544 L304.356634,243.236544 L304.356634,245.368983 C304.356634,252.021339 309.744641,257.414138 316.391084,257.414138 C323.037527,257.414138 328.425534,252.021339 328.425534,245.368983 L328.425534,234.233906 C328.425534,234.055459 328.425534,233.885934 328.425534,233.707488 L328.425534,46.7220613 C328.263034,38.5326964 332.535149,30.8948384 339.595201,26.752484 C346.655253,22.6101296 355.400777,22.6101296 362.460829,26.752484 C369.52088,30.8948384 373.792995,38.5326964 373.630495,46.7220613 L373.630495,243.236544 L373.630495,243.236544 L373.630495,245.368983 C373.630495,252.021339 379.018502,257.414138 385.664945,257.414138 C392.311389,257.414138 397.699396,252.021339 397.699396,245.368983 L397.699396,234.233906 C397.699396,234.117915 397.699396,234.010847 397.699396,233.894857 L397.699396,68.9386816 C397.699396,56.4421081 407.820866,46.3116338 420.306333,46.3116338 C432.7918,46.3116338 442.913271,56.4421081 442.913271,68.9386816 L442.9311,68.9386816 Z M70.1038318,173.892137 L153.177196,173.892137 C158.858079,173.901972 163.459516,178.511494 163.464422,184.197437 L163.464422,208.849856 C163.454608,214.532314 158.854604,219.13641 153.177196,219.146233 L70.1038318,219.146233 C57.6183649,219.146233 47.4968942,209.015759 47.4968942,196.519185 C47.4968942,184.022612 57.6183649,173.892137 70.1038318,173.892137 L70.1038318,173.892137 Z M46.6589399,288.49064 C34.1734734,288.49064 24.0520032,278.360165 24.0520032,265.863592 C24.0520032,253.367019 34.1734734,243.236544 46.6589399,243.236544 L153.18611,243.236544 C158.860037,243.251274 163.454625,247.853937 163.464422,253.532922 L163.464422,278.18534 C163.461086,283.568303 159.315624,288.040208 153.952749,288.446028 L80.498031,288.446028 C79.972081,288.446028 79.4639597,288.446028 78.9469241,288.49064 L46.6589399,288.49064 Z M164.899642,415.196754 C164.889823,421.968227 159.407786,427.45514 152.642331,427.464968 L139.939301,427.464968 C130.915431,427.455926 122.759839,422.080649 119.18656,413.787025 C118.547777,411.678088 118.223803,409.486361 118.223803,407.282641 C118.23854,394.792182 128.351384,384.670343 140.830741,384.655593 L159.943231,384.655593 C163.049829,386.960335 164.884459,390.599774 164.890727,394.470164 L164.899642,415.196754 Z M164.899642,347.494058 C164.889865,353.169572 160.300689,357.770805 154.630244,357.790435 L80.498031,357.790435 C68.3115788,357.725072 58.3700844,348.003432 58.0214881,335.810955 C57.6728917,323.618478 67.042667,313.343724 79.2054419,312.580951 L153.195025,312.580951 C153.694232,312.580951 154.184524,312.580951 154.674816,312.536339 C160.331311,312.580416 164.89492,317.179943 164.899642,322.841639 L164.899642,347.494058 Z" id="形状" fill="#FFFFFF" fill-rule="nonzero"></path>
                    <path d="M455,228 C455,239.712585 455,249.277575 455,254.098882 C455,254.892371 455,256.772595 455.224839,259.27381 C455.395821,261.300514 455.673817,263.316003 456.057578,265.311224 C456.890316,269.433916 457.439923,272.39225 459.097073,275.885326 C460.651956,279.193177 462.789921,282.170987 465.400903,284.665452 C467.521752,286.636934 469.941225,288.233721 472.562453,289.391885 C476.41647,291.006547 480.592795,291.622364 484.728761,291.18586 C487.718291,290.86674 490.033304,290.047376 497.11158,286.459427 C503.507011,283.225097 506.138465,281.60362 512.100872,278.360666 C520.703059,273.685982 525.108245,271.31414 530.137985,269.589164 C534.554408,267.954367 539.150558,266.896834 543.819877,266.441084 C547.517235,266.113338 554.462273,265.509597 561.199127,268.010811 C573.140596,272.461249 582.017587,285.812561 582.925272,299.517493 C583.591462,309.737974 579.635955,317.465865 577.712329,321.079689 C574.806072,326.573737 571.200315,330.636054 559.242192,340.201045 C545.502008,351.197765 542.112763,352.353499 525.358067,364.954446 C515.090402,372.665087 516.830826,371.854349 503.41541,382.048955 C496.503681,387.292881 492.589811,390.104592 486.902208,395.331268 C481.905777,399.936953 477.866996,403.654276 473.65334,409.72619 C470.296491,414.492676 467.592232,419.717094 465.617414,425.250972 C464.197454,429.32053 463.249805,433.550549 462.794431,437.851919 C462.661193,439.145651 462.602902,440.232386 462.569592,441" id="路径" stroke="#FFFFFF" stroke-width="24" stroke-linecap="round"></path>
                </g>
                <g id="OfferShow" transform="translate(45.000000, 479.000000)" fill-rule="nonzero">
                    <g>
                        <use fill="#000000" xlink:href="#path-1"></use>
                        <use fill="#FFFFFF" xlink:href="#path-1"></use>
                    </g>
                </g>
            </g>
        </g>
    </g>
</svg>