<svg width="85" height="94" viewBox="0 0 85 94" fill="none" xmlns="http://www.w3.org/2000/svg">
<path d="M79.9 94C79.9 94 52.17 77.55 49.115 75.905C45.59 74.025 44.415 72.85 42.3 72.85C39.95 72.85 39.01 74.495 35.25 76.61C32.43 78.255 4.7 94 4.7 94C2.115 94 0 91.885 0 89.3V7.05C0 3.055 3.055 0 7.05 0H77.55C81.545 0 84.6 3.055 84.6 7.05V89.3C84.6 91.885 82.485 94 79.9 94Z" fill="#959595"/>
<path d="M33.0037 53.4303H27.6326V27.6732L21 31.1319V25.5166L28.6498 21.5697H33.0037V53.4303Z" fill="white"/>
<path d="M51.1908 54C47.61 54 44.843 52.5758 42.8899 49.7275C40.9368 46.8792 39.9602 42.8101 39.9602 37.5203C39.9602 32.2306 40.9368 28.1615 42.8899 25.3132C44.843 22.4377 47.61 21 51.1908 21C54.7715 21 57.5385 22.4377 59.4916 25.3132C61.4448 28.1615 62.4213 32.2306 62.4213 37.5203C62.4213 42.8101 61.4448 46.8792 59.4916 49.7275C57.5385 52.5758 54.7715 54 51.1908 54ZM51.1908 48.9951C53.0083 48.9951 54.4189 48.0049 55.4226 46.0247C56.4263 44.0173 56.9281 41.1825 56.9281 37.5203C56.9281 33.8311 56.4263 30.9963 55.4226 29.016C54.4189 27.0086 53.0083 26.0049 51.1908 26.0049C49.3733 26.0049 47.9627 27.0086 46.959 29.016C45.9553 30.9963 45.4534 33.8311 45.4534 37.5203C45.4534 41.1825 45.9553 44.0173 46.959 46.0247C47.9627 48.0049 49.3733 48.9951 51.1908 48.9951Z" fill="white"/>
</svg>
