<svg width="85" height="94" viewBox="0 0 85 94" fill="none" xmlns="http://www.w3.org/2000/svg">
<path d="M80.2 94C80.2 94 52.47 77.55 49.415 75.905C45.89 74.025 44.715 72.85 42.6 72.85C40.25 72.85 39.31 74.495 35.55 76.61C32.73 78.255 5.00005 94 5.00005 94C2.41505 94 0.300049 91.885 0.300049 89.3V7.05C0.300049 3.055 3.35505 0 7.35005 0H77.85C81.845 0 84.9 3.055 84.9 7.05V89.3C84.9 91.885 82.785 94 80.2 94Z" fill="#FF8F27"/>
<path d="M40.9691 49.7528H55V55H32.444V50.9473L43.0116 39.7277C44.9949 37.5947 46.3713 35.8599 47.1409 34.5232C47.9106 33.1865 48.2954 31.9067 48.2954 30.6838C48.2954 29.3471 47.8366 28.2664 46.9189 27.4417C46.0013 26.6169 44.8172 26.2045 43.3668 26.2045C41.9755 26.2045 40.7323 26.6311 39.6371 27.4843C38.5714 28.3091 37.7426 29.5036 37.1506 31.0678L32 28.8921C32.8584 26.4463 34.2941 24.5266 36.3069 23.133C38.3198 21.7394 40.7175 21.0284 43.5 21C45.6017 21 47.4665 21.3982 49.0946 22.1945C50.7227 22.9908 51.9955 24.1142 52.9131 25.5646C53.8308 26.9866 54.2896 28.6361 54.2896 30.5132C54.2896 32.3333 53.7864 34.1819 52.7799 36.059C51.7735 37.9076 50.1306 40.0406 47.8514 42.458L40.9691 49.7528Z" fill="white"/>
</svg>
