<svg width="85" height="94" viewBox="0 0 85 94" fill="none" xmlns="http://www.w3.org/2000/svg">
<path d="M79.9 94C79.9 94 52.17 77.55 49.115 75.905C45.59 74.025 44.415 72.85 42.3 72.85C39.95 72.85 39.01 74.495 35.25 76.61C32.43 78.255 4.7 94 4.7 94C2.115 94 0 91.885 0 89.3V7.05C0 3.055 3.055 0 7.05 0H77.55C81.545 0 84.6 3.055 84.6 7.05V89.3C84.6 91.885 82.485 94 79.9 94Z" fill="#2757FF"/>
<path d="M43.7048 34.2246L44.4495 34.1819C46.0851 34.1819 47.633 34.5801 49.0933 35.3764C50.5537 36.1727 51.7365 37.3388 52.6419 38.8745C53.5473 40.3818 54 42.1593 54 44.207C54 46.34 53.5181 48.2313 52.5543 49.8808C51.5905 51.5019 50.2324 52.7675 48.48 53.6775C46.7568 54.5592 44.7708 55 42.5219 55C39.8057 55 37.44 54.3174 35.4248 52.9523C33.4095 51.5588 31.9346 49.6533 31 47.2359L36.301 45.4015C37.44 48.3593 39.5283 49.8381 42.5657 49.8381C44.2597 49.8381 45.6178 49.3262 46.64 48.3024C47.6914 47.2785 48.2171 45.9134 48.2171 44.207C48.2171 42.4722 47.6768 41.1071 46.5962 40.1117C45.5156 39.0878 44.0552 38.5759 42.2152 38.5759C41.193 38.5759 40.127 38.903 39.0171 39.5571L35.819 35.5044L44.7562 26.2472H32.2705V21H52.2914V25.7353L43.6171 34.0113L43.7048 34.2246Z" fill="white"/>
</svg>
