<svg width="85" height="94" viewBox="0 0 85 94" fill="none" xmlns="http://www.w3.org/2000/svg">
<path d="M79.9 94C79.9 94 52.17 77.55 49.115 75.905C45.59 74.025 44.415 72.85 42.3 72.85C39.95 72.85 39.01 74.495 35.25 76.61C32.43 78.255 4.7 94 4.7 94C2.115 94 0 91.885 0 89.3V7.05C0 3.055 3.055 0 7.05 0H77.55C81.545 0 84.6 3.055 84.6 7.05V89.3C84.6 91.885 82.485 94 79.9 94Z" fill="#959595"/>
<path d="M50.0209 42.1571H54V47.341H50.0209V54H44.4503V47.341H30V43.6322L42.2304 21H50.0209V42.1571ZM44.4503 27.2375L36.4921 42.1571H44.4503V27.2375Z" fill="white"/>
</svg>
