<svg width="85" height="94" viewBox="0 0 85 94" fill="none" xmlns="http://www.w3.org/2000/svg">
<path d="M79.9 94C79.9 94 52.17 77.55 49.115 75.905C45.59 74.025 44.415 72.85 42.3 72.85C39.95 72.85 39.01 74.495 35.25 76.61C32.43 78.255 4.7 94 4.7 94C2.115 94 0 91.885 0 89.3V7.05C0 3.055 3.055 0 7.05 0H77.55C81.545 0 84.6 3.055 84.6 7.05V89.3C84.6 91.885 82.485 94 79.9 94Z" fill="#959595"/>
<path d="M43.4545 32.8005C45.3636 32.8005 47.0341 33.2284 48.4659 34.0841C49.9242 34.9398 51.0379 36.1543 51.8068 37.7277C52.6023 39.3011 53 41.123 53 43.1932C53 45.4015 52.5625 47.32 51.6875 48.9486C50.8125 50.5772 49.5795 51.8331 47.9886 52.7164C46.4242 53.5721 44.5814 54 42.4602 54C39.8883 54 37.6742 53.3237 35.8182 51.9711C33.9621 50.6186 32.6894 48.8243 32 46.5885L36.8125 44.8908C37.2898 46.1606 38.0057 47.1681 38.9602 47.9134C39.9148 48.6311 41.0682 48.99 42.4205 48.99C44.0644 48.99 45.3636 48.4931 46.3182 47.4994C47.2727 46.478 47.75 45.1117 47.75 43.4002C47.75 41.6612 47.2595 40.2949 46.2784 39.3011C45.3239 38.3074 44.0114 37.8105 42.3409 37.8105C41.3333 37.8105 40.4053 38.059 39.5568 38.5558C38.7083 39.0251 37.9924 39.7152 37.4091 40.6261L32.9545 39.5496L34.2273 21H51.4091V26.01H39.1193L38.483 34.2497C39.8883 33.2836 41.5455 32.8005 43.4545 32.8005Z" fill="white"/>
</svg>
