<svg width="85" height="94" viewBox="0 0 85 94" fill="none" xmlns="http://www.w3.org/2000/svg">
<path d="M79.9 94C79.9 94 52.17 77.55 49.115 75.905C45.59 74.025 44.415 72.85 42.3 72.85C39.95 72.85 39.01 74.495 35.25 76.61C32.43 78.255 4.7 94 4.7 94C2.115 94 0 91.885 0 89.3V7.05C0 3.055 3.055 0 7.05 0H77.55C81.545 0 84.6 3.055 84.6 7.05V89.3C84.6 91.885 82.485 94 79.9 94Z" fill="#959595"/>
<path d="M42.2208 54C40.0678 54 38.1355 53.5445 36.4241 52.6336C34.7127 51.6951 33.3739 50.3977 32.4078 48.7415C31.4693 47.0853 31 45.2083 31 43.1104C31 41.1782 31.3036 39.3149 31.9109 37.5207C32.5182 35.7265 33.6085 33.4768 35.1819 30.7716L40.8545 21H47.3551L39.8607 33.2974L39.9849 33.4216C41.0615 32.7591 42.3312 32.4279 43.7942 32.4279C45.5885 32.4279 47.2309 32.8695 48.7215 33.7528C50.212 34.6361 51.3852 35.8783 52.2409 37.4793C53.1242 39.0803 53.5659 40.9021 53.5659 42.9448C53.5659 45.0979 53.0828 47.0163 52.1167 48.7001C51.1506 50.3839 49.798 51.6951 48.059 52.6336C46.3476 53.5445 44.4015 54 42.2208 54ZM42.345 49.0314C43.9737 49.0314 45.3124 48.4793 46.3614 47.3752C47.4379 46.271 47.9762 44.8494 47.9762 43.1104C47.9762 41.4266 47.4655 40.0602 46.4442 39.0113C45.4228 37.9348 44.1117 37.3965 42.5107 37.3965C40.7992 37.3965 39.3915 37.9348 38.2873 39.0113C37.1832 40.0602 36.6311 41.4266 36.6311 43.1104C36.6311 44.8494 37.1556 46.271 38.2045 47.3752C39.2811 48.4793 40.6612 49.0314 42.345 49.0314Z" fill="white"/>
</svg>
