<svg width="85" height="94" viewBox="0 0 85 94" fill="none" xmlns="http://www.w3.org/2000/svg">
<path d="M79.9 94C79.9 94 52.17 77.55 49.115 75.905C45.59 74.025 44.415 72.85 42.3 72.85C39.95 72.85 39.01 74.495 35.25 76.61C32.43 78.255 4.7 94 4.7 94C2.115 94 0 91.885 0 89.3V7.05C0 3.055 3.055 0 7.05 0H77.55C81.545 0 84.6 3.055 84.6 7.05V89.3C84.6 91.885 82.485 94 79.9 94Z" fill="#959595"/>
<path d="M42.2306 54C40.0604 54 38.1208 53.6067 36.4118 52.82C34.7028 52.0333 33.3736 50.9482 32.4242 49.5647C31.4747 48.1813 31 46.6079 31 44.8446C31 42.9186 31.5697 41.2096 32.709 39.7176C33.8483 38.1985 35.2454 37.1406 36.9001 36.5438V36.4217C35.598 35.9063 34.4723 35.0111 33.5228 33.7361C32.6005 32.434 32.1393 30.9827 32.1393 29.3822C32.1393 27.7818 32.5598 26.344 33.4007 25.0691C34.2688 23.7941 35.4624 22.8039 36.9815 22.0986C38.5277 21.3662 40.2774 21 42.2306 21C44.1837 21 45.9334 21.3662 47.4797 22.0986C49.0259 22.8039 50.2195 23.7941 51.0604 25.0691C51.9285 26.344 52.3625 27.7818 52.3625 29.3822C52.3625 31.0641 51.8878 32.5425 50.9383 33.8175C49.9889 35.0654 48.8496 35.9334 47.5203 36.4217V36.5438C49.2022 37.1677 50.6128 38.2392 51.7522 39.7583C52.9186 41.2503 53.5018 42.9457 53.5018 44.8446C53.5018 46.6079 53.0271 48.1813 52.0777 49.5647C51.1282 50.9482 49.799 52.0333 48.09 52.82C46.381 53.6067 44.4279 54 42.2306 54ZM42.2306 34.143C43.5869 34.143 44.6991 33.7633 45.5672 33.0037C46.4353 32.2441 46.8693 31.2676 46.8693 30.074C46.8693 28.8261 46.4353 27.8224 45.5672 27.0629C44.7263 26.3033 43.6141 25.9236 42.2306 25.9236C40.8471 25.9236 39.7213 26.3033 38.8533 27.0629C38.0123 27.8224 37.5919 28.8261 37.5919 30.074C37.5919 31.2676 38.0259 32.2441 38.894 33.0037C39.762 33.7633 40.8742 34.143 42.2306 34.143ZM42.2306 49.1171C43.9125 49.1171 45.2824 48.656 46.3403 47.7337C47.3983 46.7842 47.9272 45.5499 47.9272 44.0308C47.9272 42.5117 47.3983 41.291 46.3403 40.3687C45.2824 39.4192 43.9125 38.9445 42.2306 38.9445C40.5758 38.9445 39.2059 39.4192 38.1208 40.3687C37.0629 41.291 36.5339 42.5117 36.5339 44.0308C36.5339 45.5499 37.0629 46.7842 38.1208 47.7337C39.1788 48.656 40.5487 49.1171 42.2306 49.1171Z" fill="white"/>
</svg>
