<svg width="85" height="94" viewBox="0 0 85 94" fill="none" xmlns="http://www.w3.org/2000/svg">
<path d="M79.9 94C79.9 94 52.17 77.55 49.115 75.905C45.59 74.025 44.415 72.85 42.3 72.85C39.95 72.85 39.01 74.495 35.25 76.61C32.43 78.255 4.7 94 4.7 94C2.115 94 0 91.885 0 89.3V7.05C0 3.055 3.055 0 7.05 0H77.55C81.545 0 84.6 3.055 84.6 7.05V89.3C84.6 91.885 82.485 94 79.9 94Z" fill="#959595"/>
<path d="M37.2522 54L44.7051 41.7026L44.5809 41.5784C43.5596 42.2685 42.2898 42.6136 40.7716 42.6136C38.9774 42.6136 37.335 42.1581 35.8444 41.2472C34.3538 40.3363 33.1669 39.0803 32.2836 37.4793C31.4279 35.8783 31 34.0703 31 32.0552C31 29.9297 31.4831 28.0251 32.4492 26.3413C33.4153 24.6575 34.7541 23.3463 36.4655 22.4078C38.2045 21.4693 40.1644 21 42.345 21C44.4981 21 46.4166 21.4693 48.1004 22.4078C49.8118 23.3463 51.1506 24.6437 52.1167 26.2999C53.0828 27.9285 53.5659 29.7917 53.5659 31.8896C53.5659 33.8218 53.2622 35.6851 52.655 37.4793C52.0477 39.2735 50.9711 41.5232 49.4253 44.2284L43.7114 54H37.2522ZM42.0552 37.6035C43.7666 37.6035 45.1744 37.079 46.2785 36.0301C47.3827 34.9536 47.9348 33.5734 47.9348 31.8896C47.9348 30.1782 47.3965 28.7704 46.32 27.6662C45.271 26.5621 43.9046 26.01 42.2208 26.01C40.5922 26.01 39.2535 26.5621 38.2045 27.6662C37.1556 28.7704 36.6311 30.1782 36.6311 31.8896C36.6311 33.5734 37.1418 34.9536 38.1631 36.0301C39.1844 37.079 40.4818 37.6035 42.0552 37.6035Z" fill="white"/>
</svg>
