<svg width="30" height="30" viewBox="0 0 30 30" fill="none" xmlns="http://www.w3.org/2000/svg">
<g clip-path="url(#clip0_88_233)">
<path d="M15 0C12.0333 0 9.13319 0.879735 6.66645 2.52796C4.19972 4.17618 2.27713 6.51886 1.14181 9.25975C0.00649922 12.0006 -0.290551 15.0166 0.288228 17.9264C0.867006 20.8361 2.29562 23.5088 4.39341 25.6066C6.49119 27.7044 9.16394 29.133 12.0737 29.7118C14.9834 30.2906 17.9994 29.9935 20.7403 28.8582C23.4812 27.7229 25.8238 25.8003 27.4721 23.3336C29.1203 20.8668 30 17.9667 30 15C30 11.0218 28.4197 7.20644 25.6066 4.3934C22.7936 1.58035 18.9783 0 15 0V0ZM6.25 24.375C6.25 22.0544 7.17187 19.8288 8.81282 18.1878C10.4538 16.5469 12.6794 15.625 15 15.625C14.0111 15.625 13.0444 15.3317 12.2221 14.7823C11.3999 14.2329 10.759 13.452 10.3806 12.5384C10.0022 11.6248 9.90314 10.6194 10.0961 9.64952C10.289 8.67961 10.7652 7.78869 11.4645 7.08943C12.1637 6.39017 13.0547 5.91396 14.0246 5.72104C14.9945 5.52812 15.9998 5.62714 16.9135 6.00558C17.8271 6.38403 18.608 7.02489 19.1574 7.84715C19.7068 8.6694 20 9.6361 20 10.625C20 11.9511 19.4732 13.2229 18.5355 14.1605C17.5979 15.0982 16.3261 15.625 15 15.625C16.1491 15.625 17.2869 15.8513 18.3485 16.291C19.4101 16.7308 20.3747 17.3753 21.1872 18.1878C21.9997 19.0003 22.6442 19.9649 23.084 21.0265C23.5237 22.0881 23.75 23.2259 23.75 24.375H6.25Z" fill="#3F3F3F"/>
</g>
<defs>
<clipPath id="clip0_88_233">
<rect width="30" height="30" fill="white"/>
</clipPath>
</defs>
</svg>
