<?xml version="1.0" encoding="UTF-8"?>
<svg width="32px" height="31px" viewBox="0 0 32 31" version="1.1" xmlns="http://www.w3.org/2000/svg" xmlns:xlink="http://www.w3.org/1999/xlink">
    <title>编组 18备份</title>
    <g id="页面-1" stroke="none" stroke-width="1" fill="none" fill-rule="evenodd">
        <g id="编组-18备份">
            <rect id="矩形备份-24" fill="#FFFFFF" opacity="0" x="0" y="0" width="32" height="31"></rect>
            <g id="6备份" transform="translate(4.000000, 5.000000)" fill-rule="nonzero">
                <path d="M12.5076427,12.7498123 C12.2168948,12.7495317 11.9291508,12.6939227 11.661387,12.5862662 L1.16207898,8.18414919 C0.473048886,7.9074388 0.0184849321,7.27288799 0.000133094707,6.56231661 C-0.00871954318,5.85304531 0.424698933,5.20588551 1.10470571,4.91322634 L11.618357,0.18401705 C12.1830974,-0.0613390168 12.8321879,-0.0613390168 13.3969283,0.18401705 L23.8962363,4.91322634 C24.5784253,5.20565457 25.0122096,5.8555993 24.9997381,6.56661763 C24.9872665,7.27763595 24.5309289,7.91348431 23.838863,8.18414919 L13.339555,12.5862662 C13.0781472,12.6978519 12.7941886,12.7536755 12.5076427,12.7498123 L12.5076427,12.7498123 Z M12.5076427,1.73770541 C12.4735395,1.73551137 12.4393319,1.74015475 12.4072394,1.75133425 L1.89358814,6.49417239 C1.85055819,6.50780123 1.83621487,6.52143008 1.83621487,6.53505892 C1.85410862,6.55018098 1.87329968,6.56385731 1.89358814,6.57594546 L12.4072394,10.9780625 C12.4660672,11.0053885 12.5348748,11.0053885 12.5937026,10.9780625 L23.0930105,6.57594546 C23.116842,6.56961143 23.1373116,6.555024 23.1503838,6.53505892 C23.1324901,6.51993687 23.113299,6.50626053 23.0930105,6.49417239 L12.5937026,1.7649631 C12.5697737,1.74569718 12.5389513,1.73593482 12.5076427,1.73770541 L12.5076427,1.73770541 Z" id="形状" fill="#2582F1"></path>
                <path d="M12.1142134,21 C11.9790842,21.0004988 11.845432,20.9727391 11.7223859,20.9185999 L4.83741677,17.7311042 C4.1977173,17.4320838 3.79021679,16.8053853 3.78787879,16.1170106 L3.78787879,9.1452116 C3.78787879,8.65829102 4.19512041,8.2635639 4.69747837,8.2635639 C5.19983634,8.2635639 5.60707793,8.65829102 5.60707796,9.1452116 L5.60707796,16.1034468 L12.1142134,19.1417406 L18.6073551,16.1305744 L18.6353428,9.13164779 C18.6353427,8.81666538 18.8087114,8.52560962 19.0901425,8.36811841 C19.3715736,8.2106272 19.7183111,8.2106272 19.9997422,8.36811841 C20.2811733,8.52560962 20.4545455,8.81666538 20.4545455,9.13164779 L20.4545455,16.089883 C20.4559291,16.7793019 20.0472824,17.4077631 19.405004,17.7039766 L12.5340286,20.8914722 C12.4066479,20.9634466 12.2616546,21.0009233 12.1142134,21 Z" id="路径" fill="#2582F1"></path>
                <path d="M23.6559244,16.4214274 C23.4478793,16.5529396 23.2098574,16.5177708 23.0227391,16.3278713 C22.8356207,16.1379718 22.7245702,15.8188799 22.7273227,15.4790239 L22.7273227,9.95712853 L24.2424242,9 L24.2424242,15.0961725 C24.2445392,15.6767293 24.0124826,16.2010975 23.6559244,16.4214274 L23.6559244,16.4214274 Z" id="路径" fill="#29CCB6"></path>
            </g>
        </g>
    </g>
</svg>