<?xml version="1.0" encoding="UTF-8"?>
<svg width="32px" height="32px" viewBox="0 0 32 32" version="1.1" xmlns="http://www.w3.org/2000/svg" xmlns:xlink="http://www.w3.org/1999/xlink">
    <title>编组 14备份</title>
    <g id="页面-1" stroke="none" stroke-width="1" fill="none" fill-rule="evenodd">
        <g id="编组-14备份">
            <rect id="矩形备份-16" fill="#FFFFFF" opacity="0" x="0" y="0" width="32" height="32"></rect>
            <g id="3-2备份" transform="translate(8.000000, 5.000000)" fill-rule="nonzero">
                <path d="M15.8776076,20.9441341 L15.8776076,23 L0.122392351,23 L0.122392351,20.9441341 L15.8776076,20.9441341 Z M8,0 C12.4084905,0 16,3.48939553 16,7.81740447 C16,10.5817732 13.6878844,14.4601642 9.09589351,19.6259899 C9.06201595,19.6640943 9.02629129,19.700443 8.98885369,19.7348994 C8.36941701,20.3051196 7.41456539,20.2546223 6.85535592,19.6213128 L6.72282084,19.4708235 C2.25191356,14.3819899 0,10.5535307 0,7.81740447 C0,3.48939553 3.59150955,0 8,0 Z M8,1.85027933 C4.57273731,1.85027933 1.81210144,4.53241341 1.81210144,7.81740447 C1.81210144,9.94432626 3.88771263,13.4729888 8.0709488,18.2344 L7.97845613,18.128857 L8.01389278,18.0886905 C10.0498139,15.775533 11.5857964,13.753486 12.6202546,12.0296682 L12.6527466,11.9753419 C13.6856696,10.2426838 14.1878986,8.84528603 14.1878986,7.81740447 C14.1878986,4.53241341 11.4272627,1.85027933 8,1.85027933 Z" id="形状" fill="#2582F1"></path>
                <path d="M7.23809524,4.6 C5.34495021,4.6 3.80952381,6.14422491 3.80952381,8.05 C3.80952381,9.95577509 5.34495021,11.5 7.23809524,11.5 C9.13124026,11.5 10.6666667,9.95577509 10.6666667,8.05 C10.6666667,6.14422491 9.13124026,4.6 7.23809524,4.6 Z M7.23809524,6.56441281 C8.05525735,6.56441281 8.71698075,7.22993132 8.71698075,8.05 C8.71698075,8.87006868 8.05525735,9.53558719 7.23809524,9.53558719 C6.42093313,9.53558719 5.75920973,8.87006868 5.75920973,8.05 C5.75920973,7.22993132 6.42093313,6.56441281 7.23809524,6.56441281 Z" id="形状" fill="#29CCB6"></path>
            </g>
        </g>
    </g>
</svg>