<?xml version="1.0" encoding="UTF-8"?>
<svg width="32px" height="32px" viewBox="0 0 32 32" version="1.1" xmlns="http://www.w3.org/2000/svg" xmlns:xlink="http://www.w3.org/1999/xlink">
    <title>编组 12备份</title>
    <g id="页面-1" stroke="none" stroke-width="1" fill="none" fill-rule="evenodd">
        <g id="编组-12备份">
            <rect id="矩形" fill="#FFFFFF" opacity="0" x="0" y="0" width="32" height="32"></rect>
            <g id="1-2备份" transform="translate(6.000000, 5.000000)" fill-rule="nonzero">
                <path d="M14.073587,11.2271457 C13.581761,11.2271457 13.1817112,11.6015508 13.1817112,12.0618487 C13.1817112,12.5221467 13.581761,12.8965517 14.073587,12.8965517 L15.2619703,12.8965517 C15.7537963,12.8965517 16.1538462,12.5221467 16.1538462,12.0618487 C16.1538462,11.6015508 15.7537963,11.2271457 15.2619703,11.2271457 L14.073587,11.2271457 Z M14.073587,7.89053613 C13.581761,7.89053613 13.1817112,8.26494116 13.1817112,8.72523912 C13.1817112,9.18553708 13.581761,9.55994212 14.073587,9.55994212 L15.2619703,9.55994212 C15.7537963,9.55994212 16.1538462,9.18553708 16.1538462,8.72523912 C16.1538462,8.26494116 15.7537963,7.89053613 15.2619703,7.89053613 L14.073587,7.89053613 Z M3.96879888,7.89053613 C3.47697291,7.89053613 3.07692308,8.26494116 3.07692308,8.72523912 C3.07692308,9.18553708 3.47697291,9.55994212 3.96879888,9.55994212 L7.5363021,9.55994212 C8.02812807,9.55994212 8.4281779,9.18553708 8.4281779,8.72523912 C8.4281779,8.26494116 8.02812807,7.89053613 7.5363021,7.89053613 L3.96879888,7.89053613 Z M3.96879888,4.55172414 C3.47697291,4.55172414 3.07692308,4.92612918 3.07692308,5.38642713 C3.07692308,5.84672509 3.47697291,6.22113013 3.96879888,6.22113013 L7.5363021,6.22113013 C8.02812807,6.22113013 8.4281779,5.84672509 8.4281779,5.38642713 C8.4281779,4.92612918 8.02812807,4.55172414 7.5363021,4.55172414 L3.96879888,4.55172414 Z" id="形状" fill="#29CCB6"></path>
                <path d="M18.8216116,3.47259846 L12.3521192,3.47259846 L12.3521192,1.15753282 C12.3521192,0.518024588 11.8258034,0 11.1760596,0 L1.17605962,0 C0.526315789,0 0,0.518024588 0,1.15753282 L0,22 L20,22 L20,4.63013128 C20,3.99062305 19.4713554,3.47259846 18.8216116,3.47259846 Z M7.05635771,19.6849344 L5.29110387,19.6849344 L5.29110387,16.2100438 L7.05635771,16.2100438 L7.05635771,19.6849344 Z M9.99767117,4.63013128 L9.99767117,19.6826422 L8.82161155,19.6826422 L8.82161155,15.0158366 C8.82161155,14.7155657 8.57475547,14.4725985 8.26967862,14.4725985 L4.07778295,14.4725985 C3.7727061,14.4725985 3.52585002,14.7155657 3.52585002,15.0158366 L3.52585002,19.6849344 L2.34979041,19.6849344 L2.34979041,2.31506564 L9.99767117,2.31506564 L9.99767117,4.63013128 Z M17.6455519,19.6849344 L12.3521192,19.6849344 L12.3521192,5.78995624 L17.6455519,5.78995624 L17.6455519,19.6849344 L17.6455519,19.6849344 Z" id="形状" fill="#2582F1"></path>
            </g>
        </g>
    </g>
</svg>