<?xml version="1.0" encoding="UTF-8"?>
<svg width="32px" height="32px" viewBox="0 0 32 32" version="1.1" xmlns="http://www.w3.org/2000/svg" xmlns:xlink="http://www.w3.org/1999/xlink">
    <title>编组 13备份</title>
    <g id="页面-1" stroke="none" stroke-width="1" fill="none" fill-rule="evenodd">
        <g id="编组-13备份">
            <rect id="矩形备份-15" fill="#FFFFFF" opacity="0" x="0" y="0" width="32" height="32"></rect>
            <g id="2-2备份" transform="translate(5.000000, 6.000000)" fill-rule="nonzero">
                <polygon id="路径" fill="#29CCB6" points="2.3 8.46153846 21.4666667 8.46153846 21.4666667 10 2.3 10"></polygon>
                <path d="M7.20677213,10.7692308 L7.20677213,14.61465 L5.36666667,14.61465 L5.36666667,10.7692308 L7.20677213,10.7692308 Z M17.6333333,10.7699654 L17.6333333,14.6153846 L15.7932279,14.6153846 L15.7932279,10.7699654 L17.6333333,10.7699654 Z" id="形状" fill="#29CCB6"></path>
                <path d="M15.8909091,2.30769231 L15.8909091,4.61538462 L7.10909091,4.61538462 L7.10909091,2.30769231 L15.8909091,2.30769231 M15.8909091,0 L7.10909091,0 C5.7231405,0 4.6,1.03298875 4.6,2.30769231 L4.6,4.61538462 C4.6,5.89008817 5.7231405,6.92307692 7.10909091,6.92307692 L15.8909091,6.92307692 C17.2768595,6.92307692 18.4,5.89008817 18.4,4.61538462 L18.4,2.30769231 C18.3975207,1.03298875 17.2743802,0 15.8909091,0 Z" id="形状" fill="#4585F5"></path>
                <path d="M20.5786955,7.07692308 L20.5786955,17.5384615 L2.42130448,17.5384615 L2.42130448,7.07692308 L20.5786955,7.07692308 M20.5786955,4.61538462 L2.42130448,4.61538462 C1.08384479,4.61538462 0,5.71723928 0,7.07692308 L0,17.5384615 C0,18.8981453 1.08384479,20 2.42130448,20 L20.5786955,20 C21.9161552,20 23,18.8981453 23,17.5384615 L23,7.07692308 C23,5.71723928 21.9161552,4.61538462 20.5786955,4.61538462 Z" id="形状" fill="#2582F1"></path>
            </g>
        </g>
    </g>
</svg>