<?xml version="1.0" encoding="UTF-8"?>
<svg width="32px" height="32px" viewBox="0 0 32 32" version="1.1" xmlns="http://www.w3.org/2000/svg" xmlns:xlink="http://www.w3.org/1999/xlink">
    <title>编组 20备份</title>
    <g id="页面-1" stroke="none" stroke-width="1" fill="none" fill-rule="evenodd">
        <g id="编组-20备份">
            <rect id="矩形备份-27" fill="#FFFFFF" opacity="0" x="0" y="0" width="32" height="32"></rect>
            <g id="8备份" transform="translate(7.000000, 5.000000)" fill-rule="nonzero">
                <path d="M1.42136468,16.7658122 C1.15033403,16.7649111 0.89106535,16.6489514 0.702057132,16.4440969 C0.511589375,16.2357275 0.408220257,15.9555717 0.415051916,15.6662419 L0.520985668,11.4341297 C0.527197701,11.1602482 0.632730769,10.8992983 0.815863557,10.7049898 L10.5864288,0.3136482 C10.7744819,0.112952114 11.0308948,0 11.2984425,0 C11.5659902,0 11.8224032,0.112952114 12.0104563,0.3136482 L15.9730733,4.52805696 C16.3654081,4.94790407 16.3654081,5.62216399 15.9730733,6.0420111 L6.20470776,16.4313992 C6.01809577,16.6314546 5.76331185,16.7444086 5.49720922,16.7450563 L1.42622721,16.7658122 L1.42136468,16.7658122 Z M1.95219119,11.6568274 L1.86258165,15.2359859 L5.31393804,15.2184045 L14.6538218,5.28527822 L11.2984425,1.71674182 L1.95219119,11.6568274 Z M18.2757141,21 L0.724285854,21 C0.324273822,21 0,20.6580287 0,20.2361857 C0,19.8143427 0.324273822,19.4723714 0.724285854,19.4723714 L18.2757141,19.4723714 C18.6757262,19.4723714 19,19.8143427 19,20.2361857 C19,20.6580287 18.6757262,21 18.2757141,21 Z" id="形状" fill="#2582F1"></path>
                <path d="M18.3026323,16.3333333 L11.3373677,16.3333333 C10.9522222,16.3333333 10.64,15.9851104 10.64,15.5555556 C10.64,15.1260008 10.9522222,14.7777778 11.3373677,14.7777778 L18.3026323,14.7777778 C18.6877778,14.7777778 19,15.1260008 19,15.5555556 C19,15.9851104 18.6877778,16.3333333 18.3026323,16.3333333 L18.3026323,16.3333333 Z" id="路径" fill="#29CCB6"></path>
            </g>
        </g>
    </g>
</svg>