<?xml version="1.0" encoding="UTF-8"?>
<svg width="32px" height="32px" viewBox="0 0 32 32" version="1.1" xmlns="http://www.w3.org/2000/svg" xmlns:xlink="http://www.w3.org/1999/xlink">
    <title>编组 16备份</title>
    <g id="页面-1" stroke="none" stroke-width="1" fill="none" fill-rule="evenodd">
        <g id="编组-16备份">
            <rect id="矩形备份-21" fill="#FFFFFF" opacity="0" x="0" y="0" width="32" height="32"></rect>
            <g id="9备份" transform="translate(6.000000, 6.000000)" fill-rule="nonzero">
                <path d="M6.75,19.4998644 L16.7808489,19.4998644 C18.2675802,19.5145697 19.4849094,18.3317727 19.5,16.8578481 L19.5,7.5 L6.75,19.4998644 Z" id="路径" fill="#29CCB6"></path>
                <path d="M17.2220756,3.48431302e-07 L3.77792442,3.48431302e-07 C1.69564256,-0.000887152872 0.00558757269,1.69377712 0,3.78822864 L0,17.2117721 C0.00558757269,19.3062236 1.69564256,21.0008878 3.77792442,21.0000003 L17.2220756,21.0000003 C19.3043574,21.0008878 20.9944124,19.3062236 21,17.2117721 L21,3.78822864 C20.9943453,1.69380524 19.3043297,-0.000819581935 17.2220756,3.48431302e-07 Z M19.2833721,17.2117721 C19.2803427,18.3545542 18.3582176,19.279215 17.2220756,19.2787371 L3.77792442,19.2787371 C2.6417824,19.279215 1.71965734,18.3545542 1.71662791,17.2117721 L1.71662791,3.78822864 C1.71965734,2.64544652 2.6417824,1.72078572 3.77792442,1.72126361 L17.2220756,1.72126361 C18.3582176,1.72078572 19.2803427,2.64544652 19.2833721,3.78822864 L19.2833721,17.2117721 Z M8.44151163,5.79501805 L4.41085465,5.79501805 C4.10516823,5.79501805 3.82270233,5.95905348 3.66985912,6.22533381 C3.51701591,6.49161415 3.51701591,6.81968505 3.66985912,7.08596538 C3.82270233,7.35224572 4.10516823,7.51628115 4.41085465,7.51628115 L8.44212209,7.51628115 C8.74780851,7.51628115 9.03027441,7.35224572 9.18311763,7.08596538 C9.33596084,6.81968505 9.33596084,6.49161415 9.18311763,6.22533381 C9.03027441,5.95905348 8.74780851,5.79501805 8.44212209,5.79501805 L8.44151163,5.79501805 Z M16.1657267,12.0704564 L12.1350698,12.0704564 C11.8269259,12.0667541 11.5406009,12.2299867 11.3854566,12.4978076 C11.2303123,12.7656286 11.2303123,13.0966702 11.3854566,13.3644911 C11.5406009,13.6323121 11.8269259,13.7955447 12.1350698,13.7918423 L16.1663372,13.7918423 C16.6389549,13.7918423 17.0220872,13.4064695 17.0220872,12.931088 C17.0220872,12.4557065 16.6389549,12.0703336 16.1663372,12.0703336 L16.1657267,12.0704564 Z M16.1657267,15.3212809 L12.1350698,15.3212809 C11.8269259,15.3175785 11.5406009,15.4808111 11.3854566,15.7486321 C11.2303123,16.0164531 11.2303123,16.3474946 11.3854566,16.6153156 C11.5406009,16.8831366 11.8269259,17.0463692 12.1350698,17.0426668 L16.1663372,17.0426668 C16.4720673,17.0426668 16.7545735,16.878608 16.9074385,16.6122896 C17.0603035,16.3459713 17.0603035,16.0178536 16.9074385,15.7515352 C16.7545735,15.4852169 16.4720673,15.3211581 16.1663372,15.3211581 L16.1657267,15.3212809 Z M11.9377674,7.51578992 L13.1655349,7.51578992 L13.1655349,8.74742146 C13.1655349,9.22422728 13.5498151,9.61075476 14.0238488,9.61075476 C14.4978825,9.61075476 14.8821628,9.22422728 14.8821628,8.74742146 L14.8821628,7.51578992 L16.1099302,7.51578992 C16.5824805,7.51578992 16.9655581,7.13047205 16.9655581,6.65515837 C16.9655581,6.17984469 16.5824805,5.79452682 16.1099302,5.79452682 L14.8821628,5.79452682 L14.8821628,4.56387774 C14.8821628,4.08707192 14.4978825,3.70054443 14.0238488,3.70054443 C13.5498151,3.70054443 13.1655349,4.08707192 13.1655349,4.56387774 L13.1655349,5.79501805 L11.9377674,5.79501805 C11.6272956,5.78755561 11.3371794,5.94989256 11.1797622,6.21916625 C11.022345,6.48843993 11.022345,6.82236804 11.1797622,7.09164172 C11.3371794,7.3609154 11.6272956,7.52325236 11.9377674,7.51578992 Z M8.5698314,12.2942108 C8.23419339,11.9581328 7.69162057,11.9581328 7.35598256,12.2942108 L6.3,13.3535441 L5.24365116,12.2942108 C4.90953494,11.956852 4.36678693,11.9558074 4.03138953,12.2918775 C3.69599214,12.6279476 3.69495355,13.1738696 4.02906977,13.5112283 L5.0855407,14.5706844 L4.02906977,15.6300177 C3.69974827,15.9679806 3.70288512,16.5097977 4.03609743,16.8438798 C4.36930974,17.1779619 4.90798405,17.1793704 5.2429186,16.8470352 L6.29926744,15.7877019 L7.35561628,16.8470352 C7.57112903,17.068203 7.88803188,17.1560874 8.18577624,17.0772574 C8.48352059,16.9984274 8.71634016,16.7650001 8.79567129,16.4657703 C8.87500242,16.1665404 8.78865114,15.8475027 8.56946512,15.6300177 L7.51299419,14.5706844 L8.56946512,13.5112283 C8.73042502,13.3501384 8.82094989,13.131186 8.82101863,12.9027961 C8.82108736,12.6744062 8.73069431,12.4553987 8.5698314,12.2942108 L8.5698314,12.2942108 Z" id="形状" fill="#2582F1"></path>
            </g>
        </g>
    </g>
</svg>