<?xml version="1.0" encoding="UTF-8"?>
<svg width="32px" height="31px" viewBox="0 0 32 31" version="1.1" xmlns="http://www.w3.org/2000/svg" xmlns:xlink="http://www.w3.org/1999/xlink">
    <title>编组 19备份</title>
    <g id="页面-1" stroke="none" stroke-width="1" fill="none" fill-rule="evenodd">
        <g id="编组-19备份">
            <rect id="矩形备份-25" fill="#FFFFFF" opacity="0" x="0" y="0" width="32" height="31"></rect>
            <g id="7备份" transform="translate(6.000000, 5.000000)" fill-rule="nonzero">
                <path d="M14.8683852,21 L1.33250713,21 C0.597177735,20.9986567 0.001431998,20.4398248 0,19.7500581 L0,1.24994188 C0.001431998,0.560175208 0.597177735,0.00134326806 1.33250713,0 L19.6674929,0 C20.4028223,0.00134326806 20.998568,0.560175208 21,1.24994188 L21,15.2483143 C21,18.4195536 18.2491015,21 14.8683852,21 Z M1.59796753,19.498605 L14.8683852,19.498605 C17.366836,19.498605 19.3994299,17.5919554 19.3994299,15.2483143 L19.3994299,1.50139502 L1.59796753,1.50139502 L1.59796753,19.498605 Z" id="形状" fill="#2582F1"></path>
                <path d="M7,9.96542682 L7,4.14352085 C7.00028416,3.60462562 7.35523515,3.12682558 7.88009576,2.95882267 C8.40495637,2.79081977 8.98106522,2.9705964 9.30854915,3.40457617 L12.9370649,8.21586666 L12.9370649,3.79306547 C12.9370649,3.55529523 13.033884,3.32726345 13.2062232,3.15913451 C13.3785624,2.99100557 13.6123045,2.89655172 13.856029,2.89655172 L13.8588137,2.89655172 C14.3663436,2.89655172 14.7777778,3.2979346 14.7777778,3.79306547 L14.7777778,9.57422082 C14.7777778,10.1300092 14.4122984,10.6230955 13.8712606,10.7971836 C13.3302229,10.9712717 12.7357454,10.7870739 12.3968254,10.3403326 L8.83792816,5.66759424 L8.83792816,9.96542682 C8.83792816,10.2031971 8.74110901,10.4312288 8.56876981,10.5993578 C8.39643062,10.7674867 8.1626885,10.8619406 7.91896407,10.8619406 L7.91617933,10.8619406 C7.40973733,10.8604434 7,10.4594987 7,9.96542682 L7,9.96542682 Z" id="路径" fill="#29CCB6"></path>
                <path d="M15.5026844,13.6273493 L3.94203492,13.6273493 C3.6451908,13.6273882 3.37087452,13.5018869 3.22243829,13.2981296 C3.07400205,13.0943723 3.07400205,12.8433218 3.22243829,12.6395645 C3.37087452,12.4358072 3.6451908,12.3103059 3.94203492,12.3103448 L15.5026844,12.3103448 C15.9614614,12.310405 16.3333333,12.6052089 16.3333333,12.968847 C16.3333333,13.3324852 15.9614614,13.6272891 15.5026844,13.6273493 Z M10.8670588,15.9310345 L3.94203492,15.9310345 C3.48320427,15.9310345 3.11124854,15.636213 3.11124854,15.2725323 C3.11124854,14.9088515 3.48320427,14.6140301 3.94203492,14.6140301 L10.8670588,14.6140301 C11.3258894,14.6140301 11.6978452,14.9088515 11.6978452,15.2725323 C11.6978452,15.636213 11.3258894,15.9310345 10.8670588,15.9310345 Z" id="形状" fill="#2582F1"></path>
            </g>
        </g>
    </g>
</svg>