<?xml version="1.0" encoding="UTF-8"?>
<svg width="32px" height="32px" viewBox="0 0 32 32" version="1.1" xmlns="http://www.w3.org/2000/svg" xmlns:xlink="http://www.w3.org/1999/xlink">
    <title>编组 17备份</title>
    <g id="页面-1" stroke="none" stroke-width="1" fill="none" fill-rule="evenodd">
        <g id="编组-17备份">
            <rect id="矩形备份-23" fill="#FFFFFF" opacity="0" x="0" y="0" width="32" height="32"></rect>
            <g id="5备份" transform="translate(7.000000, 5.000000)" fill-rule="nonzero">
                <path d="M15.9401279,0.00237744821 L12.1314465,0.00237744821 C12.19023,0.299558474 12.222071,0.603871844 12.222071,0.917695007 C12.222071,1.28857693 12.1779834,1.6523265 12.0971561,1.99943394 L14.9138658,1.99943394 C15.4821064,1.99943394 15.9425772,2.4463942 15.9425772,2.99796219 L15.9425772,18.0044153 C15.9425772,18.5559832 15.4821064,19.0029435 14.9138658,19.0029435 L3.08613417,19.0029435 C2.51789359,19.0029435 2.05742278,18.5559832 2.05742278,18.0044153 L2.05742278,2.99558474 C2.05742278,2.66511944 2.22397605,2.37269331 2.47870459,2.1896298 C2.36358688,1.78308615 2.30235406,1.35752293 2.30235406,0.915317559 C2.30235406,0.601494396 2.33419513,0.297181026 2.39297864,0 L2.05742278,0 C0.920941625,0 0,0.893920525 0,1.99705649 L0,19.0029435 C0,20.1060795 0.920941625,21 2.05742278,21 L15.9425772,21 C17.0790584,21 18,20.1060795 18,19.0029435 L18,1.99705649 C17.9975507,0.893920525 17.0766091,0.00237744821 15.9401279,0.00237744821 Z" id="路径" fill="#2582F1"></path>
                <path d="M5.29193653,0.0346871521 L9.49377158,0 C9.82451469,-0.00229637954 10.0970284,0.261211283 10.0993576,0.591751597 C10.0993576,0.591751597 9.96659448,2.72755055 9.98289872,4.98585744 C10.0038613,7.52616377 10.173913,10.2236501 10.173913,10.2236501 C10.1762204,10.5518789 9.99221542,10.9887469 9.57762194,10.8246325 C8.97669431,10.6420263 8.15449488,9.55101212 7.46040018,9.55563507 C6.7639763,9.56025801 6.23525315,10.5403216 5.37578689,10.8569931 C5.15218591,11.0072387 4.77253009,10.5957969 4.77020091,10.267568 C4.77020091,10.267568 4.93557247,7.50073759 4.91693905,4.93500509 C4.89830564,2.71137025 4.69565217,0.63566954 4.69565217,0.63566954 C4.69333807,0.305129227 4.96119341,0.0346871521 5.29193653,0.0346871521 L5.29193653,0.0346871521 Z" id="路径" fill="#29CCB6"></path>
            </g>
        </g>
    </g>
</svg>