<?xml version="1.0" encoding="UTF-8"?>
<svg width="32px" height="32px" viewBox="0 0 32 32" version="1.1" xmlns="http://www.w3.org/2000/svg" xmlns:xlink="http://www.w3.org/1999/xlink">
    <title>编组 15备份</title>
    <g id="页面-1" stroke="none" stroke-width="1" fill="none" fill-rule="evenodd">
        <g id="编组-15备份">
            <rect id="矩形备份-19" fill="#FFFFFF" opacity="0" x="0" y="0" width="32" height="32"></rect>
            <g id="4-2备份" transform="translate(5.000000, 5.000000)" fill-rule="nonzero">
                <path d="M10.4190753,9.86206897 C10.1733988,9.86206897 9.92769881,9.768297 9.74014606,9.58089328 L7.10891533,6.94973869 C6.73380983,6.57462744 6.73380983,5.96660547 7.10891533,5.59163445 C7.48336644,5.21652319 8.091645,5.2166868 8.46675051,5.59149421 L11.0979812,8.22264881 C11.4730867,8.59776007 11.4730867,9.20575865 11.0979812,9.5807063 C10.9107557,9.76827364 10.6647753,9.86206897 10.4190753,9.86206897 Z" id="路径" fill="#29CCB6"></path>
                <path d="M11.5810332,9.86206897 C11.3353229,9.86206897 11.0896125,9.76830302 10.9020574,9.58091132 C10.5269004,9.20598774 10.5269004,8.59800482 10.9020574,8.22289425 L13.5330418,5.59162808 C13.9075444,5.21651753 14.5159065,5.21670449 14.8910636,5.59146448 C15.2661972,5.96638807 15.2661972,6.57437099 14.8910636,6.94945819 L12.2600557,9.58072436 C12.0728045,9.76827966 11.8267435,9.86206897 11.5810332,9.86206897 Z" id="路径" fill="#29CCB6"></path>
                <path d="M14.0939555,11.3793103 L6.38880313,11.3793103 C5.79306031,11.3793103 5.31034483,10.8697873 5.31034483,10.2413655 C5.31034483,9.61297129 5.79306031,9.10344828 6.38880313,9.10344828 L14.0939292,9.10344828 C14.6896983,9.10344828 15.1724138,9.61297129 15.1724138,10.2413655 C15.1724138,10.8697873 14.6897245,11.3793103 14.0939555,11.3793103 Z" id="路径" fill="#29CCB6"></path>
                <path d="M14.0939555,14.4137931 L6.38880313,14.4137931 C5.79306031,14.4137931 5.31034483,13.9042639 5.31034483,13.2758621 C5.31034483,12.6474325 5.79306031,12.137931 6.38880313,12.137931 L14.0939292,12.137931 C14.6896983,12.137931 15.1724138,12.6474326 15.1724138,13.2758621 C15.1724138,13.9042362 14.6897245,14.4137931 14.0939555,14.4137931 Z" id="路径" fill="#29CCB6"></path>
                <path d="M10.9999861,17.4482759 C10.3713981,17.4482759 9.86206897,16.9821673 9.86206897,16.4072342 L9.86206897,10.1444645 C9.86206897,9.56958215 10.3713981,9.10344828 10.9999861,9.10344828 C11.6285742,9.10344828 12.137931,9.56958215 12.137931,10.1444645 L12.137931,16.4072089 C12.137931,16.982142 11.6286019,17.4482759 10.9999861,17.4482759 Z" id="路径" fill="#29CCB6"></path>
                <path d="M10.99949,22 C9.50393199,22 8.01106034,21.691471 6.59945649,21.0754919 C1.03930485,18.6491286 -1.50874228,12.1556974 0.919449347,6.60037078 C2.09518337,3.90927817 4.24969567,1.8366733 6.98593659,0.764711533 C9.72187623,-0.307551245 12.7119628,-0.250355872 15.4048961,0.924758253 C15.9270484,1.1525865 16.165454,1.75998634 15.9374423,2.28171854 C15.7098071,2.80309954 15.1023701,3.04229162 14.579565,2.81366062 C12.3913104,1.85864836 9.9616124,1.81301749 7.73911334,2.68366656 C5.51591129,3.55481737 3.76550343,5.23871945 2.81004851,7.42521339 C0.837177326,11.9389821 2.90740915,17.2150047 7.42513905,19.186439 C9.61238942,20.1409495 12.0427653,20.1871072 14.2656158,19.3164581 C16.4884663,18.4454829 18.2388742,16.7615558 19.1944798,14.5748862 C20.5849194,11.394447 19.9929727,7.66142028 17.6858165,5.06439901 C17.3077218,4.63864465 17.3467113,3.98709399 17.7728085,3.60930349 C18.199232,3.23171367 18.8506546,3.27044598 19.2290757,3.69587422 C22.0677486,6.89191669 22.7963969,11.4858593 21.0849283,15.3999045 C19.9090437,18.0908716 17.754682,20.1634514 15.0187674,21.2353881 C13.7169265,21.7455558 12.3570157,22 10.99949,22 Z" id="路径" fill="#2582F1"></path>
            </g>
        </g>
    </g>
</svg>