<svg width="13" height="13" viewBox="0 0 13 13" fill="none" xmlns="http://www.w3.org/2000/svg">
<path fill-rule="evenodd" clip-rule="evenodd" d="M6.4181 12.9817C6.17772 12.9817 5.93467 12.9683 5.69029 12.9417C2.97533 12.647 0.392586 10.1134 0.0520483 7.41052C-0.199015 5.41701 0.466035 3.46484 1.8776 2.05538C3.28783 0.645928 5.24425 -0.0194635 7.24074 0.232559C9.94367 0.572588 12.4797 3.14748 12.7802 5.85438C12.9417 7.31451 12.6226 8.7293 11.8574 9.95741C12.0189 10.5455 12.4717 12.1043 12.4717 12.1043C12.5144 12.2536 12.473 12.415 12.3635 12.5243C12.254 12.6336 12.0924 12.6763 11.9428 12.6323C11.9428 12.6323 10.3777 12.1803 9.79944 12.0149C8.77516 12.6536 7.62 12.9817 6.4181 12.9817ZM6.4141 1.03396C4.93843 1.03396 3.53488 1.60734 2.48122 2.6581C1.25795 3.87954 0.68104 5.57302 0.900053 7.30384C1.18984 9.60404 3.47212 11.8429 5.78377 12.0936C7.08983 12.2363 8.35182 11.9376 9.4362 11.2335C9.57776 11.1415 9.75537 11.1162 9.92231 11.1628C10.18 11.2362 10.8825 11.4389 11.4354 11.5989C11.2751 11.0428 11.0721 10.3334 11 10.0654C10.9573 9.90407 10.9853 9.73205 11.0775 9.59204C11.7786 8.51195 12.0737 7.25184 11.9295 5.94906C11.6757 3.64352 9.43353 1.36865 7.1339 1.0793C6.89352 1.04863 6.65181 1.03396 6.4141 1.03396ZM11.7986 10.0641C11.8013 10.0614 11.804 10.0588 11.804 10.0534C11.804 10.0641 11.804 10.0748 11.7933 10.0748C11.7933 10.0694 11.7959 10.0668 11.7986 10.0641Z" fill="#C5C5C5"/>
<path fill-rule="evenodd" clip-rule="evenodd" d="M3.84631 7.64773C3.4924 7.64773 3.20526 7.16989 3.20526 6.58094C3.20526 5.99198 3.4924 5.51414 3.84631 5.51414C4.20023 5.51414 4.48737 5.99198 4.48737 6.58094C4.48737 7.16989 4.19889 7.64773 3.84631 7.64773ZM6.41051 7.64773C6.05659 7.64773 5.76946 7.1699 5.76946 6.58094C5.76946 5.99198 6.05659 5.51415 6.41051 5.51415C6.76442 5.51415 7.05156 5.99198 7.05156 6.58094C7.05156 7.1699 6.76309 7.64773 6.41051 7.64773ZM8.33369 6.58094C8.33369 7.1699 8.62083 7.64773 8.97474 7.64773C9.32732 7.64773 9.6158 7.1699 9.6158 6.58094C9.6158 5.99198 9.32866 5.51415 8.97474 5.51415C8.62083 5.51415 8.33369 5.99198 8.33369 6.58094Z" fill="#C5C5C5"/>
</svg>
