<?xml version="1.0" encoding="UTF-8"?>
<svg width="17px" height="17px" viewBox="0 0 17 17" version="1.1" xmlns="http://www.w3.org/2000/svg" xmlns:xlink="http://www.w3.org/1999/xlink">
    <title>页面 1</title>
    <g id="页面-1" stroke="none" stroke-width="1" fill="none" fill-rule="evenodd">
        <rect id="矩形备份-30" fill="#FFFFFF" opacity="0" x="0" y="0" width="17" height="17"></rect>
        <g id="shoucangzhiwei-4备份" transform="translate(2.000000, 1.000000)" fill="#000000" fill-rule="nonzero">
            <path d="M8.01232379,1 L7.11839575,2.54514103 L8.63459878,8.92104939 C8.6551307,9.00591206 8.6330194,9.09717946 8.57616179,9.16442912 L6.7172337,11.358049 C6.66037609,11.4252987 6.5798278,11.4589235 6.49927951,11.4589235 C6.41873123,11.4589235 6.33818294,11.4252987 6.28132533,11.358049 L4.42239724,9.16442912 C4.36553963,9.09878064 4.34342833,9.00751324 4.36396025,8.92104939 L5.88016328,2.54353984 L4.98307649,1 C1.88275717,1.75415692 -0.358380435,4.7595763 0.0475197507,8.21813031 C0.398141701,11.2203473 2.79405836,13.6269245 5.76013054,13.9583693 C6.00967229,13.9855894 6.25763466,14 6.50085889,14 C10.0892061,14 13,11.050622 13,7.40953319 C13,4.29843577 10.8725776,1.6917108 8.01232379,1 Z M10.6719966,11.6398571 C10.1302699,12.1890627 9.49851863,12.6213819 8.79727473,12.9224042 C8.07076078,13.2346348 7.29844486,13.3915507 6.50085889,13.3915507 C6.27816657,13.3915507 6.05073612,13.3787412 5.82646442,13.3531223 C5.16786373,13.2794679 4.52821558,13.0921296 3.92805188,12.7959108 C3.34368196,12.507698 2.81143152,12.1234142 2.34551497,11.6558689 C1.87959841,11.1883237 1.4973889,10.6519276 1.20836269,10.0626924 C0.911439601,9.4574455 0.721914223,8.81216899 0.642945315,8.14447592 C0.55292076,7.37750955 0.603460861,6.62015026 0.791406862,5.89001109 C0.971455971,5.19189555 1.27469658,4.53701195 1.68849365,3.94617564 C2.43396014,2.88619288 3.49056413,2.10321468 4.7003678,1.71252617 L5.24051512,2.64121197 L3.78116971,8.77854416 C3.71483583,9.05394753 3.78590784,9.34696391 3.96911571,9.56152235 L5.82646442,11.7535411 C5.99545788,11.9520877 6.2402615,12.0673728 6.49927951,12.0673728 C6.75829753,12.0673728 7.00310115,11.9536889 7.17209461,11.7535411 L9.03260207,9.55831999 C9.21423056,9.34376155 9.28530258,9.05234635 9.2189687,8.77694297 L7.75962328,2.64121197 L8.29661185,1.71252617 C8.78148095,1.86944205 9.24265937,2.08880404 9.67540898,2.36901096 C10.2218738,2.72287227 10.7051635,3.16319744 11.1110637,3.67877817 C11.5201227,4.19756128 11.8391571,4.77558813 12.0586906,5.39844808 C12.2861211,6.04212341 12.4014157,6.71942357 12.4014157,7.41113438 C12.4014157,8.21973149 12.2450572,9.00270969 11.9386579,9.7392536 C11.638576,10.4501786 11.2137233,11.0906516 10.6719966,11.6398571 Z" id="形状"></path>
            <polygon id="路径" points="8 0.947928994 6.55833883 0 5 0.947928994 6.55833883 3"></polygon>
        </g>
    </g>
</svg>