<?xml version="1.0" encoding="UTF-8"?>
<svg width="14px" height="14px" viewBox="0 0 14 14" version="1.1" xmlns="http://www.w3.org/2000/svg" xmlns:xlink="http://www.w3.org/1999/xlink">
    <title>question备份</title>
    <g id="页面-1" stroke="none" stroke-width="1" fill="none" fill-rule="evenodd">
        <g id="question备份" fill="#DADADA" fill-rule="nonzero">
            <path d="M7,0.999776836 C7.81075653,0.999776836 8.59651863,1.15755412 9.3354162,1.47154653 C10.0493193,1.77304173 10.6913635,2.20575764 11.2428029,2.75719705 C11.7942424,3.30863647 12.2269583,3.95068065 12.5284535,4.6645838 C12.8408837,5.40348137 13.0002232,6.18924347 13.0002232,7 C13.0002232,7.81075653 12.8424459,8.59651863 12.5284535,9.3354162 C12.2269583,10.0493193 11.7942424,10.6913635 11.2428029,11.2428029 C10.6913635,11.7942424 10.0493193,12.2269583 9.3354162,12.5284535 C8.59651863,12.8408837 7.81075653,13.0002232 7,13.0002232 C6.18924347,13.0002232 5.40348137,12.8424459 4.6645838,12.5284535 C3.95068065,12.2269583 3.30863647,11.7942424 2.75719705,11.2428029 C2.20575764,10.6913635 1.77304173,10.0493193 1.47154653,9.3354162 C1.15911627,8.59651863 0.999776836,7.81075653 0.999776836,7 C0.999776836,6.18924347 1.15755412,5.40348137 1.47154653,4.6645838 C1.77304173,3.95068065 2.20575764,3.30863647 2.75719705,2.75719705 C3.30863647,2.20575764 3.95068065,1.77304173 4.6645838,1.47154653 C5.40348137,1.15911627 6.18924347,0.999776836 7,0.999776836 M7,0 C3.13367552,0 0,3.13367552 0,7 C0,10.8663245 3.13367552,14 7,14 C10.8663245,14 14,10.8663245 14,7 C14,3.13367552 10.8663245,0 7,0 Z" id="形状"></path>
            <path d="M6.4730063,10.9991312 L7.52534941,10.9991312 L7.52534941,12 L6.4730063,12 L6.4730063,10.9991312 Z M6.42203343,10.221894 C6.41710058,10.0764553 6.41545629,9.56194613 6.41545629,9.49000869 C6.41545629,9.06307559 6.47958345,8.69556907 6.60619348,8.38592528 C6.69991779,8.15291051 6.84954782,7.91676803 7.05672787,7.68062554 C7.20964648,7.50703736 7.48259797,7.2552563 7.87887092,6.92371851 C8.27349959,6.59218071 8.53165251,6.32788879 8.65004111,6.13084275 C8.76842971,5.9337967 8.82762401,5.71798436 8.82762401,5.48496959 C8.82762401,5.06272806 8.65497397,4.69209383 8.3080296,4.37150304 C7.96108523,4.05247611 7.53685941,3.89139878 7.03370787,3.89139878 C6.54699918,3.89139878 6.14086051,4.03683753 5.81529186,4.32615117 C5.48972321,4.61546481 5.27596602,5.06741964 5.17402028,5.6835795 L4,5.55065161 C4.10523431,4.7264987 4.41929296,4.09470026 4.94217594,3.65682016 C5.46505892,3.21894005 6.1540148,3 7.01233215,3 C7.92162236,3 8.64675253,3.23457863 9.18772266,3.70529974 C9.72869279,4.17602085 10,4.74526499 10,5.41303215 C10,5.79930495 9.90463141,6.15430061 9.71389422,6.48114683 C9.52315703,6.80799305 9.15154837,7.203649 8.59742395,7.66967854 C8.22581529,7.9840139 7.98246095,8.21390096 7.86736092,8.36403128 C7.75390518,8.51259774 7.6684023,8.68305821 7.61414086,8.87697654 C7.55987942,9.06933102 7.5269937,9.79026933 7.51877227,10.2250217 L6.42203343,10.2250217 L6.42203343,10.221894 Z" id="形状"></path>
        </g>
    </g>
</svg>