<?xml version="1.0" encoding="UTF-8"?>
<svg width="414px" height="762px" viewBox="0 0 414 762" version="1.1" xmlns="http://www.w3.org/2000/svg" xmlns:xlink="http://www.w3.org/1999/xlink" style="background: #FFFFFF;">
    <title>iPhone 11备份 12</title>
    <g id="页面-1" stroke="none" stroke-width="1" fill="none" fill-rule="evenodd">
        <g id="iPhone-11备份-12">
            <rect id="矩形" fill="#EFEFEF" x="8" y="12" width="94" height="25" rx="12.5"></rect>
            <rect id="矩形备份-5" fill="#EFEFEF" x="42" y="242" width="82" height="25" rx="12.5"></rect>
            <rect id="矩形备份-15" fill="#EFEFEF" x="42" y="506" width="82" height="25" rx="12.5"></rect>
            <rect id="矩形备份-7" fill="#EFEFEF" x="42" y="344" width="82" height="25" rx="12.5"></rect>
            <rect id="矩形备份-9" fill="#EFEFEF" x="249" y="344" width="82" height="25" rx="12.5"></rect>
            <rect id="矩形备份-11" fill="#EFEFEF" x="42" y="423" width="82" height="25" rx="12.5"></rect>
            <rect id="矩形备份-13" fill="#EFEFEF" x="249" y="423" width="82" height="25" rx="12.5"></rect>
            <rect id="矩形备份-2" fill="#EFEFEF" x="16" y="77" width="118" height="146" rx="12.5"></rect>
            <rect id="矩形备份-3" fill="#EFEFEF" opacity="0.4" x="148" y="77" width="118" height="146" rx="12.5"></rect>
            <rect id="矩形备份-4" fill="#EFEFEF" opacity="0.75" x="280" y="77" width="118" height="146" rx="12.5"></rect>
            <rect id="矩形备份" fill="#F3F3F3" opacity="0.5" x="8" y="44" width="269" height="14" rx="7"></rect>
            <rect id="矩形备份-6" fill="#F3F3F3" opacity="0.5" x="42" y="274" width="356" height="41" rx="7"></rect>
            <rect id="矩形备份-16" fill="#F3F3F3" opacity="0.5" x="42" y="538" width="356" height="41" rx="7"></rect>
            <rect id="矩形备份-8" fill="#F3F3F3" opacity="0.5" x="42" y="373" width="122" height="25" rx="7"></rect>
            <rect id="矩形备份-10" fill="#F3F3F3" opacity="0.5" x="249" y="373" width="122" height="25" rx="7"></rect>
            <rect id="矩形备份-12" fill="#F3F3F3" opacity="0.5" x="42" y="452" width="122" height="25" rx="7"></rect>
            <rect id="矩形备份-14" fill="#F3F3F3" opacity="0.5" x="249" y="452" width="122" height="25" rx="7"></rect>
            <circle id="椭圆形" fill="#F8F8F8" cx="26" cy="279" r="6"></circle>
            <circle id="椭圆形备份" fill="#F8F8F8" cx="26" cy="373" r="6"></circle>
            <circle id="椭圆形备份-4" fill="#F8F8F8" cx="233" cy="373" r="6"></circle>
            <circle id="椭圆形备份-2" fill="#F8F8F8" cx="26" cy="452" r="6"></circle>
            <circle id="椭圆形备份-5" fill="#F8F8F8" cx="233" cy="452" r="6"></circle>
            <circle id="椭圆形备份-3" fill="#F8F8F8" cx="26" cy="544" r="6"></circle>
        </g>
    </g>
</svg>