<svg width="15" height="12" viewBox="0 0 15 12" fill="none" xmlns="http://www.w3.org/2000/svg">
<path fill-rule="evenodd" clip-rule="evenodd" d="M11.352 11.4144C11.352 11.7379 11.6134 12 11.9361 12C12.2588 12 12.5202 11.7379 12.5202 11.4162V1.75903L14.0652 2.92122C14.323 3.11461 14.6889 3.0622 14.8836 2.80373C15.0765 2.54346 15.0243 2.17655 14.7665 1.98315L12.2859 0.117874C12.1092 -0.0158768 11.873 -0.0375661 11.6747 0.0618432C11.4764 0.161253 11.352 0.363686 11.352 0.586002V11.4144ZM8.994 1.5096H0.584096C0.261401 1.5096 0 1.24753 0 0.923993C0 0.600461 0.261401 0.338382 0.584096 0.338382H8.994C9.3167 0.338382 9.5781 0.600461 9.5781 0.923993C9.5781 1.24753 9.3167 1.5096 8.994 1.5096ZM8.994 4.86422H0.584096C0.261401 4.86422 0 4.60214 0 4.27861C0 3.95507 0.261401 3.69299 0.584096 3.69299H8.994C9.3167 3.69299 9.5781 3.95507 9.5781 4.27861C9.5781 4.60033 9.3167 4.86422 8.994 4.86422ZM0.584096 8.21702H8.994C9.3167 8.21702 9.5781 7.95494 9.5781 7.63141C9.5781 7.30788 9.3167 7.0458 8.994 7.0458H0.584096C0.261401 7.0458 0 7.30788 0 7.63141C0 7.95494 0.261401 8.21702 0.584096 8.21702ZM8.994 11.5716H0.584096C0.261401 11.5716 0 11.3096 0 10.986C0 10.6625 0.261401 10.4004 0.584096 10.4004H8.994C9.3167 10.4004 9.5781 10.6625 9.5781 10.986C9.5781 11.3096 9.3167 11.5716 8.994 11.5716Z" fill="#0092FF"/>
</svg>
