<?xml version="1.0" encoding="UTF-8"?>
<svg width="33px" height="33px" viewBox="0 0 33 33" version="1.1" xmlns="http://www.w3.org/2000/svg" xmlns:xlink="http://www.w3.org/1999/xlink">
    <title>页面 1</title>
    <g id="页面-1" stroke="none" stroke-width="1" fill="none" fill-rule="evenodd">
        <g id="zan" transform="translate(16.500000, 19.500000) scale(1, -1) translate(-16.500000, -19.500000) translate(4.000000, 7.000000)" fill="#6E6E6E" fill-rule="nonzero">
            <path d="M7,25 L2.5754717,25 C1.1490566,25 0,23.8 0,22.3103448 L0,11.6896552 C0,10.2 1.1490566,9 2.5754717,9 L7,9 L7,25 Z M2.5754717,11.0689655 C2.24528302,11.0689655 1.98113208,11.3448276 1.98113208,11.6896552 L1.98113208,22.3103448 C1.98113208,22.6551724 2.24528302,22.9310345 2.5754717,22.9310345 L5.01886792,22.9310345 L5.01886792,11.0689655 L2.5754717,11.0689655 Z" id="形状"></path>
            <path d="M18.9480519,25 L14.2727273,25 L5.97402597,25 C5.71428571,25 5.46753247,24.8941799 5.28571429,24.7089947 C5.1038961,24.5238095 5,24.2724868 5,24.0079365 L5,10.6746032 C5,10.1322751 5.44155844,9.68253968 5.97402597,9.68253968 C6.75324675,9.68253968 7.71428571,9.03439153 8.77922078,7.8042328 C9.92207792,6.48148148 10.6493506,4.8015873 10.961039,2.81746032 C10.974026,2.76455026 10.987013,2.71164021 11,2.67195767 C11.1818182,1.15079365 12.4415584,0 13.974026,0 C15.6233766,0 16.974026,1.36243386 16.974026,3.05555556 L16.974026,8.41269841 L21.6883117,8.41269841 C23.5194805,8.41269841 25,9.92063492 25,11.7857143 C25,12.1031746 24.961039,12.4074074 24.8701299,12.6984127 L22.1298701,22.5396825 C21.7272727,23.994709 20.4155844,25 18.9480519,25 L18.9480519,25 Z M14.2597403,23.015873 L18.9480519,23.015873 C19.5584416,23.015873 20.0909091,22.6058201 20.2597403,22.010582 L23,12.1693122 C23.038961,12.0502646 23.0519481,11.9179894 23.0519481,11.7857143 C23.0519481,11.0185185 22.4415584,10.3968254 21.6883117,10.3968254 L16,10.3968254 C15.4675325,10.3968254 15.025974,9.94708995 15.025974,9.4047619 L15.025974,3.05555556 C15.025974,2.47354497 14.5584416,1.98412698 13.974026,1.98412698 C13.4025974,1.98412698 12.9480519,2.43386243 12.9220779,3.01587302 C12.9220779,3.13492063 12.8961039,3.25396825 12.8441558,3.35978836 C12.4545455,5.62169312 11.5844156,7.56613757 10.2337662,9.11375661 C9.1038961,10.4232804 8.01298701,11.2301587 6.93506494,11.521164 L6.93506494,23.015873 L14.2597403,23.015873 Z" id="形状"></path>
        </g>
        <rect id="矩形备份-33" fill="#D8D8D8" opacity="0" x="0" y="0" width="33" height="33"></rect>
    </g>
</svg>