<?xml version="1.0" encoding="UTF-8"?>
<svg width="33px" height="33px" viewBox="0 0 33 33" version="1.1" xmlns="http://www.w3.org/2000/svg" xmlns:xlink="http://www.w3.org/1999/xlink">
    <title>页面 1</title>
    <g id="页面-1" stroke="none" stroke-width="1" fill="none" fill-rule="evenodd">
        <g id="shoucang1" transform="translate(2.000000, 2.000000)" fill="#6E6E6E" fill-rule="nonzero">
            <path d="M21.8758375,27.9999181 C21.4675545,27.9999181 21.0086437,27.8824112 20.5832391,27.6691077 L14.5086875,24.6232369 L8.39651925,27.664163 C8.00943993,27.87076 7.56634678,27.9793158 7.11452273,27.9793158 C6.52741122,27.9816072 5.95525114,27.7938105 5.48317684,27.4438686 C4.62774713,26.8004909 4.18941629,25.6862311 4.39175772,24.671405 L5.64183543,18.1702207 L0.850414183,13.6933745 C0.110329982,12.9416605 -0.173638837,11.8513077 0.105424674,10.8328443 L0.115005985,10.7998229 C0.463334858,9.75325417 1.32746713,9.01993426 2.37523176,8.87923801 L9.03223078,7.66580031 L12.0201543,1.58215794 C12.500127,0.61893848 13.4763437,0 14.5086875,0 C15.5855929,0 16.5870384,0.642241031 17.0069153,1.59963485 L19.9852859,7.66398157 L26.6433054,8.83092784 C27.6998404,8.98439654 28.5682748,9.74496966 28.861861,10.7739343 C29.190596,11.7852259 28.9221321,12.8959146 28.1680946,13.6441834 L28.15171,13.6606372 L23.3738103,18.1711017 L24.5813391,24.6839088 C24.7758,25.7253908 24.3626131,26.7775009 23.5023927,27.4330983 C23.0416388,27.8044257 22.4669975,28.004646 21.8758375,27.9999181 Z M14.5109836,22.4283924 L20.9646774,25.6638379 C21.1542059,25.7596057 21.3726485,25.8198229 21.5221226,25.8198229 C21.7521875,25.8198229 21.9658111,25.748807 22.1227121,25.6175738 L22.1519096,25.5934187 C22.5186358,25.3175677 22.6974491,24.8791672 22.6171985,24.4499455 L21.3185056,17.4363325 L26.455336,12.5868443 C26.7707255,12.2662922 26.8785578,11.8072603 26.738665,11.3851716 L26.7245765,11.3407831 C26.611447,10.9319358 26.2660805,10.6300669 25.8466392,10.5734187 L25.8173283,10.5687866 L18.7095257,9.32312318 L15.5105582,2.80920774 C15.3552729,2.44531852 14.9337802,2.18123241 14.5082339,2.18123241 C14.0901145,2.18123241 13.690109,2.4436987 13.4874841,2.84893574 L10.3089831,9.32025299 L3.16376238,10.6214447 C2.72976864,10.6760068 2.39263686,10.9649584 2.23689803,11.4155786 C2.12631608,11.8273517 2.25736462,12.3234971 2.55926098,12.6328242 L7.70204423,17.4370429 L6.35243994,24.4543219 C6.27128226,24.8601273 6.46299353,25.3271445 6.81758711,25.5938734 C6.99537997,25.7278631 7.22569997,25.8017777 7.46721705,25.8017777 C7.653429,25.8017777 7.83193054,25.7582701 7.98579847,25.6753187 L8.00799423,25.6622465 L14.5110119,22.4283924 L14.5109836,22.4283924 Z" id="形状"></path>
        </g>
        <rect id="矩形备份-32" fill="#D8D8D8" opacity="0" x="0" y="0" width="33" height="33"></rect>
    </g>
</svg>