<?xml version="1.0" encoding="UTF-8"?>
<svg width="17px" height="17px" viewBox="0 0 17 17" version="1.1" xmlns="http://www.w3.org/2000/svg" xmlns:xlink="http://www.w3.org/1999/xlink">
    <title>页面 1</title>
    <g id="页面-1" stroke="none" stroke-width="1" fill="none" fill-rule="evenodd">
        <g id="gongsichengshidasha备份" transform="translate(1.000000, 3.000000)" fill="#000000" fill-rule="nonzero">
            <path d="M7.49784792,11 L3.50215208,11 C3.22955524,11 3,10.7487104 3,10.4325718 L3,1.50773766 C3,0.68091378 3.5954089,0 4.33428981,0 L6.66571019,0 C7.3974175,0 8,0.672807664 8,1.50773766 L8,10.440678 C8,10.7487104 7.77044476,11 7.49784792,11 Z M4.33428981,0.559322034 C3.87517934,0.559322034 3.50215208,0.980840088 3.50215208,1.49963154 L3.50215208,10.4325718 L7.49784792,10.4325718 L7.49784792,1.49963154 C7.49784792,0.980840088 7.12482066,0.559322034 6.66571019,0.559322034 L4.33428981,0.559322034 Z" id="形状"></path>
            <path d="M14.7231013,11 L0.276898734,11 C0.126582278,11 0,10.7714286 0,10.5 C0,10.2285714 0.126582278,10 0.276898734,10 L14.7231013,10 C14.8734177,10 15,10.2285714 15,10.5 C15,10.7714286 14.8734177,11 14.7231013,11 Z" id="路径"></path>
            <path d="M11.4810009,11 L11.3401297,11 L11.3401297,10.4455446 L11.4810009,10.4455446 L11.4810009,4.48118812 C11.4810009,3.97425743 11.0954588,3.56237624 10.6209453,3.56237624 L8.98980538,3.56237624 C8.51529194,3.56237624 8.12974977,3.97425743 8.12974977,4.48118812 L7.6107507,4.48118812 C7.6107507,3.67326733 8.22613531,3.00792079 8.98980538,3.00792079 L10.6209453,3.00792079 C11.3772011,3.00792079 12,3.66534653 12,4.48118812 L12,10.4534653 C12,10.7544554 11.7627433,11 11.4810009,11 L11.4810009,11 Z M6.58016682,3.55445545 L4.25949954,3.55445545 C4.11862836,3.55445545 4,3.42772277 4,3.27722772 C4,3.12673267 4.11862836,3 4.25949954,3 L6.58016682,3 C6.721038,3 6.83966636,3.12673267 6.83966636,3.27722772 C6.83966636,3.42772277 6.721038,3.55445545 6.58016682,3.55445545 Z M6.58016682,5.8990099 L4.25949954,5.8990099 C4.11862836,5.8990099 4,5.77227723 4,5.62178218 C4,5.47128713 4.11862836,5.34455446 4.25949954,5.34455446 L6.58016682,5.34455446 C6.721038,5.34455446 6.83966636,5.47128713 6.83966636,5.62178218 C6.83966636,5.77227723 6.721038,5.8990099 6.58016682,5.8990099 Z" id="形状"></path>
            <path d="M11.7125257,6.57377049 L9.14168378,6.57377049 C8.98562628,6.57377049 8.85420945,6.44262295 8.85420945,6.28688525 C8.85420945,6.13114754 8.98562628,6 9.14168378,6 L11.7125257,6 C11.8685832,6 12,6.13114754 12,6.28688525 C12,6.44262295 11.8767967,6.57377049 11.7125257,6.57377049 Z M11.7125257,9 L9.14168378,9 C8.98562628,9 8.85420945,8.86885246 8.85420945,8.71311475 C8.85420945,8.55737705 8.98562628,8.42622951 9.14168378,8.42622951 L11.7125257,8.42622951 C11.8685832,8.42622951 12,8.55737705 12,8.71311475 C12,8.86885246 11.8767967,9 11.7125257,9 Z M6.85831622,8.57377049 L4.28747433,8.57377049 C4.13141684,8.57377049 4,8.44262295 4,8.28688525 C4,8.13114754 4.13141684,8 4.28747433,8 L6.85831622,8 C7.01437372,8 7.14579055,8.13114754 7.14579055,8.28688525 C7.14579055,8.44262295 7.01437372,8.57377049 6.85831622,8.57377049 Z" id="形状"></path>
        </g>
        <rect id="矩形" fill="#FFFFFF" opacity="0" x="0" y="0" width="17" height="17"></rect>
    </g>
</svg>