<svg width="24" height="24" viewBox="0 0 24 24" fill="none" xmlns="http://www.w3.org/2000/svg">
<path d="M13.633 4C13.7905 4 14.0675 4.0335 14.2795 4.102C15.3235 4.4405 15.9245 5.5495 15.681 6.6595L15.656 6.7635L14.7255 10.2535H18.4115C18.859 10.2535 19.3015 10.4195 19.6015 10.7515C19.9365 11.1225 20.067 11.6135 19.9675 12.09L19.9425 12.192L17.999 19.112C17.9317 19.3526 17.7919 19.5666 17.5987 19.725C17.4054 19.8833 17.1681 19.9783 16.919 19.997L16.829 20H7V10.6055C8.991 10.1745 11.903 4.878 11.903 4.878C12.317 4.3165 12.819 4 13.633 4ZM5.5 10.5V20H4V10.5H5.5ZM13.633 5.5C13.408 5.5 13.3155 5.526 13.2005 5.655L13.1605 5.702L12.9715 6.032L12.769 6.3745C12.3079 7.14869 11.8138 7.90272 11.288 8.6345C10.7135 9.4295 10.149 10.1145 9.595 10.661C9.2265 11.0245 8.865 11.3275 8.5 11.5625V18.5H16.613L18.5 11.777C18.5 11.7705 18.497 11.7665 18.4885 11.757C18.4955 11.765 18.4685 11.7535 18.4115 11.7535H12.773L14.2065 6.376C14.3095 5.991 14.1215 5.6275 13.8175 5.529C13.7568 5.51399 13.6949 5.50428 13.6325 5.5H13.633Z" fill="#B1B1B1"/>
</svg>
