<?xml version="1.0" encoding="UTF-8"?>
<svg width="17px" height="17px" viewBox="0 0 17 17" version="1.1" xmlns="http://www.w3.org/2000/svg" xmlns:xlink="http://www.w3.org/1999/xlink">
    <title>页面 1</title>
    <g id="页面-1" stroke="none" stroke-width="1" fill="none" fill-rule="evenodd">
        <g id="nb-备份" transform="translate(3.000000, 1.000000)" fill="#000000" fill-rule="nonzero">
            <path d="M6.00007748,13 C5.95088713,13 5.90253255,12.9865741 5.85968419,12.9610739 C5.6611811,12.8433144 1,10.0200292 1,5.27726335 C1,2.3674576 3.24303845,0 5.99992252,0 C8.7568066,0 11,2.3674576 11,5.27726335 C11,10.0203563 6.33897386,12.8433144 6.14031581,12.9610739 C6.0975132,12.9865469 6.04921531,13 6.00007748,13 L6.00007748,13 Z M6.00007748,0.604335464 C3.55884586,0.604335464 1.57273023,2.70061899 1.57273023,5.27726335 C1.57273023,9.22809622 5.22977391,11.8395778 5.99992252,12.3449625 C6.76883145,11.8389236 10.4274247,9.2223718 10.4274247,5.27726335 C10.4274247,2.70061899 8.44115414,0.604335464 6.00007748,0.604335464 Z" id="形状"></path>
            <path d="M6.01418327,7.24163185 C5.09268186,7.24163185 4.34565737,6.51596784 4.34565737,5.62081592 C4.34565737,4.72566401 5.09268186,4 6.01418327,4 C6.93568467,4 7.68270916,4.72566401 7.68270916,5.62081592 C7.68165531,6.51554346 6.9352478,7.24060813 6.01418327,7.24163185 L6.01418327,7.24163185 Z M6.01418327,4.57200715 C5.57749295,4.57200715 5.18380198,4.8275412 5.01668784,5.21945418 C4.84957369,5.61136716 4.94194663,6.06247851 5.25073332,6.36243572 C5.55952,6.66239293 6.02391016,6.75212456 6.4273594,6.58978889 C6.83080864,6.42745321 7.09386454,6.04501948 7.09386454,5.62081592 C7.09351334,5.04161593 6.61043215,4.57207094 6.01418327,4.57138793 L6.01418327,4.57200715 Z M5.93864542,13.9999853 C5.90773806,13.9999851 5.8770257,13.9952305 5.8476494,13.985898 L4.07521912,13.4259657 L0.294820717,13.4259657 C0.131995731,13.4259657 0,13.2977443 0,13.1395751 C0,12.981406 0.131995731,12.8531845 0.294820717,12.8531845 L4.12207171,12.8531845 C4.1529778,12.8532003 4.18368766,12.8579545 4.21306773,12.8672718 L5.94199203,13.4135812 L7.82151394,12.8660334 C7.84901958,12.8580257 7.87758048,12.853958 7.90629482,12.8539585 L11.7051793,12.8539585 C11.8680043,12.8539585 12,12.98218 12,13.1403491 C12,13.2985183 11.8680043,13.4267397 11.7051793,13.4267397 L7.94964143,13.4267397 L6.02342629,13.9886845 C5.99588744,13.9964607 5.96732269,14.0002683 5.93864542,13.9999853 L5.93864542,13.9999853 Z" id="形状"></path>
        </g>
        <rect id="矩形备份-31" fill="#FFFFFF" opacity="0" x="0" y="0" width="17" height="17"></rect>
    </g>
</svg>