<?xml version="1.0" encoding="UTF-8"?>
<svg width="33px" height="33px" viewBox="0 0 33 33" version="1.1" xmlns="http://www.w3.org/2000/svg" xmlns:xlink="http://www.w3.org/1999/xlink">
    <title>页面 1</title>
    <g id="页面-1" stroke="none" stroke-width="1" fill="none" fill-rule="evenodd">
        <g id="fankui" transform="translate(3.000000, 3.000000)" fill="#6E6E6E" fill-rule="nonzero">
            <path d="M13.5,27 C6.04394999,27 0,20.95605 0,13.5 C0,6.04394999 6.04394999,0 13.5,0 C20.95605,0 27,6.04394999 27,13.5 C27,20.95605 20.95605,27 13.5,27 Z M13.5,24.975 C19.8374675,24.975 24.975,19.8374675 24.975,13.5 C24.975,7.1625325 19.8374675,2.025 13.5,2.025 C7.1625325,2.025 2.025,7.1625325 2.025,13.5 C2.025,19.8374675 7.1625325,24.975 13.5,24.975 L13.5,24.975 Z M12.4875,7.97850001 C12.4875,7.4193117 12.9408117,6.96600001 13.5,6.96600001 C14.0591883,6.96600001 14.5125,7.4193117 14.5125,7.97850001 L14.5125,17.7957 C14.5125,18.3548883 14.0591883,18.8082 13.5,18.8082 C12.9408117,18.8082 12.4875,18.3548883 12.4875,17.7957 L12.4875,7.97714998 L12.4875,7.97850001 Z M13.5,22.09005 C13.0516312,22.1049193 12.6308088,21.8742037 12.4022217,21.4881939 C12.1736347,21.102184 12.1736347,20.622266 12.4022217,20.2362562 C12.6308088,19.8502463 13.0516312,19.6195307 13.5,19.6344 C14.1622673,19.6563629 14.6877814,20.1995937 14.6877814,20.862225 C14.6877814,21.5248564 14.1622673,22.0680871 13.5,22.09005 L13.5,22.09005 Z" id="形状"></path>
        </g>
        <rect id="矩形" fill="#D8D8D8" opacity="0" x="0" y="0" width="33" height="33"></rect>
    </g>
</svg>