<svg width="12" height="12" viewBox="0 0 12 12" fill="none" xmlns="http://www.w3.org/2000/svg">
<rect width="12" height="12" fill="#C4C4C4" fill-opacity="0.01"/>
<path fill-rule="evenodd" clip-rule="evenodd" d="M3.03704 7.11765C2.4643 7.11765 2 6.6436 2 6.05882C2 5.47405 2.4643 5 3.03704 5C3.60978 5 4.07407 5.47405 4.07407 6.05882C4.07407 6.6436 3.60978 7.11765 3.03704 7.11765ZM6.00004 7.11765C5.4273 7.11765 4.963 6.6436 4.963 6.05882C4.963 5.47405 5.4273 5 6.00004 5C6.57278 5 7.03707 5.47405 7.03707 6.05882C7.03707 6.6436 6.57278 7.11765 6.00004 7.11765ZM7.92589 6.05882C7.92589 6.6436 8.39019 7.11765 8.96293 7.11765C9.53567 7.11765 9.99996 6.6436 9.99996 6.05882C9.99996 5.47405 9.53567 5 8.96293 5C8.39019 5 7.92589 5.47405 7.92589 6.05882Z" fill="#B1B1B1"/>
</svg>
