<?xml version="1.0" encoding="UTF-8"?>
<svg width="9px" height="9px" viewBox="0 0 9 9" version="1.1" xmlns="http://www.w3.org/2000/svg" xmlns:xlink="http://www.w3.org/1999/xlink">
    <title>youxia备份 3</title>
    <g id="页面-1" stroke="none" stroke-width="1" fill="none" fill-rule="evenodd">
        <g id="youxia备份-3" fill="#000000" fill-rule="nonzero">
            <path d="M7.35449591,0.327870919 C7.50735695,0.173578722 7.68044959,0.0737425942 7.87377384,0.0283625362 C8.06709809,-0.0170175217 8.2469346,-0.00794151015 8.41328338,0.055590571 C8.57963215,0.119122652 8.71900545,0.237110803 8.83140327,0.409555023 C8.94380109,0.581999244 9,0.804361528 9,1.07664188 L9,7.21656372 C9,7.46161603 8.95953678,7.69305433 8.87861035,7.91087861 C8.79768392,8.12870289 8.6852861,8.31929913 8.54141689,8.48266734 C8.39754768,8.64603555 8.226703,8.77309971 8.02888283,8.86385983 C7.83106267,8.95461994 7.61525886,9 7.38147139,9 L0.920844687,9 C0.687057221,9 0.495980926,8.94100592 0.347615804,8.82301777 C0.199250681,8.70502962 0.0980926431,8.55981344 0.0441416894,8.38736922 C-0.00980926431,8.214925 -0.0143051771,8.03113576 0.030653951,7.83600151 C0.075613079,7.64086726 0.174523161,7.46615404 0.327384196,7.31186184 C0.552179837,7.08496155 0.860149864,6.77864616 1.25129428,6.39291567 C1.64243869,6.00718518 2.07404632,5.58061263 2.54611717,5.11319803 C3.01818801,4.64578344 3.50374659,4.16248582 4.00279292,3.66330518 C4.50183924,3.16412454 4.97391008,2.69444094 5.41900545,2.25425438 C5.86410082,1.81406782 6.25974114,1.42153032 6.60592643,1.07664188 C6.95211172,0.731753435 7.20163488,0.482163116 7.35449591,0.327870919 L7.35449591,0.327870919 Z" id="路径"></path>
        </g>
    </g>
</svg>