<?xml version="1.0" encoding="UTF-8"?>
<svg width="125px" height="123px" viewBox="0 0 125 123" version="1.1" xmlns="http://www.w3.org/2000/svg" xmlns:xlink="http://www.w3.org/1999/xlink">
    <title>打招呼备份</title>
    <g id="页面-1" stroke="none" stroke-width="1" fill="none" fill-rule="evenodd">
        <g id="打招呼备份" fill-rule="nonzero">
            <path d="M114.965988,46.9223936 C114.965988,40.2911004 118.668321,31.9476097 118.668321,24.1682153 C118.668321,8.95239961 99.8379486,1.65850583 88.2177596,1.65850583 C77.7178737,1.65850583 67.3018999,6.18869555 57.285719,6.18869555 C43.0980553,6.18869555 39.3256835,0 31.2070866,0 C25.2689192,0 1.95185223,6.15852559 1.95185223,26.6828718 C1.95185223,32.8723022 3.87512816,36.6184289 3.87512816,41.1274744 C3.87512816,48.4486894 0,56.5891643 0,65.3699143 C0,74.1579815 4.89303085,83.469641 8.80405398,85.7755068 C10.3743234,74.6014326 14.0883451,75.1350542 14.0883451,63.2193915 C14.0863754,63.0165389 14.0715646,62.8140147 14.0440015,62.6130348 C14.0440015,62.2205765 14.3412769,62.1163187 14.5577751,61.9839357 C14.1010519,60.9114481 13.4200276,59.5593063 13.4200276,57.4594913 C13.4200276,56.2887878 13.6118946,55.885862 13.6118946,55.6135218 C13.6118946,55.1387424 9.96171825,50.5573357 9.96171825,47.2117474 C9.96171825,46.9540283 10.0503512,44.9701479 11.3406033,44.9701479 C12.9230805,44.9701479 14.8881946,49.5102235 15.5472118,49.9269416 C14.6568795,45.3073476 14.082817,43.5416874 14.082817,41.7875936 C14.082817,40.1591737 14.4822838,39.101968 15.2828762,39.101968 C17.6396526,39.101968 20.0990387,49.0750979 20.6893957,49.7909832 C20.191765,44.635652 20.2022728,44.7747772 20.2022728,42.6129021 C20.2022728,39.3921028 20.4980657,37.463023 22.128718,37.463023 C24.8585049,37.463023 25.2106811,49.8536496 25.4798053,50.1726494 C25.5496647,49.9473295 26.2535131,45.636973 28.2118242,45.636973 C29.4903496,45.636973 29.7127202,47.3165786 29.7127202,48.8664554 C29.7127202,55.7968976 26.4385046,62.4927784 26.4324098,62.5082843 C26.8167994,62.537118 27.1557731,62.5682222 27.4954402,62.5863364 C27.7815574,62.5925553 28.0105298,62.8258357 28.0114837,63.1120888 C28.0114837,63.4966269 27.3259773,64.735696 27.3259773,66.8249364 C27.3259773,78.719305 33.9774021,79.732349 37.155195,91.261218 C49.5554189,83.1182288 57.3266743,84.3081718 57.3266743,81.1740137 C57.3266743,81.0727233 57.3199716,80.9521704 57.3199716,80.8428576 C57.3199716,80.8023042 57.3208463,80.7618233 57.3232216,80.7216884 C57.2156109,80.7164621 57.1408345,80.7070079 57.0729501,80.7070079 C56.816233,80.7070079 50.7762169,81.2258502 50.2754565,81.2258502 C49.2259482,81.2258502 50.1919415,80.8584575 48.6896486,62.1324623 C48.6770966,61.9325554 48.5347025,61.7646616 48.3395643,61.7196853 C47.5552528,61.4327755 46.9937935,60.7356563 46.8804818,59.9080592 C46.8804818,59.4629984 46.9298775,59.3296564 46.9298775,59.1904027 C46.9298775,59.1696704 46.927466,59.0583311 46.927466,58.8527335 C46.927466,54.1299213 48.311133,51.0216081 48.311133,50.2485727 C48.311133,49.6453712 47.5234236,47.6551458 47.5234236,43.878345 C47.5234236,27.291321 62.3167769,20.0197099 72.4296193,20.0197099 C104.65676,20.0197099 99.3052482,56.2592802 100.647584,79.7694078 C100.259864,79.9273589 87.0217278,80.1862198 85.0472837,80.4032027 C85.9112602,80.9061979 97.2346532,86.1905328 105.845751,95.8511792 C105.857626,95.8516884 105.867165,95.8535502 105.8799,95.8535502 C106.651447,95.8535502 121.820616,92.2330084 125,74.9245153 L124.992235,72.0300742 C124.594877,71.0593828 125.459044,67.6013792 117.465972,55.1949138 C116.284994,53.3618453 114.965988,50.8465643 114.965988,46.9223936 Z M41.6779728,23.9943694 C41.6779728,25.9931692 40.8180336,27.4478848 40.3198791,28.1923402 C38.6560333,30.6788633 38.1844241,29.7550885 38.1844241,31.4188552 C38.1844241,32.7847218 38.8832995,34.2610875 39.5565061,34.2820554 C39.8881664,34.3012374 40.1426825,34.5837246 40.1273796,34.9156674 C40.1273796,35.1518749 40.0916724,35.5450977 38.926696,35.5450977 C36.4970771,35.5450977 35.1375652,33.2232646 34.5309022,32.7267611 C32.0008202,33.8122448 29.2736984,34.3628019 26.5207627,34.343865 C19.6971735,34.343865 13.6094501,30.7857837 13.6094501,25.4297039 C13.6094501,18.962893 22.0066626,15.102743 28.6306164,15.102743 C39.4486416,15.102743 41.6779728,21.6894774 41.6779728,23.9943694 Z M80.7284192,104.421837 C78.5973557,104.421837 78.3597465,106.04208 78.3597465,106.840952 C78.3597465,111.153452 84.0050843,116 87.029259,116 C89.4846538,116 95.136205,109.186148 95.136205,104.785934 C95.136205,104.185956 95.0286832,102.930572 93.8211158,102.930572 C91.225676,102.930572 88.1392324,107.076933 88.1287131,107.193077 C88.398908,107.557827 88.6828309,107.878677 88.6828309,108.457044 C88.6828309,109.142463 88.1963339,109.847615 87.481075,109.847615 C86.5582081,109.847615 86.3463024,108.916675 86.3463024,108.709074 C86.3463024,108.197025 86.5307536,107.642292 86.5307536,107.508744 C86.5307536,107.173729 83.4830217,104.421838 80.7284192,104.421838 L80.7284192,104.421837 Z" id="Shape" fill="#6190E6"></path>
            <path d="M84.5962666,80.6483745 C86.4222001,80.4458401 99.7764693,80.153822 100.121815,80.0117996 C98.785923,56.3985296 104.111776,20 72.0390976,20 C63.7252615,20 47.2522304,25.979544 47.2522304,43.9632912 C47.2522304,47.7570769 48.0361504,49.7677419 48.0361504,50.3614309 C48.0361504,51.1378339 46.6591006,54.2597844 46.6591006,59.0032841 C46.6591006,59.2084447 46.6615105,59.3244378 46.6615105,59.3426082 C46.6615105,59.4824181 46.6123383,59.616378 46.6123383,60.0631478 C46.7282941,60.8930299 47.2858923,61.5918091 48.0644373,61.8829105 C48.2586434,61.9280632 48.40036,62.0966936 48.4128374,62.2974766 C49.9079954,81.1064023 48.9464704,81.4746171 49.9911987,81.4746171 C50.4813218,81.4746171 56.5036603,80.9534892 56.7557489,80.9534892 C56.8233375,80.9534892 56.8978719,80.9629898 57.0050359,80.9682787 C57.0026736,81.0084242 57.0018228,81.0489238 57.0018228,81.0894813 C57.0018228,81.1982409 57.0084835,81.3218248 57.0084835,81.4225351 C57.0084835,84.5704836 49.2744738,83.3752467 36.9336656,91.5540214 C33.7728299,79.9808105 27.1515617,78.9571321 27.1515617,67.0106144 C27.1515617,64.9121983 27.8337899,63.6676331 27.8337899,63.2813819 C27.8328034,62.9938951 27.604937,62.7596278 27.3202126,62.7533779 C26.9821797,62.7351578 26.6448648,62.7039271 26.2622433,62.6749587 C26.2683089,62.6593665 29.5268446,55.9341835 29.5268446,48.9733538 C29.5268446,47.4285474 29.3096872,45.7296464 28.0331916,45.7296464 C26.0858285,45.7296464 25.3825873,50.0626593 25.3142577,50.2851861 C25.0464215,49.9648135 24.6959493,37.5198627 21.9792334,37.5198627 C20.3895377,37.5198627 20.0620097,39.3771413 20.0620097,42.6929679 C20.0620097,44.8629124 20.0516146,44.7250751 20.5467886,49.9018855 C19.9592769,49.1828353 17.5116284,39.1659652 15.1661537,39.1659652 C14.3715796,39.1659652 13.9718483,40.2234575 13.9718483,41.8632004 C13.9718483,43.625612 14.5427993,45.3967547 15.42928,50.0384453 C14.7733683,49.6199142 12.8176888,45.059898 11.2427619,45.059898 C9.95872701,45.059898 9.87054173,47.0525249 9.87054173,47.3112421 C9.87054173,50.6769034 13.503212,55.2703099 13.503212,55.7499552 C13.503212,56.0234305 13.3122595,56.4281385 13.3122595,57.6039042 C13.3122595,59.7129793 13.9897221,61.0705142 14.444555,62.1483117 C14.2290894,62.281244 13.9332171,62.3859508 13.9332171,62.7801851 C13.960615,62.9820222 13.9753634,63.185404 13.9773745,63.3891171 C13.9773745,77.4279196 8.89062494,74.2573408 8.12855415,93.0493025 C8.11418693,93.4036677 8.04422625,93.7557658 8,94.1088865 C8.00299672,95.2314053 8.0035918,95.4447972 8.00476394,95.8978902 C8.3811395,98.4946914 9.02263319,114.795711 19.5964079,123 C19.6456352,123 19.6948637,123 19.7440932,123 C19.9950081,122.872789 20.3083836,122.72467 20.3083836,122.172111 C20.3083836,121.485517 19.943408,121.358341 19.7683834,121.358341 C19.6552587,121.358341 19.6064456,121.388443 19.5104341,121.388443 C18.1323778,121.388443 9.21057261,110.317958 9.21057261,94.8606188 C9.21057261,84.9403847 12.3066558,72.5417884 15.7360605,72.2274594 C16.0298751,72.218047 16.2624881,71.9735368 16.2599246,71.676802 C16.2599246,71.1645044 15.837172,71.0404124 15.1677537,71.0404124 C14.894088,71.0404124 14.5875387,71.045526 14.3733157,71.0461035 C14.7628355,68.9227304 15.0425897,66.7933782 15.0425897,64.6245061 C15.0425897,64.038825 15.0218307,63.5801303 15.0076421,63.319088 C17.5632743,63.4901915 25.3879053,63.7427029 26.4744106,63.8660104 C26.2211843,65.1103821 26.0078072,65.7004105 26.0078072,67.1670706 C26.0078072,68.7436521 26.3007909,71.1407024 26.3063138,71.1923591 C26.1878236,71.1926901 26.0930351,71.1933306 26.0003727,71.1933306 C25.7218825,71.1933306 25.537784,71.1882617 25.3102987,71.1882617 C25.281097,71.1882617 25.2710347,71.1883312 25.2587446,71.1883312 C25.2360921,71.1883312 25.2103298,71.1881657 25.1820855,71.1881657 C24.8511936,71.1881657 24.1797261,71.2111485 24.1797261,71.7956199 C24.1797261,72.4897296 25.0995839,72.3860372 25.9427039,72.9402344 C26.1874056,73.1011157 26.4541992,73.2276536 26.7357616,73.3829597 C29.9944153,81.3667379 35.9374259,88.5429355 35.9374259,92.2357675 C35.9374259,92.9504555 32.0763161,95.4070828 32.0763161,101.041166 C32.0763161,102.713411 32.8549509,105.38463 34.600768,105.38463 C36.1790096,105.38463 37.408492,103.70209 37.408492,97.3576794 C37.408492,94.2809217 37.147146,94.4439974 37.147146,93.2468209 C37.147146,93.0341704 37.1642346,92.883435 37.3370314,92.7482654 C42.5427531,88.6771933 45.707456,87.7748134 49.2489787,86.5204497 C51.4926222,89.5819859 58.0260904,98.4867911 70.7220791,98.4867911 C83.8081499,98.4867911 90.0953376,88.5315996 91.4184037,86.5546707 C91.4839724,86.585635 91.5522049,86.6104912 91.6222513,86.6289296 C91.6584923,86.6289296 91.7144465,86.55968 91.8458777,86.55968 C93.7968227,86.55968 113.800613,100.590054 113.800613,118.483 C113.800613,118.698246 113.79247,118.918438 113.79247,119.148771 L113.792501,119.173354 C113.368381,119.395232 110.762369,121.032477 104.44005,121.032477 C97.1541454,121.032477 90.4981689,119.010518 87.2117594,117.512951 C91.8747891,115.578629 95.7656087,108.846475 95.7656087,105.100036 C95.7656087,104.619041 95.6732759,102.139996 93.3355832,102.139996 C90.4117312,102.139996 87.4523431,105.942757 86.8727445,106.613001 C86.8337571,106.623757 86.7935554,106.629379 86.7531396,106.629726 C86.3536804,106.629726 83.6092186,103.614986 80.3361813,103.614986 C79.0949168,103.614986 76.8043192,104.154257 76.8043192,107.25717 C76.8043192,116.522147 92.2435057,122.165147 104.414002,122.165147 C111.440169,122.165147 113.942075,120.276709 114.356301,120.196577 C114.844756,120.102084 115,119.947685 115,119.486307 C115,94.7792853 85.1137602,80.9524234 84.5962666,80.6483745 Z M19.9795425,62.4000569 C22.1744171,56.878074 24.8516313,56.7618079 24.8516313,55.8968546 L24.8516313,55.8957293 C24.8505694,55.5902282 24.6071013,55.3419841 24.3044917,55.3378566 C24.0347588,55.3378566 20.9861822,56.6619333 18.9224929,62.3104458 C18.6977157,62.3110333 18.430396,62.3158737 18.2089434,62.3158737 C17.4971497,62.3158737 16.9673036,62.2648459 16.268323,62.2462038 C15.3300669,62.2211127 14.4483222,59.3693112 14.4483222,57.6567756 C14.4483222,56.5382385 14.6787666,56.0022383 14.6787666,55.6786619 C14.6787666,54.6392175 11.0538192,50.8253616 11.0538192,47.2494675 C11.0538192,46.4844004 11.092475,46.6510059 11.2292554,46.2050503 C12.6007887,46.8303936 15.6999129,53.7077931 16.3495148,53.7077931 C16.6325903,53.7077931 17.0968807,53.3317822 17.0968807,52.7718128 C17.0968807,51.9227843 15.1013864,43.7137255 15.1013864,41.922726 C15.1181617,41.4131833 15.165296,40.9051213 15.242534,40.4012947 C17.2345627,41.7012467 19.7035834,53.3471261 21.092661,53.3471261 C21.4392103,53.3471261 21.8442203,52.9221692 21.8442203,52.5585963 C21.8442203,49.8753927 21.1816889,46.2696613 21.1816889,43.1890313 C21.1816889,38.8906332 21.7179055,38.6812973 21.9301941,38.6812973 C23.7574391,38.6812973 23.611798,53.7090872 25.2818872,53.7090872 C26.85876,53.7090872 25.819971,49.3618275 27.7148833,47.1544185 C27.7710124,47.0878952 27.8533539,47.0497552 27.9399161,47.050185 C28.0985983,47.0486962 28.2328758,47.1681906 28.2513113,47.3272976 C28.3245335,47.8617522 28.3626752,48.4005087 28.3654868,48.9400429 C28.3654868,54.7981991 25.7659202,61.0222648 25.1630118,62.6331732 C23.4667127,62.5568987 21.7546514,62.4798927 19.9795425,62.4000569 Z M36.2899703,97.1797496 C36.2899703,97.2620148 36.2690359,104.241966 34.606104,104.241966 C33.962948,104.241966 33.2309461,102.862549 33.2309461,100.964124 C33.2309461,98.9776747 33.8541792,96.4607755 36.040039,94.0375766 C36.0711374,94.2161535 36.2899703,94.9771331 36.2899703,97.1797496 L36.2899703,97.1797496 Z M70.5547807,97.3267482 C61.4967164,97.3267482 53.8980806,91.7626308 50.4358579,86.2048299 C52.0619241,85.4161561 58.1205823,84.7508229 58.1205823,81.2731568 C58.1205823,80.2636093 56.4837373,62.9747712 56.4837373,62.1943171 C56.4837373,61.9937619 56.5196062,61.8922473 56.5196062,61.7600217 C56.5196062,61.0372943 54.3820857,61.1325469 54.165061,61.1325469 C53.3812902,61.1325469 52.4833997,61.1656112 51.6043518,61.1656112 C47.8922339,61.1656112 47.7044404,60.7149177 47.7044404,58.7798785 C47.7044404,53.71992 50.9104056,40.2270072 60.1630634,36.4340656 C61.9162739,44.2045859 65.2076523,41.8364263 70.5861462,43.4814299 C76.4700256,45.280952 74.1519362,50.9381227 80.8797569,53.8783736 C80.9822658,53.9256025 81.0932488,53.9512028 81.2059046,53.9536056 C81.7214408,53.9536056 81.7102802,53.380427 81.7102802,53.3541213 C81.7102802,52.9728578 81.5168031,50.0747001 81.5168031,48.7704239 C81.5168031,47.435569 81.8464474,40.5941596 84.9714995,40.5941596 C88.2152598,40.5941596 89.2696848,43.6575212 89.2696848,46.3315733 C89.2696848,47.0593844 89.0749798,57.1641114 87.3592119,57.724569 C86.9873167,57.8460181 86.6137018,57.9622081 86.1999836,58.0936427 C86.0629344,57.2799092 86.0296311,56.5321006 85.4907096,56.5321006 C85.3751505,56.5321006 84.9405356,56.6305537 84.9405356,57.0696796 C84.9405356,57.1809149 84.9806208,57.3565494 85.1437553,58.2501998 C84.6157617,58.4241811 82.8199839,58.7947442 82.4962936,58.7947442 C82.3991706,58.7947442 82.3725132,58.7859287 82.291828,58.7859287 C81.7240425,58.7859287 81.4618637,59.2740222 81.4618637,59.9880251 C81.4618637,60.1848303 81.8049294,80.992324 82.8430478,81.2593287 C84.1658353,81.5995134 88.113827,83.7629227 90.5250968,85.8070244 C89.333298,87.8191738 83.2404808,97.3267482 70.5547807,97.3267482 Z M86.5687756,116.401299 C83.5266088,116.401299 77.940777,111.495978 77.940777,107.202051 C77.940777,106.399716 78.1772132,104.772355 80.2981337,104.772355 C83.2195611,104.772355 86.0726393,107.635148 86.0726393,107.872812 C86.0726393,108.006942 85.8890851,108.564118 85.8890851,109.078365 C85.8890851,109.277554 86.1019803,110.221924 87.0184298,110.221924 C87.7265924,110.221924 88.2144041,109.517237 88.2144041,108.82527 C88.2144041,108.259935 87.9461777,107.941693 87.6629416,107.555749 C87.6736317,107.436794 90.7479739,103.274578 93.3280963,103.274578 C94.5298476,103.274578 94.6368591,104.535442 94.6368591,105.138031 C94.6368591,109.559596 89.0125733,116.401299 86.5687756,116.401299 Z" id="形状" fill="#000000"></path>
            <path d="M26.8797915,34.8247529 C29.6260096,34.8432739 32.3464762,34.3046317 34.8703878,33.2426449 C35.4755524,33.7283917 36.8317337,36 39.2553909,36 C40.4185351,36 40.4532021,35.615736 40.4532021,35.3841659 C40.4684631,35.0594123 40.2145739,34.7830446 39.8837298,34.7642744 C39.2122137,34.7437554 38.5150026,33.2998721 38.5150026,31.9628991 C38.5150026,30.3353202 38.985489,31.2389925 40.6452418,28.8063337 C41.1421511,28.078015 42,26.6547717 42,24.6991887 C42,22.5304317 39.8490678,16 28.9844852,16 C22.0375004,16 14,19.990213 14,26.1034783 C14,31.3422645 20.0791386,34.8247529 26.8797915,34.8247529 Z M15.1390677,26.1289091 C15.1390677,21.8232688 20.7705656,17.1171881 29.0400802,17.1171881 C34.5082044,17.1171881 40.8722097,19.7125223 40.8722097,24.6785698 C40.8722097,28.3733683 37.507279,30.0675642 37.507279,30.6956591 C37.5296792,30.8230096 37.5416897,30.9519098 37.5431965,31.0811338 C37.5431965,31.4883541 37.4476893,31.7662963 37.4476893,32.3012924 C37.4476893,33.3045017 37.7765549,33.9825473 37.9764163,34.4718259 C37.9547127,34.4869786 37.9329822,34.5020776 37.9112249,34.5171228 C36.2246794,33.6204546 36.0910069,32.7783731 35.9383995,32.6877778 C35.5641088,32.4655782 35.267309,32.1833191 34.8492002,32.1833191 C34.0630597,32.1833191 31.6063836,33.7152798 26.8698944,33.7152798 C20.8343356,33.7152798 15.1390677,30.7481986 15.1390677,26.1289091 L15.1390677,26.1289091 Z" id="形状" fill="#000000"></path>
            <path d="M85.3651923,51.9060805 C85.6547454,51.9060805 85.7378497,51.3723781 86.1260651,51.3723781 C86.1661345,51.3725593 86.206036,51.3794604 86.2448735,51.3929264 C86.2487424,51.4565085 86.2558699,51.5136212 86.2558699,51.5643751 C86.2558699,51.6280346 86.1740445,54.3940718 86.1740445,54.4098497 C86.1740445,54.9607384 86.4767216,55 86.5441499,55 C86.8853872,55 86.9998734,54.8155098 86.9998734,51.6733171 C86.9998734,51.1290177 87.0253015,50.3217019 86.3554687,50.3217019 C86.185493,50.3217019 86.0089263,50.3530524 85.818705,50.371979 C85.8125404,50.3299512 85.8079478,50.2875218 85.804945,50.2448558 C85.804945,49.950443 86.087654,45.6758265 86.087654,45.567622 C86.087654,45.1268169 85.8898265,45 85.7448037,45 C85.3060789,45 85.3305577,45.4227013 85.0286658,50.6510875 C85.0130985,50.9207376 85,51.1851357 85,51.4206671 C85,51.8852481 85.3595149,51.9060805 85.3651923,51.9060805 Z" id="路径" fill="#000000"></path>
            <path d="M68.3809194,55 C67.3813269,55 67.1099628,58.9766729 63.5174913,59.7246194 C63.2293482,59.7946547 63.0201209,60.0406199 63,60.3329761 C63,60.6358619 63.2222254,60.9251787 63.6888812,61 C64.1482429,60.8409704 67.278278,60.2838476 68.9541148,55.8451054 C68.9839831,55.7675802 68.9995243,55.6853922 69,55.6024471 C68.9961775,55.2678307 68.7197948,54.9988755 68.3809194,55 L68.3809194,55 Z" id="路径" fill="#000000"></path>
            <path d="M59,43.3889389 C59,43.2919466 58.8366436,43 58.3760406,43 C57.9285386,43 55.3014381,44.2499931 55.1873647,44.3241831 C55.069882,44.395803 55.0027599,44.4920297 55,44.5927901 L55,44.593983 L55,44.5956422 C55,44.6287587 55.0076433,44.9786163 55.7518673,45 C56.1585147,44.8681298 55.6537229,45.1090454 58.5845235,43.7896417 C58.8206779,43.7035113 58.9749115,43.554762 59,43.3889389 Z" id="路径" fill="#000000"></path>
            <path d="M59.8387307,49 C59.075145,49 59,49.6034627 59,49.7362892 C59,50.2673492 59.522963,51 60.2811203,51 C60.9478773,51 60.9736845,50.4686188 61,50.3688733 C60.917071,49.9666137 60.9013958,49.5757741 60.4914394,49.2567858 C60.3109211,49.1163475 60.1157537,49 59.8387307,49 Z" id="路径" fill="#000000"></path>
            <path d="M64.9099092,51 C65.9915605,51 66,50.1046065 66,50.0355882 C66,49.8852324 65.8375515,49 65.0027826,49 C64.5708085,49 64.1614229,49.1899624 64,49.9705128 C64.1796103,50.4375444 64.2533408,51 64.9099092,51 Z" id="路径" fill="#000000"></path>
            <path d="M68.5189504,51 C68.3334165,51.0802058 68.2439459,50.993532 67.1986389,52.0554239 C67.0800336,52.1612406 67.0079993,52.3156575 67,52.4812376 C67,52.5041202 67.0616589,53 67.4713785,53 C67.6764136,53 67.8162122,52.9007288 68.6602703,52.1550299 C68.92312,51.9228047 69,51.7362452 69,51.5787272 C69,51.2779591 68.7219582,51.1583421 68.5189504,51 Z" id="路径" fill="#000000"></path>
            <path d="M59.8227503,51.8335314 C58.9965221,51.0129142 58.5524384,51.0003139 58.5003647,51.0003139 C58.3691258,50.9948593 58.2418337,51.0606846 58.147547,51.1827633 C58.0532602,51.3048419 58.0000272,51.4727531 58,51.6481656 C58,52.0806964 58.22363,52.2023379 59.0696404,52.7956929 C59.1956663,52.9121261 59.3422749,52.9825538 59.4949439,53 C59.6380347,52.9918972 59.7725054,52.906398 59.8674512,52.7631524 C59.962397,52.6199068 60.0096519,52.4312346 59.9983556,52.2404979 C59.9983556,52.2370137 59.9983556,52.2395638 59.9982297,52.2207247 C59.9613576,52.0762423 59.9014912,51.9441477 59.8227503,51.8335314 L59.8227503,51.8335314 Z" id="路径" fill="#000000"></path>
            <path d="M21.0205394,24.6935965 L21.0205394,24.6988912 L21.0204833,24.6930577 L21.0204693,24.6966081 C21.0204693,27.251739 20.8129458,28 21.7194362,28 C22.2637531,28 22.417748,27.6799781 22.417748,27.057615 C22.417748,26.7640408 22.4073428,27.0177689 22.4035906,25.8453326 C23.4673132,25.8430352 24.478024,25.8408941 25.5100983,25.8386764 C25.6339032,27.2454495 25.5120675,27.8327876 26.3090627,27.8327876 C26.5042334,27.83177 26.6898854,27.7655352 26.8206904,27.6502549 C26.9514953,27.5349746 27.0154143,27.3812588 26.996841,27.2266385 C26.996841,27.1963469 26.6903217,22.6128787 26.6637177,22.5087269 C26.6247572,22.2278628 26.3339203,22.011728 25.9791606,22 C25.3458704,22 25.2883432,22.5303933 25.2883432,22.6437091 L25.2883432,22.6461244 C25.2883432,22.6545534 25.2879946,22.6546363 25.2879946,22.6572047 C25.2879946,22.6712967 25.29846,22.7601831 25.4341886,24.7110731 C25.0270708,24.7143606 24.4334823,24.7197365 23.9050196,24.7197365 C23.4051923,24.7197365 22.9061664,24.7153714 22.401433,24.7018884 C22.4001168,24.3113288 22.3999045,24.0168219 22.3999045,23.7897089 C22.3999045,23.6821851 22.3999525,23.5897705 22.3999525,23.5094326 C22.3999525,23.1043234 22.3987505,23.0060466 22.3841684,22.8249847 C22.3650286,22.5391399 22.0694221,22.3146262 21.7097401,22.3127551 C21.3334133,22.3127551 21.0143672,22.5306436 21.0143672,22.9817608 C21.0143712,23.017044 21.0137762,22.6971385 21.0205394,24.6935965 Z" id="路径" fill="#000000"></path>
            <path d="M33.4889784,27 C33.6893357,26.9999333 33.8661369,26.8355605 33.9245818,26.5950175 C33.9323466,26.5623169 34,22.9450756 34,22.9263268 C34,22.7210723 33.9967897,21.8387225 33.9967897,21.829196 C33.9967897,21.8081465 33.9968544,21.787007 33.9968544,21.7658485 C33.9968544,21.0006068 33.5644626,21 33.5207482,21 C33.064412,21 33.0090186,21.1464688 33.0090186,24.6269096 C33.0090173,26.1880471 32.8935494,27 33.4889784,27 Z" id="路径" fill="#000000"></path>
            <path d="M32.0203592,26.0652765 C32.0203592,26.0925798 32.0184848,26.1399633 32.0184848,26.1993799 C32.0184848,26.4725323 32.0581072,27 32.5016516,27 C32.8989166,27 33,26.7626866 33,25.0795705 C33,24.3920267 32.9823779,22.957442 32.9823779,22.0332375 C32.9823779,21.9998722 32.982857,21.960031 32.982857,21.9157062 C32.982857,21.5837115 32.9560206,21 32.5003253,21 C32.0916106,21 32,21.2633629 32,22.8535454 C32,23.5558012 32.0203592,25.0540882 32.0203592,26.0652765 Z" id="路径" fill="#000000"></path>
            <path d="M28.4472585,23 C28.0377934,23 28,23.4648332 28,23.8113566 C28,23.8376702 28.0894212,26.1642288 28.1019865,26.4138248 C28.1206535,26.7841676 28.2999421,27 28.5549439,27 C28.9741466,27 29,26.5537517 29,26.1634367 C29,23.3888752 28.9074036,23 28.4472585,23 Z" id="路径" fill="#000000"></path>
            <path d="M33.4778875,27.9999634 C33.4802037,27.9999634 33.4870564,27.9999149 33.493252,27.9996862 C33.745257,27.9921827 33.9999884,27.6976089 33.9999884,27.4191731 C34.0008365,27.3084016 33.9553316,27.2018791 33.8735529,27.1232005 C33.7917741,27.0445219 33.6804717,27.0001812 33.564299,27 C33.2604619,27.0361612 33.0248964,27.2705997 33,27.5615992 C33.0067433,27.8077593 33.2196638,28.0030704 33.4778875,27.9999634 L33.4778875,27.9999634 Z" id="路径" fill="#000000"></path>
            <path d="M28.5102768,22.9999676 C28.767952,23.0029913 28.9829601,22.7941222 29,22.5242273 L29,22.5231942 C28.9872656,22.2341134 28.7625876,22.0052505 28.4869239,22.0005614 C28.3607729,21.9942061 28.2375918,22.0420238 28.1457362,22.1330071 C28.0538806,22.2239904 28.0012646,22.3503003 28,22.4828612 C28.0115675,22.7704523 28.2360531,22.9979425 28.5102768,22.9999676 L28.5102768,22.9999676 Z" id="路径" fill="#000000"></path>
            <path d="M32,27.5123436 C32.0027978,27.7810922 32.21509,27.9980089 32.4772599,28 C32.7570425,27.9914927 32.9840326,27.7650952 33,27.4786245 C32.9940353,27.2127581 32.7822465,27.0003248 32.5228275,27 C32.2433566,27.0010354 32.013596,27.2261888 32,27.5123436 L32,27.5123436 Z" id="路径" fill="#000000"></path>
        </g>
    </g>
</svg>