<?xml version="1.0" encoding="UTF-8"?>
<svg width="208px" height="208px" viewBox="0 0 208 208" version="1.1" xmlns="http://www.w3.org/2000/svg" xmlns:xlink="http://www.w3.org/1999/xlink">
    <title>空备份</title>
    <defs>
        <linearGradient x1="49.9977096%" y1="-0.0195500634%" x2="49.9977096%" y2="100.011597%" id="linearGradient-1">
            <stop stop-color="#DEE3F0" offset="0%"></stop>
            <stop stop-color="#E1E6F1" stop-opacity="0.9602" offset="3.981841%"></stop>
            <stop stop-color="#F2F4F9" stop-opacity="0.6838" offset="31.62%"></stop>
            <stop stop-color="#FCFCFE" stop-opacity="0.3802" offset="61.98%"></stop>
            <stop stop-color="#FFFFFF" stop-opacity="0" offset="100%"></stop>
        </linearGradient>
        <linearGradient x1="99.9940028%" y1="50.0066717%" x2="-0.00984869326%" y2="50.0066717%" id="linearGradient-2">
            <stop stop-color="#BCC0CC" offset="0%"></stop>
            <stop stop-color="#BFC3CE" stop-opacity="0.7028" offset="29.41%"></stop>
            <stop stop-color="#C9CCD6" stop-opacity="0.4803" offset="51.42%"></stop>
            <stop stop-color="#D9DBE2" stop-opacity="0.2822" offset="71.03%"></stop>
            <stop stop-color="#EFF0F3" stop-opacity="0.09924197" offset="89.12%"></stop>
            <stop stop-color="#FFFFFF" stop-opacity="0" offset="98.94%"></stop>
        </linearGradient>
        <linearGradient x1="-0.000857142857%" y1="50.0104678%" x2="99.9922143%" y2="50.0104678%" id="linearGradient-3">
            <stop stop-color="#DCE0E6" offset="0%"></stop>
            <stop stop-color="#DFE3EB" offset="100%"></stop>
        </linearGradient>
        <linearGradient x1="99.9922143%" y1="49.9955882%" x2="-0.000857142857%" y2="49.9955882%" id="linearGradient-4">
            <stop stop-color="#B3BDC9" offset="0%"></stop>
            <stop stop-color="#D7DAE0" offset="100%"></stop>
        </linearGradient>
        <linearGradient x1="30.5852857%" y1="71.61156%" x2="63.6683571%" y2="22.6255995%" id="linearGradient-5">
            <stop stop-color="#C1C8D1" stop-opacity="0" offset="0%"></stop>
            <stop stop-color="#8F99AB" offset="100%"></stop>
        </linearGradient>
        <linearGradient x1="99.9931597%" y1="50.0135197%" x2="0.015123941%" y2="50.0135197%" id="linearGradient-6">
            <stop stop-color="#C1C8D1" offset="0%"></stop>
            <stop stop-color="#DFE3ED" offset="100%"></stop>
        </linearGradient>
        <linearGradient x1="99.9853214%" y1="50.0008608%" x2="-0.00778571429%" y2="50.0008608%" id="linearGradient-7">
            <stop stop-color="#CCD3DB" offset="0%"></stop>
            <stop stop-color="#D6DAE3" offset="100%"></stop>
        </linearGradient>
        <linearGradient x1="-0.00778571429%" y1="49.9955882%" x2="99.9853214%" y2="49.9955882%" id="linearGradient-8">
            <stop stop-color="#DCE0E6" offset="0%"></stop>
            <stop stop-color="#D3D8E3" offset="100%"></stop>
        </linearGradient>
        <linearGradient x1="71.1327143%" y1="68.4618066%" x2="38.9851071%" y2="26.3397965%" id="linearGradient-9">
            <stop stop-color="#C1C8D1" stop-opacity="0" offset="0%"></stop>
            <stop stop-color="#C7CBD1" offset="100%"></stop>
        </linearGradient>
        <linearGradient x1="-0.00684243566%" y1="50.0135197%" x2="100.002542%" y2="50.0135197%" id="linearGradient-10">
            <stop stop-color="#E1E9F2" offset="0%"></stop>
            <stop stop-color="#DFE3ED" offset="100%"></stop>
        </linearGradient>
        <linearGradient x1="-0.0131883228%" y1="50.082803%" x2="99.970269%" y2="50.082803%" id="linearGradient-11">
            <stop stop-color="#DDE3EB" offset="0%"></stop>
            <stop stop-color="#B3B9C9" offset="100%"></stop>
        </linearGradient>
        <linearGradient x1="74.9242794%" y1="72.6718113%" x2="28.9797487%" y2="16.9949035%" id="linearGradient-12">
            <stop stop-color="#DDE3EB" offset="0%"></stop>
            <stop stop-color="#B3B9C9" offset="100%"></stop>
        </linearGradient>
        <linearGradient x1="57.2692265%" y1="87.831443%" x2="40.0514979%" y2="6.82950012%" id="linearGradient-13">
            <stop stop-color="#DDE3EB" offset="0%"></stop>
            <stop stop-color="#B3B9C9" offset="100%"></stop>
        </linearGradient>
    </defs>
    <g id="页面-1" stroke="none" stroke-width="1" fill="none" fill-rule="evenodd">
        <g id="空备份" fill-rule="nonzero">
            <g id="编组" transform="translate(8.000000, 123.000000)">
                <ellipse id="椭圆形" fill="url(#linearGradient-1)" cx="96.4594963" cy="44.0031915" rx="96.378489" ry="31.8957447"></ellipse>
                <g transform="translate(13.973767, 0.000000)" id="路径">
                    <path d="M17.6190976,14.4925532 C17.6190976,19.3234043 13.7104932,23.2244681 8.8703043,23.2244681 C4.03011542,23.2244681 0.121511018,19.3234043 0.121511018,14.4925532 C0.121511018,9.66170213 4.03011542,0 8.8703043,0 C13.7104932,0 17.6190976,9.66170213 17.6190976,14.4925532 Z" fill="#E6EAF0"></path>
                    <path d="M12.8599161,13.3 C12.5763903,13.1585106 12.252361,13.2797872 12.1105981,13.562766 L9.41710388,19 L9.41710388,8.73191489 C9.41710388,8.4287234 9.17408185,8.16595745 8.85005247,8.16595745 C8.54627492,8.16595745 8.28300105,8.40851064 8.28300105,8.73191489 L8.28300105,13.987234 L5.42749213,11.1170213 C5.20472193,10.8946809 4.86044071,10.8946809 4.63767051,11.1170213 C4.41490031,11.3393617 4.41490031,11.6829787 4.63767051,11.9053191 L8.10073452,15.3617021 C8.16149003,15.4223404 8.22224554,15.4223404 8.30325289,15.4425532 L8.30325289,30.6425532 C8.30325289,30.9457447 8.54627492,31.2085106 8.8703043,31.2085106 C9.17408185,31.2085106 9.43735572,30.9659574 9.43735572,30.6425532 L9.43735572,21.506383 L13.1231899,14.0478723 C13.2447009,13.7648936 13.1434418,13.4414894 12.8599161,13.3 Z" fill="#D0D6E0"></path>
                </g>
                <g transform="translate(156.749213, 3.638298)" id="路径">
                    <path d="M14.3788038,11.9053191 C14.3788038,15.8468085 11.1790136,19.0404255 7.22990556,19.0404255 C3.28079748,19.0404255 0.0810073452,15.8468085 0.0810073452,11.9053191 C0.0810073452,7.96382979 3.28079748,0.0606382979 7.22990556,0.0606382979 C11.1790136,0.0808510638 14.3788038,7.96382979 14.3788038,11.9053191 Z" fill="#E6EAF0"></path>
                    <path d="M10.4904512,10.9351064 C10.267681,10.8340426 9.9841553,10.9148936 9.88289612,11.137234 L7.6956978,15.5840426 L7.6956978,7.19574468 C7.6956978,6.95319149 7.49317943,6.73085106 7.22990556,6.73085106 C6.98688353,6.73085106 6.76411333,6.93297872 6.76411333,7.19574468 L6.76411333,11.5010638 L4.41490031,9.15638298 C4.23263379,8.97446809 3.94910808,8.97446809 3.76684155,9.15638298 C3.58457503,9.33829787 3.58457503,9.6212766 3.76684155,9.80319149 L6.60209864,12.6329787 C6.64260231,12.6734043 6.70335782,12.6734043 6.76411333,12.693617 L6.76411333,25.1042553 C6.76411333,25.3468085 6.96663169,25.5691489 7.22990556,25.5691489 C7.4729276,25.5691489 7.6956978,25.3670213 7.6956978,25.1042553 L7.6956978,17.6457447 L10.7132214,11.5414894 C10.8144806,11.3393617 10.7334732,11.056383 10.4904512,10.9351064 Z" fill="#D0D6E0"></path>
                </g>
                <g transform="translate(169.912907, 24.053191)" id="路径">
                    <path d="M10.6929696,8.91382979 C10.6929696,11.8446809 8.30325289,14.2297872 5.36673662,14.2297872 C2.43022036,14.2297872 0.0405036726,11.8446809 0.0405036726,8.91382979 C0.0405036726,5.98297872 2.43022036,0.0808510638 5.36673662,0.0808510638 C8.30325289,0.0808510638 10.6929696,5.96276596 10.6929696,8.91382979 Z" fill="#E6EAF0"></path>
                    <path d="M7.79695698,8.18617021 C7.63494229,8.10531915 7.43242392,8.16595745 7.33116474,8.34787234 L5.690766,11.662766 L5.690766,5.39680851 C5.690766,5.21489362 5.52875131,5.05319149 5.34648478,5.05319149 C5.16421826,5.05319149 5.00220357,5.21489362 5.00220357,5.39680851 L5.00220357,8.6106383 L3.24029381,6.85212766 C3.09853095,6.7106383 2.89601259,6.7106383 2.75424974,6.85212766 C2.61248688,6.99361702 2.61248688,7.19574468 2.75424974,7.33723404 L4.86044071,9.4393617 C4.90094439,9.47978723 4.94144806,9.47978723 4.98195173,9.47978723 L4.98195173,18.737234 C4.98195173,18.9191489 5.14396642,19.0808511 5.32623295,19.0808511 C5.50849948,19.0808511 5.67051417,18.9191489 5.67051417,18.737234 L5.67051417,13.1585106 L7.918468,8.6106383 C8.01972718,8.46914894 7.95897167,8.26702128 7.79695698,8.18617021 Z" fill="#D0D6E0"></path>
                </g>
            </g>
            <polygon id="路径" fill="url(#linearGradient-2)" points="104 172 30 153.638362 60.9232462 145"></polygon>
            <polygon id="路径" fill="url(#linearGradient-3)" points="104 71 48 87.6695322 48 153 104 133.655879"></polygon>
            <polygon id="路径" fill="url(#linearGradient-4)" points="48 89 104 105.172794 104 172 48 153.202941"></polygon>
            <polygon id="路径" fill="url(#linearGradient-5)" points="48 89 104 105.568326 98.6 135 48 116.433484"></polygon>
            <polygon id="路径" fill="url(#linearGradient-6)" points="46.8930028 90 104 106.346834 95.3727644 126 39 108.010268"></polygon>
            <polygon id="路径" fill="url(#linearGradient-7)" points="104 71 160 87.6906329 160 153 104 133.73519"></polygon>
            <polygon id="路径" fill="url(#linearGradient-8)" points="160 89 104 105.172794 104 172 160 153.202941"></polygon>
            <polygon id="路径" fill="url(#linearGradient-9)" points="160 91 104 107.057637 111.9 133 160 116.377522"></polygon>
            <polygon id="路径" fill="url(#linearGradient-10)" points="161.124922 90 104 106.346834 112.609542 126 169 108.010268"></polygon>
            <path d="M127.905842,36.0164058 C123.410378,41.8649878 117.526913,46.5316263 111.084105,50.1997265 C104.10267,54.1735017 96.4790254,56.9245768 88.7517988,59.2069503 C84.2149018,60.5519203 79.6158554,61.7134854 75.0375255,62.8954288 C74.9753762,62.9158071 74.9960926,63.0176988 75.0582419,62.9973204 C83.3448119,60.8779737 91.6520983,58.7586269 99.627922,55.6814984 C106.65079,52.97118 113.425061,49.4864848 119.329242,44.7994679 C122.561004,42.2317978 125.502737,39.3380743 127.988708,36.0775408 C128.030141,36.0164058 127.947275,35.9756491 127.905842,36.0164058 L127.905842,36.0164058 Z" id="路径" fill="#D3DBEB"></path>
            <path d="M128.916967,45.0118192 C124.621555,50.233569 119.87828,55.0059059 114.7075,59.264628 C113.180694,60.5272643 111.633532,61.7256986 110.025297,62.9027324 C109.964225,62.9455336 110.025297,63.0311361 110.086369,62.9883348 C115.521796,59.0078207 120.570432,54.4708905 125.171205,49.4631469 C126.474079,48.0293058 127.736238,46.574064 128.97804,45.0760211 C129.039112,45.0546205 128.957682,44.969018 128.916967,45.0118192 L128.916967,45.0118192 Z" id="路径" fill="#D3DBEB"></path>
            <path d="M144,75.5468192 C144,75.5468192 151.232971,77.293026 155.395535,73.9299611 C159.5581,70.5668961 158.836863,68.3464109 158.960504,66.1043676 C158.960504,66.1043676 162.278191,65.4791825 163.947338,66.4708555 C163.947338,66.6002041 164.421294,65.2204852 162.525472,65.1126946 C160.629651,65.0049041 155.931311,64.7462068 154.241557,66.6002041 C152.551803,68.4542015 151.727533,73.1754273 149.46079,73.8006124 C149.337149,74.0593097 151.006297,71.0627326 151.706926,68.7128988 C152.407556,66.363065 154.076703,64.2503703 157.518031,64.3581608 C157.518031,64.3581608 156.44648,63 154.674299,63 C152.902118,63 150.635375,63.7545338 149.46079,65.975019 C148.286205,68.1955042 147.668002,75.9348652 144,75.5468192 Z" id="路径" fill="url(#linearGradient-11)"></path>
            <path d="M139.998853,62 C139.998853,62 136.111365,60.5145798 135.051141,57.322035 C133.990917,54.1294902 134.920938,53.1539904 135.46035,51.9124452 C135.46035,51.9124452 134.046718,50.4713659 133.005094,50.4491955 C132.967893,50.5157068 133.116697,49.6288888 134.046718,50.1831501 C134.976739,50.7595818 137.264591,52.1784906 137.562198,53.7525926 C137.859804,55.3266945 136.985585,58.1423417 137.897005,59.2286937 C137.878405,59.4060573 137.897005,57.2333532 138.194612,55.7257626 C138.492219,54.218172 138.269014,52.5332178 136.613576,51.4468658 C136.613576,51.4468658 137.487796,51.0699681 138.324815,51.6685703 C139.161834,52.2671724 140.036054,53.4200358 139.998853,55.0163082 C139.943052,56.6125806 138.157411,60.9579888 139.998853,62 Z" id="路径" fill="url(#linearGradient-12)" opacity="0.8"></path>
            <path d="M143.517573,51 C143.517573,51 141.697965,48.6641448 142.043691,46.563838 C142.389416,44.4635311 143.244632,44.3064989 143.954279,43.855031 C143.954279,43.855031 143.572161,42.5398857 142.97169,42.1080469 C142.935298,42.1276759 143.281024,41.7154662 143.663141,42.3828534 C144.045259,43.0502406 144.936867,44.7187086 144.627533,45.6609023 C144.3182,46.603096 142.935298,47.7612091 143.135455,48.7034028 C143.080867,48.781919 143.754122,47.6434349 144.390984,46.9564187 C145.027847,46.2694024 145.428161,45.2879506 144.773102,44.0513214 C144.773102,44.0513214 145.391769,44.1887246 145.719298,44.8364828 C146.028631,45.484241 146.1742,46.4460637 145.66471,47.2704832 C145.137023,48.1145318 142.753338,49.7241127 143.517573,51 Z" id="路径" fill="url(#linearGradient-13)" opacity="0.8"></path>
        </g>
    </g>
</svg>