<svg width="367" height="367" viewBox="0 0 367 367" fill="none" xmlns="http://www.w3.org/2000/svg">
<circle cx="183.5" cy="183.5" r="178.5" fill="white" stroke="#D60000" stroke-width="10"/>
<circle cx="183.5" cy="183.5" r="173.5" fill="white"/>
<path d="M131.648 225.432V284.056H136V225.432H131.648ZM122.56 246.744V251.288H143.168V246.744H122.56ZM131.392 249.112C129.664 256.536 125.632 266.264 121.856 271.256C122.688 272.6 123.904 274.712 124.416 276.184C128.448 270.296 132.416 259.032 134.4 250.456L131.392 249.112ZM135.872 252.504L133.504 254.36C135.296 257.112 139.776 265.048 141.12 268.376L144.32 264.664C143.104 262.616 137.472 254.36 135.872 252.504ZM123.264 230.232C124.928 234.648 126.4 240.536 126.784 244.312L130.304 243.416C129.856 239.64 128.384 233.88 126.528 229.4L123.264 230.232ZM140.992 229.144C140.096 233.496 138.304 239.768 136.896 243.544L139.84 244.504C141.504 240.92 143.424 234.904 145.024 230.168L140.992 229.144ZM147.2 230.488V234.136H179.776V230.488H147.2ZM148.8 238.104V241.624H178.368V238.104H148.8ZM145.408 245.976V249.688H181.376V245.976H145.408ZM160.64 225.304V248.024H165.248V225.304H160.64ZM149.44 253.592V284.056H153.984V257.24H174.08V253.592H149.44ZM172.608 253.592V279.192C172.608 279.896 172.416 280.152 171.584 280.152C170.752 280.152 168.128 280.152 165.248 280.088C165.824 281.24 166.4 282.904 166.656 284.056C170.624 284.056 173.312 284.056 174.976 283.416C176.704 282.712 177.152 281.496 177.152 279.192V253.592H172.608ZM151.872 261.976V265.432H174.464V261.976H151.872ZM151.872 270.232V273.688H174.464V270.232H151.872Z" fill="#D60000"/>
<path d="M238.72 229.528C231.616 234.52 218.624 239.128 206.848 242.136C207.488 243.16 208.32 244.824 208.576 245.912C220.608 242.84 233.856 238.552 242.368 233.24L238.72 229.528ZM217.856 226.136V248.984C217.856 254.232 219.52 255.64 225.728 255.64C227.008 255.64 235.584 255.64 236.992 255.64C242.176 255.64 243.584 253.592 244.096 246.168C242.88 245.848 240.96 245.144 239.808 244.312C239.552 250.328 239.104 251.416 236.672 251.416C234.816 251.416 227.584 251.416 226.176 251.416C223.168 251.416 222.656 251.032 222.656 248.984V226.136H217.856ZM204.736 225.176C200.64 232.152 193.792 238.808 186.944 243.032C188.032 243.864 189.76 245.656 190.464 246.552C197.312 241.88 204.608 234.456 209.28 226.776L204.736 225.176ZM198.272 235.608V257.432H203.008V232.536L201.728 232.152L198.272 235.608ZM213.44 257.368V284.12H218.432V257.368H213.44ZM187.264 264.856V269.528H244.672V264.856H187.264Z" fill="#D60000"/>
<path d="M257.871 93.1479C255.373 90.6246 252.03 89.2347 248.459 89.2347C241.187 89.2347 235.272 95.083 235.272 102.27C235.272 104.286 235.748 106.264 236.659 108.064C228.935 112.74 221.213 117.399 213.533 122.032C207.947 111.993 202.367 101.951 196.794 91.9045L191.72 82.7792C194.857 80.3176 196.695 76.5946 196.695 72.5935C196.695 65.4066 190.779 59.5576 183.507 59.5576C176.236 59.5576 170.32 65.4064 170.32 72.5935C170.32 76.685 172.31 80.5646 175.586 83.0014C174.851 84.3236 174.119 85.6456 173.387 86.9672L170.64 91.9178C165.153 101.805 159.492 112.001 153.892 122.026C152.388 121.131 150.888 120.227 149.395 119.313L147.385 118.102C144.05 116.083 140.712 114.066 137.372 112.054C134.94 110.585 132.505 109.117 130.067 107.642C131.079 105.776 131.609 103.686 131.609 101.519C131.609 94.3317 125.694 88.4827 118.422 88.4827C111.15 88.4827 105.234 94.3317 105.234 101.519C105.234 107.772 109.756 113.125 115.887 114.311L131.32 166.536C131.465 167.024 131.595 167.496 131.721 167.953C132.508 170.803 133.321 173.751 136.448 173.776C146.404 173.813 156.855 173.826 167.465 173.826C178.252 173.826 189.204 173.813 199.974 173.8C210.387 173.787 220.631 173.776 230.389 173.776C234.286 173.776 234.974 170.878 235.582 168.322C235.716 167.753 235.858 167.152 236.04 166.534L251.249 115.002C257.211 113.709 261.608 108.381 261.608 102.278C261.628 98.8472 260.301 95.6044 257.871 93.1481V93.1479ZM183.507 67.4378C186.4 67.4378 188.755 69.751 188.755 72.5933C188.755 75.4362 186.4 77.7494 183.507 77.7494C180.615 77.7494 178.261 75.4363 178.261 72.5933C178.261 69.751 180.615 67.4378 183.507 67.4378ZM122.215 105.112C121.217 106.12 119.877 106.675 118.441 106.675C115.549 106.675 113.195 104.361 113.195 101.519C113.195 98.6765 115.549 96.3631 118.441 96.3631C121.334 96.3631 123.688 98.6763 123.688 101.525C123.695 102.872 123.172 104.144 122.215 105.112V105.112ZM237.05 135.215L232.802 149.623L229.147 163.468C229.008 163.951 229.004 164.773 229.071 166.8H138.501C139.012 165.558 139.151 164.908 138.978 164.327L126.396 121.686C125.855 119.828 125.295 117.961 124.742 116.116L123.926 113.391C123.996 113.36 124.065 113.328 124.134 113.296L143.288 124.868C143.954 125.267 144.617 125.67 145.277 126.078C147.182 127.237 149.162 128.435 151.124 129.595C152.795 130.581 154.371 130.906 156.184 130.449C157.304 130.155 158.884 129.367 160.04 127.282C165.93 116.702 171.935 105.911 177.726 95.4679C179.063 93.0695 180.395 90.6691 181.725 88.2668L183.168 85.6649C183.504 85.6748 183.844 85.668 184.206 85.6472L189.826 95.7553C195.537 106.017 201.241 116.283 206.938 126.553C207.839 128.16 209.057 129.881 211.27 130.468C211.725 130.588 212.194 130.648 212.665 130.647C214.345 130.647 215.842 129.876 216.957 129.204C221.301 126.582 225.643 123.958 229.983 121.331C234.106 118.837 238.227 116.344 242.352 113.854C242.637 114.001 242.928 114.138 243.223 114.265C241.168 121.249 239.111 128.233 237.05 135.215V135.215ZM248.459 107.426C245.566 107.426 243.212 105.113 243.212 102.27C243.212 99.4279 245.566 97.1153 248.459 97.1153C251.352 97.1153 253.706 99.4279 253.706 102.27C253.706 105.113 251.352 107.426 248.459 107.426ZM193.313 186.72H143.858C141.565 186.72 139.699 188.598 139.699 190.906C139.699 193.214 141.565 195.093 143.858 195.093H193.313C195.605 195.093 197.469 193.214 197.469 190.906C197.469 188.598 195.605 186.72 193.313 186.72ZM222.987 186.72H213.096C211.984 186.72 210.939 187.157 210.157 187.947C209.37 188.735 208.938 189.787 208.938 190.906C208.938 193.19 210.762 195.05 213.02 195.091H222.987C225.279 195.091 227.143 193.214 227.143 190.906C227.143 188.598 225.279 186.72 222.987 186.72V186.72Z" fill="#D60000"/>
</svg>
