<?xml version="1.0" encoding="UTF-8"?>
<svg width="20px" height="20px" viewBox="0 0 20 20" version="1.1" xmlns="http://www.w3.org/2000/svg" xmlns:xlink="http://www.w3.org/1999/xlink">
    <title>页面 1</title>
    <g id="页面-1" stroke="none" stroke-width="1" fill="none" fill-rule="evenodd">
        <g id="duigou备份" transform="translate(1.000000, 3.000000)" fill="#007DFF" fill-rule="nonzero">
            <path d="M6.35044347,14.5 C8.03352894,12.1068319 9.77493364,9.9824814 11.0689994,8.48705856 C11.8329688,7.60426799 12.550493,6.80132629 13.2372576,6.07899957 C13.8588013,5.42523786 14.4750433,4.82578872 15.0674274,4.26177122 C16.0771908,3.3002011 17.2576611,2.23503332 18,1.77884293 L17.0519439,0.5 C15.6774264,1.375002 14.3543265,2.30959938 13.3327361,3.02777645 C12.7374188,3.44634865 12.184986,3.84865741 11.6643638,4.23184584 C11.1486354,4.61147516 10.6161548,5.02840346 10.0547185,5.46574485 C9.07998111,6.22498752 7.82765484,7.24559441 6.61498188,8.30024442 L3.57206073,5.37600065 L0,8.24042559 L6.35044347,14.5 Z" id="路径"></path>
        </g>
        <rect id="矩形" stroke="#979797" fill="#D8D8D8" opacity="0" x="0.5" y="0.5" width="19" height="19"></rect>
    </g>
</svg>