<svg width="360" height="144" viewBox="0 0 360 144" fill="none" xmlns="http://www.w3.org/2000/svg">
<rect width="360" height="144" fill="white"/>
<path d="M29.576 49.836V52.464H34.688V53.76H29.576V56.748H36.218V58.008H21.494V56.748H28.154V53.76H23.024V52.464H28.154V49.836H23.492V48.774C23.156 48.978 22.808 49.182 22.448 49.386C22.1 49.59 21.734 49.794 21.35 49.998L20.63 48.702C21.566 48.258 22.412 47.802 23.168 47.334C23.936 46.866 24.626 46.386 25.238 45.894C25.862 45.402 26.42 44.892 26.912 44.364C27.404 43.824 27.842 43.26 28.226 42.672H29.486C30.266 43.872 31.298 44.982 32.582 46.002C33.878 47.01 35.39 47.928 37.118 48.756L36.398 49.98C36.038 49.776 35.672 49.572 35.3 49.368C34.94 49.152 34.58 48.924 34.22 48.684V49.836H29.576ZM28.856 44.004C28.256 44.832 27.548 45.618 26.732 46.362C25.928 47.094 24.98 47.814 23.888 48.522H33.968C32.948 47.85 31.988 47.136 31.088 46.38C30.188 45.612 29.444 44.82 28.856 44.004ZM43.6948 52.716V56.766C43.6948 57.03 43.6828 57.258 43.6588 57.45C43.6348 57.642 43.5748 57.804 43.4788 57.936C43.3948 58.068 43.2688 58.176 43.1008 58.26C42.9448 58.344 42.7228 58.404 42.4348 58.44L41.4448 58.584L40.9768 57.324L41.7868 57.234C41.9428 57.222 42.0628 57.198 42.1468 57.162C42.2308 57.138 42.2908 57.09 42.3268 57.018C42.3748 56.946 42.3988 56.85 42.3988 56.73C42.4108 56.598 42.4168 56.418 42.4168 56.19V52.716H39.0328V51.528H42.4168V49.548H38.7268V48.396H40.9408C40.8688 47.892 40.7848 47.376 40.6888 46.848C40.5928 46.308 40.5088 45.858 40.4368 45.498H39.1588V44.328H42.5788C42.5428 44.196 42.5008 44.046 42.4528 43.878C42.4048 43.698 42.3568 43.524 42.3088 43.356C42.2608 43.188 42.2128 43.038 42.1648 42.906C42.1288 42.762 42.0988 42.66 42.0748 42.6L43.2448 42.384C43.2568 42.42 43.2868 42.516 43.3348 42.672C43.3828 42.828 43.4368 43.008 43.4968 43.212C43.5568 43.416 43.6108 43.62 43.6588 43.824C43.7188 44.028 43.7668 44.196 43.8028 44.328H46.8087V45.498H45.5308C45.4948 45.702 45.4528 45.93 45.4048 46.182C45.3688 46.422 45.3268 46.674 45.2788 46.938C45.2308 47.19 45.1768 47.442 45.1168 47.694C45.0688 47.946 45.0208 48.18 44.9728 48.396H47.2588V49.548H43.6948V51.528H46.7368V52.716H43.6948ZM54.6928 49.836H52.6768V58.674H51.3988V49.836H49.1668V51.546C49.1668 52.11 49.1488 52.662 49.1128 53.202C49.0768 53.73 48.9928 54.282 48.8608 54.858C48.7288 55.434 48.5248 56.052 48.2488 56.712C47.9728 57.372 47.6008 58.104 47.1328 58.908L45.8728 58.314C46.3048 57.654 46.6528 57.054 46.9168 56.514C47.1928 55.962 47.4028 55.428 47.5468 54.912C47.6908 54.396 47.7868 53.868 47.8348 53.328C47.8948 52.788 47.9248 52.194 47.9248 51.546V44.364H48.0508C48.2428 44.352 48.5728 44.316 49.0408 44.256C49.5088 44.196 50.0188 44.118 50.5708 44.022C51.1348 43.914 51.6988 43.788 52.2628 43.644C52.8388 43.488 53.3248 43.32 53.7208 43.14L54.1168 44.328C53.7208 44.484 53.2828 44.628 52.8028 44.76C52.3348 44.892 51.8668 45.006 51.3988 45.102C50.9428 45.198 50.5108 45.282 50.1028 45.354C49.7068 45.414 49.3948 45.456 49.1668 45.48V48.594H54.6928V49.836ZM41.6248 45.498C41.6608 45.702 41.6968 45.93 41.7328 46.182C41.7808 46.434 41.8228 46.692 41.8588 46.956C41.9068 47.208 41.9488 47.466 41.9848 47.73C42.0208 47.982 42.0508 48.204 42.0748 48.396H43.8208C43.9288 47.976 44.0308 47.496 44.1268 46.956C44.2228 46.416 44.3008 45.93 44.3608 45.498H41.6248ZM45.8728 56.748C45.6208 56.184 45.3448 55.644 45.0448 55.128C44.7448 54.6 44.4688 54.162 44.2168 53.814L45.1528 53.256C45.2488 53.4 45.3688 53.586 45.5128 53.814C45.6688 54.03 45.8248 54.27 45.9808 54.534C46.1368 54.798 46.2868 55.062 46.4308 55.326C46.5748 55.59 46.7008 55.836 46.8087 56.064L45.8728 56.748ZM41.5348 53.724C41.4028 54.048 41.2468 54.396 41.0668 54.768C40.8868 55.128 40.6948 55.494 40.4908 55.866C40.2868 56.226 40.0768 56.574 39.8608 56.91C39.6568 57.234 39.4528 57.522 39.2488 57.774L38.1688 57.216C38.3728 56.964 38.5828 56.676 38.7988 56.352C39.0268 56.016 39.2428 55.674 39.4468 55.326C39.6628 54.978 39.8608 54.63 40.0408 54.282C40.2208 53.934 40.3768 53.616 40.5088 53.328L41.5348 53.724ZM60.2615 47.046C60.1055 46.794 59.9255 46.518 59.7215 46.218C59.5175 45.918 59.3015 45.618 59.0735 45.318C58.8455 45.006 58.6115 44.706 58.3715 44.418C58.1315 44.118 57.8975 43.854 57.6695 43.626L58.6595 42.816C58.8755 43.02 59.1035 43.26 59.3435 43.536C59.5955 43.8 59.8415 44.076 60.0815 44.364C60.3335 44.652 60.5675 44.94 60.7835 45.228C60.9995 45.516 61.1795 45.768 61.3235 45.984L60.2615 47.046ZM64.9235 45.75C64.9235 46.026 64.8875 46.32 64.8155 46.632C64.7555 46.944 64.6355 47.262 64.4555 47.586C64.2875 47.91 64.0535 48.234 63.7535 48.558C63.4535 48.882 63.0755 49.188 62.6195 49.476L61.6115 48.468C62.0195 48.204 62.3495 47.952 62.6015 47.712C62.8535 47.472 63.0455 47.226 63.1775 46.974C63.3215 46.722 63.4115 46.452 63.4475 46.164C63.4955 45.876 63.5195 45.552 63.5195 45.192V43.446H69.6395V46.416C69.6395 46.764 69.6935 46.998 69.8015 47.118C69.9215 47.238 70.1735 47.304 70.5575 47.316H72.1955L72.0335 48.576H70.1075C69.4235 48.576 68.9375 48.456 68.6495 48.216C68.3615 47.976 68.2175 47.58 68.2175 47.028V44.652H64.9235V45.75ZM62.9255 55.254L59.9375 57.576C59.8175 57.672 59.6855 57.774 59.5415 57.882C59.4095 58.002 59.2415 58.152 59.0375 58.332L58.1555 57.306C58.4075 57.054 58.5635 56.868 58.6235 56.748C58.6955 56.616 58.7315 56.442 58.7315 56.226V49.584H56.2835V48.324H60.0995V55.812C60.1115 55.8 60.2195 55.716 60.4235 55.56C60.6395 55.392 60.8795 55.206 61.1435 55.002C61.4075 54.786 61.6535 54.588 61.8815 54.408C62.1095 54.228 62.2535 54.114 62.3135 54.066L62.9255 55.254ZM71.7635 58.872C70.6715 58.464 69.7055 58.026 68.8655 57.558C68.0255 57.102 67.2815 56.61 66.6335 56.082C65.9615 56.61 65.1995 57.108 64.3475 57.576C63.5075 58.044 62.5415 58.47 61.4495 58.854L60.7295 57.63C61.7615 57.306 62.6795 56.946 63.4835 56.55C64.2875 56.154 65.0135 55.722 65.6615 55.254C65.0495 54.666 64.5215 54.06 64.0775 53.436C63.6335 52.812 63.2255 52.17 62.8535 51.51L63.8975 50.934H62.2955V49.674H70.6475L70.6295 50.934C70.3295 51.642 69.9395 52.356 69.4595 53.076C68.9915 53.796 68.3915 54.504 67.6595 55.2C68.2715 55.644 68.9675 56.064 69.7475 56.46C70.5275 56.844 71.4455 57.216 72.5015 57.576L71.7635 58.872ZM64.0235 50.934C64.3955 51.594 64.7855 52.212 65.1935 52.788C65.6135 53.352 66.1115 53.892 66.6875 54.408C67.2275 53.904 67.7015 53.364 68.1095 52.788C68.5295 52.212 68.9075 51.594 69.2435 50.934H64.0235ZM78.1963 46.776C78.0403 46.512 77.8543 46.236 77.6383 45.948C77.4343 45.648 77.2123 45.348 76.9723 45.048C76.7443 44.748 76.5103 44.46 76.2703 44.184C76.0303 43.896 75.8023 43.632 75.5863 43.392L76.5403 42.582C76.7563 42.786 76.9903 43.032 77.2423 43.32C77.4943 43.596 77.7403 43.884 77.9803 44.184C78.2323 44.484 78.4663 44.778 78.6823 45.066C78.8983 45.354 79.0783 45.612 79.2223 45.84L78.1963 46.776ZM90.0763 49.944H85.3243V58.71H83.9203V49.944H79.4923V48.576H83.9203V42.69L85.3243 42.744V48.576H90.0763V49.944ZM77.9983 55.704C78.0823 55.644 78.2083 55.554 78.3763 55.434C78.5443 55.314 78.7303 55.176 78.9343 55.02C79.1503 54.864 79.3723 54.702 79.6003 54.534C79.8283 54.366 80.0443 54.21 80.2483 54.066C80.4523 53.91 80.6323 53.772 80.7883 53.652C80.9563 53.52 81.0823 53.424 81.1663 53.364L81.6523 54.696C81.5083 54.804 81.2563 54.984 80.8963 55.236C80.5363 55.488 80.1583 55.758 79.7623 56.046C79.3663 56.322 78.9943 56.586 78.6463 56.838C78.2983 57.09 78.0583 57.264 77.9263 57.36C77.7583 57.48 77.5783 57.618 77.3863 57.774C77.1943 57.942 77.0263 58.104 76.8823 58.26L76.0183 57.252C76.2583 57.048 76.4143 56.874 76.4863 56.73C76.5583 56.586 76.5943 56.4 76.5943 56.172V49.494H74.0743V48.144H77.9983V55.704ZM106.895 45.354C106.871 46.83 106.841 48.252 106.805 49.62C106.793 50.208 106.775 50.808 106.751 51.42C106.739 52.032 106.721 52.632 106.697 53.22C106.685 53.808 106.667 54.36 106.643 54.876C106.631 55.392 106.613 55.848 106.589 56.244C106.565 56.628 106.517 56.946 106.445 57.198C106.373 57.45 106.253 57.654 106.085 57.81C105.929 57.978 105.719 58.098 105.455 58.17C105.203 58.254 104.879 58.314 104.483 58.35L102.935 58.476L102.503 57.108L104.249 57C104.549 56.976 104.777 56.892 104.933 56.748C105.089 56.604 105.185 56.298 105.221 55.83C105.257 55.194 105.287 54.462 105.311 53.634C105.347 52.794 105.377 51.948 105.401 51.096C105.425 50.232 105.443 49.41 105.455 48.63C105.467 47.838 105.479 47.172 105.491 46.632L101.387 46.65C101.219 47.046 101.045 47.436 100.865 47.82C100.685 48.204 100.493 48.588 100.289 48.972L99.065 48.324C99.593 47.436 100.067 46.452 100.487 45.372C100.919 44.28 101.267 43.206 101.531 42.15L102.845 42.42C102.701 42.924 102.551 43.422 102.395 43.914C102.239 44.394 102.071 44.874 101.891 45.354H106.895ZM96.851 42.618C96.755 43.014 96.641 43.452 96.509 43.932C96.377 44.4 96.221 44.886 96.041 45.39H98.831V58.062H92.693V45.39H94.547C94.727 44.91 94.883 44.412 95.015 43.896C95.147 43.38 95.273 42.852 95.393 42.312L96.851 42.618ZM97.571 46.686H93.953V50.952H97.571V46.686ZM102.899 53.796C102.479 52.932 102.041 52.134 101.585 51.402C101.141 50.658 100.745 50.034 100.397 49.53L101.459 48.81C101.867 49.35 102.299 49.992 102.755 50.736C103.223 51.468 103.655 52.23 104.051 53.022L102.899 53.796ZM97.571 56.802V52.266H93.953V56.802H97.571ZM125.442 48.468V49.494H113.634V48.468H118.656V47.334H114.786V46.344H118.656V45.228H114.318V44.202H118.656V42.618L119.916 42.654V44.202H124.632V45.228H119.916V46.344H124.218V47.334H119.916V48.468H125.442ZM113.166 46.758C112.998 46.554 112.782 46.332 112.518 46.092C112.266 45.84 112.002 45.6 111.726 45.372C111.45 45.144 111.18 44.934 110.916 44.742C110.652 44.538 110.43 44.376 110.25 44.256L110.952 43.284C111.144 43.404 111.372 43.566 111.636 43.77C111.912 43.962 112.188 44.166 112.464 44.382C112.752 44.598 113.022 44.814 113.274 45.03C113.526 45.246 113.736 45.438 113.904 45.606L113.166 46.758ZM110.052 47.19C110.256 47.322 110.502 47.49 110.79 47.694C111.09 47.898 111.39 48.114 111.69 48.342C112.002 48.57 112.302 48.798 112.59 49.026C112.878 49.254 113.118 49.452 113.31 49.62L112.5 50.88C112.308 50.664 112.068 50.43 111.78 50.178C111.504 49.926 111.216 49.68 110.916 49.44C110.616 49.188 110.322 48.96 110.034 48.756C109.758 48.552 109.524 48.384 109.332 48.252L110.052 47.19ZM114.984 50.682H123.66V56.82C123.66 57.144 123.63 57.408 123.57 57.612C123.522 57.828 123.42 58.002 123.264 58.134C123.12 58.266 122.91 58.362 122.634 58.422C122.37 58.494 122.022 58.548 121.59 58.584L120.69 58.656L120.294 57.612L121.374 57.522C121.638 57.498 121.842 57.468 121.986 57.432C122.13 57.396 122.238 57.342 122.31 57.27C122.382 57.21 122.424 57.126 122.436 57.018C122.448 56.91 122.454 56.772 122.454 56.604V55.938H116.19V58.584H114.984V50.682ZM116.19 51.726V52.77H122.454V51.726H116.19ZM112.644 52.212L113.256 52.41C113.172 52.806 113.052 53.28 112.896 53.832C112.752 54.384 112.596 54.954 112.428 55.542C112.26 56.118 112.08 56.682 111.888 57.234C111.708 57.786 111.54 58.248 111.384 58.62L110.07 58.206C110.238 57.846 110.418 57.396 110.61 56.856C110.814 56.316 111.006 55.758 111.186 55.182C111.366 54.594 111.528 54.018 111.672 53.454C111.828 52.89 111.942 52.404 112.014 51.996L112.644 52.212ZM122.454 54.912V53.778H116.19V54.912H122.454ZM138.013 50.07C138.697 51.234 139.483 52.296 140.371 53.256C141.271 54.204 142.303 55.098 143.467 55.938L142.423 57.072C141.559 56.364 140.791 55.668 140.119 54.984C139.447 54.288 138.847 53.58 138.319 52.86C137.803 52.128 137.347 51.378 136.951 50.61C136.555 49.83 136.201 48.996 135.889 48.108V56.28C135.889 56.688 135.847 57.018 135.763 57.27C135.691 57.534 135.553 57.744 135.349 57.9C135.157 58.056 134.893 58.17 134.557 58.242C134.221 58.326 133.795 58.386 133.279 58.422L132.163 58.512L131.713 57.18L133.081 57.072C133.405 57.048 133.663 57.012 133.855 56.964C134.047 56.916 134.191 56.85 134.287 56.766C134.383 56.67 134.443 56.544 134.467 56.388C134.503 56.22 134.521 56.004 134.521 55.74V42.564L135.889 42.618V44.994C136.309 46.434 136.801 47.736 137.365 48.9C137.689 48.66 138.025 48.384 138.373 48.072C138.733 47.748 139.081 47.424 139.417 47.1C139.753 46.764 140.065 46.434 140.353 46.11C140.641 45.774 140.887 45.468 141.091 45.192L142.099 46.236C141.883 46.5 141.607 46.8 141.271 47.136C140.947 47.472 140.599 47.82 140.227 48.18C139.855 48.528 139.471 48.87 139.075 49.206C138.691 49.53 138.337 49.818 138.013 50.07ZM133.279 47.928C132.967 49.596 132.361 51.186 131.461 52.698C130.573 54.21 129.409 55.71 127.969 57.198L126.835 56.28C128.191 54.96 129.307 53.628 130.183 52.284C131.059 50.928 131.671 49.488 132.019 47.964H127.771V46.632H133.279V47.928ZM146.443 42.978C146.659 43.098 146.911 43.254 147.199 43.446C147.487 43.638 147.781 43.842 148.081 44.058C148.381 44.274 148.663 44.49 148.927 44.706C149.203 44.922 149.431 45.114 149.611 45.282L148.891 46.524C148.711 46.332 148.483 46.116 148.207 45.876C147.943 45.636 147.661 45.402 147.361 45.174C147.061 44.946 146.767 44.736 146.479 44.544C146.191 44.352 145.939 44.196 145.723 44.076L146.443 42.978ZM160.951 45.12H159.187V56.1C159.187 56.556 159.145 56.928 159.061 57.216C158.989 57.504 158.857 57.732 158.665 57.9C158.473 58.08 158.209 58.206 157.873 58.278C157.549 58.362 157.135 58.428 156.631 58.476L155.263 58.602L154.813 57.27L156.289 57.162C156.613 57.138 156.877 57.102 157.081 57.054C157.297 57.018 157.459 56.952 157.567 56.856C157.687 56.76 157.765 56.628 157.801 56.46C157.849 56.28 157.873 56.034 157.873 55.722V45.12H150.079V43.824H160.951V45.12ZM145.561 46.92C145.789 47.052 146.053 47.22 146.353 47.424C146.665 47.628 146.977 47.844 147.289 48.072C147.601 48.288 147.901 48.51 148.189 48.738C148.477 48.966 148.717 49.176 148.909 49.368L148.135 50.646C147.931 50.418 147.685 50.178 147.397 49.926C147.121 49.674 146.827 49.428 146.515 49.188C146.215 48.948 145.915 48.726 145.615 48.522C145.315 48.306 145.051 48.126 144.823 47.982L145.561 46.92ZM155.749 54.462H150.529V47.532H155.749V54.462ZM154.561 48.774H151.735V53.238H154.561V48.774ZM148.297 52.212L148.783 52.41C148.699 52.83 148.567 53.328 148.387 53.904C148.219 54.468 148.033 55.044 147.829 55.632C147.625 56.22 147.409 56.784 147.181 57.324C146.965 57.876 146.767 58.338 146.587 58.71L145.309 58.134C145.489 57.786 145.687 57.342 145.903 56.802C146.131 56.262 146.347 55.704 146.551 55.128C146.767 54.54 146.959 53.964 147.127 53.4C147.307 52.824 147.445 52.332 147.541 51.924L148.297 52.212ZM178.634 54.39H174.62V58.8H173.324V54.39H169.742V53.094H173.324V50.556H170.246V49.278H173.324V42.456L174.62 42.492V49.278H177.95V50.556H174.62V53.094H178.634V54.39ZM178.13 44.04C178.046 44.316 177.932 44.646 177.788 45.03C177.644 45.414 177.488 45.804 177.32 46.2C177.152 46.584 176.978 46.956 176.798 47.316C176.618 47.676 176.456 47.976 176.312 48.216L175.286 47.784C175.418 47.556 175.568 47.262 175.736 46.902C175.904 46.542 176.066 46.17 176.222 45.786C176.39 45.402 176.54 45.024 176.672 44.652C176.816 44.28 176.93 43.956 177.014 43.68L178.13 44.04ZM171.65 48.27C171.554 47.97 171.428 47.628 171.272 47.244C171.128 46.86 170.972 46.476 170.804 46.092C170.648 45.696 170.486 45.33 170.318 44.994C170.162 44.646 170.03 44.364 169.922 44.148L170.948 43.716C171.068 43.932 171.206 44.214 171.362 44.562C171.53 44.898 171.692 45.258 171.848 45.642C172.016 46.014 172.172 46.386 172.316 46.758C172.472 47.118 172.598 47.43 172.694 47.694L171.65 48.27ZM163.46 44.022H169.328V56.964H163.46V44.022ZM164.576 45.318V49.908H165.854V45.318H164.576ZM168.23 45.318H166.934V49.908H168.23V45.318ZM164.576 55.686H165.854V51.186H164.576V55.686ZM168.23 55.686V51.186H166.934V55.686H168.23Z" fill="black"/>
<path d="M337.043 60.5764H343.763C344.773 60.5764 345.592 61.4008 345.592 62.4177C345.592 63.4346 344.773 64.2589 343.763 64.2589H337.043C336.032 64.2589 335.213 63.4346 335.213 62.4177C335.213 61.4008 336.032 60.5764 337.043 60.5764Z" fill="#B8E1FF"/>
<path fill-rule="evenodd" clip-rule="evenodd" d="M317.09 74.1733C316.157 74.1733 315.401 73.4124 315.401 72.4737C315.401 71.535 316.157 70.7741 317.09 70.7741H323.54C324.473 70.7741 325.229 70.0132 325.229 69.0745C325.229 68.1358 324.473 67.3749 323.54 67.3749H321.355C320.422 67.3749 319.666 66.6139 319.666 65.6753C319.666 64.7366 320.422 63.9756 321.355 63.9756H328.951C329.883 63.9756 330.639 63.2147 330.639 62.276C330.639 61.3374 329.883 60.5764 328.951 60.5764L302.119 60.5764C301.186 60.5764 300.43 61.3374 300.43 62.276C300.43 63.2147 301.186 63.9756 302.119 63.9756H310.617C311.549 63.9756 312.305 64.7366 312.305 65.6753C312.305 66.6139 311.549 67.3749 310.617 67.3749H302.119C301.186 67.3749 300.43 68.1358 300.43 69.0745C300.43 70.0132 301.186 70.7741 302.119 70.7741H308.616C309.549 70.7741 310.305 71.535 310.305 72.4737C310.305 73.4124 309.549 74.1733 308.616 74.1733H302.119C301.186 74.1733 300.43 74.9343 300.43 75.8729C300.43 76.8116 301.186 77.5726 302.119 77.5726H335.488C336.421 77.5726 337.177 76.8116 337.177 75.8729C337.177 74.9343 336.421 74.1733 335.488 74.1733H317.09Z" fill="#B8E1FF"/>
<path fill-rule="evenodd" clip-rule="evenodd" d="M214.895 67.2958H283.483C285.652 67.2958 287.41 69.0654 287.41 71.2484C287.41 71.4582 287.393 71.6676 287.36 71.8747L281.878 106.262C281.572 108.179 279.929 109.589 278 109.589H221.583C219.705 109.589 218.09 108.25 217.73 106.395L211.041 72.0077C210.625 69.8654 212.012 67.7888 214.141 67.3694C214.389 67.3205 214.642 67.2958 214.895 67.2958Z" fill="#FFA42C"/>
<path fill-rule="evenodd" clip-rule="evenodd" d="M287.812 62.7101C288.582 61.5352 294.974 56.5482 294.974 53.3417C294.974 51.204 292.227 52.8201 286.734 58.19C286.94 61.9867 287.299 63.4934 287.812 62.7101Z" fill="#FFC1C7"/>
<path d="M297.476 28.0064C296.282 29.722 294.131 30.2788 292.671 29.25C291.211 28.2212 290.996 25.9963 292.189 24.2807C293.383 22.5651 295.534 22.0083 296.994 23.0371C298.453 24.0659 298.669 26.2907 297.476 28.0064Z" fill="#FFC1C7"/>
<path fill-rule="evenodd" clip-rule="evenodd" d="M302.842 73.5945L301.159 106.438L291.785 103.907L294.135 74.2371L302.842 73.5945Z" fill="#FFC1C7"/>
<path fill-rule="evenodd" clip-rule="evenodd" d="M301.334 105.742C299.004 105.205 295.773 104.333 291.643 103.127L290.344 108.011L305.572 112.121C305.122 109.227 303.71 107.101 301.334 105.742Z" fill="#0092FF"/>
<path d="M301.485 105.173C298.248 104.331 295.011 103.488 291.773 102.646" stroke="#13161A"/>
<path d="M305.529 112.273C300.45 110.919 295.371 109.566 290.292 108.212" stroke="#13161A"/>
<path fill-rule="evenodd" clip-rule="evenodd" d="M303.523 69.7183L294.518 66.7377L290.038 96.82L307.899 94.7997L303.523 69.7183Z" fill="#0092FF"/>
<path fill-rule="evenodd" clip-rule="evenodd" d="M310.468 69.8293C318.356 76.1444 324.769 81.1901 329.708 84.9664C334.646 88.7427 331.975 90.7825 321.695 91.0858L300.055 69.8534L310.468 69.8293Z" fill="#FFC1C7"/>
<path d="M337.736 86.3679C333.431 89.4132 329.125 92.4585 324.82 95.5037" stroke="#13161A"/>
<path fill-rule="evenodd" clip-rule="evenodd" d="M329.906 85.3233C327.994 86.7727 325.249 88.7021 321.67 91.1117L324.5 95.1687L337.441 86.0726C334.976 84.6035 332.464 84.3537 329.906 85.3233Z" fill="#0092FF"/>
<path d="M329.647 84.9511C326.902 86.9165 324.158 88.8819 321.414 90.8473" stroke="#13161A"/>
<path fill-rule="evenodd" clip-rule="evenodd" d="M273.479 59.1223C275.39 61.6229 277.898 66.5629 281.003 73.9423L262.742 80.4486C260.587 76.2249 258.881 71.051 257.624 64.9269C255.738 55.7408 258.076 49.0685 261.657 49.4214C264.045 49.6567 265.829 49.7028 267.008 49.5596C269.412 53.4341 271.569 56.6217 273.479 59.1223Z" fill="#8ECFFF"/>
<path fill-rule="evenodd" clip-rule="evenodd" d="M295.931 75.0673L307.896 94.8139L305.54 82.658L295.931 75.0673Z" fill="black" fill-opacity="0.1"/>
<path fill-rule="evenodd" clip-rule="evenodd" d="M261.703 49.1856C261.708 49.2358 261.714 49.2863 261.723 49.3368C261.913 50.4181 262.935 51.1405 264.007 50.9503C265.078 50.7601 265.794 49.7293 265.604 48.6481C265.595 48.5975 265.585 48.5478 265.572 48.4989C265.57 48.4673 265.567 48.4355 265.561 48.4035L265.148 46.0448C265.073 45.6149 264.665 45.3278 264.238 45.4036L261.904 45.8178C261.477 45.8936 261.192 46.3036 261.267 46.7336L261.68 49.0922C261.686 49.1242 261.693 49.1553 261.703 49.1856Z" fill="#FFC1C7"/>
<path d="M265.488 49.9424C263.942 51.4281 262.936 50.8239 261.654 49.6892C261.61 49.65 261.565 49.6103 261.52 49.5699" stroke="#13161A"/>
<path d="M263.534 47.5247C259.632 48.2203 255.912 45.5978 255.227 41.6673C254.541 37.7367 257.149 33.9865 261.051 33.291C264.954 32.5954 268.674 35.2179 269.359 39.1485C270.045 43.079 267.437 46.8292 263.534 47.5247Z" fill="#2F2E41"/>
<path d="M264.676 47.5314C261.164 48.1574 257.816 45.7972 257.199 42.2597C256.582 38.7222 258.929 35.347 262.441 34.721C265.954 34.095 269.301 36.4552 269.918 39.9927C270.535 43.5302 268.188 46.9054 264.676 47.5314Z" fill="#FFC1C7"/>
<path opacity="0.1" d="M259.414 45.7501C262.55 47.9612 266.86 47.2988 269.205 44.2452C267.791 46.4982 265.263 47.7867 262.625 47.5982C260.676 47.4588 258.901 46.5294 257.672 45.0724C257.238 44.5579 256.872 43.9778 256.591 43.3434C255.513 40.9122 255.85 38.0791 257.469 35.9708C255.422 39.2341 256.278 43.539 259.414 45.7501Z" fill="black"/>
<path d="M264.158 42.4093C264.034 42.2858 263.91 42.1435 263.792 41.9859C263.276 41.2955 263.072 40.5733 263.335 40.3729C263.599 40.1725 264.232 40.5697 264.748 41.2602C264.756 41.2708 264.764 41.2814 264.772 41.2921C266.571 39.9175 267.238 37.2433 266.633 35.3964C266.008 33.4891 262.776 33.631 261.229 33.3922C259.681 33.1534 259.438 35.1419 257.503 36.4717C255.569 37.8014 256.598 41.9884 257.221 43.3979C257.844 44.8073 258.638 45.5152 259.665 45.4143C260.537 45.3287 263.061 44.1588 264.158 42.4093Z" fill="#2F2E41"/>
<path fill-rule="evenodd" clip-rule="evenodd" d="M257.915 36.3682C254.717 31.2979 250.615 28.8832 245.61 29.124C238.103 29.4852 233.244 30.9441 229.485 35.3728C225.727 39.8015 227.761 47.4577 234.484 46.6668C241.207 45.8758 240.464 38.4478 246.131 38.8873C249.908 39.1803 253.4 38.51 256.605 36.8764L257.915 36.3682Z" fill="#2D2C3E"/>
<path fill-rule="evenodd" clip-rule="evenodd" d="M264.628 51.893L268.55 56.422L297.482 35.6271L291.762 23.4955L264.628 51.893Z" fill="#8ECFFF"/>
<path d="M267.389 51.0108L275.271 61.8333" stroke="#13161A"/>
<mask id="mask0_0_1" style="mask-type:alpha" maskUnits="userSpaceOnUse" x="262" y="60" width="60" height="30">
<path d="M262.426 80.4486C265.018 86.6077 268.106 89.6873 271.688 89.6873C275.271 89.6873 283.51 84.7831 296.407 74.9747L305.721 88.4008L321.126 76.834L301.243 60.3649L262.426 80.4486Z" fill="white"/>
</mask>
<g mask="url(#mask0_0_1)">
<path d="M262.426 80.4486C265.018 86.6077 268.106 89.6873 271.688 89.6873C275.271 89.6873 283.51 84.7831 296.407 74.9747L305.721 88.4008L321.126 76.834L301.243 60.3649L262.426 80.4486Z" fill="#0092FF"/>
<path d="M301.191 65.6692C299.311 65.6692 297.787 64.1318 297.787 62.2353C297.787 60.3388 299.311 58.8014 301.191 58.8014C303.07 58.8014 304.594 60.3388 304.594 62.2353C304.594 64.1318 303.07 65.6692 301.191 65.6692Z" fill="#FFC82C"/>
</g>
<path fill-rule="evenodd" clip-rule="evenodd" d="M263.216 54.0618L269.966 68.8818L287.809 54.7847L293.899 67.2552L264.628 78.6413L260.224 56.9535L263.216 54.0618Z" fill="#8ECFFF"/>
<path d="M264.072 55.1462L269.966 68.5203L275.629 64.725" stroke="#13161A"/>
<path d="M306.079 87.9197L296.407 74.9747" stroke="#13161A"/>
<path fill-rule="evenodd" clip-rule="evenodd" d="M293.105 23.5174L294.396 24.4439C297.362 20.881 298.409 19.0918 297.538 19.0765C296.667 19.0612 295.19 20.5415 293.105 23.5174Z" fill="#FFC1C7"/>
<path d="M291.776 23.3374L295.452 31.1185" stroke="#13161A"/>
<path fill-rule="evenodd" clip-rule="evenodd" d="M295.229 51.8914L291.912 49.9281L285.577 54.4807L288.729 56.3231L295.229 51.8914Z" fill="#13161A"/>
<path fill-rule="evenodd" clip-rule="evenodd" d="M294.523 51.7889L291.403 49.9231L285.426 54.276L288.392 56.0268L294.523 51.7889Z" fill="white" stroke="#13161A"/>
<path d="M291.776 62.9111L287.809 55.1462" stroke="#13161A"/>
<path d="M238.398 52.8966L222.082 59.5444L231.597 83.2948L247.914 76.647L238.398 52.8966Z" fill="#0092FF"/>
<path d="M240.137 54.109L224.003 60.6826L233.445 84.2501L249.579 77.6765L240.137 54.109Z" stroke="#13161A" stroke-width="0.5"/>
<path d="M251.76 51.4213L228.142 61.0499L239.91 90.4415L263.528 80.8128L251.76 51.4213Z" fill="white" stroke="#313B40"/>
<path d="M246.07 57.7702L231.165 63.8351L231.531 64.7472L246.436 58.6823L246.07 57.7702Z" fill="#313B40"/>
<path d="M248.646 64.189L233.742 70.2539L234.108 71.1661L249.012 65.1012L248.646 64.189Z" fill="#313B40"/>
<path d="M251.422 59.3268L232.453 67.0446L232.819 67.9566L251.788 60.2389L251.422 59.3268Z" fill="#313B40"/>
<path d="M209.106 62.5459C215.768 65.4631 219.099 71.4938 219.099 80.6382" stroke="#13161A" stroke-width="2"/>
<path d="M206.887 64.7747C208.566 64.7452 209.904 63.3414 209.874 61.6391C209.844 59.9369 208.459 58.5809 206.78 58.6104C205.1 58.6399 203.763 60.0438 203.792 61.746C203.822 63.4482 205.207 64.8042 206.887 64.7747Z" fill="#FF3B30"/>
<path d="M206.171 65.1373C207.85 65.1078 209.188 63.704 209.158 62.0018C209.129 60.2996 207.744 58.9436 206.064 58.9731C204.385 59.0026 203.047 60.4064 203.077 62.1086C203.106 63.8108 204.492 65.1669 206.171 65.1373Z" stroke="#313B40" stroke-width="0.5"/>
<path d="M213.642 53.4211C218.456 57.9369 219.869 66.0475 217.882 77.7529" stroke="#13161A" stroke-width="2"/>
<path d="M210.515 53.5818C211.783 54.6913 213.711 54.5495 214.82 53.2651C215.929 51.9806 215.801 50.0399 214.533 48.9303C213.265 47.8208 211.337 47.9626 210.228 49.2471C209.119 50.5316 209.247 52.4723 210.515 53.5818Z" fill="#FF3B30"/>
<path d="M209.742 53.3694C211.011 54.4789 212.938 54.3371 214.047 53.0526C215.156 51.7681 215.028 49.8274 213.76 48.7179C212.492 47.6084 210.564 47.7502 209.455 49.0347C208.346 50.3191 208.474 52.2598 209.742 53.3694Z" stroke="#313B40" stroke-width="0.5"/>
<path d="M217.833 77.9836C218.68 78.2604 220.287 75.6298 221.424 72.1081C222.561 68.5864 222.797 65.5072 221.95 65.2304C221.104 64.9536 219.496 67.5841 218.359 71.1058C217.222 74.6275 216.987 77.7068 217.833 77.9836Z" fill="#13CE66"/>
<path d="M222.237 77.4346C222.834 76.7668 221.109 74.2233 218.384 71.7535C215.659 69.2837 212.965 67.8228 212.368 68.4906C211.77 69.1584 213.495 71.7019 216.221 74.1717C218.946 76.6415 221.639 78.1024 222.237 77.4346Z" fill="#13CE66"/>
<path fill-rule="evenodd" clip-rule="evenodd" d="M210.636 72.5123C213.49 72.4081 220.301 72.4081 231.069 72.5123L236.483 78.67C268.046 78.4762 285.013 78.4762 287.385 78.67C290.943 78.9608 292.883 80.6558 291.951 84.0336C291.33 86.2855 288.636 99.0199 283.868 122.237H213.361C209.056 94.0172 206.721 79.0857 206.356 77.4424C205.808 74.9773 206.356 72.6686 210.636 72.5123Z" fill="#FFC82C"/>
<rect x="17" y="81" width="79" height="26" rx="13" fill="#0092FF"/>
<path d="M37.464 97.952C37.68 97.936 37.852 97.916 37.98 97.892C38.116 97.868 38.22 97.828 38.292 97.772C38.364 97.716 38.412 97.636 38.436 97.532C38.468 97.42 38.484 97.272 38.484 97.088V92.468C39.1 92.108 39.676 91.728 40.212 91.328C40.748 90.928 41.296 90.512 41.856 90.08H34.08V89.18H43.452V90.08C42.772 90.608 42.108 91.112 41.46 91.592C40.82 92.064 40.156 92.516 39.468 92.948V97.448C39.468 97.728 39.44 97.956 39.384 98.132C39.336 98.308 39.248 98.444 39.12 98.54C38.992 98.644 38.82 98.72 38.604 98.768C38.388 98.816 38.112 98.856 37.776 98.888L36.816 98.972L36.504 98.024L37.464 97.952ZM50.0445 90.068C49.7885 90.516 49.5045 90.956 49.1925 91.388H50.4285V98.048C50.4285 98.232 50.4125 98.38 50.3805 98.492C50.3485 98.604 50.2925 98.692 50.2125 98.756C50.1405 98.82 50.0365 98.868 49.9005 98.9C49.7645 98.94 49.5965 98.972 49.3965 98.996L49.0245 99.044L48.7965 98.312L49.2045 98.264C49.3165 98.256 49.4045 98.24 49.4685 98.216C49.5325 98.2 49.5805 98.176 49.6125 98.144C49.6445 98.112 49.6645 98.068 49.6725 98.012C49.6805 97.956 49.6845 97.884 49.6845 97.796V96.296H48.6645V98.516H47.9205V96.296H46.8765C46.8525 96.608 46.8165 96.892 46.7685 97.148C46.7205 97.404 46.6605 97.648 46.5885 97.88C46.5245 98.104 46.4445 98.324 46.3485 98.54C46.2605 98.764 46.1565 98.992 46.0365 99.224L45.2805 98.876C45.4565 98.524 45.6045 98.204 45.7245 97.916C45.8445 97.628 45.9365 97.32 46.0005 96.992C46.0645 96.664 46.1085 96.296 46.1325 95.888C46.1645 95.48 46.1805 94.98 46.1805 94.388V91.748L45.6765 92.288L45.1005 91.724C45.5965 91.244 46.0525 90.712 46.4685 90.128C46.8925 89.544 47.2445 88.928 47.5245 88.28L48.3405 88.472C48.2685 88.632 48.1925 88.792 48.1125 88.952C48.0405 89.104 47.9645 89.252 47.8845 89.396H50.0445V90.068ZM50.5365 92.3C50.8085 92.1 51.0285 91.92 51.1965 91.76C51.3725 91.592 51.5165 91.428 51.6285 91.268C51.7405 91.1 51.8285 90.928 51.8925 90.752C51.9565 90.568 52.0125 90.364 52.0605 90.14C52.0765 90.092 52.0885 90.036 52.0965 89.972C52.1045 89.908 52.1165 89.84 52.1325 89.768H50.8485V89.036H55.4805C55.4565 89.388 55.4325 89.708 55.4085 89.996C55.3925 90.244 55.3765 90.484 55.3605 90.716C55.3445 90.94 55.3325 91.08 55.3245 91.136C55.3085 91.368 55.2765 91.56 55.2285 91.712C55.1805 91.856 55.1005 91.972 54.9885 92.06C54.8845 92.148 54.7405 92.216 54.5565 92.264C54.3805 92.312 54.1525 92.348 53.8725 92.372L53.4645 92.408L53.2005 91.652L53.7405 91.604C53.9085 91.588 54.0405 91.568 54.1365 91.544C54.2405 91.52 54.3165 91.484 54.3645 91.436C54.4205 91.38 54.4565 91.312 54.4725 91.232C54.4885 91.144 54.5045 91.032 54.5205 90.896C54.5285 90.84 54.5365 90.76 54.5445 90.656C54.5605 90.544 54.5725 90.432 54.5805 90.32C54.5965 90.208 54.6085 90.1 54.6165 89.996C54.6245 89.892 54.6285 89.816 54.6285 89.768H52.9365C52.9205 89.88 52.9045 89.988 52.8885 90.092C52.8725 90.196 52.8565 90.292 52.8405 90.38C52.7925 90.636 52.7245 90.876 52.6365 91.1C52.5485 91.316 52.4325 91.524 52.2885 91.724C52.1445 91.916 51.9725 92.108 51.7725 92.3C51.5725 92.492 51.3365 92.692 51.0645 92.9L50.5365 92.3ZM47.4405 90.128C47.2885 90.352 47.1325 90.568 46.9725 90.776C46.8205 90.984 46.6605 91.188 46.4925 91.388H48.2805C48.4165 91.188 48.5485 90.984 48.6765 90.776C48.8125 90.56 48.9445 90.344 49.0725 90.128H47.4405ZM46.9245 92.144V93.464H47.9205V92.144H46.9245ZM49.6845 92.144H48.6645V93.464H49.6845V92.144ZM56.1045 96.86H53.9085V99.212H53.1165V96.86H50.7165V96.08H53.1165V94.628H51.8565C51.7765 94.852 51.6965 95.072 51.6165 95.288C51.5365 95.496 51.4525 95.692 51.3645 95.876L50.6565 95.612C50.7525 95.412 50.8445 95.196 50.9325 94.964C51.0285 94.724 51.1165 94.48 51.1965 94.232C51.2845 93.984 51.3605 93.74 51.4245 93.5C51.4885 93.252 51.5445 93.02 51.5925 92.804L52.3365 92.924C52.3045 93.076 52.2685 93.228 52.2285 93.38C52.1885 93.524 52.1485 93.676 52.1085 93.836H53.1165V92.636L53.9085 92.66V93.836H55.6965V94.628H53.9085V96.08H56.1045V96.86ZM47.9205 95.528V94.232H46.9245V94.724C46.9245 94.868 46.9245 95.008 46.9245 95.144C46.9245 95.272 46.9205 95.4 46.9125 95.528H47.9205ZM49.6845 95.528V94.232H48.6645V95.528H49.6845ZM67.689 98.924C66.953 98.868 66.289 98.804 65.697 98.732C65.105 98.668 64.569 98.588 64.089 98.492C63.609 98.404 63.177 98.3 62.793 98.18C62.409 98.06 62.049 97.92 61.713 97.76C61.289 98.088 60.741 98.372 60.069 98.612C59.405 98.86 58.573 99.1 57.573 99.332L57.213 98.528C58.101 98.32 58.837 98.12 59.421 97.928C60.013 97.736 60.501 97.52 60.885 97.28C60.573 97.072 60.269 96.84 59.973 96.584C59.677 96.32 59.361 96.02 59.025 95.684L59.505 95.252H58.581V90.824H62.145V89.756H57.693V88.952H67.473V89.756H63.057V90.824H66.585V95.252H63.009C62.969 95.636 62.893 95.984 62.781 96.296C62.677 96.6 62.529 96.88 62.337 97.136C62.657 97.272 63.005 97.392 63.381 97.496C63.757 97.592 64.169 97.676 64.617 97.748C65.073 97.82 65.569 97.88 66.105 97.928C66.649 97.968 67.249 97.996 67.905 98.012L67.689 98.924ZM59.469 91.556V92.636H62.145V91.556H59.469ZM63.057 91.556V92.636H65.709V91.556H63.057ZM59.469 94.484H62.145V94.268V93.368H59.469V94.484ZM65.709 94.484V93.368H63.057V94.292V94.484H65.709ZM59.709 95.252C59.997 95.556 60.285 95.832 60.573 96.08C60.869 96.32 61.185 96.536 61.521 96.728C61.681 96.528 61.805 96.308 61.893 96.068C61.989 95.828 62.057 95.556 62.097 95.252H59.709ZM79.1175 93.788V94.592C78.6375 95.136 78.1135 95.632 77.5455 96.08C76.9855 96.528 76.3295 96.944 75.5775 97.328C74.8335 97.704 73.9655 98.052 72.9735 98.372C71.9815 98.7 70.8215 99.012 69.4935 99.308L69.0495 98.516C70.3295 98.236 71.4375 97.952 72.3735 97.664C73.3175 97.376 74.1335 97.072 74.8215 96.752C75.5175 96.432 76.1095 96.096 76.5975 95.744C77.0855 95.384 77.5215 95 77.9055 94.592H73.8015C73.6815 94.688 73.5575 94.784 73.4295 94.88C73.3095 94.976 73.1815 95.068 73.0455 95.156C73.1815 95.228 73.3255 95.308 73.4775 95.396C73.6295 95.484 73.7775 95.576 73.9215 95.672C74.0655 95.76 74.2015 95.848 74.3295 95.936C74.4655 96.024 74.5775 96.1 74.6655 96.164L74.0895 96.92C73.9855 96.816 73.8575 96.708 73.7055 96.596C73.5615 96.476 73.4055 96.36 73.2375 96.248C73.0775 96.136 72.9135 96.028 72.7455 95.924C72.5855 95.812 72.4375 95.716 72.3015 95.636C71.6455 96.044 70.9015 96.448 70.0695 96.848L69.5655 96.14C70.6775 95.652 71.6695 95.108 72.5415 94.508C73.4135 93.9 74.1295 93.296 74.6895 92.696C73.9775 93 73.2095 93.284 72.3855 93.548C71.5615 93.804 70.6535 94.036 69.6615 94.244L69.2415 93.488C71.0815 93.12 72.6695 92.668 74.0055 92.132C75.3415 91.588 76.4775 90.948 77.4135 90.212H73.0815C72.9855 90.276 72.8895 90.344 72.7935 90.416C72.6975 90.488 72.5975 90.556 72.4935 90.62C72.6135 90.676 72.7415 90.74 72.8775 90.812C73.0135 90.884 73.1455 90.956 73.2735 91.028C73.4095 91.1 73.5335 91.172 73.6455 91.244C73.7655 91.316 73.8695 91.38 73.9575 91.436L73.4055 92.144C73.3095 92.056 73.1895 91.964 73.0455 91.868C72.9015 91.772 72.7495 91.676 72.5895 91.58C72.4375 91.484 72.2855 91.396 72.1335 91.316C71.9815 91.228 71.8455 91.156 71.7255 91.1C71.2055 91.404 70.6735 91.688 70.1295 91.952L69.6135 91.304C70.0855 91.088 70.5375 90.856 70.9695 90.608C71.4095 90.352 71.8175 90.092 72.1935 89.828C72.5775 89.556 72.9295 89.284 73.2495 89.012C73.5775 88.74 73.8615 88.472 74.1015 88.208L74.8815 88.592C74.7695 88.728 74.6415 88.868 74.4975 89.012C74.3615 89.156 74.2135 89.296 74.0535 89.432H78.7095V90.212C78.1975 90.668 77.6335 91.092 77.0175 91.484C76.4015 91.876 75.7135 92.244 74.9535 92.588L75.5415 92.912C75.4055 93.072 75.2695 93.224 75.1335 93.368C75.0055 93.512 74.8695 93.652 74.7255 93.788H79.1175Z" fill="white"/>
</svg>
