<?xml version="1.0" encoding="UTF-8"?>
<svg width="406px" height="812px" viewBox="0 0 406 812" version="1.1" xmlns="http://www.w3.org/2000/svg" xmlns:xlink="http://www.w3.org/1999/xlink" style="background: #FFFFFF;">
    <title>画板</title>
    <g id="页面-1" stroke="none" stroke-width="1" fill="none" fill-rule="evenodd">
        <g id="画板">
            <rect fill="#F6F6F6" x="0" y="0" width="406" height="812"></rect>
            <g id="编组-10备份" transform="translate(6.000000, 8.000000)">
                <rect id="矩形备份-6" fill="#FFFFFF" x="0" y="0" width="390" height="99" rx="7"></rect>
                <rect id="矩形" fill="#EBEBEB" x="14" y="11" width="46" height="19" rx="9.5"></rect>
                <rect id="矩形" fill="#F9F9F9" x="14" y="39" width="197" height="23" rx="7"></rect>
                <rect id="矩形" fill="#F9F9F9" x="14" y="72" width="159" height="16" rx="4"></rect>
                <rect id="矩形" fill="#F9F9F9" x="205" y="11" width="171" height="21" rx="5"></rect>
                <rect id="矩形" fill="#F4F4F4" x="305" y="39" width="70" height="23" rx="4"></rect>
                <rect id="矩形" fill="#F9F9F9" x="314" y="72" width="62" height="16" rx="8"></rect>
            </g>
            <g id="编组-10备份-2" transform="translate(6.000000, 117.000000)">
                <rect id="矩形备份-6" fill="#FFFFFF" x="0" y="0" width="390" height="164" rx="7"></rect>
                <rect id="矩形" fill="#EBEBEB" x="14" y="11" width="46" height="19" rx="9.5"></rect>
                <rect id="矩形" fill="#F9F9F9" x="14" y="39" width="197" height="23" rx="7"></rect>
                <rect id="矩形备份" fill="#F9F9F9" x="14" y="71" width="362" height="49" rx="7"></rect>
                <rect id="矩形" fill="#F9F9F9" x="14" y="129" width="159" height="16" rx="4"></rect>
                <rect id="矩形" fill="#F9F9F9" x="205" y="11" width="171" height="21" rx="5"></rect>
                <rect id="矩形" fill="#F4F4F4" x="305" y="39" width="70" height="23" rx="4"></rect>
                <rect id="矩形" fill="#F9F9F9" x="314" y="129" width="62" height="16" rx="8"></rect>
            </g>
            <g id="编组-10备份-4" transform="translate(6.000000, 400.000000)">
                <rect id="矩形备份-6" fill="#FFFFFF" x="0" y="0" width="390" height="164" rx="7"></rect>
                <rect id="矩形" fill="#EBEBEB" x="14" y="11" width="46" height="19" rx="9.5"></rect>
                <rect id="矩形" fill="#F9F9F9" x="14" y="39" width="197" height="23" rx="7"></rect>
                <rect id="矩形备份" fill="#F9F9F9" x="14" y="71" width="362" height="49" rx="7"></rect>
                <rect id="矩形" fill="#F9F9F9" x="14" y="129" width="159" height="16" rx="4"></rect>
                <rect id="矩形" fill="#F9F9F9" x="205" y="11" width="171" height="21" rx="5"></rect>
                <rect id="矩形" fill="#F4F4F4" x="305" y="39" width="70" height="23" rx="4"></rect>
                <rect id="矩形" fill="#F9F9F9" x="314" y="129" width="62" height="16" rx="8"></rect>
            </g>
            <g id="编组-10备份-3" transform="translate(6.000000, 291.000000)">
                <rect id="矩形备份-6" fill="#FFFFFF" x="0" y="0" width="390" height="99" rx="7"></rect>
                <rect id="矩形" fill="#EBEBEB" x="14" y="11" width="46" height="19" rx="9.5"></rect>
                <rect id="矩形" fill="#F9F9F9" x="14" y="39" width="197" height="23" rx="7"></rect>
                <rect id="矩形" fill="#F9F9F9" x="14" y="72" width="159" height="16" rx="4"></rect>
                <rect id="矩形" fill="#F9F9F9" x="205" y="11" width="171" height="21" rx="5"></rect>
                <rect id="矩形" fill="#F4F4F4" x="305" y="39" width="70" height="23" rx="4"></rect>
                <rect id="矩形" fill="#F9F9F9" x="314" y="72" width="62" height="16" rx="8"></rect>
            </g>
            <g id="编组-10备份-5" transform="translate(6.000000, 574.000000)">
                <rect id="矩形备份-6" fill="#FFFFFF" x="0" y="0" width="390" height="99" rx="7"></rect>
                <rect id="矩形" fill="#EBEBEB" x="14" y="11" width="46" height="19" rx="9.5"></rect>
                <rect id="矩形" fill="#F9F9F9" x="14" y="39" width="197" height="23" rx="7"></rect>
                <rect id="矩形" fill="#F9F9F9" x="14" y="72" width="159" height="16" rx="4"></rect>
                <rect id="矩形" fill="#F9F9F9" x="205" y="11" width="171" height="21" rx="5"></rect>
                <rect id="矩形" fill="#F4F4F4" x="305" y="39" width="70" height="23" rx="4"></rect>
                <rect id="矩形" fill="#F9F9F9" x="314" y="72" width="62" height="16" rx="8"></rect>
            </g>
            <rect id="矩形" fill="#FFFFFF" x="104" y="719" width="197" height="23" rx="7"></rect>
        </g>
    </g>
</svg>