<svg width="59" height="13" viewBox="0 0 59 13" fill="none" xmlns="http://www.w3.org/2000/svg">
<path d="M7.16799 3.96802L7.82399 4.24002L8.25599 3.05602H7.29599L7.51999 1.53602H8.81599L8.97599 1.12002L8.55999 0.624023H11.6L11.264 1.53602H14.208L13.472 6.70402H13.776L14.48 6.09602L14.128 8.52802H10.784L11.552 3.05602H10.688L9.93599 5.08802L10.912 5.48802L10.656 7.31202L9.31199 6.76802L8.65599 8.52802H6.22399L7.19999 5.90402L6.91199 5.79202L7.16799 3.96802ZM1.35999 8.52802L2.78399 7.02402L2.87999 6.30402L1.34399 6.56002L1.56799 4.88002L3.11999 4.60802L3.32799 3.20002H1.80799L2.01599 1.68002H3.53599L3.69599 0.624023H6.12799L5.98399 1.68002H7.18399L6.97599 3.20002H5.75999L5.63199 4.17602L6.86399 3.96802L6.63999 5.64802L5.39199 5.87202L5.16799 7.44002C5.11466 7.74936 4.96532 8.01069 4.71999 8.22402C4.48532 8.42669 4.21866 8.52802 3.91999 8.52802H1.35999ZM4.49599 12.144L4.33599 9.13602H7.07199L7.23199 12.144H4.49599ZM7.82399 12.144L7.66399 9.13602H10.4L10.56 12.144H7.82399ZM0.23999 12.144L1.27999 9.13602H4.01599L2.97599 12.144H0.23999ZM11.168 12.144L11.008 9.13602H13.744L13.904 12.144H11.168Z" fill="white"/>
<path d="M28.9267 1.23202L27.5347 11.088C27.4921 11.3974 27.3534 11.6534 27.1187 11.856C26.8841 12.048 26.6121 12.144 26.3027 12.144H23.4387L24.8627 10.656L25.9667 2.75202H19.7427L19.9667 1.23202H28.9267ZM19.1987 3.36002L17.9667 12.144H15.2307L16.4627 3.36002H19.1987ZM19.3907 0.928023V3.05602H16.6707L16.6547 0.928023H19.3907Z" fill="white"/>
<path d="M34.8935 12.112L37.0695 0.912024L44.0615 0.704023L43.8535 2.22402L38.9895 2.43202L38.7015 3.87202H43.6135L43.2295 6.67202L41.8375 8.67202L43.4535 12.096H41.2615L40.3655 10.496L39.3575 12.112H34.8935ZM32.0615 4.01602H30.5895L30.7975 2.49602H32.2695L32.4775 1.08802L32.1255 0.624023H34.8935L34.6215 2.49602H35.9015L35.6935 4.01602H34.4135L33.2615 12.144H30.9095L32.0615 4.01602ZM29.5335 11.568L30.7975 4.51202H31.8055L30.5415 11.568H29.5335ZM40.2855 5.98402L40.2215 6.43202L40.6215 7.34402L41.1335 6.54402L41.2935 5.32802H38.4135L37.0695 12.112L39.1015 9.08802L38.2375 7.08802L38.3975 5.98402H40.2855ZM33.9335 10.656L34.5255 4.54402H35.5335L34.9415 10.656H33.9335Z" fill="white"/>
<path d="M48.2842 12.144L51.3882 7.61602H49.7562L49.9802 6.09602H51.8842L52.2202 3.66402H50.5882L50.7962 2.14402H52.4282L52.5562 1.23202L52.1082 0.624023H55.5002L55.2762 2.14402H58.6522L58.1082 6.09602H58.5722L58.3482 7.61602H55.0202L57.7082 12.144H54.6522L53.1002 9.56802L51.3242 12.144H48.2842ZM49.0682 10.96L44.3802 11.872L44.6202 10.096L45.8042 9.87202L46.3802 5.85602H45.2282L45.4522 4.27202H46.6042L46.9882 1.53602L46.4922 0.928023H49.4682L48.9882 4.27202H50.0122L49.7882 5.85602H48.7642L48.2682 9.39202L49.3082 9.18402L49.0682 10.96ZM55.0682 3.66402L54.7322 6.09602H55.5802L55.9162 3.66402H55.0682Z" fill="white"/>
</svg>
