<svg width="15" height="15" viewBox="0 0 15 15" fill="none" xmlns="http://www.w3.org/2000/svg">
<path d="M13.75 5.9611H9.65515C11.2419 0.289666 8.56189 0 8.56189 0C7.42601 0 7.66148 0.869254 7.57558 1.01416C7.57558 3.78775 4.53162 5.9611 4.53162 5.9611V13.8265C4.53162 14.6029 5.62487 14.8825 6.05374 14.8825H12.2063C12.7853 14.8825 13.2568 13.4129 13.2568 13.4129C14.779 8.40376 14.779 6.91334 14.779 6.91334C14.779 5.87841 13.75 5.9611 13.75 5.9611Z" fill="#DDDDDD"/>
<path d="M3.88463 6.51111H1.3391C0.813398 6.51111 0.805298 6.91272 0.805298 6.91272L1.331 13.5311C1.331 13.9524 1.87352 13.9524 1.87352 13.9524H4.0767C4.53568 13.9524 4.53162 13.6737 4.53162 13.6737V7.013C4.53162 6.50468 3.88463 6.51111 3.88463 6.51111Z" fill="#DDDDDD"/>
</svg>
