<svg width="322" height="196" viewBox="0 0 322 196" fill="none" xmlns="http://www.w3.org/2000/svg">
<g clip-path="url(#clip0_1_333)">
<path d="M158.863 2.38786H91.4153V82.9781H158.863V2.38786Z" fill="#7C868D"/>
<path d="M156.14 0.357666H89.4049V80.2326H156.14V0.357666Z" fill="white" stroke="#13161A"/>
<path d="M144.072 34.027H101.473V38.2057H144.072V34.027Z" fill="#E6E6E6"/>
<path d="M144.072 42.3845H101.473V46.5632H144.072V42.3845Z" fill="#E6E6E6"/>
<path d="M144.072 51.339H111.531V55.5177H144.072V51.339Z" fill="#E6E6E6"/>
<path fill-rule="evenodd" clip-rule="evenodd" d="M144.368 72.7103C145.898 72.7103 147.139 66.8054 147.139 65.3381C147.139 63.8708 145.898 62.6813 144.368 62.6813C142.837 62.6813 141.596 63.8708 141.596 65.3381C141.596 66.8054 142.837 72.7103 144.368 72.7103Z" fill="#FF4A3F"/>
<path fill-rule="evenodd" clip-rule="evenodd" d="M139.566 72.2089H149.169C149.997 72.2089 150.667 72.8824 150.667 73.7132C150.667 74.544 149.997 75.2176 149.169 75.2176H139.566C138.738 75.2176 138.068 74.544 138.068 73.7132C138.068 72.8824 138.738 72.2089 139.566 72.2089Z" fill="#4D5761"/>
<path d="M146.64 70.7045H142.095C141.819 70.7045 141.596 70.929 141.596 71.206C141.596 71.4829 141.819 71.7074 142.095 71.7074H146.64C146.916 71.7074 147.139 71.4829 147.139 71.206C147.139 70.929 146.916 70.7045 146.64 70.7045Z" fill="#FF4A3F"/>
<path fill-rule="evenodd" clip-rule="evenodd" d="M140.388 71.7074H148.659C149.608 71.7074 150.495 72.1763 151.032 72.961C151.281 73.3254 151.189 73.8236 150.826 74.074C150.693 74.1656 150.536 74.2147 150.375 74.2147H138.326C137.905 74.2147 137.563 73.8718 137.563 73.4488C137.563 73.2708 137.625 73.0983 137.738 72.961C138.391 72.1671 139.363 71.7074 140.388 71.7074Z" fill="#FFC82C"/>
<path d="M105.023 28.0573C111.231 28.0573 116.264 22.9792 116.264 16.715C116.264 10.4508 111.231 5.37268 105.023 5.37268C98.8147 5.37268 93.7818 10.4508 93.7818 16.715C93.7818 22.9792 98.8147 28.0573 105.023 28.0573Z" fill="#FFC82C"/>
<path d="M105.319 24.4756C109.403 24.4756 112.714 21.1347 112.714 17.0135C112.714 12.8923 109.403 9.55144 105.319 9.55144C101.234 9.55144 97.9234 12.8923 97.9234 17.0135C97.9234 21.1347 101.234 24.4756 105.319 24.4756Z" fill="#FF3B30"/>
<path fill-rule="evenodd" clip-rule="evenodd" d="M100.562 73.6301H107.571V91.6201C107.571 93.5634 106.002 95.1387 104.067 95.1387C102.131 95.1387 100.562 93.5634 100.562 91.6201V73.6301Z" fill="#FFD96D"/>
<path d="M106.069 54.1699H78.0355V90.5297H106.069V54.1699Z" fill="#E6E6E6"/>
<path d="M105.068 52.6335H76.5337V90.5297H105.068V52.6335Z" fill="#EEEEEE"/>
<path d="M103.566 51.0972H74.5313V90.5297H103.566V51.0972Z" fill="#F2F2F2"/>
<path d="M83.0415 55.7062H77.5349V57.7546H83.0415V55.7062Z" fill="#4D5761"/>
<path d="M83.0415 62.8757H77.5349V64.9242H83.0415V62.8757Z" fill="#4D5761"/>
<path d="M102.064 55.7062H85.0439V57.7546H102.064V55.7062Z" fill="#4D5761"/>
<path d="M102.064 62.8757H85.0439V64.9242H102.064V62.8757Z" fill="#4D5761"/>
<path d="M102.064 70.0453H85.0439V72.0937H102.064V70.0453Z" fill="#4D5761"/>
<path d="M102.064 77.2148H85.0439V79.2633H102.064V77.2148Z" fill="#4D5761"/>
<path d="M102.064 84.3844H85.0439V86.4328H102.064V84.3844Z" fill="#4D5761"/>
<path fill-rule="evenodd" clip-rule="evenodd" d="M100.562 71.5816V91.6201C100.562 93.2284 101.637 94.5846 103.105 95.0044C102.708 95.0924 102.295 95.1387 101.872 95.1387H76.2257C73.0781 95.1387 70.5266 92.5766 70.5266 89.4161V77.3043C70.5266 74.1437 73.0781 71.5816 76.2257 71.5816H100.562ZM107.571 77.3043V89.4161V77.3043Z" fill="#FFC82C"/>
<path d="M73.0295 70.0453V50.073H101.564" stroke="#13161A"/>
<path fill-rule="evenodd" clip-rule="evenodd" d="M76.1214 69.641H84.6572L84.6735 69.6745C85.3644 71.0943 84.7781 72.8077 83.364 73.5014C82.9745 73.6925 82.5467 73.7918 82.1132 73.7918H76.1214C74.9799 73.7918 74.0546 72.8626 74.0546 71.7164C74.0546 70.5702 74.9799 69.641 76.1214 69.641Z" fill="#FFC82C"/>
<path d="M14.8408 180.016L156.547 180.155" stroke="#13161A"/>
<path d="M162.31 180.155L282.244 180.016" stroke="#13161A"/>
<path fill-rule="evenodd" clip-rule="evenodd" d="M220.581 177.12V179.721H251.412V177.12H220.581Z" fill="#0092FF" stroke="#13161A"/>
<path fill-rule="evenodd" clip-rule="evenodd" d="M150.982 150.74C178.454 152.635 194.095 149.09 197.903 140.106C203.616 126.63 198.502 121.313 192.211 116.175C185.92 111.037 168.601 106.637 155.774 99.1136C142.948 91.5899 130.43 66.0432 107.139 77.2665C91.6114 84.7487 91.1122 115.289 105.641 168.889L150.982 150.74Z" fill="#2F2E41"/>
<path fill-rule="evenodd" clip-rule="evenodd" d="M57.7012 139.583L60.1328 109.273L75.3261 114.534L70.1656 139.608L57.7012 139.583Z" fill="#FFC1C7"/>
<path fill-rule="evenodd" clip-rule="evenodd" d="M59.7689 110.394C63.5549 111.55 68.7889 113.361 75.471 115.829L78.1731 107.94L53.4984 99.3981C53.9108 104.215 56.001 107.88 59.7689 110.394Z" fill="#0092FF"/>
<path d="M59.4517 111.319C64.7 113.081 69.9483 114.844 75.1967 116.607" stroke="#13161A"/>
<path d="M53.5907 99.1517C61.8212 101.971 70.0517 104.79 78.2822 107.608" stroke="#13161A"/>
<path fill-rule="evenodd" clip-rule="evenodd" d="M34.041 155.935L12.1313 134.953L25.7552 126.401L41.8989 146.218L34.041 155.935Z" fill="#FFC1C7"/>
<path fill-rule="evenodd" clip-rule="evenodd" d="M12.7573 135.949C16.0331 133.721 20.7275 130.774 26.8404 127.11L22.436 120.03L0.305365 133.921C4.29163 136.633 8.44227 137.309 12.7573 135.949Z" fill="#0092FF"/>
<path d="M13.273 136.775C17.94 133.788 22.6071 130.802 27.2741 127.815" stroke="#13161A"/>
<path d="M0.167892 133.691C7.52917 129.042 14.8904 124.394 22.2517 119.745" stroke="#13161A"/>
<path fill-rule="evenodd" clip-rule="evenodd" d="M57.5304 170.147L37.9643 135.836L14.8408 162.409L55.1587 180.114L57.5304 170.147Z" fill="#0092FF"/>
<mask id="mask0_1_333" style="mask-type:alpha" maskUnits="userSpaceOnUse" x="41" y="130" width="72" height="51">
<path d="M107.928 147.662L70.5744 164.435L74.7248 131.812L41.5218 130.602L53.38 180.016H112.671L107.928 147.662Z" fill="white"/>
</mask>
<g mask="url(#mask0_1_333)">
<path d="M107.928 147.662L70.5744 164.435L74.7248 131.812L41.5218 130.602L53.38 180.016H112.671L107.928 147.662Z" fill="#0092FF"/>
<path d="M54.8623 185.389C58.9555 185.389 62.2737 182.048 62.2737 177.926C62.2737 173.804 58.9555 170.463 54.8623 170.463C50.7691 170.463 47.4509 173.804 47.4509 177.926C47.4509 182.048 50.7691 185.389 54.8623 185.389Z" fill="#FFC82C"/>
</g>
<path d="M227.551 177.39C222.484 176.769 218.539 174.943 218.74 173.312C218.94 171.681 223.21 170.863 228.277 171.484C233.344 172.105 237.288 173.931 237.088 175.562C236.887 177.193 232.618 178.011 227.551 177.39Z" fill="#FFC1C7"/>
<path d="M226.85 170.704L216.027 184.574" stroke="#13161A"/>
<path fill-rule="evenodd" clip-rule="evenodd" d="M156.598 152.436L169.644 178.562L207.421 195.545L226.844 169.77L177.787 167.754L167.299 145.506L156.598 152.436Z" fill="#FFC82C"/>
<path d="M173.741 159.372L177.833 168.336L217.478 169.977" stroke="#13161A"/>
<path fill-rule="evenodd" clip-rule="evenodd" d="M105.556 146.582V190.762C112.759 189.797 123.061 186.261 136.461 180.155C149.862 174.048 162.523 167.121 174.445 159.372L175.306 149.005C174.907 143.138 170.432 139.942 161.883 139.418C149.058 138.632 148.956 143.178 135.795 146.582C127.021 148.851 116.941 148.851 105.556 146.582Z" fill="#FFC82C"/>
<path fill-rule="evenodd" clip-rule="evenodd" d="M171.267 141.821C171.225 141.873 171.184 141.927 171.144 141.982C169.832 143.796 170.232 146.335 172.039 147.653C173.845 148.971 176.374 148.569 177.686 146.755C177.726 146.7 177.765 146.644 177.801 146.588C177.827 146.557 177.852 146.526 177.876 146.493L180.954 142.239C181.417 141.6 181.276 140.705 180.639 140.241L176.402 137.15C175.765 136.685 174.874 136.827 174.412 137.466L171.334 141.72C171.31 141.753 171.288 141.787 171.267 141.821Z" fill="#FFC1C7"/>
<path d="M175.627 148.421C171.249 148.237 170.699 145.888 170.532 142.378C170.526 142.257 170.521 142.134 170.516 142.011" stroke="#13161A"/>
<path d="M176.373 142.11C169.8 137.315 168.343 128.077 173.118 121.477C177.894 114.877 187.094 113.414 193.667 118.209C200.241 123.004 201.698 132.242 196.922 138.842C192.146 145.442 182.946 146.905 176.373 142.11Z" fill="#2F2E41"/>
<path d="M177.991 143.809C172.075 139.493 170.764 131.179 175.062 125.239C179.36 119.298 187.64 117.982 193.556 122.297C199.472 126.613 200.784 134.927 196.485 140.867C192.187 146.808 183.907 148.124 177.991 143.809Z" fill="#FFC1C7"/>
<path opacity="0.1" d="M173.104 133.479C174.333 141.268 181.438 146.714 189.244 145.851C183.935 146.957 178.45 145.041 174.971 140.864C172.4 137.777 171.233 133.826 171.616 129.935C171.751 128.561 172.079 127.194 172.607 125.876C174.63 120.825 179.257 117.3 184.647 116.704C176.957 118.306 171.875 125.69 173.104 133.479Z" fill="black"/>
<path d="M184.745 135.769C184.749 135.41 184.781 135.024 184.844 134.625C185.119 132.879 185.885 131.55 186.554 131.657C187.223 131.763 187.542 133.265 187.266 135.011C187.262 135.038 187.258 135.064 187.253 135.091C191.826 135.805 196.689 132.994 198.529 129.473C200.43 125.837 195.623 121.25 193.77 118.618C191.916 115.985 188.66 118.449 183.961 117.472C179.261 116.494 174.6 123.968 173.424 126.893C172.248 129.819 172.343 132.002 173.952 133.38C175.318 134.55 180.623 136.628 184.745 135.769Z" fill="#2F2E41"/>
<path d="M47.4509 151.648L53.38 180.016" stroke="#13161A"/>
<path d="M159.511 157.975L162.31 164.435" stroke="#13161A"/>
<path d="M250.819 178.314L267.959 144.194" stroke="#13161A" stroke-width="4" stroke-linecap="round"/>
<path fill-rule="evenodd" clip-rule="evenodd" d="M250.494 113.697C254.204 114.024 256.328 114.717 256.866 115.778C257.672 117.368 261.137 120.269 269.33 118.078C271.533 117.489 271.751 117.988 271.441 116.997C271.052 115.754 269.7 111.689 267.418 110.375C264.753 108.839 260.437 110.468 257.627 111.381C252.872 112.925 250.494 113.697 250.494 113.697Z" fill="#396F30"/>
<path d="M269.773 117.021C274.731 120.082 277.977 124.446 279.51 130.113C281.044 135.78 281.449 144.905 280.725 157.487" stroke="#39742C" stroke-width="3"/>
<path fill-rule="evenodd" clip-rule="evenodd" d="M288.393 99.3558C288.393 96.2461 288.393 78.9361 293.826 71.7952C297.447 67.0345 303.532 63.2657 312.08 60.4886C305.566 68.8198 301.223 73.9771 299.052 75.9607C295.795 78.9361 300.236 84.1575 300.236 90.2426C300.236 96.3278 288.393 102.466 288.393 99.3558Z" fill="#39742C"/>
<path d="M290.762 99.1688C283.428 106.655 278.888 128.673 277.142 165.223" stroke="#39742C" stroke-width="3"/>
<path d="M294.572 121.021C290.667 123.267 287.225 131.154 284.248 144.682" stroke="#39742C" stroke-width="3"/>
<path d="M279.51 99.1688C283.656 117.021 285.037 136.064 283.656 156.296" stroke="#26BC69" stroke-width="3" stroke-linecap="round"/>
<path d="M302.013 97.9786C293.723 104.723 288.59 124.559 286.616 157.487" stroke="#6DBE5C" stroke-width="3"/>
<path fill-rule="evenodd" clip-rule="evenodd" d="M281.571 100.358C285.508 98.513 289.477 92.0908 288.393 84.2918C287.722 79.467 283.534 74.3149 280.972 68.7935C277.547 61.4119 275.004 63.0378 270.628 59.2985C266.439 55.7198 260.412 46.583 257.295 48.0433C255.36 48.9503 254.081 54.2568 252.863 56.9182C251.45 60.003 250.887 61.2868 251.678 65.8444C252.107 68.3124 254.326 70.3005 255.823 72.9853C257.03 75.1488 257.755 78.5022 258.784 80.7213C261.392 86.3407 265.115 87.4037 268.259 90.8377C273.198 96.2319 277.677 102.183 281.571 100.358Z" fill="#26BC69"/>
<path d="M263.552 62.2739C275.72 76.5558 281.421 88.8541 280.658 99.1688" stroke="#0F944A"/>
<path fill-rule="evenodd" clip-rule="evenodd" d="M299.694 101.088C291.008 93.5507 291.798 87.7983 302.062 83.8311C312.327 79.8639 318.841 77.2404 321.604 75.9607C319.235 86.7617 316.077 92.9556 312.129 94.5425C308.181 96.1294 304.036 98.3113 299.694 101.088Z" fill="#6DBE5C"/>
<path d="M258.192 101.088C264.903 104.173 270.233 108.888 274.181 115.236C281.15 126.441 281.805 139.892 281.805 154.511" stroke="#0F944A" stroke-width="3" stroke-linecap="round"/>
<path fill-rule="evenodd" clip-rule="evenodd" d="M262.138 104.267C241.61 94.9397 230.232 88.6752 228.004 85.4731C224.661 80.67 237.884 88.3928 248.09 86.3993C258.296 84.4057 245.542 91.9373 255.614 90.9917C262.329 90.3614 264.504 94.7863 262.138 104.267Z" fill="#0F944A"/>
<mask id="mask1_1_333" style="mask-type:alpha" maskUnits="userSpaceOnUse" x="271" y="149" width="25" height="32">
<path d="M271.812 149.751H295.499L291.946 180.1H275.365L271.812 149.751Z" fill="white"/>
</mask>
<g mask="url(#mask1_1_333)">
<path d="M271.812 149.751H295.499L291.946 180.1H275.365L271.812 149.751Z" fill="#4D5761"/>
<path fill-rule="evenodd" clip-rule="evenodd" d="M288.393 145.706L289.41 183.833C301.579 179.073 307.663 175.304 307.663 172.527C307.663 169.75 304.452 159.832 298.028 142.773L288.393 145.706Z" fill="#313B40"/>
</g>
<path fill-rule="evenodd" clip-rule="evenodd" d="M293.723 121.187C291.946 118.806 305.643 107.5 307.663 107.5C309.89 107.5 307.691 113.889 306.75 115.236C305.546 116.961 306.449 119.85 303.789 121.187C299.052 123.567 295.499 123.567 293.723 121.187Z" fill="#39742C"/>
<path d="M48.7825 9.56952H24.2212V34.3358H48.7825V9.56952Z" fill="#FFC82C"/>
<path d="M50.2234 7.51096H26.3746V31.5619H50.2234V7.51096Z" stroke="#13161A"/>
<path d="M306.425 26.1196L283.708 34.8879L292.411 57.6856L315.128 48.9173L306.425 26.1196Z" fill="#FFC82C"/>
<path d="M307.029 23.7154L284.978 32.2269L293.426 54.3573L315.478 45.8459L307.029 23.7154Z" stroke="#13161A"/>
<path d="M65.1674 23.1607H40.6062V47.927H65.1674V23.1607Z" fill="#0092FF"/>
<path d="M66.6084 21.1022H42.7596V45.1531H66.6084V21.1022Z" stroke="#13161A"/>
<path d="M267.904 27.6684L249.273 11.9697L233.633 30.686L252.264 46.3848L267.904 27.6684Z" fill="#0092FF"/>
<path d="M270.291 27.034L252.206 11.7953L237.024 29.9638L255.109 45.2025L270.291 27.034Z" stroke="#13161A"/>
<path d="M225.827 62.2336H167.412C166.625 62.2336 165.987 62.8741 165.987 63.6642V65.0949C165.987 65.885 166.625 66.5256 167.412 66.5256H225.827C226.614 66.5256 227.252 65.885 227.252 65.0949V63.6642C227.252 62.8741 226.614 62.2336 225.827 62.2336Z" fill="#4D5761"/>
<path d="M176.673 65.0949H174.535C173.749 65.0949 173.111 65.7354 173.111 66.5255V67.2409C173.111 68.031 173.749 68.6715 174.535 68.6715H176.673C177.459 68.6715 178.097 68.031 178.097 67.2409V66.5255C178.097 65.7354 177.459 65.0949 176.673 65.0949Z" fill="#4D5761"/>
<path d="M217.991 65.0949H215.854C215.067 65.0949 214.429 65.7354 214.429 66.5255V67.2409C214.429 68.031 215.067 68.6715 215.854 68.6715H217.991C218.778 68.6715 219.416 68.031 219.416 67.2409V66.5255C219.416 65.7354 218.778 65.0949 217.991 65.0949Z" fill="#4D5761"/>
<path fill-rule="evenodd" clip-rule="evenodd" d="M179.746 33.6204L184.957 37.8102V62.9489H179.746V33.6204Z" fill="#54B6FF"/>
<path d="M179.746 33.6204H174.535V62.9489H179.746V33.6204Z" fill="#0092FF"/>
<path fill-rule="evenodd" clip-rule="evenodd" d="M185.608 33.6204L190.819 37.8102V62.9489H185.608V33.6204Z" fill="#FFDD7B"/>
<path fill-rule="evenodd" clip-rule="evenodd" d="M192.121 33.6204L197.332 37.8102V62.9489H192.121V33.6204Z" fill="#4FF297"/>
<path d="M186.259 33.6204H181.049V62.9489H186.259V33.6204Z" fill="#FFC82C"/>
<path d="M192.121 33.6204H186.911V62.9489H192.121V33.6204Z" fill="#13CE66"/>
<path d="M219.746 40.6408C211.853 42.8524 207.907 47.4245 207.907 54.3571" stroke="#13161A" stroke-width="2"/>
<path d="M222.574 43.3601C220.436 43.3226 218.733 41.6087 218.769 39.5318C218.805 37.455 220.567 35.8018 222.704 35.8393C224.842 35.8767 226.545 37.5907 226.509 39.6675C226.473 41.7443 224.711 43.3975 222.574 43.3601Z" fill="#FF3B30"/>
<path d="M223.484 43.8025C221.347 43.7651 219.644 42.0511 219.68 39.9743C219.716 37.8975 221.478 36.2443 223.615 36.2817C225.752 36.3192 227.456 38.0332 227.42 40.11C227.383 42.1868 225.622 43.84 223.484 43.8025Z" stroke="#313B40" stroke-width="0.5"/>
<path d="M214.089 29.5451C208.89 32.4024 206.823 40.546 207.887 53.976" stroke="#13161A" stroke-width="2"/>
<path d="M217.985 29.6933C216.387 31.0879 213.988 30.9428 212.625 29.369C211.263 27.7952 211.454 25.3889 213.051 23.9942C214.649 22.5995 217.049 22.7447 218.411 24.3185C219.774 25.8922 219.583 28.2986 217.985 29.6933Z" fill="#FF3B30"/>
<path d="M218.951 29.4176C217.353 30.8122 214.954 30.667 213.591 29.0933C212.229 27.5195 212.42 25.1131 214.018 23.7185C215.615 22.3238 218.015 22.469 219.377 24.0428C220.74 25.6165 220.549 28.0229 218.951 29.4176Z" stroke="#313B40" stroke-width="0.5"/>
<path d="M207.416 55.9678C206.352 56.315 204.631 53.9431 203.572 50.67C202.513 47.397 202.517 44.4623 203.581 44.1152C204.645 43.768 206.366 46.1399 207.425 49.413C208.484 52.686 208.48 55.6207 207.416 55.9678Z" fill="#13CE66"/>
<path d="M206.912 55.8739C206.17 55.0461 207.502 52.6265 209.887 50.4696C212.273 48.3128 214.809 47.2354 215.551 48.0632C216.293 48.8911 214.961 51.3107 212.576 53.4676C210.19 55.6244 207.654 56.7018 206.912 55.8739Z" fill="#13CE66"/>
<mask id="mask2_1_333" style="mask-type:alpha" maskUnits="userSpaceOnUse" x="202" y="51" width="14" height="12">
<path d="M202.482 51.0213H215.566L212.841 62.7142H205.237L202.482 51.0213Z" fill="white"/>
</mask>
<g mask="url(#mask2_1_333)">
<path d="M202.482 51.0213H215.566L212.841 62.7142H205.237L202.482 51.0213Z" fill="#7C868D"/>
<path fill-rule="evenodd" clip-rule="evenodd" d="M212.761 50.1203V63.4837L217.668 55.1316L216.85 51.0213L212.761 50.1203Z" fill="#4D5761"/>
</g>
</g>
<defs>
<clipPath id="clip0_1_333">
<rect width="322" height="196" fill="white"/>
</clipPath>
</defs>
</svg>
