<?xml version="1.0" encoding="UTF-8"?>
<svg width="33px" height="33px" viewBox="0 0 33 33" version="1.1" xmlns="http://www.w3.org/2000/svg" xmlns:xlink="http://www.w3.org/1999/xlink">
    <title>页面 1</title>
    <g id="页面-1" stroke="none" stroke-width="1" fill="none" fill-rule="evenodd">
        <g id="bianji备份-2" transform="translate(5.000000, 4.000000)" fill="#4192E9" fill-rule="nonzero">
            <path d="M16,15 L16,16 C16,16.5522848 15.5522848,17 15,17 L6,17 C5.44771525,17 5,16.5522848 5,16 L5,15 L16,15 L16,15 Z" id="路径"></path>
            <path d="M14,0 C14.5367634,0.00126952262 14.9767856,0.42608052 14.9969304,0.962467317 C15.0170751,1.49885411 14.6101562,1.95547311 14.075,1.99700001 L14,2 L2,2 L2,23 L20,23 L20,8.1425 C19.997586,7.60308536 20.4234293,7.1589683 20.9624695,7.138729 C21.5015097,7.11848969 21.9594575,7.5294231 21.9975,8.0675 L22,8.1425 L22,23 C22,24.0657007 21.1643677,24.944215 20.1,24.9975 L20,25 L2,25 C0.934299312,25 0.0557850489,24.1643677 0.00250001953,23.1 L0,23 L0,2 C0,0.934299312 0.835632281,0.0557850489 1.90000002,0.00250001953 L2,0 L14,0 Z" id="路径"></path>
            <path d="M20.3426452,1.28294319 C20.7227056,0.904489567 21.3214135,0.905855808 21.6998812,1.28604038 C22.0783489,1.66622495 22.1018997,2.28994018 21.7532695,2.69996657 L21.6944526,2.76333146 L11.6514745,12.7228646 C11.2706158,13.0958877 10.6760539,13.091862 10.2998743,12.7137132 C9.9236948,12.3355643 9.89816161,11.7162488 10.2418305,11.3058412 L10.3006474,11.2419653 L20.3426452,1.28294319 Z" id="路径"></path>
        </g>
        <rect id="矩形" fill="#FFFFFF" opacity="0" x="0" y="0" width="33" height="33"></rect>
    </g>
</svg>