<?xml version="1.0" encoding="UTF-8"?>
<svg width="33px" height="33px" viewBox="0 0 33 33" version="1.1" xmlns="http://www.w3.org/2000/svg" xmlns:xlink="http://www.w3.org/1999/xlink">
    <title>页面 1</title>
    <g id="页面-1" stroke="none" stroke-width="1" fill="none" fill-rule="evenodd">
        <g id="wenzhen备份-2" transform="translate(4.000000, 3.000000)" fill="#4192E9" fill-rule="nonzero">
            <path d="M22.826087,0 C23.9844573,0 24.9393641,0.89985218 24.9972826,2.04601858 L25,2.15370375 L25,21.7814831 C24.9988866,22.9285499 24.0911237,23.8737868 22.9347826,23.9319563 L22.8266304,23.9346485 L14.7652174,23.9384175 L9.67663044,27.7779329 C8.98260871,28.3012829 7.9929348,27.8420055 7.93369566,27.0009842 L7.93097825,26.9212972 L7.93097825,23.9346485 L2.17391302,23.9346485 C1.01554271,23.9346494 0.0606359073,23.0347963 0.00271738069,21.8886299 L0,21.7809447 L0,2.15370375 C0,1.00610196 0.90829594,0.0600722199 2.06521738,0.0026921192 L2.17391302,0 L22.826087,0 Z M22.826087,21.7804063 L22.826087,2.15370375 L2.17391302,2.15370375 L2.17391302,21.7809447 L9.01793479,21.7809447 C9.58675261,21.7807663 10.0595126,22.2150899 10.1021739,22.7770327 L10.1048913,22.8771799 L10.1048913,24.7471332 L13.7391304,22.0054683 C13.9006889,21.8835855 14.0934801,21.8089765 14.2956522,21.7900979 L14.3972826,21.7852521 L22.826087,21.7804063 Z" id="形状"></path>
            <polygon id="路径" points="13.6 6 13.6 10.4 18 10.4 18 12.6 13.6 12.6 13.6 17 11.4 17 11.4 12.6 7 12.6 7 10.4 11.4 10.4 11.4 6"></polygon>
        </g>
        <rect id="矩形备份-28" fill="#FFFFFF" opacity="0" x="0" y="0" width="33" height="33"></rect>
    </g>
</svg>