<?xml version="1.0" encoding="UTF-8"?>
<svg width="33px" height="33px" viewBox="0 0 33 33" version="1.1" xmlns="http://www.w3.org/2000/svg" xmlns:xlink="http://www.w3.org/1999/xlink">
    <title>页面 1</title>
    <g id="页面-1" stroke="none" stroke-width="1" fill="none" fill-rule="evenodd">
        <g id="faxian备份-2" transform="translate(2.000000, 3.000000)" fill="#4192E9" fill-rule="nonzero">
            <path d="M18.2696036,6.20755307 L10.7754681,11.6011332 C10.4963879,11.8017047 10.3250077,12.1231533 10.311885,12.4706511 L10.0008181,20.8385746 C9.96790093,21.7360154 10.9351162,22.3045249 11.6817867,21.8264855 L18.644859,17.3677628 C18.9339163,17.1824916 19.1217201,16.8707539 19.1528802,16.5244923 L19.9950103,7.22226988 C20.0811435,6.27289257 19.0338298,5.6569142 18.269055,6.20755307 L18.2696036,6.20755307 Z M17.5915105,9.43040985 L17.017655,15.7694581 L12.2721007,18.808024 L12.4844163,13.1061755 L17.5915105,9.43040985 Z" id="形状"></path>
            <path d="M10.816792,1.03462301 C11.4127701,0.887164645 12.02237,1.22430367 12.1783716,1.78764409 C12.3343731,2.35098452 11.9777016,2.92720079 11.3817234,3.07465915 C6.03076863,4.39936478 2.23072631,8.9897097 2.23072631,14.2943308 C2.23072631,20.6990954 7.72388992,25.8914355 14.4997212,25.8914355 C21.2761101,25.8914355 26.768716,20.6990954 26.768716,14.2943308 C26.768716,13.4013537 26.6627565,12.5226095 26.4536259,11.6696952 C26.3147184,11.1024245 26.688618,10.5361206 27.2887541,10.4048201 C27.8888902,10.2735196 28.4880034,10.6269432 28.626911,11.1942139 C28.873964,12.2026348 29,13.2411029 29,14.2943308 C29,21.8640773 22.5085864,28 14.5002788,28 C6.49197132,28 0,21.8640773 0,14.2943308 C0,8.02504145 4.49045211,2.6007593 10.816792,1.03462301 Z" id="路径"></path>
            <path d="M15,0 C20.4548631,-0.00174196915 25.4443006,3.03054435 27.8945616,7.83655611 L28,8.04779286 L26.0011099,9 C24.0006589,4.90774104 19.8346473,2.27436868 15.2286349,2.19062444 L15,2.1889827 L15,0 Z" id="路径"></path>
        </g>
        <rect id="矩形备份-29" fill="#FFFFFF" opacity="0" x="0" y="0" width="33" height="33"></rect>
    </g>
</svg>