<?xml version="1.0" encoding="UTF-8"?>
<svg width="33px" height="33px" viewBox="0 0 33 33" version="1.1" xmlns="http://www.w3.org/2000/svg" xmlns:xlink="http://www.w3.org/1999/xlink">
    <title>页面 1</title>
    <g id="页面-1" stroke="none" stroke-width="1" fill="none" fill-rule="evenodd">
        <g id="kuaidi备份" transform="translate(2.000000, 3.000000)" fill="#4192E9" fill-rule="nonzero">
            <path d="M7,4.06819186 L7.86290622,2 L22,7.88919314 L22,14.1055326 C22,14.8729819 21.5663056,15.5748899 20.8793426,15.9182815 C20.6393066,16.0382561 20.3542497,16.0254315 20.1259629,15.8843873 C19.8976762,15.7433431 19.758709,15.4941893 19.7586851,15.2258966 L19.7586851,9.38319848 L7,4.06819186 L7,4.06819186 Z" id="路径"></path>
            <path d="M13.6216634,0.149267774 C14.0976822,-0.0318349787 14.6233217,-0.0486576498 15.1105881,0.101615926 L15.2421934,0.146560292 L28.2895237,5.06120081 C28.8468798,5.27218025 29.1335642,5.87257222 28.9392829,6.42196626 C28.7450015,6.97136031 28.1389519,7.27407837 27.5656944,7.10806519 L27.4831622,7.08099024 L14.4358319,2.16526674 L1.5262411,7.07936574 C0.967882424,7.29411276 0.334665867,7.04098125 0.0938396337,6.50675603 C-0.146986599,5.97253081 0.0910612788,5.349059 0.632328602,5.0963982 L0.7120725,5.0628253 L13.6216634,0.149267774 Z M14.4336013,10.1918991 C15.0172513,10.1917198 15.5023388,10.6285219 15.5461125,11.1936715 L15.5489122,11.2748962 L15.5489122,25.9121425 C15.5515934,26.4963272 15.0766505,26.9773049 14.4754591,26.999224 C13.8742677,27.0211431 13.3635187,26.5761032 13.3210901,25.9933673 L13.3183019,25.9121425 L13.3183019,11.2748962 C13.3183019,10.9876676 13.4358063,10.712203 13.6449655,10.5091017 C13.8541247,10.3060003 14.1378055,10.1918991 14.4336013,10.1918991 L14.4336013,10.1918991 Z" id="形状"></path>
            <path d="M0,6.10925452 L0,20.5188595 C0,21.4031251 0.528172309,22.2029009 1.34403841,22.5543964 L13.5513651,27.8168418 C14.1085185,28.0571408 14.7400982,28.0611467 15.3002881,27.8279347 L27.6308647,22.6919477 C28.4604793,22.3464489 29.0003193,21.5392586 29,20.6447632 L29,6.10925452 C29,5.74146772 28.8166831,5.39759861 28.5106081,5.19118361 C28.2045331,4.98476861 27.815487,4.94264814 27.4719224,5.07872926 L14.4330766,10.2441123 L1.53198072,5.08039318 C1.18835358,4.94279213 0.798455638,4.98383698 0.491408983,5.18993496 C0.184362328,5.39603294 0,5.74029036 0,6.10869986 L0,6.10925452 Z M15.2584612,12.3051628 L26.7692301,7.74489443 L26.7692301,20.6453179 L14.4386535,25.7813049 L2.23076916,20.5188595 L2.23076916,7.75044087 L13.5998843,12.3023896 C14.1318376,12.5152779 14.7257911,12.516271 15.2584612,12.3051628 Z" id="形状"></path>
        </g>
        <rect id="矩形备份-26" fill="#FFFFFF" opacity="0" x="0" y="0" width="33" height="33"></rect>
    </g>
</svg>