<svg width="22" height="22" viewBox="0 0 22 22" fill="none" xmlns="http://www.w3.org/2000/svg">
<path d="M20.5176 2.69846C20.4209 2.4299 20.1868 2.2301 19.9032 2.17853C19.7055 2.14201 19.5078 2.18068 19.3424 2.28166L1.80257 11.694C1.52757 11.8401 1.36 12.1365 1.37718 12.4481C1.39437 12.7553 1.58988 13.0346 1.87562 13.1549L6.99964 15.2582C7.26605 15.3699 7.57542 15.3313 7.80531 15.1529C8.03519 14.9746 8.15121 14.6953 8.11468 14.4053C8.08031 14.1217 7.89124 13.8768 7.62054 13.7629L4.07562 12.3084L16.3862 5.70627L8.71625 14.7705C8.5766 14.936 8.50999 15.1444 8.52718 15.3592L8.83871 18.9922C8.87308 19.4154 9.21898 19.7356 9.64437 19.7356C9.84847 19.7356 10.0461 19.6561 10.1987 19.5121L11.7885 18.0254L11.7907 18.0233C12.0807 17.7397 12.1172 17.3035 11.8938 16.9834L16.6762 18.5303C16.7621 18.5582 16.8459 18.5733 16.9276 18.5733C17.3186 18.5733 17.6537 18.2961 17.7225 17.9158L20.5498 3.12814H20.5477C20.5778 2.98635 20.567 2.8381 20.5176 2.69846ZM10.6842 16.8395L10.3104 17.1875L10.1707 15.5569L18.3907 5.83517L16.311 16.7127L11.5801 15.1809C11.1569 15.0434 10.6971 15.2754 10.5596 15.7008C10.435 16.0854 10.6133 16.4979 10.9657 16.6762C10.8647 16.7084 10.768 16.7621 10.6842 16.8395Z" fill="#004DFF"/>
</svg>
