<svg width="32" height="31" viewBox="0 0 32 31" fill="none" xmlns="http://www.w3.org/2000/svg">
<path d="M0 25.401C3.11585 23.9108 5.31727 22.2513 6.60425 20.4224C7.95897 18.5935 8.63633 16.1212 8.63633 13.0053H1.42245V0H14.4278V13.0053C14.4278 16.934 13.5472 20.3546 11.7861 23.2673C10.0249 26.1122 7.04454 28.5507 2.84491 30.5828L0 25.401ZM17.1711 25.401C20.2869 23.9108 22.4883 22.2513 23.7753 20.4224C25.13 18.5935 25.8074 16.1212 25.8074 13.0053H18.5935V0H31.5988V13.0053C31.5988 16.934 30.7182 20.3546 28.9571 23.2673C27.196 26.1122 24.2156 28.5507 20.016 30.5828L17.1711 25.401Z" fill="white" fill-opacity="0.1"/>
</svg>
