<?xml version="1.0" encoding="UTF-8"?>
<svg width="12px" height="12px" viewBox="0 0 12 12" version="1.1" xmlns="http://www.w3.org/2000/svg" xmlns:xlink="http://www.w3.org/1999/xlink">
    <title>页面 1</title>
    <g id="页面-1" stroke="none" stroke-width="1" fill="none" fill-rule="evenodd">
        <path d="M6.00006085,1 C3.7043544,1 1.69109887,3.08950815 2.03940622,5.32622717 C2.54723249,6.9327458 3.86484897,8.82925508 5.99567042,11 C8.06600153,8.83023977 9.38752061,6.93176111 9.96169113,5.31834966 C10.3046324,3.08458471 8.29332818,1 6.00006085,1 Z M10.9223856,5.48121216 C10.260901,7.3313374 8.72593665,9.4546587 6.32049255,11.8674789 C6.1461888,12.0422264 5.86157013,12.0444373 5.68450733,11.8724192 L5.68450733,11.8719251 C3.20206502,9.45515272 1.66310078,7.32639714 1.07261451,5.46639139 L1.05811484,5.40612029 C0.581625915,2.5798008 3.10706723,0 6,0 C8.89293277,0 11.4183741,2.5798008 10.9418852,5.40612029 L10.9218856,5.48121216 L10.9223856,5.48121216 Z M6,7 C7.1045695,7 8,6.1045695 8,5 C8,3.8954305 7.1045695,3 6,3 C4.8954305,3 4,3.8954305 4,5 C4,6.1045695 4.8954305,7 6,7 Z M6.0333287,5.99944218 C5.66831449,6.01161437 5.32569543,5.82382876 5.13958376,5.50959073 C4.95347208,5.19535271 4.95347208,4.80464729 5.13958376,4.49040927 C5.32569543,4.17617124 5.66831449,3.98838563 6.0333287,4.00055782 C6.57234024,4.01853232 7,4.46069006 7,5 C7,5.53930994 6.57234024,5.98146768 6.0333287,5.99944218 Z" id="形状" fill="#2582F1" fill-rule="nonzero"></path>
        <rect id="矩形" fill="#FFFFFF" opacity="0" x="0" y="0" width="12" height="12"></rect>
    </g>
</svg>