<svg width="173" height="169" viewBox="0 0 173 169" fill="none" xmlns="http://www.w3.org/2000/svg">
<path d="M170.561 154.9L137.864 122.223C147.357 109.532 153.013 93.8431 153.013 76.7551C153.013 34.6845 118.877 0.588379 76.7865 0.588379C34.7159 0.608365 0.599792 34.7045 0.599792 76.775C0.599792 118.846 34.7159 152.942 76.8064 152.942C95.9131 152.942 113.321 145.867 126.692 134.275L158.929 166.512C160.528 168.111 162.626 168.931 164.745 168.931C166.863 168.931 168.942 168.111 170.561 166.512C173.759 163.294 173.759 158.098 170.561 154.9ZM76.8064 136.533C43.8295 136.533 16.9883 109.732 16.9883 76.7551C16.9883 43.7781 43.8295 16.9969 76.8064 16.9969C109.783 16.9969 136.625 43.8181 136.625 76.775C136.625 109.732 109.783 136.533 76.8064 136.533Z" fill="#0092FF"/>
</svg>
