<?xml version="1.0" encoding="UTF-8"?>
<svg width="20px" height="20px" viewBox="0 0 20 20" version="1.1" xmlns="http://www.w3.org/2000/svg" xmlns:xlink="http://www.w3.org/1999/xlink">
    <title>cha1备份</title>
    <g id="页面-1" stroke="none" stroke-width="1" fill="none" fill-rule="evenodd">
        <g id="cha1备份" fill="#C5C5C5" fill-rule="nonzero">
            <path d="M10,0 C4.47702978,0 0,4.47702978 0,10 C0,15.5229702 4.47702978,20 10,20 C15.5229702,20 20,15.5229702 20,10 C20,4.47702978 15.5229702,0 10,0 Z M14.2428646,6.70000723 L10.9428328,10 L14.2428646,13.2999928 C14.49864,13.5611272 14.4964713,13.9795142 14.2380025,14.237983 C13.9795337,14.4964518 13.5611467,14.4986205 13.3000123,14.2428451 L10,10.9428523 L6.70000723,14.2428646 C6.43887282,14.49864 6.02048585,14.4964713 5.76201704,14.2380025 C5.50354823,13.9795337 5.50137951,13.5611467 5.75715494,13.3000123 L9.05714771,10 L5.75713541,6.70000723 C5.50135998,6.43887282 5.5035287,6.02048585 5.76199751,5.76201704 C6.02046632,5.50354823 6.43885329,5.50137951 6.6999877,5.75715494 L10,9.05714771 L13.2999928,5.75713541 C13.5611272,5.50135998 13.9795142,5.5035287 14.237983,5.76199751 C14.4964518,6.02046632 14.4986205,6.43885329 14.2428451,6.6999877 L14.2428646,6.70000723 Z" id="形状"></path>
        </g>
    </g>
</svg>