<svg width="200" height="200" viewBox="0 0 200 200" fill="none" xmlns="http://www.w3.org/2000/svg">
<path d="M184.561 170.9L151.864 138.223C161.357 125.532 167.013 109.843 167.013 92.7551C167.013 50.6845 132.877 16.5884 90.7865 16.5884C48.716 16.6084 14.5999 50.7045 14.5999 92.775C14.5999 134.846 48.716 168.942 90.8065 168.942C109.913 168.942 127.321 161.867 140.692 150.275L172.929 182.512C174.528 184.111 176.626 184.931 178.745 184.931C180.863 184.931 182.942 184.111 184.561 182.512C187.759 179.294 187.759 174.098 184.561 170.9ZM90.8065 152.533C57.8296 152.533 30.9884 125.732 30.9884 92.7551C30.9884 59.7781 57.8296 32.9969 90.8065 32.9969C123.783 32.9969 150.625 59.8181 150.625 92.775C150.625 125.732 123.783 152.533 90.8065 152.533Z" fill="#D1D1D1"/>
</svg>
