<svg width="19" height="19" viewBox="0 0 19 19" fill="none" xmlns="http://www.w3.org/2000/svg">
<path fill-rule="evenodd" clip-rule="evenodd" d="M13.4574 12.3443L18.7703 17.6623C19.0766 17.9684 19.0766 18.4644 18.7703 18.7705C18.6173 18.9234 18.4172 19 18.2161 19C18.015 19 17.815 18.9234 17.6618 18.7705L12.3488 13.4524C11.0451 14.512 9.38508 15.1496 7.57758 15.1496C3.39895 15.1496 0 11.752 0 7.57482C0 3.39764 3.39897 0 7.5776 0C11.7564 0 15.1552 3.39764 15.1552 7.57477C15.1552 9.38164 14.5173 11.0411 13.4574 12.3443ZM7.5776 1.56719C4.26345 1.56719 1.56777 4.26178 1.56777 7.57479C1.56777 10.8878 4.26347 13.5824 7.57758 13.5824C10.8918 13.5824 13.5874 10.8878 13.5874 7.57479C13.5874 4.2618 10.8918 1.56719 7.5776 1.56719Z" fill="#919191"/>
</svg>
