<svg t="1645879319654" class="icon" viewBox="0 0 1024 1024" version="1.1" xmlns="http://www.w3.org/2000/svg" p-id="2870" width="200" height="200"><path d="M944.951334 875.009893L777.542121 707.703008c48.605976-64.978515 77.564905-145.306286 77.564904-232.797042 0-215.401219-174.776856-389.973419-390.280404-389.973419C249.425402 85.034876 74.750874 259.607075 74.750874 475.008294S249.425402 864.981713 464.92895 864.981713c97.825922 0 186.953932-36.224243 255.411612-95.574698l165.055661 165.055661c8.18627 8.18627 18.930748 12.381733 29.777555 12.381733 10.846807 0 21.488958-4.195463 29.777556-12.381733 16.372539-16.474868 16.372539-43.080244 0-59.452783z m-480.022384-94.039772c-168.841811 0-306.268812-137.222344-306.268812-306.064155s137.427001-305.961827 306.268812-305.961827S771.197762 306.268812 771.197762 475.008294s-137.427001 305.961827-306.268812 305.961827z" p-id="2871"></path></svg>