<?xml version="1.0" encoding="UTF-8"?>
<svg width="20px" height="22px" viewBox="0 0 20 22" version="1.1" xmlns="http://www.w3.org/2000/svg" xmlns:xlink="http://www.w3.org/1999/xlink">
    <title>ziyuan备份</title>
    <g id="页面-1" stroke="none" stroke-width="1" fill="none" fill-rule="evenodd">
        <g id="ziyuan备份" fill="#000000" fill-rule="nonzero">
            <path d="M16.2500439,14.6661294 C15.3782141,14.6673046 14.5340502,14.9655331 13.8627414,15.5095222 L7.42577394,11.7325893 C7.52576567,11.2485552 7.52576567,10.7498533 7.42577394,10.2658192 L13.8627414,6.49499781 C15.2162448,7.58780933 17.1638186,7.61621654 18.5500472,6.56336661 C19.9362759,5.51051667 20.3901898,3.65816338 19.6425007,2.1052319 C18.8948115,0.55230041 17.1456087,-0.285628372 15.4326225,0.088554299 C13.7196362,0.46273697 12.5012799,1.94889585 12.5003541,3.66535389 C12.5001023,3.91165821 12.5252271,4.15736069 12.5753479,4.39873892 L6.13838044,8.17567187 C4.61290734,6.94280739 2.37032558,7.08152179 1.01585382,8.49252462 C-0.338617941,9.90352745 -0.338617941,12.1009926 1.01585382,13.5119954 C2.37032558,14.9229983 4.61290734,15.0617126 6.13838044,13.8288482 L12.5753479,17.5996696 C12.2582452,19.1188603 12.9524946,20.668898 14.3093217,21.4710809 C15.6661489,22.2732639 17.3922584,22.15419 18.6204943,21.1736792 C19.8487302,20.1931683 20.3135936,18.5631704 19.7815484,17.1025573 C19.2495031,15.6419441 17.8355575,14.6664459 16.2500439,14.6661294 Z M16.2500439,1.8318913 C17.2854922,1.8318913 18.1248888,2.65276046 18.1248888,3.66535389 C18.1248888,4.67794731 17.2854922,5.49881647 16.2500439,5.49881647 C15.2145957,5.49881647 14.375199,4.67794731 14.375199,3.66535389 C14.375199,2.65276046 15.2145957,1.8318913 16.2500439,1.8318913 Z M3.75107793,12.8326668 C2.71562969,12.8326668 1.87623304,12.0117977 1.87623304,10.9992043 C1.87623304,9.98661085 2.71562968,9.16574168 3.75107792,9.16574168 C4.78652616,9.16574168 5.62592283,9.98661082 5.62592283,10.9992042 C5.62592283,11.4854688 5.4283951,11.9518171 5.07679348,12.2956581 C4.72519186,12.639499 4.24831772,12.8326668 3.75107793,12.8326668 L3.75107793,12.8326668 Z M16.2500439,20.1665172 C15.2145957,20.1665172 14.375199,19.345648 14.375199,18.3330546 C14.375199,17.3204612 15.2145957,16.499592 16.2500439,16.499592 C17.2854922,16.499592 18.1248888,17.3204612 18.1248888,18.3330546 C18.1248888,19.345648 17.2854922,20.1665172 16.2500439,20.1665172 Z" id="形状"></path>
        </g>
    </g>
</svg>