<svg width="210" height="210" viewBox="0 0 210 210" fill="none" xmlns="http://www.w3.org/2000/svg">
<rect width="210" height="210" rx="58" fill="white"/>
<path d="M130 70.3334C139.251 70.3337 148.332 72.8179 156.295 77.5265C164.259 82.2351 170.811 88.9955 175.27 97.1015C179.728 105.207 181.928 114.362 181.64 123.608C181.352 132.855 178.586 141.855 173.632 149.668C172.909 151.398 173.426 158.218 173.632 161.138C173.632 163.023 173.891 164.677 173.891 165.917C173.894 166.756 173.71 167.586 173.352 168.345C172.995 169.105 172.473 169.776 171.824 170.308C169.241 172.504 165.65 171.833 159.889 170.722C156.737 169.939 153.501 169.54 150.253 169.533C143.205 172.536 135.577 173.933 127.922 173.625C120.267 173.316 112.776 171.309 105.993 167.748C99.2089 164.188 93.302 159.163 88.6996 153.038C84.0971 146.914 80.9144 139.842 79.3818 132.335C77.8492 124.829 78.0052 117.076 79.8385 109.637C81.6717 102.198 85.1363 95.2603 89.9813 89.3256C94.8264 83.3909 100.931 78.608 107.852 75.3232C114.773 72.0384 122.339 70.334 130 70.3334ZM117.083 137.5H142.917C144.287 137.5 145.601 136.955 146.569 135.986C147.538 135.018 148.082 133.704 148.082 132.333C148.082 130.963 147.538 129.649 146.569 128.68C145.601 127.711 144.287 127.167 142.917 127.167H117.083C115.713 127.167 114.399 127.711 113.43 128.68C112.462 129.649 111.917 130.963 111.917 132.333C111.917 133.704 112.462 135.018 113.43 135.986C114.399 136.955 115.713 137.5 117.083 137.5ZM111.917 116.833H148.083C149.453 116.833 150.767 116.289 151.736 115.32C152.705 114.351 153.249 113.037 153.249 111.667C153.249 110.297 152.705 108.983 151.736 108.014C150.767 107.045 149.453 106.5 148.083 106.5H111.917C110.546 106.5 109.233 107.045 108.264 108.014C107.295 108.983 106.751 110.297 106.751 111.667C106.751 113.037 107.295 114.351 108.264 115.32C109.233 116.289 110.546 116.833 111.917 116.833Z" fill="#004DFF"/>
</svg>
