<svg width="390" height="631" viewBox="0 0 390 631" fill="none" xmlns="http://www.w3.org/2000/svg">
<rect width="390" height="630" fill="white" fill-opacity="0.01"/>
<path d="M45.6799 23.312L43.0159 25.904C45.7519 27.848 47.8399 29.684 49.3159 31.34L52.0159 28.676C50.2879 26.876 48.1639 25.112 45.6799 23.312ZM45.0319 32.132L42.3679 34.724C44.9239 36.596 46.8679 38.324 48.2359 39.98L50.8999 37.28C49.3159 35.552 47.3359 33.86 45.0319 32.132ZM47.9479 41.996C46.4719 46.244 44.7079 50.42 42.6919 54.452L46.4719 56.108C48.2719 52.148 49.9279 47.9 51.3679 43.364L47.9479 41.996ZM52.3759 24.752V28.388H69.2239V51.104C69.2239 52.148 68.7919 52.688 67.9279 52.688C66.1639 52.688 64.2919 52.58 62.3479 52.436L63.1399 56.036H69.2239C71.7079 56.036 72.9679 54.704 72.9679 52.076V28.388H75.5599V24.752H52.3759ZM53.7079 32.708V46.856H65.7679V32.708H53.7079ZM62.2759 43.472H57.2359V36.092H62.2759V43.472Z" fill="white"/>
<path d="M82.7239 51.788H88.6639V53.012H91.8319V25.076H79.5559V53.156H82.7239V51.788ZM88.6639 48.332H87.1879V39.908H88.6639V48.332ZM88.6639 36.596H87.1879V28.496H88.6639V36.596ZM84.2359 28.496V36.596H82.7239V28.496H84.2359ZM82.7239 39.908H84.2359V48.332H82.7239V39.908ZM96.6199 25.076L93.4159 26.12C94.2799 28.28 94.9639 30.548 95.5399 32.888L98.7439 32.096C98.0959 29.468 97.4119 27.128 96.6199 25.076ZM107.204 24.392C106.556 27.452 105.764 29.972 104.828 31.988L107.996 33.104C108.932 30.836 109.724 28.208 110.372 25.22L107.204 24.392ZM93.2359 34.22V37.784H100.004V42.5H92.4439V46.172H100.004V56.252H103.712V46.172H111.452V42.5H103.712V37.784H110.624V34.22H103.712V22.88H100.004V34.22H93.2359Z" fill="white"/>
<path d="M115.52 26.696V52.4H133.592V48.8H119.696V26.696H115.52Z" fill="white"/>
<path d="M139.237 26.192C138.445 26.192 137.797 26.444 137.257 26.948C136.717 27.452 136.465 28.1 136.465 28.892C136.465 29.684 136.717 30.332 137.257 30.872C137.797 31.376 138.445 31.628 139.237 31.628C140.029 31.628 140.677 31.376 141.217 30.872C141.757 30.368 142.045 29.684 142.045 28.892C142.045 28.1 141.757 27.452 141.253 26.948C140.713 26.444 140.029 26.192 139.237 26.192ZM137.185 33.788V52.4H141.289V33.788H137.185Z" fill="white"/>
<path d="M152.211 27.776L148.107 29.468V33.788H144.759V37.172H148.107V47.684C148.107 49.196 148.467 50.312 149.187 51.104C149.943 51.968 151.131 52.4 152.751 52.4H155.883V49.016H153.435C153.003 49.016 152.715 48.908 152.499 48.692C152.283 48.44 152.211 48.116 152.211 47.684V37.172H156.351V33.788H152.211V27.776Z" fill="white"/>
<path d="M167.342 33.284C164.57 33.284 162.374 34.22 160.79 36.128C159.134 38 158.342 40.304 158.342 43.076C158.342 46.172 159.206 48.584 160.934 50.348C162.554 52.04 164.75 52.904 167.522 52.904C170.006 52.904 172.058 52.184 173.714 50.78C175.01 49.628 175.874 48.152 176.306 46.424H172.202C171.698 47.468 171.158 48.224 170.546 48.692C169.754 49.268 168.746 49.556 167.486 49.556C166.01 49.556 164.858 49.088 164.066 48.188C163.274 47.288 162.806 45.956 162.662 44.228H176.594C176.594 40.88 175.838 38.252 174.362 36.38C172.742 34.292 170.402 33.284 167.342 33.284ZM167.45 36.632C170.33 36.632 171.95 38.108 172.31 41.132H162.734C162.986 39.656 163.49 38.54 164.246 37.784C165.038 36.992 166.082 36.632 167.45 36.632Z" fill="white"/>
<path d="M49.92 75.26H43.24V89.04C42.76 89.12 42.28 89.22 41.8 89.32L42.2 90.72C45.64 90 48.66 89.22 51.26 88.38V87.02C50.82 87.16 50.38 87.3 49.92 87.44V75.26ZM44.66 88.74V85.06H48.52V87.82C47.3 88.14 46.02 88.44 44.66 88.74ZM44.66 83.76V80.74H48.52V83.76H44.66ZM44.66 79.42V76.58H48.52V79.42H44.66ZM53.56 74.16V78.16H51.08V79.56H53.56V79.84C53.52 85.22 52.22 89.12 49.66 91.54L50.74 92.48C53.5201 89.82 54.94 85.6 55 79.84V79.56H58C57.9601 84.92 57.8801 88.14 57.7601 89.18C57.6001 90.34 56.98 90.94 55.92 90.94C55.4 90.94 54.8 90.9 54.1 90.86L54.44 92.14C55.24 92.18 55.8 92.2 56.12 92.2C57.92 92.2 58.9201 91.36 59.1201 89.72C59.3201 88.24 59.4201 84.4 59.4201 78.16H55V74.16H53.56Z" fill="white"/>
<path d="M64.32 81.3V92.4H65.76V79.08C66.5601 77.68 67.22 76.18 67.74 74.6L66.4 73.96C65.42 77.12 63.84 79.94 61.68 82.38L62.14 83.9C62.92 83.08 63.64 82.22 64.32 81.3ZM77.2001 82.02L75.9201 82.44C76.9001 84.68 77.8001 87.28 78.6001 90.2L79.8601 89.64C79.1001 86.92 78.2201 84.38 77.2001 82.02ZM70.32 77.9H77.9001C77.6001 78.94 77.2201 79.86 76.7601 80.7L78.14 81.1C78.64 79.9 79.0401 78.68 79.3601 77.44V76.5H70.84C71.08 75.8 71.3201 75.06 71.5201 74.28L70.16 74C69.48 76.7 68.3801 79.16 66.8601 81.38L68.1 82.14C68.94 80.86 69.68 79.46 70.32 77.9ZM72.82 92.26C73.92 92.26 74.48 91.7 74.48 90.58V79.58H73.0801V90.22C73.0801 90.74 72.8201 91 72.3201 91C71.5601 91 70.74 90.96 69.9 90.9L70.2001 92.26H72.82ZM69.82 82.18C69 85.1 68.0401 87.5 66.9601 89.38L68.3 89.86C69.46 87.76 70.4001 85.32 71.1201 82.54L69.82 82.18Z" fill="white"/>
<path d="M88.2201 74.48C87.4201 76 86.5401 77.3 85.5801 78.42C84.4801 79.68 83.2401 80.7 81.8801 81.48L82.66 82.74C84.32 81.62 85.66 80.48 86.66 79.32C87.6 78.26 88.54 76.9 89.48 75.24L88.2201 74.48ZM88.8801 83.4C88.4601 85.28 87.84 86.8 87 87.96C86.06 89.16 84.66 90.26 82.82 91.26L83.7401 92.46C85.7801 91.32 87.32 90.04 88.34 88.6C89.2 87.32 89.86 85.58 90.34 83.4H95.32C95.22 86.52 95 88.54 94.64 89.5C94.3 90.42 93.6001 90.88 92.5201 90.88C91.4801 90.88 90.3801 90.86 89.2201 90.82L89.62 92.24H93.2601C94.2601 92.18 94.9801 91.86 95.4201 91.28C95.8801 90.68 96.2001 89.6 96.4001 88.08C96.6001 86.54 96.72 84.52 96.78 82.02H84.84V83.4H88.8801ZM93.8601 74.22L92.62 74.92C93.84 78.08 96.0001 80.66 99.1001 82.66L100.06 81.52C97.08 79.74 95.0201 77.3 93.8601 74.22Z" fill="white"/>
<path d="M105.02 78.3V82.34H117V78.3H105.02ZM115.62 81.1H106.4V79.54H115.62V81.1ZM110.78 74.02L109.14 74.28C109.48 74.72 109.8 75.22 110.1 75.74H102.32V77.1H119.68V75.74H111.68C111.4 75.1 111.1 74.54 110.78 74.02ZM101.88 87.4V88.72H110.64V90.16C110.64 90.84 110.32 91.18 109.72 91.18C109.08 91.18 108.2 91.14 107.08 91.08L107.46 92.4H110.28C111.46 92.4 112.06 91.78 112.06 90.58V88.72H120.12V87.4H112.06V87.02C114.24 86.18 116.18 85.38 117.86 84.6V83.56H103.82V84.86H115.02C113.34 85.56 111.88 86.14 110.64 86.62V87.4H101.88Z" fill="white"/>
<path d="M126.2 77.16H139.3V75.78H126.98C127.22 75.3 127.46 74.78 127.7 74.26L126.24 73.92C125.14 76.44 123.74 78.46 122.02 80.02L122.94 81.14C124.18 80.02 125.26 78.68 126.2 77.16ZM129.42 85.18L128.76 86.12C130.12 86.6 131.46 87.26 132.78 88.1L133.46 87.06C132.24 86.32 130.9 85.7 129.42 85.18ZM124.32 89.54H136C135.96 89.82 135.94 90.02 135.9 90.1C135.72 90.54 135.44 90.84 135.08 90.98C134.72 91.08 134.3 91.14 133.82 91.14C133.06 91.14 132.2 91.1 131.24 91.06L131.68 92.4C132.56 92.4 133.36 92.38 134.04 92.38C135 92.38 135.74 92.24 136.22 91.96C136.74 91.64 137.08 91.18 137.26 90.56C137.3 90.4 137.36 90.06 137.4 89.54H139.7V88.2H137.5C137.54 87.32 137.6 86.18 137.66 84.78H140.24V83.42H137.72L137.86 78.82H125.44C125.4 80.36 125.32 81.9 125.18 83.42H121.8V84.78H125.04C124.86 86.38 124.62 87.98 124.32 89.54ZM136.12 88.2H125.98C126.18 87.16 126.34 86.02 126.48 84.78H136.28C136.22 86.18 136.16 87.32 136.12 88.2ZM126.62 83.42C126.7 82.4 126.76 81.32 126.8 80.16H136.42C136.38 81.34 136.36 82.42 136.32 83.42H132.92L133.58 82.42C132.38 81.68 131.04 81.06 129.58 80.54L128.92 81.5C130.24 81.98 131.56 82.62 132.84 83.42H126.62Z" fill="white"/>
<path d="M142 82.34V83.78H159.98V82.34H142Z" fill="white"/>
<path d="M174.02 74.14V77.66H170.14V86.72H171.52V85.7H174.02V92.4H175.48V85.7H178.06V86.72H179.46V77.66H175.48V74.14H174.02ZM171.52 84.36V79.02H174.02V84.36H171.52ZM175.48 84.36V79.02H178.06V84.36H175.48ZM162.38 76.9C163.34 76.78 164.24 76.66 165.12 76.52V79.54H162.04V80.92H164.98C164.32 83.2 163.22 85.24 161.66 87.04L162.26 88.54C163.46 86.96 164.4 85.2 165.12 83.28V92.48H166.52V83.18C167.14 83.98 167.88 85.02 168.74 86.3L169.54 85.1C168.52 83.92 167.52 82.86 166.52 81.92V80.92H169.1V79.54H166.52V76.24C167.44 76.04 168.3 75.8 169.12 75.54L168.62 74.2C166.72 74.88 164.54 75.32 162.1 75.56L162.38 76.9Z" fill="white"/>
<path d="M195.88 74L194.96 74.88C195.98 75.66 196.78 76.4 197.38 77.12H193.64C193.6 76.16 193.58 75.14 193.58 74.02H192.1C192.1 75.1 192.12 76.12 192.16 77.12H183.9V83.78C183.84 87.04 183.18 89.58 181.9 91.42L183 92.4C184.48 90.24 185.28 87.36 185.36 83.78V83.18H188.82C188.78 85.38 188.72 86.82 188.6 87.5C188.48 88.06 188.2 88.36 187.76 88.38C187.22 88.38 186.56 88.36 185.78 88.32L186.22 89.62C186.86 89.66 187.44 89.7 187.92 89.7C188.92 89.66 189.54 89.22 189.8 88.36C190.06 87.38 190.22 85.2 190.26 81.82H185.36V78.5H192.22C192.38 81 192.66 83.1 193.1 84.78C193.32 85.64 193.58 86.44 193.86 87.18C192.48 88.92 190.78 90.24 188.78 91.14L189.58 92.34C191.46 91.5 193.1 90.28 194.5 88.64C194.8 89.26 195.14 89.82 195.5 90.3C196.46 91.5 197.36 92.1 198.2 92.1C199.1 92.1 199.78 90.76 200.26 88.1L198.96 87.38C198.66 89.44 198.32 90.48 197.96 90.5C197.56 90.5 197.02 90.02 196.36 89.06C196.04 88.6 195.74 88.04 195.46 87.4C196.74 85.6 197.78 83.36 198.58 80.72L197.28 80.16C196.66 82.3 195.86 84.18 194.86 85.78C194.72 85.34 194.58 84.88 194.46 84.38C194.1 82.94 193.84 80.98 193.7 78.5H199.86V77.12H197.42L198.34 76.2C197.66 75.46 196.84 74.72 195.88 74Z" fill="white"/>
<path d="M205.02 82.46H209.94V85.46H205.02V82.46ZM209.94 86.8V89.48C209.94 91.22 210.74 92.1 212.38 92.1H217.52C218.46 92.1 219.1 91.92 219.46 91.58C219.82 91.22 220.04 90.18 220.16 88.48L218.8 88.02C218.72 89.38 218.58 90.16 218.38 90.4C218.14 90.62 217.78 90.74 217.28 90.74H212.72C211.84 90.74 211.4 90.24 211.4 89.26V86.8H217.88V76.84H211.4V74.1H209.94V76.84H203.58V88.5H205.02V86.8H209.94ZM211.4 85.46V82.46H216.46V85.46H211.4ZM216.46 81.14H211.4V78.2H216.46V81.14ZM209.94 78.2V81.14H205.02V78.2H209.94Z" fill="white"/>
<path d="M225.82 79.18H230.62V83.8H224.74V85.2H230.62V90.28H222.32V91.72H239.94V90.28H232.08V85.2H238.26V83.8H232.08V79.18H238.66V77.78H232.08V74.22H230.62V77.78H226.34C226.64 76.88 226.9 75.92 227.12 74.88L225.66 74.62C225 77.96 223.72 80.62 221.84 82.58L222.76 83.76C224 82.52 225.02 81 225.82 79.18Z" fill="white"/>
<path d="M247.16 79.88V81.26H252.88V84.36H248.5V92.42H249.92V91.32H257.42V92.38H258.84V84.36H254.34V81.26H260.1V79.88H254.34V76.56C256.16 76.3 257.76 75.92 259.16 75.42L258.46 74.18C255.58 75.16 251.94 75.66 247.58 75.66L248.02 76.96C249.74 76.96 251.36 76.88 252.88 76.74V79.88H247.16ZM249.92 89.96V85.72H257.42V89.96H249.92ZM243.54 74.34L242.56 75.28C244 76.24 245.14 77.12 245.96 77.96L246.94 76.98C246.02 76.1 244.88 75.22 243.54 74.34ZM243.08 79.12L242.08 80.1C243.54 81.14 244.68 82.14 245.52 83.08L246.52 82.08C245.6 81.08 244.44 80.1 243.08 79.12ZM245.44 84.44C244.6 86.86 243.58 89.22 242.42 91.54L243.86 92.16C244.9 89.92 245.86 87.5 246.74 84.94L245.44 84.44Z" fill="white"/>
<path d="M42.3321 181.59L42.1701 182.67H44.2041L43.4661 187.296H41.6481L41.4861 188.376H43.3041L42.8181 191.4H44.0241L44.5101 188.376H47.2281L46.7421 191.4H47.9481L48.4341 188.376H50.4681L50.6301 187.296H48.5961L49.3341 182.67H51.1521L51.3141 181.59H49.4961L49.9821 178.548H48.7941L48.3081 181.59H45.5721L46.0581 178.548H44.8701L44.3841 181.59H42.3321ZM44.6721 187.296L45.4101 182.67H48.1281L47.3901 187.296H44.6721Z" fill="white"/>
<path d="M64.1232 178.17H59.2632V191.796H60.5232V190.266H62.8812V191.364H64.1232V178.17ZM60.5232 189.042V179.394H62.8812V189.042H60.5232ZM66.9132 180.312H74.5092V179.052H67.5792C67.9032 178.386 68.1912 177.666 68.4792 176.91L67.2732 176.64C66.5172 178.71 65.5452 180.384 64.3572 181.68L65.2032 182.67C65.8152 181.968 66.3912 181.176 66.9132 180.312ZM66.0672 183.03V184.254H71.2152C69.9912 185.478 68.9832 186.594 68.1732 187.566C67.2192 188.7 66.5892 189.546 66.2832 190.086C65.9592 190.554 65.7972 190.986 65.7972 191.364C65.7972 192.408 66.4452 192.93 67.7772 192.93H72.0432C72.9252 192.912 73.5732 192.714 74.0052 192.318C74.4372 191.922 74.7432 190.734 74.8872 188.754L73.6812 188.322C73.5732 189.996 73.3932 190.986 73.1592 191.292C72.9072 191.58 72.5472 191.742 72.0432 191.742H68.0832C67.4892 191.742 67.2012 191.526 67.2012 191.13C67.2012 190.914 67.3452 190.572 67.6332 190.122C67.9392 189.618 68.4792 188.934 69.2712 188.034C70.1712 186.972 71.4312 185.694 73.0152 184.182V183.03H66.0672Z" fill="white"/>
<path d="M81.9072 178.206H77.2452V191.472H78.4692V190.158H80.7192V191.094H81.9072V178.206ZM78.4692 188.97V179.394H80.7192V188.97H78.4692ZM83.5452 186.774V191.238H89.3232V190.158H84.7332V186.774H83.5452ZM83.6172 177.288V183.048H84.9852C84.3192 184.254 83.3112 185.244 81.9432 186.018L82.5732 187.044C83.3472 186.54 84.0312 185.964 84.6432 185.316H91.2312C91.1592 188.286 91.1052 190.05 91.0692 190.626C90.9972 191.166 90.8712 191.562 90.6732 191.796C90.4572 192.012 89.9712 192.138 89.2512 192.138C88.8552 192.138 88.4412 192.12 88.0272 192.102L88.3512 193.182H88.9272C90.1872 193.182 91.0152 193.056 91.3932 192.804C91.7892 192.552 92.0412 192.084 92.1852 191.4C92.3112 190.716 92.4012 188.322 92.4732 184.218H85.4892C85.7052 183.858 85.9212 183.462 86.1192 183.048H91.4652V177.288H83.6172ZM90.2952 182.004H84.7872V180.654H90.2952V182.004ZM84.7872 179.7V178.314H90.2952V179.7H84.7872ZM87.5952 187.872C88.3512 188.304 89.1072 188.844 89.8452 189.51L90.4392 188.574C89.7192 187.98 88.9452 187.458 88.0992 187.026C88.2612 186.702 88.4052 186.342 88.5312 185.946L87.5052 185.784C87.1092 187.008 86.3712 187.98 85.2732 188.7L85.9212 189.51C86.5872 189.06 87.1452 188.52 87.5952 187.872Z" fill="white"/>
<path d="M97.0092 179.25V183.3H94.9932V184.47H97.0092V189.006C96.2352 189.258 95.4432 189.492 94.6152 189.726L94.9752 191.04C97.1352 190.392 99.0072 189.672 100.627 188.916V187.602C99.9072 187.926 99.1332 188.25 98.3232 188.556V184.47H100.213V183.3H98.3232V179.25H100.591V178.044H94.7412V179.25H97.0092ZM103.201 184.092V185.352C103.147 188.52 101.671 190.824 98.7912 192.264L99.7632 193.11C102.823 191.472 104.389 188.88 104.443 185.352V184.092H106.585V191.256C106.585 191.724 106.711 192.138 106.981 192.462C107.233 192.768 107.611 192.93 108.115 192.93H109.303C109.879 192.93 110.293 192.768 110.545 192.462C110.779 192.138 110.959 191.094 111.085 189.348L109.879 188.934C109.825 190.482 109.699 191.346 109.519 191.526C109.411 191.67 109.249 191.742 109.033 191.742H108.529C108.097 191.742 107.899 191.472 107.899 190.968V184.092H110.473V182.814H100.843V184.092H103.201ZM101.473 177.756V178.998H109.897V177.756H101.473Z" fill="white"/>
<path d="M113.677 184.992H120.265V191.058C120.265 191.634 119.995 191.94 119.455 191.94C118.735 191.94 117.997 191.904 117.223 191.85L117.493 193.128H119.905C121.021 193.128 121.597 192.534 121.597 191.382V184.992H128.167V183.732H121.597V180.204H120.265V183.732H115.117C115.405 182.4 115.711 180.888 115.999 179.178C120.535 179.106 124.189 178.692 126.961 177.9L126.349 176.802C123.703 177.63 120.247 178.062 115.981 178.08C115.621 178.062 115.261 178.026 114.937 177.972C114.685 180.006 114.253 182.346 113.677 184.992ZM116.017 186.378C115.117 188.412 114.037 190.158 112.777 191.634L113.893 192.426C115.135 190.878 116.215 189.042 117.151 186.936L116.017 186.378ZM125.197 186.27L124.045 186.828C125.143 188.502 126.169 190.41 127.123 192.534L128.329 191.922C127.339 189.87 126.295 187.998 125.197 186.27Z" fill="white"/>
<path d="M132.901 188.88L132.091 189.636C132.757 190.14 133.423 190.734 134.089 191.454C134.665 192.066 135.187 192.678 135.619 193.29L136.519 192.534C136.087 191.922 135.565 191.292 134.971 190.68C134.287 189.96 133.585 189.366 132.901 188.88Z" fill="white"/>
<path d="M42.3321 143.59L42.1701 144.67H44.2041L43.4661 149.296H41.6481L41.4861 150.376H43.3041L42.8181 153.4H44.0241L44.5101 150.376H47.2281L46.7421 153.4H47.9481L48.4341 150.376H50.4681L50.6301 149.296H48.5961L49.3341 144.67H51.1521L51.3141 143.59H49.4961L49.9821 140.548H48.7941L48.3081 143.59H45.5721L46.0581 140.548H44.8701L44.3841 143.59H42.3321ZM44.6721 149.296L45.4101 144.67H48.1281L47.3901 149.296H44.6721Z" fill="white"/>
<path d="M60.3972 140.692V141.97H73.1772V140.692H60.3972ZM58.7412 152.014V153.328H74.8152V152.014H58.7412Z" fill="white"/>
<path d="M90.8352 138.856C87.3972 139.684 83.0772 140.116 77.8572 140.116L78.2532 141.286C80.4852 141.286 82.5552 141.196 84.4632 141.052V143.986H78.2172V145.246H84.4632V148.198H76.7232V149.44H84.4632V153.094C84.4632 153.598 84.1752 153.868 83.6352 153.868C82.8072 153.868 81.9252 153.832 81.0072 153.796L81.2952 155.056H84.0852C85.2012 155.056 85.7772 154.498 85.7772 153.418V149.44H92.8692V148.198H85.7772V145.246H91.5192V143.986H85.7772V140.944C87.9372 140.728 89.8272 140.386 91.4652 139.954L90.8352 138.856Z" fill="white"/>
<path d="M98.4672 144.652V145.84H101.905C100.861 148 99.4392 149.728 97.6212 151.024L98.3772 152.248C99.9252 150.916 101.239 149.17 102.283 147.01V154.192H103.471V148.018C104.893 149.278 106.045 150.484 106.945 151.636L107.791 150.772C106.639 149.386 105.199 148 103.471 146.596V145.84H107.089V144.652H103.471V141.934H102.283V144.652H98.4672ZM108.205 155.056C109.393 155.056 110.005 154.444 110.005 153.256V139.612H101.833V140.764H108.781V152.914C108.781 153.58 108.493 153.922 107.935 153.922L106.333 153.886L106.657 155.056H108.205ZM95.5512 141.682V155.218H96.7752V141.682H95.5512ZM98.0712 138.55L96.9732 139.036C97.6932 139.846 98.3412 140.782 98.9352 141.826L99.9972 141.286C99.4212 140.278 98.7912 139.378 98.0712 138.55Z" fill="white"/>
<path d="M113.065 143.788V144.778H119.923C119.851 145.12 119.797 145.462 119.725 145.804H115.351V153.742H112.741V154.786H128.851V153.742H126.241V145.804H121.021C121.093 145.48 121.147 145.138 121.219 144.778H128.527V143.788H121.363L121.471 142.744H127.303V139.378H114.271V142.744H120.175L120.067 143.788H113.065ZM116.611 153.742V152.554H124.963V153.742H116.611ZM116.611 151.744V150.61H124.963V151.744H116.611ZM116.611 149.782V148.648H124.963V149.782H116.611ZM116.611 147.838V146.704H124.963V147.838H116.611ZM126.079 141.826H123.397V140.332H126.079V141.826ZM122.209 141.826H119.365V140.332H122.209V141.826ZM118.195 141.826H115.513V140.332H118.195V141.826Z" fill="white"/>
<path d="M132.901 150.88L132.091 151.636C132.757 152.14 133.423 152.734 134.089 153.454C134.665 154.066 135.187 154.678 135.619 155.29L136.519 154.534C136.087 153.922 135.565 153.292 134.971 152.68C134.287 151.96 133.585 151.366 132.901 150.88Z" fill="white"/>
<path d="M42.3321 219.59L42.1701 220.67H44.2041L43.4661 225.296H41.6481L41.4861 226.376H43.3041L42.8181 229.4H44.0241L44.5101 226.376H47.2281L46.7421 229.4H47.9481L48.4341 226.376H50.4681L50.6301 225.296H48.5961L49.3341 220.67H51.1521L51.3141 219.59H49.4961L49.9821 216.548H48.7941L48.3081 219.59H45.5721L46.0581 216.548H44.8701L44.3841 219.59H42.3321ZM44.6721 225.296L45.4101 220.67H48.1281L47.3901 225.296H44.6721Z" fill="white"/>
<path d="M66.4812 226.52V227.69H72.2052V226.52H66.4812ZM70.0452 218.132L69.2172 218.672C69.7932 219.41 70.2432 220.076 70.5852 220.688L71.4312 220.094C71.1072 219.536 70.6572 218.888 70.0452 218.132ZM68.6052 223.478V217.43H72.4392C72.3492 219.482 72.2412 220.652 72.1152 220.976C71.9712 221.264 71.7372 221.426 71.3772 221.426C71.0532 221.426 70.6572 221.408 70.2252 221.39L70.6032 222.56H71.3772C72.2052 222.56 72.7632 222.272 73.0872 221.714C73.3932 221.156 73.6092 219.356 73.7352 216.296H70.1172C70.3692 215.792 70.5672 215.252 70.7112 214.694L69.4332 214.532C69.3072 215.144 69.1272 215.72 68.8752 216.296H67.3992V224.648H73.3212C73.3212 227.312 73.2132 228.842 73.0152 229.256C72.8352 229.616 72.5292 229.796 72.1152 229.796C71.5752 229.796 70.8912 229.778 70.0992 229.76L70.4592 230.984H72.0792C72.9612 230.984 73.5912 230.696 73.9692 230.12C74.3472 229.508 74.5452 227.294 74.5632 223.478H68.6052ZM58.9752 216.728V217.898H60.4692V220.166H58.7052V221.39H66.4812V220.166H64.6992V217.898H66.2652V216.728H64.6992V214.82H63.4932V216.728H61.6752V214.82H60.4692V216.728H58.9752ZM61.6752 220.166V217.898H63.4932V220.166H61.6752ZM65.7432 222.812H59.5872V231.092H60.8112V230.228H64.5192V231.092H65.7432V222.812ZM60.8112 229.04V227.096H64.5192V229.04H60.8112ZM60.8112 225.944V223.982H64.5192V225.944H60.8112Z" fill="white"/>
<path d="M86.6592 216.89C86.5332 217.61 86.3712 218.294 86.1552 218.942H82.7352V220.184H85.6332C85.5612 220.292 85.5072 220.418 85.4532 220.526C84.7332 221.768 83.6892 222.83 82.3032 223.73L82.5192 223.406C81.7632 222.344 81.0072 221.39 80.2692 220.526V219.464H82.2132V218.222H80.2692V214.694H79.0092V218.222H76.7772V219.464H78.9732C78.4692 221.75 77.6052 223.784 76.3992 225.584L76.9572 226.97C77.7852 225.566 78.4692 224.018 79.0092 222.326V231.146H80.2692V221.93C80.7012 222.578 81.2052 223.406 81.8172 224.45L82.1952 223.892L82.9152 224.846C83.5812 224.378 84.1932 223.892 84.7332 223.37V224.612C84.7332 226.772 83.8332 228.68 82.0332 230.336L83.0412 231.2C84.9852 229.292 85.9752 227.096 85.9752 224.612V222.992H85.1112C85.6512 222.416 86.1012 221.804 86.4792 221.156C86.6412 220.85 86.8032 220.526 86.9472 220.184H88.3152C89.1432 222.092 90.5472 223.658 92.5632 224.846L93.1212 223.712C91.4832 222.848 90.2952 221.66 89.5392 220.184H92.4912V218.942H87.3972C87.6132 218.258 87.7932 217.538 87.9372 216.746C89.3952 216.548 90.6732 216.224 91.7892 215.792L91.1772 214.73C89.0892 215.486 86.4612 215.882 83.2932 215.882L83.6712 217.016C84.7152 217.016 85.7232 216.962 86.6592 216.89ZM88.7652 222.992V231.182H90.0252V222.992H88.7652Z" fill="white"/>
<path d="M110.203 215.756H101.797V231.218H103.039V230.084H108.943V231.2H110.203V215.756ZM103.039 228.86V225.674H108.943V228.86H103.039ZM103.039 224.468V221.282H108.943V224.468H103.039ZM103.039 220.076V216.98H108.943V220.076H103.039ZM98.6292 221.786C99.1332 222.452 99.7272 223.316 100.411 224.36L101.113 223.316C100.285 222.254 99.4572 221.282 98.6292 220.418V219.464H100.951V218.222H98.6292V214.712H97.3512V218.222H94.8132V219.464H97.3152C96.7392 221.714 95.8032 223.712 94.4892 225.458L94.9932 226.736C95.9652 225.332 96.7392 223.784 97.3512 222.056V231.182H98.6292V221.786Z" fill="white"/>
<path d="M120.319 214.694C118.195 217.124 115.549 219.14 112.381 220.76L113.065 222.002C116.269 220.274 118.843 218.222 120.787 215.846C122.911 218.366 125.449 220.418 128.437 221.984L129.139 220.742C126.169 219.266 123.541 217.25 121.255 214.694H120.319ZM116.395 220.22V221.444H125.233V220.22H116.395ZM113.569 223.838V225.098H118.087C117.313 226.574 116.341 227.96 115.189 229.292C115.045 229.436 114.829 229.544 114.505 229.634L114.865 230.768C119.167 230.516 122.713 230.156 125.521 229.706C125.881 230.21 126.205 230.696 126.511 231.182L127.591 230.426C126.709 229.076 125.449 227.492 123.811 225.656L122.803 226.304C123.541 227.132 124.207 227.96 124.819 228.752C122.155 229.112 119.365 229.364 116.431 229.544C117.655 228.266 118.699 226.79 119.563 225.098H128.041V223.838H113.569Z" fill="white"/>
<path d="M132.901 226.88L132.091 227.636C132.757 228.14 133.423 228.734 134.089 229.454C134.665 230.066 135.187 230.678 135.619 231.29L136.519 230.534C136.087 229.922 135.565 229.292 134.971 228.68C134.287 227.96 133.585 227.366 132.901 226.88Z" fill="white"/>
<path d="M42.3321 257.59L42.1701 258.67H44.2041L43.4661 263.296H41.6481L41.4861 264.376H43.3041L42.8181 267.4H44.0241L44.5101 264.376H47.2281L46.7421 267.4H47.9481L48.4341 264.376H50.4681L50.6301 263.296H48.5961L49.3341 258.67H51.1521L51.3141 257.59H49.4961L49.9821 254.548H48.7941L48.3081 257.59H45.5721L46.0581 254.548H44.8701L44.3841 257.59H42.3321ZM44.6721 263.296L45.4101 258.67H48.1281L47.3901 263.296H44.6721Z" fill="white"/>
<path d="M74.3832 256.348H70.9092C71.5932 255.448 72.2412 254.368 72.8712 253.072L71.5572 252.586C70.9812 253.936 70.2972 255.196 69.5052 256.348H59.1912V260.38H60.4512V257.59H73.1052V260.38H74.3832V256.348ZM61.9452 259.12V260.272H69.7932C69.0012 260.704 67.8672 261.244 66.3552 261.91V263.404H59.0652V264.628H66.3552V267.22C66.3552 267.724 66.1212 267.976 65.6892 267.976C64.9152 267.976 64.1952 267.958 63.5472 267.94L63.8532 269.128H66.1392C67.1472 269.128 67.6692 268.642 67.6692 267.67V264.628H74.5272V263.404H67.6692V262.486C69.1452 261.766 70.4592 261.028 71.6472 260.272V259.12H61.9452ZM61.7472 252.856L60.5772 253.432C61.2432 254.26 61.8732 255.196 62.4852 256.24L63.6012 255.682C63.0252 254.656 62.3952 253.72 61.7472 252.856ZM66.1032 252.514L64.9332 253.09C65.5452 253.954 66.1212 254.944 66.6612 256.06L67.8132 255.484C67.2732 254.404 66.6972 253.414 66.1032 252.514Z" fill="white"/>
<path d="M77.1552 256.96V258.202H82.8432C81.5652 261.478 79.4592 264.16 76.5432 266.248L77.2452 267.4C80.4492 265.024 82.7352 261.946 84.0672 258.202H84.1392V269.164H85.4352V258.202H85.5072C86.7312 261.55 88.9272 264.592 92.0952 267.292L92.9592 266.194C89.9892 263.854 87.9192 261.19 86.7312 258.202H92.4372V256.96H85.4352V252.658H84.1392V256.96H77.1552ZM88.3332 252.694L87.3252 253.324C88.3692 254.422 89.1792 255.43 89.7912 256.348L90.8172 255.61C90.2412 254.782 89.4132 253.81 88.3332 252.694Z" fill="white"/>
<path d="M94.8312 254.836V256.078H110.761V254.836H103.669C103.345 254.008 102.985 253.252 102.625 252.568L101.185 252.82C101.581 253.432 101.941 254.098 102.265 254.836H94.8312ZM105.631 256.618L104.749 257.464C106.855 259.192 108.511 260.794 109.699 262.306L110.653 261.352C109.303 259.768 107.629 258.202 105.631 256.618ZM105.811 259.984C105.037 261.496 104.029 262.81 102.805 263.962C101.527 262.864 100.483 261.586 99.6912 260.11L98.5752 260.74C99.4212 262.252 100.501 263.62 101.815 264.808C99.9252 266.248 97.5672 267.328 94.7232 268.048L95.5152 269.236C98.3952 268.48 100.843 267.292 102.859 265.672C104.803 267.184 107.233 268.336 110.149 269.164L110.959 267.958C108.151 267.238 105.793 266.194 103.849 264.79C105.091 263.584 106.135 262.162 106.999 260.506L105.811 259.984ZM99.8352 256.636C98.4852 258.328 96.8292 259.786 94.8672 261.046L95.6952 262.144C97.7112 260.812 99.4032 259.246 100.771 257.464L99.8352 256.636Z" fill="white"/>
<path d="M118.015 260.218C121.111 260.038 123.991 259.804 126.637 259.498C126.925 259.966 127.213 260.416 127.465 260.866L128.527 260.11C127.879 258.994 126.961 257.716 125.737 256.24L124.675 256.87C125.107 257.41 125.503 257.932 125.899 258.454C123.847 258.706 121.795 258.886 119.725 258.994C120.373 258.292 121.111 257.194 121.957 255.7H128.527V254.53H123.793C123.541 253.774 123.289 253.09 123.001 252.478L121.687 252.694C121.975 253.252 122.245 253.864 122.497 254.53H117.475V255.7H120.625C119.545 257.482 118.681 258.58 117.997 259.012C117.925 259.048 117.835 259.084 117.727 259.12L118.015 260.218ZM114.145 252.946L113.209 253.846C114.397 254.674 115.315 255.448 115.999 256.186L116.917 255.268C116.161 254.494 115.243 253.72 114.145 252.946ZM113.713 257.248L112.795 258.148C114.001 259.084 114.955 259.966 115.639 260.794L116.557 259.858C115.801 258.994 114.847 258.112 113.713 257.248ZM115.549 262.036C114.865 264.232 114.073 266.356 113.137 268.444L114.343 268.966C115.207 266.95 115.981 264.79 116.701 262.486L115.549 262.036ZM121.687 261.046V268.84H123.001V261.046H121.687ZM118.771 261.028C118.699 263.152 118.501 264.7 118.159 265.654C117.799 266.626 117.187 267.454 116.323 268.156L117.151 269.182C118.159 268.354 118.897 267.364 119.329 266.212C119.725 265.114 119.959 263.386 120.031 261.028H118.771ZM127.339 269.02C128.059 268.984 128.509 268.786 128.725 268.462C128.941 268.102 129.049 267.13 129.049 265.546L127.915 265.114C127.915 266.068 127.879 266.77 127.807 267.202C127.771 267.598 127.591 267.796 127.267 267.832H126.475C126.241 267.796 126.133 267.652 126.133 267.382V261.046H124.891V267.616C124.891 268.552 125.395 269.02 126.439 269.02H127.339Z" fill="white"/>
<path d="M132.901 264.88L132.091 265.636C132.757 266.14 133.423 266.734 134.089 267.454C134.665 268.066 135.187 268.678 135.619 269.29L136.519 268.534C136.087 267.922 135.565 267.292 134.971 266.68C134.287 265.96 133.585 265.366 132.901 264.88Z" fill="white"/>
<path d="M42.3321 295.59L42.1701 296.67H44.2041L43.4661 301.296H41.6481L41.4861 302.376H43.3041L42.8181 305.4H44.0241L44.5101 302.376H47.2281L46.7421 305.4H47.9481L48.4341 302.376H50.4681L50.6301 301.296H48.5961L49.3341 296.67H51.1521L51.3141 295.59H49.4961L49.9821 292.548H48.7941L48.3081 295.59H45.5721L46.0581 292.548H44.8701L44.3841 295.59H42.3321ZM44.6721 301.296L45.4101 296.67H48.1281L47.3901 301.296H44.6721Z" fill="white"/>
<path d="M61.4052 298.254H65.8332V300.954H61.4052V298.254ZM65.8332 302.16V304.572C65.8332 306.138 66.5532 306.93 68.0292 306.93H72.6552C73.5012 306.93 74.0772 306.768 74.4012 306.462C74.7252 306.138 74.9232 305.202 75.0312 303.672L73.8072 303.258C73.7352 304.482 73.6092 305.184 73.4292 305.4C73.2132 305.598 72.8892 305.706 72.4392 305.706H68.3352C67.5432 305.706 67.1472 305.256 67.1472 304.374V302.16H72.9792V293.196H67.1472V290.73H65.8332V293.196H60.1092V303.69H61.4052V302.16H65.8332ZM67.1472 300.954V298.254H71.7012V300.954H67.1472ZM71.7012 297.066H67.1472V294.42H71.7012V297.066ZM65.8332 294.42V297.066H61.4052V294.42H65.8332Z" fill="white"/>
<path d="M76.9212 298.434V299.694H84.4992V305.04C84.4992 305.58 84.2112 305.868 83.6352 305.868C82.5912 305.868 81.6372 305.85 80.7372 305.814L81.0792 307.074H84.1572C85.2552 307.074 85.8132 306.534 85.8132 305.454V299.694H92.6532V298.434H85.8132V296.544C87.6492 295.338 89.2692 294.06 90.6912 292.71V291.486H78.8112V292.71H88.9272C87.5232 293.934 86.0472 294.996 84.4992 295.878V298.434H76.9212Z" fill="white"/>
<path d="M105.631 294.69H108.295C108.223 297.12 107.845 299.244 107.143 301.062C106.423 299.55 105.847 297.732 105.397 295.626L105.631 294.69ZM106.549 302.358C105.721 303.888 104.623 305.13 103.219 306.102L103.885 307.182C105.235 306.21 106.351 305.004 107.215 303.564C108.115 305.076 109.195 306.3 110.455 307.2L111.157 306.138C109.861 305.256 108.763 304.014 107.827 302.394C108.835 300.27 109.393 297.696 109.483 294.69H110.653V293.448H105.901C106.045 292.656 106.189 291.792 106.297 290.874L105.037 290.658C104.677 294.078 103.957 296.796 102.895 298.812L103.705 299.802C104.083 299.154 104.443 298.416 104.767 297.588C105.253 299.388 105.847 300.972 106.549 302.358ZM98.0172 299.064C97.8912 299.424 97.7472 299.802 97.5852 300.198H94.9572V301.332H97.0812C96.7212 302.052 96.3072 302.79 95.8392 303.582C96.7212 303.906 97.5492 304.248 98.3412 304.59C97.2972 305.184 96.0192 305.67 94.5432 306.066L95.1552 307.146C96.9552 306.642 98.4492 305.976 99.6372 305.148C100.699 305.616 101.617 306.102 102.409 306.57L103.111 305.562C102.319 305.13 101.491 304.734 100.627 304.338C101.563 303.474 102.229 302.448 102.625 301.26V300.198H98.8632C98.9712 299.874 99.0972 299.55 99.2232 299.208L98.0172 299.064ZM99.4392 303.834C98.7912 303.564 98.1072 303.312 97.3872 303.06C97.7472 302.52 98.0712 301.944 98.3592 301.332H101.455C101.023 302.268 100.339 303.114 99.4392 303.834ZM96.3792 291.036L95.3532 291.378C95.7852 292.062 96.1812 292.836 96.5592 293.718L97.4952 293.286C97.1712 292.494 96.8112 291.738 96.3792 291.036ZM101.851 290.982C101.527 291.738 101.059 292.494 100.483 293.268L101.401 293.736C101.977 292.98 102.427 292.206 102.787 291.414L101.851 290.982ZM94.9932 294.15V295.284H97.5492C97.0092 296.274 96.0372 297.174 94.6512 297.984L95.2812 299.028C96.8292 297.984 97.9092 296.76 98.5032 295.338V298.758H99.7092V296.418C100.357 296.85 101.131 297.426 102.031 298.146L102.697 297.138C101.689 296.526 100.681 295.968 99.7092 295.482V295.284H102.985V294.15H99.7092V290.712H98.5032V294.15H94.9932Z" fill="white"/>
<path d="M118.591 297.012H115.279C115.747 295.752 116.089 294.402 116.341 292.962H119.059V291.702H112.921V292.962H115.117C114.685 295.644 113.785 298.038 112.417 300.126L113.065 301.17C113.497 300.558 113.893 299.928 114.253 299.28V306.606H115.459V305.238H117.403V306.264H118.591V297.012ZM115.459 304.068V298.2H117.403V304.068H115.459ZM121.021 293.934L120.049 299.766H127.321C127.321 302.646 127.177 304.392 126.889 305.004C126.619 305.58 125.791 305.886 124.405 305.886C124.081 305.886 123.523 305.85 122.731 305.778L123.091 307.038C123.667 307.074 124.207 307.092 124.711 307.092C126.295 307.092 127.321 306.75 127.825 306.102C128.293 305.418 128.545 302.916 128.545 298.56H126.637L127.627 291.45H119.887V292.674H126.223L125.323 298.56H121.507L122.299 294.024L121.021 293.934ZM119.491 302.052V303.276H126.079V302.052H119.491Z" fill="white"/>
<path d="M132.901 302.88L132.091 303.636C132.757 304.14 133.423 304.734 134.089 305.454C134.665 306.066 135.187 306.678 135.619 307.29L136.519 306.534C136.087 305.922 135.565 305.292 134.971 304.68C134.287 303.96 133.585 303.366 132.901 302.88Z" fill="white"/>
<path d="M43.988 341.258C43.682 341.258 43.43 341.348 43.232 341.564C43.016 341.762 42.908 342.014 42.908 342.32C42.908 342.626 43.016 342.878 43.232 343.094C43.43 343.292 43.682 343.4 43.988 343.4C44.294 343.4 44.564 343.292 44.78 343.094C44.978 342.896 45.086 342.644 45.086 342.32C45.086 342.014 44.978 341.762 44.78 341.564C44.564 341.348 44.312 341.258 43.988 341.258ZM50 341.258C49.694 341.258 49.442 341.348 49.226 341.564C49.01 341.762 48.92 342.014 48.92 342.32C48.92 342.626 49.01 342.878 49.226 343.094C49.442 343.292 49.694 343.4 50 343.4C50.306 343.4 50.576 343.292 50.792 343.094C50.99 342.896 51.098 342.644 51.098 342.32C51.098 342.014 50.99 341.762 50.792 341.564C50.576 341.348 50.306 341.258 50 341.258ZM55.994 341.258C55.688 341.258 55.436 341.348 55.22 341.564C55.004 341.762 54.914 342.014 54.914 342.32C54.914 342.626 55.004 342.878 55.22 343.094C55.436 343.292 55.688 343.4 55.994 343.4C56.3 343.4 56.552 343.292 56.768 343.094C56.984 342.896 57.092 342.644 57.092 342.32C57.092 342.014 56.984 341.762 56.768 341.564C56.552 341.348 56.3 341.258 55.994 341.258Z" fill="white"/>
<path d="M290 48.9C290 55.4 292.2 60.5 296.6 64.2C301 68 307 69.9 314.6 69.9L387.5 69.9L387.5 97.8L313.55 97.8C303.35 97.8 294.5 95.8 287 91.8C279.5 87.9 273.75 82.25 269.75 74.85C265.85 67.55 263.9 58.9 263.9 48.9C263.9 38.9 265.85 30.2 269.75 22.8C273.75 15.5 279.5 9.85 287 5.85C294.5 1.95 303.35 -3.77011e-06 313.55 -3.32425e-06L387.5 -9.17938e-08L387.5 27.9L315.2 27.9C307.5 27.9 301.35 29.8 296.75 33.6C292.25 37.4 290 42.5 290 48.9Z" fill="white" fill-opacity="0.1"/>
<path d="M314.9 174.941L291.2 174.941L291.2 229.391L266 229.391L266 147.041L387.5 147.041L387.5 227.591L362.3 227.591L362.3 174.941L340.1 174.941L340.1 224.741L314.9 224.741L314.9 174.941Z" fill="white" fill-opacity="0.1"/>
<path d="M263.9 315.553C263.9 304.253 266.7 294.403 272.3 286.003C277.9 277.703 285.3 271.553 294.5 267.553L305.75 291.703C300.35 293.703 296.25 296.803 293.45 301.003C290.65 305.303 289.25 310.203 289.25 315.703C289.25 321.403 290.25 325.903 292.25 329.203C294.35 332.603 297.05 334.303 300.35 334.303C302.65 334.303 304.55 333.703 306.05 332.503C307.55 331.303 308.95 329.153 310.25 326.053C311.65 322.953 313.2 318.353 314.9 312.253C317.2 304.153 319.5 297.403 321.8 292.003C324.1 286.703 327.7 282.003 332.6 277.903C337.6 273.803 344.15 271.753 352.25 271.753C359.45 271.753 365.85 273.753 371.45 277.753C377.15 281.853 381.6 287.353 384.8 294.253C388 301.253 389.6 308.953 389.6 317.353C389.6 338.753 379.75 354.103 360.05 363.403L348.8 339.403C354.3 336.803 358.25 333.703 360.65 330.103C363.05 326.503 364.25 322.153 364.25 317.053C364.25 312.253 363.2 308.253 361.1 305.053C359.1 301.853 356.6 300.253 353.6 300.253C351.2 300.253 349.2 300.853 347.6 302.053C346.1 303.353 344.7 305.503 343.4 308.503C342.1 311.603 340.6 316.253 338.9 322.453C336.8 330.353 334.6 337.003 332.3 342.403C330 347.803 326.4 352.553 321.5 356.653C316.6 360.753 310.05 362.803 301.85 362.803C294.25 362.803 287.55 360.803 281.75 356.803C276.05 352.803 271.65 347.203 268.55 340.003C265.45 332.903 263.9 324.753 263.9 315.553Z" fill="white" fill-opacity="0.1"/>
<path d="M266 459.552L266 431.652L361.4 431.652L361.4 399.102L387.5 399.102L387.5 492.102L361.4 492.102L361.4 459.552L266 459.552Z" fill="white" fill-opacity="0.1"/>
<path d="M294.05 630.063C284.35 625.563 276.9 619.263 271.7 611.163C266.5 603.163 263.9 593.863 263.9 583.263C263.9 572.363 266.6 562.613 272 554.013C277.4 545.413 284.9 538.663 294.5 533.763C304.2 528.963 315.15 526.563 327.35 526.563C339.35 526.563 350.05 529.013 359.45 533.913C368.95 538.813 376.35 545.663 381.65 554.463C386.95 563.263 389.6 573.363 389.6 584.763C389.6 605.263 379.55 620.263 359.45 629.763L348.65 605.013C353.55 603.013 357.25 600.113 359.75 596.313C362.25 592.613 363.5 588.213 363.5 583.113C363.5 577.713 361.95 572.863 358.85 568.563C355.75 564.363 351.45 561.063 345.95 558.663C340.55 556.363 334.35 555.213 327.35 555.213C320.15 555.213 313.7 556.363 308 558.663C302.4 561.063 298 564.363 294.8 568.563C291.6 572.863 290 577.713 290 583.113C290 592.613 294.95 600.013 304.85 605.313L294.05 630.063Z" fill="white" fill-opacity="0.1"/>
<rect x="33" y="147.4" width="118" height="16" rx="8" fill="white" fill-opacity="0.1"/>
<rect x="33" y="185.4" width="118" height="16" rx="8" fill="white" fill-opacity="0.1"/>
<rect x="33" y="223.4" width="118" height="16" rx="8" fill="white" fill-opacity="0.1"/>
<rect x="33" y="261.4" width="118" height="16" rx="8" fill="white" fill-opacity="0.1"/>
<rect x="33" y="299.4" width="118" height="16" rx="8" fill="white" fill-opacity="0.1"/>
<path d="M47.174 587.208C45.564 587.208 44.248 587.726 43.212 588.776C42.218 589.756 41.728 590.974 41.728 592.444C41.728 594.012 42.218 595.258 43.212 596.21C44.178 597.134 45.494 597.596 47.174 597.596C48.28 597.596 49.274 597.372 50.17 596.938C51.094 596.49 51.794 595.846 52.284 595.006H51.304C50.912 595.566 50.394 596 49.75 596.322C49.022 596.672 48.154 596.854 47.174 596.854C45.802 596.854 44.724 596.476 43.94 595.748C43.1 594.978 42.694 593.886 42.694 592.472C42.694 591.184 43.1 590.106 43.926 589.266C44.766 588.412 45.83 587.992 47.118 587.992C48.322 587.992 49.302 588.342 50.03 589.056C50.702 589.714 51.038 590.54 51.038 591.534C51.038 592.402 50.786 593.158 50.282 593.802C49.848 594.348 49.414 594.628 48.98 594.628C48.714 594.628 48.588 594.502 48.588 594.278C48.588 594.11 48.644 593.83 48.756 593.424L49.75 589.77H48.84L48.63 590.554C48.406 589.854 47.958 589.504 47.286 589.504C46.446 589.504 45.732 589.868 45.116 590.624C44.472 591.38 44.164 592.29 44.164 593.326C44.164 593.928 44.346 594.432 44.71 594.824C45.074 595.216 45.55 595.426 46.138 595.426C46.838 595.426 47.426 595.104 47.902 594.474C47.958 595.09 48.28 595.398 48.868 595.398C49.596 595.398 50.268 595.006 50.884 594.236C51.5 593.424 51.822 592.528 51.822 591.52C51.822 590.316 51.43 589.322 50.646 588.524C49.792 587.642 48.63 587.208 47.174 587.208ZM47.44 590.386C47.72 590.386 47.944 590.498 48.126 590.722C48.28 590.904 48.364 591.128 48.364 591.38C48.364 591.464 48.308 591.688 48.224 592.052L47.916 593.2C47.804 593.564 47.58 593.9 47.244 594.18C46.908 594.46 46.558 594.6 46.208 594.6C45.858 594.6 45.592 594.488 45.41 594.264C45.228 594.04 45.144 593.746 45.144 593.368C45.144 592.542 45.382 591.842 45.858 591.254C46.306 590.666 46.838 590.386 47.44 590.386Z" fill="white" fill-opacity="0.6"/>
<path d="M54.0256 587.404V593.564C54.0256 594.866 54.3616 595.86 55.0336 596.56C55.7056 597.246 56.6996 597.596 58.0156 597.596C59.3316 597.596 60.3256 597.246 61.0116 596.546C61.6696 595.86 62.0056 594.866 62.0056 593.564V587.404H60.8576V593.578C60.8576 594.558 60.6336 595.3 60.1996 595.804C59.7236 596.322 58.9956 596.588 58.0156 596.588C57.0216 596.588 56.2936 596.322 55.8316 595.804C55.3836 595.3 55.1736 594.558 55.1736 593.578V587.404H54.0256Z" fill="white" fill-opacity="0.6"/>
<path d="M64.0197 587.404V597.4H71.3417V596.406H65.1677V592.738H70.7677V591.744H65.1677V588.398H71.1037V587.404H64.0197Z" fill="white" fill-opacity="0.6"/>
<path d="M76.2938 587.208C75.2578 587.208 74.4038 587.432 73.7458 587.88C73.0038 588.356 72.6398 589.042 72.6398 589.91C72.6398 590.75 73.0178 591.394 73.7878 591.842C74.1098 592.01 74.8798 592.29 76.0838 592.654C77.2038 592.976 77.9178 593.214 78.1978 593.382C78.8558 593.732 79.1918 594.222 79.1918 594.852C79.1918 595.384 78.9398 595.804 78.4358 596.112C77.9318 596.42 77.2598 596.574 76.4478 596.574C75.5518 596.574 74.8798 596.378 74.4178 596.014C73.9138 595.608 73.6058 594.964 73.5078 594.096H72.3738C72.4578 595.328 72.8918 596.238 73.6758 596.84C74.3478 597.344 75.2718 597.596 76.4478 597.596C77.6378 597.596 78.5758 597.344 79.2758 596.854C79.9758 596.35 80.3258 595.65 80.3258 594.782C80.3258 593.872 79.9058 593.172 79.0798 592.668C78.6598 592.416 77.7918 592.094 76.4758 591.702C75.5098 591.422 74.8938 591.212 74.6418 591.072C74.0678 590.764 73.7878 590.358 73.7878 589.854C73.7878 589.28 74.0258 588.86 74.5018 588.58C74.9218 588.328 75.4958 588.216 76.2378 588.216C77.0498 588.216 77.6798 588.384 78.1278 588.748C78.5618 589.098 78.8418 589.63 78.9678 590.358H80.1018C80.0038 589.308 79.6258 588.51 78.9538 587.978C78.3098 587.46 77.4138 587.208 76.2938 587.208Z" fill="white" fill-opacity="0.6"/>
<path d="M81.0095 587.404V588.398H84.5375V597.4H85.6715V588.398H89.1995V587.404H81.0095Z" fill="white" fill-opacity="0.6"/>
<path d="M94.7595 587.208C93.2195 587.208 92.0155 587.726 91.1755 588.79C90.4055 589.742 90.0275 590.96 90.0275 592.444C90.0275 593.928 90.3915 595.132 91.1475 596.056C91.9735 597.078 93.1635 597.596 94.7175 597.596C95.7815 597.596 96.7055 597.288 97.4755 596.686C98.3015 596.042 98.8195 595.132 99.0435 593.97H97.9375C97.7415 594.838 97.3355 595.496 96.7475 595.944C96.1875 596.364 95.5155 596.574 94.7175 596.574C93.5415 596.574 92.6595 596.182 92.0435 595.412C91.4555 594.684 91.1755 593.69 91.1755 592.444C91.1755 591.198 91.4695 590.204 92.0575 589.448C92.6875 588.636 93.5835 588.23 94.7455 588.23C95.5295 588.23 96.1875 588.412 96.7335 588.79C97.2935 589.182 97.6575 589.742 97.7975 590.47H98.9035C98.7635 589.476 98.3155 588.678 97.5595 588.09C96.8035 587.502 95.8655 587.208 94.7595 587.208Z" fill="white" fill-opacity="0.6"/>
<path d="M105.295 587.404V597.4H109.733C110.755 597.4 111.567 597.19 112.155 596.798C112.841 596.322 113.191 595.594 113.191 594.614C113.191 593.942 112.995 593.41 112.631 592.99C112.267 592.57 111.763 592.29 111.105 592.178C111.609 592.01 112.015 591.744 112.323 591.38C112.617 590.974 112.771 590.484 112.771 589.924C112.771 589.14 112.505 588.524 111.973 588.076C111.427 587.628 110.685 587.404 109.761 587.404H105.295ZM106.443 588.37H109.495C110.195 588.37 110.727 588.496 111.091 588.776C111.455 589.056 111.637 589.476 111.637 590.036C111.637 590.61 111.441 591.044 111.077 591.338C110.713 591.618 110.181 591.772 109.481 591.772H106.443V588.37ZM106.443 592.724H109.635C110.405 592.724 110.993 592.864 111.399 593.172C111.819 593.48 112.043 593.956 112.043 594.6C112.043 595.244 111.791 595.734 111.301 596.042C110.881 596.294 110.335 596.434 109.635 596.434H106.443V592.724Z" fill="white" fill-opacity="0.6"/>
<path d="M114.77 587.404V597.4H119.208C120.23 597.4 121.042 597.19 121.63 596.798C122.316 596.322 122.666 595.594 122.666 594.614C122.666 593.942 122.47 593.41 122.106 592.99C121.742 592.57 121.238 592.29 120.58 592.178C121.084 592.01 121.49 591.744 121.798 591.38C122.092 590.974 122.246 590.484 122.246 589.924C122.246 589.14 121.98 588.524 121.448 588.076C120.902 587.628 120.16 587.404 119.236 587.404H114.77ZM115.918 588.37H118.97C119.67 588.37 120.202 588.496 120.566 588.776C120.93 589.056 121.112 589.476 121.112 590.036C121.112 590.61 120.916 591.044 120.552 591.338C120.188 591.618 119.656 591.772 118.956 591.772H115.918V588.37ZM115.918 592.724H119.11C119.88 592.724 120.468 592.864 120.874 593.172C121.294 593.48 121.518 593.956 121.518 594.6C121.518 595.244 121.266 595.734 120.776 596.042C120.356 596.294 119.81 596.434 119.11 596.434H115.918V592.724Z" fill="white" fill-opacity="0.6"/>
<path d="M127.604 587.208C126.568 587.208 125.714 587.432 125.056 587.88C124.314 588.356 123.95 589.042 123.95 589.91C123.95 590.75 124.328 591.394 125.098 591.842C125.42 592.01 126.19 592.29 127.394 592.654C128.514 592.976 129.228 593.214 129.508 593.382C130.166 593.732 130.502 594.222 130.502 594.852C130.502 595.384 130.25 595.804 129.746 596.112C129.242 596.42 128.57 596.574 127.758 596.574C126.862 596.574 126.19 596.378 125.728 596.014C125.224 595.608 124.916 594.964 124.818 594.096H123.684C123.768 595.328 124.202 596.238 124.986 596.84C125.658 597.344 126.582 597.596 127.758 597.596C128.948 597.596 129.886 597.344 130.586 596.854C131.286 596.35 131.636 595.65 131.636 594.782C131.636 593.872 131.216 593.172 130.39 592.668C129.97 592.416 129.102 592.094 127.786 591.702C126.82 591.422 126.204 591.212 125.952 591.072C125.378 590.764 125.098 590.358 125.098 589.854C125.098 589.28 125.336 588.86 125.812 588.58C126.232 588.328 126.806 588.216 127.548 588.216C128.36 588.216 128.99 588.384 129.438 588.748C129.872 589.098 130.152 589.63 130.278 590.358H131.412C131.314 589.308 130.936 588.51 130.264 587.978C129.62 587.46 128.724 587.208 127.604 587.208Z" fill="white" fill-opacity="0.6"/>
</svg>
