<svg width="11" height="3" viewBox="0 0 11 3" fill="none" xmlns="http://www.w3.org/2000/svg">
<path fill-rule="evenodd" clip-rule="evenodd" d="M1.42593 3C0.638409 3 0 2.32843 0 1.5C0 0.671573 0.638409 0 1.42593 0C2.21344 0 2.85185 0.671573 2.85185 1.5C2.85185 2.32843 2.21344 3 1.42593 3ZM5.50005 3C4.71253 3 4.07412 2.32843 4.07412 1.5C4.07412 0.671573 4.71253 0 5.50005 0C6.28757 0 6.92598 0.671573 6.92598 1.5C6.92598 2.32843 6.28757 3 5.50005 3ZM8.1481 1.5C8.1481 2.32843 8.78651 3 9.57402 3C10.3615 3 10.9999 2.32843 10.9999 1.5C10.9999 0.671573 10.3615 0 9.57402 0C8.78651 0 8.1481 0.671573 8.1481 1.5Z" fill="#6D6D6D"/>
</svg>
