<svg width="17" height="17" viewBox="0 0 17 17" fill="none" xmlns="http://www.w3.org/2000/svg">
<g clip-path="url(#clip0_483_44)">
<path d="M12.5757 9.63143C12.1293 10.0878 11.8804 10.8846 11.9868 11.5273L12.5852 15.1783L9.45837 13.4593C8.90177 13.155 8.09632 13.1531 7.54163 13.4593L4.41482 15.1783L5.0132 11.5273C5.11768 10.8846 4.87073 10.0878 4.42431 9.63143L1.88449 7.0415L5.38933 6.50906C6.00862 6.41398 6.6602 5.91958 6.93754 5.33389L8.50095 2.02136L10.0625 5.33389C10.3398 5.91958 10.9914 6.41398 11.6107 6.50906L15.1155 7.0415L12.5757 9.63143ZM16.6238 7.57013C16.9563 7.23166 17.0759 6.81141 16.9525 6.41779C16.829 6.02606 16.4946 5.76174 16.0349 5.69139L11.8158 5.05056C11.662 5.02774 11.4074 4.83188 11.3371 4.68546L9.45077 0.684564C9.24561 0.249105 8.89797 0 8.49905 0C8.10202 0 7.75439 0.251007 7.54923 0.684564L5.66288 4.68546C5.5926 4.83378 5.33804 5.02774 5.18227 5.05056L0.963165 5.69139C0.503451 5.76174 0.171014 6.02606 0.047537 6.41779C-0.0759398 6.80951 0.0437379 7.22975 0.376175 7.57013L3.4289 10.683C3.54288 10.799 3.64166 11.1166 3.61317 11.2801L2.8913 15.6765C2.81342 16.1557 2.95209 16.5702 3.27503 16.8117C3.4422 16.9372 3.63596 17 3.83923 17C4.02919 17 4.23055 16.9449 4.42811 16.8365L8.20271 14.76C8.33758 14.6858 8.65672 14.6858 8.79159 14.76L12.5643 16.8365C12.9746 17.0628 13.3963 17.0532 13.7174 16.8117C14.0403 16.5683 14.1809 16.1557 14.103 15.6765L13.3811 11.2801C13.3545 11.1166 13.4533 10.799 13.5654 10.683L16.6238 7.57013Z" fill="#0092FF"/>
</g>
<defs>
<clipPath id="clip0_483_44">
<rect width="17" height="17" fill="white"/>
</clipPath>
</defs>
</svg>
