<svg width="24" height="24" viewBox="0 0 24 24" fill="none" xmlns="http://www.w3.org/2000/svg">
<rect width="24" height="24" fill="white" fill-opacity="0.01"/>
<path d="M11.7414 11.25C12.2991 10.6842 12.2966 9.78448 11.7414 9.2293C11.1872 8.67513 10.289 8.67209 9.72072 9.2293L5.17321 13.7748C3.77946 15.1807 3.78299 17.4363 5.17321 18.8265C6.56394 20.2172 8.81951 20.2208 10.2249 18.8265L18.8127 10.2386C20.207 8.84436 20.207 6.5812 18.8127 5.18693C17.419 3.79316 15.1553 3.79266 13.761 5.18693L13.5095 5.44052C13.0912 5.8588 12.4123 5.8588 11.994 5.44052C11.5762 5.02275 11.5757 4.3443 11.994 3.92501L12.2455 3.67142C14.4865 1.4416 18.1009 1.44412 20.3282 3.67142C22.5555 5.89871 22.559 9.51219 20.3282 11.7541L11.7399 20.3415C9.50653 22.5577 5.89762 22.5526 3.67236 20.3274C1.44761 18.1026 1.44205 14.4932 3.65872 12.2603L8.20522 7.71379C9.60757 6.31952 11.8657 6.32255 13.2569 7.71379C14.6481 9.10503 14.6512 11.3631 13.2569 12.7655L8.96297 17.0594C8.54469 17.4777 7.86575 17.4777 7.44747 17.0594C7.02919 16.6411 7.02919 15.9622 7.44747 15.5439L11.7414 11.25Z" fill="#004DFF"/>
</svg>
