<svg width="14" height="17" viewBox="0 0 14 17" fill="none" xmlns="http://www.w3.org/2000/svg">
<path d="M10.8519 6.08691L7 2.21238L3.14808 6.08691C2.62974 6.61345 2.23481 7.21083 1.96339 7.88381C1.69231 8.55667 1.55615 9.24845 1.55615 9.96155C1.55615 10.6745 1.69129 11.3664 1.95989 12.0369C2.23018 12.7051 2.62523 13.3025 3.14808 13.829C3.67026 14.3532 4.26571 14.7545 4.93455 15.0261C5.60339 15.3 6.29221 15.4369 7.00068 15.4369C7.7131 15.4369 8.40294 15.3 9.0694 15.0261C9.73598 14.7546 10.3297 14.3532 10.853 13.829C11.3744 13.3025 11.771 12.7075 12.0399 12.0393C12.3082 11.3798 12.4457 10.674 12.4444 9.96155C12.4444 9.24845 12.3101 8.55429 12.0399 7.88369C11.7711 7.21083 11.3744 6.61345 10.853 6.08691H10.8519ZM2.04795 4.98191L7.00011 0L11.9523 4.98191C12.6244 5.65726 13.1337 6.42691 13.4797 7.29107C13.8267 8.15524 14 9.04547 14 9.96155C14 10.8824 13.8267 11.7725 13.4797 12.6319C13.1337 13.489 12.6244 14.2588 11.9523 14.9364C11.2802 15.6117 10.5145 16.124 9.65469 16.4758C8.79629 16.8252 7.91147 17 7.00011 17C6.08876 17 5.20382 16.8252 4.34531 16.4758C3.48555 16.124 2.71961 15.6117 2.04795 14.9364C1.37889 14.2587 0.871048 13.489 0.522177 12.6273C0.174435 11.7677 0 10.8776 0 9.96155C0 9.04536 0.174435 8.15524 0.522177 7.29107C0.871048 6.42691 1.37889 5.65726 2.04795 4.98191Z" fill="#929292"/>
</svg>
