<svg width="20" height="20" viewBox="0 0 20 20" fill="none" xmlns="http://www.w3.org/2000/svg">
<path d="M9.9999 16.25C6.94428 16.25 4.21824 14.3217 1.82782 10.5546C1.72246 10.3888 1.6665 10.1964 1.6665 10C1.6665 9.80357 1.72246 9.6112 1.82782 9.44542C4.21824 5.67833 6.94428 3.75 9.9999 3.75C13.0555 3.75 15.7816 5.67833 18.172 9.44542C18.2773 9.6112 18.3333 9.80357 18.3333 10C18.3333 10.1964 18.2773 10.3888 18.172 10.5546C15.7816 14.3217 13.0555 16.25 9.9999 16.25ZM9.9999 5C7.47032 5 5.12761 6.63771 2.96636 10C5.12761 13.3623 7.47032 15 9.9999 15C12.5295 15 14.8722 13.3623 17.0334 10C14.8722 6.63771 12.5295 5 9.9999 5ZM9.9999 12.9167C8.37469 12.9167 7.05719 11.6108 7.05719 10C7.05719 8.38917 8.37469 7.08333 9.9999 7.08333C11.6251 7.08333 12.9426 8.38917 12.9426 10C12.9426 11.6108 11.6251 12.9167 9.9999 12.9167ZM9.9999 11.6667C10.9287 11.6667 11.6816 10.9204 11.6816 10C11.6816 9.07958 10.9287 8.33333 9.9999 8.33333C9.07115 8.33333 8.31823 9.07958 8.31823 10C8.31823 10.9204 9.07115 11.6667 9.9999 11.6667Z" fill="#6B6B6B"/>
</svg>
