<svg width="29" height="29" viewBox="0 0 29 29" fill="none" xmlns="http://www.w3.org/2000/svg">
<rect width="29" height="29" rx="14.5" fill="#EEEEEE"/>
<path fill-rule="evenodd" clip-rule="evenodd" d="M10.4259 16C9.63841 16 9 15.3284 9 14.5C9 13.6716 9.63841 13 10.4259 13C11.2134 13 11.8519 13.6716 11.8519 14.5C11.8519 15.3284 11.2134 16 10.4259 16ZM14.5 16C13.7125 16 13.0741 15.3284 13.0741 14.5C13.0741 13.6716 13.7125 13 14.5 13C15.2876 13 15.926 13.6716 15.926 14.5C15.926 15.3284 15.2876 16 14.5 16ZM17.1481 14.5C17.1481 15.3284 17.7865 16 18.574 16C19.3615 16 19.9999 15.3284 19.9999 14.5C19.9999 13.6716 19.3615 13 18.574 13C17.7865 13 17.1481 13.6716 17.1481 14.5Z" fill="#6D6D6D"/>
</svg>
