<svg width="20" height="20" viewBox="0 0 20 20" fill="none" xmlns="http://www.w3.org/2000/svg">
<path d="M12.142 7.969C12.4666 6.519 12.6933 5.47025 12.8224 4.82067C13.1474 3.18525 12.3035 1.6665 10.6308 1.6665C9.12242 1.6665 8.36492 2.41609 7.91826 3.91442L7.9068 3.95817C7.63867 5.17025 7.22867 6.10983 6.68596 6.78213C6.40357 7.13283 6.04797 7.4176 5.64403 7.61653C5.24009 7.81546 4.79757 7.92374 4.34742 7.93379L3.9195 7.94296C2.89909 7.96483 2.08325 8.80483 2.08325 9.83379V16.0415C2.08325 17.3071 3.10096 18.3332 4.35659 18.3332H12.4137C14.0687 18.3332 15.546 17.2869 16.1074 15.7175L17.7812 11.0382C18.207 9.84754 17.5949 8.53421 16.4139 8.10483C16.1667 8.01496 15.9057 7.96899 15.6426 7.969H12.142ZM10.6299 2.9165C11.3966 2.9165 11.792 3.629 11.6043 4.57525C11.4564 5.32025 11.1749 6.61483 10.7601 8.45546C10.672 8.8465 10.9664 9.219 11.3639 9.219H15.6347C15.7539 9.219 15.8722 9.23983 15.9845 9.28087C16.5206 9.47587 16.7985 10.073 16.6051 10.6142L14.9339 15.2934C14.5503 16.3675 13.541 17.0832 12.4101 17.0832H4.36513C3.79513 17.0832 3.33325 16.6167 3.33325 16.0415V9.83379C3.33325 9.48483 3.6095 9.20004 3.95492 9.19275L4.382 9.18358C5.01153 9.16938 5.63033 9.01769 6.19505 8.73915C6.75977 8.4606 7.25676 8.06194 7.65117 7.57108C8.32201 6.739 8.80638 5.6315 9.11347 4.25317C9.41597 3.24859 9.7568 2.9165 10.6301 2.9165H10.6299Z" fill="#6B6B6B"/>
</svg>
