<svg width="24" height="24" viewBox="0 0 24 24" fill="none" xmlns="http://www.w3.org/2000/svg">
<path fill-rule="evenodd" clip-rule="evenodd" d="M0.00012207 12.0004C0.00012207 5.38348 5.38995 0 12.0146 0C18.6231 0 24.0001 5.38348 24.0001 12.0004V12.0777C24.0001 14.3259 23.2352 16.4172 21.9534 17.6719C21.1943 18.4151 20.3125 18.8069 19.3992 18.8069C19.3812 18.8069 19.3625 18.8069 19.3437 18.8064C18.0261 18.7835 17.0266 17.9533 16.3708 16.3378C15.3559 17.8933 13.7689 18.8073 12.0658 18.8073C12.0407 18.8073 12.0157 18.8069 11.99 18.8065L11.9831 18.8064C9.0468 18.7554 6.70583 15.9932 6.76382 12.6496C6.82266 9.33669 9.23698 6.6764 12.163 6.6764C12.1903 6.6764 12.2176 6.67681 12.2457 6.67725C13.6324 6.70148 14.5807 7.3282 15.7969 8.29613V7.46333C15.7969 7.34606 15.8096 7.19905 15.9077 7.10217C16.013 6.99772 16.1625 6.99717 16.361 6.99644L16.3785 6.99638L16.6266 6.99681L16.6932 6.99638C16.7008 6.99642 16.7084 6.99645 16.7159 6.99649C16.9455 6.99756 17.1366 6.99845 17.2654 7.12681C17.3447 7.20498 17.3831 7.31503 17.3831 7.46333V12.4308C17.3831 15.2229 18.1797 17.0406 19.4128 17.0618H19.4367C20.1164 17.0618 20.8234 16.5554 21.3794 15.6677C21.9909 14.6926 22.3405 13.389 22.3644 11.9983C22.3644 6.34546 17.7481 1.74465 12.0735 1.74465C6.39796 1.74465 1.78167 6.34545 1.78167 12.0004C1.78167 17.6554 6.39796 22.2558 12.0735 22.2558C13.258 22.2558 14.4187 22.0565 15.524 21.6643C15.9086 21.5288 16.0638 21.4485 16.0647 21.4476C16.4732 21.2675 16.9533 21.4366 17.1452 21.819L17.2228 21.9754C17.3157 22.1606 17.3285 22.3705 17.2577 22.5664C17.1878 22.7635 17.042 22.9199 16.8484 23.0061C16.8373 23.0117 16.497 23.174 16.0015 23.3448C14.7394 23.7795 13.4124 24 12.0589 24C5.40955 24 0.00012207 18.617 0.00012207 12.0004ZM12.0735 17.2722C14.0085 17.2722 15.582 15.2598 15.582 12.7869C15.582 10.3136 14.0085 8.30126 12.0735 8.30126C10.1384 8.30126 8.56497 10.3136 8.56497 12.7869C8.56497 15.2598 10.1384 17.2722 12.0735 17.2722Z" fill="#707070"/>
</svg>
