<svg width="22" height="19" viewBox="0 0 22 19" fill="none" xmlns="http://www.w3.org/2000/svg">
<path d="M21.6667 10.5435V15.9792C21.6667 17.6245 20.3328 18.9583 18.6875 18.9583H2.97917C1.33385 18.9583 2.53906e-08 17.6245 0 15.9792V2.97917C0 1.33385 1.33385 0 2.97917 0H18.6875C20.3328 0 21.6667 1.33385 21.6667 2.97917V10.5435V10.5435ZM20.0417 8.64879V2.97917C20.0417 2.80134 20.0066 2.62525 19.9386 2.46095C19.8705 2.29665 19.7708 2.14737 19.645 2.02163C19.5193 1.89588 19.37 1.79613 19.2057 1.72808C19.0414 1.66003 18.8653 1.625 18.6875 1.625H2.97917C2.80133 1.625 2.62524 1.66003 2.46095 1.72808C2.29665 1.79613 2.14737 1.89588 2.02163 2.02163C1.89588 2.14737 1.79613 2.29665 1.72808 2.46095C1.66003 2.62525 1.625 2.80134 1.625 2.97917V11.7257C1.98365 11.6725 2.34575 11.6458 2.70833 11.6458C4.40716 11.6434 6.05342 12.2347 7.36233 13.3177C8.67587 9.89517 11.9735 7.58334 15.7083 7.58334C17.3767 7.58334 18.9329 8.00936 20.0417 8.64879V8.64879ZM20.0417 10.7369C19.9062 10.5257 19.5051 10.1871 18.9334 9.90113C18.0638 9.46617 16.9536 9.20834 15.7083 9.20834C12.6165 9.20834 9.89056 11.1448 8.84189 13.9994C8.77256 14.1884 8.65394 14.5153 8.48656 14.979C8.29156 15.5198 7.61177 15.6926 7.18223 15.3105C6.76487 14.9389 6.45721 14.674 6.26464 14.5196C5.25672 13.7093 4.00164 13.2685 2.70833 13.2708C2.34108 13.2708 1.97898 13.3055 1.625 13.3738V15.9792C1.625 16.157 1.66003 16.3331 1.72808 16.4974C1.79613 16.6617 1.89588 16.811 2.02163 16.9367C2.14737 17.0625 2.29665 17.1622 2.46095 17.2303C2.62524 17.2983 2.80133 17.3333 2.97917 17.3333H18.6875C18.8653 17.3333 19.0414 17.2983 19.2057 17.2303C19.37 17.1622 19.5193 17.0625 19.645 16.9367C19.7708 16.811 19.8705 16.6617 19.9386 16.4974C20.0066 16.3331 20.0417 16.157 20.0417 15.9792V10.7366V10.7369ZM5.95833 8.66667C5.31187 8.66667 4.69188 8.40986 4.23476 7.95274C3.77764 7.49562 3.52083 6.87563 3.52083 6.22917C3.52083 5.5827 3.77764 4.96271 4.23476 4.50559C4.69188 4.04847 5.31187 3.79167 5.95833 3.79167C6.6048 3.79167 7.22479 4.04847 7.68191 4.50559C8.13902 4.96271 8.39583 5.5827 8.39583 6.22917C8.39583 6.87563 8.13902 7.49562 7.68191 7.95274C7.22479 8.40986 6.6048 8.66667 5.95833 8.66667ZM5.95833 7.04167C6.17382 7.04167 6.38048 6.95607 6.53286 6.80369C6.68523 6.65132 6.77083 6.44466 6.77083 6.22917C6.77083 6.01368 6.68523 5.80702 6.53286 5.65464C6.38048 5.50227 6.17382 5.41667 5.95833 5.41667C5.74284 5.41667 5.53618 5.50227 5.38381 5.65464C5.23143 5.80702 5.14583 6.01368 5.14583 6.22917C5.14583 6.44466 5.23143 6.65132 5.38381 6.80369C5.53618 6.95607 5.74284 7.04167 5.95833 7.04167V7.04167Z" fill="#707070"/>
</svg>
