<svg width="20" height="20" viewBox="0 0 20 20" fill="none" xmlns="http://www.w3.org/2000/svg">
<path d="M3.07759 14.6736C2.86259 14.3086 2.72176 14.0638 2.65176 13.9332C2.00323 12.7237 1.6648 11.3722 1.66676 9.99984C1.66676 5.39755 5.3978 1.6665 10.0001 1.6665C14.6024 1.6665 18.3334 5.39755 18.3334 9.99984C18.3334 14.6021 14.6024 18.3332 10.0001 18.3332C8.49263 18.3354 7.01305 17.9269 5.7203 17.1515C5.59006 17.0744 5.45951 16.9978 5.32863 16.9217L3.28946 17.478C2.8228 17.605 2.39488 17.1769 2.52217 16.7105L3.07759 14.6736ZM4.35301 14.7475L4.01592 15.984L5.25238 15.6469C5.33238 15.6251 5.41593 15.6194 5.49816 15.6301C5.58039 15.6409 5.65966 15.6679 5.73134 15.7096C5.94248 15.8321 6.1531 15.9554 6.36321 16.0796C7.46176 16.7385 8.71912 17.0854 10.0001 17.0832C13.9122 17.0832 17.0834 13.9119 17.0834 9.99984C17.0834 6.08775 13.9122 2.9165 10.0001 2.9165C6.08801 2.9165 2.91676 6.08775 2.91676 9.99984C2.91676 11.1832 3.20676 12.3232 3.75322 13.3423C3.82572 13.4773 4.00572 13.7882 4.2878 14.2648C4.33043 14.3368 4.35816 14.4167 4.36936 14.4996C4.38056 14.5825 4.375 14.6668 4.35301 14.7475ZM7.20447 13.3653C7.14023 13.3131 7.08697 13.2488 7.04778 13.176C7.0086 13.1031 6.98426 13.0232 6.97618 12.9409C6.96811 12.8586 6.97645 12.7755 7.00074 12.6964C7.02502 12.6173 7.06475 12.5439 7.11764 12.4803C7.17053 12.4167 7.23551 12.3642 7.30883 12.3259C7.38215 12.2876 7.46234 12.2642 7.54475 12.2572C7.62717 12.2501 7.71016 12.2594 7.78893 12.2847C7.8677 12.3099 7.94068 12.3506 8.00363 12.4042C8.56399 12.8712 9.27068 13.1263 10.0001 13.1248C10.7401 13.1248 11.439 12.8675 11.9959 12.4044C12.059 12.3519 12.1319 12.3124 12.2103 12.2881C12.2887 12.2638 12.3711 12.2551 12.4528 12.2626C12.5345 12.2702 12.614 12.2937 12.6866 12.332C12.7593 12.3702 12.8237 12.4223 12.8761 12.4855C12.9286 12.5486 12.9681 12.6214 12.9925 12.6998C13.0168 12.7782 13.0254 12.8606 13.0179 12.9423C13.0104 13.0241 12.9868 13.1035 12.9486 13.1762C12.9104 13.2488 12.8582 13.3132 12.7951 13.3657C12.0104 14.019 11.0212 14.3762 10.0001 14.3748C8.97871 14.3762 7.98928 14.0189 7.20447 13.3653Z" fill="#6B6B6B"/>
</svg>
