<svg width="18" height="18" viewBox="0 0 18 18" fill="none" xmlns="http://www.w3.org/2000/svg">
<path d="M9 2.25C5.2875 2.25 2.25 5.2875 2.25 9C2.25 12.7125 5.2875 15.75 9 15.75C12.7125 15.75 15.75 12.7125 15.75 9C15.75 5.2875 12.7125 2.25 9 2.25ZM9 14.625C5.85 14.625 3.375 12.15 3.375 9C3.375 5.85 5.85 3.375 9 3.375C12.15 3.375 14.625 5.85 14.625 9C14.625 12.15 12.15 14.625 9 14.625Z" fill="#0092FF"/>
<path d="M11.925 6.29999L7.87503 10.4625L6.07502 8.54999C5.85002 8.32499 5.51252 8.32499 5.28752 8.54999C5.06252 8.77499 5.06252 9.11249 5.28752 9.33749L7.53753 11.5875C7.65003 11.7 7.76253 11.7 7.98753 11.7C8.21253 11.7 8.32503 11.7 8.43753 11.5875L12.9375 7.08749C13.1625 6.86249 13.1625 6.52499 12.9375 6.29999C12.7125 6.07499 12.15 6.18749 11.925 6.29999Z" fill="#0092FF"/>
</svg>
