<svg width="113" height="112" viewBox="0 0 113 112" fill="none" xmlns="http://www.w3.org/2000/svg">
<path d="M55.8221 100.408C36.2166 100.408 20.2271 84.56 20.2271 65.128C20.2271 41.048 45.0871 18.76 52.6581 12.544C54.466 11.032 57.1215 11.032 58.9295 12.544C66.557 18.816 91.3605 41.048 91.3605 65.128C91.417 84.616 75.4841 100.408 55.8221 100.408ZM55.8221 17.752C49.4941 23.072 26.2726 44.016 26.2726 65.184C26.2726 81.368 39.5501 94.472 55.8221 94.472C72.0941 94.472 85.3716 81.312 85.3716 65.184C85.428 43.96 62.1501 23.016 55.8221 17.752Z" fill="white" fill-opacity="0.1"/>
<path d="M50.0589 87.584C49.7764 87.584 49.4374 87.528 49.1549 87.472C40.3409 84.672 33.7304 77.392 31.8659 68.432C31.5269 66.808 32.6004 65.24 34.1824 64.904C35.8209 64.568 37.4029 65.632 37.7419 67.2C39.1544 74.032 44.2394 79.632 50.9629 81.704C52.5449 82.208 53.4489 83.888 52.9404 85.456C52.4884 86.744 51.3019 87.584 50.0589 87.584Z" fill="white" fill-opacity="0.1"/>
</svg>
