<svg t="1646578874728" class="icon" viewBox="0 0 1024 1024" version="1.1" xmlns="http://www.w3.org/2000/svg" p-id="926" width="200" height="200"><path d="M742.6 777.2L546.4 892.5c-19.6 11.5-43.7 11.7-63.5 0.5L285.1 780.7c-19.8-11.2-32-32-32.1-54.8l-1.7-229.5c-0.2-22.7 11.8-43.7 31.4-55.2l196.2-115.3c19.6-11.5 43.7-11.7 63.5-0.5l197.9 112.3c19.8 11.2 32 32 32.1 54.8L774 722c0.2 22.6-11.8 43.7-31.4 55.2z" fill="#635DF7" opacity=".7" p-id="927"></path><path d="M513.9 677.4L62 399.9l449.2-273.1 451.9 277.6z" fill="#635DF7" opacity=".7" p-id="928"></path><path d="M877 676c-19.3 0-35-15.8-35-35V433c0-19.3 15.8-35 35-35s35 15.7 35 35v208c0 19.3-15.7 35-35 35z" fill="#635DF7" opacity=".7" p-id="929"></path></svg>