<svg t="1646578884980" class="icon" viewBox="0 0 1024 1024" version="1.1" xmlns="http://www.w3.org/2000/svg" p-id="1080" width="200" height="200"><path d="M133.7 821.3a381.2 107.2 0 1 0 762.4 0 381.2 107.2 0 1 0-762.4 0Z" fill="#3E8BF8" opacity=".7" p-id="1081"></path><path d="M795.5 378.7c0-154.9-125.6-280.5-280.5-280.5S234.4 223.7 234.4 378.7c0 66.1 22.9 126.9 61.2 174.8L465.1 803c22.8 33.5 72.1 33.8 95.2 0.5l170.8-246c40.2-48.5 64.4-110.9 64.4-178.8z" fill="#3E8BF8" opacity=".7" p-id="1082"></path><path d="M514.9 494.3c-76.6 0-139-62.4-139-139s62.4-139 139-139 139 62.4 139 139-62.3 139-139 139z m0-198c-32.5 0-59 26.5-59 59s26.5 59 59 59 59-26.5 59-59-26.4-59-59-59z" fill="#FFFFFF" p-id="1083"></path></svg>