<svg t="1646578910688" class="icon" viewBox="0 0 1024 1024" version="1.1" xmlns="http://www.w3.org/2000/svg" p-id="1390" width="200" height="200"><path d="M713.5 921.6H315.4c-51.2 0-92.8-41.6-92.8-92.8V463.4h583.7v365.3c0 51.3-41.5 92.9-92.8 92.9z" fill="#635DF7" opacity=".7" p-id="1391"></path><path d="M497.8 125.3l-394.6 374c-20 20-5.9 54.3 22.5 54.3h777.5c28.1 0 42.5-33.8 22.9-54l-382.9-374c-12.4-12.7-32.8-12.9-45.4-0.3z" fill="#635DF7" opacity=".7" p-id="1392"></path><path d="M588.6 921.6H440.3v-152c0-20.9 17.1-38.2 38.2-38.2h72.2c20.9 0 38.2 17.1 38.2 38.2v152h-0.3z" fill="#FFFFFF" p-id="1393"></path></svg>