<svg t="1646578931715" class="icon" viewBox="0 0 1024 1024" version="1.1" xmlns="http://www.w3.org/2000/svg" p-id="1544" width="200" height="200"><path d="M738.6 878H286.1c-70 0-125.2-59.7-119.5-129.6l26.8-332.8c5-62.3 57.1-110.3 119.5-110.3h398.8c62.5 0 114.5 48 119.5 110.3L858 748.4c5.7 69.9-49.4 129.6-119.4 129.6z" fill="#FCA235" opacity=".7" p-id="1545"></path><path d="M660.1 763.2H364.6c-22 0-40-18-40-40s18-40 40-40h295.5c22 0 40 18 40 40s-18 40-40 40z" fill="#FFFFFF" p-id="1546"></path><path d="M721.4 464.4h-80V331.1c0-76.1-57.9-138.1-129-138.1s-129 62-129 138.1v133.3h-80V331.1c0-120.3 93.8-218.1 209-218.1s209 97.8 209 218.1v133.3z" fill="#FCA235" opacity=".7" p-id="1547"></path></svg>