<svg t="1646578940397" class="icon" viewBox="0 0 1024 1024" version="1.1" xmlns="http://www.w3.org/2000/svg" p-id="1700" width="200" height="200"><path d="M236.2 716.5V458c0-152.8 125-277.8 277.8-277.8s277.8 125 277.8 277.8v258.5" fill="#F33B3D" opacity=".7" p-id="1701"></path><path d="M828.1 771.3H200c-30.9 0-56.2-25.3-56.2-56.2 0-30.9 25.3-56.2 56.2-56.2h628.1c30.9 0 56.2 25.3 56.2 56.2 0 30.9-25.3 56.2-56.2 56.2zM626.7 807.8c0 62.2-50.5 112.7-112.7 112.7S401.3 870 401.3 807.8M514 286.8c-31.7 0-57.7-26-57.7-57.7v-79.4c0-31.7 26-57.7 57.7-57.7 31.7 0 57.7 26 57.7 57.7v79.4c0 31.7-26 57.7-57.7 57.7z" fill="#F33B3D" opacity=".7" p-id="1702"></path></svg>