<svg xmlns="http://www.w3.org/2000/svg" width="596.88227" height="400.00144" viewBox="0 0 596.88227 400.00144" xmlns:xlink="http://www.w3.org/1999/xlink"><g><path d="M105.784,308.73563c-.8443-1.42365-4.49683,.10068-5.16833-1.19135-.66913-1.28735,2.72449-3.24887,4.66333-7.7298,.34967-.80807,2.55298-5.90033,.92188-7.47162-3.09174-2.97836-17.23962,9.31259-22.19073,5.29041-1.08661-.88269-1.8457-2.64484-5.13428-5.50583-1.30829-1.13815-2.09937-1.65204-2.86499-1.46085-1.08636,.27127-1.17242,1.72522-2.33734,4.58398-1.74701,4.28729-2.78027,4.02841-3.79816,7.44897-.75562,2.53925-.58301,4.01553-1.47217,4.30313-1.25824,.40701-2.41638-2.28632-4.01099-2.04517-1.6272,.24612-2.61096,3.38205-2.92169,5.72998-.58313,4.40607,1.03497,7.31348,1.93182,10.37064,.97461,3.32236,1.55304,8.37494-.69769,15.52759l-22.27719,62.76614c4.91812-12.87943,19.15842-48.18536,25.14218-61.3053,1.72742-3.78745,3.6347-7.62909,7.55096-9.14526,3.77045-1.45978,8.94867-.58823,15.55029-2.17862,.771-.1857,2.91052-.73007,3.17981-1.98849,.22266-1.04037-1.03583-1.62109-.84247-2.59549,.25934-1.30701,2.73413-1.32306,5.77533-2.83096,2.14447-1.06332,3.48047-2.32785,4.62933-3.41531,.34637-.32785,5.49512-5.26166,4.37115-7.1568h-.00006Z" fill="#f2f2f2"/><path d="M18.13889,341.77836c-.94235,.0036-1.24805,2.23611-2.07593,2.1929-.82492-.04303-.80847-2.2746-2.4483-4.5191-.29572-.40475-2.1593-2.95547-3.40115-2.60825-2.35385,.65808-.4035,11.14828-3.80618,12.41782-.74673,.27863-1.83066,.14276-4.18369,.93134-.9361,.31372-1.41656,.55371-1.54364,.98465-.1803,.61145,.50845,1.07324,1.57544,2.46979,1.60016,2.09445,1.17496,2.52692,2.56009,4.01343,1.02826,1.10352,1.80264,1.44476,1.68723,1.96414-.16327,.73499-1.81934,.52631-2.16107,1.37851-.34869,.86966,.90659,2.25729,1.9693,3.08725,1.99429,1.5575,3.88812,1.6022,5.64737,2.04413,1.91183,.48026,4.55859,1.65421,7.41974,4.82266l24.37836,29.04382c-4.90228-6.12997-18.12189-23.30609-22.83472-30.0285-1.3605-1.94061-2.69568-3.98517-2.30984-6.34479,.37143-2.27176,2.29327-4.56177,3.41748-8.26077,.13132-.43201,.48145-1.63916-.05847-2.13443-.44638-.40945-1.09451,.04068-1.51697-.33539-.56665-.50443,.13953-1.72369,.27689-3.6514,.09686-1.35931-.13831-2.37988-.34055-3.25754-.06097-.26459-.99695-4.21518-2.25137-4.21036v.00009Z" fill="#f2f2f2"/><path d="M36.93851,345.99845l-.56775-5.06818,.2594-.38422c1.20035-1.77667,1.81216-3.51175,1.81949-5.15872,.00122-.26184-.01102-.52371-.02325-.79044-.04895-1.05719-.11011-2.37134,.5751-3.90329,.38422-.85406,1.46344-2.83142,3.08594-2.5867,.43683,.06119,.76721,.26184,1.01804,.49677,.03671-.05872,.07465-.11746,.11502-.18109,.50534-.77087,.90546-1.10123,1.29089-1.41937,.29611-.24472,.60202-.49677,1.08167-1.0939,.21045-.26184,.37442-.49188,.5127-.68521,.41971-.58487,.96786-1.28235,1.93451-1.27011,1.03271,.04895,1.57355,.90302,1.93207,1.46832,.63995,1.00824,.92993,1.73508,1.12204,2.21716,.06976,.17621,.14929,.37442,.18967,.43561,.33282,.48944,3.03824,.0318,4.05746-.13461,2.28937-.38177,4.27039-.71213,5.08655,.73172,.5849,1.03271,.15051,2.39825-1.33008,4.1676-.4613,.55063-.95197,.96909-1.38757,1.29703,.36096,.21536,.68396,.54572,.81494,1.06454h0c.30835,1.22849-.74762,2.45944-3.13733,3.66348-.59344,.30099-1.39246,.70236-2.51205,.89569-.52737,.09055-1.00214,.11258-1.40836,.12482-.00858,.23492-.06363,.48944-.20679,.75128-.41971,.77087-1.29333,1.13794-2.60995,1.04984-1.44876-.07587-2.64175-.35239-3.69406-.59467-.91891-.21045-1.7106-.3891-2.33218-.3475-1.15262,.09299-2.04099,1.01559-3.08347,2.21228l-2.6026,3.04187h-.00003Z" fill="#f2f2f2"/><path d="M39.5722,315.82252l-4.75842,1.83472-.43744-.15347c-2.02304-.71045-3.85654-.86215-5.45151-.45148-.2536,.06525-.50378,.14349-.7587,.22299-1.01019,.31549-2.26587,.70801-3.92151,.43378-.92361-.155-3.11002-.69739-3.28485-2.32889-.05161-.43805,.05869-.80853,.22232-1.11075-.06613-.0206-.13257-.04239-.20435-.06531-.87384-.2933-1.29489-.59653-1.70041-.88867-.31183-.22437-.63324-.45633-1.33249-.76883-.30667-.13715-.57077-.2374-.79285-.32211-.67221-.2576-1.4859-.61096-1.71924-1.5491-.2146-1.01135,.47437-1.75113,.93024-2.24133,.81296-.87476,1.44244-1.33963,1.86005-1.64774,.15274-.11215,.32431-.23938,.37326-.29395,.38901-.44608-.73987-2.94693-1.15936-3.89062-.94998-2.11765-1.77203-3.95007-.5824-5.10577,.85059-.8277,2.28165-.75391,4.36868,.22946,.64963,.30655,1.17886,.67502,1.60657,1.01321,.11676-.40378,.35437-.80005,.82303-1.05829h0c1.11011-.60986,2.56863,.09933,4.33945,2.10547,.44168,.49768,1.03259,1.16876,1.50357,2.2027,.22134,.48715,.36307,.9408,.47797,1.33066,.22943-.0513,.48956-.06259,.77917,.00946,.85211,.21045,1.4288,.9624,1.67752,2.2583,.2941,1.42062,.32922,2.64474,.36179,3.72409,.02951,.94226,.0575,1.75336,.25543,2.34406,.38232,1.09134,1.50006,1.71661,2.92206,2.42148l3.60254,1.74591-.00012,.00003Z" fill="#f2f2f2"/><path d="M36.93851,300.89152l-.56775-5.06818,.2594-.38422c1.20035-1.77667,1.81216-3.51175,1.81949-5.15872,.00122-.26184-.01102-.52371-.02325-.79044-.04895-1.05719-.11011-2.37134,.5751-3.90329,.38422-.85406,1.46344-2.83142,3.08594-2.5867,.43683,.06119,.76721,.26184,1.01804,.49677,.03671-.05872,.07465-.11746,.11502-.18109,.50534-.77087,.90546-1.10123,1.29089-1.41937,.29611-.24472,.60202-.49677,1.08167-1.0939,.21045-.26184,.37442-.49188,.5127-.68521,.41971-.58487,.96786-1.28235,1.93451-1.27011,1.03271,.04895,1.57355,.90302,1.93207,1.46832,.63995,1.00824,.92993,1.73508,1.12204,2.21716,.06976,.17621,.14929,.37442,.18967,.43561,.33282,.48944,3.03824,.0318,4.05746-.13461,2.28937-.38177,4.27039-.71213,5.08655,.73172,.5849,1.03271,.15051,2.39825-1.33008,4.1676-.4613,.55063-.95197,.96909-1.38757,1.29703,.36096,.21536,.68396,.54572,.81494,1.06454h0c.30835,1.22849-.74762,2.45944-3.13733,3.66348-.59344,.30099-1.39246,.70236-2.51205,.89569-.52737,.09055-1.00214,.11258-1.40836,.12482-.00858,.23492-.06363,.48944-.20679,.75128-.41971,.77087-1.29333,1.13794-2.60995,1.04984-1.44876-.07587-2.64175-.35239-3.69406-.59467-.91891-.21045-1.7106-.3891-2.33218-.3475-1.15262,.09299-2.04099,1.01559-3.08347,2.21228l-2.6026,3.04187h-.00003Z" fill="#f2f2f2"/><path d="M42.12415,399.26926l-1.0621-.66565-.25696-1.22604,.25696,1.22604-1.23828,.14194c-.01959-.11502-.08688-.37933-.18842-.79291-.55429-2.26611-2.24408-9.16235-3.65369-20.02304-.9838-7.58145-1.54053-15.37579-1.65555-23.17017-.11502-7.80658,.25452-13.71661,.55063-18.46661,.22391-3.5827,.49557-6.99411,.7623-10.31744,.70969-8.87848,1.379-17.26505,.88098-26.54974-.11011-2.07278-.3414-6.38721-2.862-10.97818-1.46222-2.66257-3.47626-5.02655-5.98709-7.02347l1.56131-1.96265c2.77145,2.20737,4.99963,4.8259,6.62338,7.78214,2.79471,5.09018,3.04678,9.79129,3.16791,12.05005,.50656,9.44867-.17007,17.91602-.88712,26.88013-.26431,3.31107-.53595,6.70779-.75864,10.27582-.29367,4.70599-.65952,10.56458-.54572,18.27084,.11258,7.70135,.66318,15.40027,1.63351,22.88629,1.39246,10.72366,3.0578,17.51712,3.60474,19.74896,.29123,1.1918,.35239,1.44141,.05383,1.91373v-.00003Z" fill="#f2f2f2"/><path d="M23.07507,285.40561c-.10278,0-.20679-.00244-.31201-.0098-2.13397-.11502-4.11008-1.39246-5.87451-3.79562-.82715-1.13062-1.25052-2.42029-2.09482-4.99231-.13092-.39645-.76721-2.40805-1.15387-5.17584-.2533-1.8085-.22147-2.56467,.13705-3.23276,.39767-.74396,1.04129-1.26276,1.76566-1.6127-.0318-.23984-.00613-.487,.0979-.73907,.42703-1.04495,1.56253-.9079,2.17679-.84183,.31079,.03915,.69867,.09055,1.11716,.06851,.65829-.0318,1.01193-.2276,1.54785-.52127,.5127-.28143,1.15018-.63138,2.09604-.82471,1.86478-.3891,3.42731,.1395,3.94244,.31323,2.71027,.90302,4.04645,3.01007,5.59308,5.44992,.30835,.48944,1.36676,2.271,2.06543,4.71332,.50412,1.76199,.43317,2.5451,.28143,3.12753-.30835,1.19669-1.03638,1.8819-2.88525,3.39429-1.93085,1.58334-2.89993,2.37625-3.73199,2.85834-1.93695,1.11838-3.15323,1.82071-4.76837,1.82071v.00006Z" fill="#f2f2f2"/></g><path d="M583.04004,398.1298h0c0,.46393-.3761,.84003-.84003,.84003H0v-1.68005H582.20001c.46393,0,.84003,.3761,.84003,.84003Z" fill="#e6e6e6"/><g><g><path d="M414.96682,132.5955s-31.33897,3.76915-26.05277-21.00919c5.2862-24.77834,35.25881-70.54535,35.25881-70.54535l17.00859,9.53851-19.52722,46.15779,8.40622,6.63181-15.09364,29.22643Z" fill="#a0616a"/><polygon points="517.66573 102.42983 513.24966 138.74997 402.59181 138.20808 424.81643 99.58298 517.66573 102.42983" fill="#6c63ff"/><ellipse cx="440.85699" cy="35.06005" rx="21.06187" ry="13.5883" transform="translate(155.69476 373.09347) rotate(-54.39629)" fill="#a0616a"/></g><rect x="431.61058" y="316.31639" width="157.6243" height="6.79415" transform="translate(190.70926 830.1362) rotate(-90)" fill="#3f3d56"/><rect x="398.99866" y="316.31639" width="157.6243" height="6.79415" transform="translate(158.09734 797.52427) rotate(-90)" fill="#3f3d56"/><rect x="166.6387" y="266.71909" width="256.8189" height="6.79415" transform="translate(24.93198 565.16431) rotate(-90)" fill="#e6e6e6"/><rect x="325.62183" y="316.31639" width="157.6243" height="6.79415" transform="translate(84.72051 724.14744) rotate(-90)" fill="#3f3d56"/><rect x="299.62183" y="316.31639" width="157.6243" height="6.79415" transform="translate(58.72051 698.14744) rotate(-90)" fill="#3f3d56"/><polygon points="500.91092 237.50424 369.70891 237.50424 344.54053 273.20391 475.09315 280.98681 500.91092 237.50424" fill="#3f3d56"/><g><g><polygon points="260.66666 115.36171 261.26265 89.47203 182.07728 95.56279 181.67228 113.10615 260.66666 115.36171" fill="#a0616a"/><path d="M207.07437,92.46955l-3.78719,9.11165-5.43919,.17362s6.36837,1.95019,8.13752,13.52248l-5.22601,1.56658s-5.01887,4.6825-14.40099,4.22827l-25.15515-2.10423-.09672-8.76942,17.38598-2.00915s3.87391-2.54864-15.30346-13.02688c0,0-6.35277-3.88484-.63926-23.06835,.78528-2.63665,3.15738-4.53039,5.90784-4.58993,1.51788-.03286,2.94026,.51243,3.50805,2.39783,1.44528,4.79918-.01711,9.58351,3.95477,12.57926,3.97188,2.99575,31.15379,9.98828,31.15379,9.98828Z" fill="#2f2e41"/></g><path d="M491.0918,214.34041s-27.32187,46.46931-89.14535,38.09463c-14.7122-1.99293-27.65606-10.73997-35.03029-23.62568-14.25315-24.90592-35.8964-68.51528-28.8797-93.20879l-104.56203-19.95639-8.23844-25.39382,113.16264-14.69994c10.00962-1.30026,19.81473,3.56733,24.83043,12.32666l55.12437,96.26836,16.43321,1.79434,56.30516,28.40061Z" fill="#2f2e41"/></g><g><g><polygon points="262.73092 125.96005 261.24209 100.10635 182.80342 112.54799 183.81113 130.06707 262.73092 125.96005" fill="#a0616a"/><path d="M207.47062,107.45371l-3.04186,9.3868-5.40759,.61065s6.50462,1.43152,9.19906,12.82397l-5.08303,1.98194s-4.62589,5.0711-14.01413,5.37315l-25.2429-.07362-.80193-8.73321,17.16798-3.40137s3.65631-2.85204-16.30189-11.75346c0,0-6.64472-3.36115-2.49309-22.94215,.57062-2.69128,2.78266-4.76972,5.51942-5.05035,1.51032-.15487,2.97196,.27422,3.68959,2.10782,1.8267,4.66735,.75396,9.55382,4.95398,12.22032,4.20002,2.6665,31.85638,7.44951,31.85638,7.44951Z" fill="#2f2e41"/></g><path d="M500.37217,206.07971s-23.49475,48.51678-85.79159,45.14308c-14.82484-.80284-28.43047-8.48017-36.81747-20.73083-16.21068-23.67849-41.29224-65.40525-36.28493-90.58322l-105.82863-11.47946-10.25472-24.6487,111.61318-23.75647c9.87257-2.10134,20.0375,1.96163,25.74164,10.28905l62.69068,91.52143,16.5243,.46643,58.40753,23.77868Z" fill="#2f2e41"/></g><polygon points="428.75383 1.20638 423.31851 5.28287 451.85394 44.68895 457.28926 43.33012 428.75383 1.20638" fill="#3f3d56"/><path d="M502.94916,88.71234l31.25309-1.35883,13.5883,61.14736s-28.53543,107.34758-62.50619,103.27109c0,0-21.06187-15.62655-21.06187-21.06187s-28.53543-19.02362-28.53543-19.02362l-6.79415-23.10011,20.38245-31.25309s8.15298-24.45894,35.32958-38.04724l18.34421-30.57368Z" fill="#6c63ff"/><polygon points="324.263 136.27139 46.38222 136.27139 46.38222 143.06554 182.26524 143.06554 182.26524 398.52562 189.05939 398.52562 189.05939 143.06554 324.263 143.06554 324.263 136.27139" fill="#e6e6e6"/><circle cx="519.25513" cy="46.5886" r="36.68841" fill="#a0616a"/><polygon points="391.3325 93.46824 365.70732 103.65947 415.98403 170.24215 433.64883 156.65385 391.3325 93.46824" fill="#e6e6e6"/><g><path d="M491.39911,221.19828s-9.51181,30.09755-29.89426,15.04878-49.6829-61.249-49.6829-61.249l15.71214-11.55006,33.97075,36.84891,9.51181-4.9164,20.38245,25.81777Z" fill="#a0616a"/><polygon points="506.34624 115.20953 537.59933 134.23315 491.39911 234.78658 461.50484 194.02168 506.34624 115.20953" fill="#6c63ff"/><ellipse cx="413.26637" cy="157.33326" rx="13.5883" ry="21.06187" transform="translate(-23.29944 227.71185) rotate(-30)" fill="#a0616a"/></g><path d="M523.26742,157.67032c9.41564-30.86861,19.5205-40.63736,30.14416-34.52121,8.08619,4.6553,10.51999,15.25182,5.78108,23.28929-12.07934,20.48726-36.96979,67.42799-31.78455,98.53941,0,0,8.15298,43.48257-57.07087,43.48257-65.22385,0-127.73004-14.94713-127.73004-14.94713l33.97075-5.43532,77.25352,5.51811c17.65052,1.26075,32.52653-13.84164,30.16854-31.37932-.07784-.57894-.17017-1.16431-.27776-1.75599-3.8732-21.30068,39.54517-82.7904,39.54517-82.7904Z" fill="#3f3d56"/></g><path d="M505.50427,31.37969c-2.99707,8.3918,3.58842,17.10565,12.47961,16.51291l.21178-.01412h.00001c5.97688,7.47111,6.14197,18.03956,.40137,25.6937h0c-.47159,9.86528,1.0738,19.72308,4.54168,28.97076l9.74351,25.98268,15-7,7.11846,18.99999,41.88158-21.57536-25.38278-57.11125-7.74611-30.98443c-5.511-22.04398-27.99717-35.31264-49.95805-29.47928l-16.84879,4.47546c-13.31103,3.53574-20.97242,17.47213-16.82506,30.60546v.00002l25.38278-5.07656" fill="#2f2e41"/></svg>