<svg width="23" height="23" viewBox="0 0 23 23" fill="none" xmlns="http://www.w3.org/2000/svg">
<path d="M10.7076 2.52693L2.73201 6.28513C2.4657 6.4106 2.24114 6.61009 2.08515 6.85975C1.92916 7.10942 1.84834 7.39871 1.85235 7.69307C1.85635 7.98743 1.945 8.27442 2.10772 8.51975C2.27044 8.76508 2.50034 8.95838 2.76996 9.07657L10.7456 12.5726C10.9397 12.6577 11.1493 12.7016 11.3612 12.7016C11.5731 12.7016 11.7828 12.6577 11.9769 12.5726L19.9525 9.07542C20.2221 8.95719 20.452 8.76386 20.6147 8.51851C20.7773 8.27315 20.8659 7.98615 20.8699 7.69179C20.8739 7.39743 20.793 7.10815 20.637 6.85851C20.481 6.60887 20.2564 6.40942 19.9901 6.28398L12.0144 2.52731C11.81 2.43099 11.5868 2.38104 11.3608 2.38104C11.1349 2.38104 10.9117 2.43099 10.7073 2.52731L10.7076 2.52693ZM3.3856 7.67203L11.3612 3.91422L19.3365 7.67088L11.3608 11.168L3.3856 7.67203ZM19.3353 15.3935C19.5182 15.3147 19.7246 15.3101 19.9108 15.3808C20.097 15.4515 20.2484 15.5918 20.3329 15.7722C20.4175 15.9525 20.4285 16.1586 20.3637 16.347C20.299 16.5353 20.1634 16.691 19.9858 16.7812L19.9318 16.8065L11.648 20.3033C11.4793 20.3745 11.2907 20.3831 11.1163 20.3274L11.0519 20.3033L2.76843 16.8073C2.58587 16.7302 2.44025 16.5854 2.36211 16.4033C2.28396 16.2212 2.27935 16.0159 2.34926 15.8305C2.41916 15.6451 2.55815 15.4939 2.73706 15.4088C2.91598 15.3236 3.12093 15.311 3.30893 15.3736L3.3649 15.3947L11.3497 18.7649L19.3353 15.3935V15.3935Z" fill="#0092FF"/>
<path d="M19.1667 11.5L11.4965 14.9508L3.83333 11.5077V12.7478C3.83333 13.0502 4.00736 13.3239 4.27608 13.4424L10.7042 16.2944C10.9501 16.418 11.2214 16.4825 11.4965 16.483C11.7672 16.483 12.0374 16.4201 12.2893 16.2944L18.7243 13.4362C18.8571 13.3754 18.9696 13.2775 19.0481 13.1542C19.1265 13.031 19.1677 12.8877 19.1667 12.7416V11.5Z" fill="#0092FF"/>
<rect width="23" height="23" fill="white" fill-opacity="0.01"/>
</svg>
