<svg width="23" height="23" viewBox="0 0 23 23" fill="none" xmlns="http://www.w3.org/2000/svg">
<g clip-path="url(#clip0_215_57)">
<path d="M15.1349 3.18085C15.9643 3.18085 16.636 3.85636 16.636 4.68573V5.80782H18.5087C18.9072 5.80772 19.2894 5.96573 19.5716 6.24716C19.8537 6.52859 20.0127 6.91046 20.0136 7.30896V19.318C20.0136 20.1474 19.3403 20.8191 18.5087 20.8191H3.50488C3.10638 20.8192 2.72412 20.6612 2.44199 20.3798C2.15985 20.0984 2.00089 19.7165 2 19.318L2 7.30896C2 6.47958 2.67326 5.80782 3.50488 5.80782H5.37754V4.68573C5.37715 4.48831 5.41568 4.29275 5.49093 4.11024C5.56619 3.92772 5.67668 3.76184 5.81611 3.62206C5.95553 3.48229 6.12114 3.37138 6.30346 3.29567C6.48579 3.21996 6.68125 3.18095 6.87867 3.18085L15.1349 3.18085ZM18.1338 7.30896H3.88017C3.83079 7.30846 3.7818 7.31771 3.736 7.33619C3.69021 7.35466 3.64851 7.38199 3.6133 7.41661C3.57809 7.45123 3.55005 7.49246 3.53081 7.53793C3.51156 7.58341 3.50147 7.63223 3.50113 7.68161V18.9453C3.50113 19.148 3.67076 19.318 3.87979 19.318H18.1334C18.1828 19.3185 18.2318 19.3092 18.2776 19.2908C18.3234 19.2723 18.365 19.245 18.4003 19.2103C18.4355 19.1757 18.4635 19.1345 18.4828 19.089C18.502 19.0435 18.5121 18.9947 18.5124 18.9453V7.68161C18.5124 7.47896 18.3428 7.30896 18.1338 7.30896V7.30896ZM10.6315 8.81008C12.9113 8.81008 14.7596 10.6584 14.7596 12.9382C14.7609 13.7819 14.5025 14.6055 14.0195 15.2972L15.2963 16.5732C15.5803 16.8576 15.5826 17.3162 15.2963 17.603C15.2288 17.6708 15.1485 17.7247 15.0602 17.7614C14.9718 17.7981 14.8771 17.8171 14.7814 17.8171C14.6857 17.8171 14.5909 17.7981 14.5026 17.7614C14.4142 17.7247 14.334 17.6708 14.2665 17.603L12.9905 16.3262C12.2988 16.8092 11.4752 17.0676 10.6315 17.0663C8.35166 17.0663 6.50339 15.218 6.50339 12.9382C6.50339 10.6584 8.35166 8.81008 10.6315 8.81008V8.81008ZM10.6315 10.3112C10.2865 10.3112 9.94492 10.3792 9.6262 10.5112C9.30748 10.6432 9.01788 10.8367 8.77394 11.0806C8.53001 11.3246 8.33651 11.6142 8.20449 11.9329C8.07247 12.2516 8.00452 12.5932 8.00452 12.9382C8.00452 13.2832 8.07247 13.6248 8.20449 13.9435C8.33651 14.2622 8.53001 14.5518 8.77394 14.7957C9.01788 15.0397 9.30748 15.2332 9.6262 15.3652C9.94492 15.4972 10.2865 15.5652 10.6315 15.5652C11.3282 15.5652 11.9964 15.2884 12.4891 14.7957C12.9817 14.3031 13.2585 13.6349 13.2585 12.9382C13.2585 12.2415 12.9817 11.5733 12.4891 11.0806C11.9964 10.588 11.3282 10.3112 10.6315 10.3112V10.3112ZM14.7589 4.68198H7.25471C7.20521 4.68168 7.15615 4.69121 7.11036 4.71003C7.06458 4.72884 7.02299 4.75656 6.98801 4.79158C6.95303 4.8266 6.92535 4.86821 6.90658 4.91402C6.88781 4.95982 6.87832 5.00889 6.87867 5.05839V5.80782H15.1349V5.05839C15.1352 5.0089 15.1257 4.95985 15.1069 4.91408C15.0881 4.8683 15.0604 4.8267 15.0254 4.79169C14.9905 4.75669 14.9489 4.72896 14.9031 4.71013C14.8574 4.6913 14.8083 4.68173 14.7589 4.68198V4.68198Z" fill="#0092FF"/>
<rect x="2" width="23" height="23" fill="white" fill-opacity="0.01"/>
<rect x="2" y="3" width="23" height="23" fill="white" fill-opacity="0.01"/>
</g>
<rect width="23" height="23" fill="white" fill-opacity="0.01"/>
<defs>
<clipPath id="clip0_215_57">
<rect width="18" height="18" fill="white" transform="translate(2 3)"/>
</clipPath>
</defs>
</svg>
