<svg width="23" height="23" viewBox="0 0 23 23" fill="none" xmlns="http://www.w3.org/2000/svg">
<path d="M11.2907 21.2164C5.92481 21.2164 1.55826 16.851 1.55826 11.4839C1.55826 6.11687 5.92366 1.75146 11.2907 1.75146C16.6578 1.75146 21.0232 6.11687 21.0232 11.4839C21.0232 16.851 16.6566 21.2164 11.2907 21.2164ZM11.2907 3.13261C6.68496 3.13261 2.93826 6.87932 2.93826 11.4851C2.93826 16.0908 6.68496 19.8375 11.2907 19.8375C15.8965 19.8375 19.6432 16.0908 19.6432 11.4851C19.6432 6.87932 15.8965 3.13261 11.2907 3.13261Z" fill="#0092FF"/>
<path d="M15.1674 10.3396H7.41406C7.14726 10.3396 6.90346 10.1855 6.78961 9.94403C6.67576 9.70253 6.71141 9.41733 6.88046 9.21033L8.92171 6.73093C9.03818 6.58974 9.20591 6.50053 9.38808 6.48285C9.57026 6.46517 9.75201 6.52047 9.89346 6.63663C10.0346 6.75311 10.1239 6.92083 10.1415 7.103C10.1592 7.28518 10.1039 7.46693 9.98776 7.60838L8.87571 8.95848H15.1674C15.548 8.95848 15.8574 9.26783 15.8574 9.64848C15.8574 10.0291 15.548 10.3396 15.1674 10.3396V10.3396ZM13.125 16.8302C12.9709 16.8302 12.8156 16.7785 12.6868 16.6727C12.5456 16.5562 12.4564 16.3885 12.4387 16.2063C12.421 16.0241 12.4764 15.8424 12.5925 15.7009L13.7046 14.3497H7.41406C7.03341 14.3497 6.72406 14.0403 6.72406 13.6597C6.72406 13.279 7.03341 12.9697 7.41406 12.9697H15.1674C15.4342 12.9697 15.678 13.1238 15.7918 13.3653C15.9057 13.6068 15.87 13.892 15.701 14.099L13.6597 16.5784C13.5947 16.6573 13.5131 16.7208 13.4206 16.7643C13.3281 16.8079 13.2272 16.8304 13.125 16.8302V16.8302Z" fill="#0092FF"/>
<rect width="23" height="23" fill="white" fill-opacity="0.01"/>
<rect width="23" height="23" fill="white" fill-opacity="0.01"/>
</svg>
