<svg width="360" height="144" viewBox="0 0 360 144" fill="none" xmlns="http://www.w3.org/2000/svg">
<path d="M350 0H10C4.47715 0 0 4.47715 0 10V134C0 139.523 4.47715 144 10 144H350C355.523 144 360 139.523 360 134V10C360 4.47715 355.523 0 350 0Z" fill="white"/>
<mask id="mask0_0_1" style="mask-type:alpha" maskUnits="userSpaceOnUse" x="0" y="0" width="360" height="144">
<path d="M350 0H10C4.47715 0 0 4.47715 0 10V134C0 139.523 4.47715 144 10 144H350C355.523 144 360 139.523 360 134V10C360 4.47715 355.523 0 350 0Z" fill="white"/>
</mask>
<g mask="url(#mask0_0_1)">
<path d="M50.6781 64.5353C50.9019 64.6583 51.1629 64.8183 51.4613 65.0152C51.7596 65.2121 52.0642 65.4213 52.3749 65.6428C52.6857 65.8643 52.9778 66.0858 53.2513 66.3073C53.5372 66.5288 53.7734 66.7257 53.9598 66.8979L53.214 68.1716C53.0275 67.9747 52.7913 67.7532 52.5054 67.5071C52.232 67.2609 51.9398 67.021 51.6291 66.7872C51.3183 66.5534 51.0138 66.338 50.7154 66.1412C50.4171 65.9443 50.156 65.7843 49.9323 65.6612L50.6781 64.5353ZM65.7068 66.7318H63.8795V77.9913C63.8795 78.4589 63.836 78.8404 63.749 79.1357C63.6744 79.4311 63.5376 79.6649 63.3387 79.8371C63.1399 80.0217 62.8664 80.1509 62.5183 80.2248C62.1827 80.3109 61.7538 80.3786 61.2318 80.4278L59.8147 80.557L59.3485 79.1911L60.8775 79.0803C61.2131 79.0557 61.4866 79.0188 61.6979 78.9696C61.9217 78.9327 62.0895 78.865 62.2013 78.7666C62.3256 78.6681 62.4064 78.5328 62.4437 78.3605C62.4935 78.1759 62.5183 77.9236 62.5183 77.6037V66.7318H54.4446V65.4028H65.7068V66.7318ZM49.7645 68.5776C50.0007 68.713 50.2741 68.8853 50.5849 69.0945C50.9081 69.3037 51.2313 69.5252 51.5545 69.759C51.8777 69.9805 52.1885 70.2081 52.4868 70.4419C52.7851 70.6757 53.0337 70.8911 53.2326 71.0879L52.4309 72.3985C52.2195 72.1647 51.9647 71.9186 51.6664 71.6602C51.3805 71.4017 51.0759 71.1495 50.7527 70.9034C50.442 70.6573 50.1312 70.4296 49.8204 70.2204C49.5097 69.9989 49.2362 69.8143 49 69.6667L49.7645 68.5776ZM60.3181 76.3116H54.9108V69.2052H60.3181V76.3116ZM59.0875 70.4788H56.16V75.0565H59.0875V70.4788ZM52.5987 74.0043L53.1021 74.2074C53.0151 74.6381 52.8784 75.1488 52.6919 75.7394C52.5179 76.3178 52.3252 76.9084 52.1139 77.5114C51.9026 78.1144 51.6788 78.6927 51.4426 79.2465C51.2189 79.8125 51.0138 80.2863 50.8273 80.6678L49.5034 80.0771C49.6899 79.7202 49.895 79.2649 50.1188 78.7112C50.3549 78.1574 50.5787 77.5852 50.79 76.9946C51.0138 76.3916 51.2127 75.8009 51.3867 75.2226C51.5731 74.6319 51.7161 74.1274 51.8155 73.709L52.5987 74.0043Z" fill="black"/>
<path d="M84.0241 76.2378H79.8661V80.76H78.5235V76.2378H74.813V74.9088H78.5235V72.3062H75.3351V70.9957H78.5235V64L79.8661 64.0369V70.9957H83.3156V72.3062H79.8661V74.9088H84.0241V76.2378ZM83.502 65.6243C83.415 65.9073 83.2969 66.2457 83.1477 66.6395C82.9986 67.0333 82.837 67.4332 82.663 67.8393C82.4889 68.2331 82.3087 68.6145 82.1222 68.9837C81.9358 69.3529 81.7679 69.6605 81.6188 69.9066L80.556 69.4636C80.6927 69.2298 80.8481 68.9283 81.0221 68.5592C81.1961 68.19 81.364 67.8085 81.5255 67.4148C81.6996 67.021 81.855 66.6334 81.9917 66.2519C82.1409 65.8704 82.259 65.5382 82.346 65.2552L83.502 65.6243ZM76.7895 69.962C76.69 69.6544 76.5595 69.3037 76.3979 68.9099C76.2487 68.5161 76.0871 68.1223 75.9131 67.7286C75.7515 67.3225 75.5837 66.9472 75.4097 66.6026C75.2481 66.2457 75.1113 65.9566 74.9995 65.7351L76.0623 65.2921C76.1866 65.5136 76.3295 65.8028 76.4911 66.1596C76.6652 66.5042 76.833 66.8733 76.9946 67.2671C77.1686 67.6486 77.3302 68.03 77.4794 68.4115C77.641 68.7807 77.7715 69.1006 77.8709 69.3713L76.7895 69.962ZM68.3056 65.6059H74.3841V78.8773H68.3056V65.6059ZM69.4616 66.9349V71.6417H70.7855V66.9349H69.4616ZM73.2467 66.9349H71.9042V71.6417H73.2467V66.9349ZM69.4616 77.5668H70.7855V72.9522H69.4616V77.5668ZM73.2467 77.5668V72.9522H71.9042V77.5668H73.2467Z" fill="black"/>
<path d="M93.8948 77.4191V78.9142H86.6042V66.1042H88.2824V77.4191H93.8948Z" fill="black"/>
<path d="M96.8565 67.1194C96.496 67.1194 96.2412 67.0641 96.092 66.9533C95.9552 66.8426 95.8869 66.5841 95.8869 66.1781C95.8869 65.7597 95.9552 65.5013 96.092 65.4028C96.2412 65.2921 96.496 65.2367 96.8565 65.2367C97.1921 65.2367 97.4345 65.2921 97.5837 65.4028C97.7328 65.5013 97.8074 65.7597 97.8074 66.1781C97.8074 66.5841 97.7328 66.8426 97.5837 66.9533C97.4345 67.0641 97.1921 67.1194 96.8565 67.1194ZM96.036 68.9468H97.6396V78.9142H96.036V68.9468Z" fill="black"/>
<path d="M104.158 77.696C104.382 77.696 104.574 77.6898 104.736 77.6775C104.91 77.6529 105.084 77.6221 105.258 77.5852V78.9327C105.059 78.9573 104.873 78.9757 104.699 78.9881C104.525 79.0127 104.332 79.025 104.121 79.025C103.561 79.025 103.089 78.9881 102.703 78.9142C102.331 78.8281 102.02 78.6681 101.771 78.4343C101.535 78.2005 101.361 77.8806 101.249 77.4745C101.15 77.0561 101.1 76.5208 101.1 75.8686V70.2758H99.6082V68.9468H101.1V66.5841H102.703V68.9468H105.202V70.2758H102.703V75.7763C102.703 76.1701 102.722 76.49 102.759 76.7362C102.797 76.9823 102.865 77.1792 102.964 77.3268C103.076 77.4622 103.226 77.5606 103.412 77.6221C103.598 77.6714 103.847 77.696 104.158 77.696Z" fill="black"/>
<path d="M115.306 72.9338C115.306 73.0691 115.294 73.2414 115.269 73.4506C115.257 73.6475 115.238 73.8628 115.213 74.0966L108.389 74.5212C108.389 75.0626 108.445 75.5364 108.557 75.9425C108.669 76.3362 108.849 76.6623 109.097 76.9207C109.346 77.1792 109.675 77.376 110.086 77.5114C110.496 77.6345 111.005 77.696 111.615 77.696C112.174 77.696 112.74 77.6345 113.311 77.5114C113.896 77.3883 114.38 77.2345 114.766 77.0499V78.5081C114.617 78.582 114.424 78.6558 114.188 78.7296C113.952 78.8035 113.684 78.865 113.386 78.9142C113.088 78.9758 112.764 79.0188 112.416 79.0434C112.081 79.0803 111.733 79.0988 111.372 79.0988C110.626 79.0988 109.961 79.0188 109.377 78.8588C108.805 78.6866 108.32 78.4035 107.923 78.0098C107.525 77.6037 107.22 77.0746 107.009 76.4224C106.81 75.7579 106.711 74.9273 106.711 73.9305C106.711 72.9338 106.81 72.1093 107.009 71.4571C107.22 70.7926 107.519 70.2635 107.904 69.8697C108.302 69.4636 108.78 69.1806 109.34 69.0206C109.912 68.8484 110.558 68.7622 111.279 68.7622C112.137 68.7622 112.827 68.8914 113.349 69.1498C113.883 69.3959 114.293 69.722 114.579 70.1281C114.865 70.5219 115.058 70.971 115.157 71.4756C115.257 71.9678 115.306 72.4539 115.306 72.9338ZM113.722 72.9522C113.722 72.5708 113.697 72.2077 113.647 71.8632C113.597 71.5063 113.485 71.1987 113.311 70.9403C113.15 70.6696 112.907 70.4604 112.584 70.3127C112.261 70.1527 111.826 70.0727 111.279 70.0727C110.695 70.0727 110.216 70.1466 109.843 70.2942C109.483 70.4419 109.197 70.6573 108.986 70.9403C108.774 71.2233 108.625 71.5679 108.538 71.9739C108.451 72.38 108.401 72.8353 108.389 73.3398L113.722 72.9522Z" fill="black"/>
<path d="M122.04 64.3876C121.841 65.1259 121.63 65.8212 121.406 66.4734C121.182 67.1256 120.946 67.7655 120.698 68.3931V80.797H119.374V71.1433C119.137 71.574 118.889 71.9924 118.628 72.3985C118.379 72.8046 118.112 73.2045 117.826 73.5983L116.819 72.62C117.167 72.1155 117.521 71.5371 117.882 70.8849C118.255 70.2327 118.609 69.5436 118.945 68.8176C119.28 68.0793 119.597 67.3163 119.896 66.5288C120.194 65.7412 120.455 64.9475 120.679 64.1477L122.04 64.3876ZM133.694 80.4463C132.314 80.2371 131.046 79.9786 129.89 79.671C128.734 79.3634 127.677 78.9696 126.72 78.4897C126.223 78.9204 125.577 79.308 124.781 79.6526C123.998 80.0094 123.022 80.3724 121.854 80.7416L121.201 79.5418C122.258 79.2711 123.134 79.0004 123.83 78.7296C124.539 78.4466 125.11 78.139 125.545 77.8067C124.999 77.4499 124.501 77.0561 124.054 76.6254C123.606 76.1824 123.202 75.684 122.842 75.1303L123.793 74.3735C124.141 74.8903 124.52 75.3641 124.93 75.7948C125.353 76.2132 125.831 76.5946 126.366 76.9392C126.602 76.5823 126.764 76.1824 126.851 75.7394C126.938 75.2964 126.987 74.798 127 74.2443H122.693V69.4821H127C127 69.1621 126.994 68.8484 126.981 68.5407C126.981 68.2331 126.981 67.9254 126.981 67.6178H122.04V66.3626H126.981V64.1477L128.342 64.1846V66.3626H133.451V67.6178H128.342C128.342 67.9254 128.342 68.2331 128.342 68.5407C128.355 68.8484 128.361 69.1621 128.361 69.4821H132.687V74.2443H128.361C128.349 74.9703 128.28 75.6041 128.156 76.1455C128.032 76.6869 127.826 77.173 127.541 77.6037C128.373 77.9975 129.331 78.3236 130.412 78.582C131.494 78.8404 132.749 79.0434 134.179 79.1911L133.694 80.4463ZM123.979 73.0076H127V70.7003H123.979V73.0076ZM128.361 70.7003V73.0076H131.363V70.7003H128.361Z" fill="black"/>
<path d="M150.706 65.1259V78.4159C150.706 78.8096 150.662 79.1357 150.575 79.3941C150.501 79.6526 150.37 79.8556 150.184 80.0033C150.01 80.1509 149.774 80.2617 149.475 80.3355C149.189 80.4093 148.841 80.4586 148.431 80.4832L147.294 80.557L146.827 79.1726L147.965 79.0988C148.251 79.0865 148.481 79.0619 148.655 79.025C148.829 78.9881 148.959 78.9327 149.046 78.8588C149.146 78.7727 149.208 78.662 149.233 78.5266C149.258 78.3789 149.27 78.1882 149.27 77.9544V75.3887H144.758V80.4278H143.341V75.3887H138.903C138.841 75.9301 138.754 76.4347 138.642 76.9023C138.542 77.3576 138.406 77.8006 138.232 78.2313C138.07 78.662 137.871 79.0927 137.635 79.5233C137.411 79.9663 137.144 80.4278 136.833 80.9077L135.509 80.2986C135.92 79.671 136.255 79.1111 136.516 78.6189C136.79 78.1267 137.001 77.6098 137.15 77.0684C137.312 76.5147 137.424 75.8932 137.486 75.2041C137.548 74.5027 137.579 73.6413 137.579 72.62V65.1259H150.706ZM138.996 66.4549V69.6667H143.341V66.4549H138.996ZM149.27 66.4549H144.758V69.6667H149.27V66.4549ZM143.341 74.0228V71.0326H138.996V73.1183C138.996 73.2783 138.996 73.4321 138.996 73.5798C138.996 73.7275 138.99 73.8751 138.978 74.0228H143.341ZM149.27 74.0228V71.0326H144.758V74.0228H149.27Z" fill="black"/>
<path d="M170.459 75.2964H163.112V78.2682C163.112 78.6989 163.075 79.0434 163.001 79.3018C162.926 79.5603 162.795 79.7633 162.609 79.911C162.423 80.0709 162.168 80.1878 161.844 80.2617C161.534 80.3355 161.136 80.3909 160.651 80.4278L159.327 80.5385L158.842 79.1173L160.185 79.025C160.496 79.0004 160.744 78.9696 160.931 78.9327C161.117 78.9081 161.26 78.8588 161.36 78.785C161.459 78.6989 161.528 78.582 161.565 78.4343C161.602 78.2743 161.621 78.059 161.621 77.7883V75.2964H154.181V73.949H161.621V71.1249H155.617V69.8143H161.621V66.8056C160.527 66.8795 159.464 66.941 158.432 66.9902C157.401 67.0271 156.468 67.0456 155.635 67.0456L155.468 65.7535C156.462 65.7535 157.562 65.7289 158.768 65.6797C159.986 65.6182 161.198 65.5443 162.404 65.4582C163.622 65.3721 164.791 65.2736 165.909 65.1629C167.028 65.0521 167.998 64.9352 168.818 64.8122L169.023 66.1227C168.203 66.2334 167.283 66.338 166.264 66.4365C165.257 66.5349 164.206 66.6272 163.112 66.7134V69.8143H168.911V71.1249H163.112V73.949H170.459V75.2964Z" fill="black"/>
<path d="M189 72.5092H186.744V78.4712C186.744 78.8773 186.707 79.2096 186.632 79.468C186.57 79.7264 186.452 79.9356 186.278 80.0955C186.104 80.2555 185.861 80.3724 185.55 80.4463C185.252 80.5201 184.867 80.5755 184.394 80.6124L183.462 80.6862L183.015 79.2649L184.115 79.1911C184.401 79.1788 184.631 79.148 184.805 79.0988C184.979 79.0496 185.109 78.9819 185.196 78.8958C185.296 78.7973 185.358 78.6743 185.383 78.5266C185.42 78.3666 185.439 78.1697 185.439 77.9359V72.5092H182.884C182.872 73.6044 182.834 74.5458 182.772 75.3333C182.71 76.1086 182.604 76.81 182.455 77.4376C182.306 78.0651 182.101 78.6558 181.84 79.2096C181.591 79.7633 181.274 80.3601 180.889 81L179.546 80.317C179.957 79.7387 180.292 79.2034 180.553 78.7112C180.814 78.2067 181.013 77.6714 181.15 77.1053C181.299 76.527 181.399 75.8748 181.448 75.1488C181.511 74.4227 181.548 73.5429 181.56 72.5092H179.696V78.1759C179.696 78.5697 179.652 78.9019 179.565 79.1726C179.491 79.4434 179.36 79.6649 179.174 79.8371C178.987 80.0094 178.739 80.1386 178.428 80.2248C178.129 80.3232 177.75 80.3847 177.29 80.4093L176.395 80.4832L175.985 79.1173L177.029 79.0434C177.564 79.0188 177.918 78.9204 178.092 78.7481C178.279 78.5758 178.372 78.2743 178.372 77.8436V72.5092H175.985C175.973 73.6044 175.929 74.5396 175.855 75.3149C175.78 76.0901 175.656 76.7915 175.482 77.4191C175.32 78.0344 175.103 78.6127 174.829 79.1542C174.568 79.6956 174.232 80.2863 173.822 80.9262L172.461 80.2617C172.896 79.6956 173.25 79.1665 173.524 78.6743C173.81 78.182 174.034 77.6529 174.195 77.0869C174.357 76.5208 174.469 75.8748 174.531 75.1488C174.605 74.4227 174.655 73.5429 174.68 72.5092H172.275V71.1802H174.68V71.1433V65.1075H179.696V71.1802H181.56V71.1433V65.1075H186.744V71.1802H189V72.5092ZM178.372 71.1802V66.418H175.985V71.1802H178.372ZM185.439 71.1802V66.418H182.884V71.1802H185.439Z" fill="black"/>
<g clip-path="url(#clip0_0_1)">
<path d="M266.558 119.469L261.394 124.582C261.394 124.582 261.804 126.452 261.584 127.993C261.364 129.534 255.961 134.809 254.784 137.805C253.831 140.232 255.416 142.526 256.052 143.31C256.183 143.472 256.422 143.48 256.574 143.338L273.889 127.193C273.899 127.184 273.907 127.175 273.916 127.165C273.924 127.156 273.932 127.146 273.939 127.135C273.947 127.125 273.954 127.114 273.96 127.103C273.966 127.092 273.972 127.081 273.977 127.07C273.982 127.058 273.987 127.046 273.99 127.034C273.994 127.022 273.998 127.01 274 126.998C274.003 126.985 274.005 126.973 274.007 126.96C274.008 126.948 274.009 126.935 274.009 126.922C274.009 126.91 274.009 126.897 274.008 126.884C274.006 126.872 274.005 126.859 274.002 126.847C274 126.834 273.997 126.822 273.993 126.81C273.99 126.798 273.985 126.786 273.981 126.774C273.976 126.763 273.97 126.751 273.964 126.74C273.958 126.729 273.952 126.718 273.945 126.708C273.938 126.697 273.93 126.687 273.922 126.677C273.914 126.667 273.905 126.658 273.896 126.649L266.558 119.469Z" fill="black"/>
<path d="M267.794 120.674L261.657 126.295" stroke="#D1D8E7" stroke-width="2"/>
<path d="M272.637 125.753L255.397 142.546" stroke="#D1D8E7" stroke-width="2"/>
<path d="M267.19 125.039C267.19 125.039 268.395 126.924 266.638 128.93C264.88 130.937 262.876 130.026 261.822 131.168C260.768 132.31 262.205 133.161 260.397 135.297C258.589 137.434 257.003 136.512 255.907 138.156C254.811 139.799 256.287 141.558 256.287 141.558" stroke="white" stroke-opacity="0.396577" stroke-width="3"/>
<path d="M263.311 128.981C263.311 128.981 258.433 128.996 258.433 128.996" stroke="#A0C4FF" stroke-width="3"/>
<path d="M260.424 131.11L256.944 131.088" stroke="#A0C4FF" stroke-width="3"/>
<path d="M259.175 133.275L255.696 133.253" stroke="#A0C4FF" stroke-width="3"/>
<path d="M232.513 128.159L224.688 126.197C224.688 126.197 223.136 127.656 221.54 128.329C219.943 129.003 211.827 126.908 208.295 127.508C205.399 128.001 204.116 130.879 203.748 131.898C203.678 132.093 203.793 132.301 203.994 132.358L229.361 139.532C229.373 139.535 229.385 139.538 229.398 139.54C229.41 139.542 229.423 139.544 229.435 139.545C229.448 139.546 229.461 139.546 229.473 139.546C229.486 139.545 229.499 139.544 229.511 139.543C229.524 139.541 229.536 139.539 229.549 139.536C229.561 139.533 229.573 139.53 229.585 139.526C229.597 139.522 229.609 139.517 229.621 139.512C229.632 139.506 229.644 139.501 229.655 139.494C229.666 139.488 229.676 139.481 229.686 139.473C229.697 139.466 229.707 139.458 229.716 139.45C229.726 139.441 229.735 139.432 229.743 139.423C229.752 139.413 229.76 139.404 229.767 139.394C229.775 139.383 229.782 139.373 229.788 139.362C229.795 139.351 229.801 139.34 229.806 139.329C229.812 139.317 229.817 139.305 229.821 139.293C229.825 139.281 229.829 139.269 229.831 139.257L232.513 128.159Z" fill="black"/>
<path d="M232.062 130.027L223.197 127.434" stroke="#D1D8E7" stroke-width="2"/>
<path d="M229.982 137.508L204.119 130.799" stroke="#D1D8E7" stroke-width="2"/>
<path d="M227.553 131.942C227.553 131.942 226.44 134.161 223.523 133.646C220.606 133.13 220.333 130.712 218.641 130.368C216.95 130.023 216.957 131.871 213.887 131.382C210.817 130.893 210.793 128.865 208.599 128.768C206.405 128.671 205.568 131.074 205.568 131.074" stroke="white" stroke-opacity="0.396577" stroke-width="3"/>
<path d="M221.577 130.531C221.577 130.531 218.778 125.918 218.778 125.918" stroke="#A0C4FF" stroke-width="3"/>
<path d="M217.897 129.011L215.931 125.702" stroke="#A0C4FF" stroke-width="3"/>
<path d="M215.118 129.065L213.152 125.756" stroke="#A0C4FF" stroke-width="3"/>
<path d="M308.689 90.4539C308.689 90.4539 309.349 105.603 297.252 106.852C285.154 108.101 263.981 102.577 262.893 102.952C261.805 103.327 238.136 128.488 238.136 128.488L221.95 117.933L253.44 77.4442L308.689 90.4539Z" fill="#432E27"/>
<path d="M252.228 120.518L239.344 88.7527C239.344 88.7527 239.632 79.4604 245.566 77.5888C251.501 75.7171 256.561 82.7878 256.561 82.7878L269.309 112.74L252.228 120.518Z" fill="#593B31"/>
<path d="M286.031 67.0417L293.531 68.9007C293.555 68.9066 293.578 68.9137 293.601 68.922C293.625 68.9302 293.647 68.9396 293.67 68.9501C293.692 68.9606 293.714 68.9721 293.735 68.9848C293.756 68.9974 293.777 69.011 293.797 69.0257C293.816 69.0403 293.835 69.0559 293.854 69.0724C293.872 69.0889 293.889 69.1063 293.906 69.1245C293.923 69.1428 293.938 69.1618 293.953 69.1815C293.968 69.2013 293.981 69.2217 293.994 69.2428C294.007 69.264 294.018 69.2856 294.029 69.3079C294.04 69.3302 294.049 69.3529 294.057 69.3761C294.066 69.3993 294.073 69.4228 294.079 69.4467C294.085 69.4706 294.09 69.4947 294.093 69.5191C294.097 69.5435 294.099 69.568 294.101 69.5926C294.102 69.6172 294.102 69.6418 294.101 69.6665C294.099 69.6911 294.097 69.7156 294.093 69.74C294.09 69.7644 294.085 69.7885 294.079 69.8125L290.597 83.6947C290.591 83.7187 290.584 83.7423 290.576 83.7655C290.568 83.7887 290.558 83.8115 290.548 83.8338C290.537 83.8561 290.525 83.8778 290.513 83.899C290.5 83.9201 290.486 83.9406 290.472 83.9605C290.457 83.9803 290.441 83.9994 290.425 84.0177C290.408 84.036 290.391 84.0534 290.372 84.07C290.354 84.0866 290.335 84.1023 290.315 84.117C290.295 84.1317 290.275 84.1454 290.254 84.1581C290.232 84.1709 290.211 84.1825 290.188 84.1931C290.166 84.2037 290.143 84.2132 290.12 84.2215C290.097 84.2299 290.073 84.2371 290.049 84.2431C290.025 84.2491 290.001 84.254 289.977 84.2577C289.952 84.2613 289.928 84.2638 289.903 84.2651C289.878 84.2663 289.854 84.2664 289.829 84.2652C289.804 84.2641 289.78 84.2617 289.755 84.2581C289.731 84.2546 289.707 84.2498 289.683 84.2439L282.183 82.3849C282.159 82.3789 282.135 82.3718 282.112 82.3636C282.089 82.3553 282.066 82.3459 282.044 82.3355C282.021 82.325 282 82.3134 281.978 82.3008C281.957 82.2881 281.937 82.2745 281.917 82.2599C281.897 82.2452 281.878 82.2296 281.86 82.2131C281.841 82.1966 281.824 82.1792 281.807 82.161C281.791 82.1428 281.775 82.1238 281.76 82.104C281.746 82.0843 281.732 82.0638 281.719 82.0427C281.707 82.0216 281.695 81.9999 281.684 81.9776C281.674 81.9554 281.664 81.9327 281.656 81.9095C281.648 81.8863 281.641 81.8627 281.635 81.8388C281.629 81.8149 281.624 81.7908 281.62 81.7664C281.617 81.742 281.614 81.7175 281.613 81.6929C281.612 81.6683 281.612 81.6437 281.613 81.6191C281.614 81.5945 281.617 81.57 281.62 81.5456C281.624 81.5212 281.629 81.497 281.635 81.4731L285.116 67.5908C285.122 67.5669 285.129 67.5433 285.138 67.5201C285.146 67.4968 285.155 67.4741 285.166 67.4518C285.176 67.4295 285.188 67.4077 285.201 67.3866C285.213 67.3654 285.227 67.3449 285.242 67.3251C285.257 67.3052 285.272 67.2862 285.289 67.2679C285.305 67.2496 285.323 67.2321 285.341 67.2155C285.359 67.1989 285.379 67.1833 285.398 67.1686C285.418 67.1538 285.439 67.1401 285.46 67.1274C285.481 67.1147 285.503 67.103 285.525 67.0924C285.547 67.0819 285.57 67.0724 285.594 67.064C285.617 67.0557 285.64 67.0485 285.664 67.0424C285.688 67.0364 285.712 67.0316 285.737 67.0279C285.761 67.0242 285.786 67.0217 285.811 67.0205C285.835 67.0192 285.86 67.0192 285.885 67.0203C285.909 67.0215 285.934 67.0238 285.958 67.0274C285.983 67.031 286.007 67.0357 286.031 67.0417Z" fill="#F8E71C"/>
<path d="M291.896 47.0625C291.896 47.0625 294.912 48.3893 297.995 49.1535C301.078 49.9177 304.079 50.0823 304.079 50.0823L302.853 83.6348L299.075 93.2026C299.075 93.2026 294.627 93.933 287.225 92.0984C279.823 90.2637 272.842 86.7003 272.842 86.7003L291.896 47.0625Z" fill="white"/>
<path d="M285.037 91.6337L291.066 61.6914L280.43 89.8308C280.43 89.8308 280.121 90.0078 281.254 90.5012C282.388 90.9946 285.037 91.6337 285.037 91.6337Z" fill="#D8D8D8"/>
<path d="M291.343 93.2105L300.146 63.9565L296.262 93.7711C296.262 93.7711 296.451 94.0717 295.217 93.9778C293.984 93.8839 291.343 93.2105 291.343 93.2105Z" fill="#D8D8D8"/>
<path d="M272.216 74.5151C272.216 74.5151 259.299 79.7009 255.113 73.4701C250.927 67.2394 265.906 65.8372 268.155 64.0944C270.404 62.3517 277.791 45.4765 284.859 49.118C291.926 52.7595 272.216 74.5151 272.216 74.5151Z" fill="#D85342"/>
<path d="M303.308 50.7588L300.305 55.4616C300.305 55.4616 300.361 64.6655 298.73 72.9913C297.098 81.3171 293.153 93.6734 293.153 93.6734C293.153 93.6734 295.06 97.2816 295.781 98.8418C298.152 103.965 307.761 105.108 307.949 105.081C309.94 104.794 310.848 99.7631 313.349 92.641C315.85 85.5188 315.94 87.6827 316.008 77.2738C316.077 66.8647 314.858 58.1311 313.588 56.3699C312.318 54.6088 307.013 51.677 307.013 51.677L306.126 48.7404C306.126 48.7404 301.333 46.9588 298.84 46.3409C296.347 45.723 291.81 45.1921 291.81 45.1921L289.336 47.4158C289.336 47.4158 287.317 47.3798 285.376 47.9312C283.434 48.4825 281.559 48.4315 280.304 49.9811C279.049 51.5307 271.702 65.4392 270.006 72.1991C268.311 78.959 264.75 86.1077 264.929 88.154C265.109 90.2005 270.816 92.0199 271.787 92.3091C273.852 92.9236 279.896 93.3391 281.277 92.2058C282.659 91.0724 281.681 87.8562 284.371 79.6433C287.061 71.4303 294.677 54.0667 294.677 54.0667L293.29 48.3957C293.29 48.3957 296.22 50.6393 297.917 51.0396C299.615 51.44 303.308 50.7588 303.308 50.7588Z" fill="#F55B48"/>
<path d="M268.614 82.8878L242.467 76.4056L230.542 53.2515L257.57 59.9519L268.614 82.8878Z" fill="#EBEAEA"/>
<path d="M234.13 70.5105C232.283 67.562 240.384 62.7624 241.769 62.8716C243.154 62.9808 241.422 64.7146 241.422 64.7146C241.422 64.7146 244.672 64.0243 245.244 64.9375C245.816 65.8508 244.487 66.3118 244.487 66.3118C244.487 66.3118 247.407 67.0004 244.8 68.6259C242.193 70.2513 235.976 73.459 234.13 70.5105Z" fill="#FEACB6"/>
<path d="M297.778 49.4137C295.601 48.8738 293.21 48.9165 293.21 48.9165L292.387 46.0131C292.387 46.0131 295.36 46.0308 298.822 46.8893C302.283 47.7477 304.917 49.1207 304.917 49.1207L303.284 50.8994C303.284 50.8994 300.927 50.2378 299.927 49.9702C299.136 49.7582 298.419 49.5727 297.778 49.4137Z" fill="black"/>
<path d="M288.951 48.6548L289.093 53.1114L291.847 49.6806L292.883 49.9374L293.821 54.283L293.124 54.572L291.362 53.0918L288.512 55.4289L288.951 48.6548Z" fill="#EE713E"/>
<path d="M305.808 53.763L303.917 59.2537L303.713 57.5124L302.473 59.2285L302.239 55.0978L300.659 55.6327L302.862 52.6135L303.978 52.8902L304.072 57.6485L305.808 53.763Z" fill="#EE713E"/>
<path d="M301.986 65.0459C301.986 65.0459 303.67 65.6341 305.426 65.899C307.181 66.164 308.539 66.0348 308.539 66.0348L308.283 67.0558C308.283 67.0558 306.599 66.991 305.212 66.7517C303.824 66.5125 302.231 66.0123 302.231 66.0123L301.986 65.0459Z" fill="#EE713E"/>
<path d="M307.273 83.7447L322.463 85.6418C322.463 85.6418 320.425 57.204 312.568 55.8866C304.71 54.5691 307.273 83.7447 307.273 83.7447Z" fill="#FC7964"/>
<path fill-rule="evenodd" clip-rule="evenodd" d="M287.234 71.4135L290.955 72.3354L290.955 72.3354L290.956 72.3356C291.544 72.4816 291.902 73.0762 291.754 73.6637L290.408 79.027L290.408 79.0277C290.26 79.615 289.663 79.9727 289.075 79.8265L285.354 78.9047L285.353 78.9045C284.765 78.7587 284.407 78.1643 284.554 77.5769L285.9 72.2133C286.048 71.6256 286.645 71.2676 287.234 71.4135ZM288.785 79.0651C289.271 79.1855 289.765 78.8898 289.887 78.4038L290.999 73.9711C291.121 73.486 290.825 72.9941 290.339 72.8736L287.262 72.1114C286.776 71.9912 286.283 72.2872 286.161 72.7726L285.049 77.2053L285.048 77.2059C284.927 77.6913 285.222 78.1824 285.708 78.3029L288.785 79.0651Z" fill="#FFA94C"/>
<path d="M289.639 70.4536L287.016 80.9065L287.016 80.9068C286.869 81.4904 286.272 81.845 285.681 81.6987C285.681 81.6987 285.681 81.6986 285.681 81.6986L279.589 80.1894C278.998 80.043 278.638 79.4511 278.785 78.8675C278.785 78.8675 278.785 78.8675 278.785 78.8675L281.408 68.4146L289.639 70.4536L289.639 70.4536Z" fill="#FDCD44"/>
<path d="M288.871 70.2638L286.308 80.4777L286.308 80.4779C286.162 81.0613 285.562 81.4152 284.969 81.2683C284.969 81.2683 284.969 81.2682 284.969 81.2682L278.946 79.7761L278.946 79.7761C279.097 79.9768 279.313 80.1201 279.558 80.1817L285.677 81.6976C286.27 81.8445 286.87 81.4905 287.016 80.9068C287.016 80.9068 287.016 80.9067 287.016 80.9066L289.639 70.454L288.871 70.2638L288.871 70.2638Z" fill="#FFA94C"/>
<path d="M286.3 72.1531L288.129 72.6063L287.625 74.6164L285.796 74.1632L286.3 72.1531Z" fill="#FFDE5D"/>
<path d="M287.442 69.9165L287.807 70.0071L287.213 72.3807L286.847 72.2902L287.442 69.9165Z" fill="white"/>
<path d="M297.698 81.7741C297.698 81.7741 290.192 79.4487 288.861 78.5581C287.53 77.6675 288.711 76.8308 288.941 75.9148C289.171 74.9988 287.85 74.1926 291.382 74.1338C294.914 74.075 299.21 75.7438 299.21 75.7438L297.698 81.7741Z" fill="#FEACB6"/>
<path d="M317.196 79.8192C310.136 76.9448 296.124 72.6526 296.124 72.6526L292.877 83.2071C292.877 83.2071 314.305 90.2739 318.888 89.6559C323.471 89.038 324.256 82.6937 317.196 79.8192Z" fill="#FC7964"/>
<path d="M296.311 40.341C296.311 40.341 294.384 48.0741 294.173 48.8337C293.962 49.5933 295.412 50.8435 298.254 51.5452C301.095 52.247 303.48 51.5651 303.525 50.3684C303.571 49.1718 303.328 40.4375 303.328 40.4375L296.311 40.341Z" fill="#FFAEB7"/>
<path d="M296.26 40.7015C296.26 40.7015 294.917 43.9218 295.244 44.7378C295.677 45.8199 297.06 46.8836 298.435 47.2232C299.96 47.5999 302.288 46.8809 302.215 47.4767C301.901 51.2864 301.849 53.1644 302.206 52.8277C302.824 52.244 303.162 51.5911 303.182 51.1093C303.23 49.9286 303.444 40.7873 303.444 40.7873L296.26 40.7015Z" fill="#FD6E80" fill-opacity="0.180408"/>
<path d="M306.222 36.2385C306.222 36.2385 307.075 35.9363 308.035 36.3363C308.447 36.5079 309.391 37.3193 308.275 39.1727C307.678 40.1652 305.282 40.2807 305.282 40.2807C305.282 40.2807 304.335 43.7131 301.542 44.3334C298.749 44.9538 296.488 45.3399 295.486 42.3955C295.034 41.0667 294.692 40.2859 294.708 38.8599C294.717 37.9711 294.979 37.0815 295.109 36.2502C295.232 35.4598 295.224 34.7182 295.239 34.2376C295.295 32.4404 295.506 32.7218 295.515 31.0303C295.524 29.3388 299.089 28.1053 300.397 28.2143C301.705 28.3232 304.857 28.7691 305.836 31.3962C306.816 34.0232 306.222 36.2385 306.222 36.2385Z" fill="#FFC0C8"/>
<path d="M298.648 41.6726C298.559 41.5482 298.033 41.9767 297.451 41.8911C296.87 41.8056 296.437 41.4189 296.387 41.4836C296.337 41.5484 296.478 41.9359 297.274 42.1186C298.071 42.3013 298.736 41.7969 298.648 41.6726Z" fill="#972332"/>
<path d="M305.989 37.4266L306.885 36.3813C306.885 36.3813 307.496 35.9987 308.135 36.4223C308.41 36.6044 308.843 37.813 308.349 38.8349C307.362 40.8774 305.575 39.614 305.254 40.3551C305.054 40.8169 304.851 41.4596 304.644 41.8735C303.755 43.6563 302.404 44.3298 302.64 44.1431C302.673 44.1173 303.943 43.6765 304.537 42.8519C304.983 42.2337 305.289 41.5366 305.411 41.5149C305.458 41.5066 305.172 42.2184 304.741 42.9023C304.269 43.6529 303.532 44.3906 303.594 44.3794C304.912 44.1413 307.796 43.5375 309.015 41.51C310.426 39.1644 310.666 39.224 310.799 34.4028C310.819 33.6567 309.787 31.7909 309.787 31.7909C309.787 31.7909 309.856 30.2062 309.602 29.5157C309.347 28.8251 309.531 28.3373 308.367 27.0367C307.204 25.7362 305.231 24.9596 301.596 25.3591C299.689 25.5687 296.78 27.5709 295.65 29.2639C293.954 31.8044 293.985 35.3439 294.172 35.1547C294.571 34.7491 295.729 33.0922 298.205 31.5563C300.681 30.0205 305.115 30.579 305.231 30.8743C305.536 31.6531 305.583 34.9421 305.806 35.5665C306.029 36.1908 305.989 37.4266 305.989 37.4266Z" fill="#261C13"/>
<path d="M306.409 28.4329C306.329 28.4144 306.466 29.2493 306.109 29.725C305.752 30.2008 305.159 29.9403 305.138 30.0329C305.116 30.1254 305.994 30.2687 306.268 29.9034C306.542 29.5382 306.49 28.4513 306.409 28.4329Z" fill="#1F1F8B"/>
<path d="M306.012 27.001C305.93 27.1541 302.003 26.5534 299.81 27.7692C297.617 28.985 295.67 32.2311 295.484 32.1328C295.299 32.0346 297.038 28.5197 299.555 27.1976C302.072 25.8754 306.094 26.8479 306.012 27.001Z" fill="#201D8D"/>
<path d="M300.305 37.6894C299.729 37.6823 299.276 36.7753 299.299 35.7364C299.322 34.6975 299.808 33.8611 300.383 33.8683C300.959 33.8754 301.479 34.817 301.456 35.8559C301.433 36.8948 300.88 37.6965 300.305 37.6894Z" fill="#FDFAE9"/>
<path d="M296.126 36.7505C295.774 36.7048 295.562 36.0364 295.651 35.2575C295.741 34.4785 296.099 33.8841 296.45 33.9298C296.802 33.9754 297.014 34.6439 296.925 35.4228C296.835 36.2017 296.477 36.7961 296.126 36.7505Z" fill="#FDFAE9"/>
<path d="M299.926 37.7001C299.677 37.7182 299.488 37.3076 299.503 36.783C299.518 36.2584 299.732 35.8183 299.981 35.8002C300.23 35.782 300.419 36.1926 300.404 36.7172C300.389 37.2419 300.175 37.6819 299.926 37.7001Z" fill="#03003A"/>
<path d="M302.082 33.7628C302.2 33.7146 301.653 33.2356 301.288 33.1437C300.924 33.0519 300.252 33.1996 300.243 33.2997C300.234 33.3997 300.734 33.2031 301.271 33.3382C301.807 33.4733 301.963 33.8109 302.082 33.7628Z" fill="#090543"/>
<path d="M297.341 33.1234C297.428 33.0302 296.729 32.8288 296.359 32.8995C295.99 32.9701 295.442 33.3857 295.477 33.4796C295.511 33.5734 295.882 33.1858 296.426 33.0819C296.97 32.978 297.254 33.2165 297.341 33.1234Z" fill="#090543"/>
<path d="M297.236 31.5875C297.214 31.5292 296.716 31.5227 296.474 31.6708C296.232 31.819 296.077 32.2243 296.143 32.2845C296.208 32.3447 296.241 32.0971 296.561 31.9015C296.881 31.7058 297.258 31.6459 297.236 31.5875Z" fill="#090543"/>
<path d="M297.821 35.4245C297.645 35.384 297.604 36.4103 296.613 37.8708C296.282 38.3587 295.137 39.2666 295.137 39.2666C295.137 39.2666 295.622 39.7318 296.01 39.8383C296.399 39.9448 297.319 39.8644 297.319 39.8644C297.319 39.8644 296.453 39.7166 296.071 39.5782C295.689 39.4399 295.617 39.2484 295.617 39.2484C295.617 39.2484 296.574 38.5013 296.885 37.9333C297.584 36.6611 297.997 35.4649 297.821 35.4245Z" fill="#FD8D9D"/>
<path d="M300.942 42.8267C299.674 42.5359 298.884 41.2731 299.179 40.0062C299.474 38.7393 300.74 37.948 302.009 38.2388C303.277 38.5296 304.067 39.7924 303.772 41.0593C303.478 42.3263 302.211 43.1176 300.942 42.8267Z" fill="url(#paint0_radial_0_1)"/>
<path d="M306.154 38.9852C306.154 38.9852 306.368 38.669 306.476 38.5759C306.817 38.2831 307.042 38.2224 307.042 38.2224C307.042 38.2224 306.84 38.1919 306.423 38.4521C306.279 38.5421 305.91 38.9294 305.91 38.9294L306.154 38.9852Z" fill="#FA7886"/>
<path d="M296.137 36.799C295.932 36.7721 295.778 36.5176 295.713 36.1547C295.695 36.0513 295.721 35.5453 296.104 35.6332C296.487 35.7211 296.429 36.1407 296.407 36.3138C296.374 36.5751 296.177 36.8043 296.137 36.799Z" fill="#03003A"/>
<path d="M307.075 29.999C307.032 30.0005 307.244 30.3227 307.18 30.5722C307.117 30.8218 306.776 30.9504 306.832 30.9484C306.887 30.9464 307.316 30.7837 307.371 30.5654C307.427 30.3471 307.117 29.9975 307.075 29.999Z" fill="#201D8D"/>
<path d="M302.317 35.1591L299.26 35.1101C299.249 35.11 299.237 35.1103 299.226 35.1111C299.215 35.1119 299.204 35.1133 299.192 35.1151C299.181 35.1169 299.17 35.1192 299.159 35.122C299.148 35.1248 299.138 35.1281 299.127 35.1319C299.116 35.1357 299.106 35.1399 299.096 35.1446C299.085 35.1493 299.075 35.1545 299.066 35.1601C299.056 35.1657 299.046 35.1717 299.037 35.1781C299.028 35.1846 299.019 35.1914 299.01 35.1987C299.002 35.2059 298.993 35.2135 298.985 35.2215C298.977 35.2295 298.97 35.2378 298.963 35.2464C298.955 35.2551 298.949 35.2641 298.942 35.2733C298.936 35.2826 298.93 35.2921 298.924 35.3019C298.919 35.3117 298.914 35.3217 298.909 35.332C298.904 35.3422 298.9 35.3526 298.896 35.3633C298.893 35.3739 298.889 35.3846 298.887 35.3955C298.884 35.4064 298.882 35.4174 298.88 35.4285L298.626 37.0374C298.624 37.0497 298.623 37.0621 298.622 37.0745C298.622 37.087 298.621 37.0995 298.622 37.1119C298.623 37.1244 298.624 37.1368 298.626 37.1491C298.627 37.1615 298.63 37.1737 298.633 37.1858C298.636 37.1979 298.639 37.2098 298.643 37.2216C298.648 37.2333 298.652 37.2448 298.658 37.2561C298.663 37.2674 298.669 37.2783 298.675 37.289C298.682 37.2997 298.689 37.31 298.696 37.32C298.704 37.33 298.712 37.3396 298.72 37.3488C298.729 37.358 298.738 37.3667 298.747 37.3751C298.756 37.3834 298.766 37.3912 298.776 37.3985C298.786 37.4059 298.797 37.4127 298.807 37.419C298.818 37.4253 298.829 37.4311 298.841 37.4363C298.852 37.4415 298.864 37.4461 298.876 37.4502C298.887 37.4543 298.899 37.4577 298.912 37.4606C298.924 37.4635 298.936 37.4657 298.948 37.4673L301.878 37.8555C301.89 37.857 301.902 37.8581 301.914 37.8585C301.925 37.8589 301.937 37.8588 301.949 37.8582C301.961 37.8575 301.973 37.8563 301.985 37.8545C301.996 37.8527 302.008 37.8503 302.02 37.8475C302.031 37.8446 302.043 37.8412 302.054 37.8372C302.065 37.8332 302.076 37.8287 302.087 37.8238C302.098 37.8188 302.108 37.8133 302.119 37.8073C302.129 37.8013 302.139 37.7948 302.149 37.7879C302.158 37.781 302.168 37.7736 302.177 37.7658C302.185 37.758 302.194 37.7498 302.202 37.7412C302.21 37.7326 302.218 37.7236 302.226 37.7142C302.233 37.7049 302.24 37.6952 302.246 37.6852C302.253 37.6752 302.259 37.665 302.264 37.6544C302.27 37.6439 302.275 37.6331 302.279 37.6221C302.283 37.6111 302.287 37.5999 302.291 37.5885C302.294 37.5771 302.297 37.5656 302.299 37.554L302.681 35.606C302.683 35.5926 302.685 35.5791 302.686 35.5654C302.688 35.5518 302.688 35.5382 302.688 35.5245C302.687 35.5108 302.686 35.4972 302.684 35.4836C302.682 35.4701 302.68 35.4567 302.677 35.4434C302.673 35.4302 302.669 35.4171 302.665 35.4043C302.66 35.3915 302.654 35.3789 302.648 35.3667C302.642 35.3545 302.635 35.3426 302.628 35.3311C302.62 35.3196 302.612 35.3086 302.604 35.298C302.595 35.2873 302.586 35.2772 302.576 35.2676C302.567 35.258 302.556 35.2489 302.546 35.2405C302.535 35.232 302.524 35.2241 302.512 35.2168C302.5 35.2095 302.488 35.2029 302.476 35.1969C302.464 35.1909 302.451 35.1856 302.438 35.181C302.425 35.1764 302.412 35.1725 302.399 35.1694C302.385 35.1662 302.372 35.1637 302.358 35.162C302.345 35.1603 302.331 35.1594 302.317 35.1591Z" stroke="black"/>
<path d="M297.242 34.7771L295.251 34.6971C295.238 34.6966 295.225 34.6967 295.212 34.6975C295.199 34.6983 295.187 34.6998 295.174 34.7019C295.161 34.704 295.149 34.7067 295.136 34.7101C295.124 34.7135 295.111 34.7175 295.099 34.7222C295.087 34.7268 295.075 34.7321 295.064 34.7379C295.052 34.7438 295.041 34.7502 295.03 34.7572C295.02 34.7642 295.009 34.7717 294.999 34.7798C294.989 34.7878 294.979 34.7964 294.97 34.8054C294.961 34.8145 294.952 34.824 294.944 34.8339C294.936 34.8438 294.928 34.8542 294.921 34.8649C294.914 34.8756 294.907 34.8866 294.901 34.898C294.895 34.9094 294.89 34.9211 294.885 34.933C294.88 34.9449 294.876 34.9571 294.872 34.9695C294.869 34.9818 294.866 34.9943 294.863 35.007C294.861 35.0197 294.859 35.0324 294.858 35.0452C294.857 35.0581 294.857 35.0709 294.857 35.0837L294.898 36.5588C294.898 36.5799 294.901 36.6008 294.905 36.6215C294.909 36.6422 294.915 36.6624 294.922 36.6821C294.93 36.7018 294.939 36.7207 294.949 36.7389C294.96 36.757 294.972 36.7742 294.986 36.7903C295 36.8064 295.015 36.8213 295.031 36.8349C295.047 36.8485 295.064 36.8607 295.082 36.8714C295.101 36.8821 295.12 36.8912 295.139 36.8988C295.159 36.9063 295.179 36.9122 295.2 36.9163L296.723 37.2193C296.735 37.2216 296.747 37.2234 296.759 37.2246C296.771 37.2259 296.783 37.2265 296.795 37.2266C296.807 37.2267 296.819 37.2262 296.831 37.2251C296.843 37.224 296.854 37.2224 296.866 37.2202C296.878 37.2181 296.89 37.2153 296.901 37.212C296.913 37.2087 296.924 37.2049 296.935 37.2005C296.947 37.1961 296.957 37.1912 296.968 37.1858C296.979 37.1804 296.989 37.1745 297 37.1681C297.01 37.1617 297.019 37.1549 297.029 37.1475C297.038 37.1402 297.048 37.1324 297.056 37.1242C297.065 37.116 297.073 37.1074 297.081 37.0985C297.089 37.0895 297.097 37.0801 297.104 37.0704C297.111 37.0607 297.117 37.0507 297.124 37.0404C297.13 37.0301 297.135 37.0195 297.14 37.0087C297.145 36.9978 297.15 36.9868 297.154 36.9755C297.158 36.9642 297.161 36.9528 297.164 36.9412L297.592 35.2431C297.595 35.2297 297.598 35.216 297.599 35.2022C297.601 35.1885 297.602 35.1746 297.603 35.1607C297.603 35.1468 297.603 35.1329 297.601 35.1191C297.6 35.1053 297.598 35.0915 297.596 35.0779C297.593 35.0643 297.589 35.0508 297.585 35.0376C297.581 35.0244 297.576 35.0114 297.57 34.9987C297.564 34.9861 297.558 34.9737 297.551 34.9617C297.544 34.9498 297.536 34.9382 297.528 34.9271C297.52 34.916 297.511 34.9054 297.501 34.8952C297.492 34.8851 297.481 34.8755 297.471 34.8665C297.46 34.8575 297.449 34.8491 297.438 34.8413C297.426 34.8335 297.414 34.8264 297.402 34.8199C297.389 34.8135 297.377 34.8077 297.364 34.8026C297.351 34.7976 297.338 34.7932 297.324 34.7896C297.311 34.786 297.297 34.7832 297.283 34.7811C297.269 34.779 297.255 34.7777 297.242 34.7771Z" stroke="black"/>
<path d="M306.483 36.568L302.59 36.328" stroke="black"/>
<path d="M297.461 35.834L298.74 35.9489" stroke="black"/>
<path d="M296.442 43.6051L296.054 43.8203" stroke="black"/>
<path d="M296.796 43.8067L296.641 44.2531" stroke="black"/>
<path d="M297.067 44.0195L297.193 44.4631" stroke="black"/>
<path d="M297.617 44.1562L297.743 44.5999" stroke="black"/>
<path d="M265.52 79.7866L282.368 83.9677L281.818 86.1647L264.97 81.9836L265.52 79.7866Z" fill="#EBEAEA"/>
<path d="M257.504 117.99L263.315 115.525L265.976 120.088L261.387 124.584L257.504 117.99Z" fill="#F6C0C6"/>
<path d="M227.864 121.762L233.157 125.18L231.918 127.998L225.4 126.388L227.864 121.762Z" fill="#F6C0C6"/>
<path d="M282.398 115.208L284.693 116.573C284.351 117.227 283.943 117.742 283.468 118.12C282.992 118.497 282.459 118.739 281.868 118.844C281.276 118.95 280.57 118.901 279.749 118.697C278.752 118.45 277.974 118.104 277.415 117.658C276.856 117.212 276.438 116.569 276.162 115.727C275.886 114.885 275.891 113.896 276.176 112.761C276.556 111.246 277.251 110.182 278.262 109.569C279.273 108.955 280.516 108.832 281.992 109.197C283.147 109.484 283.996 109.942 284.54 110.572C285.084 111.202 285.396 112.04 285.474 113.085L282.833 113.021C282.816 112.72 282.775 112.494 282.712 112.341C282.607 112.085 282.455 111.87 282.255 111.697C282.055 111.524 281.813 111.402 281.53 111.332C280.888 111.172 280.331 111.308 279.86 111.739C279.505 112.058 279.225 112.626 279.02 113.446C278.765 114.46 278.745 115.194 278.959 115.647C279.173 116.1 279.56 116.395 280.119 116.534C280.661 116.668 281.108 116.618 281.462 116.382C281.815 116.147 282.127 115.756 282.398 115.208Z" fill="#FFDE5D"/>
<path d="M281.497 124.949L285.707 125.993C286.536 126.198 287.178 126.477 287.633 126.828C288.087 127.18 288.428 127.607 288.657 128.11C288.885 128.613 289.004 129.162 289.014 129.757C289.024 130.352 288.951 130.962 288.794 131.587C288.549 132.565 288.247 133.296 287.889 133.78C287.53 134.264 287.108 134.639 286.62 134.905C286.133 135.171 285.646 135.308 285.162 135.316C284.499 135.329 283.915 135.273 283.41 135.148L279.201 134.104L281.497 124.949ZM283.811 127.725L282.556 132.727L283.25 132.899C283.842 133.046 284.28 133.085 284.563 133.015C284.846 132.946 285.099 132.766 285.323 132.474C285.547 132.183 285.751 131.67 285.934 130.938C286.178 129.968 286.186 129.264 285.959 128.828C285.732 128.391 285.251 128.082 284.517 127.9L283.811 127.725Z" fill="#FFDE5D"/>
<path d="M299.19 113.641L302.026 114.344L299.733 123.494L296.896 122.791L299.19 113.641Z" fill="#FFDE5D"/>
<path d="M305.805 136.731L308.1 138.096C307.758 138.75 307.35 139.265 306.875 139.643C306.399 140.02 305.866 140.262 305.274 140.367C304.683 140.473 303.977 140.424 303.156 140.22C302.159 139.973 301.381 139.627 300.822 139.181C300.263 138.735 299.845 138.092 299.569 137.25C299.293 136.408 299.298 135.419 299.583 134.284C299.962 132.769 300.658 131.705 301.669 131.092C302.679 130.478 303.923 130.355 305.399 130.72C306.554 131.007 307.403 131.465 307.947 132.095C308.491 132.725 308.803 133.563 308.881 134.608L306.24 134.544C306.223 134.243 306.182 134.017 306.119 133.864C306.014 133.608 305.862 133.393 305.662 133.22C305.462 133.047 305.22 132.925 304.937 132.854C304.295 132.695 303.738 132.831 303.267 133.262C302.912 133.581 302.632 134.149 302.427 134.969C302.172 135.983 302.152 136.717 302.366 137.17C302.58 137.623 302.967 137.918 303.526 138.057C304.068 138.191 304.515 138.141 304.869 137.905C305.222 137.67 305.534 137.279 305.805 136.731Z" fill="#FFDE5D"/>
<path d="M318.93 68.5781C318.93 68.5781 306.668 72.9733 301.826 85.7494C296.984 98.5254 295.398 105.6 280.901 111.75C266.404 117.9 250.915 148.324 250.915 148.324L262.143 149.038C262.143 149.038 280.334 143.036 287.892 145.173C295.45 147.311 314.989 140.29 321.068 122.524C327.146 104.757 319.69 84.0505 319.69 84.0505C319.69 84.0505 318.053 79.2429 317.487 75.8164C316.922 72.3898 318.93 68.5781 318.93 68.5781Z" fill="#BEFF33"/>
<path d="M312.131 87.2848C312.131 87.2848 303.129 137.476 281.262 144.08" stroke="white" stroke-width="6" stroke-linecap="round" stroke-linejoin="round"/>
<path d="M307.833 107.033C307.833 107.033 315.104 105.005 318.553 100.612" stroke="white" stroke-width="5" stroke-linecap="round" stroke-linejoin="round"/>
<path d="M287.468 119.702C287.468 119.702 289.304 133.147 297.249 131.131" stroke="white" stroke-width="5" stroke-linecap="round" stroke-linejoin="round"/>
<path d="M208.679 129.078C210.001 128.349 210.477 126.688 209.743 125.37C209.01 124.051 207.344 123.574 206.022 124.303C204.701 125.033 204.225 126.693 204.958 128.012C205.692 129.331 207.358 129.808 208.679 129.078Z" fill="#32C5FF"/>
<path d="M210.038 141.636L212.877 146.737C212.877 146.737 210.166 148.683 209.875 149.602C209.584 150.522 209.65 151.69 210.366 151.295C211.081 150.9 214.989 148.742 214.989 148.742C214.989 148.742 215.715 148.455 215.154 147.447C214.592 146.438 211.415 140.727 211.415 140.727L210.038 141.636Z" fill="#1DA887"/>
<path d="M216.781 137.885L219.62 142.987C219.62 142.987 222.713 141.727 223.65 141.968C224.588 142.21 225.547 142.885 224.831 143.28C224.116 143.675 220.208 145.832 220.208 145.832C220.208 145.832 219.579 146.294 219.018 145.285C218.457 144.277 215.279 138.566 215.279 138.566L216.781 137.885Z" fill="#1DA887"/>
<path d="M225.581 143.806C226.759 143.156 227.326 141.929 226.847 141.067C226.367 140.205 225.023 140.034 223.844 140.685C222.665 141.336 222.099 142.562 222.578 143.424C223.058 144.286 224.402 144.457 225.581 143.806Z" fill="white" fill-opacity="0.358538"/>
<path d="M203.198 118.869C203.198 118.869 204.742 118.659 202.362 117.367C199.983 116.074 199.977 114.031 200.132 113.358C200.286 112.685 200.945 110.815 202.188 110.927C203.431 111.039 204.428 112.656 205.076 112.529C205.725 112.402 206.115 109.105 208.373 110.709C210.631 112.313 209.329 113.636 210.573 113.226C211.817 112.816 215.438 110.144 215.753 111.579C216.068 113.015 212.714 115.014 214.631 115.181C216.548 115.348 221.881 113.734 220.015 116.181C218.149 118.628 217.285 118.168 218.887 119.129C220.489 120.09 219.977 121.48 221.326 122.204C222.676 122.928 224.007 122.109 226.277 124.199C228.547 126.289 230.016 130.496 227.289 132.919C224.562 135.343 223.352 134.095 223.334 132.922C223.317 131.749 225.396 129.943 225.34 128.807C225.283 127.671 224.324 126.981 222.782 126.129C222.789 126.18 224.99 132.103 220.179 137.151C215.369 142.2 212.755 140.945 212.694 141.897C212.634 142.849 214.543 142.797 212.607 143.866C210.671 144.935 209.802 142.342 209.308 142.615C208.813 142.888 208.126 144.141 206.497 143.531C204.868 142.922 204.644 142.987 203.412 142.492C202.18 141.997 201.579 141.562 200.87 141.116C200.207 140.7 196.253 137.015 195.041 132.074C194.956 131.73 194.885 131.379 194.829 131.023C194.757 130.565 194.701 130.128 194.66 129.711C194.597 129.081 194.567 128.497 194.565 127.953C194.556 124.564 195.651 122.753 196.763 121.398C198.171 119.681 199.991 119.069 200.982 119.068C201.972 119.067 203.198 118.869 203.198 118.869Z" fill="#0FAED0"/>
<path d="M214.544 143.456C220.71 140.05 224.991 135.999 224.105 134.408C223.219 132.816 217.503 134.286 211.337 137.691C205.171 141.097 200.891 145.148 201.776 146.739C202.662 148.331 208.378 146.861 214.544 143.456Z" fill="white" fill-opacity="0.384789"/>
<path d="M210.985 132.335C213.893 130.729 214.941 127.072 213.324 124.167C211.708 121.263 208.039 120.209 205.131 121.815C202.223 123.421 201.175 127.078 202.792 129.983C204.408 132.888 208.076 133.941 210.985 132.335Z" fill="white"/>
<path d="M209.382 129.455C210.698 128.728 211.172 127.074 210.44 125.76C209.709 124.446 208.05 123.969 206.734 124.696C205.418 125.422 204.944 127.077 205.676 128.391C206.407 129.705 208.066 130.181 209.382 129.455Z" fill="#63CDE0"/>
<path d="M209.903 137.017C209.91 136.527 209.969 135.832 210.244 135.902C210.496 135.966 210.873 136.341 211.136 136.633C211.308 136.824 211.239 137.052 210.994 137.131L210.351 137.338C210.107 137.416 209.899 137.273 209.903 137.017Z" fill="white"/>
<path d="M213.825 135.113C213.71 134.594 213.596 133.848 213.902 133.857C214.184 133.866 214.677 134.176 215.026 134.423C215.252 134.582 215.234 134.837 214.997 134.978L214.381 135.343C214.142 135.485 213.885 135.384 213.825 135.113Z" fill="white"/>
<path d="M206.525 127.268C206.941 127.039 207.09 126.516 206.86 126.102C206.629 125.687 206.105 125.536 205.689 125.766C205.274 125.995 205.124 126.517 205.355 126.932C205.586 127.347 206.11 127.498 206.525 127.268Z" fill="white"/>
<path d="M223.381 133.41L222.795 134.706C222.794 134.708 222.793 134.71 222.792 134.712C222.792 134.714 222.792 134.716 222.791 134.718C222.791 134.72 222.791 134.722 222.791 134.724C222.791 134.726 222.792 134.728 222.792 134.73C222.793 134.732 222.793 134.734 222.794 134.736C222.795 134.738 222.796 134.74 222.797 134.741C222.798 134.743 222.8 134.745 222.801 134.746C222.802 134.748 222.804 134.749 222.806 134.751C222.807 134.752 222.809 134.753 222.811 134.754C222.813 134.755 222.815 134.756 222.817 134.757C222.819 134.757 222.821 134.758 222.823 134.758C222.825 134.758 222.827 134.759 222.829 134.759C222.831 134.759 222.833 134.758 222.835 134.758C222.837 134.758 222.839 134.757 222.841 134.757C222.843 134.756 222.845 134.755 222.847 134.754C222.849 134.753 222.85 134.752 222.852 134.751L223.781 134.019L223.572 133.753L223.381 133.41Z" fill="white"/>
<path d="M224.267 134.229L224.169 135.354C224.169 135.355 224.169 135.356 224.169 135.357C224.169 135.358 224.169 135.36 224.169 135.361C224.169 135.362 224.169 135.363 224.17 135.364C224.17 135.365 224.17 135.366 224.17 135.367C224.171 135.368 224.171 135.369 224.171 135.37C224.172 135.371 224.172 135.372 224.173 135.373C224.173 135.374 224.173 135.375 224.174 135.376C224.175 135.377 224.175 135.378 224.176 135.379C224.176 135.38 224.177 135.38 224.178 135.381C224.178 135.382 224.179 135.383 224.18 135.384C224.181 135.384 224.181 135.385 224.182 135.386C224.183 135.387 224.184 135.387 224.185 135.388C224.186 135.388 224.187 135.389 224.187 135.39C224.188 135.39 224.189 135.391 224.19 135.391C224.191 135.392 224.192 135.392 224.193 135.392C224.194 135.393 224.195 135.393 224.196 135.393C224.197 135.394 224.198 135.394 224.199 135.394C224.201 135.394 224.202 135.395 224.203 135.395C224.204 135.395 224.205 135.395 224.206 135.395C224.207 135.395 224.208 135.395 224.209 135.395C224.21 135.395 224.211 135.395 224.212 135.394C224.213 135.394 224.215 135.394 224.216 135.394C224.217 135.394 224.218 135.393 224.219 135.393C224.22 135.393 224.221 135.392 224.222 135.392C224.223 135.391 224.224 135.391 224.225 135.39C224.226 135.39 224.226 135.389 224.227 135.389C224.228 135.388 224.229 135.387 224.23 135.387C224.231 135.386 224.232 135.385 224.232 135.385C224.233 135.384 224.234 135.383 224.235 135.382C224.235 135.382 224.236 135.381 224.237 135.38C224.237 135.379 224.238 135.378 224.239 135.377C224.239 135.376 224.24 135.375 224.24 135.374L224.835 134.207L224.572 134.249L224.267 134.229Z" fill="white"/>
<path d="M194.551 129.877C194.551 129.877 189.622 130.663 190.362 135.043C191.101 139.422 192.091 144.898 193.715 144.526C195.338 144.155 195.629 142.519 195.074 140.236C194.519 137.952 192.553 135.814 193.343 134.387C194.133 132.96 195.36 133.152 195.36 133.152C195.36 133.152 194.863 131.821 194.779 131.346C194.696 130.871 194.551 129.877 194.551 129.877Z" fill="#0FB1BA"/>
<path d="M194.112 144.235L195.109 145.022L194.674 143.901C194.674 143.901 194.536 144.047 194.429 144.132C194.322 144.217 194.112 144.235 194.112 144.235Z" fill="white"/>
</g>
</g>
<defs>
<radialGradient id="paint0_radial_0_1" cx="0" cy="0" r="1" gradientUnits="userSpaceOnUse" gradientTransform="translate(304.706 36.6272) rotate(-76.9128) scale(2.03148 0)">
<stop stop-color="#FE9A94"/>
<stop offset="1" stop-color="#FFC0C8"/>
</radialGradient>
<clipPath id="clip0_0_1">
<rect width="168" height="142.8" fill="white" transform="translate(180 1)"/>
</clipPath>
</defs>
</svg>
