<svg width="360" height="144" viewBox="0 0 360 144" fill="none" xmlns="http://www.w3.org/2000/svg">
<path d="M350 0H10C4.47715 0 0 4.47715 0 10V134C0 139.523 4.47715 144 10 144H350C355.523 144 360 139.523 360 134V10C360 4.47715 355.523 0 350 0Z" fill="white"/>
<mask id="mask0_574_222" style="mask-type:alpha" maskUnits="userSpaceOnUse" x="0" y="0" width="360" height="144">
<path d="M350 0H10C4.47715 0 0 4.47715 0 10V134C0 139.523 4.47715 144 10 144H350C355.523 144 360 139.523 360 134V10C360 4.47715 355.523 0 350 0Z" fill="white"/>
</mask>
<g mask="url(#mask0_574_222)">
<path d="M136.967 109.571L133.845 113.603C133.845 113.603 132.507 113.479 131.452 113.764C130.398 114.05 127.183 118.262 125.196 119.338C123.608 120.198 121.9 119.328 121.278 118.944C121.141 118.86 121.112 118.676 121.207 118.545L130.946 105.159C130.952 105.151 130.958 105.143 130.965 105.136C130.971 105.129 130.978 105.122 130.986 105.115C130.993 105.108 131.001 105.102 131.008 105.096C131.016 105.09 131.025 105.085 131.033 105.08C131.042 105.075 131.05 105.07 131.059 105.066C131.068 105.062 131.077 105.058 131.086 105.055C131.096 105.051 131.105 105.049 131.115 105.046C131.124 105.044 131.134 105.042 131.144 105.041C131.154 105.04 131.163 105.039 131.173 105.038C131.183 105.038 131.193 105.038 131.203 105.039C131.212 105.04 131.222 105.041 131.232 105.042C131.242 105.044 131.251 105.046 131.261 105.049C131.27 105.051 131.28 105.054 131.289 105.058C131.298 105.062 131.307 105.066 131.316 105.07C131.324 105.074 131.333 105.079 131.341 105.085C131.349 105.09 131.357 105.096 131.365 105.102L136.967 109.571Z" fill="#3D231A"/>
<path d="M136.021 108.818L132.628 113.571" stroke="#D1D8E7" stroke-width="2"/>
<path d="M132.074 105.881L121.842 119.319" stroke="#D1D8E7" stroke-width="2"/>
<path d="M133.035 109.611C133.035 109.611 131.62 108.935 130.372 110.33C129.124 111.725 129.928 113.041 129.222 113.872C128.516 114.704 127.802 113.777 126.467 115.219C125.133 116.66 125.91 117.683 124.858 118.587C123.807 119.491 122.457 118.615 122.457 118.615" stroke="white" stroke-opacity="0.396577" stroke-width="3"/>
<path d="M130.618 112.649C130.618 112.649 131.023 116.046 131.023 116.046" stroke="#A0C4FF" stroke-width="3"/>
<path d="M129.382 114.841L129.693 117.262" stroke="#A0C4FF" stroke-width="3"/>
<path d="M127.981 115.896L128.292 118.316" stroke="#A0C4FF" stroke-width="3"/>
<path d="M149.353 88.5777L145.249 91.6003C145.249 91.6003 143.999 91.11 142.909 91.0932C141.818 91.0763 137.575 94.247 135.373 94.7346C133.612 95.1243 132.212 93.8125 131.721 93.2704C131.612 93.1505 131.635 92.9657 131.762 92.8658L144.788 82.6573C144.795 82.6513 144.803 82.6456 144.812 82.6403C144.82 82.635 144.829 82.6302 144.837 82.6258C144.846 82.6214 144.855 82.6175 144.864 82.614C144.874 82.6105 144.883 82.6075 144.893 82.6049C144.902 82.6024 144.912 82.6004 144.921 82.5988C144.931 82.5972 144.941 82.5962 144.951 82.5956C144.96 82.595 144.97 82.5949 144.98 82.5954C144.99 82.5958 145 82.5967 145.009 82.5981C145.019 82.5996 145.029 82.6015 145.038 82.6039C145.048 82.6063 145.057 82.6091 145.067 82.6125C145.076 82.6158 145.085 82.6197 145.094 82.6239C145.103 82.6282 145.111 82.6329 145.12 82.638C145.128 82.6432 145.136 82.6488 145.144 82.6547C145.152 82.6607 145.159 82.6671 145.166 82.6738C145.174 82.6805 145.18 82.6876 145.187 82.695C145.193 82.7025 145.199 82.7102 145.205 82.7183L149.353 88.5777Z" fill="#3D231A"/>
<path d="M148.66 87.592L144.099 91.2333" stroke="#D1D8E7" stroke-width="2"/>
<path d="M145.668 83.6658L132.158 93.7856" stroke="#D1D8E7" stroke-width="2"/>
<path d="M145.569 87.5204C145.569 87.5204 144.397 86.4761 142.815 87.4758C141.234 88.4756 141.644 89.9681 140.738 90.5745C139.832 91.1808 139.401 90.0891 137.724 91.1098C136.047 92.1305 136.511 93.3327 135.253 93.9132C133.995 94.4937 132.94 93.275 132.94 93.275" stroke="white" stroke-opacity="0.396577" stroke-width="3"/>
<path d="M142.417 89.7847C142.417 89.7847 141.875 93.1639 141.875 93.1639" stroke="#A0C4FF" stroke-width="3"/>
<path d="M140.627 91.5498L140.263 93.9639" stroke="#A0C4FF" stroke-width="3"/>
<path d="M138.991 92.176L138.627 94.5901" stroke="#A0C4FF" stroke-width="3"/>
<path d="M184.191 96.8076C184.191 96.8076 177.616 97.3527 173.501 102.661C171.413 104.999 170.393 109.113 158.933 111.039C147.474 112.965 139.338 109.437 139.338 109.437C139.338 109.437 134.583 111.216 135.135 115.278C135.245 116.559 156.204 120.293 165.29 118.212C174.375 116.132 193.596 109.041 193.596 109.041L184.191 96.8076Z" fill="#267FFF"/>
<path d="M145.216 93.8785C145.216 93.8785 151.005 89.2559 151.193 89.7494C151.382 90.243 164.271 111.899 164.271 111.899L153.767 113.625C153.767 113.625 146.618 97.5523 146.264 96.6253C145.911 95.6984 145.216 93.8785 145.216 93.8785Z" fill="#4792FF"/>
<path d="M222.857 73.7288C222.857 73.7288 224.201 77.2659 224.549 78.7946C224.591 78.9797 228.095 78.6131 228.131 78.7898C228.17 78.9817 225.046 80.0001 225.078 80.1822C225.496 82.5694 224.964 84.2005 224.138 84.8893C224.158 84.9246 219.661 85.8436 218.743 88.4995C218.338 89.0645 214.116 85.8314 214.116 85.8314L215.825 83.7561L213.336 78.6651C213.336 78.6651 217.588 76.0744 217.907 75.9513C218.226 75.8282 222.857 73.7288 222.857 73.7288Z" fill="#FFCBD1"/>
<path d="M215.224 84.3472L214.624 82.7756C214.624 82.7756 210.537 82.2333 210.059 77.483C209.582 72.7328 216.059 70.5294 216.059 70.5294C216.059 70.5294 221.103 69.047 222.547 71.3824C222.651 71.4412 224.202 70.5798 225.017 71.706C225.832 72.8322 224.153 77.3553 224.153 77.3553C224.153 77.3553 223.215 74.3722 222.736 74.3686C222.256 74.365 221.566 74.4104 221.281 75.2515C220.997 76.0926 220.513 78.9596 219.811 79.0325C219.108 79.1055 216.888 79.9559 216.888 79.9559C216.888 79.9559 215.67 78.9457 215.094 79.6427C214.518 80.3396 215.831 83.1618 217.705 83.0191C217.724 83.0269 217.167 84.2645 217.167 84.2645L215.224 84.3472Z" fill="#1F170F"/>
<path d="M140.792 71.502C141.722 71.5004 142.477 70.6345 142.479 69.568C142.481 68.5016 141.729 67.6383 140.798 67.6399C139.868 67.6415 139.113 68.5074 139.111 69.5739C139.109 70.6404 139.862 71.5036 140.792 71.502Z" stroke="black" stroke-opacity="0.85098" stroke-width="2"/>
<path d="M223.048 79.8911C223.422 79.7469 223.558 79.1925 223.352 78.653C223.146 78.1134 222.676 77.793 222.303 77.9373C221.929 78.0815 221.793 78.6359 221.999 79.1754C222.205 79.715 222.675 80.0354 223.048 79.8911Z" fill="white"/>
<path d="M223.026 79.3823C223.234 79.3021 223.312 79.0017 223.201 78.7111C223.09 78.4206 222.832 78.2501 222.625 78.3302C222.417 78.4104 222.339 78.7109 222.45 79.0014C222.561 79.2919 222.819 79.4624 223.026 79.3823Z" fill="#453D3D"/>
<path d="M139.108 113.232C139.108 113.232 155.149 117.583 164.117 114.694C173.085 111.806 188.637 103.888 188.637 103.888" stroke="white" stroke-dasharray="10 10"/>
<path d="M224.133 82.593C224.133 82.593 224.527 82.9375 225.163 82.6917" stroke="black" stroke-opacity="0.85098" stroke-linecap="round" stroke-linejoin="round"/>
<g filter="url(#filter0_f_574_222)">
<path d="M220.646 82.7731C221.004 82.6346 221.184 82.2314 221.047 81.8725C220.91 81.5136 220.508 81.335 220.15 81.4735C219.791 81.6121 219.611 82.0153 219.748 82.3742C219.885 82.733 220.287 82.9116 220.646 82.7731Z" fill="#FEA3A1"/>
</g>
<path d="M220.8 79.0618L216.522 79.5552" stroke="#1F170F"/>
<path d="M215.254 84.3616C215.254 84.3616 216.725 86.0476 217.55 86.2903C219.338 86.8162 221.05 86.0206 221.424 85.8758C221.436 85.9365 219.423 87.1268 218.747 88.4961C218.071 89.8653 214 85.9409 214 85.9409L215.254 84.3616Z" fill="#FFAEB7"/>
<path d="M219.59 71.5688C219.59 71.5688 217.015 72.5425 217.729 74.9375" stroke="white" stroke-opacity="0.232282"/>
<path d="M216.941 72.4238C216.941 72.4238 214.366 73.3975 215.081 75.7925" stroke="white" stroke-opacity="0.232282"/>
<path d="M243.803 72.7751L243.918 72.7649C243.937 72.7631 243.957 72.7624 243.976 72.7625C243.996 72.7627 244.015 72.7638 244.034 72.7659C244.053 72.7679 244.072 72.7709 244.091 72.7749C244.11 72.7788 244.129 72.7836 244.148 72.7894C244.166 72.7951 244.184 72.8018 244.202 72.8093C244.22 72.8168 244.237 72.8252 244.254 72.8344C244.271 72.8437 244.288 72.8537 244.304 72.8646C244.319 72.8754 244.335 72.887 244.35 72.8993C244.365 72.9117 244.379 72.9247 244.392 72.9385C244.406 72.9522 244.419 72.9666 244.431 72.9816C244.443 72.9966 244.454 73.0121 244.465 73.0282C244.475 73.0443 244.485 73.0609 244.494 73.078C244.503 73.095 244.511 73.1125 244.518 73.1303C244.525 73.1482 244.531 73.1663 244.537 73.1848C244.542 73.2033 244.547 73.222 244.55 73.2409C244.554 73.2598 244.556 73.2789 244.558 73.298L245.825 88.0214C245.827 88.0405 245.827 88.0597 245.827 88.079C245.827 88.0982 245.826 88.1174 245.824 88.1365C245.822 88.1556 245.818 88.1746 245.814 88.1934C245.81 88.2122 245.805 88.2309 245.8 88.2493C245.794 88.2676 245.787 88.2856 245.779 88.3033C245.772 88.3211 245.763 88.3384 245.754 88.3552C245.745 88.3721 245.734 88.3885 245.723 88.4044C245.712 88.4203 245.701 88.4356 245.688 88.4504C245.676 88.4652 245.663 88.4793 245.649 88.4927C245.635 88.5062 245.62 88.519 245.605 88.531C245.59 88.5431 245.575 88.5544 245.558 88.565C245.542 88.5755 245.525 88.5852 245.508 88.5941C245.491 88.6031 245.473 88.6112 245.455 88.6184C245.438 88.6256 245.419 88.6318 245.401 88.6372C245.382 88.6426 245.363 88.6471 245.344 88.6508C245.325 88.6543 245.306 88.657 245.287 88.6587L245.171 88.6689C245.152 88.6706 245.132 88.6714 245.113 88.6713C245.094 88.6711 245.074 88.67 245.055 88.6679C245.036 88.6658 245.017 88.6628 244.998 88.6589C244.979 88.655 244.96 88.6502 244.942 88.6444C244.923 88.6387 244.905 88.632 244.887 88.6245C244.87 88.617 244.852 88.6086 244.835 88.5993C244.818 88.5901 244.802 88.5801 244.786 88.5693C244.77 88.5584 244.754 88.5468 244.74 88.5345C244.725 88.5221 244.711 88.5091 244.697 88.4953C244.684 88.4816 244.671 88.4672 244.659 88.4523C244.647 88.4372 244.635 88.4217 244.625 88.4056C244.614 88.3895 244.604 88.3729 244.595 88.3558C244.587 88.3387 244.578 88.3213 244.571 88.3034C244.564 88.2856 244.558 88.2674 244.552 88.249C244.547 88.2306 244.543 88.2118 244.539 88.1929C244.536 88.174 244.533 88.155 244.531 88.1357L243.264 73.4124C243.262 73.3933 243.262 73.3741 243.262 73.3548C243.262 73.3356 243.263 73.3164 243.266 73.2973C243.268 73.2782 243.271 73.2592 243.275 73.2403C243.279 73.2215 243.284 73.2029 243.29 73.1846C243.296 73.1662 243.302 73.1482 243.31 73.1305C243.318 73.1128 243.326 73.0955 243.335 73.0786C243.345 73.0617 243.355 73.0453 243.366 73.0294C243.377 73.0135 243.388 72.9982 243.401 72.9834C243.413 72.9687 243.427 72.9546 243.44 72.9411C243.454 72.9276 243.469 72.9148 243.484 72.9028C243.499 72.8907 243.515 72.8794 243.531 72.8689C243.547 72.8583 243.564 72.8486 243.581 72.8397C243.598 72.8308 243.616 72.8227 243.634 72.8155C243.652 72.8083 243.67 72.802 243.689 72.7966C243.707 72.7912 243.726 72.7867 243.745 72.7831C243.764 72.7795 243.783 72.7768 243.803 72.7751Z" fill="#484848"/>
<path d="M245.757 88.1754L245.797 88.2815C245.804 88.2994 245.81 88.3176 245.815 88.3361C245.82 88.3546 245.824 88.3732 245.828 88.3921C245.831 88.411 245.833 88.43 245.834 88.4492C245.836 88.4683 245.836 88.4874 245.836 88.5066C245.835 88.5258 245.834 88.5449 245.831 88.5639C245.829 88.5829 245.825 88.6018 245.821 88.6205C245.817 88.6392 245.812 88.6577 245.806 88.6759C245.8 88.6941 245.793 88.712 245.785 88.7295C245.777 88.747 245.768 88.7641 245.759 88.7808C245.749 88.7975 245.739 88.8137 245.728 88.8294C245.717 88.845 245.705 88.8601 245.693 88.8747C245.68 88.8892 245.667 88.9031 245.653 88.9163C245.639 88.9295 245.624 88.942 245.609 88.9538C245.594 88.9656 245.578 88.9766 245.562 88.9869C245.546 88.9972 245.529 89.0066 245.512 89.0152C245.495 89.0238 245.477 89.0316 245.46 89.0385L231.698 94.3456C231.68 94.3525 231.662 94.3585 231.643 94.3636C231.625 94.3687 231.606 94.3729 231.587 94.3762C231.568 94.3795 231.549 94.3818 231.53 94.3832C231.511 94.3847 231.492 94.3851 231.473 94.3847C231.453 94.3842 231.434 94.3828 231.415 94.3804C231.396 94.3781 231.377 94.3748 231.359 94.3706C231.34 94.3664 231.322 94.3613 231.304 94.3553C231.285 94.3493 231.268 94.3424 231.25 94.3346C231.233 94.3269 231.215 94.3183 231.199 94.3088C231.182 94.2994 231.166 94.2891 231.151 94.278C231.135 94.267 231.12 94.2553 231.105 94.2427C231.091 94.2302 231.077 94.217 231.064 94.2031C231.051 94.1892 231.038 94.1747 231.027 94.1596C231.015 94.1445 231.004 94.1288 230.994 94.1126C230.983 94.0964 230.974 94.0798 230.965 94.0626C230.957 94.0455 230.949 94.028 230.942 94.0101L230.902 93.904C230.895 93.8861 230.889 93.8679 230.884 93.8494C230.879 93.8309 230.875 93.8123 230.872 93.7933C230.868 93.7745 230.866 93.7555 230.865 93.7363C230.863 93.7172 230.863 93.6981 230.864 93.6789C230.864 93.6597 230.866 93.6406 230.868 93.6216C230.87 93.6026 230.874 93.5837 230.878 93.565C230.882 93.5463 230.887 93.5278 230.893 93.5096C230.9 93.4914 230.906 93.4735 230.914 93.456C230.922 93.4385 230.931 93.4214 230.94 93.4047C230.95 93.388 230.96 93.3718 230.971 93.3561C230.982 93.3405 230.994 93.3254 231.007 93.3108C231.019 93.2963 231.032 93.2824 231.046 93.2692C231.06 93.256 231.075 93.2435 231.09 93.2317C231.105 93.2199 231.121 93.2088 231.137 93.1986C231.153 93.1883 231.17 93.1789 231.187 93.1703C231.204 93.1617 231.222 93.1539 231.24 93.147L245.002 87.8399C245.019 87.833 245.038 87.827 245.056 87.8219C245.075 87.8168 245.093 87.8126 245.112 87.8093C245.131 87.806 245.15 87.8037 245.169 87.8022C245.188 87.8008 245.207 87.8004 245.227 87.8008C245.246 87.8013 245.265 87.8027 245.284 87.8051C245.303 87.8074 245.322 87.8107 245.34 87.8149C245.359 87.8191 245.377 87.8242 245.396 87.8302C245.414 87.8362 245.432 87.8431 245.449 87.8509C245.467 87.8586 245.484 87.8672 245.5 87.8767C245.517 87.8861 245.533 87.8964 245.549 87.9074C245.564 87.9185 245.579 87.9303 245.594 87.9428C245.608 87.9553 245.622 87.9685 245.635 87.9824C245.649 87.9963 245.661 88.0108 245.673 88.0259C245.684 88.041 245.695 88.0567 245.706 88.0729C245.716 88.0891 245.725 88.1057 245.734 88.1229C245.742 88.14 245.75 88.1575 245.757 88.1754Z" fill="#484848"/>
<path d="M231.414 86.2254C231.414 86.2254 233.525 84.7263 233.999 84.2373C234.473 83.7483 234.699 82.9771 237.008 83.0754C239.317 83.1736 241.696 85.1573 241.534 85.4506C241.371 85.7439 239.94 85.6417 239.488 85.8163C239.036 85.9909 235.981 88.3883 234.781 88.2428C233.581 88.0974 231.414 86.2254 231.414 86.2254Z" fill="#FEACB6"/>
<path d="M211.665 87.5999C211.665 87.5999 201.371 92.3166 197.573 93.0419C193.776 93.7673 187.138 94.8411 187.138 94.8411L195.908 108.363C195.908 108.363 207.94 102.594 212.561 101.586C217.181 100.577 218.816 99.3986 219.114 97.6173C219.413 95.8361 218.668 91.1188 218.668 91.1188L211.665 87.5999Z" fill="#FFD533"/>
<path d="M191.1 90.8108L195.009 88.5445L205.034 105.982L201.125 108.248L191.1 90.8108Z" fill="white" fill-opacity="0.315802"/>
<path d="M198.712 87.8774L202.621 85.6112L212.646 103.048L208.737 105.314L198.712 87.8774Z" fill="white" fill-opacity="0.315802"/>
<path d="M213.647 85.6386L219.49 89.1418C219.49 89.1418 220.28 91.2106 218.1 91.4034C215.92 91.5963 211.646 87.6064 211.646 87.6064L213.647 85.6386Z" fill="white"/>
<path d="M187.145 94.8125C187.145 94.8125 183.927 93.6424 184.103 96.515C184.243 98.7855 190.478 105.669 193.085 108.454C193.703 109.114 194.898 109.378 195.744 109.051L195.353 109.202C195.37 109.196 195.386 109.189 195.403 109.181C195.42 109.174 195.436 109.166 195.452 109.157C195.468 109.149 195.484 109.14 195.5 109.131C195.516 109.122 195.531 109.112 195.546 109.102C195.561 109.091 195.576 109.081 195.591 109.07C195.605 109.059 195.619 109.047 195.633 109.036C195.647 109.024 195.661 109.012 195.674 108.999C195.687 108.986 195.7 108.973 195.712 108.96C195.725 108.947 195.737 108.933 195.749 108.919C195.761 108.905 195.772 108.891 195.783 108.876C195.794 108.862 195.804 108.847 195.814 108.832C195.824 108.816 195.834 108.801 195.843 108.785C195.853 108.769 195.861 108.753 195.87 108.737C195.878 108.721 195.886 108.705 195.893 108.688C195.901 108.671 195.908 108.654 195.914 108.637C195.921 108.62 195.927 108.603 195.932 108.586C195.938 108.568 195.943 108.551 195.947 108.533C195.952 108.515 195.956 108.498 195.959 108.48C195.963 108.462 195.966 108.444 195.968 108.426C195.971 108.408 195.973 108.39 195.974 108.371C195.976 108.353 195.977 108.335 195.978 108.317C195.978 108.299 195.978 108.28 195.977 108.262C195.977 108.244 195.976 108.226 195.974 108.208C195.973 108.189 195.971 108.171 195.968 108.153C195.966 108.135 195.963 108.117 195.959 108.099C195.955 108.082 195.951 108.064 195.947 108.046C195.942 108.029 195.937 108.011 195.932 107.994C195.926 107.976 195.92 107.959 195.914 107.942C195.907 107.925 195.9 107.908 195.893 107.892C195.885 107.875 195.877 107.859 195.869 107.843C195.861 107.826 195.852 107.811 195.843 107.795C195.833 107.779 195.824 107.764 195.813 107.749C193.959 104.981 187.145 94.8125 187.145 94.8125Z" fill="#FFD533"/>
<path d="M217.89 94.451C217.89 94.451 219.793 96.0489 220.439 95.7996C221.084 95.5502 228.138 87.5297 228.138 87.5297C228.138 87.5297 232.431 86.2198 234.076 90.5329C234.483 91.7967 228.152 101.179 223.608 104.105C220.112 106.355 214.373 101.069 211.91 98.5086C211.24 97.8114 211.46 96.9342 212.364 96.585L214.925 95.5962C216.563 94.9637 217.89 94.451 217.89 94.451Z" fill="#FFE272"/>
<path d="M228.981 87.1997C228.981 87.1997 229.663 85.6334 230.894 85.9823C232.124 86.3313 234.973 87.3368 234.977 88.2678C234.98 89.1988 233.871 90.7271 233.871 90.7271L228.981 87.1997Z" fill="white" stroke="white"/>
<path d="M188.917 94.3892C188.917 94.3892 190.101 97.0157 189.06 97.1642C188.019 97.3127 188.352 99.7705 190.988 99.3945C193.625 99.0185 197.078 96.1499 198.551 96.7031C200.024 97.2564 203.093 95.3802 202.533 94.7769C201.973 94.1736 199.248 93.6412 199.15 92.9298C199.051 92.2184 188.917 94.3892 188.917 94.3892Z" fill="#FBCB13"/>
<path d="M145.461 91.3372L146.123 93.0734L150.103 90.0571L149.048 88.7978L145.461 91.3372Z" fill="#FEACB6"/>
<path d="M134.116 113.153L135.07 114.417C135.07 114.417 135.389 112.534 135.869 111.763C136.35 110.992 137.445 110.301 137.445 110.301L136.82 109.663L134.116 113.153Z" fill="#FEACB6"/>
<path d="M216.134 81.0288C216.134 81.0288 216.547 82.0302 216.769 81.9447" stroke="#FFAAAC"/>
<path d="M197.471 79.2978C197.471 79.2978 194.557 81.7229 194.362 83.102C194.393 83.1616 196.404 83.0145 196.404 83.0145L197.471 79.2978Z" fill="#BF4C00"/>
<path d="M200.125 92.8047C200.125 92.8047 200.111 94.9803 199.897 95.0859C199.684 95.1916 201.579 94.9222 201.579 94.9222C201.579 94.9222 201.55 94.6504 201.192 94.7013C200.834 94.7522 201.247 93.8073 201.247 93.8073C201.247 93.8073 202.736 89.4713 202.256 88.6827C201.776 87.8942 200.125 92.8047 200.125 92.8047Z" fill="#BF4C00"/>
<path d="M179.891 77.7433C179.891 77.7433 185.268 78.5015 186.179 81.8481C187.089 85.1946 187.37 88.2553 187.37 88.2553C187.37 88.2553 188.003 90.106 188.315 90.0616C188.627 90.0172 188.668 91.7518 188.668 91.7518C188.668 91.7518 186.916 90.3559 186.529 89.3929C186.143 88.4299 184.712 84.2885 184.712 84.2885C184.712 84.2885 184.492 82.8198 179.459 81.6437C174.426 80.4676 177.137 78.2943 177.894 78.0274C178.651 77.7605 179.891 77.7433 179.891 77.7433Z" fill="#FA6400"/>
<path d="M179.936 80.4586C180.993 80.3081 181.73 79.329 181.584 78.2717C181.437 77.2143 180.461 76.4792 179.404 76.6297C178.348 76.7801 177.61 77.7592 177.756 78.8165C177.903 79.8739 178.879 80.609 179.936 80.4586Z" fill="white" fill-opacity="0.213914"/>
<path d="M183.439 85.4388C184.496 85.2883 185.234 84.3092 185.087 83.2519C184.94 82.1946 183.965 81.4594 182.908 81.6099C181.851 81.7603 181.113 82.7395 181.26 83.7968C181.406 84.8541 182.382 85.5893 183.439 85.4388Z" fill="white" fill-opacity="0.213914"/>
<path d="M188.127 87.7493C189.184 87.5989 189.922 86.6198 189.775 85.5624C189.628 84.5051 188.653 83.77 187.596 83.9204C186.539 84.0709 185.801 85.05 185.948 86.1073C186.094 87.1646 187.07 87.8998 188.127 87.7493Z" fill="white" fill-opacity="0.213914"/>
<path d="M198.372 78.8359C198.372 78.8359 196.246 79.6521 195.809 82.9039C195.371 86.1556 191.836 86.299 191.331 86.3709C190.825 86.4428 187.055 87.342 188.445 92.2454C189.272 94.6225 190.937 96.3935 190.937 96.3935L192.109 96.2267C192.109 96.2267 192.155 96.0103 191.951 95.9566C191.747 95.9029 191.306 95.8643 191.263 95.5537C191.22 95.2429 190.636 94.4914 190.911 94.4522C191.186 94.4131 192.428 95.2603 193.265 95.1412C194.102 95.022 196.896 94.9157 197.273 94.5707C197.237 94.5871 197.341 95.4821 197.399 95.4739C197.456 95.4657 198.908 95.3209 198.899 95.2603C198.891 95.1997 198.548 94.8929 198.435 94.909C198.322 94.9251 198.381 94.2824 198.477 94.1682C198.572 94.0542 201 92.8276 201.699 91.0977C202.399 89.3678 202.67 86.1724 202.701 84.7526C202.732 83.3329 202.187 79.3497 200.701 78.8458C199.215 78.3419 198.372 78.8359 198.372 78.8359Z" fill="#FA6400"/>
<path d="M200.798 91.965C201.982 91.7965 202.808 90.6999 202.644 89.5157C202.479 88.3314 201.387 87.5081 200.203 87.6766C199.019 87.8451 198.193 88.9417 198.357 90.1259C198.522 91.3101 199.614 92.1335 200.798 91.965Z" fill="white" fill-opacity="0.0768229"/>
<path d="M192.326 92.1569C195.074 91.7657 196.992 89.22 196.61 86.4709C196.229 83.7218 193.692 81.8104 190.944 82.2016C188.197 82.5928 186.278 85.1385 186.66 87.8875C187.041 90.6366 189.578 92.548 192.326 92.1569Z" fill="white" fill-opacity="0.22733"/>
<path d="M192.147 94.9248C192.147 94.9248 192.623 96.1333 192.953 96.1137C193.284 96.0942 194.115 95.9759 194.115 95.9759C194.115 95.9759 194.103 95.6614 193.641 95.7271C193.178 95.7928 193.088 95.1323 193.088 95.1323L192.147 94.9248Z" fill="#BF4C00"/>
<path d="M200.984 79.7623C201.425 79.6009 201.625 79.0342 201.625 79.0342C201.625 79.0342 201.11 78.7292 200.669 78.8906C200.228 79.052 200.028 79.6187 200.028 79.6187C200.028 79.6187 200.544 79.9237 200.984 79.7623Z" fill="#FFD533"/>
<path d="M202.446 80.3348C203.25 80.2205 203.81 79.4764 203.699 78.6728C203.587 77.8692 202.846 77.3104 202.042 77.4246C201.239 77.5389 200.679 78.2831 200.79 79.0867C200.902 79.8903 201.643 80.4491 202.446 80.3348Z" fill="black" fill-opacity="0.85098"/>
<path d="M198.45 80.5892C198.891 80.4278 199.091 79.8611 199.091 79.8611C199.091 79.8611 198.576 79.5561 198.135 79.7175C197.694 79.8789 197.494 80.4456 197.494 80.4456C197.494 80.4456 198.009 80.7506 198.45 80.5892Z" fill="#FFD533"/>
<path d="M199.803 81.4898C200.606 81.3756 201.167 80.6314 201.055 79.8278C200.943 79.0242 200.202 78.4654 199.399 78.5797C198.596 78.694 198.035 79.4381 198.147 80.2417C198.258 81.0453 199 81.6041 199.803 81.4898Z" fill="black" fill-opacity="0.85098"/>
<path d="M196.28 82.4906L199.736 81.1596" stroke="white" stroke-linecap="round" stroke-linejoin="round"/>
<path d="M197.423 83.1119L199.519 81.7217" stroke="white" stroke-linecap="round" stroke-linejoin="round"/>
<path d="M201.106 80.8078L205.022 79.8175" stroke="white" stroke-linecap="round" stroke-linejoin="round"/>
<path d="M201.582 81.2161L203.709 81.129" stroke="white" stroke-linecap="round" stroke-linejoin="round"/>
<path d="M200.532 81.7855C200.532 81.7855 200.232 82.5141 200.639 82.5574C201.046 82.6007 201.053 82.5755 201.259 82.9695" stroke="white" stroke-linecap="round" stroke-linejoin="round"/>
<path d="M194.693 73.9053C194.585 73.8316 194.489 73.7386 194.405 73.6264C194.339 73.5382 194.292 73.4339 194.264 73.3134C194.236 73.193 194.245 72.9912 194.29 72.7081C194.338 72.4219 194.352 72.2244 194.329 72.1155C194.307 72.0066 194.269 71.916 194.215 71.8439C194.119 71.7156 193.997 71.6487 193.851 71.6431C193.705 71.6376 193.562 71.6878 193.422 71.7937C193.178 71.9783 193.036 72.236 192.998 72.5666L192.69 72.1557C192.808 71.8483 192.987 71.6037 193.227 71.4221C193.473 71.2365 193.716 71.1495 193.958 71.1613C194.2 71.1731 194.402 71.2865 194.563 71.5017C194.641 71.6046 194.697 71.7258 194.733 71.8653C194.768 72.0048 194.76 72.2329 194.707 72.5495C194.666 72.7877 194.65 72.9624 194.658 73.0735C194.666 73.1847 194.703 73.2837 194.768 73.3706C194.841 73.4681 194.941 73.552 195.067 73.6222L194.693 73.9053ZM195.134 74.5985C195.082 74.529 195.063 74.45 195.076 74.3616C195.089 74.2731 195.131 74.2022 195.201 74.1487C195.272 74.0952 195.352 74.0744 195.44 74.0862C195.528 74.0979 195.598 74.1386 195.651 74.208C195.701 74.2748 195.72 74.3522 195.707 74.4402C195.695 74.5281 195.656 74.5968 195.591 74.6462C195.511 74.7068 195.427 74.7303 195.339 74.7169C195.252 74.7034 195.184 74.664 195.134 74.5985Z" fill="#B8B8B8"/>
<path d="M201.195 69.8445C201.137 69.7277 201.098 69.5998 201.079 69.4606C201.063 69.3512 201.073 69.2371 201.107 69.1182C201.141 68.9993 201.246 68.8269 201.422 68.6008C201.603 68.3741 201.71 68.2077 201.743 68.1016C201.776 67.9955 201.787 67.8977 201.774 67.8082C201.752 67.6492 201.678 67.5316 201.553 67.4556C201.428 67.3795 201.278 67.3538 201.105 67.3784C200.802 67.4213 200.554 67.5781 200.361 67.8489L200.29 67.3393C200.542 67.1278 200.817 67.001 201.115 66.9588C201.419 66.9157 201.674 66.9581 201.88 67.0861C202.086 67.2141 202.207 67.4115 202.244 67.6783C202.262 67.8059 202.253 67.9394 202.217 68.0789C202.18 68.2183 202.063 68.4137 201.863 68.665C201.713 68.8537 201.614 68.9986 201.567 69.0998C201.521 69.2011 201.505 69.3056 201.52 69.4133C201.537 69.5342 201.583 69.6561 201.659 69.7788L201.195 69.8445ZM201.247 70.6661C201.235 70.5799 201.256 70.5013 201.31 70.4303C201.364 70.3592 201.435 70.3175 201.523 70.3051C201.61 70.2926 201.69 70.3131 201.761 70.3663C201.833 70.4195 201.875 70.4892 201.887 70.5754C201.898 70.6582 201.877 70.7351 201.824 70.8061C201.771 70.877 201.703 70.9182 201.622 70.9297C201.523 70.9437 201.439 70.9236 201.369 70.8693C201.299 70.815 201.258 70.7473 201.247 70.6661Z" fill="#B8B8B8"/>
<path d="M224.681 29.0362L225.479 28.2363L229.989 32.7553C230.095 32.8613 230.155 33.0052 230.155 33.1552C230.155 33.3053 230.095 33.4492 229.989 33.5552L225.479 38.0742L224.681 37.2743L228.793 33.1552L224.681 29.0362Z" fill="black"/>
<path d="M148.704 33.4168C148.49 33.5401 148.232 33.6757 147.929 33.8237C147.64 33.9594 147.325 34.1012 146.985 34.2492V39.5767C146.985 39.959 146.954 40.2673 146.891 40.5016C146.828 40.7483 146.721 40.9394 146.57 41.0751C146.419 41.2231 146.211 41.3279 145.946 41.3896C145.682 41.4635 145.342 41.519 144.926 41.556L144.114 41.63L143.718 40.3166L144.605 40.2427C144.832 40.2303 145.015 40.2057 145.153 40.1687C145.304 40.1317 145.424 40.0762 145.512 40.0022C145.6 39.9282 145.657 39.8295 145.682 39.7062C145.72 39.5705 145.739 39.3979 145.739 39.1882V34.7856C145.273 34.983 144.826 35.1679 144.398 35.3406C143.982 35.5132 143.623 35.6489 143.321 35.7476L143 34.3787C143.327 34.2677 143.73 34.1197 144.209 33.9347C144.7 33.7497 145.21 33.5462 145.739 33.3243V30.0316H143.604V28.7182H145.739V25.37L146.985 25.407V28.7182H148.723V30.0316H146.985V32.8063C147.552 32.5597 148.024 32.3377 148.402 32.1404L148.553 32.7693L148.704 33.4168ZM150.46 29.6801H149.233V26.3689H159.148V29.6986H157.939V27.6083H150.46V29.6801ZM153.482 29.8281C152.941 30.3707 152.33 30.938 151.65 31.5299C150.97 32.1219 150.29 32.6522 149.61 33.1208L148.912 32.0849C149.554 31.6902 150.202 31.2155 150.857 30.6605C151.524 30.0932 152.116 29.5136 152.632 28.9217L153.482 29.8281ZM155.352 28.9771C155.629 29.1498 155.95 29.3656 156.315 29.6246C156.693 29.8836 157.064 30.1549 157.43 30.4385C157.807 30.7098 158.16 30.9811 158.487 31.2524C158.827 31.5114 159.104 31.7396 159.318 31.9369L158.638 33.0283C158.412 32.7693 158.128 32.498 157.788 32.2144C157.461 31.9184 157.115 31.6286 156.75 31.3449C156.384 31.0613 156.019 30.7962 155.654 30.5495C155.302 30.2905 154.981 30.0747 154.691 29.9021L155.352 28.9771ZM155.258 35.0631C155.862 35.9387 156.592 36.7341 157.448 37.4494C158.305 38.1523 159.318 38.8183 160.489 39.4472L159.583 40.6126C158.449 39.8974 157.486 39.1821 156.693 38.4668C155.912 37.7392 155.239 36.9623 154.672 36.136V41.926H153.388V36.2285C153.086 36.6725 152.764 37.0918 152.425 37.4864C152.097 37.881 151.738 38.2633 151.348 38.6333C150.958 38.9909 150.53 39.3424 150.064 39.6877C149.61 40.033 149.107 40.3845 148.553 40.7421L147.59 39.6137C148.181 39.3054 148.723 38.9848 149.214 38.6518C149.717 38.3065 150.183 37.9489 150.611 37.5789C151.039 37.2089 151.43 36.8143 151.782 36.395C152.135 35.9757 152.469 35.5317 152.783 35.0631H148.893V33.8792H153.388V31.7149L154.672 31.7519V33.8792H159.526V35.0631H155.258Z" fill="black"/>
<path d="M176.021 36.8205C175.769 36.8205 175.467 36.8266 175.115 36.839C174.762 36.8513 174.372 36.8636 173.944 36.876C173.516 36.876 173.062 36.8821 172.584 36.8945C172.118 36.9068 171.64 36.9191 171.148 36.9314V39.5027C171.148 39.885 171.104 40.2057 171.016 40.4646C170.941 40.7236 170.809 40.9333 170.62 41.0936C170.431 41.2662 170.179 41.3957 169.864 41.482C169.549 41.5684 169.159 41.6239 168.693 41.6485L167.749 41.7225L167.314 40.4091L168.448 40.3351C168.725 40.3228 168.951 40.292 169.128 40.2427C169.304 40.2057 169.436 40.1378 169.524 40.0392C169.625 39.9528 169.688 39.8419 169.713 39.7062C169.751 39.5582 169.77 39.3794 169.77 39.1697V36.9684C169.291 36.9808 168.825 36.9993 168.372 37.0239C167.919 37.0363 167.497 37.0548 167.107 37.0794C166.716 37.0918 166.364 37.1103 166.049 37.1349C165.734 37.1473 165.476 37.1596 165.275 37.1719C165.01 37.1966 164.689 37.2274 164.311 37.2644C163.946 37.2891 163.613 37.3137 163.31 37.3384L163.122 36.173C163.386 36.1483 163.676 36.1175 163.99 36.0805C164.318 36.0435 164.595 35.9942 164.821 35.9325C165.615 35.7106 166.414 35.4331 167.22 35.1001C168.038 34.7548 168.844 34.3787 169.638 33.9717L165.596 34.0827C165.52 34.0827 165.413 34.0889 165.275 34.1012C165.149 34.1012 165.01 34.1074 164.859 34.1197C164.721 34.1197 164.582 34.1259 164.444 34.1382C164.318 34.1382 164.211 34.1444 164.123 34.1567L163.953 33.2688C164.28 33.2441 164.551 33.2194 164.765 33.1948C164.979 33.1701 165.168 33.1269 165.331 33.0653C165.885 32.794 166.515 32.4487 167.22 32.0294C167.925 31.6101 168.58 31.1785 169.184 30.7345H164.255V32.8063H162.857V29.5136H169.619V27.8672H163.254V26.6649H169.619V25.0925L170.997 25.148V26.6649H177.381V27.8672H170.997V29.5136H177.759V32.8433H176.361V30.7345H169.789L170.261 31.2894C169.808 31.6347 169.367 31.9492 168.939 32.2329C168.511 32.5042 168.07 32.7693 167.617 33.0283C167.831 33.0283 168.101 33.0283 168.429 33.0283C168.769 33.016 169.121 33.0098 169.486 33.0098C169.852 32.9975 170.21 32.9913 170.563 32.9913C170.916 32.979 171.218 32.9666 171.47 32.9543C171.923 32.683 172.357 32.4178 172.773 32.1589C173.188 31.8876 173.579 31.6224 173.944 31.3634L174.699 32.3808C173.591 33.1208 172.489 33.7867 171.394 34.3787C170.299 34.9706 169.184 35.4824 168.051 35.914C168.429 35.914 168.895 35.9079 169.449 35.8955C170.015 35.8709 170.607 35.8524 171.224 35.84C171.841 35.8154 172.458 35.7969 173.075 35.7845C173.692 35.7599 174.246 35.7352 174.737 35.7106C174.473 35.5009 174.214 35.3098 173.963 35.1371C173.723 34.9521 173.509 34.798 173.32 34.6746L174.133 33.7867C174.384 33.947 174.68 34.1567 175.02 34.4157C175.36 34.6623 175.706 34.9336 176.059 35.2296C176.412 35.5132 176.745 35.7969 177.06 36.0805C177.375 36.3642 177.633 36.6108 177.834 36.8205L177.079 37.9119C176.815 37.5912 176.462 37.2274 176.021 36.8205ZM167.56 38.7258C167.195 38.9724 166.798 39.2252 166.37 39.4842C165.942 39.7309 165.501 39.9713 165.048 40.2057C164.595 40.44 164.141 40.662 163.688 40.8716C163.247 41.0936 162.819 41.2971 162.404 41.482L161.781 40.2982C162.171 40.1255 162.599 39.9343 163.065 39.7247C163.531 39.5027 163.997 39.2746 164.463 39.0403C164.928 38.7936 165.369 38.547 165.785 38.3003C166.213 38.0537 166.584 37.8194 166.899 37.5974L167.56 38.7258ZM173.15 37.5974C173.503 37.7207 173.937 37.8934 174.454 38.1153C174.97 38.325 175.499 38.5531 176.04 38.7998C176.594 39.0341 177.123 39.2746 177.627 39.5212C178.13 39.7555 178.54 39.9528 178.854 40.1132L178.231 41.4266C177.916 41.2169 177.507 40.9826 177.003 40.7236C176.512 40.4646 175.99 40.2118 175.436 39.9652C174.894 39.7185 174.366 39.4904 173.849 39.2807C173.333 39.0588 172.899 38.8799 172.546 38.7443L173.15 37.5974Z" fill="black"/>
<path d="M197.276 37.9489C197.175 38.4298 197.068 38.8676 196.955 39.2622C196.854 39.6445 196.722 40.033 196.558 40.4276C196.445 40.6989 196.325 40.9148 196.2 41.0751C196.074 41.2354 195.935 41.3587 195.784 41.445C195.645 41.5437 195.488 41.6054 195.312 41.63C195.136 41.667 194.947 41.6855 194.745 41.6855C194.305 41.6855 193.87 41.5252 193.442 41.2046C193.014 40.8963 192.567 40.3536 192.101 39.5767C192 39.4164 191.906 39.2561 191.818 39.0958C191.73 38.9231 191.648 38.7381 191.572 38.5408C191.132 38.9971 190.653 39.4534 190.137 39.9097C189.633 40.366 189.06 40.8284 188.418 41.2971L187.474 40.2982C188.922 39.2622 190.105 38.2202 191.025 37.1719C190.697 36.173 190.414 35.0138 190.175 33.6942C189.935 32.3747 189.734 30.8825 189.57 29.2176H183.715V31.8814H188.343C188.343 31.9924 188.336 32.1959 188.324 32.4918C188.311 32.7755 188.299 33.1085 188.286 33.4908C188.273 33.8607 188.254 34.2615 188.229 34.6931C188.217 35.1124 188.198 35.5132 188.173 35.8955C188.16 36.2778 188.141 36.617 188.116 36.9129C188.103 37.2089 188.091 37.4186 188.078 37.5419C188.04 37.9735 187.977 38.3312 187.889 38.6148C187.814 38.8861 187.688 39.1143 187.512 39.2992C187.348 39.4719 187.115 39.6075 186.813 39.7062C186.523 39.8049 186.145 39.8789 185.68 39.9282L184.622 40.0392L184.225 38.6703L185.472 38.5593C185.736 38.5346 185.944 38.5038 186.095 38.4668C186.259 38.4175 186.378 38.3435 186.454 38.2448C186.542 38.1462 186.605 38.0167 186.643 37.8564C186.681 37.6837 186.712 37.4556 186.737 37.1719C186.75 37.0239 186.769 36.7588 186.794 36.3765C186.819 35.9819 186.838 35.5687 186.851 35.1371C186.876 34.7055 186.895 34.3047 186.907 33.9347C186.92 33.5524 186.926 33.3058 186.926 33.1948H183.715C183.703 34.1937 183.652 35.0939 183.564 35.8955C183.476 36.6848 183.344 37.4247 183.168 38.1153C182.991 38.7936 182.765 39.4411 182.488 40.0577C182.223 40.6866 181.902 41.3341 181.524 42L180.127 41.3341C180.555 40.6928 180.914 40.0823 181.203 39.5027C181.493 38.9231 181.726 38.3127 181.902 37.6714C182.078 37.0178 182.204 36.2963 182.28 35.5071C182.368 34.7178 182.412 33.7929 182.412 32.7323V27.9412H189.457C189.432 27.6206 189.407 27.3 189.381 26.9793C189.356 26.6587 189.331 26.3565 189.306 26.0729C189.281 25.7523 189.255 25.4378 189.23 25.1295H190.628L190.836 27.9412H193.99C193.839 27.7686 193.669 27.5836 193.48 27.3863C193.304 27.1766 193.121 26.9793 192.932 26.7943C192.756 26.6094 192.58 26.4367 192.403 26.2764C192.24 26.1037 192.101 25.9681 191.988 25.8694L192.838 25C192.989 25.1233 193.171 25.2775 193.385 25.4625C193.599 25.6474 193.813 25.8448 194.028 26.0544C194.242 26.2517 194.443 26.449 194.632 26.6464C194.833 26.8437 194.991 27.0163 195.104 27.1643L194.349 27.9412H196.672V29.2176H190.949C191.075 30.5618 191.226 31.7889 191.402 32.8988C191.579 34.0087 191.793 35.0076 192.044 35.8955C192.598 35.1063 193.071 34.28 193.461 33.4168C193.851 32.5535 194.216 31.6039 194.556 30.568L195.841 31.012C195.375 32.2945 194.89 33.4538 194.386 34.4897C193.895 35.5132 193.285 36.4875 192.554 37.4124C192.68 37.733 192.812 38.0352 192.951 38.3188C193.089 38.5901 193.234 38.8491 193.385 39.0958C193.65 39.5151 193.889 39.8049 194.103 39.9652C194.317 40.1255 194.506 40.2057 194.67 40.2057C194.921 40.2057 195.11 40.1378 195.236 40.0022C195.362 39.8542 195.482 39.6199 195.595 39.2992C195.708 38.9786 195.797 38.658 195.86 38.3373C195.923 38.0167 195.985 37.6591 196.048 37.2644L197.276 37.9489Z" fill="black"/>
<path d="M216 37.6344C215.95 38.0783 215.893 38.5161 215.83 38.9478C215.78 39.3671 215.704 39.7802 215.603 40.1872C215.503 40.5941 215.232 40.8963 214.791 41.0936C214.351 41.3032 213.664 41.4204 212.733 41.445C211.486 41.482 210.246 41.482 209.012 41.445C208.496 41.4327 208.068 41.3834 207.728 41.2971C207.388 41.2231 207.111 41.0874 206.897 40.8901C206.695 40.7051 206.55 40.4523 206.462 40.1317C206.374 39.811 206.33 39.3979 206.33 38.8923V37.3939H200.702V27.7563H206.33V25.3515L207.765 25.4255V27.7563H213.564V37.3939H207.765V38.6333C207.765 39.2129 207.879 39.6014 208.105 39.7987C208.332 39.9837 208.722 40.0823 209.276 40.0947C210.271 40.1317 211.266 40.1317 212.26 40.0947C212.966 40.07 213.463 40.0022 213.752 39.8912C214.055 39.7802 214.237 39.5644 214.3 39.2437C214.388 38.9108 214.451 38.5655 214.489 38.2078C214.527 37.8379 214.558 37.4741 214.583 37.1164L216 37.6344ZM202.137 29.0141V31.8814H206.33V29.0141H202.137ZM207.765 29.0141V31.8814H212.109V29.0141H207.765ZM206.33 36.062V33.1393H202.137V36.062H206.33ZM212.109 36.062V33.1393H207.765V36.062H212.109Z" fill="black"/>
<path fill-rule="evenodd" clip-rule="evenodd" d="M31.5193 113.672L29.0532 118.192L33.2061 120.458L35.6722 115.938L40.1915 118.404L42.4577 114.252L37.9383 111.785L40.4044 107.266L36.2515 105L33.7854 109.519L29.2662 107.053L27 111.206L31.5193 113.672Z" fill="#33A752"/>
<path d="M294.106 80.3572L305.78 90.667L291.014 95.6221L294.106 80.3572Z" fill="#EA4335"/>
<path fill-rule="evenodd" clip-rule="evenodd" d="M108.777 22.6268L104.876 17.9769L100.226 21.8778L104.127 26.5276L108.777 22.6268ZM105.246 13.7505L95.9999 21.5075L103.757 30.7541L113.003 22.997L105.246 13.7505Z" fill="#4184F3"/>
</g>
<defs>
<filter id="filter0_f_574_222" x="215.702" y="77.4265" width="9.39062" height="9.39355" filterUnits="userSpaceOnUse" color-interpolation-filters="sRGB">
<feFlood flood-opacity="0" result="BackgroundImageFix"/>
<feBlend mode="normal" in="SourceGraphic" in2="BackgroundImageFix" result="shape"/>
<feGaussianBlur stdDeviation="2" result="effect1_foregroundBlur_574_222"/>
</filter>
</defs>
</svg>
