<svg width="360" height="144" viewBox="0 0 360 144" fill="none" xmlns="http://www.w3.org/2000/svg">
<path d="M350 0H10C4.47715 0 0 4.47715 0 10V134C0 139.523 4.47715 144 10 144H350C355.523 144 360 139.523 360 134V10C360 4.47715 355.523 0 350 0Z" fill="white"/>
<mask id="mask0_574_222" style="mask-type:alpha" maskUnits="userSpaceOnUse" x="0" y="0" width="360" height="144">
<path d="M350 0H10C4.47715 0 0 4.47715 0 10V134C0 139.523 4.47715 144 10 144H350C355.523 144 360 139.523 360 134V10C360 4.47715 355.523 0 350 0Z" fill="white"/>
</mask>
<g mask="url(#mask0_574_222)">
<path d="M127.583 112.281L123.787 117.183C123.787 117.183 122.161 117.031 120.879 117.378C119.598 117.725 115.689 122.845 113.274 124.154C111.344 125.199 109.267 124.142 108.512 123.675C108.345 123.572 108.31 123.349 108.426 123.19L120.264 106.918C120.271 106.908 120.279 106.899 120.287 106.89C120.295 106.881 120.303 106.872 120.312 106.864C120.321 106.856 120.33 106.849 120.34 106.842C120.349 106.834 120.359 106.828 120.37 106.822C120.38 106.815 120.39 106.81 120.401 106.805C120.412 106.8 120.423 106.795 120.434 106.791C120.446 106.787 120.457 106.784 120.469 106.781C120.481 106.778 120.492 106.776 120.504 106.774C120.516 106.773 120.528 106.772 120.54 106.771C120.552 106.771 120.564 106.771 120.576 106.772C120.588 106.773 120.6 106.774 120.611 106.776C120.623 106.778 120.635 106.781 120.646 106.784C120.658 106.787 120.669 106.791 120.68 106.795C120.691 106.799 120.702 106.804 120.713 106.81C120.724 106.815 120.734 106.821 120.744 106.828C120.754 106.834 120.764 106.841 120.773 106.849L127.583 112.281Z" fill="#3D231A"/>
<path d="M126.433 111.365L122.308 117.143" stroke="#D1D8E7" stroke-width="2"/>
<path d="M121.635 107.795L109.197 124.13" stroke="#D1D8E7" stroke-width="2"/>
<path d="M122.803 112.33C122.803 112.33 121.083 111.508 119.565 113.204C118.048 114.899 119.026 116.499 118.168 117.51C117.31 118.52 116.441 117.394 114.82 119.146C113.198 120.898 114.142 122.142 112.864 123.241C111.585 124.34 109.944 123.275 109.944 123.275" stroke="white" stroke-opacity="0.396577" stroke-width="3"/>
<path d="M119.865 116.022C119.865 116.022 120.357 120.152 120.357 120.152" stroke="#A0C4FF" stroke-width="3"/>
<path d="M118.363 118.687L118.741 121.629" stroke="#A0C4FF" stroke-width="3"/>
<path d="M116.659 119.969L117.038 122.911" stroke="#A0C4FF" stroke-width="3"/>
<path d="M142.639 86.7623L137.65 90.4365C137.65 90.4365 136.131 89.8405 134.805 89.82C133.48 89.7996 128.322 93.6538 125.645 94.2464C123.505 94.7201 121.803 93.1256 121.206 92.4667C121.074 92.3209 121.101 92.0963 121.256 91.9748L137.089 79.5657C137.099 79.5583 137.108 79.5514 137.119 79.545C137.129 79.5386 137.139 79.5327 137.15 79.5274C137.161 79.522 137.171 79.5173 137.183 79.513C137.194 79.5088 137.205 79.5051 137.217 79.502C137.228 79.4989 137.24 79.4965 137.252 79.4946C137.264 79.4927 137.276 79.4914 137.287 79.4907C137.299 79.49 137.311 79.4899 137.323 79.4904C137.335 79.4909 137.347 79.492 137.359 79.4938C137.371 79.4955 137.382 79.4978 137.394 79.5007C137.406 79.5036 137.417 79.5071 137.428 79.5112C137.44 79.5153 137.451 79.5199 137.461 79.5251C137.472 79.5303 137.483 79.536 137.493 79.5423C137.503 79.5485 137.513 79.5553 137.522 79.5626C137.532 79.5698 137.541 79.5775 137.55 79.5857C137.558 79.5939 137.567 79.6025 137.575 79.6116C137.583 79.6206 137.59 79.63 137.597 79.6398L142.639 86.7623Z" fill="#3D231A"/>
<path d="M141.797 85.564L136.252 89.9902" stroke="#D1D8E7" stroke-width="2"/>
<path d="M138.16 80.7913L121.736 93.0926" stroke="#D1D8E7" stroke-width="2"/>
<path d="M138.039 85.4769C138.039 85.4769 136.614 84.2075 134.691 85.4228C132.769 86.638 133.268 88.4522 132.167 89.1893C131.065 89.9264 130.541 88.5993 128.502 89.8401C126.464 91.0808 127.028 92.5422 125.499 93.2479C123.97 93.9535 122.687 92.472 122.687 92.472" stroke="white" stroke-opacity="0.396577" stroke-width="3"/>
<path d="M134.207 88.2295C134.207 88.2295 133.549 92.3372 133.549 92.3372" stroke="#A0C4FF" stroke-width="3"/>
<path d="M132.031 90.3752L131.589 93.3097" stroke="#A0C4FF" stroke-width="3"/>
<path d="M130.042 91.1362L129.6 94.0707" stroke="#A0C4FF" stroke-width="3"/>
<path d="M184.987 96.7661C184.987 96.7661 176.994 97.4287 171.992 103.881C169.454 106.723 168.215 111.724 154.284 114.065C140.354 116.406 130.464 112.118 130.464 112.118C130.464 112.118 124.684 114.281 125.356 119.218C125.489 120.775 150.967 125.314 162.011 122.785C173.055 120.256 196.419 111.637 196.419 111.637L184.987 96.7661Z" fill="#267FFF"/>
<path d="M137.61 93.2057C137.61 93.2057 144.647 87.5866 144.876 88.1865C145.105 88.7865 160.773 115.111 160.773 115.111L148.005 117.209C148.005 117.209 139.314 97.6714 138.884 96.5447C138.454 95.4179 137.61 93.2057 137.61 93.2057Z" fill="#4792FF"/>
<path d="M231.988 68.7121C231.988 68.7121 233.622 73.0117 234.044 74.8699C234.095 75.0949 238.355 74.6493 238.399 74.864C238.446 75.0973 234.649 76.3353 234.688 76.5566C235.195 79.4584 234.549 81.4411 233.545 82.2784C233.57 82.3214 228.103 83.4384 226.987 86.6669C226.495 87.3537 221.363 83.4236 221.363 83.4236L223.44 80.9009L220.415 74.7124C220.415 74.7124 225.584 71.5633 225.971 71.4137C226.358 71.264 231.988 68.7121 231.988 68.7121Z" fill="#FFCBD1"/>
<path d="M222.709 81.6196L221.98 79.7091C221.98 79.7091 217.012 79.0499 216.431 73.2757C215.851 67.5015 223.724 64.823 223.724 64.823C223.724 64.823 229.856 63.0211 231.611 65.86C231.738 65.9314 233.622 64.8843 234.613 66.2533C235.604 67.6223 233.563 73.1204 233.563 73.1204C233.563 73.1204 232.423 69.4942 231.841 69.4898C231.258 69.4855 230.418 69.5407 230.072 70.5631C229.727 71.5854 229.139 75.0705 228.285 75.1591C227.43 75.2478 224.732 76.2816 224.732 76.2816C224.732 76.2816 223.252 75.0536 222.552 75.9008C221.852 76.7481 223.448 80.1786 225.725 80.0051C225.749 80.0147 225.072 81.519 225.072 81.519L222.709 81.6196Z" fill="#1F170F"/>
<path d="M132.232 66.0053C133.363 66.0033 134.281 64.9508 134.283 63.6544C134.285 62.3581 133.371 61.3087 132.24 61.3107C131.109 61.3126 130.191 62.3651 130.189 63.6615C130.187 64.9579 131.102 66.0073 132.232 66.0053Z" stroke="black" stroke-opacity="0.85098" stroke-width="2"/>
<path d="M232.221 76.2028C232.675 76.0274 232.84 75.3536 232.59 74.6977C232.339 74.0419 231.768 73.6524 231.314 73.8277C230.86 74.0031 230.695 74.6769 230.945 75.3328C231.196 75.9886 231.767 76.3782 232.221 76.2028Z" fill="white"/>
<path d="M232.194 75.5844C232.446 75.487 232.541 75.1217 232.406 74.7686C232.272 74.4154 231.958 74.2081 231.706 74.3055C231.454 74.403 231.358 74.7682 231.493 75.1214C231.628 75.4745 231.941 75.6818 232.194 75.5844Z" fill="#453D3D"/>
<path d="M130.185 116.731C130.185 116.731 149.684 122.019 160.585 118.508C171.487 114.997 190.391 105.372 190.391 105.372" stroke="white" stroke-dasharray="10 10"/>
<path d="M233.539 79.4871C233.539 79.4871 234.017 79.9058 234.791 79.607" stroke="black" stroke-opacity="0.85098" stroke-linecap="round" stroke-linejoin="round"/>
<g filter="url(#filter0_f_574_222)">
<path d="M229.3 79.706C229.736 79.5376 229.954 79.0474 229.788 78.6112C229.622 78.175 229.133 77.9579 228.697 78.1262C228.261 78.2946 228.043 78.7848 228.209 79.221C228.376 79.6572 228.864 79.8744 229.3 79.706Z" fill="#FEA3A1"/>
</g>
<path d="M229.487 75.1947L224.287 75.7944" stroke="#1F170F"/>
<path d="M222.745 81.637C222.745 81.637 224.534 83.6865 225.537 83.9815C227.71 84.6208 229.791 83.6537 230.247 83.4777C230.26 83.5515 227.814 84.9984 226.992 86.6628C226.17 88.3272 221.222 83.5568 221.222 83.5568L222.745 81.637Z" fill="#FFAEB7"/>
<path d="M228.016 66.0864C228.016 66.0864 224.887 67.27 225.755 70.1813" stroke="white" stroke-opacity="0.232282"/>
<path d="M224.796 67.1257C224.796 67.1257 221.667 68.3093 222.535 71.2206" stroke="white" stroke-opacity="0.232282"/>
<path d="M257.449 67.5531L257.589 67.5406C257.613 67.5385 257.636 67.5376 257.66 67.5378C257.683 67.538 257.707 67.5394 257.73 67.5419C257.754 67.5444 257.777 67.548 257.8 67.5528C257.823 67.5576 257.846 67.5635 257.868 67.5704C257.89 67.5774 257.913 67.5855 257.934 67.5947C257.956 67.6038 257.977 67.614 257.998 67.6252C258.018 67.6364 258.038 67.6486 258.058 67.6618C258.077 67.675 258.096 67.6891 258.114 67.7041C258.132 67.7191 258.149 67.735 258.165 67.7517C258.182 67.7684 258.197 67.7858 258.212 67.8041C258.227 67.8223 258.241 67.8412 258.253 67.8608C258.266 67.8803 258.278 67.9005 258.289 67.9212C258.3 67.942 258.31 67.9632 258.318 67.9849C258.327 68.0066 258.335 68.0287 258.341 68.0511C258.348 68.0736 258.353 68.0963 258.357 68.1193C258.362 68.1423 258.365 68.1654 258.367 68.1888L259.907 86.086C259.909 86.1092 259.91 86.1326 259.91 86.156C259.909 86.1794 259.908 86.2027 259.905 86.226C259.903 86.2491 259.899 86.2722 259.894 86.2951C259.889 86.318 259.883 86.3406 259.876 86.363C259.869 86.3853 259.861 86.4071 259.852 86.4286C259.842 86.4503 259.832 86.4713 259.821 86.4918C259.809 86.5123 259.797 86.5322 259.784 86.5515C259.77 86.5709 259.756 86.5895 259.741 86.6075C259.726 86.6254 259.71 86.6426 259.693 86.6589C259.676 86.6753 259.658 86.6909 259.64 86.7055C259.622 86.7202 259.603 86.7339 259.583 86.7468C259.563 86.7595 259.543 86.7713 259.522 86.7821C259.501 86.7931 259.48 86.8029 259.458 86.8117C259.436 86.8204 259.414 86.8281 259.391 86.8346C259.369 86.8411 259.346 86.8466 259.323 86.8511C259.299 86.8554 259.276 86.8586 259.253 86.8607L259.112 86.8731C259.089 86.8752 259.065 86.8762 259.042 86.876C259.018 86.8758 258.995 86.8744 258.971 86.8718C258.948 86.8693 258.925 86.8657 258.902 86.861C258.879 86.8562 258.856 86.8503 258.833 86.8433C258.811 86.8364 258.789 86.8283 258.767 86.8191C258.746 86.81 258.724 86.7998 258.704 86.7885C258.683 86.7773 258.663 86.7651 258.644 86.752C258.624 86.7388 258.606 86.7247 258.588 86.7097C258.57 86.6947 258.552 86.6788 258.536 86.6621C258.52 86.6454 258.504 86.628 258.489 86.6098C258.475 86.5915 258.461 86.5726 258.448 86.553C258.435 86.5335 258.423 86.5133 258.412 86.4925C258.402 86.4718 258.392 86.4505 258.383 86.4288C258.374 86.4071 258.367 86.3851 258.36 86.3627C258.354 86.3402 258.348 86.3175 258.344 86.2944C258.34 86.2715 258.336 86.2484 258.334 86.225L256.794 68.3278C256.792 68.3045 256.791 68.2812 256.792 68.2578C256.792 68.2344 256.793 68.2111 256.796 68.1878C256.799 68.1646 256.802 68.1415 256.807 68.1186C256.812 68.0957 256.818 68.0731 256.825 68.0508C256.832 68.0285 256.841 68.0066 256.85 67.9851C256.859 67.9635 256.869 67.9425 256.881 67.922C256.892 67.9015 256.904 67.8816 256.918 67.8622C256.931 67.8429 256.945 67.8243 256.96 67.8063C256.976 67.7884 256.992 67.7712 257.008 67.7549C257.025 67.7385 257.043 67.723 257.061 67.7083C257.08 67.6936 257.099 67.6799 257.118 67.6671C257.138 67.6542 257.159 67.6424 257.179 67.6316C257.2 67.6207 257.222 67.611 257.244 67.6022C257.265 67.5934 257.288 67.5858 257.31 67.5792C257.333 67.5726 257.356 67.5671 257.379 67.5628C257.402 67.5584 257.425 67.5552 257.449 67.5531Z" fill="#484848"/>
<path d="M259.824 86.2731L259.874 86.4021C259.882 86.4239 259.889 86.446 259.895 86.4685C259.901 86.4909 259.906 86.5136 259.91 86.5366C259.914 86.5596 259.917 86.5827 259.919 86.6059C259.92 86.6292 259.921 86.6524 259.92 86.6757C259.919 86.699 259.918 86.7223 259.915 86.7454C259.912 86.7685 259.908 86.7915 259.903 86.8142C259.897 86.8369 259.891 86.8594 259.884 86.8815C259.876 86.9037 259.868 86.9254 259.858 86.9467C259.849 86.968 259.838 86.9888 259.827 87.0091C259.815 87.0294 259.803 87.049 259.789 87.0681C259.776 87.0871 259.761 87.1055 259.746 87.1231C259.731 87.1408 259.715 87.1577 259.698 87.1737C259.681 87.1898 259.663 87.205 259.645 87.2194C259.626 87.2337 259.607 87.2471 259.588 87.2596C259.568 87.272 259.548 87.2835 259.527 87.294C259.506 87.3045 259.485 87.3139 259.463 87.3223L242.734 93.7734C242.713 93.7818 242.69 93.7891 242.668 93.7953C242.646 93.8016 242.623 93.8067 242.6 93.8106C242.577 93.8146 242.554 93.8175 242.531 93.8192C242.507 93.8209 242.484 93.8215 242.461 93.821C242.438 93.8204 242.414 93.8186 242.391 93.8158C242.368 93.813 242.345 93.809 242.323 93.8039C242.3 93.7987 242.277 93.7925 242.255 93.7852C242.233 93.7779 242.212 93.7695 242.19 93.7601C242.169 93.7507 242.148 93.7402 242.128 93.7287C242.108 93.7172 242.088 93.7048 242.069 93.6913C242.05 93.6779 242.032 93.6636 242.014 93.6484C241.997 93.6332 241.98 93.6171 241.964 93.6002C241.948 93.5833 241.933 93.5657 241.919 93.5473C241.904 93.529 241.891 93.5099 241.879 93.4902C241.866 93.4706 241.855 93.4503 241.844 93.4295C241.834 93.4086 241.825 93.3874 241.816 93.3656L241.767 93.2366C241.759 93.2149 241.752 93.1928 241.745 93.1703C241.739 93.1478 241.734 93.1251 241.73 93.1021C241.726 93.0792 241.724 93.0561 241.722 93.0328C241.72 93.0096 241.72 92.9863 241.72 92.963C241.721 92.9397 241.723 92.9165 241.726 92.8934C241.729 92.8703 241.733 92.8473 241.738 92.8245C241.743 92.8018 241.749 92.7794 241.757 92.7573C241.764 92.7351 241.773 92.7134 241.782 92.6921C241.792 92.6708 241.802 92.65 241.814 92.6297C241.825 92.6094 241.838 92.5897 241.851 92.5707C241.865 92.5516 241.879 92.5333 241.894 92.5156C241.91 92.4979 241.926 92.4811 241.943 92.465C241.96 92.449 241.977 92.4337 241.996 92.4194C242.014 92.405 242.033 92.3916 242.053 92.3792C242.073 92.3667 242.093 92.3552 242.114 92.3447C242.135 92.3343 242.156 92.3248 242.178 92.3164L258.906 85.8653C258.928 85.8569 258.95 85.8496 258.973 85.8434C258.995 85.8372 259.018 85.8321 259.041 85.8281C259.064 85.8241 259.087 85.8213 259.11 85.8195C259.133 85.8178 259.156 85.8173 259.18 85.8178C259.203 85.8184 259.226 85.8201 259.249 85.823C259.272 85.8258 259.295 85.8298 259.318 85.8349C259.341 85.84 259.363 85.8462 259.385 85.8535C259.407 85.8608 259.429 85.8692 259.45 85.8786C259.472 85.8881 259.492 85.8986 259.513 85.91C259.533 85.9215 259.552 85.934 259.571 85.9474C259.59 85.9608 259.609 85.9751 259.626 85.9904C259.644 86.0056 259.661 86.0216 259.677 86.0385C259.693 86.0554 259.708 86.073 259.722 86.0914C259.736 86.1098 259.75 86.1288 259.762 86.1485C259.774 86.1682 259.786 86.1885 259.796 86.2093C259.807 86.2301 259.816 86.2514 259.824 86.2731Z" fill="#484848"/>
<path d="M242.39 83.9029C242.39 83.9029 244.956 82.0807 245.532 81.4862C246.108 80.8918 246.383 79.9543 249.19 80.0738C251.997 80.1933 254.888 82.6045 254.691 82.9611C254.493 83.3176 252.754 83.1933 252.204 83.4056C251.654 83.6178 247.941 86.5321 246.482 86.3552C245.023 86.1784 242.39 83.9029 242.39 83.9029Z" fill="#FEACB6"/>
<path d="M218.383 85.5739C218.383 85.5739 205.87 91.3073 201.254 92.189C196.637 93.0707 188.569 94.376 188.569 94.376L199.229 110.813C199.229 110.813 213.855 103.801 219.472 102.574C225.088 101.348 227.075 99.9159 227.438 97.7507C227.801 95.5855 226.896 89.8513 226.896 89.8513L218.383 85.5739Z" fill="#FFD533"/>
<path d="M193.385 89.4768L198.137 86.722L210.323 107.918L205.572 110.673L193.385 89.4768Z" fill="white" fill-opacity="0.315802"/>
<path d="M202.638 85.9111L207.39 83.1563L219.576 104.352L214.825 107.107L202.638 85.9111Z" fill="white" fill-opacity="0.315802"/>
<path d="M220.793 83.1893L227.895 87.4477C227.895 87.4477 228.855 89.9625 226.205 90.1969C223.556 90.4314 218.36 85.5813 218.36 85.5813L220.793 83.1893Z" fill="white"/>
<path d="M188.577 94.3409C188.577 94.3409 184.666 92.9186 184.88 96.4104C185.05 99.1704 192.629 107.537 195.798 110.923C196.549 111.726 198.002 112.046 199.03 111.649L198.554 111.833C198.575 111.825 198.595 111.816 198.616 111.807C198.636 111.798 198.656 111.788 198.675 111.778C198.695 111.768 198.714 111.757 198.733 111.746C198.753 111.735 198.771 111.723 198.79 111.71C198.808 111.698 198.826 111.685 198.844 111.672C198.861 111.658 198.879 111.644 198.895 111.63C198.912 111.616 198.929 111.601 198.945 111.585C198.961 111.57 198.977 111.554 198.992 111.538C199.007 111.522 199.022 111.506 199.036 111.489C199.05 111.472 199.064 111.454 199.077 111.436C199.091 111.419 199.103 111.401 199.116 111.382C199.128 111.364 199.14 111.345 199.151 111.326C199.162 111.307 199.173 111.287 199.183 111.267C199.193 111.248 199.203 111.228 199.212 111.208C199.221 111.187 199.229 111.167 199.237 111.146C199.245 111.125 199.252 111.104 199.259 111.083C199.266 111.062 199.272 111.041 199.277 111.019C199.283 110.998 199.288 110.976 199.292 110.954C199.296 110.933 199.3 110.911 199.303 110.889C199.306 110.867 199.308 110.845 199.31 110.823C199.312 110.801 199.313 110.779 199.314 110.756C199.315 110.734 199.315 110.712 199.314 110.69C199.313 110.668 199.312 110.646 199.31 110.624C199.308 110.601 199.306 110.579 199.303 110.558C199.3 110.536 199.296 110.514 199.292 110.492C199.287 110.47 199.282 110.449 199.277 110.427C199.271 110.406 199.265 110.385 199.258 110.364C199.252 110.343 199.244 110.322 199.236 110.301C199.228 110.28 199.22 110.26 199.211 110.24C199.202 110.22 199.192 110.2 199.182 110.18C199.172 110.16 199.161 110.141 199.15 110.122C199.139 110.103 199.127 110.084 199.115 110.066C196.86 106.702 188.577 94.3409 188.577 94.3409Z" fill="#FFD533"/>
<path d="M225.95 93.9015C225.95 93.9015 228.263 95.8438 229.048 95.5407C229.833 95.2376 238.408 85.4882 238.408 85.4882C238.408 85.4882 243.625 83.8958 245.626 89.1387C246.12 90.6749 238.425 102.08 232.9 105.636C228.651 108.372 221.676 101.946 218.682 98.8337C217.866 97.9862 218.134 96.92 219.233 96.4955L222.346 95.2934C224.337 94.5247 225.95 93.9015 225.95 93.9015Z" fill="#FFE272"/>
<path d="M239.432 85.0871C239.432 85.0871 240.261 83.1832 241.757 83.6073C243.253 84.0314 246.716 85.2537 246.72 86.3854C246.724 87.5171 245.377 89.3749 245.377 89.3749L239.432 85.0871Z" fill="white" stroke="white"/>
<path d="M190.731 93.8265C190.731 93.8265 192.171 97.0192 190.905 97.1997C189.639 97.3802 190.045 100.368 193.249 99.9108C196.454 99.4538 200.652 95.9667 202.442 96.6393C204.233 97.3118 207.963 95.0311 207.282 94.2978C206.601 93.5645 203.29 92.9172 203.17 92.0525C203.05 91.1878 190.731 93.8265 190.731 93.8265Z" fill="#FBCB13"/>
<path d="M137.908 90.1165L138.713 92.227L143.551 88.5605L142.268 87.0297L137.908 90.1165Z" fill="#FEACB6"/>
<path d="M124.117 116.635L125.277 118.171C125.277 118.171 125.664 115.882 126.248 114.945C126.832 114.008 128.164 113.169 128.164 113.169L127.404 112.393L124.117 116.635Z" fill="#FEACB6"/>
<path d="M223.815 77.5859C223.815 77.5859 224.318 78.8032 224.587 78.6993" stroke="#FFAAAC"/>
<path d="M201.13 75.482C201.13 75.482 197.587 78.4298 197.35 80.1062C197.388 80.1786 199.832 79.9998 199.832 79.9998L201.13 75.482Z" fill="#BF4C00"/>
<path d="M204.356 91.9002C204.356 91.9002 204.338 94.5448 204.079 94.6732C203.82 94.8016 206.123 94.4742 206.123 94.4742C206.123 94.4742 206.088 94.1438 205.653 94.2056C205.218 94.2675 205.72 93.1189 205.72 93.1189C205.72 93.1189 207.529 87.8482 206.946 86.8897C206.363 85.9311 204.356 91.9002 204.356 91.9002Z" fill="#BF4C00"/>
<path d="M179.759 73.5917C179.759 73.5917 186.296 74.5134 187.403 78.5813C188.509 82.6493 188.851 86.3698 188.851 86.3698C188.851 86.3698 189.621 88.6195 190 88.5655C190.379 88.5115 190.428 90.62 190.428 90.62C190.428 90.62 188.299 88.9232 187.829 87.7526C187.359 86.582 185.62 81.5479 185.62 81.5479C185.62 81.5479 185.352 79.7626 179.235 78.3329C173.117 76.9033 176.413 74.2615 177.333 73.937C178.253 73.6126 179.759 73.5917 179.759 73.5917Z" fill="#FA6400"/>
<path d="M179.814 76.8925C181.099 76.7096 181.995 75.5194 181.817 74.2341C181.639 72.9489 180.453 72.0553 179.168 72.2382C177.883 72.4211 176.987 73.6112 177.165 74.8965C177.343 76.1817 178.529 77.0754 179.814 76.8925Z" fill="white" fill-opacity="0.213914"/>
<path d="M184.072 82.9464C185.357 82.7635 186.254 81.5733 186.076 80.2881C185.897 79.0028 184.711 78.1092 183.427 78.2921C182.142 78.475 181.245 79.6652 181.423 80.9504C181.602 82.2357 182.788 83.1293 184.072 82.9464Z" fill="white" fill-opacity="0.213914"/>
<path d="M189.771 85.7548C191.056 85.5719 191.953 84.3817 191.774 83.0964C191.596 81.8112 190.41 80.9176 189.125 81.1005C187.841 81.2834 186.944 82.4735 187.122 83.7588C187.3 85.044 188.486 85.9377 189.771 85.7548Z" fill="white" fill-opacity="0.213914"/>
<path d="M202.224 74.9199C202.224 74.9199 199.641 75.9121 199.109 79.8649C198.577 83.8176 194.279 83.9918 193.665 84.0793C193.051 84.1667 188.468 85.2598 190.158 91.2202C191.162 94.1097 193.187 96.2625 193.187 96.2625L194.612 96.0597C194.612 96.0597 194.668 95.7967 194.419 95.7313C194.171 95.6661 193.635 95.6192 193.583 95.2416C193.531 94.8638 192.821 93.9503 193.155 93.9027C193.49 93.8551 194.999 94.885 196.016 94.7402C197.034 94.5953 200.431 94.466 200.889 94.0467C200.845 94.0666 200.971 95.1546 201.041 95.1446C201.112 95.1346 202.876 94.9586 202.866 94.885C202.856 94.8113 202.439 94.4384 202.301 94.4579C202.164 94.4775 202.236 93.6963 202.352 93.5575C202.468 93.4189 205.419 91.9278 206.269 89.825C207.12 87.7222 207.449 83.838 207.487 82.1122C207.525 80.3864 206.862 75.5445 205.056 74.932C203.25 74.3195 202.224 74.9199 202.224 74.9199Z" fill="#FA6400"/>
<path d="M205.173 90.8796C206.612 90.6747 207.617 89.3417 207.417 87.9022C207.217 86.4627 205.889 85.4619 204.45 85.6667C203.011 85.8715 202.007 87.2045 202.207 88.644C202.406 90.0835 203.735 91.0844 205.173 90.8796Z" fill="white" fill-opacity="0.0768229"/>
<path d="M194.875 91.1129C198.215 90.6373 200.547 87.5429 200.083 84.2012C199.619 80.8595 196.536 78.536 193.196 79.0116C189.856 79.4871 187.524 82.5815 187.988 85.9232C188.451 89.2649 191.535 91.5884 194.875 91.1129Z" fill="white" fill-opacity="0.22733"/>
<path d="M194.657 94.4773C194.657 94.4773 195.236 95.9463 195.638 95.9225C196.039 95.8987 197.05 95.755 197.05 95.755C197.05 95.755 197.035 95.3727 196.473 95.4526C195.911 95.5324 195.801 94.7295 195.801 94.7295L194.657 94.4773Z" fill="#BF4C00"/>
<path d="M205.4 76.0466C205.936 75.8504 206.179 75.1616 206.179 75.1616C206.179 75.1616 205.553 74.7908 205.017 74.987C204.481 75.1832 204.238 75.872 204.238 75.872C204.238 75.872 204.864 76.2428 205.4 76.0466Z" fill="#FFD533"/>
<path d="M207.177 76.7423C208.154 76.6034 208.835 75.6988 208.7 74.722C208.564 73.7451 207.663 73.0658 206.686 73.2047C205.71 73.3437 205.029 74.2482 205.164 75.2251C205.3 76.2019 206.201 76.8812 207.177 76.7423Z" fill="black" fill-opacity="0.85098"/>
<path d="M202.32 77.0515C202.856 76.8553 203.099 76.1665 203.099 76.1665C203.099 76.1665 202.472 75.7957 201.936 75.9919C201.4 76.1881 201.158 76.8769 201.158 76.8769C201.158 76.8769 201.784 77.2477 202.32 77.0515Z" fill="#FFD533"/>
<path d="M203.964 78.1463C204.94 78.0074 205.621 77.1028 205.486 76.126C205.35 75.1491 204.449 74.4699 203.473 74.6088C202.496 74.7477 201.815 75.6523 201.95 76.6291C202.086 77.606 202.987 78.2852 203.964 78.1463Z" fill="black" fill-opacity="0.85098"/>
<path d="M199.682 79.3629L203.883 77.745" stroke="white" stroke-linecap="round" stroke-linejoin="round"/>
<path d="M201.071 80.1183L203.618 78.4284" stroke="white" stroke-linecap="round" stroke-linejoin="round"/>
<path d="M205.548 77.3174L210.308 76.1136" stroke="white" stroke-linecap="round" stroke-linejoin="round"/>
<path d="M206.126 77.8137L208.713 77.7079" stroke="white" stroke-linecap="round" stroke-linejoin="round"/>
<path d="M204.85 78.5057C204.85 78.5057 204.485 79.3914 204.98 79.444C205.475 79.4966 205.483 79.466 205.733 79.945" stroke="white" stroke-linecap="round" stroke-linejoin="round"/>
<path d="M197.752 68.9269C197.621 68.8374 197.505 68.7244 197.402 68.588C197.322 68.4808 197.265 68.354 197.231 68.2075C197.198 68.0611 197.208 67.8158 197.262 67.4717C197.321 67.1239 197.338 66.8838 197.311 66.7513C197.284 66.6189 197.237 66.5089 197.171 66.4212C197.054 66.2652 196.907 66.1839 196.729 66.1772C196.551 66.1704 196.377 66.2314 196.207 66.3602C195.91 66.5846 195.739 66.8978 195.692 67.2997L195.317 66.8003C195.461 66.4265 195.679 66.1293 195.971 65.9085C196.269 65.6829 196.565 65.5772 196.859 65.5915C197.154 65.6058 197.399 65.7437 197.595 66.0052C197.689 66.1303 197.757 66.2776 197.801 66.4472C197.844 66.6168 197.834 66.8941 197.769 67.2789C197.72 67.5685 197.7 67.7808 197.71 67.9159C197.72 68.0511 197.764 68.1714 197.844 68.277C197.933 68.3956 198.054 68.4975 198.207 68.5829L197.752 68.9269ZM198.289 69.7696C198.226 69.6852 198.202 69.5892 198.218 69.4817C198.234 69.3741 198.285 69.2879 198.371 69.2229C198.457 69.1579 198.553 69.1325 198.66 69.1469C198.768 69.1612 198.853 69.2105 198.916 69.295C198.977 69.3762 199 69.4703 198.985 69.5772C198.97 69.6841 198.923 69.7676 198.844 69.8277C198.746 69.9013 198.645 69.9299 198.538 69.9135C198.432 69.8972 198.349 69.8492 198.289 69.7696Z" fill="#B8B8B8"/>
<path d="M205.657 63.9908C205.586 63.8489 205.538 63.6933 205.515 63.5241C205.496 63.3912 205.508 63.2524 205.549 63.1079C205.59 62.9634 205.718 62.7538 205.932 62.4791C206.152 62.2035 206.282 62.0012 206.322 61.8722C206.363 61.7432 206.375 61.6244 206.36 61.5156C206.333 61.3222 206.244 61.1793 206.091 61.0869C205.939 60.9945 205.757 60.9632 205.546 60.9931C205.178 61.0453 204.877 61.2359 204.642 61.565L204.556 60.9456C204.862 60.6885 205.196 60.5343 205.558 60.4831C205.928 60.4307 206.238 60.4822 206.488 60.6378C206.739 60.7934 206.886 61.0333 206.932 61.3576C206.953 61.5127 206.942 61.675 206.898 61.8445C206.854 62.0141 206.711 62.2516 206.468 62.5571C206.285 62.7864 206.165 62.9626 206.109 63.0856C206.052 63.2087 206.033 63.3357 206.051 63.4666C206.071 63.6137 206.128 63.7618 206.22 63.9109L205.657 63.9908ZM205.719 64.9895C205.704 64.8848 205.73 64.7892 205.796 64.7028C205.862 64.6165 205.948 64.5657 206.054 64.5506C206.161 64.5356 206.258 64.5604 206.345 64.6251C206.432 64.6898 206.482 64.7745 206.497 64.8793C206.511 64.98 206.486 65.0734 206.421 65.1596C206.356 65.2459 206.274 65.296 206.176 65.3099C206.055 65.327 205.952 65.3026 205.867 65.2366C205.782 65.1706 205.733 65.0882 205.719 64.9895Z" fill="#B8B8B8"/>
<path d="M135.969 28.3192H121.67V26.9164H128.367C128.307 26.6949 128.246 26.4611 128.186 26.215C128.126 25.9566 128.059 25.7105 127.987 25.4767C127.914 25.2305 127.842 25.0029 127.77 24.7937C127.709 24.5845 127.655 24.4122 127.607 24.2769L129.019 24C129.067 24.1477 129.127 24.3446 129.2 24.5907C129.284 24.8368 129.369 25.1013 129.453 25.3844C129.538 25.6674 129.616 25.9504 129.688 26.2334C129.761 26.5042 129.827 26.7318 129.887 26.9164H135.969V28.3192ZM136.585 38.5081V39.911H121V38.5081H129.218C129.447 37.9544 129.706 37.2899 129.996 36.5147C130.286 35.7394 130.569 34.9334 130.847 34.0966C131.136 33.2476 131.402 32.4108 131.643 31.5863C131.897 30.7495 132.108 29.9989 132.277 29.3344L133.689 29.7405C133.544 30.3435 133.351 31.0326 133.109 31.8078C132.88 32.5708 132.627 33.3522 132.349 34.152C132.084 34.9519 131.806 35.7333 131.517 36.4962C131.239 37.2468 130.973 37.9175 130.72 38.5081H136.585ZM126.267 37.4376C126.123 36.9453 125.935 36.3731 125.706 35.721C125.489 35.0565 125.254 34.3858 125 33.709C124.759 33.0322 124.512 32.38 124.258 31.7524C124.017 31.1249 123.8 30.5957 123.607 30.165L124.928 29.6667C125.109 30.0974 125.32 30.6326 125.561 31.2725C125.815 31.9001 126.068 32.5523 126.322 33.2291C126.575 33.9059 126.816 34.5704 127.046 35.2226C127.287 35.8625 127.486 36.4039 127.643 36.8469L126.267 37.4376Z" fill="black"/>
<path d="M144.266 33.9674C144.435 34.2135 144.628 34.5212 144.845 34.8903C145.075 35.2472 145.304 35.641 145.533 36.0717C145.775 36.49 146.004 36.9146 146.221 37.3453C146.45 37.776 146.643 38.1759 146.8 38.5451L145.624 39.3572C145.515 39.0865 145.388 38.7912 145.244 38.4712C145.099 38.139 144.942 37.7944 144.773 37.4376C144.495 37.5852 144.158 37.7575 143.759 37.9544C143.373 38.1513 142.981 38.3482 142.583 38.5451C142.185 38.7419 141.805 38.9204 141.442 39.0803C141.093 39.2526 140.827 39.3818 140.646 39.468C140.369 39.591 140.073 39.751 139.759 39.9479L139.071 38.8035C139.301 38.6189 139.457 38.4528 139.542 38.3051C139.626 38.1451 139.669 37.9729 139.669 37.7883V25.089H146.112V33.4875H140.918V37.8436C141.038 37.819 141.231 37.7514 141.497 37.6406C141.762 37.5299 142.052 37.4007 142.366 37.253C142.691 37.1053 143.017 36.9515 143.343 36.7915C143.669 36.6193 143.958 36.4654 144.212 36.3301C144.019 35.9609 143.832 35.6164 143.651 35.2964C143.482 34.9642 143.319 34.6873 143.162 34.4658L144.266 33.9674ZM153.552 25.4767V35.9425C153.552 36.2993 153.528 36.6069 153.479 36.8654C153.443 37.1115 153.359 37.3207 153.226 37.4929C153.093 37.6529 152.906 37.7821 152.665 37.8806C152.436 37.9667 152.128 38.0282 151.742 38.0651L150.601 38.1944L150.113 36.8284L151.579 36.6808C151.856 36.6562 152.031 36.5823 152.104 36.4593C152.188 36.3239 152.231 36.084 152.231 35.7394V26.861H148.972V40.76H147.669V25.4767H153.552ZM140.918 26.3073V28.633H144.845V26.3073H140.918ZM144.845 32.2693V29.8143H140.918V32.2693H144.845Z" fill="black"/>
<path d="M161.505 32.4354C161.3 32.5585 161.052 32.6938 160.763 32.8415C160.485 32.9768 160.184 33.1183 159.858 33.266V38.582C159.858 38.9634 159.828 39.2711 159.767 39.5049C159.707 39.751 159.604 39.9417 159.46 40.0771C159.315 40.2248 159.116 40.3294 158.862 40.3909C158.609 40.4647 158.283 40.5201 157.885 40.557L157.106 40.6308L156.726 39.3203L157.577 39.2465C157.794 39.2342 157.969 39.2096 158.102 39.1726C158.247 39.1357 158.361 39.0803 158.446 39.0065C158.53 38.9327 158.585 38.8342 158.609 38.7112C158.645 38.5758 158.663 38.4035 158.663 38.1944V33.8013C158.217 33.9982 157.788 34.1828 157.378 34.355C156.98 34.5273 156.636 34.6627 156.346 34.7611L156.038 33.3952C156.352 33.2845 156.738 33.1368 157.197 32.9522C157.668 32.7676 158.156 32.5646 158.663 32.3431V29.0575H156.618V27.747H158.663V24.4061L159.858 24.443V27.747H161.523V29.0575H159.858V31.8263C160.401 31.5802 160.853 31.3587 161.215 31.1618L161.36 31.7894L161.505 32.4354ZM163.188 28.7068H162.012V25.4028H171.515V28.7253H170.356V26.6395H163.188V28.7068ZM166.084 28.8545C165.565 29.3959 164.98 29.962 164.329 30.5527C163.677 31.1433 163.025 31.6725 162.374 32.1401L161.704 31.1064C162.319 30.7126 162.941 30.2389 163.568 29.6851C164.208 29.1191 164.775 28.5407 165.27 27.9501L166.084 28.8545ZM167.876 28.0054C168.142 28.1777 168.45 28.3931 168.799 28.6515C169.161 28.9099 169.517 29.1806 169.867 29.4636C170.229 29.7343 170.567 30.0051 170.881 30.2758C171.207 30.5342 171.472 30.7619 171.677 30.9587L171.026 32.0478C170.809 31.7894 170.537 31.5186 170.211 31.2356C169.898 30.9403 169.566 30.6511 169.216 30.3681C168.866 30.0851 168.516 29.8205 168.166 29.5744C167.828 29.316 167.52 29.1006 167.243 28.9283L167.876 28.0054ZM167.786 34.0782C168.365 34.9519 169.065 35.7456 169.886 36.4593C170.706 37.1607 171.677 37.8252 172.8 38.4528L171.931 39.6156C170.845 38.9019 169.922 38.1882 169.161 37.4745C168.413 36.7485 167.768 35.9732 167.225 35.1488V40.9262H165.994V35.241C165.704 35.684 165.397 36.1024 165.071 36.4962C164.757 36.89 164.413 37.2714 164.039 37.6406C163.665 37.9975 163.255 38.3482 162.808 38.6927C162.374 39.0373 161.891 39.388 161.36 39.7448L160.437 38.6189C161.004 38.3113 161.523 37.9913 161.994 37.6591C162.476 37.3145 162.923 36.9577 163.333 36.5885C163.743 36.2193 164.117 35.8256 164.455 35.4072C164.793 34.9888 165.113 34.5458 165.415 34.0782H161.686V32.8969H165.994V30.7372L167.225 30.7742V32.8969H171.877V34.0782H167.786Z" fill="black"/>
<path d="M187.685 35.8317C187.444 35.8317 187.154 35.8379 186.816 35.8502C186.479 35.8625 186.105 35.8748 185.694 35.8871C185.284 35.8871 184.85 35.8932 184.391 35.9055C183.944 35.9178 183.486 35.9301 183.015 35.9425V38.5081C183.015 38.8896 182.973 39.2096 182.889 39.468C182.816 39.7264 182.69 39.9356 182.508 40.0955C182.327 40.2678 182.086 40.397 181.784 40.4832C181.483 40.5693 181.109 40.6247 180.662 40.6493L179.757 40.7231L179.341 39.4126L180.427 39.3388C180.692 39.3265 180.91 39.2957 181.079 39.2465C181.247 39.2096 181.374 39.1419 181.459 39.0434C181.555 38.9573 181.616 38.8465 181.64 38.7112C181.676 38.5635 181.694 38.3851 181.694 38.1759V35.9794C181.235 35.9917 180.789 36.0101 180.355 36.0347C179.92 36.047 179.516 36.0655 179.142 36.0901C178.768 36.1024 178.43 36.1209 178.128 36.1455C177.826 36.1578 177.579 36.1701 177.386 36.1824C177.133 36.207 176.825 36.2378 176.463 36.2747C176.113 36.2993 175.793 36.3239 175.504 36.3485L175.323 35.1857C175.576 35.1611 175.853 35.1303 176.155 35.0934C176.469 35.0565 176.734 35.0072 176.952 34.9457C177.712 34.7242 178.478 34.4473 179.25 34.1151C180.035 33.7705 180.807 33.3952 181.567 32.9891L177.694 33.0999C177.621 33.0999 177.519 33.106 177.386 33.1183C177.265 33.1183 177.133 33.1245 176.988 33.1368C176.855 33.1368 176.722 33.143 176.59 33.1553C176.469 33.1553 176.366 33.1614 176.282 33.1737L176.119 32.2877C176.433 32.2631 176.692 32.2385 176.897 32.2139C177.102 32.1893 177.283 32.1462 177.44 32.0847C177.971 31.814 178.575 31.4694 179.25 31.051C179.926 30.6326 180.554 30.202 181.133 29.759H176.409V31.8263H175.069V28.5407H181.549V26.8979H175.449V25.6982H181.549V24.1292L182.871 24.1846V25.6982H188.989V26.8979H182.871V28.5407H189.351V31.8632H188.011V29.759H181.712L182.165 30.3127C181.73 30.6573 181.308 30.971 180.898 31.2541C180.487 31.5248 180.065 31.7894 179.63 32.0478C179.836 32.0478 180.095 32.0478 180.409 32.0478C180.735 32.0355 181.073 32.0293 181.422 32.0293C181.772 32.017 182.116 32.0109 182.454 32.0109C182.792 31.9986 183.082 31.9862 183.323 31.9739C183.757 31.7032 184.174 31.4387 184.572 31.1802C184.97 30.9095 185.344 30.6449 185.694 30.3865L186.418 31.4017C185.356 32.1401 184.3 32.8046 183.251 33.3952C182.201 33.9859 181.133 34.4966 180.047 34.9273C180.409 34.9273 180.855 34.9211 181.386 34.9088C181.929 34.8842 182.496 34.8657 183.088 34.8534C183.679 34.8288 184.27 34.8104 184.862 34.798C185.453 34.7734 185.984 34.7488 186.454 34.7242C186.201 34.515 185.954 34.3243 185.712 34.152C185.483 33.9674 185.278 33.8136 185.097 33.6906L185.875 32.8046C186.117 32.9645 186.4 33.1737 186.726 33.4321C187.052 33.6782 187.384 33.949 187.722 34.2443C188.059 34.5273 188.379 34.8104 188.681 35.0934C188.983 35.3764 189.23 35.6225 189.423 35.8317L188.699 36.9207C188.446 36.6008 188.108 36.2378 187.685 35.8317ZM179.576 37.7329C179.226 37.979 178.846 38.2313 178.436 38.4897C178.026 38.7358 177.603 38.9758 177.169 39.2096C176.734 39.4434 176.3 39.6649 175.866 39.874C175.443 40.0955 175.033 40.2986 174.635 40.4832L174.037 39.3018C174.411 39.1296 174.822 38.9388 175.268 38.7296C175.715 38.5081 176.161 38.2805 176.608 38.0467C177.054 37.8006 177.477 37.5545 177.875 37.3084C178.285 37.0623 178.641 36.8284 178.943 36.6069L179.576 37.7329ZM184.934 36.6069C185.272 36.73 185.688 36.9023 186.183 37.1238C186.678 37.333 187.185 37.5606 187.703 37.8067C188.234 38.0405 188.741 38.2805 189.224 38.5266C189.707 38.7604 190.099 38.9573 190.4 39.1173L189.803 40.4278C189.501 40.2186 189.109 39.9848 188.627 39.7264C188.156 39.468 187.655 39.2157 187.124 38.9696C186.605 38.7235 186.098 38.4958 185.604 38.2866C185.109 38.0651 184.693 37.8867 184.355 37.7514L184.934 36.6069Z" fill="black"/>
<path d="M208.055 36.9577C207.959 37.4376 207.856 37.8744 207.748 38.2682C207.651 38.6497 207.524 39.0373 207.368 39.4311C207.259 39.7018 207.144 39.9171 207.024 40.0771C206.903 40.2371 206.77 40.3601 206.625 40.4463C206.493 40.5447 206.342 40.6062 206.173 40.6308C206.004 40.6678 205.823 40.6862 205.63 40.6862C205.208 40.6862 204.791 40.5262 204.381 40.2063C203.971 39.8987 203.542 39.3572 203.096 38.582C202.999 38.422 202.909 38.262 202.824 38.1021C202.74 37.9298 202.661 37.7452 202.589 37.5483C202.167 38.0036 201.708 38.4589 201.213 38.9142C200.731 39.3695 200.182 39.831 199.566 40.2986L198.661 39.3018C200.049 38.2682 201.183 37.2284 202.064 36.1824C201.75 35.1857 201.479 34.029 201.25 32.7123C201.02 31.3956 200.827 29.9066 200.67 28.2454H195.059V30.9034H199.494C199.494 31.0141 199.488 31.2172 199.476 31.5125C199.464 31.7955 199.452 32.1278 199.439 32.5092C199.427 32.8784 199.409 33.2783 199.385 33.709C199.373 34.1274 199.355 34.5273 199.331 34.9088C199.319 35.2903 199.301 35.6287 199.277 35.924C199.264 36.2193 199.252 36.4285 199.24 36.5516C199.204 36.9823 199.144 37.3391 199.059 37.6221C198.987 37.8929 198.866 38.1205 198.697 38.3051C198.54 38.4774 198.317 38.6127 198.028 38.7112C197.75 38.8096 197.388 38.8835 196.942 38.9327L195.928 39.0434L195.548 37.6775L196.742 37.5668C196.996 37.5422 197.195 37.5114 197.34 37.4745C197.497 37.4253 197.611 37.3514 197.684 37.253C197.768 37.1545 197.828 37.0253 197.865 36.8654C197.901 36.6931 197.931 36.4654 197.955 36.1824C197.967 36.0347 197.985 35.7702 198.01 35.3887C198.034 34.9949 198.052 34.5827 198.064 34.152C198.088 33.7213 198.106 33.3214 198.118 32.9522C198.13 32.5708 198.136 32.3246 198.136 32.2139H195.059C195.047 33.2106 194.999 34.1089 194.914 34.9088C194.83 35.6963 194.703 36.4347 194.534 37.1238C194.365 37.8006 194.148 38.4466 193.883 39.0619C193.629 39.6895 193.321 40.3355 192.959 41L191.62 40.3355C192.03 39.6956 192.374 39.0865 192.652 38.5081C192.929 37.9298 193.152 37.3207 193.321 36.6808C193.49 36.0286 193.611 35.3087 193.683 34.5212C193.768 33.7336 193.81 32.8107 193.81 31.7524V26.9718H200.562C200.538 26.6518 200.513 26.3319 200.489 26.0119C200.465 25.692 200.441 25.3905 200.417 25.1075C200.393 24.7875 200.369 24.4738 200.344 24.1661H201.684L201.883 26.9718H204.906C204.761 26.7995 204.598 26.6149 204.417 26.418C204.248 26.2088 204.073 26.0119 203.892 25.8274C203.723 25.6428 203.554 25.4705 203.385 25.3105C203.229 25.1383 203.096 25.0029 202.987 24.9045L203.802 24.0369C203.947 24.16 204.122 24.3138 204.327 24.4984C204.532 24.683 204.737 24.8798 204.942 25.089C205.147 25.2859 205.34 25.4828 205.521 25.6797C205.714 25.8766 205.865 26.0489 205.974 26.1965L205.25 26.9718H207.476V28.2454H201.992C202.112 29.5867 202.257 30.8111 202.426 31.9186C202.595 33.0261 202.8 34.0228 203.041 34.9088C203.572 34.1212 204.025 33.2968 204.399 32.4354C204.773 31.574 205.123 30.6265 205.449 29.5928L206.68 30.0358C206.233 31.3156 205.769 32.4723 205.286 33.506C204.815 34.5273 204.23 35.4995 203.53 36.4224C203.651 36.7423 203.778 37.0438 203.91 37.3268C204.043 37.5975 204.182 37.856 204.327 38.1021C204.58 38.5204 204.809 38.8096 205.014 38.9696C205.22 39.1296 205.401 39.2096 205.557 39.2096C205.799 39.2096 205.98 39.1419 206.101 39.0065C206.221 38.8588 206.336 38.625 206.444 38.3051C206.553 37.9852 206.638 37.6652 206.698 37.3453C206.758 37.0253 206.819 36.6685 206.879 36.2747L208.055 36.9577Z" fill="black"/>
<path d="M226 36.6439C225.952 37.0869 225.897 37.5237 225.837 37.9544C225.789 38.3728 225.716 38.785 225.62 39.1911C225.523 39.5972 225.264 39.8987 224.842 40.0955C224.419 40.3047 223.762 40.4216 222.869 40.4463C221.674 40.4832 220.485 40.4832 219.303 40.4463C218.808 40.4339 218.398 40.3847 218.072 40.2986C217.746 40.2248 217.481 40.0894 217.275 39.8925C217.082 39.7079 216.944 39.4557 216.859 39.1357C216.775 38.8158 216.732 38.4035 216.732 37.899V36.4039H211.338V26.7872H216.732V24.3876L218.108 24.4615V26.7872H223.665V36.4039H218.108V37.6406C218.108 38.219 218.217 38.6066 218.434 38.8035C218.651 38.9881 219.025 39.0865 219.556 39.0988C220.509 39.1357 221.463 39.1357 222.416 39.0988C223.092 39.0742 223.568 39.0065 223.846 38.8958C224.136 38.785 224.311 38.5697 224.371 38.2497C224.455 37.9175 224.516 37.5729 224.552 37.2161C224.588 36.8469 224.618 36.4839 224.642 36.127L226 36.6439ZM212.714 28.0423V30.9034H216.732V28.0423H212.714ZM218.108 28.0423V30.9034H222.271V28.0423H218.108ZM216.732 35.0749V32.1585H212.714V35.0749H216.732ZM222.271 35.0749V32.1585H218.108V35.0749H222.271Z" fill="black"/>
<path d="M232.681 28.7999L233.479 28L237.989 32.519C238.095 32.625 238.155 32.7689 238.155 32.9189C238.155 33.069 238.095 33.2129 237.989 33.3188L233.479 37.8378L232.681 37.038L236.793 32.9189L232.681 28.7999Z" fill="black"/>
<path fill-rule="evenodd" clip-rule="evenodd" d="M31.5193 113.672L29.0532 118.192L33.2061 120.458L35.6722 115.938L40.1915 118.404L42.4577 114.252L37.9383 111.785L40.4044 107.266L36.2515 105L33.7854 109.519L29.2662 107.053L27 111.206L31.5193 113.672Z" fill="#33A752"/>
<path d="M294.106 80.3572L305.78 90.667L291.014 95.6221L294.106 80.3572Z" fill="#EA4335"/>
<path fill-rule="evenodd" clip-rule="evenodd" d="M108.777 22.6268L104.876 17.9769L100.226 21.8778L104.127 26.5276L108.777 22.6268ZM105.246 13.7505L95.9999 21.5075L103.757 30.7541L113.003 22.997L105.246 13.7505Z" fill="#4184F3"/>
</g>
<defs>
<filter id="filter0_f_574_222" x="224.153" y="74.0691" width="9.69031" height="9.69385" filterUnits="userSpaceOnUse" color-interpolation-filters="sRGB">
<feFlood flood-opacity="0" result="BackgroundImageFix"/>
<feBlend mode="normal" in="SourceGraphic" in2="BackgroundImageFix" result="shape"/>
<feGaussianBlur stdDeviation="2" result="effect1_foregroundBlur_574_222"/>
</filter>
</defs>
</svg>
