<svg width="34" height="34" viewBox="0 0 34 34" fill="none" xmlns="http://www.w3.org/2000/svg">
<path fill-rule="evenodd" clip-rule="evenodd" d="M17.219 9.59765C18.4123 8.40431 20.0356 7.73435 21.7282 7.7367L21.7247 7.74019C23.4274 7.73007 25.063 8.39915 26.2655 9.59765C28.756 12.0749 28.756 16.09 26.2655 18.5672L25.9143 18.9164L18.8906 25.8993C17.7799 27.0025 15.9802 27.0025 14.8695 25.8993L7.84577 18.9164L7.49458 18.5672C5.00408 16.09 5.00408 12.0749 7.49458 9.59765C9.98629 7.12163 14.0249 7.12163 16.5166 9.59765L16.8678 9.9468L17.219 9.59765ZM25.6724 12.457C25.0107 10.8699 23.4527 9.83518 21.7246 9.83505L21.7281 9.83155C20.5948 9.82778 19.507 10.2754 18.7079 11.0745L18.3568 11.4237L16.8677 12.904L15.3822 11.4272L15.031 11.078C13.363 9.41583 10.6555 9.4127 8.98357 11.071C7.31167 12.7293 7.30853 15.4211 8.97654 17.0833L9.32773 17.4325L10.8203 18.9163L16.3339 24.4049C16.4731 24.5448 16.6628 24.6235 16.8607 24.6235C17.0586 24.6235 17.2483 24.5448 17.3875 24.4049L23.1434 18.6929L24.3972 17.436L24.7484 17.0868C25.9695 15.8712 26.3342 14.0441 25.6724 12.457Z" fill="#505050"/>
<path d="M16.8727 18.99C15.247 18.9906 13.8233 18.0454 13.4006 16.685C13.2458 16.1861 13.5869 15.6729 14.1626 15.5387C14.7383 15.4045 15.3305 15.7002 15.4853 16.1991C15.6507 16.7474 16.2223 17.1299 16.8763 17.1299C17.5303 17.1299 18.1019 16.7474 18.2673 16.1991C18.3548 15.8681 18.6427 15.6043 19.0191 15.51C19.3956 15.4158 19.8014 15.506 20.0791 15.7456C20.3568 15.9852 20.4626 16.3365 20.3556 16.6632C19.9414 18.0356 18.5096 18.9922 16.8727 18.99Z" fill="#505050"/>
</svg>
