<svg width="34" height="34" viewBox="0 0 34 34" fill="none" xmlns="http://www.w3.org/2000/svg">
<path fill-rule="evenodd" clip-rule="evenodd" d="M17.3614 8.98443C18.6339 7.71191 20.365 6.9975 22.1698 7.00001L22.1661 7.00373C23.9817 6.99294 25.7259 7.70641 27.0082 8.98443C29.6639 11.626 29.6639 15.9075 27.0082 18.5491L26.6337 18.9214L19.1439 26.3677C17.9596 27.5441 16.0404 27.5441 14.8561 26.3677L7.36629 18.9214L6.99181 18.5491C4.33606 15.9075 4.33606 11.626 6.99181 8.98443C9.64884 6.34412 13.9554 6.34412 16.6124 8.98443L16.9869 9.35674L17.3614 8.98443ZM26.3756 12.0335C25.67 10.3411 24.0086 9.23774 22.1659 9.23759L22.1696 9.23387C20.961 9.22984 19.8012 9.70719 18.949 10.5593L18.5746 10.9316L16.9867 12.5102L15.4026 10.9353L15.0282 10.563C13.2495 8.79056 10.3623 8.78723 8.57947 10.5556C6.79664 12.3239 6.79329 15.1943 8.57198 16.9668L8.94647 17.3391L10.538 18.9214L16.4175 24.7742C16.5659 24.9233 16.7682 25.0072 16.9792 25.0072C17.1903 25.0072 17.3925 24.9233 17.541 24.7742L23.6788 18.6831L25.0158 17.3428L25.3902 16.9705C26.6924 15.6742 27.0813 13.7259 26.3756 12.0335Z" fill="#505050"/>
<path d="M16.992 19C15.2585 19.0006 13.7403 17.9927 13.2895 16.542C13.1244 16.01 13.4882 15.4627 14.1021 15.3197C14.716 15.1766 15.3474 15.4918 15.5126 16.0238C15.6889 16.6086 16.2984 17.0165 16.9958 17.0165C17.6932 17.0165 18.3028 16.6086 18.4791 16.0238C18.5725 15.6709 18.8794 15.3896 19.2809 15.2891C19.6823 15.1886 20.1151 15.2848 20.4112 15.5403C20.7073 15.7958 20.8201 16.1704 20.706 16.5187C20.2644 17.9822 18.7375 19.0023 16.992 19Z" fill="#505050"/>
</svg>
