<svg width="34" height="34" viewBox="0 0 34 34" fill="none" xmlns="http://www.w3.org/2000/svg">
<path d="M20.5893 26.7267C20.0894 26.7265 19.6067 26.545 19.2319 26.2164L15.748 23.1689C15.4631 22.9174 15.335 22.5341 15.4119 22.1634C15.4887 21.7927 15.7589 21.4909 16.1207 21.3716C16.4824 21.2523 16.8808 21.3338 17.1657 21.5852L20.5716 24.5624L25.9658 8.47993L7.8198 14.1493L13.533 18.7242C13.8456 18.955 14.0061 19.3372 13.9512 19.7202C13.8963 20.1032 13.6348 20.4258 13.2696 20.5608C12.9045 20.6958 12.4942 20.6217 12.2004 20.3676L6.38088 15.7083C5.79791 15.2356 5.52234 14.4839 5.66283 13.7497C5.80332 13.0155 6.33733 12.4166 7.05427 12.1891L25.459 6.42475C26.1955 6.19389 27.0002 6.39246 27.5422 6.93881C28.0842 7.48515 28.272 8.28707 28.0285 9.01484L22.5457 25.3191C22.3271 25.9687 21.7945 26.4658 21.128 26.6423C20.9529 26.6932 20.7718 26.7216 20.5893 26.7267Z" fill="#505050"/>
<path d="M13.6356 28.1334C13.0969 28.1334 12.6602 27.6546 12.6602 27.064V21.0789C12.6592 20.1631 13.0356 19.2959 13.6844 18.7191L20.1874 12.9229C20.457 12.6656 20.8334 12.5905 21.1684 12.7273C21.5034 12.864 21.7434 13.1907 21.7937 13.5787C21.8441 13.9667 21.6969 14.3538 21.41 14.5876L14.907 20.3838C14.7104 20.5572 14.5977 20.8202 14.6013 21.0967V27.064C14.6013 27.6504 14.1705 28.1275 13.6356 28.1334Z" fill="#505050"/>
</svg>
