<svg width="34" height="34" viewBox="0 0 34 34" fill="none" xmlns="http://www.w3.org/2000/svg">
<path d="M23.2101 11.605C23.2101 12.3084 22.8691 12.66 22.1871 12.66H12.9798C12.2978 12.66 11.9568 12.3084 11.9568 11.605C11.9568 10.9017 12.2978 10.55 12.9798 10.55H22.1871C22.8691 10.55 23.2101 10.9017 23.2101 11.605Z" fill="#505050"/>
<path d="M18.9901 16.5283C18.9901 17.2317 18.6384 17.5833 17.9351 17.5833H12.3084C11.6051 17.5833 11.2534 17.2317 11.2534 16.5283C11.2534 15.825 11.6051 15.4733 12.3084 15.4733H17.9351C18.6384 15.4733 18.9901 15.825 18.9901 16.5283Z" fill="#505050"/>
<path fill-rule="evenodd" clip-rule="evenodd" d="M9.0555 5.62665H25.408V5.63006C26.9132 5.63006 28.1334 6.85276 28.1334 8.36103V21.3331C28.1334 22.8414 26.9132 24.0641 25.408 24.0641H17.5452L13.6035 27.1364C13.3884 27.3249 13.1126 27.4291 12.8268 27.43C12.5046 27.4309 12.1952 27.3033 11.967 27.0753C11.7388 26.8473 11.6106 26.5376 11.6106 26.2147V24.0607H9.0555C7.55029 24.0607 6.33008 22.838 6.33008 21.3297V8.35761C6.33008 6.84934 7.55029 5.62665 9.0555 5.62665ZM26.0895 8.35764C26.0895 7.98057 25.7844 7.6749 25.4081 7.6749H9.05562C8.67932 7.6749 8.37427 7.98057 8.37427 8.35764V21.3297C8.37427 21.7068 8.67932 22.0125 9.05562 22.0125H13.6548V24.4942L16.2882 22.446L16.8435 22.0125H25.4081C25.7844 22.0125 26.0895 21.7068 26.0895 21.3297V8.35764Z" fill="#505050"/>
</svg>
