<svg width="34" height="34" viewBox="0 0 34 34" fill="none" xmlns="http://www.w3.org/2000/svg">
<path d="M16.8777 5.62666C16.2935 5.62675 15.82 6.10038 15.82 6.6846C15.82 7.26883 16.2935 7.74246 16.8777 7.74254C21.1316 7.74503 24.8215 10.6818 25.7785 14.8267C26.7355 18.9717 24.7067 23.2289 20.8845 25.0961C17.0623 26.9634 12.4573 25.947 9.77607 22.6444C7.09488 19.3418 7.04641 14.626 9.65915 11.269L10.7418 12.3481C10.9218 12.5232 11.1813 12.5894 11.4232 12.5218C11.6651 12.4543 11.8528 12.2632 11.9161 12.0202L13.0621 7.36521C13.1171 7.12807 13.0459 6.87935 12.8738 6.70721C12.7017 6.53508 12.4529 6.46389 12.2158 6.51886L7.54683 7.65438C7.3032 7.71671 7.11119 7.90405 7.04287 8.14607C6.97455 8.38809 7.04027 8.64817 7.21534 8.8287L8.1569 9.77026C4.83286 13.8487 4.77861 19.6861 8.02626 23.8256C11.2739 27.9651 16.9564 29.3016 21.7087 27.0437C26.4609 24.7857 29.0142 19.536 27.8565 14.4035C26.6988 9.27098 22.1391 5.62583 16.8777 5.62666Z" fill="#505050"/>
<path d="M20.7485 16.88H17.5834V13.7149C17.5834 13.1323 17.111 12.66 16.5284 12.66C15.9458 12.66 15.4735 13.1323 15.4734 13.7149V17.935C15.4734 18.5177 15.9457 18.99 16.5284 18.99H20.7485C21.3311 18.99 21.8034 18.5176 21.8034 17.935C21.8034 17.3524 21.3311 16.8801 20.7485 16.88Z" fill="#505050"/>
</svg>
