<svg width="155" height="248" viewBox="0 0 155 248" fill="none" xmlns="http://www.w3.org/2000/svg">
<path d="M140 1.5H15C7.54416 1.5 1.5 7.54416 1.5 15V233C1.5 240.456 7.54416 246.5 15 246.5H140C147.456 246.5 153.5 240.456 153.5 233V15C153.5 7.54416 147.456 1.5 140 1.5Z" stroke="#0092FF" stroke-width="3"/>
<path d="M73.1611 209.195H73.1627V209.186L73.1611 209.195Z" fill="#0092FF"/>
<path d="M71.6037 192.794H56.0199C54.8663 192.794 53.9277 193.733 53.9277 194.887V210.471C53.9277 211.624 54.8663 212.562 56.0199 212.562H71.6037C72.7572 212.562 73.6948 211.624 73.6948 210.471V209.295V208.847V194.887C73.6948 193.733 72.7572 192.794 71.6037 192.794ZM72.3809 208.852V209.295V210.369C72.3809 210.854 71.9863 211.25 71.5006 211.25H56.1219C55.6369 211.25 55.2422 210.854 55.2422 210.369V194.99C55.2422 194.504 55.6369 194.109 56.1219 194.109H71.5006C71.9863 194.109 72.3809 194.504 72.3809 194.99V208.852Z" fill="#0092FF"/>
<path d="M69.2894 200.307L64.8066 205.293L61.6255 203.036C61.4949 202.905 61.3162 202.832 61.1221 202.832L61.0939 202.833L61.0494 202.832C60.8567 202.832 60.6773 202.905 60.5333 203.051L57.3148 207.361C57.0367 207.641 57.0367 208.094 57.3148 208.373C57.45 208.509 57.6293 208.583 57.821 208.583C58.0116 208.583 58.1909 208.509 58.3399 208.359L61.2308 204.489L64.3921 206.733C64.5241 206.866 64.7035 206.94 64.9301 206.94C65.1221 206.94 65.3014 206.866 65.4398 206.728L70.306 201.315C70.4423 201.18 70.5164 201 70.5164 200.808C70.5164 200.617 70.4423 200.437 70.306 200.301C70.0363 200.032 69.5704 200.026 69.2894 200.307Z" fill="#0092FF"/>
<path d="M60.5389 200.817C61.5548 200.817 62.3808 199.991 62.3808 198.976C62.3808 197.961 61.5548 197.134 60.5389 197.134C59.5237 197.134 58.697 197.961 58.697 198.976C58.697 199.991 59.5237 200.817 60.5389 200.817ZM60.5389 198.435C60.8375 198.435 61.0797 198.678 61.0797 198.976C61.0797 199.274 60.8375 199.516 60.5389 199.516C60.2403 199.516 59.9981 199.274 59.9981 198.976C59.9981 198.678 60.2403 198.435 60.5389 198.435Z" fill="#0092FF"/>
<path d="M132 34H23C22.4477 34 22 34.4477 22 35C22 35.5523 22.4477 36 23 36H132C132.552 36 133 35.5523 133 35C133 34.4477 132.552 34 132 34Z" fill="#0092FF"/>
<path d="M132 56H23C22.4477 56 22 56.4477 22 57C22 57.5523 22.4477 58 23 58H132C132.552 58 133 57.5523 133 57C133 56.4477 132.552 56 132 56Z" fill="#0092FF"/>
<path d="M90 78H23C22.4477 78 22 78.4477 22 79C22 79.5523 22.4477 80 23 80H90C90.5523 80 91 79.5523 91 79C91 78.4477 90.5523 78 90 78Z" fill="#0092FF"/>
<path d="M70 100H23C22.4477 100 22 100.448 22 101C22 101.552 22.4477 102 23 102H70C70.5523 102 71 101.552 71 101C71 100.448 70.5523 100 70 100Z" fill="#0092FF"/>
<path d="M26 205C27.1046 205 28 204.105 28 203C28 201.895 27.1046 201 26 201C24.8954 201 24 201.895 24 203C24 204.105 24.8954 205 26 205Z" fill="#0092FF"/>
<path d="M102 205C103.105 205 104 204.105 104 203C104 201.895 103.105 201 102 201C100.895 201 100 201.895 100 203C100 204.105 100.895 205 102 205Z" fill="#0092FF"/>
<path d="M131 205C132.105 205 133 204.105 133 203C133 201.895 132.105 201 131 201C129.895 201 129 201.895 129 203C129 204.105 129.895 205 131 205Z" fill="#0092FF"/>
</svg>
