<svg width="155" height="248" viewBox="0 0 155 248" fill="none" xmlns="http://www.w3.org/2000/svg">
<rect x="1.5" y="1.5" width="152" height="245" rx="13.5" stroke="#BBBBBB" stroke-width="3"/>
<rect x="22" y="34" width="111" height="2" rx="1" fill="#BBBBBB"/>
<rect x="22" y="56" width="111" height="2" rx="1" fill="#BBBBBB"/>
<rect x="22" y="78" width="69" height="2" rx="1" fill="#BBBBBB"/>
<rect x="22" y="100" width="49" height="2" rx="1" fill="#BBBBBB"/>
<path d="M62.7866 196.333C61.6759 196.333 60.7719 197.236 60.7719 198.347C60.7719 199.458 61.6759 200.362 62.7866 200.362C63.8974 200.362 64.8013 199.458 64.8013 198.347C64.8013 197.236 63.8974 196.333 62.7866 196.333ZM62.7866 199.019C62.4166 199.019 62.115 198.717 62.115 198.347C62.115 197.977 62.4166 197.676 62.7866 197.676C63.1566 197.676 63.4582 197.977 63.4582 198.347C63.4582 198.717 63.1566 199.019 62.7866 199.019Z" fill="#BBBBBB"/>
<path d="M59.7647 201.705C58.8392 201.705 58.0857 202.459 58.0857 203.384C58.0857 204.31 58.8392 205.063 59.7647 205.063C60.69 205.063 61.4436 204.31 61.4436 203.384C61.4436 202.459 60.69 201.705 59.7647 201.705ZM59.7647 203.72C59.5793 203.72 59.4289 203.569 59.4289 203.384C59.4289 203.199 59.5793 203.048 59.7647 203.048C59.95 203.048 60.1004 203.199 60.1004 203.384C60.1004 203.569 59.95 203.72 59.7647 203.72Z" fill="#BBBBBB"/>
<path d="M67.7657 206.907C67.5171 206.658 67.1676 206.514 66.816 206.514C66.4643 206.514 66.115 206.658 65.8663 206.907C65.6177 207.156 65.4729 207.505 65.4729 207.857C65.4729 208.208 65.6176 208.558 65.8662 208.807C66.1149 209.055 66.4644 209.2 66.816 209.2C67.1677 209.2 67.517 209.055 67.7657 208.807C68.0144 208.558 68.1591 208.208 68.1591 207.857C68.1591 207.505 68.0144 207.156 67.7657 206.907Z" fill="#BBBBBB"/>
<path d="M72.0354 197.995C72.5754 197.194 72.9624 196.501 73.1873 195.932C73.5473 195.021 73.5103 194.34 73.0774 193.907C72.9031 193.733 72.5787 193.409 72.0305 193.469C71.728 193.502 71.4241 193.636 70.8184 193.904C70.529 194.033 70.1688 194.192 69.7098 194.384C69.3626 194.53 69.1991 194.929 69.3445 195.276C69.49 195.624 69.8895 195.787 70.2367 195.642C70.7081 195.444 71.0751 195.282 71.3701 195.151C71.6485 195.028 71.9152 194.91 72.0704 194.855C72.0651 195.045 71.9417 195.767 70.6575 197.593C69.384 199.403 67.4079 201.675 65.0933 203.99C62.8678 206.215 60.6045 208.135 58.701 209.414C58.6309 209.433 58.5626 209.462 58.4988 209.504C56.9101 210.556 56.0741 210.805 55.7702 210.823C55.7888 210.569 55.9663 209.796 57.1927 208.009C57.3836 207.731 57.3393 207.361 57.1048 207.134C56.382 205.905 56.0006 204.502 56.0006 203.067C56.0006 198.636 59.6057 195.031 64.0369 195.031C65.5972 195.031 66.36 195.237 67.7266 195.816C68.0732 195.963 68.4733 195.801 68.6202 195.455C68.7672 195.108 68.6054 194.708 68.2588 194.561C66.8019 193.943 65.8466 193.668 64.037 193.668C61.5262 193.668 59.1658 194.645 57.3904 196.421C55.6151 198.196 54.6374 200.557 54.6374 203.067C54.6374 204.666 55.0426 206.231 55.8122 207.619C55.2659 208.45 54.8747 209.171 54.6476 209.765C54.2918 210.697 54.3311 211.389 54.7647 211.823C55.0055 212.064 55.3206 212.185 55.7178 212.185C56.4613 212.185 57.492 211.759 58.8579 210.896C60.4246 211.972 62.2528 212.539 64.1677 212.539C66.6783 212.539 69.0388 211.561 70.8141 209.785C72.5895 208.01 73.5672 205.65 73.5672 203.139C73.5672 201.295 73.0387 199.525 72.0354 197.995ZM64.1676 211.175C62.7285 211.175 61.347 210.801 60.1242 210.086C61.9486 208.78 64.0227 206.988 66.0573 204.954C68.0911 202.92 69.8747 200.911 71.1723 199.197C71.8493 200.396 72.2039 201.742 72.2039 203.139C72.2039 207.57 68.5988 211.175 64.1676 211.175Z" fill="#BBBBBB"/>
<circle cx="26" cy="203" r="2" fill="#BBBBBB"/>
<circle cx="102" cy="203" r="2" fill="#BBBBBB"/>
<circle cx="131" cy="203" r="2" fill="#BBBBBB"/>
</svg>
