<svg width="143" height="203" viewBox="0 0 143 203" fill="none" xmlns="http://www.w3.org/2000/svg">
<g clip-path="url(#clip0_2131_177)">
<path fill-rule="evenodd" clip-rule="evenodd" d="M57.7336 89.3692L72.0762 87.8828L81.8183 167.753L65.4465 171.267L57.7336 89.3692Z" fill="#FEC6AB" stroke="#FEC6AB" stroke-width="0.755906" stroke-miterlimit="22.9256"/>
<path fill-rule="evenodd" clip-rule="evenodd" d="M70.5205 84.2326L86.0137 81.4622L116.999 162.413L82.9013 171.332L70.5205 84.2326Z" fill="#2159BA" stroke="#2159BA" stroke-width="0.755906" stroke-miterlimit="22.9256"/>
<path d="M49.7509 89.8389C49.7509 89.8389 49.6149 32.1321 52.0511 30.375C54.4875 31.9962 59.358 88.2167 59.358 88.2167" stroke="#FD9735" stroke-width="0.755906" stroke-miterlimit="22.9256"/>
<path d="M86.0138 81.4622C86.0138 81.4622 59.6279 32.4028 58.5458 32.5376C57.4637 32.6725 68.5456 79.6152 73.4233 83.7137" stroke="#2159BA" stroke-width="0.755906" stroke-miterlimit="22.9256"/>
<path d="M68.83 87.4068C68.83 87.4068 57.7348 31.7277 56.5166 31.5919C55.2985 31.456 57.9393 74.909 60.6784 89.0637" stroke="#FEC6AB" stroke-width="0.755906" stroke-miterlimit="22.9256"/>
<path d="M65.7903 115.043L72.556 114.841" stroke="#332C2B" stroke-width="0.755906" stroke-miterlimit="22.9256"/>
<path d="M69.376 119.638L72.9609 119.232" stroke="#332C2B" stroke-width="0.755906" stroke-miterlimit="22.9256"/>
<path d="M83.5867 94.6362L98.0653 146.532" stroke="white" stroke-width="0.755906" stroke-miterlimit="22.9256"/>
<path d="M98.0652 152.208C98.0652 152.208 91.818 166.406 87.105 167.074" stroke="white" stroke-width="0.755906" stroke-miterlimit="22.9256"/>
<path d="M104.019 153.289L111.731 158.56" stroke="white" stroke-width="0.755906" stroke-miterlimit="22.9256"/>
<path fill-rule="evenodd" clip-rule="evenodd" d="M47.4494 87.2074L60.4389 86.667L69.0988 173.429L27.1533 179.376L47.4494 87.2074Z" fill="#FD9735" stroke="#FD9735" stroke-width="0.755906" stroke-miterlimit="22.9256"/>
<path d="M55.4365 102.812L55.7086 158.762" stroke="white" stroke-width="0.755906" stroke-miterlimit="22.9256"/>
<path d="M37.3066 173.629C37.3066 173.629 47.9958 169.98 50.7021 164.98" stroke="white" stroke-width="0.755906" stroke-miterlimit="22.9256"/>
<path d="M59.0911 164.034L65.2973 169.673" stroke="white" stroke-width="0.755906" stroke-miterlimit="22.9256"/>
</g>
<defs>
<clipPath id="clip0_2131_177">
<rect width="143" height="202" fill="white" transform="translate(0 0.540771)"/>
</clipPath>
</defs>
</svg>
