<svg width="166" height="321" viewBox="0 0 166 321" fill="none" xmlns="http://www.w3.org/2000/svg">
<g clip-path="url(#clip0_2131_146)">
<path d="M54.2891 143.065C54.2891 143.065 50.7038 161.094 57.7693 174.59C64.8348 188.086 67.5769 203.902 51.7595 277.074" stroke="#332C2B" stroke-width="3.99987" stroke-miterlimit="22.9256"/>
<path fill-rule="evenodd" clip-rule="evenodd" d="M60.0307 133.37C141.601 45.7485 21.497 13.6359 19.7852 83.702C19.5333 94.1462 40.2951 127.08 48.4279 134.214C60.0307 133.37 60.0307 133.37 60.0307 133.37Z" fill="#5295FD" stroke="#5295FD" stroke-width="0.755906" stroke-miterlimit="22.9256"/>
<path fill-rule="evenodd" clip-rule="evenodd" d="M58.4497 144.441C59.5034 139.38 61.2698 133.053 58.1065 132.421C40.8894 128.976 49.758 146.502 55.1034 146.433C56.2465 146.419 58.0097 146.555 58.4497 144.441Z" fill="#FCDE5A" stroke="#FCDE5A" stroke-width="0.755906" stroke-miterlimit="22.9256"/>
<path d="M35.1503 71.9504C35.1503 71.9504 28.5068 85.5521 36.6266 101.262" stroke="white" stroke-width="3.99987" stroke-miterlimit="22.9256"/>
<path d="M41.0552 58.3489C41.0552 58.3489 37.0482 63.6211 37.7863 65.3079" stroke="white" stroke-width="3.99987" stroke-miterlimit="22.9256"/>
</g>
<defs>
<clipPath id="clip0_2131_146">
<rect width="227" height="321" fill="white" transform="translate(-61)"/>
</clipPath>
</defs>
</svg>
