<svg width="148" height="211" viewBox="0 0 148 211" fill="none" xmlns="http://www.w3.org/2000/svg">
<g clip-path="url(#clip0_2131_195)">
<path fill-rule="evenodd" clip-rule="evenodd" d="M67.3962 87.2762L57.8047 56.5513C57.8047 56.5513 86.8683 42.7509 90.4583 45.4769C94.0483 48.203 101.4 76.6546 101.742 78.6992C102.084 80.7438 68.4042 90.9662 67.3962 87.2762Z" fill="#CDF6FC" stroke="#CDF6FC" stroke-width="0.755906" stroke-miterlimit="22.9256"/>
<path fill-rule="evenodd" clip-rule="evenodd" d="M68.7458 79.6369C69.2586 79.6369 96.271 68.2219 98.8355 69.2439C101.4 70.266 101.571 80.9994 101.571 80.9994L67.2074 91.2218L65.1997 80.2406L68.7458 79.6369Z" fill="#FCDE5A" stroke="#FCDE5A" stroke-width="0.755906" stroke-miterlimit="22.9256"/>
<path fill-rule="evenodd" clip-rule="evenodd" d="M60.2852 93.665C60.2852 93.665 59.4297 89.6614 72.0814 85.4872C84.7331 81.3131 113.027 64.447 119.01 82.5061C124.994 100.565 129.61 122.543 129.61 122.543C129.61 122.543 134.739 139.07 113.881 143.84C93.0241 148.61 86.6985 145.543 86.6985 145.543C86.6985 145.543 64.6439 164.625 59.6861 141.114C54.7283 117.602 47.0348 91.3654 60.2852 93.665Z" fill="#FC639C" stroke="#FC639C" stroke-width="0.755906" stroke-miterlimit="22.9256"/>
<path fill-rule="evenodd" clip-rule="evenodd" d="M67.4215 97.4996C67.4215 97.4996 64.2584 94.6453 61.7369 96.8604C59.2153 99.0755 59.6852 102.909 61.053 103.931C62.4207 104.953 71.9947 106.188 67.4215 97.4996Z" fill="#FCDE5A" stroke="#FCDE5A" stroke-width="0.755906" stroke-miterlimit="22.9256"/>
<path fill-rule="evenodd" clip-rule="evenodd" d="M115.377 102.356C115.377 102.356 112.642 91.1121 99.9907 94.5192C87.3395 97.9263 83.0655 100.482 83.0655 100.482C83.0655 100.482 76.74 106.275 82.3817 120.756C88.0234 135.238 97.0851 135.238 109.223 130.127C121.361 125.015 121.874 118.882 115.377 102.356Z" fill="#CDF6FC" stroke="#CDF6FC" stroke-width="0.755906" stroke-miterlimit="22.9256"/>
<path fill-rule="evenodd" clip-rule="evenodd" d="M97.4273 109.939C97.4273 109.939 93.6889 112.205 95.0339 116.583C96.0393 119.863 100.692 121.77 104.01 120.076C107.936 118.071 108.711 106.106 97.4273 109.939Z" fill="#16314F" stroke="#16314F" stroke-width="0.755906" stroke-miterlimit="22.9256"/>
<path d="M67.1016 135.376C67.1016 135.376 67.9565 141.765 70.1788 143.299" stroke="white" stroke-width="2.66683" stroke-miterlimit="22.9256"/>
<path d="M72.2305 139.976C72.2305 139.976 72.0594 141.51 76.7608 143.213" stroke="white" stroke-width="2.66683" stroke-miterlimit="22.9256"/>
<path d="M89.7522 136.868L91.5469 141.171" stroke="white" stroke-width="2.66683" stroke-miterlimit="22.9256"/>
<path d="M93.7268 136.272L95.351 139.85" stroke="white" stroke-width="2.66683" stroke-miterlimit="22.9256"/>
<path fill-rule="evenodd" clip-rule="evenodd" d="M73.2534 90.8262C74.1936 90.4425 76.8868 88.6545 77.7413 90.017C78.5958 91.3795 79.9212 95.8524 80.2628 97.1727C80.6045 98.4931 81.673 100.495 80.6474 101.56C79.6218 102.624 76.8434 104.2 75.5185 103.519C74.1936 102.838 69.7269 92.2532 73.2534 90.8262Z" fill="#16314F" stroke="#16314F" stroke-width="0.755906" stroke-miterlimit="22.9256"/>
<path fill-rule="evenodd" clip-rule="evenodd" d="M19.5718 74.0376L42.8499 75.8734L20.5767 67.0283L19.5718 74.0376Z" fill="#FCDE5A" stroke="#FCDE5A" stroke-width="0.755906" stroke-miterlimit="22.9256"/>
<path fill-rule="evenodd" clip-rule="evenodd" d="M26.7729 82.8829L44.1897 81.3809L30.1223 88.891L26.7729 82.8829Z" fill="#FCDE5A" stroke="#FCDE5A" stroke-width="0.755906" stroke-miterlimit="22.9256"/>
<path fill-rule="evenodd" clip-rule="evenodd" d="M30.2896 61.6878L36.4859 58.5168L42.0126 70.5329L30.2896 61.6878Z" fill="#FCDE5A" stroke="#FCDE5A" stroke-width="0.755906" stroke-miterlimit="22.9256"/>
<path fill-rule="evenodd" clip-rule="evenodd" d="M74.8516 59.1857C74.8516 59.1857 69.9583 51.8075 69.0999 54.1559C68.2414 56.5042 72.8443 61.4213 72.8443 61.4213C72.8443 61.4213 70.228 67.0834 76.0168 70.4051C81.8056 73.7269 86.926 68.1834 86.7311 64.32C86.5363 60.4565 83.5833 58.7154 83.5833 58.7154C83.5833 58.7154 84.721 50.9281 83.457 50.8152C82.1929 50.7025 80.0129 52.7665 80.9389 57.4597C80.9389 57.4597 76.859 56.7212 74.8516 59.1857Z" fill="white" stroke="white" stroke-width="0.755906" stroke-miterlimit="22.9256"/>
<path d="M82.1581 62.6234C82.3799 62.4018 82.3793 62.0429 82.1569 61.8219C81.9346 61.6009 81.5745 61.6014 81.3527 61.8231C81.131 62.0447 81.1315 62.4035 81.3539 62.6245C81.5763 62.8455 81.9363 62.845 82.1581 62.6234Z" fill="#16314F" stroke="#16314F" stroke-width="1.30854" stroke-miterlimit="22.9256"/>
<path d="M79.4409 64.1556C79.9855 63.9669 80.332 63.5418 80.2149 63.206C80.0977 62.8702 79.5613 62.751 79.0168 62.9396C78.4722 63.1283 78.1257 63.5534 78.2429 63.8892C78.36 64.225 78.8964 64.3442 79.4409 64.1556Z" fill="#16314F" stroke="#16314F" stroke-width="0.967655" stroke-miterlimit="22.9256"/>
<path d="M79.4412 64.1555L80.3486 67.6218" stroke="#16314F" stroke-width="1.33342" stroke-miterlimit="22.9256"/>
<path d="M76.6303 63.5902C76.852 63.3686 76.8515 63.0097 76.6291 62.7887C76.4067 62.5677 76.0467 62.5682 75.8249 62.7899C75.6031 63.0115 75.6036 63.3703 75.826 63.5913C76.0484 63.8123 76.4085 63.8118 76.6303 63.5902Z" fill="#16314F" stroke="#16314F" stroke-width="1.30854" stroke-miterlimit="22.9256"/>
</g>
<defs>
<clipPath id="clip0_2131_195">
<rect width="149" height="210" fill="white" transform="translate(0.543213 0.637695)"/>
</clipPath>
</defs>
</svg>
