<svg width="130" height="193" viewBox="0 0 130 193" fill="none" xmlns="http://www.w3.org/2000/svg">
<g clip-path="url(#clip0_2131_134)">
<path fill-rule="evenodd" clip-rule="evenodd" d="M38.8966 61.3176C38.8966 61.3176 21.2061 114.136 21.2061 116.045C21.2061 117.954 24.3925 125.75 48.9367 134.5C73.4809 143.249 88.7801 151.045 93.8802 138.158C98.9804 125.272 114.121 84.8632 111.412 82.1586C108.702 79.4541 43.6775 59.5679 38.8966 61.3176Z" fill="#FA5F5B" stroke="#FA5F5B" stroke-width="0.755906" stroke-miterlimit="22.9256"/>
<path fill-rule="evenodd" clip-rule="evenodd" d="M38.5725 50.3418C38.5725 50.3418 109.175 67.6829 111.885 70.3874C114.594 73.092 113.319 83.2741 112.522 84.3876C111.726 85.5012 94.5132 82.1605 86.7037 79.774C78.8942 77.3875 38.0948 65.137 34.5885 64.1828C31.0822 63.2285 34.1102 50.0238 38.5725 50.3418Z" fill="#FCDE5A" stroke="#FCDE5A" stroke-width="0.755906" stroke-miterlimit="22.9256"/>
<path fill-rule="evenodd" clip-rule="evenodd" d="M77.2209 62.9852C77.2209 62.9852 77.5395 19.7121 52.199 28.3032C26.8586 36.8944 70.0492 62.8258 77.2209 62.9852Z" stroke="#FA5F5B" stroke-width="3.99987" stroke-miterlimit="22.9256"/>
<path fill-rule="evenodd" clip-rule="evenodd" d="M80.9942 49.2094C80.9942 49.2094 98.866 32.7056 111.784 49.5479C124.701 66.3902 82.235 65.3173 79.9254 63.2069C77.6158 61.0964 79.0788 48.7438 79.0788 48.7438L80.9942 49.2094Z" stroke="#FA5F5B" stroke-width="3.99987" stroke-miterlimit="22.9256"/>
<path fill-rule="evenodd" clip-rule="evenodd" d="M55.7813 67.5164L34.585 128.925L47.5735 134.732L66.6183 71.6526L55.7813 67.5164Z" fill="#FCDE5A" stroke="#FCDE5A" stroke-width="0.755906" stroke-miterlimit="22.9256"/>
<path fill-rule="evenodd" clip-rule="evenodd" d="M87.656 77.2205L66.6182 141.573L78.2219 144.349L99.4495 79.9251L87.656 77.2205Z" fill="#FCDE5A" stroke="#FCDE5A" stroke-width="0.755906" stroke-miterlimit="22.9256"/>
<path d="M79.0894 60.9575C79.0894 60.9575 79.5851 61.8988 80.4732 63.4835C85.1689 71.8598 100.846 98.2245 112.355 98.5779" stroke="#FA5F5B" stroke-width="3.99987" stroke-miterlimit="22.9256"/>
<path d="M57.0432 69.3708C57.0432 69.3708 79.3273 66.7811 80.473 63.4836" stroke="#FA5F5B" stroke-width="3.99987" stroke-miterlimit="22.9256"/>
</g>
<defs>
<clipPath id="clip0_2131_134">
<rect width="136" height="192" fill="white" transform="translate(0.813721 0.261963)"/>
</clipPath>
</defs>
</svg>
