<svg width="160" height="276" viewBox="0 0 160 276" fill="none" xmlns="http://www.w3.org/2000/svg">
<g clip-path="url(#clip0_2131_157)">
<path fill-rule="evenodd" clip-rule="evenodd" d="M74.5797 113.058C74.5797 113.058 82.6372 113.828 82.9921 115.984C83.347 118.14 82.6378 122.811 81.1171 123.221C79.5965 123.631 70.4743 119.68 70.6772 118.499C70.88 117.318 74.5797 113.058 74.5797 113.058Z" fill="#2159BA" stroke="#2159BA" stroke-width="0.755906" stroke-miterlimit="22.9256"/>
<path fill-rule="evenodd" clip-rule="evenodd" d="M78.4909 99.5769C78.4909 99.5769 86.0841 97.1492 86.7329 100.589C87.3817 104.028 88.1816 107.368 85.634 107.823C83.0864 108.278 75.3433 110.02 75.8671 107.571C76.3909 105.122 78.4909 99.5769 78.4909 99.5769Z" fill="#2159BA" stroke="#2159BA" stroke-width="0.755906" stroke-miterlimit="22.9256"/>
<path fill-rule="evenodd" clip-rule="evenodd" d="M51.0759 101.602C51.0759 101.602 60.0036 124.749 65.1225 126.678C70.2413 128.607 74.5266 105.099 74.5266 105.099C74.5266 105.099 58.0996 90.8734 51.0759 101.602Z" fill="white" stroke="white" stroke-width="0.755906" stroke-miterlimit="22.9256"/>
<path fill-rule="evenodd" clip-rule="evenodd" d="M48.8789 78.6302C48.8789 78.6302 40.2486 50.4201 47.748 47.4064C55.2474 44.3926 56.4381 46.3216 56.4381 46.3216L74.3553 78.7506C74.3553 78.7506 53.8805 85.7425 48.8789 78.6302Z" fill="white" stroke="white" stroke-width="0.755906" stroke-miterlimit="22.9256"/>
<path fill-rule="evenodd" clip-rule="evenodd" d="M24.1665 100.868C24.1665 100.868 55.5925 49.0301 107.256 45.6548C158.919 42.2794 79.6435 112.201 26.5521 112.201L31.9099 118.59L24.1125 121.183L-4.99268 98.6989L7.86392 90.6221L24.1665 100.868Z" fill="#FCDE5A" stroke="#FCDE5A" stroke-width="0.755906" stroke-miterlimit="22.9256"/>
<path fill-rule="evenodd" clip-rule="evenodd" d="M52.5689 45.5986C52.5689 45.5986 61.3785 44.0909 75.2465 57.4729C89.1145 70.8547 58.9972 75.4964 58.9972 75.4964C58.9972 75.4964 42.8077 50.6616 52.5689 45.5986Z" fill="#FCDE5A" stroke="#FCDE5A" stroke-width="0.755906" stroke-miterlimit="22.9256"/>
<path fill-rule="evenodd" clip-rule="evenodd" d="M58.7935 107.187C58.7935 107.187 66.1741 126.476 70.1023 126.476C74.0306 126.476 83.434 113.937 79.6253 96.3368C75.8165 78.736 58.7935 107.187 58.7935 107.187Z" fill="#FCDE5A" stroke="#FCDE5A" stroke-width="0.755906" stroke-miterlimit="22.9256"/>
<path fill-rule="evenodd" clip-rule="evenodd" d="M94.5242 59.2932C94.5242 59.2932 102.255 56.141 105.234 45.8122C105.234 45.8122 111.783 44.8317 113.392 45.3085C115 45.7852 112.558 55.7969 109.582 58.8712C106.606 61.9454 95.8336 73.3378 94.5242 59.2932Z" fill="#2159BA" stroke="#2159BA" stroke-width="0.755906" stroke-miterlimit="22.9256"/>
<path fill-rule="evenodd" clip-rule="evenodd" d="M80.9542 75.1478C81.9657 74.1833 85.9536 70.9881 86.7275 72.7362C87.5013 74.4843 89.8819 77.1373 89.108 78.5231C83.2549 89.005 76.4422 77.539 80.9542 75.1478Z" fill="white" stroke="white" stroke-width="0.755906" stroke-miterlimit="22.9256"/>
<path fill-rule="evenodd" clip-rule="evenodd" d="M71.1189 79.8224C71.1189 79.8224 67.0006 81.9285 66.3462 83.7372C65.6918 85.5459 67.4174 87.8365 68.4295 88.9818C69.4416 90.127 73.1323 88.8009 74.1437 88.0172C75.1551 87.2336 74.2624 81.1448 73.5484 81.0245C72.8342 80.9043 73.0164 79.2654 71.1189 79.8224Z" fill="white" stroke="white" stroke-width="0.755906" stroke-miterlimit="22.9256"/>
<path fill-rule="evenodd" clip-rule="evenodd" d="M54.7177 91.3853C61.1108 84.6054 63.4294 93.5468 62.5152 94.5806C59.9611 97.4681 55.5506 99.4022 54.7177 97.9559C53.8849 96.5095 53.6466 91.687 54.7177 91.3853Z" fill="white" stroke="white" stroke-width="0.755906" stroke-miterlimit="22.9256"/>
<path fill-rule="evenodd" clip-rule="evenodd" d="M41.5709 98.0274C42.7616 97.4245 45.3798 95.0129 46.8086 96.6408C48.2375 98.2686 50.2021 100.017 49.0114 101.282C47.8207 102.548 42.9999 104.357 42.5831 103.935C42.1663 103.513 39.1307 99.2929 41.5709 98.0274Z" fill="white" stroke="white" stroke-width="0.755906" stroke-miterlimit="22.9256"/>
<path fill-rule="evenodd" clip-rule="evenodd" d="M26.875 118.623L2.87047 93.155L-5.58813 98.7697L24.1315 121.807L28.0114 119.886L26.875 118.623Z" fill="#FA5F5B" stroke="#FA5F5B" stroke-width="0.755906" stroke-miterlimit="22.9256"/>
<path d="M12.3076 138.712C12.3076 138.712 33.7143 141.065 34.8758 154.173C34.8758 154.173 58.1078 141.232 55.9504 165.936" stroke="#5295FD" stroke-width="5.33329" stroke-miterlimit="22.9256"/>
<path d="M84.1602 146.779C84.1602 146.779 82.8321 115.185 109.715 128.293C109.715 128.293 117.514 112.832 124.816 116.865" stroke="#5295FD" stroke-width="5.33329" stroke-miterlimit="22.9256"/>
<path d="M69.3916 170.138C69.3916 170.138 75.0337 165.601 79.8458 170.138" stroke="#5295FD" stroke-width="5.33329" stroke-miterlimit="22.9256"/>
</g>
<defs>
<clipPath id="clip0_2131_157">
<rect width="192" height="275" fill="white" transform="translate(-32.6099 0.00561523)"/>
</clipPath>
</defs>
</svg>
