<svg width="68" height="68" viewBox="0 0 68 68" fill="none" xmlns="http://www.w3.org/2000/svg">
<path opacity="0.8" d="M34.9032 14.2574C31.9414 17.4516 30.6399 22.0469 31.8485 26.5625C32.4196 28.7008 33.4954 30.5735 34.9032 32.0875C36.311 30.5735 37.3868 28.7008 37.9579 26.5625C39.1664 22.0469 37.8582 17.4516 34.9032 14.2574Z" fill="#FD8872"/>
<path d="M44.1932 37.6855C41.6764 37.6855 39.1995 37.028 36.9616 35.7331C33.6081 33.7941 31.2042 30.6663 30.2014 26.921C28.1362 19.198 32.7381 11.2292 40.4612 9.15738C44.2065 8.15464 48.1178 8.66597 51.4713 10.605C54.8249 12.5441 57.2288 15.6718 58.2315 19.4171C60.3034 27.1468 55.7014 35.1155 47.9717 37.1874C46.7233 37.5194 45.4549 37.6855 44.1932 37.6855ZM44.2397 11.455C43.2237 11.455 42.201 11.5878 41.1917 11.8601C38.1702 12.6702 35.6467 14.6093 34.0795 17.3187C32.5124 20.028 32.1006 23.1823 32.9108 26.2038C33.721 29.2253 35.66 31.7487 38.3694 33.3159C41.0788 34.8831 44.2331 35.2948 47.2545 34.4847C50.276 33.6745 52.7995 31.7355 54.3667 29.0261C55.9338 26.3167 56.3456 23.1624 55.5354 20.1409C54.7253 17.1194 52.7862 14.596 50.0768 13.0288C48.2706 11.9862 46.2651 11.455 44.2397 11.455Z" fill="#FA5F52"/>
<path d="M52.773 56.4918C52.1554 56.4918 51.591 56.0801 51.4183 55.4559L46.2585 36.198C46.0593 35.4543 46.5042 34.684 47.248 34.4848C47.9917 34.2856 48.762 34.7305 48.9613 35.4742L54.121 54.732C54.3203 55.4758 53.8753 56.2461 53.1316 56.4453C53.012 56.4785 52.8925 56.4918 52.773 56.4918Z" fill="#FA5F52"/>
<path d="M39.6381 49.4859C39.0205 49.4859 38.456 49.0742 38.2834 48.45C38.0842 47.7062 38.5291 46.9359 39.2728 46.7367L60.2838 41.1054C61.0275 40.9062 61.7978 41.3511 61.997 42.0949C62.1963 42.8386 61.7513 43.609 61.0076 43.8082L39.9967 49.4394C39.8771 49.466 39.7576 49.4859 39.6381 49.4859Z" fill="#FA5F52"/>
<path d="M15.0918 54.734L20.2527 35.4722L22.9594 36.1974L17.7985 55.4592L15.0918 54.734Z" fill="#FD8872"/>
<path d="M25.0019 37.6855C23.7601 37.6855 22.5051 37.5261 21.25 37.1874C17.5047 36.1847 14.3769 33.7808 12.4379 30.4273C10.4988 27.0737 9.98748 23.1624 10.9902 19.4171C11.993 15.6718 14.3969 12.5441 17.7504 10.605C21.1039 8.66597 25.0152 8.15464 28.7605 9.15738C32.5058 10.1601 35.6336 12.564 37.5726 15.9175C39.5117 19.271 40.023 23.1823 39.0203 26.9277C37.2804 33.4023 31.4035 37.6855 25.0019 37.6855ZM24.982 11.455C22.95 11.455 20.9512 11.9862 19.1449 13.0288C16.4355 14.596 14.4965 17.1194 13.6863 20.1409C12.8762 23.1624 13.2945 26.3167 14.8551 29.0261C16.4156 31.7355 18.9457 33.6745 21.9672 34.4847C28.2027 36.1581 34.6375 32.4394 36.3109 26.2038C37.1211 23.1823 36.7027 20.028 35.1422 17.3187C33.5816 14.6093 31.0515 12.6702 28.0301 11.8601C27.0207 11.5878 25.998 11.455 24.982 11.455ZM16.4488 56.4917C16.3293 56.4917 16.2031 56.4784 16.0836 56.4452C15.725 56.3523 15.4195 56.1132 15.2336 55.7944L8.85858 44.7511C8.47342 44.0804 8.6992 43.2237 9.3699 42.8386C10.0406 42.4534 10.8972 42.6792 11.2824 43.3499L16.9601 53.1847L26.7949 47.5069C27.4656 47.1218 28.3222 47.3476 28.7074 48.0183C29.0926 48.689 28.8668 49.5456 28.1961 49.9308L17.1527 56.3058C16.9336 56.4319 16.6945 56.4917 16.4488 56.4917Z" fill="#FA5F52"/>
</svg>
