<svg width="68" height="68" viewBox="0 0 68 68" fill="none" xmlns="http://www.w3.org/2000/svg">
<path opacity="0.8" d="M34.9031 14.2574C31.9413 17.4516 30.6398 22.0469 31.8484 26.5625C32.4195 28.7008 33.4953 30.5735 34.9031 32.0875C36.3109 30.5735 37.3867 28.7008 37.9578 26.5625C39.1663 22.0469 37.8581 17.4516 34.9031 14.2574Z" fill="#ECB4C8"/>
<path d="M44.1934 37.6856C41.6766 37.6856 39.1997 37.0281 36.9618 35.7332C33.6083 33.7942 31.2044 30.6664 30.2016 26.9211C28.1364 19.1981 32.7383 11.2293 40.4614 9.15744C44.2067 8.1547 48.118 8.66603 51.4715 10.6051C54.8251 12.5442 57.229 15.6719 58.2317 19.4172C60.3036 27.1469 55.7016 35.1156 47.9719 37.1875C46.7235 37.5195 45.4551 37.6856 44.1934 37.6856V37.6856ZM44.2399 11.4551C43.2239 11.4551 42.2012 11.5879 41.1919 11.8602C38.1704 12.6703 35.6469 14.6094 34.0797 17.3188C32.5126 20.0281 32.1008 23.1824 32.911 26.2039C33.7212 29.2254 35.6602 31.7488 38.3696 33.316C41.079 34.8832 44.2333 35.2949 47.2547 34.4848C50.2762 33.6746 52.7997 31.7356 54.3669 29.0262C55.934 26.3168 56.3458 23.1625 55.5356 20.141C54.7255 17.1195 52.7864 14.5961 50.077 13.0289C48.2708 11.9863 46.2653 11.4551 44.2399 11.4551V11.4551Z" fill="white"/>
<path d="M52.7731 56.4918C52.1555 56.4918 51.5911 56.0801 51.4184 55.4559L46.2586 36.198C46.0594 35.4543 46.5043 34.684 47.2481 34.4848C47.9918 34.2856 48.7621 34.7305 48.9614 35.4742L54.1211 54.732C54.3204 55.4758 53.8754 56.2461 53.1317 56.4453C53.0121 56.4785 52.8926 56.4918 52.7731 56.4918Z" fill="white"/>
<path d="M39.6379 49.4859C39.0203 49.4859 38.4558 49.0742 38.2832 48.45C38.084 47.7062 38.5289 46.9359 39.2726 46.7367L60.2836 41.1054C61.0273 40.9062 61.7976 41.3511 61.9968 42.0949C62.1961 42.8386 61.7511 43.609 61.0074 43.8082L39.9965 49.4394C39.8769 49.466 39.7574 49.4859 39.6379 49.4859V49.4859Z" fill="white"/>
<path d="M15.0916 54.734L20.2525 35.4722L22.9592 36.1974L17.7983 55.4592L15.0916 54.734Z" fill="#ECB4C8"/>
<path d="M25.0019 37.6856C23.7601 37.6856 22.5051 37.5262 21.25 37.1875C17.5047 36.1848 14.3769 33.7809 12.4379 30.4274C10.4988 27.0738 9.98748 23.1625 10.9902 19.4172C11.993 15.6719 14.3969 12.5442 17.7504 10.6051C21.1039 8.66603 25.0152 8.1547 28.7605 9.15744C32.5058 10.1602 35.6336 12.5641 37.5726 15.9176C39.5117 19.2711 40.023 23.1824 39.0203 26.9278C37.2804 33.4024 31.4035 37.6856 25.0019 37.6856V37.6856ZM24.982 11.4551C22.95 11.4551 20.9512 11.9863 19.1449 13.0289C16.4355 14.5961 14.4965 17.1195 13.6863 20.141C12.8762 23.1625 13.2945 26.3168 14.8551 29.0262C16.4156 31.7356 18.9457 33.6746 21.9672 34.4848C28.2027 36.1582 34.6375 32.4395 36.3109 26.2039C37.1211 23.1824 36.7027 20.0281 35.1422 17.3188C33.5816 14.6094 31.0515 12.6703 28.0301 11.8602C27.0207 11.5879 25.998 11.4551 24.982 11.4551V11.4551ZM16.4488 56.4918C16.3293 56.4918 16.2031 56.4785 16.0836 56.4453C15.725 56.3524 15.4195 56.1133 15.2336 55.7945L8.85858 44.7512C8.47342 44.0805 8.6992 43.2238 9.3699 42.8387C10.0406 42.4535 10.8972 42.6793 11.2824 43.35L16.9601 53.1848L26.7949 47.507C27.4656 47.1219 28.3222 47.3477 28.7074 48.0184C29.0926 48.6891 28.8668 49.5457 28.1961 49.9309L17.1527 56.3059C16.9336 56.432 16.6945 56.4918 16.4488 56.4918V56.4918Z" fill="white"/>
</svg>
