<svg width="200" height="200" viewBox="0 0 200 200" fill="none" xmlns="http://www.w3.org/2000/svg">
<path d="M183.569 150.971C182.905 145.25 181.773 139.198 180.074 132.774C178.415 126.389 175.779 120.609 172.225 115.533C168.652 110.456 164.356 106.59 159.319 103.934L169.179 76.8915H143.444C145.592 70.5457 146.393 64.1609 145.846 57.6589C148.833 57.0536 151.508 56.4093 153.93 55.7454C162.15 53.5 167.051 50.9616 168.613 48.1304C168.984 47.4666 169.159 46.8027 169.159 46.1193C169.159 41.5503 160.763 37.5866 143.932 34.2087C142.566 29.2492 140.496 23.8797 137.743 18.1197C134.99 12.3597 132.159 7.79069 129.269 4.4323C126.711 1.50347 123.645 0.0195312 120.131 0.0195312C117.729 0.0195312 114.371 1.24964 110.056 3.72938C105.741 6.20912 102.363 7.43923 99.9805 7.43923C97.5984 7.43923 94.2204 6.20912 89.9053 3.72938C85.5902 1.24964 82.2318 0.0195312 79.8301 0.0195312C76.3155 0.0195312 73.2696 1.50347 70.7117 4.47135C67.8219 7.82974 64.9907 12.3987 62.2572 18.1587C59.5041 23.9188 57.4343 29.2883 56.0676 34.2478C39.2561 37.6062 30.8406 41.5699 30.8406 46.1584C30.8406 46.9003 31.0554 47.6032 31.4654 48.3062C33.1251 51.0983 38.1236 53.6171 46.461 55.8821C48.765 56.5069 51.3229 57.1122 54.1541 57.6979C53.9783 59.299 53.9002 60.5877 53.9002 61.5445C53.9002 66.6797 54.7789 71.7954 56.5557 76.9306H30.782L41.5991 103.388C37.3621 105.457 33.5937 108.445 30.3524 112.33C27.1112 116.216 24.5729 120.375 22.718 124.768C20.863 129.161 19.3791 134.121 18.2271 139.608C17.0556 145.094 16.3136 150.112 15.9621 154.701C15.6107 159.27 15.4349 163.995 15.4349 168.876C15.4349 178.561 18.3638 186.156 24.2019 191.702C30.04 197.227 37.7917 200 47.4959 200H152.504C162.189 200 169.96 197.247 175.798 191.702C181.636 186.195 184.565 178.58 184.565 168.876C184.585 162.667 184.272 156.712 183.569 150.971V150.971ZM66.0451 44.9868L68.0758 37.5476C69.2278 33.3691 71.0436 28.6635 73.4843 23.5283C75.7102 18.8812 77.8971 15.2494 80.0254 12.7307C80.7283 13.004 81.9194 13.5507 83.6571 14.5465C90.042 18.2173 95.2358 19.916 99.961 19.916C104.686 19.916 109.86 18.2173 116.265 14.5465C118.022 13.5507 119.194 13.004 119.897 12.7307C122.025 15.2494 124.212 18.8812 126.438 23.5283C128.878 28.6244 130.694 33.3301 131.866 37.5476L133.916 44.9673L139.695 46.1193C125.735 48.8334 111.266 50.1416 96.954 49.9268C84.4772 49.7511 72.1761 48.4819 60.1875 46.1193L66.0451 44.9868V44.9868ZM126.106 89.4074L116.07 97.9986C106.814 105.926 93.1661 105.926 83.911 97.9986L73.8748 89.4074H74.031L71.2584 81.3824C71.2975 81.441 71.317 81.4996 71.3561 81.5386C71.5513 81.8706 71.9028 82.4173 72.4495 83.2373C72.9767 84.0379 73.4648 84.5846 73.8944 84.858C74.3239 85.1313 74.9097 85.5218 75.5931 85.9904C76.2765 86.4591 76.9794 86.791 77.6823 86.9472C78.4243 87.1034 79.2248 87.2791 80.1425 87.4353C81.0602 87.5915 82.0365 87.6892 83.0714 87.6892C85.9611 87.6892 88.3237 87.1815 90.1787 86.2052C92.0336 85.1899 93.3223 83.9988 94.1033 82.593C94.8648 81.2067 95.4506 79.8204 95.8411 78.4536C96.2511 77.0868 96.7002 75.8957 97.2274 74.9195C97.7546 73.9041 98.438 73.4355 99.3361 73.4355H100.781C101.66 73.4355 102.382 73.9432 102.87 74.9195C103.397 75.9348 103.847 77.0868 104.257 78.4536C104.667 79.8204 105.233 81.2067 105.994 82.593C106.756 83.9793 108.064 85.1899 109.919 86.2052C111.774 87.2205 114.117 87.6892 117.026 87.6892C118.061 87.6892 119.057 87.6111 119.955 87.4353C120.873 87.2791 121.693 87.1034 122.396 86.9472C123.138 86.791 123.821 86.4591 124.485 85.9904C125.168 85.5023 125.715 85.1313 126.184 84.858C126.613 84.5846 127.101 84.0574 127.629 83.2373C128.097 82.5149 128.429 82.0072 128.644 81.6753L126.028 89.4074H126.106V89.4074ZM122.396 109.031L100 168.369L77.5456 108.913L77.8971 109.226C90.6668 120.121 109.47 120.102 122.22 109.187L122.396 109.031V109.031ZM122.591 65.5863C116.987 65.5863 110.29 66.3478 102.519 67.8512C101.972 68.0074 101.132 68.1051 100 68.1051C98.887 68.1051 98.0279 68.027 97.4812 67.8512C89.7296 66.3282 83.0323 65.5863 77.409 65.5863C71.8637 65.5863 68.2905 65.801 66.709 66.2111C66.4747 64.6295 66.3575 63.0675 66.3575 61.525C66.3575 61.3687 66.3575 60.8611 66.4551 59.9434C76.4132 61.4664 86.5469 62.3255 96.7978 62.4622C97.8327 62.4817 98.8675 62.4817 99.9024 62.4817C111.11 62.4817 122.396 61.6031 133.467 59.9239C133.584 62.0326 133.486 64.1218 133.193 66.1916C131.553 65.7815 128.019 65.5863 122.591 65.5863V65.5863ZM47.4959 187.445C41.0524 187.445 36.2491 185.864 32.7931 182.583C31.2311 181.099 30.0791 179.381 29.2785 177.311C28.3804 174.968 27.9117 172.098 27.9117 168.837C27.9117 164.307 28.0875 159.856 28.3999 155.618C28.7123 151.616 29.3957 147.086 30.4305 142.165C31.4459 137.421 32.715 133.184 34.238 129.571C35.5853 126.35 37.5183 123.226 39.959 120.297C42.0678 117.778 44.3913 115.904 47.0858 114.595L57.5906 109.46L53.1583 98.6235L49.3898 89.3879H56.8291L57.8444 92.0824L93.3223 186.059L93.8495 187.445H47.4959V187.445ZM170.721 177.331C169.94 179.381 168.788 181.099 167.246 182.564H167.226C163.77 185.844 158.967 187.426 152.524 187.426H106.151L106.678 186.039L142.136 92.1019L143.171 89.3879H151.313L147.564 99.6583L143.815 109.929L153.48 115.005C156.761 116.724 159.533 119.242 161.974 122.718C164.669 126.564 166.68 130.997 167.968 135.937V135.976C169.452 141.619 170.526 147.144 171.132 152.416V152.533C171.756 157.532 172.049 162.882 172.049 168.876C172.088 172.118 171.62 174.988 170.721 177.331V177.331Z" fill="white"/>
</svg>
