<svg width="76" height="76" viewBox="0 0 76 76" fill="none" xmlns="http://www.w3.org/2000/svg">
<path d="M69.7562 57.369C69.5039 55.195 69.0737 52.8953 68.4281 50.4541C67.7977 48.0278 66.796 45.8314 65.4455 43.9026C64.0877 41.9733 62.4552 40.5042 60.5412 39.4949L64.288 29.2188H54.5087C55.3249 26.8074 55.6293 24.3812 55.4214 21.9104C56.5565 21.6804 57.573 21.4356 58.4934 21.1833C61.617 20.33 63.4793 19.3654 64.0729 18.2896C64.2139 18.0373 64.2804 17.7851 64.2804 17.5254C64.2804 15.7891 61.0899 14.2829 54.6941 12.9993C54.175 11.1147 53.3884 9.07431 52.3423 6.88551C51.2962 4.69671 50.2204 2.96049 49.1222 1.6843C48.1501 0.571343 46.9851 0.00744629 45.6497 0.00744629C44.737 0.00744629 43.4609 0.474888 41.8212 1.41719C40.1815 2.35949 38.8979 2.82693 37.9926 2.82693C37.0874 2.82693 35.8037 2.35949 34.164 1.41719C32.5242 0.474888 31.2481 0.00744629 30.3354 0.00744629C28.9999 0.00744629 27.8424 0.571343 26.8704 1.69914C25.7723 2.97533 24.6964 4.71153 23.6577 6.90033C22.6115 9.08917 21.825 11.1296 21.3057 13.0142C14.9173 14.2904 11.7194 15.7966 11.7194 17.5402C11.7194 17.8221 11.801 18.0892 11.9568 18.3564C12.5875 19.4174 14.4869 20.3745 17.6552 21.2352C18.5307 21.4726 19.5027 21.7027 20.5785 21.9252C20.5117 22.5336 20.482 23.0233 20.482 23.3869C20.482 25.3383 20.816 27.2823 21.4911 29.2337H11.6971L15.8076 39.2875C14.1976 40.0737 12.7656 41.2091 11.5339 42.6854C10.3022 44.1621 9.33767 45.7425 8.63281 47.4119C7.92791 49.0812 7.36403 50.966 6.92627 53.0511C6.4811 55.1357 6.19914 57.0426 6.06557 58.7864C5.93204 60.5226 5.86523 62.3181 5.86523 64.1729C5.86523 67.8532 6.97822 70.7393 9.19669 72.8468C11.4152 74.9463 14.3608 76 18.0484 76H57.9515C61.6318 76 64.5848 74.9539 66.8032 72.8468C69.0216 70.7541 70.1347 67.8604 70.1347 64.1729C70.1423 61.8135 70.0233 59.5506 69.7562 57.369ZM25.0971 17.095L25.8688 14.2681C26.3065 12.6803 26.9965 10.8922 27.924 8.94078C28.7698 7.17488 29.6009 5.7948 30.4096 4.83769C30.6767 4.94154 31.1293 5.14929 31.7897 5.52769C34.2159 6.9226 36.1896 7.5681 37.9851 7.5681C39.7806 7.5681 41.7468 6.9226 44.1807 5.52769C44.8483 5.14929 45.2937 4.94154 45.5608 4.83769C46.3695 5.7948 47.2005 7.17488 48.0464 8.94078C48.9736 10.8773 49.6637 12.6655 50.109 14.2681L50.888 17.0876L53.0841 17.5254C47.7793 18.5567 42.2811 19.0538 36.8425 18.9722C32.1013 18.9054 27.4269 18.4231 22.8712 17.5254L25.0971 17.095ZM47.9203 33.9748L44.1066 37.2395C40.5893 40.2519 35.4031 40.2519 31.8862 37.2395L28.0724 33.9748H28.1318L27.0782 30.9253C27.093 30.9476 27.1004 30.9699 27.1153 30.9847C27.1895 31.1109 27.323 31.3186 27.5308 31.6302C27.7311 31.9344 27.9166 32.1422 28.0798 32.2461C28.2431 32.3499 28.4657 32.4983 28.7253 32.6764C28.985 32.8545 29.2521 32.9806 29.5192 33.04C29.8012 33.0993 30.1054 33.1661 30.4541 33.2254C30.8028 33.2848 31.1738 33.3219 31.5671 33.3219C32.6652 33.3219 33.563 33.129 34.2679 32.758C34.9727 32.3722 35.4624 31.9196 35.7592 31.3854C36.0486 30.8586 36.2712 30.3318 36.4196 29.8124C36.5754 29.293 36.746 28.8404 36.9464 28.4694C37.1467 28.0836 37.4064 27.9055 37.7477 27.9055H38.2967C38.6308 27.9055 38.9051 28.0984 39.0906 28.4694C39.2908 28.8552 39.4618 29.293 39.6176 29.8124C39.7734 30.3318 39.9885 30.8586 40.2777 31.3854C40.5673 31.9122 41.0643 32.3722 41.7692 32.758C42.4741 33.1438 43.3644 33.3219 44.4698 33.3219C44.8631 33.3219 45.2416 33.2922 45.5829 33.2254C45.9317 33.1661 46.2433 33.0993 46.5105 33.04C46.7924 32.9806 47.0519 32.8545 47.3043 32.6764C47.5638 32.4909 47.7717 32.3499 47.9499 32.2461C48.1129 32.1422 48.2983 31.9418 48.499 31.6302C48.6768 31.3557 48.803 31.1628 48.8847 31.0366L47.8906 33.9748H47.9203ZM46.5105 41.4318L38 63.9802L29.4673 41.387L29.6009 41.5059C34.4534 45.646 41.5986 45.6388 46.4436 41.4911L46.5105 41.4318ZM46.5846 24.9228C44.455 24.9228 41.9102 25.2122 38.9572 25.7835C38.7493 25.8428 38.4301 25.88 38 25.88C37.577 25.88 37.2506 25.8503 37.0428 25.7835C34.0972 25.2047 31.5522 24.9228 29.4154 24.9228C27.3082 24.9228 25.9504 25.0044 25.3494 25.1602C25.2604 24.5592 25.2158 23.9657 25.2158 23.3795C25.2158 23.3201 25.2158 23.1272 25.2529 22.7785C29.037 23.3573 32.8878 23.6837 36.7831 23.7357C37.1764 23.7431 37.5696 23.7431 37.9629 23.7431C42.2218 23.7431 46.5104 23.4092 50.7174 22.7711C50.7619 23.5724 50.7246 24.3663 50.6133 25.1528C49.9901 24.997 48.6472 24.9228 46.5846 24.9228ZM18.0484 71.2291C15.5999 71.2291 13.7746 70.6283 12.4613 69.3816C11.8678 68.8176 11.43 68.1648 11.1258 67.3782C10.7845 66.4879 10.6064 65.3973 10.6064 64.1581C10.6064 62.4367 10.6732 60.7453 10.7919 59.1349C10.9106 57.6141 11.1703 55.8927 11.5636 54.0227C11.9494 52.22 12.4317 50.6099 13.0104 49.237C13.5224 48.013 14.2569 46.8259 15.1844 45.7129C15.9857 44.7557 16.8687 44.0435 17.8926 43.5461L21.8844 41.5948L20.2001 37.477L18.7681 33.9674H21.595L21.9808 34.9913L35.4624 70.7024L35.6628 71.2291H18.0484ZM64.8739 67.3858C64.5772 68.1648 64.1394 68.8176 63.5534 69.3743H63.5458C62.2326 70.6207 60.4074 71.2219 57.9591 71.2219H40.3374L40.5376 70.6948L54.0116 34.9987L54.405 33.9674H57.4989L56.0743 37.8702L54.6497 41.773L58.3224 43.7019C59.5691 44.3551 60.6225 45.312 61.5501 46.6329C62.5742 48.0943 63.3384 49.7789 63.8278 51.6561V51.6709C64.3917 53.8152 64.7998 55.9147 65.0301 57.9181V57.9626C65.2672 59.8622 65.3786 61.8952 65.3786 64.1729C65.3934 65.4049 65.2156 66.4955 64.8739 67.3858Z" fill="#47505B"/>
</svg>
