<svg width="30" height="30" viewBox="0 0 30 30" fill="none" xmlns="http://www.w3.org/2000/svg">
<rect width="30" height="30" fill="white" fill-opacity="0.01"/>
<path d="M10.788 24.5191C7.81656 23.1197 5.69018 20.2299 5.36305 16.8132H4C4.46344 22.4109 9.14329 26.809 14.8591 26.809L15.4588 26.7818L11.9967 23.3196L10.788 24.5191ZM11.5968 18.5943C11.4241 18.5943 11.2606 18.567 11.1243 18.5216C10.9789 18.4671 10.8607 18.4034 10.7608 18.3035C10.6608 18.2126 10.579 18.1036 10.5245 17.9673C10.47 17.84 10.4427 17.6946 10.4427 17.5402H9.26141C9.26141 17.8673 9.32502 18.1581 9.45223 18.4034C9.57944 18.6488 9.7521 18.8578 9.96111 19.0304C10.1792 19.194 10.4245 19.3212 10.7063 19.403C10.9789 19.4939 11.2696 19.5393 11.5786 19.5393C11.9148 19.5393 12.2329 19.4939 12.5146 19.403C12.8054 19.3121 13.0598 19.1758 13.2688 19.0032C13.4778 18.8305 13.6505 18.6124 13.7686 18.3489C13.8867 18.0854 13.9504 17.7946 13.9504 17.4674C13.9504 17.2948 13.9322 17.1221 13.8867 16.9586C13.8413 16.795 13.7777 16.6405 13.6777 16.4951C13.5869 16.3497 13.4597 16.2225 13.3143 16.1044C13.1598 15.9863 12.978 15.8954 12.7599 15.8227C12.9417 15.7409 13.0962 15.6409 13.2325 15.5228C13.3688 15.4047 13.4778 15.2775 13.5687 15.1411C13.6596 15.0048 13.7232 14.8685 13.7686 14.7231C13.814 14.5777 13.8322 14.4324 13.8322 14.287C13.8322 13.9598 13.7777 13.669 13.6686 13.4146C13.5596 13.1602 13.4051 12.9512 13.2052 12.7876C13.0235 12.6149 12.7781 12.4877 12.5055 12.3969C12.2238 12.3151 11.9149 12.2696 11.5786 12.2696C11.2515 12.2696 10.9516 12.3151 10.6699 12.415C10.3973 12.515 10.152 12.6513 9.95204 12.824C9.76122 12.9966 9.60672 13.1965 9.4886 13.4328C9.37955 13.6691 9.32504 13.9235 9.32504 14.2052H10.5064C10.5064 14.0507 10.5336 13.9144 10.5882 13.7963C10.6427 13.6782 10.7154 13.5691 10.8153 13.4873C10.9153 13.4055 11.0243 13.3328 11.1606 13.2874C11.297 13.242 11.4333 13.2147 11.5968 13.2147C11.9603 13.2147 12.2329 13.3056 12.4056 13.4964C12.5782 13.6782 12.6691 13.9417 12.6691 14.2779C12.6691 14.4415 12.6418 14.5869 12.5964 14.7232C12.551 14.8595 12.4692 14.9685 12.3692 15.0594C12.2693 15.1503 12.1421 15.223 11.9967 15.2775C11.8513 15.332 11.6695 15.3593 11.4696 15.3593H10.7699V16.2953H11.4696C11.6695 16.2953 11.8513 16.3134 12.0148 16.3589C12.1784 16.4043 12.3147 16.477 12.4238 16.5679C12.5328 16.6678 12.6237 16.786 12.6873 16.9314C12.7509 17.0768 12.7781 17.2494 12.7781 17.4493C12.7781 17.8219 12.6691 18.1036 12.4601 18.2944C12.2511 18.5034 11.9603 18.5943 11.5968 18.5943ZM19.3663 13.2147C19.0755 12.9149 18.7302 12.6786 18.3303 12.515C17.9396 12.3515 17.4943 12.2697 17.0036 12.2697H14.8591V19.5393H16.9491C17.4489 19.5393 17.9123 19.4575 18.3212 19.294C18.7302 19.1304 19.0845 18.9032 19.3754 18.6034C19.6661 18.3035 19.8933 17.94 20.0478 17.522C20.2023 17.0949 20.2841 16.6224 20.2841 16.0953V15.7318C20.2841 15.2048 20.2023 14.7323 20.0478 14.3052C19.8842 13.8781 19.6571 13.5146 19.3663 13.2147ZM19.0119 16.0863C19.0119 16.4679 18.9664 16.8041 18.8847 17.1131C18.7938 17.413 18.6666 17.6765 18.4939 17.8855C18.3213 18.0945 18.1032 18.2581 17.8487 18.3671C17.5852 18.4762 17.2853 18.5307 16.9491 18.5307H16.1222V13.2874H17.0037C17.6579 13.2874 18.1577 13.4964 18.4939 13.9144C18.8393 14.3324 19.0119 14.9322 19.0119 15.7228V16.0863H19.0119ZM14.8591 5L14.2593 5.02726L17.7215 8.48943L18.9301 7.28085C21.9016 8.68935 24.0279 11.57 24.346 14.9867H25.709C25.2547 9.39814 20.5749 5 14.8591 5Z" fill="#5E5E5E"/>
</svg>
