<svg width="30" height="30" viewBox="0 0 30 30" fill="none" xmlns="http://www.w3.org/2000/svg">
<rect width="30" height="30" fill="white" fill-opacity="0.01"/>
<path d="M22.7734 21.5503C24.2505 19.7974 25.1416 17.5366 25.1416 15.0708C25.1416 9.51904 20.6226 5 15.0708 5C9.51904 5 5 9.51904 5 15.0708C5 20.6226 9.51904 25.1416 15.0708 25.1416C18.0249 25.1416 20.686 23.8623 22.5293 21.8311L22.5952 21.8677L22.7734 21.5503ZM15.0708 11.3892C15.7715 11.3892 16.4673 11.3452 17.1558 11.2598C17.4023 12.4194 17.5464 13.6304 17.5757 14.8706H12.7148C12.7441 13.6377 12.8857 12.4316 13.1299 11.2769C13.7695 11.3525 14.4189 11.3892 15.0708 11.3892ZM13.3594 10.3198C13.772 8.79639 14.3726 7.38037 15.144 6.13525C15.9131 7.37549 16.5112 8.78418 16.9238 10.3027C16.311 10.3735 15.6934 10.4102 15.0708 10.4102C14.4946 10.4102 13.9258 10.3809 13.3594 10.3198ZM18.5547 14.8706C18.5254 13.584 18.3789 12.3218 18.125 11.1108C19.6216 10.835 21.062 10.3564 22.395 9.6875C23.4692 11.145 24.1211 12.9346 24.1626 14.8706H18.5547ZM11.7358 14.8706H5.98145C6.02295 12.9346 6.6748 11.145 7.74902 9.6875C9.12598 10.3784 10.6128 10.8667 12.1606 11.1377C11.9067 12.3389 11.7651 13.5913 11.7358 14.8706V14.8706ZM11.7358 15.8496C11.7627 16.9922 11.8823 18.1201 12.0898 19.2139C10.6079 19.48 9.17969 19.9463 7.85645 20.5981C6.82861 19.2603 6.16455 17.627 6.01318 15.8521H11.7358V15.8496ZM12.7148 15.8496H17.5757C17.5488 16.9507 17.4316 18.0371 17.229 19.0845C16.5186 18.9941 15.7983 18.9453 15.0708 18.9453C14.3945 18.9453 13.7231 18.9868 13.0591 19.0649C12.8564 18.0249 12.7417 16.9458 12.7148 15.8496V15.8496ZM18.5547 15.8496H24.1284C23.9771 17.6245 23.313 19.2578 22.2852 20.5957C21.0034 19.9658 19.6265 19.5093 18.1958 19.2383C18.4058 18.1396 18.5278 17.002 18.5547 15.8496V15.8496ZM21.7529 8.91113C20.5444 9.49463 19.2456 9.91211 17.8979 10.1563C17.5073 8.6792 16.9482 7.29248 16.2354 6.05225C18.4058 6.33301 20.3394 7.37793 21.7529 8.91113ZM14.0649 6.03516C13.3423 7.29004 12.7759 8.68896 12.3828 10.1831C10.9839 9.94385 9.63867 9.5166 8.38623 8.91113C9.83643 7.34131 11.8311 6.28174 14.0649 6.03516V6.03516ZM8.51562 21.3647C9.70459 20.8057 10.9766 20.4053 12.2949 20.1709C12.6318 21.5576 13.1128 22.8711 13.7256 24.0625C11.6943 23.7598 9.87793 22.7832 8.51562 21.3647V21.3647ZM14.8926 24.1602C14.1846 22.9224 13.6401 21.521 13.269 20.0293C13.8647 19.9609 14.4653 19.9268 15.0708 19.9268C15.7251 19.9268 16.377 19.9658 17.0166 20.0464C16.6479 21.5308 16.1011 22.9248 15.3979 24.1577C15.2881 24.1626 15.1807 24.1626 15.0708 24.1626C15.0122 24.1626 14.9512 24.1626 14.8926 24.1602V24.1602ZM16.5747 24.0381C17.1777 22.8589 17.6538 21.5625 17.9883 20.1953C19.2578 20.4321 20.481 20.8252 21.626 21.3647C20.3003 22.7441 18.5425 23.7085 16.5747 24.0381Z" fill="#5E5E5E"/>
</svg>
