<svg width="30" height="30" viewBox="0 0 30 30" fill="none" xmlns="http://www.w3.org/2000/svg">
<rect width="30" height="30" fill="white" fill-opacity="0.01"/>
<path d="M23.5312 10.05H18.9375V8.08359C18.9375 6.99844 18.0539 6.11719 16.9688 6.11719H6.46875C5.38359 6.11719 4.5 6.99844 4.5 8.08359V15.9516C4.5 17.0367 5.38359 17.918 6.46875 17.918H7.125V21.2484L11.2922 17.918H13.6875V18.5742C13.6875 19.6594 14.5711 20.5406 15.6562 20.5406H17.4352L21.5625 23.8828V20.5406H23.5312C24.6164 20.5406 25.5 19.6594 25.5 18.5742V12.0187C25.5 10.9336 24.6164 10.05 23.5312 10.05ZM13.6875 12.0187V16.6078H10.8328L8.4375 18.5203V16.6055H6.46875C6.10781 16.6055 5.8125 16.3125 5.8125 15.9492V8.08359C5.8125 7.72266 6.10781 7.42734 6.46875 7.42734H16.9688C17.3297 7.42734 17.625 7.72031 17.625 8.08359V10.05H15.6562C14.5711 10.05 13.6875 10.9336 13.6875 12.0187ZM24.1875 18.5742C24.1875 18.9352 23.8922 19.2305 23.5312 19.2305H20.25V21.1336L17.8969 19.2305H15.6562C15.2953 19.2305 15 18.9352 15 18.5742V12.0187C15 11.6578 15.2953 11.3625 15.6562 11.3625H23.5312C23.8922 11.3625 24.1875 11.6555 24.1875 12.0187V18.5742Z" fill="#5E5E5E"/>
</svg>
