<svg width="30" height="30" viewBox="0 0 30 30" fill="none" xmlns="http://www.w3.org/2000/svg">
<rect width="30" height="30" fill="white" fill-opacity="0.01"/>
<path d="M11.5 9C15.09 9 18 11.91 18 15.5C18 19.088 15.09 22 11.5 22C7.91 22 5 19.088 5 15.5C5 11.91 7.91 9 11.5 9ZM11.5 8C7.364 8 4 11.364 4 15.5C4 19.636 7.364 23 11.5 23C15.636 23 19 19.636 19 15.5C19 11.364 15.636 8 11.5 8Z" fill="#5E5E5E"/>
<path d="M18.5 9C22.09 9 25 11.91 25 15.5C25 19.088 22.09 22 18.5 22C14.909 22 12 19.088 12 15.5C12 11.91 14.909 9 18.5 9ZM18.5 8C14.364 8 11 11.364 11 15.5C11 19.636 14.364 23 18.5 23C22.636 23 26 19.636 26 15.5C26 11.364 22.636 8 18.5 8Z" fill="#5E5E5E"/>
<path d="M12 15.4998C12 17.7988 13.197 19.8148 15 20.9708C16.803 19.8158 18 17.7988 18 15.4998C18 13.1998 16.803 11.1838 15 10.0278C13.197 11.1838 12 13.1998 12 15.4998Z" fill="#5E5E5E"/>
</svg>
