<svg width="180" height="19" viewBox="0 0 180 19" fill="none" xmlns="http://www.w3.org/2000/svg">
<path d="M4.66196 8.71803L6.94796 7.69203L7.03796 7.92603L4.66196 9.49203V15.63C4.66196 16.146 4.60796 16.512 4.49996 16.728C4.40396 16.956 4.15796 17.202 3.76196 17.466C3.37796 17.742 3.14396 17.88 3.05996 17.88C2.92796 17.88 2.84996 17.778 2.82596 17.574C2.76596 17.178 2.58596 16.878 2.28596 16.674C1.99796 16.47 1.57196 16.308 1.00796 16.188L1.09796 15.918C1.82996 16.014 2.35196 16.062 2.66396 16.062C2.97596 16.062 3.19796 16.032 3.32996 15.972C3.46196 15.912 3.52796 15.786 3.52796 15.594V10.248C2.83196 10.692 2.36396 11.004 2.12396 11.184C1.89596 11.364 1.73396 11.52 1.63796 11.652C1.54196 11.784 1.46996 11.85 1.42196 11.85C1.37396 11.85 1.30796 11.796 1.22396 11.688L0.485962 10.59L3.52796 9.24003V6.07203H2.42996C1.92596 6.07203 1.51796 6.13803 1.20596 6.27003L0.557962 5.47803C1.01396 5.55003 1.51796 5.58603 2.06996 5.58603H3.52796C3.52796 3.37803 3.49796 1.89003 3.43796 1.12203L5.16596 1.91403C5.33396 1.97403 5.41796 2.05203 5.41796 2.14803C5.41796 2.23203 5.33396 2.32203 5.16596 2.41803L4.66196 2.68803V5.58603H5.30996L6.04796 4.68603L6.85796 5.67603C6.95396 5.79603 7.00196 5.89203 7.00196 5.96403C7.00196 6.03603 6.92396 6.07203 6.76796 6.07203H4.66196V8.71803ZM8.29796 2.77803H15.228L15.93 1.98603L17.028 3.13803C17.172 3.28203 17.244 3.40803 17.244 3.51603C17.244 3.61203 17.136 3.66003 16.92 3.66003C16.452 3.67203 16.11 3.76203 15.894 3.93003C15.69 4.09803 15.354 4.56603 14.886 5.33403L14.634 5.24403L15.282 3.26403H8.36996C8.39396 3.52803 8.40596 3.75003 8.40596 3.93003C8.40596 4.41003 8.28596 4.76403 8.04596 4.99203C7.80596 5.20803 7.58996 5.31603 7.39796 5.31603C7.21796 5.31603 7.08596 5.26803 7.00196 5.17203C6.91796 5.06403 6.87596 4.93203 6.87596 4.77603C6.87596 4.60803 6.98996 4.39203 7.21796 4.12803C7.63796 3.58803 7.87796 2.90403 7.93796 2.07603L8.18996 2.05803C8.24996 2.33403 8.28596 2.57403 8.29796 2.77803ZM10.944 5.19003C11.076 5.26203 11.142 5.34003 11.142 5.42403C11.142 5.49603 11.052 5.55603 10.872 5.60403C10.704 5.65203 10.578 5.70603 10.494 5.76603C10.41 5.81403 10.128 6.12003 9.64796 6.68403C9.17996 7.23603 8.73596 7.69803 8.31596 8.07003C7.89596 8.43003 7.33796 8.85603 6.64196 9.34803L6.47996 9.20403C7.04396 8.56803 7.64396 7.77603 8.27996 6.82803C8.91596 5.86803 9.36596 5.08203 9.62996 4.47003L10.944 5.19003ZM12.168 4.50603C13.164 4.93803 13.962 5.32203 14.562 5.65803C15.174 5.98203 15.582 6.25803 15.786 6.48603C15.99 6.70203 16.092 6.93603 16.092 7.18803C16.092 7.44003 16.032 7.68603 15.912 7.92603C15.804 8.16603 15.666 8.28603 15.498 8.28603C15.33 8.28603 15.192 8.18403 15.084 7.98003C14.472 6.70803 13.458 5.63403 12.042 4.75803L12.168 4.50603ZM10.728 10.392C9.92396 12.12 9.07796 13.482 8.18996 14.478C7.31396 15.462 6.19796 16.32 4.84196 17.052L4.73396 16.818C6.65396 15.306 8.20796 13.164 9.39596 10.392H7.61396C7.12196 10.392 6.71396 10.452 6.38996 10.572L5.75996 9.83403C6.21596 9.90603 6.71396 9.94203 7.25396 9.94203H10.728C10.728 8.59803 10.71 7.63203 10.674 7.04403L12.204 7.62003C12.336 7.66803 12.402 7.72803 12.402 7.80003C12.402 7.86003 12.354 7.93203 12.258 8.01603L11.898 8.28603V9.94203H15.192L16.164 8.77203L17.244 10.068C17.34 10.176 17.388 10.26 17.388 10.32C17.388 10.368 17.304 10.392 17.136 10.392H12.762C14.13 12.936 15.714 14.454 17.514 14.946L17.478 15.216C16.89 15.324 16.506 15.594 16.326 16.026C16.278 16.134 16.2 16.188 16.092 16.188C15.852 16.188 15.288 15.678 14.4 14.658C13.512 13.626 12.84 12.204 12.384 10.392H11.898V14.964C11.898 15.816 11.904 16.404 11.916 16.728C11.94 17.052 11.952 17.22 11.952 17.232C11.952 17.388 11.79 17.544 11.466 17.7C11.142 17.856 10.926 17.934 10.818 17.934C10.722 17.934 10.674 17.808 10.674 17.556L10.71 16.674C10.722 16.338 10.728 15.756 10.728 14.928V10.392Z" fill="#3D3D3D"/>
<path d="M27.486 4.11003V6.05403H33.138L33.876 5.22603L35.082 6.55803C35.238 6.72603 35.316 6.84603 35.316 6.91803C35.316 6.99003 35.184 7.02603 34.92 7.02603C34.212 7.02603 33.408 7.53003 32.508 8.53803L32.328 8.41203L33.228 6.55803H26.532L27.162 6.95403C27.33 7.07403 27.414 7.17003 27.414 7.24203C27.414 7.31403 27.27 7.38003 26.982 7.44003C26.694 7.50003 26.34 7.65603 25.92 7.90803C25.512 8.14803 24.84 8.62203 23.904 9.33003L27.684 9.25803C28.308 8.77803 28.968 8.19603 29.664 7.51203L30.672 8.41203C30.78 8.52003 30.834 8.61603 30.834 8.70003C30.834 8.78403 30.702 8.83803 30.438 8.86203C30.102 8.88603 29.592 9.12603 28.908 9.58203C26.82 10.914 25.194 11.76 24.03 12.12L30.528 11.904C30.168 11.364 29.664 10.842 29.016 10.338L29.232 10.086C30.192 10.518 30.948 10.932 31.5 11.328C32.064 11.712 32.346 12.072 32.346 12.408C32.346 12.744 32.286 13.008 32.166 13.2C32.058 13.392 31.926 13.488 31.77 13.488C31.614 13.488 31.464 13.434 31.32 13.326C31.188 13.218 31.092 13.086 31.032 12.93C30.984 12.762 30.918 12.594 30.834 12.426L27.756 12.642V15.774C27.756 16.374 27.666 16.806 27.486 17.07C27.306 17.334 27.03 17.556 26.658 17.736C26.286 17.928 26.046 18.024 25.938 18.024C25.842 18.024 25.776 17.934 25.74 17.754C25.668 17.382 25.524 17.124 25.308 16.98C25.092 16.836 24.576 16.68 23.76 16.512L23.796 16.188C24.432 16.248 24.96 16.278 25.38 16.278C25.8 16.278 26.088 16.23 26.244 16.134C26.4 16.05 26.478 15.888 26.478 15.648V12.732C23.826 12.924 22.356 13.086 22.068 13.218C21.972 13.254 21.882 13.272 21.798 13.272C21.726 13.272 21.672 13.224 21.636 13.128L21.312 12.156C21.684 12.132 22.128 12.078 22.644 11.994C23.172 11.898 23.856 11.622 24.696 11.166C25.548 10.71 26.274 10.266 26.874 9.83403C24.342 10.062 22.98 10.23 22.788 10.338C22.668 10.398 22.572 10.428 22.5 10.428C22.44 10.428 22.392 10.368 22.356 10.248L22.068 9.31203C22.452 9.28803 22.758 9.21603 22.986 9.09603C23.226 8.96403 23.628 8.65203 24.192 8.16003C24.756 7.65603 25.266 7.12203 25.722 6.55803H20.916C20.964 6.81003 20.988 7.05003 20.988 7.27803C20.988 7.77003 20.862 8.19003 20.61 8.53803C20.37 8.88603 20.04 9.06003 19.62 9.06003C19.416 9.06003 19.26 9.00603 19.152 8.89803C19.044 8.79003 18.99 8.67003 18.99 8.53803C18.99 8.39403 19.056 8.24403 19.188 8.08803C19.584 7.62003 19.86 7.21803 20.016 6.88203C20.184 6.53403 20.268 6.22803 20.268 5.96403C20.268 5.70003 20.256 5.47803 20.232 5.29803H20.592C20.652 5.46603 20.724 5.71803 20.808 6.05403H26.244V4.11003H22.626C22.086 4.11003 21.678 4.16403 21.402 4.27203L20.736 3.49803C21.192 3.57003 21.69 3.60603 22.23 3.60603H26.244C26.244 2.74203 26.22 1.91403 26.172 1.12203L27.792 1.69803C27.948 1.74603 28.026 1.80603 28.026 1.87803C28.026 1.93803 27.966 2.00403 27.846 2.07603L27.486 2.31003V3.60603H30.564L31.59 2.38203L32.796 3.78603C32.868 3.88203 32.904 3.96003 32.904 4.02003C32.904 4.08003 32.82 4.11003 32.652 4.11003H27.486ZM24.552 14.064C24.708 14.208 24.786 14.31 24.786 14.37C24.786 14.43 24.714 14.472 24.57 14.496C24.426 14.52 24.306 14.556 24.21 14.604C24.126 14.64 23.604 14.988 22.644 15.648C21.684 16.308 20.436 16.938 18.9 17.538L18.684 17.286C20.58 16.29 22.248 14.952 23.688 13.272L24.552 14.064ZM29.07 13.38C31.962 14.376 33.408 15.294 33.408 16.134C33.408 16.362 33.33 16.572 33.174 16.764C33.03 16.956 32.88 17.052 32.724 17.052C32.568 17.052 32.382 16.914 32.166 16.638C31.602 15.894 31.098 15.324 30.654 14.928C30.21 14.52 29.634 14.088 28.926 13.632L29.07 13.38Z" fill="#3D3D3D"/>
<path d="M44.982 8.59203C45.294 8.59203 45.552 8.69403 45.756 8.89803C45.972 9.09003 46.08 9.34203 46.08 9.65403C46.08 9.95403 45.978 10.206 45.774 10.41C45.57 10.614 45.312 10.716 45 10.716C44.688 10.716 44.43 10.608 44.226 10.392C44.034 10.176 43.938 9.93003 43.938 9.65403C43.938 9.35403 44.04 9.10203 44.244 8.89803C44.46 8.69403 44.706 8.59203 44.982 8.59203Z" fill="#3D3D3D"/>
<path d="M64.278 14.856C62.61 16.452 59.922 17.388 56.214 17.664L56.16 17.358C59.196 16.962 61.632 15.84 63.468 13.992C62.328 12.684 61.578 11.31 61.218 9.87003H61.11C60.474 11.334 59.7 12.576 58.788 13.596C57.876 14.616 56.592 15.624 54.936 16.62L54.738 16.35C56.274 15.21 57.54 13.896 58.536 12.408C59.532 10.92 60.33 9.12003 60.93 7.00803H57.87L57.366 7.54803C57.306 7.60803 57.252 7.63803 57.204 7.63803C57.168 7.63803 57.126 7.62003 57.078 7.58403L55.98 6.63003C56.472 6.31803 56.82 5.79603 57.024 5.06403L57.762 2.40003L59.256 3.39003C59.352 3.45003 59.4 3.50403 59.4 3.55203C59.4 3.58803 59.352 3.62403 59.256 3.66003L58.77 3.87603L57.69 6.48603H61.074C61.518 4.91403 61.89 3.07803 62.19 0.978027L64.062 1.96803C64.17 2.01603 64.224 2.06403 64.224 2.11203C64.224 2.16003 64.17 2.20203 64.062 2.23803C63.678 2.38203 63.408 2.76603 63.252 3.39003C63.096 4.01403 62.796 5.04603 62.352 6.48603H68.508L69.39 5.26203L70.668 6.57603C70.812 6.72003 70.884 6.82803 70.884 6.90003C70.884 6.97203 70.77 7.00803 70.542 7.00803H62.19C61.95 7.78803 61.668 8.56203 61.344 9.33003H66.15L66.762 8.61003L68.166 9.94203C68.262 10.002 68.31 10.062 68.31 10.122C68.31 10.17 68.232 10.206 68.076 10.23C67.74 10.29 67.464 10.494 67.248 10.842C66.396 12.33 65.646 13.428 64.998 14.136C65.838 14.664 66.828 15.078 67.968 15.378C69.12 15.678 70.212 15.822 71.244 15.81L71.262 16.152C70.878 16.224 70.572 16.32 70.344 16.44C70.128 16.56 69.966 16.776 69.858 17.088C69.822 17.22 69.756 17.286 69.66 17.286C69.456 17.286 68.706 17.046 67.41 16.566C66.114 16.098 65.07 15.528 64.278 14.856ZM64.026 13.38C64.866 12.396 65.562 11.226 66.114 9.87003H61.758C62.19 11.142 62.946 12.312 64.026 13.38ZM65.772 2.11203C66.684 2.43603 67.35 2.71803 67.77 2.95803C68.202 3.18603 68.484 3.40203 68.616 3.60603C68.748 3.81003 68.814 4.05003 68.814 4.32603C68.814 4.59003 68.736 4.83003 68.58 5.04603C68.424 5.25003 68.226 5.35203 67.986 5.35203C67.758 5.35203 67.584 5.20203 67.464 4.90203C67.068 3.84603 66.468 3.00603 65.664 2.38203L65.772 2.11203Z" fill="#3D3D3D"/>
<path d="M81.684 2.63403H86.202L86.832 1.78803L88.074 2.74203C88.206 2.83803 88.272 2.94003 88.272 3.04803C88.272 3.15603 88.218 3.24603 88.11 3.31803L87.588 3.62403V7.69203C87.588 8.22003 87.612 8.74803 87.66 9.27603L87.75 10.518C87.75 10.698 87.558 10.884 87.174 11.076C86.802 11.268 86.58 11.364 86.508 11.364C86.436 11.364 86.4 11.28 86.4 11.112V3.13803H81.396V10.878C81.396 11.058 81.36 11.19 81.288 11.274C81.216 11.358 81.036 11.466 80.748 11.598C80.472 11.718 80.28 11.778 80.172 11.778C80.064 11.778 80.01 11.712 80.01 11.58C80.01 11.436 80.016 11.292 80.028 11.148C80.16 10.164 80.226 9.08403 80.226 7.90803V3.98403C80.226 3.09603 80.208 2.35803 80.172 1.77003L81.684 2.63403ZM75.726 3.93003H74.61C74.106 3.93003 73.698 3.99003 73.386 4.11003L72.738 3.33603C73.194 3.40803 73.698 3.44403 74.25 3.44403H77.814L78.642 2.45403L79.524 3.51603C79.632 3.63603 79.686 3.73803 79.686 3.82203C79.686 3.89403 79.608 3.93003 79.452 3.93003H76.932V8.08803H77.832L78.624 7.15203L79.506 8.17803C79.602 8.29803 79.65 8.39403 79.65 8.46603C79.65 8.53803 79.56 8.57403 79.38 8.57403H76.932V12.84L79.722 12.012L79.812 12.264L76.032 14.064C74.844 14.628 74.076 15.054 73.728 15.342C73.644 15.402 73.578 15.432 73.53 15.432C73.482 15.432 73.434 15.396 73.386 15.324L72.558 14.172L75.726 13.218V8.57403H74.862C74.358 8.57403 73.95 8.64003 73.638 8.77203L72.99 7.98003C73.446 8.05203 73.95 8.08803 74.502 8.08803H75.726V3.93003ZM83.178 4.09203L84.582 4.75803C84.75 4.85403 84.834 4.94403 84.834 5.02803C84.834 5.10003 84.78 5.17803 84.672 5.26203C84.564 5.33403 84.492 5.42403 84.456 5.53203C84.42 5.64003 84.384 5.86803 84.348 6.21603C84.132 8.61603 83.91 10.26 83.682 11.148C83.454 12.024 83.076 12.876 82.548 13.704C82.02 14.52 81.312 15.24 80.424 15.864C79.548 16.488 78.306 17.124 76.698 17.772L76.536 17.52C78.624 16.452 80.106 15.36 80.982 14.244C81.858 13.128 82.428 11.946 82.692 10.698C82.968 9.43803 83.13 7.23603 83.178 4.09203ZM85.212 15.198C85.212 15.642 85.278 15.912 85.41 16.008C85.554 16.116 85.902 16.17 86.454 16.17C87.018 16.17 87.408 16.098 87.624 15.954C87.852 15.822 88.044 15.51 88.2 15.018C88.368 14.538 88.542 13.722 88.722 12.57L89.046 12.642C88.986 13.338 88.956 13.896 88.956 14.316C88.956 15.084 89.058 15.534 89.262 15.666C89.466 15.798 89.568 15.9 89.568 15.972C89.568 16.044 89.442 16.212 89.19 16.476C88.95 16.74 88.656 16.92 88.308 17.016C87.972 17.124 87.342 17.178 86.418 17.178C85.494 17.178 84.864 17.082 84.528 16.89C84.192 16.71 84.024 16.29 84.024 15.63V12.768C84.024 12.12 83.994 11.418 83.934 10.662L85.302 11.256C85.506 11.34 85.608 11.412 85.608 11.472C85.608 11.532 85.548 11.61 85.428 11.706L85.212 11.85V15.198Z" fill="#3D3D3D"/>
<path d="M98.982 8.59203C99.294 8.59203 99.552 8.69403 99.756 8.89803C99.972 9.09003 100.08 9.34203 100.08 9.65403C100.08 9.95403 99.978 10.206 99.774 10.41C99.57 10.614 99.312 10.716 99 10.716C98.688 10.716 98.43 10.608 98.226 10.392C98.034 10.176 97.938 9.93003 97.938 9.65403C97.938 9.35403 98.04 9.10203 98.244 8.89803C98.46 8.69403 98.706 8.59203 98.982 8.59203Z" fill="#3D3D3D"/>
<path d="M118.314 7.33203H116.046C116.058 7.69203 115.914 7.93803 115.614 8.07003C115.314 8.19003 115.104 8.25003 114.984 8.25003C114.864 8.25003 114.804 8.14203 114.804 7.92603L114.876 7.02603C114.888 6.65403 114.894 6.08403 114.894 5.31603V3.46203C114.894 2.97003 114.87 2.40603 114.822 1.77003L116.064 2.49003H121.608L122.22 1.86003L123.39 2.81403C123.486 2.91003 123.534 2.98203 123.534 3.03003C123.534 3.07803 123.486 3.13203 123.39 3.19203L122.904 3.48003V5.29803C122.904 5.59803 122.916 5.92803 122.94 6.28803L122.994 7.20603C122.994 7.45803 122.838 7.66803 122.526 7.83603C122.214 7.99203 122.004 8.07003 121.896 8.07003C121.788 8.07003 121.734 7.99203 121.734 7.83603V7.33203H119.43V9.00603H122.472L123.174 8.25003L124.29 9.20403C124.398 9.28803 124.452 9.35403 124.452 9.40203C124.452 9.45003 124.416 9.49803 124.344 9.54603C124.272 9.58203 124.23 9.60003 124.218 9.60003L123.876 9.72603V13.506C123.876 13.986 123.786 14.352 123.606 14.604C123.426 14.844 123.156 15.06 122.796 15.252C122.436 15.444 122.208 15.54 122.112 15.54C122.016 15.54 121.944 15.414 121.896 15.162C121.86 14.91 121.71 14.688 121.446 14.496C121.182 14.304 120.684 14.124 119.952 13.956L120.024 13.668C120.816 13.788 121.386 13.848 121.734 13.848C122.094 13.848 122.346 13.806 122.49 13.722C122.646 13.638 122.724 13.458 122.724 13.182V9.52803H119.43V11.544L120.51 11.418C120.402 11.106 120.216 10.668 119.952 10.104L120.15 9.97803C121.266 10.95 121.824 11.712 121.824 12.264C121.824 12.528 121.746 12.762 121.59 12.966C121.446 13.17 121.29 13.272 121.122 13.272C120.846 13.272 120.708 13.032 120.708 12.552C120.708 12.276 120.672 12.018 120.6 11.778L118.44 12.426C117.624 12.666 117.084 12.852 116.82 12.984C116.556 13.104 116.394 13.164 116.334 13.164C116.274 13.164 116.232 13.134 116.208 13.074L115.722 12.048L118.314 11.706V9.52803H115.092V14.208C115.092 14.472 115.062 14.664 115.002 14.784C114.942 14.892 114.792 14.988 114.552 15.072C114.324 15.168 114.156 15.216 114.048 15.216C113.952 15.216 113.904 15.108 113.904 14.892L113.958 13.938C113.97 13.566 113.976 12.984 113.976 12.192V9.85203C113.976 9.36003 113.958 8.79603 113.922 8.16003L115.326 9.00603H118.314V7.33203ZM116.046 4.68603H118.314V3.01203H116.046V4.68603ZM119.43 4.68603H121.734V3.01203H119.43V4.68603ZM118.314 5.17203H116.046V6.82803H118.314V5.17203ZM121.734 5.17203H119.43V6.82803H121.734V5.17203ZM110.574 1.98603C111.27 2.46603 111.81 2.91003 112.194 3.31803C112.59 3.71403 112.788 4.09203 112.788 4.45203C112.788 4.80003 112.68 5.11203 112.464 5.38803C112.248 5.65203 112.026 5.78403 111.798 5.78403C111.678 5.78403 111.582 5.71203 111.51 5.56803C111.438 5.42403 111.402 5.23803 111.402 5.01003C111.402 4.12203 111.066 3.19203 110.394 2.22003L110.574 1.98603ZM111.006 14.37V8.50203H110.52C109.884 8.50203 109.488 8.56803 109.332 8.70003L108.666 7.87203C109.134 7.94403 109.632 7.98003 110.16 7.98003H111.024L111.762 7.17003L112.77 7.98003C112.938 8.10003 113.022 8.19603 113.022 8.26803C113.022 8.32803 112.944 8.40603 112.788 8.50203L112.248 8.80803V14.586C112.956 15.21 113.826 15.636 114.858 15.864C115.902 16.104 117.498 16.224 119.646 16.224C121.794 16.224 123.69 16.104 125.334 15.864L125.37 16.134C124.542 16.422 124.092 16.8 124.02 17.268C124.008 17.4 123.96 17.466 123.876 17.466C123.792 17.478 123.576 17.484 123.228 17.484C121.404 17.484 119.73 17.424 118.206 17.304C116.694 17.196 115.668 17.094 115.128 16.998C114.588 16.902 114.132 16.734 113.76 16.494C113.388 16.254 112.878 15.84 112.23 15.252C111.954 15 111.75 14.874 111.618 14.874C111.498 14.874 111.384 14.916 111.276 15C111.168 15.072 110.928 15.3 110.556 15.684C110.196 16.068 109.944 16.374 109.8 16.602C109.656 16.842 109.554 16.962 109.494 16.962C109.446 16.962 109.398 16.92 109.35 16.836L108.612 15.576C109.872 14.904 110.67 14.502 111.006 14.37Z" fill="#3D3D3D"/>
<path d="M131.274 2.76003H138.366L139.086 1.78803L140.328 2.76003C140.424 2.83203 140.472 2.90403 140.472 2.97603C140.472 3.03603 140.418 3.10203 140.31 3.17403L139.86 3.46203V8.37603C139.86 8.84403 139.878 9.33603 139.914 9.85203L140.022 11.148C140.022 11.34 139.836 11.538 139.464 11.742C139.092 11.946 138.858 12.048 138.762 12.048C138.666 12.048 138.618 11.964 138.618 11.796V3.26403H131.22V11.562C131.22 11.73 131.184 11.862 131.112 11.958C131.04 12.054 130.866 12.162 130.59 12.282C130.314 12.402 130.122 12.462 130.014 12.462C129.858 12.462 129.78 12.384 129.78 12.228C129.78 12.072 129.786 11.94 129.798 11.832C129.93 10.848 129.996 9.76803 129.996 8.59203V4.11003C129.996 3.06603 129.972 2.33403 129.924 1.91403L131.274 2.76003ZM134.028 5.11803L135.468 5.74803C135.648 5.84403 135.738 5.93403 135.738 6.01803C135.738 6.10203 135.66 6.18603 135.504 6.27003C135.36 6.35403 135.27 6.63603 135.234 7.11603C135.042 9.30003 134.832 10.854 134.604 11.778C134.388 12.702 133.998 13.602 133.434 14.478C132.87 15.342 132.102 16.014 131.13 16.494C130.158 16.986 128.826 17.424 127.134 17.808L127.08 17.52C128.376 17.064 129.414 16.596 130.194 16.116C130.974 15.648 131.592 15.138 132.048 14.586C132.504 14.034 132.864 13.416 133.128 12.732C133.404 12.048 133.62 11.034 133.776 9.69003C133.932 8.34603 134.016 6.82203 134.028 5.11803ZM142.524 12.282C142.5 13.542 142.524 14.37 142.596 14.766C142.68 15.162 142.812 15.378 142.992 15.414C143.184 15.45 143.28 15.522 143.28 15.63C143.28 15.846 142.998 16.134 142.434 16.494C141.87 16.854 140.826 17.034 139.302 17.034C138.15 17.034 137.304 16.986 136.764 16.89C136.224 16.794 135.864 16.638 135.684 16.422C135.504 16.206 135.414 15.864 135.414 15.396V12.552C135.414 11.244 135.39 10.254 135.342 9.58203L136.98 10.284C137.112 10.332 137.178 10.404 137.178 10.5C137.178 10.584 137.112 10.662 136.98 10.734L136.638 10.896V14.964C136.638 15.264 136.692 15.48 136.8 15.612C136.908 15.744 137.136 15.834 137.484 15.882C137.844 15.93 138.438 15.954 139.266 15.954C140.106 15.954 140.7 15.876 141.048 15.72C141.396 15.564 141.642 15.258 141.786 14.802C141.93 14.334 142.062 13.494 142.182 12.282H142.524Z" fill="#3D3D3D"/>
<path d="M153.504 5.08203C153.432 2.92203 153.378 1.60803 153.342 1.14003L155.034 1.71603C155.154 1.75203 155.214 1.80003 155.214 1.86003C155.214 1.92003 155.172 1.99803 155.088 2.09403L154.692 2.56203C154.62 3.39003 154.584 3.96603 154.584 4.29003C154.584 4.60203 154.59 4.86603 154.602 5.08203H158.58L159.696 3.75003L160.884 5.15403C161.016 5.31003 161.082 5.42403 161.082 5.49603C161.082 5.55603 160.98 5.58603 160.776 5.58603H154.62C154.884 8.74203 155.346 10.986 156.006 12.318C156.786 11.046 157.458 9.37203 158.022 7.29603L159.516 8.05203C159.684 8.14803 159.768 8.23203 159.768 8.30403C159.768 8.37603 159.666 8.43003 159.462 8.46603C159.258 8.49003 159.024 8.79603 158.76 9.38403C158.064 10.944 157.332 12.246 156.564 13.29C156.828 13.65 157.116 13.992 157.428 14.316C157.752 14.628 158.118 14.94 158.526 15.252C158.946 15.576 159.192 15.756 159.264 15.792C159.348 15.828 159.438 15.846 159.534 15.846C159.642 15.846 159.756 15.786 159.876 15.666C159.996 15.546 160.074 15.438 160.11 15.342L161.082 13.02L161.352 13.074C161.04 14.49 160.884 15.414 160.884 15.846C160.884 16.278 160.956 16.638 161.1 16.926C161.244 17.214 161.316 17.424 161.316 17.556C161.316 17.772 161.19 17.88 160.938 17.88C160.566 17.88 159.84 17.556 158.76 16.908C157.68 16.272 156.726 15.342 155.898 14.118C154.554 15.678 152.802 16.734 150.642 17.286L150.57 17.034C152.646 16.038 154.242 14.784 155.358 13.272C154.29 11.244 153.678 8.68203 153.522 5.58603H148.392V8.73603H151.272L151.776 7.80003L152.856 8.80803C152.964 8.90403 153.018 8.98203 153.018 9.04203C153.018 9.09003 152.964 9.14403 152.856 9.20403L152.478 9.47403L152.118 13.56C152.046 14.424 151.74 15.072 151.2 15.504C150.672 15.948 150.324 16.17 150.156 16.17C150.06 16.17 149.994 16.062 149.958 15.846C149.91 15.522 149.784 15.27 149.58 15.09C149.376 14.922 149.004 14.772 148.464 14.64L148.5 14.262C149.052 14.322 149.502 14.352 149.85 14.352C150.21 14.352 150.474 14.286 150.642 14.154C150.822 14.022 150.93 13.752 150.966 13.344L151.344 9.24003H148.392C148.392 11.376 148.146 13.068 147.654 14.316C147.174 15.564 146.238 16.764 144.846 17.916L144.612 17.682C145.38 16.794 145.938 15.984 146.286 15.252C146.646 14.52 146.892 13.638 147.024 12.606C147.156 11.562 147.222 10.074 147.222 8.14203V6.01803C147.222 5.39403 147.204 4.75803 147.168 4.11003L148.554 5.08203H153.504ZM155.988 1.64403C156.78 1.82403 157.374 2.06403 157.77 2.36403C158.178 2.65203 158.382 2.95203 158.382 3.26403C158.382 3.56403 158.292 3.84003 158.112 4.09203C157.932 4.33203 157.728 4.45203 157.5 4.45203C157.428 4.45203 157.35 4.40403 157.266 4.30803C157.182 4.21203 157.122 4.08603 157.086 3.93003C156.858 3.10203 156.456 2.40603 155.88 1.84203L155.988 1.64403Z" fill="#3D3D3D"/>
<path d="M170.982 4.65003H175.104L175.878 3.80403L177.102 4.74003C177.294 4.89603 177.39 5.01603 177.39 5.10003C177.39 5.18403 177.3 5.28003 177.12 5.38803L176.58 5.74803V10.122C176.58 10.566 176.592 10.962 176.616 11.31L176.67 12.12C176.67 12.336 176.466 12.528 176.058 12.696C175.65 12.864 175.398 12.948 175.302 12.948C175.218 12.948 175.176 12.876 175.176 12.732V12.156H170.982V15.252C170.982 15.54 171.102 15.72 171.342 15.792C171.582 15.876 172.5 15.918 174.096 15.918C175.704 15.918 176.706 15.852 177.102 15.72C177.498 15.6 177.852 14.562 178.164 12.606H178.524C178.512 12.858 178.506 13.086 178.506 13.29C178.506 14.502 178.71 15.258 179.118 15.558C179.286 15.678 179.37 15.768 179.37 15.828C179.37 15.888 179.328 15.972 179.244 16.08C179.172 16.2 178.998 16.35 178.722 16.53C178.446 16.71 178.128 16.854 177.768 16.962C177.42 17.07 176.916 17.13 176.256 17.142C175.596 17.166 174.63 17.178 173.358 17.178C172.098 17.178 171.252 17.136 170.82 17.052C170.4 16.968 170.106 16.824 169.938 16.62C169.77 16.428 169.686 16.152 169.686 15.792V12.156H165.942V13.092C165.942 13.236 165.906 13.35 165.834 13.434C165.774 13.506 165.606 13.614 165.33 13.758C165.054 13.89 164.85 13.956 164.718 13.956C164.586 13.956 164.52 13.818 164.52 13.542C164.52 13.494 164.526 13.26 164.538 12.84C164.562 12.42 164.574 11.784 164.574 10.932V5.40603C164.574 4.92603 164.556 4.37403 164.52 3.75003L165.906 4.65003H169.686V3.94803C169.686 2.92803 169.662 1.93803 169.614 0.978027L171.324 1.73403C171.6 1.85403 171.738 1.96203 171.738 2.05803C171.738 2.14203 171.6 2.25603 171.324 2.40003L170.982 2.58003V4.65003ZM169.686 5.24403H165.942V7.98003H169.686V5.24403ZM175.176 7.98003V5.24403H170.982V7.98003H175.176ZM169.686 8.57403H165.942V11.58H169.686V8.57403ZM175.176 11.58V8.57403H170.982V11.58H175.176Z" fill="#3D3D3D"/>
</svg>
