<svg width="37" height="37" viewBox="0 0 37 37" fill="none" xmlns="http://www.w3.org/2000/svg">
<g clip-path="url(#clip0_223_218)">
<path d="M13.4056 3.75766C14.0252 3.75766 14.5555 3.96635 14.9964 4.38374C15.4373 4.80112 15.6577 5.31126 15.6577 5.91415V14.6097C15.6577 15.2125 15.4373 15.7285 14.9964 16.1575C14.5555 16.5864 14.0252 16.8009 13.4056 16.8009H4.46852C3.84889 16.8009 3.32458 16.5864 2.8956 16.1575C2.46663 15.7285 2.25214 15.2125 2.25214 14.6097V5.91415C2.25214 5.31126 2.46663 4.80112 2.8956 4.38374C3.32458 3.96635 3.84889 3.75766 4.46852 3.75766H13.4056V3.75766ZM13.4056 21.1487C14.0252 21.1487 14.5555 21.3574 14.9964 21.7747C15.4373 22.1921 15.6577 22.7023 15.6577 23.3052V32.0354C15.6577 32.6383 15.4373 33.1485 14.9964 33.5659C14.5555 33.9832 14.0252 34.1919 13.4056 34.1919H4.46852C3.84889 34.1919 3.32458 33.9832 2.8956 33.5659C2.46663 33.1485 2.25214 32.6383 2.25214 32.0354V23.3052C2.25214 22.7023 2.46663 22.1921 2.8956 21.7747C3.32458 21.3574 3.84889 21.1487 4.46852 21.1487H13.4056ZM31.3154 21.1487C31.935 21.1487 32.4594 21.3574 32.8883 21.7747C33.3173 22.1921 33.5318 22.7023 33.5318 23.3052V32.0354C33.5318 32.6383 33.3173 33.1485 32.8883 33.5659C32.4594 33.9832 31.935 34.1919 31.3154 34.1919H22.3784C21.7587 34.1919 21.2285 33.9832 20.7876 33.5659C20.3467 33.1485 20.1262 32.6383 20.1262 32.0354V23.3052C20.1262 22.7023 20.3467 22.1921 20.7876 21.7747C21.2285 21.3574 21.7587 21.1487 22.3784 21.1487H31.3154ZM36.2844 7.58368C36.7611 8.04744 36.9994 8.59236 36.9994 9.21844C36.9994 9.84452 36.7611 10.3778 36.2844 10.8184L29.6352 17.2879C29.1586 17.7516 28.6045 17.9835 27.973 17.9835C27.3414 17.9835 26.7873 17.7516 26.3107 17.2879L19.6615 10.8184C19.2087 10.3778 18.9823 9.84452 18.9823 9.21844C18.9823 8.59236 19.2087 8.04744 19.6615 7.58368L26.3107 1.11423C26.7873 0.673655 27.3414 0.453369 27.973 0.453369C28.6045 0.453369 29.1586 0.673655 29.6352 1.11423L36.2844 7.58368Z" fill="#FE6F61"/>
</g>
<defs>
<clipPath id="clip0_223_218">
<rect width="37" height="36" fill="white" transform="translate(0 0.418274)"/>
</clipPath>
</defs>
</svg>
