<svg width="37" height="37" viewBox="0 0 37 37" fill="none" xmlns="http://www.w3.org/2000/svg">
<path d="M0.0593262 18.3226C0.0593261 20.7133 0.530202 23.0805 1.44507 25.2892C2.35994 27.4979 3.70088 29.5048 5.39133 31.1952C7.08179 32.8857 9.08865 34.2266 11.2973 35.1415C13.506 36.0563 15.8733 36.5272 18.2639 36.5272C20.6546 36.5272 23.0219 36.0563 25.2305 35.1415C27.4392 34.2266 29.4461 32.8857 31.1365 31.1952C32.827 29.5048 34.1679 27.4979 35.0828 25.2892C35.9977 23.0805 36.4686 20.7133 36.4686 18.3226C36.4686 15.9319 35.9977 13.5647 35.0828 11.356C34.1679 9.14731 32.827 7.14045 31.1365 5.44999C29.4461 3.75954 27.4392 2.41859 25.2305 1.50372C23.0219 0.588857 20.6546 0.117981 18.2639 0.117981C15.8733 0.117981 13.506 0.588857 11.2973 1.50372C9.08865 2.41859 7.08179 3.75954 5.39133 5.44999C3.70088 7.14045 2.35994 9.14731 1.44507 11.356C0.530202 13.5647 0.0593261 15.9319 0.0593262 18.3226V18.3226Z" fill="#29CCA4"/>
<path d="M26.7474 13.6857H26.3737V11.8096C26.3552 11.476 26.2534 11.1524 26.0775 10.8684C25.9016 10.5844 25.6574 10.349 25.367 10.1837C25.367 10.1837 23.3748 9.18732 18.5027 9.18732C13.6313 9.18732 11.636 10.1837 11.636 10.1837C11.3457 10.349 11.1014 10.5844 10.9256 10.8684C10.7497 11.1524 10.6479 11.476 10.6293 11.8096V13.6857H10.2545C9.95661 13.6864 9.67108 13.8048 9.46017 14.0151C9.24927 14.2254 9.1301 14.5106 9.12866 14.8085V15.9337C9.1293 16.232 9.24803 16.5179 9.4589 16.7289C9.66976 16.9398 9.95559 17.0587 10.2539 17.0595H10.6281V24.7443C10.6305 25.2201 10.9304 25.644 11.3791 25.8042V26.4312C11.3791 26.6281 11.4179 26.8231 11.4932 27.005C11.5686 27.1869 11.679 27.3522 11.8183 27.4915C11.9575 27.6307 12.1228 27.7412 12.3047 27.8165C12.4866 27.8919 12.6816 27.9306 12.8785 27.9306C13.0755 27.9306 13.2704 27.8919 13.4524 27.8165C13.6343 27.7412 13.7996 27.6307 13.9388 27.4915C14.0781 27.3522 14.1885 27.1869 14.2639 27.005C14.3392 26.8231 14.378 26.6281 14.378 26.4312V25.8701H22.6227V26.4312C22.6227 26.8289 22.7806 27.2103 23.0618 27.4915C23.343 27.7727 23.7244 27.9306 24.1221 27.9306C24.5198 27.9306 24.9012 27.7727 25.1824 27.4915C25.4636 27.2103 25.6216 26.8289 25.6216 26.4312V25.8042C25.8404 25.726 26.0299 25.5823 26.1642 25.3927C26.2986 25.2031 26.3713 24.9767 26.3725 24.7443V17.0595H26.7468C27.0451 17.0587 27.3309 16.9398 27.5418 16.7289C27.7526 16.5179 27.8714 16.232 27.872 15.9337V14.8085C27.8696 14.511 27.7502 14.2265 27.5397 14.0164C27.3291 13.8062 27.0443 13.6875 26.7468 13.6857H26.7474ZM14.7517 11.0617C14.7521 10.9624 14.7918 10.8673 14.862 10.7971C14.9322 10.7269 15.0273 10.6873 15.1265 10.6868H21.8741C22.0809 10.6886 22.2472 10.8555 22.249 11.0617V11.8096C22.2492 11.9092 22.2098 12.0048 22.1395 12.0755C22.0692 12.1461 21.9738 12.1859 21.8741 12.1862H15.1265C15.0271 12.1856 14.932 12.1456 14.862 12.075C14.7919 12.0044 14.7527 11.909 14.7529 11.8096V11.0617H14.7517ZM13.066 24.3694C12.9408 24.3727 12.8162 24.3508 12.6996 24.3052C12.583 24.2596 12.4767 24.191 12.3869 24.1037C12.2972 24.0163 12.2259 23.9119 12.1771 23.7965C12.1284 23.6811 12.1033 23.5572 12.1032 23.432C12.1031 23.3067 12.1281 23.1827 12.1767 23.0673C12.2253 22.9519 12.2965 22.8474 12.3861 22.7599C12.4757 22.6724 12.5819 22.6037 12.6985 22.558C12.815 22.5122 12.9396 22.4902 13.0648 22.4933C13.3094 22.4993 13.5421 22.6007 13.713 22.7759C13.884 22.951 13.9798 23.186 13.9799 23.4308C13.9801 23.6755 13.8846 23.9106 13.7139 24.086C13.5431 24.2613 13.3106 24.363 13.066 24.3694ZM23.9347 24.3694C23.8095 24.3726 23.6849 24.3507 23.5683 24.305C23.4517 24.2593 23.3455 24.1907 23.2558 24.1032C23.1661 24.0158 23.0949 23.9113 23.0462 23.7959C22.9976 23.6805 22.9725 23.5566 22.9725 23.4313C22.9725 23.3061 22.9976 23.1821 23.0462 23.0667C23.0949 22.9514 23.1661 22.8469 23.2558 22.7594C23.3455 22.672 23.4517 22.6034 23.5683 22.5577C23.6849 22.512 23.8095 22.4901 23.9347 22.4933C24.1794 22.4995 24.4119 22.601 24.5828 22.7763C24.7536 22.9515 24.8492 23.1866 24.8492 23.4313C24.8492 23.6761 24.7536 23.9112 24.5828 24.0864C24.4119 24.2616 24.1794 24.3632 23.9347 24.3694ZM24.8731 20.0584C24.8724 20.1575 24.8328 20.2523 24.7627 20.3224C24.6927 20.3924 24.5979 20.4321 24.4988 20.4327H12.5031C12.4036 20.4327 12.3081 20.3934 12.2376 20.3232C12.167 20.2531 12.127 20.1579 12.1264 20.0584V14.0606C12.1269 13.961 12.1668 13.8657 12.2374 13.7954C12.3079 13.7252 12.4035 13.6857 12.5031 13.6857H24.4988C24.705 13.6875 24.8719 13.8544 24.8731 14.0606V20.0584Z" fill="white"/>
</svg>
