<svg width="37" height="37" viewBox="0 0 37 37" fill="none" xmlns="http://www.w3.org/2000/svg">
<path d="M0.0593262 18.3225C0.0593261 20.7132 0.530202 23.0804 1.44507 25.2891C2.35994 27.4978 3.70088 29.5047 5.39133 31.1951C7.08179 32.8856 9.08865 34.2265 11.2973 35.1414C13.506 36.0562 15.8733 36.5271 18.2639 36.5271C20.6546 36.5271 23.0219 36.0562 25.2305 35.1414C27.4392 34.2265 29.4461 32.8856 31.1365 31.1951C32.827 29.5047 34.1679 27.4978 35.0828 25.2891C35.9977 23.0804 36.4686 20.7132 36.4686 18.3225C36.4686 15.9318 35.9977 13.5646 35.0828 11.3559C34.1679 9.14725 32.827 7.14039 31.1365 5.44993C29.4461 3.75948 27.4392 2.41853 25.2305 1.50366C23.0219 0.588796 20.6546 0.11792 18.2639 0.11792C15.8733 0.11792 13.506 0.588796 11.2973 1.50366C9.08865 2.41853 7.08179 3.75948 5.39133 5.44993C3.70088 7.14039 2.35994 9.14725 1.44507 11.3559C0.530202 13.5646 0.0593261 15.9318 0.0593262 18.3225Z" fill="#29CCA4"/>
<path d="M21 11.5C21 11.8283 21.0647 12.1534 21.1903 12.4567C21.3159 12.76 21.5001 13.0356 21.7322 13.2678C21.9644 13.4999 22.24 13.6841 22.5433 13.8097C22.8466 13.9353 23.1717 14 23.5 14C23.8283 14 24.1534 13.9353 24.4567 13.8097C24.76 13.6841 25.0356 13.4999 25.2678 13.2678C25.4999 13.0356 25.6841 12.76 25.8097 12.4567C25.9353 12.1534 26 11.8283 26 11.5C26 11.1717 25.9353 10.8466 25.8097 10.5433C25.6841 10.24 25.4999 9.96438 25.2678 9.73223C25.0356 9.50009 24.76 9.31594 24.4567 9.1903C24.1534 9.06466 23.8283 9 23.5 9C23.1717 9 22.8466 9.06466 22.5433 9.1903C22.24 9.31594 21.9644 9.50009 21.7322 9.73223C21.5001 9.96438 21.3159 10.24 21.1903 10.5433C21.0647 10.8466 21 11.1717 21 11.5V11.5Z" fill="white"/>
<path d="M16.9407 14.5083L20.7119 22.0508C20.9199 22.4669 21.0182 22.9292 20.9972 23.3938C20.9763 23.8585 20.837 24.3101 20.5925 24.7058C20.3479 25.1014 20.0063 25.428 19.6001 25.6546C19.1938 25.8811 18.7364 26 18.2713 26H10.7287C10.2636 26 9.8062 25.8811 9.39994 25.6546C8.99368 25.428 8.65207 25.1014 8.40754 24.7058C8.163 24.3101 8.02367 23.8585 8.00276 23.3938C7.98185 22.9292 8.08006 22.4669 8.28807 22.0508L12.0593 14.5083C12.286 14.0551 12.6344 13.6739 13.0654 13.4075C13.4965 13.1411 13.9933 13 14.5 13C15.0067 13 15.5035 13.1411 15.9346 13.4075C16.3656 13.6739 16.714 14.0551 16.9407 14.5083V14.5083Z" fill="white" fill-opacity="0.8"/>
<path d="M24.9822 17.9159L27.8249 23.6012C27.9513 23.8539 28.011 24.1347 27.9983 24.4169C27.9857 24.6992 27.9011 24.9735 27.7526 25.2138C27.6041 25.4542 27.3966 25.6526 27.1498 25.7902C26.9031 25.9278 26.6253 26 26.3428 26H20.6572C20.3747 26 20.0969 25.9278 19.8502 25.7902C19.6034 25.6526 19.3959 25.4542 19.2474 25.2138C19.0989 24.9735 19.0143 24.6992 19.0017 24.4169C18.989 24.1347 19.0487 23.8539 19.1751 23.6012L22.0178 17.9159C22.1555 17.6406 22.3671 17.4092 22.6289 17.2474C22.8906 17.0857 23.1923 17 23.5 17C23.8077 17 24.1094 17.0857 24.3711 17.2474C24.6329 17.4092 24.8445 17.6406 24.9822 17.9159V17.9159Z" fill="white"/>
</svg>
