<svg width="37" height="37" viewBox="0 0 37 37" fill="none" xmlns="http://www.w3.org/2000/svg">
<path d="M0 18.4196C-3.60444e-08 20.8385 0.476437 23.2338 1.40211 25.4685C2.32778 27.7033 3.68456 29.7339 5.39499 31.4443C7.10541 33.1547 9.13597 34.5115 11.3707 35.4372C13.6055 36.3628 16.0007 36.8393 18.4196 36.8393C20.8385 36.8393 23.2337 36.3628 25.4685 35.4372C27.7033 34.5115 29.7339 33.1547 31.4443 31.4443C33.1547 29.7339 34.5115 27.7033 35.4372 25.4685C36.3628 23.2338 36.8393 20.8385 36.8393 18.4196C36.8393 16.0007 36.3628 13.6055 35.4372 11.3707C34.5115 9.13597 33.1547 7.10541 31.4443 5.39499C27.9899 1.94063 23.3048 0 18.4196 0C13.5344 0 8.84934 1.94063 5.39499 5.39499C1.94063 8.84934 0 13.5344 0 18.4196V18.4196Z" fill="#50B9FE"/>
<path d="M23.6236 17.5387H13.3764C12.843 17.5387 12.3561 17.207 12.1308 16.6864C12.0197 16.4316 11.9783 16.148 12.0116 15.8688C12.0448 15.5896 12.1512 15.3263 12.3183 15.1099L14.7562 11.953C14.9897 11.6508 15.3251 11.4607 15.6887 11.4246C16.0523 11.3884 16.4143 11.5092 16.6952 11.7603C16.9759 12.0118 17.1524 12.3729 17.186 12.7644C17.2195 13.1559 17.1074 13.5457 16.8741 13.8482L16.3115 14.5763H23.6236C24.3841 14.5763 25 15.2396 25 16.0584C25 16.8773 24.3823 17.5387 23.6236 17.5387V17.5387ZM21.184 26.4183C20.9225 26.4179 20.6666 26.3374 20.4461 26.1862C20.2256 26.035 20.0496 25.8194 19.9387 25.5645C19.8277 25.3096 19.7864 25.026 19.8195 24.7468C19.8527 24.4676 19.9589 24.2043 20.1259 23.9876L20.6885 23.2596H13.3764C12.6159 23.2596 12 22.5963 12 21.7775C12 20.9586 12.6159 20.2954 13.3764 20.2954H23.6219C24.1552 20.2954 24.6421 20.627 24.8675 21.1476C25.0946 21.6681 25.0206 22.2832 24.68 22.7241L22.2421 25.881C22.1135 26.0492 21.952 26.1846 21.769 26.2775C21.5861 26.3704 21.3862 26.4185 21.184 26.4183V26.4183Z" fill="white"/>
</svg>
