<svg width="38" height="37" viewBox="0 0 38 37" fill="none" xmlns="http://www.w3.org/2000/svg">
<path d="M17.273 0L20.727 0C25.066 0 27.8819 0.696192 30.3263 2.0035C32.7708 3.3108 34.6892 5.22921 35.9965 7.67366C37.3038 10.1181 38 12.934 38 17.273V19.727C38 24.066 37.3038 26.8819 35.9965 29.3263C34.6892 31.7708 32.7708 33.6892 30.3263 34.9965C27.8819 36.3038 25.066 37 20.727 37H17.273C12.934 37 10.1181 36.3038 7.67366 34.9965C5.22921 33.6892 3.3108 31.7708 2.0035 29.3263C0.696192 26.8819 0 24.066 0 19.727L0 17.273C0 12.934 0.696192 10.1181 2.0035 7.67366C3.3108 5.22921 5.22921 3.3108 7.67366 2.0035C10.1181 0.696192 12.934 0 17.273 0Z" fill="#40D69C"/>
<path d="M28.9943 27.0732L28.0928 14.6515C28.0102 13.5064 27.0387 12.6178 25.8696 12.6178H24.8389C24.7096 9.72857 22.3643 7.41827 19.5 7.41827C16.6357 7.41827 14.2922 9.72857 14.1611 12.6178H13.1304C11.9613 12.6178 10.9916 13.5064 10.9072 14.6515L10.0057 27.0732C9.91414 28.341 10.9359 29.4183 12.2289 29.4183H26.7729C28.0641 29.4183 29.0859 28.341 28.9943 27.0732ZM19.5 9.80002C21.0767 9.80002 22.3715 11.0422 22.4972 12.6178H16.501C16.6285 11.044 17.9233 9.80002 19.5 9.80002ZM25.2537 26.366C25.1532 26.473 25.0325 26.5581 24.8988 26.616C24.7652 26.674 24.6213 26.7036 24.4761 26.7031C24.2067 26.7031 23.9392 26.6023 23.7291 26.3971L22.0195 24.7226C21.2635 25.2172 20.3656 25.5049 19.403 25.5049C16.7219 25.5049 14.5419 23.2807 14.5419 20.5454C14.5419 17.81 16.7219 15.5858 19.403 15.5858C22.0823 15.5858 24.2642 17.81 24.2642 20.5454C24.2642 21.5035 23.9966 22.3976 23.5333 23.1561L25.2214 24.8105C25.6523 25.2319 25.6649 25.9281 25.2537 26.366Z" fill="white"/>
</svg>
