<svg width="37" height="37" viewBox="0 0 37 37" fill="none" xmlns="http://www.w3.org/2000/svg">
<g clip-path="url(#clip0_223_194)">
<path d="M32.9095 7.60972L21.0154 0.997078C19.6302 0.226465 17.3732 0.224215 15.9846 0.997078L4.09045 7.60972C2.70529 8.38034 1.57449 10.2726 1.57449 11.8307V25.0053C1.57449 26.5646 2.70066 28.4545 4.09045 29.2263L15.9846 35.8389C17.3698 36.6095 19.6267 36.6118 21.0154 35.8389L32.9095 29.2263C34.2947 28.4557 35.4255 26.5634 35.4255 25.0053V11.8307C35.4255 10.2726 34.2993 8.38146 32.9095 7.60972V7.60972ZM27.8106 16.8065L24.839 19.683C24.2216 20.2815 23.8366 21.4605 23.9823 22.3042L24.6829 26.3677C24.8286 27.2114 24.3234 27.5759 23.5614 27.1777L19.8881 25.2585C19.1249 24.8602 17.8762 24.8602 17.1143 25.2585L13.4409 27.1777C12.6778 27.577 12.1725 27.2125 12.3194 26.3677L13.02 22.3042C13.1657 21.4605 12.7795 20.2804 12.1621 19.683L9.19059 16.8065C8.57317 16.208 8.76626 15.6185 9.61956 15.4947L13.7265 14.9019C14.5798 14.7781 15.5892 14.0491 15.9707 13.2819L17.808 9.58519C18.1895 8.81683 18.8139 8.81683 19.1955 9.58519L21.0316 13.2819C21.4131 14.0502 22.4237 14.7792 23.2758 14.9019L27.3816 15.4947C28.2337 15.6174 28.4268 16.208 27.8094 16.8065H27.8106Z" fill="#FF773F"/>
</g>
<defs>
<clipPath id="clip0_223_194">
<rect width="37" height="36" fill="white" transform="translate(0 0.418274)"/>
</clipPath>
</defs>
</svg>
