<svg t="1651568720936" class="icon" viewBox="0 0 1024 1024" version="1.1" xmlns="http://www.w3.org/2000/svg" p-id="1635" width="200" height="200"><path d="M1024 364.762c0-165.81-133.978-300.773-298.41-300.773-81.223 0-158.092 34.038-213.594 92.1-55.574-58.062-132.524-92.1-213.596-92.1C133.896 63.989 0 198.88 0 364.762c0 5.56 0.532 10.53 0.996 14.613-0.08 1.334-0.159 2.67-0.159 4.073 0 29.369 7.327 61.628 21.758 95.882 0.458 1.264 0.917 2.45 1.446 3.566 90.924 211.858 440.93 455.61 455.819 466.806 9.236 6.892 20.227 10.31 31.299 10.31a52.17 52.17 0 0 0 31.599-10.612c12.751-9.641 311.313-218.386 429.782-415.858 4.509-6.674 7.867-13.13 10.847-18.689 0.917-1.779 1.754-3.56 2.75-5.266l0.379-0.814c0.384-0.668 0.842-1.405 1.292-2.004 7.105-13.423 12.752-25.88 17.253-38.04 12.293-31.295 18.322-59.176 18.322-85.202 0-2.004-0.074-3.778-0.225-5.26 0.384-3.418 0.842-8.016 0.842-13.505" fill="#F46267" p-id="1636"></path></svg>