<svg width="37" height="38" viewBox="0 0 37 38" fill="none" xmlns="http://www.w3.org/2000/svg">
<path d="M0 18.845C-3.60582e-08 21.2648 0.47662 23.6609 1.40265 25.8965C2.32867 28.1322 3.68597 30.1635 5.39705 31.8746C7.10813 33.5857 9.13947 34.943 11.3751 35.869C13.6107 36.795 16.0069 37.2716 18.4267 37.2716C20.8465 37.2716 23.2426 36.795 25.4783 35.869C27.7139 34.943 29.7452 33.5857 31.4563 31.8746C33.1674 30.1635 34.5247 28.1322 35.4507 25.8965C36.3767 23.6609 36.8534 21.2648 36.8534 18.845C36.8534 13.9579 34.912 9.271 31.4563 5.81532C28.0006 2.35965 23.3137 0.418274 18.4267 0.418274C13.5396 0.418274 8.85272 2.35965 5.39705 5.81532C1.94138 9.271 0 13.9579 0 18.845V18.845Z" fill="#FF6F5D"/>
<path d="M11.4042 17.9523H14.2357C14.5873 17.9523 14.7631 18.1281 14.7631 18.4797V25.4896C14.7631 25.8412 14.5873 26.017 14.2357 26.017H11.4042C11.0526 26.017 10.8768 25.8412 10.8768 25.4896V18.4797C10.8768 18.1281 11.0526 17.9523 11.4042 17.9523V17.9523Z" fill="white"/>
<path d="M16.7914 10.3907H19.8542C20.2057 10.3907 20.3815 10.5665 20.3815 10.9181V25.4896C20.3815 25.8412 20.2057 26.017 19.8542 26.017H16.7914C16.4398 26.017 16.264 25.8412 16.264 25.4896V10.9181C16.264 10.5665 16.4398 10.3907 16.7914 10.3907V10.3907Z" fill="white"/>
<path d="M22.1868 14.423H25.4726C25.8242 14.423 26 14.5988 26 14.9504V25.4896C26 25.8412 25.8242 26.0169 25.4726 26.0169H22.1868C21.8352 26.0169 21.6594 25.8412 21.6594 25.4896V14.9504C21.6594 14.5988 21.8352 14.423 22.1868 14.423Z" fill="white"/>
</svg>
