<svg width="37" height="37" viewBox="0 0 37 37" fill="none" xmlns="http://www.w3.org/2000/svg">
<path d="M33.3109 7.83014L20.6171 0.504569C20.036 0.173879 19.3788 0 18.7101 0C18.0415 0 17.3843 0.173879 16.8031 0.504569L4.1094 7.83014C3.52924 8.16411 3.04744 8.6452 2.71261 9.22487C2.37779 9.80454 2.2018 10.4623 2.20239 11.1317V25.7828C2.2018 26.4522 2.37779 27.11 2.71261 27.6896C3.04744 28.2693 3.52924 28.7504 4.1094 29.0844L16.8031 36.41C17.3843 36.7406 18.0415 36.9145 18.7101 36.9145C19.3788 36.9145 20.036 36.7406 20.6171 36.41L33.3109 29.0844C33.891 28.7504 34.3728 28.2693 34.7077 27.6896C35.0425 27.11 35.2185 26.4522 35.2179 25.7828V11.1317C35.2185 10.4623 35.0425 9.80454 34.7077 9.22487C34.3728 8.6452 33.891 8.16411 33.3109 7.83014ZM30.2025 13.1983L19.7518 19.0789L19.6174 31.0586C19.6152 31.3356 19.5036 31.6006 19.3069 31.7957C19.1102 31.9908 18.8444 32.1003 18.5673 32.1003C18.2909 32.0981 18.0263 31.988 17.8301 31.7933C17.6339 31.5986 17.5216 31.335 17.5172 31.0586L17.6516 19.0789L7.34374 12.9463C7.22287 12.8774 7.11676 12.7854 7.03149 12.6754C6.94622 12.5655 6.88345 12.4399 6.84678 12.3057C6.81011 12.1715 6.80025 12.0313 6.81778 11.8933C6.8353 11.7553 6.87985 11.6221 6.94889 11.5013C7.01896 11.3827 7.11186 11.2792 7.22221 11.1967C7.33256 11.1142 7.45817 11.0545 7.59177 11.0209C7.72538 10.9873 7.86432 10.9805 8.00055 11.001C8.13679 11.0214 8.26761 11.0687 8.38545 11.1401L18.7101 17.2475L29.1524 11.3669C29.3946 11.2389 29.6772 11.2104 29.9401 11.2875C30.203 11.3647 30.4254 11.5413 30.56 11.7799C30.6946 12.0185 30.7308 12.3002 30.6609 12.5651C30.591 12.83 30.4206 13.0572 30.1857 13.1983H30.2025Z" fill="#50B9FE"/>
</svg>
