<svg width="110" height="110" viewBox="0 0 110 110" fill="none" xmlns="http://www.w3.org/2000/svg">
<path d="M97.3077 4H12.6923C5.69462 4 0 9.70704 0 16.72V84.56C0 91.573 5.69462 97.28 12.6923 97.28H40.5562L52.0088 108.758C52.8338 109.584 53.9169 110 55 110C56.0831 110 57.1662 109.584 57.9912 108.758L69.4438 97.28H97.3077C104.305 97.28 110 91.573 110 84.56V16.72C110 9.70704 104.305 4 97.3077 4ZM31.7308 54.88C28.2319 54.88 25.3846 52.0265 25.3846 48.52C25.3846 45.0135 28.2319 42.16 31.7308 42.16C35.2296 42.16 38.0769 45.0135 38.0769 48.52C38.0769 52.0265 35.2296 54.88 31.7308 54.88ZM57.1154 54.88C53.6165 54.88 50.7692 52.0265 50.7692 48.52C50.7692 45.0135 53.6165 42.16 57.1154 42.16C60.6142 42.16 63.4615 45.0135 63.4615 48.52C63.4615 52.0265 60.6142 54.88 57.1154 54.88ZM82.5 54.88C79.0012 54.88 76.1538 52.0265 76.1538 48.52C76.1538 45.0135 79.0012 42.16 82.5 42.16C85.9988 42.16 88.8462 45.0135 88.8462 48.52C88.8462 52.0265 85.9988 54.88 82.5 54.88Z" fill="#50B9FE"/>
</svg>
