<svg width="200" height="200" viewBox="0 0 200 200" fill="none" xmlns="http://www.w3.org/2000/svg">
<g clip-path="url(#clip0_650_50)">
<path d="M24.8924 5.53643H174.985C178.237 5.50342 181.464 6.11134 184.481 7.3255C187.498 8.53966 190.247 10.3363 192.57 12.6127C194.893 14.8892 196.745 17.6009 198.019 20.5931C199.294 23.5853 199.967 26.7992 200 30.0515V128.174C200 141.651 191.589 154.003 177.768 154.003L116.605 154.44L49.9078 194.465L56.5681 154.44L22.172 154.003C8.28844 154.003 -0.12299 141.651 -0.12299 128.174V30.0515C-0.0903049 26.7992 0.582684 23.5853 1.85754 20.5931C3.13241 17.6009 4.98418 14.8892 7.30711 12.6127C9.63003 10.3363 12.3786 8.53966 15.3959 7.3255C18.4132 6.11134 21.6401 5.50342 24.8924 5.53643V5.53643ZM151.814 93.0902C154.006 93.0716 156.144 92.4061 157.96 91.1772C159.775 89.9483 161.187 88.2106 162.019 86.1822C162.851 84.1538 163.065 81.925 162.635 79.7753C162.205 77.6256 161.15 75.6507 159.602 74.0984C158.054 72.546 156.082 71.4853 153.933 71.0493C151.785 70.6133 149.556 70.8214 147.525 71.6476C145.494 72.4737 143.753 73.881 142.519 75.6931C141.285 77.5051 140.613 79.6412 140.588 81.8333C140.584 83.3057 140.872 84.7643 141.436 86.1247C141.999 87.485 142.827 88.7201 143.871 89.7583C144.915 90.7966 146.155 91.6174 147.518 92.1732C148.882 92.729 150.342 93.0088 151.814 92.9964V93.0902ZM99.9385 93.0902C102.14 93.0902 104.292 92.4374 106.123 91.2142C107.954 89.991 109.38 88.2524 110.223 86.2184C111.066 84.1843 111.286 81.946 110.856 79.7867C110.427 77.6273 109.367 75.6438 107.81 74.087C106.253 72.5302 104.27 71.47 102.11 71.0404C99.9509 70.6109 97.7126 70.8314 95.6785 71.6739C93.6445 72.5165 91.9059 73.9433 90.6827 75.7739C89.4595 77.6045 88.8067 79.7567 88.8067 81.9584C88.8314 84.8945 90.0151 87.7018 92.1001 89.7692C94.185 91.8366 97.0023 92.9965 99.9385 92.9964V93.0902ZM48.0629 93.0902C50.2645 93.0902 52.4168 92.4374 54.2474 91.2142C56.078 89.991 57.5048 88.2524 58.3474 86.2184C59.1899 84.1843 59.4103 81.946 58.9808 79.7867C58.5513 77.6273 57.4911 75.6438 55.9343 74.087C54.3775 72.5302 52.394 71.47 50.2346 71.0404C48.0752 70.6109 45.837 70.8314 43.8029 71.6739C41.7688 72.5165 40.0303 73.9433 38.8071 75.7739C37.5839 77.6045 36.931 79.7567 36.931 81.9584C36.9558 84.8945 38.1395 87.7018 40.2245 89.7692C42.3094 91.8366 45.1267 92.9965 48.0629 92.9964V93.0902Z" fill="#50B9FE"/>
</g>
<defs>
<clipPath id="clip0_650_50">
<rect width="200" height="200" fill="white" transform="matrix(-1 0 0 1 200 0)"/>
</clipPath>
</defs>
</svg>
