<svg width="37" height="37" viewBox="0 0 37 37" fill="none" xmlns="http://www.w3.org/2000/svg">
<path d="M0.275391 18.3623C0.275391 23.2323 2.20998 27.9028 5.65358 31.3464C9.09718 34.79 13.7677 36.7246 18.6377 36.7246C23.5077 36.7246 28.1782 34.79 31.6218 31.3464C35.0654 27.9028 37 23.2323 37 18.3623C37 13.4923 35.0654 8.82179 31.6218 5.37819C28.1782 1.93459 23.5077 0 18.6377 0C13.7677 0 9.09718 1.93459 5.65358 5.37819C2.20998 8.82179 0.275391 13.4923 0.275391 18.3623V18.3623Z" fill="#FF8D46"/>
<path d="M28.5007 21.4981C27.6715 21.4981 27.0014 20.828 27.0014 19.9988C27.0014 19.1697 27.6715 18.4995 28.5007 18.4995C29.3298 18.4995 30 19.1697 30 19.9988C30 20.828 29.3298 21.4981 28.5007 21.4981ZM27.0014 16.4976C26.4472 16.4976 26.0004 16.0508 26.0004 15.4966C26.0004 14.9424 26.4472 14.4956 27.0014 14.4956C27.5556 14.4956 28.0023 14.9424 28.0023 15.4966C28.0023 16.0508 27.5513 16.4976 27.0014 16.4976ZM28.0023 24.4968C28.0023 25.6009 27.1088 26.4987 26.0004 26.4987C24.8963 26.4987 23.9984 25.6052 23.9984 24.4968C23.9984 23.3927 24.892 22.4948 26.0004 22.4948C27.1045 22.4991 28.0023 23.3927 28.0023 24.4968ZM20.5015 15.9992C18.2933 15.9992 16.5019 14.2078 16.5019 11.9996C16.5019 9.79145 18.2933 8 20.5015 8C22.7096 8 24.5011 9.79145 24.5011 11.9996C24.5011 14.2078 22.7096 15.9992 20.5015 15.9992V15.9992ZM14.0016 26.9971C12.3433 26.9971 11.0029 25.6524 11.0029 23.9984C11.0029 22.3402 12.3476 20.9998 14.0016 20.9998C15.6555 20.9998 17.0002 22.3445 17.0002 23.9984C17.0002 25.6567 15.6555 26.9971 14.0016 26.9971ZM11.5013 19.4962C9.56805 19.4962 8 17.9281 8 15.9949C8 14.0617 9.56805 12.4937 11.5013 12.4937C13.4345 12.4937 15.0025 14.0617 15.0025 15.9949C14.9982 17.9324 13.4345 19.4962 11.5013 19.4962ZM20.5015 24.9994C21.8805 24.9994 23.0018 26.1164 23.0018 27.4997C23.0018 28.8787 21.8805 30 20.5015 30C19.1224 30 18.0012 28.8787 18.0012 27.4997C18.0012 26.1164 19.1181 24.9994 20.5015 24.9994Z" fill="white"/>
</svg>
