<svg width="74" height="74" viewBox="0 0 74 74" fill="none" xmlns="http://www.w3.org/2000/svg">
<path d="M37.1608 23.3825C37.1608 17.1656 42.2149 12.1084 48.4279 12.1084C54.6409 12.1084 59.6949 17.1656 59.6949 23.3825C59.6949 29.5994 54.6409 34.6566 48.4279 34.6566C42.2149 34.6566 37.1608 29.5994 37.1608 23.3825ZM73.547 6.83855C73.547 3.29526 70.6691 0.412309 67.2471 0.412309H67.2407C67.1312 0.409088 56.0058 0 47.6134 0C37.9398 0 37.0707 0.467069 36.0244 1.51395L21.065 16.4827L1.87879 35.6809C-0.632153 38.1934 -0.625716 42.2843 1.89489 44.8065L29.1805 72.1092C30.4038 73.33 32.023 74 33.7517 74C35.4772 74 37.09 73.3332 38.2972 72.1253L59.6467 50.7625L72.4428 37.9583C73.5695 36.8309 74.6319 35.7679 73.547 6.83855" fill="#FF8D46"/>
</svg>
