<svg width="38" height="38" viewBox="0 0 38 38" fill="none" xmlns="http://www.w3.org/2000/svg">
<path d="M19 38C8.50693 38 0 29.4931 0 19C0 8.50693 8.50693 0 19 0C29.4931 0 38 8.50693 38 19C38 29.4931 29.4931 38 19 38ZM31.7883 15.4626C32.4503 15.059 34.0472 14.728 31.6717 13.7214C28.9416 12.627 23.4528 10.6273 21.0512 9.66382C19.7051 9.00769 18.9308 9.32182 17.4648 9.89773C14.9889 10.808 10.3174 12.4784 7.49191 13.5204C5.32591 14.31 5.45511 14.9002 7.45729 15.83C10.4576 17.2241 16.5004 19.3656 17.7696 19.8301C19.0388 20.2945 19.961 20.2979 21.2403 19.7372C22.5205 19.1765 24.3707 18.4579 30.1408 16.1483V19.5742L28.7812 20.775L30.7673 22.6987L32.729 20.7168L31.7883 19.8022V15.4626ZM21.519 21.4548C20.3156 22.0712 18.6327 21.9133 17.306 21.4548C15.1544 20.7396 13.376 20.2008 11.7918 19.5742V25.97C11.7918 25.97 14.5059 28.7111 19.5295 28.7111C24.1942 28.7111 26.8483 25.97 26.8483 25.97V19.1182C24.7963 19.9711 22.9148 20.8958 21.519 21.4548V21.4548Z" fill="#FF6F5D"/>
</svg>
