<svg width="38" height="38" viewBox="0 0 38 38" fill="none" xmlns="http://www.w3.org/2000/svg">
<path d="M19 38C8.50693 38 0 29.4931 0 19C0 8.50693 8.50693 0 19 0C29.4931 0 38 8.50693 38 19C38 29.4931 29.4931 38 19 38Z" fill="#FF6F5D"/>
<path d="M18.0619 9C18.8565 9 19.5007 9.65502 19.5007 10.4614V11.9229H29.6471C30.3944 11.9229 31 12.5386 31 13.2984V26.6245C31 26.9893 30.8575 27.3391 30.6037 27.5971C30.35 27.8551 30.0059 28 29.6471 28H9.35294C8.99412 28 8.64999 27.8551 8.39627 27.5971C8.14254 27.3391 8 26.9893 8 26.6245V13.2984C8 12.5386 8.6056 11.9229 9.35294 11.9229H10.8748V10.4614C10.8748 9.65502 11.5191 9 12.3122 9H18.0619ZM18.0619 15.2125C16.7283 15.2125 15.4494 15.7511 14.5065 16.7098C13.5635 17.6685 13.0338 18.9688 13.0338 20.3246C13.0338 21.6804 13.5635 22.9807 14.5065 23.9394C15.4494 24.8981 16.7283 25.4367 18.0619 25.4367C19.3954 25.4367 20.6743 24.8981 21.6173 23.9394C22.5602 22.9807 23.0899 21.6804 23.0899 20.3246C23.0899 18.9688 22.5602 17.6685 21.6173 16.7098C20.6743 15.7511 19.3954 15.2125 18.0619 15.2125ZM18.0619 16.6681C19.0157 16.6681 19.9304 17.0534 20.6049 17.7391C21.2794 18.4248 21.6583 19.3548 21.6583 20.3246C21.6583 21.2944 21.2794 22.2244 20.6049 22.9101C19.9304 23.5958 19.0157 23.9811 18.0619 23.9811C17.1081 23.9811 16.1933 23.5958 15.5188 22.9101C14.8444 22.2244 14.4655 21.2944 14.4655 20.3246C14.4655 19.3548 14.8444 18.4248 15.5188 17.7391C16.1933 17.0534 17.1081 16.6681 18.0619 16.6681V16.6681ZM26.6878 14.8457C26.499 14.8457 26.3121 14.8835 26.1376 14.9569C25.9632 15.0303 25.8048 15.138 25.6713 15.2737C25.5378 15.4094 25.4319 15.5705 25.3596 15.7478C25.2874 15.9251 25.2502 16.1152 25.2502 16.3071C25.2502 16.4991 25.2874 16.6891 25.3596 16.8664C25.4319 17.0438 25.5378 17.2049 25.6713 17.3406C25.8048 17.4763 25.9632 17.5839 26.1376 17.6574C26.3121 17.7308 26.499 17.7686 26.6878 17.7686C27.069 17.7685 27.4345 17.6145 27.7041 17.3405C27.9736 17.0664 28.125 16.6947 28.125 16.3071C28.125 15.9196 27.9736 15.5479 27.7041 15.2738C27.4345 14.9997 27.069 14.8458 26.6878 14.8457Z" fill="#FFF7F7"/>
</svg>
