<svg width="38" height="38" viewBox="0 0 38 38" fill="none" xmlns="http://www.w3.org/2000/svg">
<path d="M19 38C8.50693 38 0 29.4931 0 19C0 8.50693 8.50693 0 19 0C29.4931 0 38 8.50693 38 19C38 29.4931 29.4931 38 19 38Z" fill="#FF6F5D"/>
<g clip-path="url(#clip0_669_47)">
<path d="M16.5225 16.5325H14.005V13.5954C14.005 12.956 14.1315 12.36 14.3846 11.8072C14.6377 11.2544 14.9873 10.7682 15.4336 10.3487C15.8798 9.92907 16.4059 9.5994 17.012 9.35964C17.618 9.11988 18.2807 9 19 9C19.6394 9 20.2554 9.11988 20.8482 9.35964C21.4409 9.5994 21.967 9.92907 22.4266 10.3487C22.8861 10.7682 23.2524 11.2544 23.5255 11.8072C23.7985 12.36 23.9351 12.956 23.9351 13.5954V16.5325H21.5175V14.1548C21.5175 13.3157 21.2844 12.6663 20.8182 12.2068C20.352 11.7473 19.7193 11.5175 18.9201 11.5175C18.2008 11.5175 17.6214 11.7473 17.1818 12.2068C16.7423 12.6663 16.5225 13.3157 16.5225 14.1548V16.5325ZM25.1339 17.7313C25.4935 17.7313 25.8032 17.8611 26.0629 18.1209C26.3227 18.3806 26.4525 18.6903 26.4525 19.0499V25.2438C26.4525 25.6034 26.3893 25.9397 26.2627 26.2527C26.1362 26.5658 25.963 26.8388 25.7433 27.0719C25.5235 27.305 25.2637 27.4882 24.964 27.6214C24.6643 27.7546 24.3347 27.8212 23.975 27.8212H13.8851C13.5255 27.8212 13.1991 27.7546 12.9061 27.6214C12.6131 27.4882 12.3633 27.3117 12.1568 27.0919C11.9504 26.8721 11.7905 26.6157 11.6773 26.3227C11.5641 26.0296 11.5075 25.7166 11.5075 25.3836V19.0499C11.5075 18.6903 11.634 18.3806 11.8871 18.1209C12.1402 17.8611 12.4466 17.7313 12.8062 17.7313H14.005H16.5225H21.5175H23.9351H25.1339V17.7313Z" fill="white"/>
</g>
<defs>
<clipPath id="clip0_669_47">
<rect width="20" height="20" fill="white" transform="translate(9 9)"/>
</clipPath>
</defs>
</svg>
