<svg width="34" height="34" viewBox="0 0 34 34" fill="none" xmlns="http://www.w3.org/2000/svg">
<path d="M24.5395 33.8173C24.3724 33.8173 24.2097 33.7635 24.0754 33.6641C23.9411 33.5646 23.8423 33.4246 23.7936 33.2648L19.38 18.9125L14.1163 23.375L14.1801 31.1377C14.1812 31.3444 14.1002 31.5431 13.9548 31.6902L12.6522 33.0183C12.5608 33.1117 12.4474 33.1807 12.3224 33.2189C12.1974 33.2571 12.0648 33.2632 11.9368 33.2368C11.8088 33.2103 11.6895 33.1521 11.5899 33.0675C11.4902 32.9829 11.4135 32.8747 11.3666 32.7527L8.54246 25.4575L0.968964 22.2042C0.852049 22.1544 0.749061 22.0768 0.668957 21.9782C0.588852 21.8796 0.534059 21.7629 0.509342 21.6383C0.484625 21.5136 0.490734 21.3848 0.527136 21.2631C0.563539 21.1414 0.629134 21.0304 0.718214 20.9398L2.01659 19.6095C2.09403 19.5307 2.18726 19.4691 2.29016 19.4288C2.39307 19.3885 2.50333 19.3705 2.61371 19.3758L10.5612 19.7625L15.0343 14.2736L0.580089 9.68365C0.452591 9.64355 0.337537 9.57136 0.245968 9.474C0.154399 9.37664 0.0893879 9.25739 0.0571728 9.12767C0.0249577 8.99796 0.0266198 8.86214 0.0619996 8.73326C0.0973794 8.60437 0.16529 8.48674 0.259214 8.39165L2.73909 5.85865C2.82114 5.77466 2.92106 5.71022 3.03142 5.67012C3.14178 5.63002 3.25976 5.61529 3.37659 5.62702L21.2011 7.42265L26.2522 2.35877C28.2625 0.325148 30.1898 0.00427246 31.161 0.00427246H31.1758C32.0768 0.00427246 32.8737 0.272022 33.3093 0.705523C34.3612 1.7574 34.3081 4.75577 31.4755 7.64577L31.4691 7.65427L26.3755 12.7415L27.7992 30.4407C27.8081 30.5517 27.7932 30.6634 27.7555 30.7682C27.7177 30.873 27.658 30.9685 27.5803 31.0484L25.0962 33.5835C25.0236 33.6575 24.937 33.7163 24.8414 33.7565C24.7458 33.7966 24.6431 33.8173 24.5395 33.8173V33.8173Z" fill="#96A4FE"/>
</svg>
