<svg width="34" height="34" viewBox="0 0 34 34" fill="none" xmlns="http://www.w3.org/2000/svg">
<g clip-path="url(#clip0_639_62)">
<path d="M34.0133 21.5355C34.0133 28.3721 28.3887 34 21.5521 34C14.7156 34 9.08769 28.3754 9.08769 21.5355C9.08769 14.7289 14.3006 9.64883 17.9828 4.92734C18.8893 3.76855 20.2207 3.1875 21.5521 3.1875C22.8836 3.1875 24.215 3.76855 25.1182 4.92734C28.8004 9.64883 34.0133 14.7322 34.0133 21.5355Z" fill="#96A4FE"/>
<path d="M13.2148 8.54316C13.2148 11.7273 10.5951 14.3438 7.41426 14.3438C4.23008 14.3438 1.61367 11.724 1.61367 8.54316C1.61367 5.37559 4.04082 3.0082 5.7541 0.810156C6.17578 0.268945 6.79336 0 7.41426 0C8.03184 0 8.65273 0.268945 9.07441 0.810156C10.7877 3.0082 13.2148 5.37227 13.2148 8.54316ZM6.375 21.0275C6.375 22.7773 4.9373 24.215 3.1875 24.215C1.4377 24.215 0 22.7773 0 21.0275C0 19.2877 1.33477 17.9861 2.27441 16.7809C2.50684 16.4854 2.84551 16.3359 3.1875 16.3359C3.52949 16.3359 3.86816 16.4854 4.10059 16.7809C5.04023 17.9895 6.375 19.2877 6.375 21.0275Z" fill="#96A4FE"/>
</g>
<defs>
<clipPath id="clip0_639_62">
<rect width="34" height="34" fill="white"/>
</clipPath>
</defs>
</svg>
