<svg width="46" height="46" viewBox="0 0 46 46" fill="none" xmlns="http://www.w3.org/2000/svg">
<path d="M26.3347 45.3265H19.645C9.13933 45.3265 0.612305 36.7995 0.612305 26.2938V19.6041C0.612305 9.09843 9.13933 0.571411 19.645 0.571411H26.3347C36.8404 0.571411 45.3674 9.09843 45.3674 19.6041V26.2938C45.3674 36.7995 36.8404 45.3265 26.3347 45.3265Z" fill="#6370FF"/>
<path d="M45.3674 26.2938V19.6041C45.3674 9.09843 36.8404 0.571411 26.3347 0.571411H19.645C9.13933 0.571411 0.612305 9.09843 0.612305 19.6041V26.2938C0.612305 36.7995 9.13933 45.3265 19.645 45.3265H26.3347C26.9471 45.3265 27.5596 45.2794 28.1249 45.2323C35.6155 42.4057 41.6928 36.7053 45.0847 29.4973C45.2732 28.4609 45.3674 27.3774 45.3674 26.2938V26.2938Z" fill="#6370FF"/>
<path d="M45.3674 20.7635V19.7657C45.3674 9.17085 36.8404 0.571411 26.3347 0.571411H19.645C9.13933 0.618922 0.612305 9.21836 0.612305 19.8133V26.5598C0.612305 35.6818 6.92513 43.3311 15.405 45.279C16.0175 45.3265 16.5828 45.3265 17.1952 45.3265C31.564 45.3265 43.3888 34.6841 45.3674 20.7635V20.7635Z" fill="#6874FF"/>
<path d="M26.3294 0.571411H19.6411C9.13758 0.571411 0.612305 9.02877 0.612305 19.4486V26.0837C0.612305 31.6908 3.06155 36.6904 6.97093 40.1481C10.1267 41.4564 13.5651 42.2041 17.1918 42.2041C31.6047 42.2041 43.2858 30.6161 43.2858 16.318C43.2858 13.8415 42.909 11.4585 42.2967 9.16895C38.9525 4.02912 33.0649 0.571411 26.3294 0.571411V0.571411Z" fill="#6D79FF"/>
<path d="M41.2041 16.4201C41.2041 11.9994 39.9741 7.81394 37.8451 4.28683C34.6754 1.93542 30.7487 0.571605 26.4908 0.571605H19.7255C9.17538 0.524577 0.612305 9.03667 0.612305 19.5239V26.2019C0.612305 29.5409 1.51119 32.6918 3.02511 35.4195C6.99913 38.3822 11.9667 40.1223 17.3127 40.1223C30.4648 40.1693 41.2041 29.4939 41.2041 16.4201V16.4201Z" fill="#717DFE"/>
<path d="M19.8436 0.665792C9.22831 0.665792 0.612305 9.2073 0.612305 19.7308V26.4319C0.612305 27.942 0.802714 29.4049 1.13593 30.7734C5.08691 35.2566 10.942 38.0408 17.4159 38.0408C29.4117 38.0408 39.1225 28.4139 39.1225 16.5219C39.1225 10.7646 36.8376 5.57362 33.1722 1.70399C31.1253 0.996127 28.9356 0.571411 26.6507 0.571411H19.8436V0.665792Z" fill="#7681FE"/>
<path d="M19.4485 0.571411C9.05128 0.571411 0.612305 9.18053 0.612305 19.7873V26.2561C3.876 32.0589 10.0304 35.9592 17.0706 35.9592C27.5145 35.9592 36.0001 27.3025 36.0001 16.6481C36.0001 9.98912 32.7364 4.13873 27.701 0.66654C27.1881 0.618975 26.6286 0.571411 26.0691 0.571411H19.4485V0.571411Z" fill="#7B86FE"/>
<path d="M22.6441 0.571411H19.5907C9.25592 0.571411 0.847186 9.00577 0.612305 19.5008C1.88066 27.6476 8.83314 33.8775 17.1479 33.8775C26.4022 33.8775 33.9184 26.2099 33.9184 16.7692C33.9184 9.24538 29.2208 2.87169 22.6441 0.571411V0.571411Z" fill="#808AFE"/>
<path d="M2.69385 16.1837C2.69385 18.0973 3.07075 19.9921 3.80303 21.76C4.53531 23.5279 5.60864 25.1342 6.96172 26.4873C8.3148 27.8404 9.92115 28.9137 11.689 29.646C13.4569 30.3783 15.3517 30.7552 17.2653 30.7552C19.1788 30.7552 21.0736 30.3783 22.8415 29.646C24.6094 28.9137 26.2158 27.8404 27.5688 26.4873C28.9219 25.1342 29.9952 23.5279 30.7275 21.76C31.4598 19.9921 31.8367 18.0973 31.8367 16.1837C31.8367 12.3192 30.3015 8.61285 27.5688 5.88018C24.8362 3.1475 21.1299 1.6123 17.2653 1.6123C13.4007 1.6123 9.69439 3.1475 6.96172 5.88018C4.22905 8.61285 2.69385 12.3192 2.69385 16.1837V16.1837Z" fill="#848EFD"/>
<path d="M4.77551 16.7041C4.77551 19.8786 6.0914 22.9231 8.43369 25.1678C10.776 27.4125 13.9528 28.6735 17.2653 28.6735C20.5778 28.6735 23.7546 27.4125 26.0969 25.1678C28.4392 22.9231 29.7551 19.8786 29.7551 16.7041C29.7551 13.5297 28.4392 10.4852 26.0969 8.24049C23.7546 5.9958 20.5778 4.73474 17.2653 4.73474C13.9528 4.73474 10.776 5.9958 8.43369 8.24049C6.0914 10.4852 4.77551 13.5297 4.77551 16.7041V16.7041Z" fill="#8993FD"/>
<path d="M7.89795 16.704C7.89795 18.0025 8.14024 19.2883 8.611 20.4879C9.08175 21.6876 9.77174 22.7776 10.6416 23.6957C11.5114 24.6139 12.5441 25.3422 13.6806 25.8391C14.8171 26.336 16.0352 26.5918 17.2653 26.5918C18.4954 26.5918 19.7135 26.336 20.85 25.8391C21.9865 25.3422 23.0192 24.6139 23.889 23.6957C24.7588 22.7776 25.4488 21.6876 25.9196 20.4879C26.3903 19.2883 26.6326 18.0025 26.6326 16.704C26.6326 14.0816 25.6457 11.5667 23.889 9.71234C22.1323 7.85803 19.7497 6.81628 17.2653 6.81628C14.7809 6.81628 12.3983 7.85803 10.6416 9.71234C8.88486 11.5667 7.89795 14.0816 7.89795 16.704V16.704Z" fill="#8E97FD"/>
<g opacity="0.8">
<path d="M22.5 30.2498C17.6752 30.2498 13.75 26.3245 13.75 21.4998C13.75 16.675 17.6752 12.7498 22.5 12.7498C27.3247 12.7498 31.25 16.675 31.25 21.4998C31.25 22.639 31.0339 23.7482 30.6077 24.7962C30.5201 25.011 30.3508 25.1823 30.137 25.2724C29.9232 25.3625 29.6823 25.3641 29.4673 25.2768C29.2524 25.1893 29.081 25.02 28.9908 24.8062C28.9006 24.5923 28.899 24.3514 28.9864 24.1364C29.3272 23.2992 29.5017 22.4037 29.5 21.4998C29.5 17.6401 26.3596 14.4998 22.5 14.4998C18.6404 14.4998 15.5 17.6401 15.5 21.4998C15.5 25.3594 18.6404 28.4998 22.5 28.4998C23.5937 28.4998 24.6408 28.2548 25.6118 27.772C25.8196 27.6687 26.06 27.6521 26.28 27.726C26.5 27.7999 26.6817 27.9581 26.785 28.1659C26.8884 28.3738 26.9049 28.6141 26.8311 28.8341C26.7572 29.0542 26.5989 29.2358 26.3911 29.3392C25.1827 29.9416 23.8503 30.2534 22.5 30.2498Z" fill="white"/>
<path d="M22.5 18.583C20.8918 18.583 19.5834 19.8914 19.5834 21.4997C19.5834 23.1079 20.8918 24.4163 22.5 24.4163C23.2736 24.4163 24.0155 24.1091 24.5624 23.5621C25.1094 23.0151 25.4167 22.2732 25.4167 21.4997C25.4167 19.8914 24.1083 18.583 22.5 18.583ZM22.5 26.1663C19.927 26.1663 17.8334 24.0728 17.8334 21.4997C17.8334 18.9266 19.927 16.833 22.5 16.833C25.0731 16.833 27.1667 18.9266 27.1667 21.4997C27.1669 22.1126 27.0463 22.7195 26.8118 23.2857C26.5773 23.852 26.2336 24.3665 25.8002 24.7998C25.3668 25.2332 24.8523 25.577 24.2861 25.8114C23.7198 26.0459 23.1129 26.1665 22.5 26.1663Z" fill="white"/>
<path d="M27.6961 27.0533C27.5357 27.0533 27.3797 27.0375 27.2295 27.0066C26.1453 26.7826 25.4167 25.8166 25.4167 24.6033V17.708C25.4167 17.5931 25.4394 17.4793 25.4834 17.3732C25.5273 17.267 25.5918 17.1705 25.673 17.0893C25.7543 17.008 25.8507 16.9436 25.9569 16.8996C26.0631 16.8556 26.1768 16.833 26.2917 16.833C26.4067 16.833 26.5204 16.8556 26.6266 16.8996C26.7328 16.9436 26.8292 17.008 26.9105 17.0893C26.9917 17.1705 27.0562 17.267 27.1001 17.3732C27.1441 17.4793 27.1667 17.5931 27.1667 17.708V24.603C27.1667 24.8285 27.2207 25.2178 27.5838 25.2931C27.9852 25.3748 28.5953 25.0428 28.9937 24.1194C29.0886 23.9108 29.2615 23.7477 29.4753 23.6652C29.6891 23.5827 29.9268 23.5873 30.1372 23.6781C30.3477 23.7689 30.5141 23.9386 30.6008 24.1507C30.6875 24.3629 30.6875 24.6006 30.6008 24.8127C29.916 26.3982 28.7231 27.0536 27.6958 27.0536" fill="white"/>
</g>
</svg>
