<svg width="149" height="149" viewBox="0 0 149 149" fill="none" xmlns="http://www.w3.org/2000/svg">
<path d="M85.6071 148.847H63.3931C28.5077 148.847 0.192627 120.532 0.192627 85.6468V63.4327C0.192627 28.5473 28.5077 0.2323 63.3931 0.2323H85.6071C120.492 0.2323 148.808 28.5473 148.808 63.4327V85.6468C148.808 120.532 120.492 148.847 85.6071 148.847Z" fill="#24C570"/>
<path d="M148.808 85.6468V63.4327C148.808 28.5473 120.492 0.2323 85.6071 0.2323H63.3931C28.5077 0.2323 0.192627 28.5473 0.192627 63.4327V85.6468C0.192627 120.532 28.5077 148.847 63.3931 148.847H85.6071C87.6408 148.847 89.6744 148.691 91.5517 148.534C116.425 138.992 136.762 120.376 147.869 96.2845C148.495 92.9993 148.808 89.4012 148.808 85.6468V85.6468Z" fill="#24C570"/>
<path d="M148.808 73.7576V63.4327C148.808 28.5473 120.492 0.2323 85.6071 0.2323H63.3931C28.5077 0.2323 0.192627 28.5473 0.192627 63.4327V85.6468C0.192627 119.124 26.1611 146.501 58.8564 148.691C103.128 146.97 139.578 115.526 148.808 73.7576Z" fill="#28C775"/>
<path d="M85.6071 0.2323H63.3931C28.5077 0.2323 0.192627 28.5473 0.192627 63.4327V85.6467C0.192627 107.391 11.2996 126.633 28.0384 138.053C36.6424 140.869 45.8722 142.277 55.4148 142.277C104.849 142.277 144.74 102.385 144.74 52.9515C144.74 47.7891 144.114 42.6266 143.489 37.4642C133.32 15.7195 111.263 0.2323 85.6071 0.2323V0.2323Z" fill="#2BCA79"/>
<path d="M85.6071 0.2323H63.3931C28.5077 0.2323 0.192627 28.5473 0.192627 63.4327V85.6467C0.192627 100.352 5.1986 113.805 13.8026 124.599C26.0047 131.639 40.3969 135.863 55.4148 135.863C101.094 135.863 138.326 98.631 138.326 52.9515C138.326 41.0623 135.667 29.7988 131.287 19.474C119.71 7.74126 103.441 0.2323 85.6071 0.2323Z" fill="#2FCC7E"/>
<path d="M131.13 62.1813C133.477 42.4702 128.001 23.8542 117.677 9.1492C108.134 3.51747 97.1834 0.2323 85.6071 0.2323H63.3931C28.5077 0.2323 0.192627 28.5473 0.192627 63.4327V85.8032C0.195906 94.461 1.95198 103.029 5.35504 110.99C19.5908 123.192 38.2067 130.388 58.7 129.449C95.9319 127.885 126.906 99.1003 131.13 62.1813V62.1813Z" fill="#32CF82"/>
<path d="M63.393 0.2323C28.5077 0.2323 0.192627 28.5473 0.192627 63.4327V85.6468C0.192627 89.7141 0.505501 93.625 1.28768 97.536C14.1155 113.18 33.6701 123.035 55.5712 123.035C92.1774 122.879 122.995 93.9379 125.342 57.3317C126.593 36.2127 118.302 16.6582 104.379 3.04816C98.4349 1.17092 92.1774 0.2323 85.6071 0.2323H63.393V0.2323Z" fill="#36D187"/>
<path d="M0.192627 63.4327V84.5517C14.4284 109.582 45.2464 123.817 77.6288 112.71C96.8705 106.14 111.576 90.027 116.582 70.3159C124.091 41.3751 112.201 14.9373 90.9259 0.388737C89.0487 0.2323 87.1715 0.2323 85.2942 0.2323H63.2366C28.5077 0.2323 0.192627 28.5473 0.192627 63.4327Z" fill="#39D48B"/>
<path d="M77.3159 0.2323H63.3931C28.5077 0.2323 0.192627 28.5473 0.192627 63.4327V68.1258C6.76297 92.53 28.977 110.364 55.4148 110.364C87.015 110.364 112.671 84.7081 112.671 53.1079C112.358 29.1731 97.9656 8.83632 77.3159 0.2323Z" fill="#3DD690"/>
<path d="M54.6333 2.57886C49.4708 2.57886 44.4649 3.36104 39.6153 4.76897C28.1954 9.30564 18.6528 16.6582 11.6132 26.3572C6.76361 34.1791 3.94775 43.2524 3.94775 53.1079C3.94775 81.1101 26.6311 103.793 54.6333 103.793C82.6354 103.95 105.319 81.2665 105.319 53.2644C105.319 25.2622 82.6354 2.57886 54.6333 2.57886Z" fill="#40D994"/>
<path d="M10.3618 53.2644C10.3618 65.0059 15.0261 76.2666 23.3287 84.5691C31.6312 92.8717 42.8918 97.536 54.6334 97.536C66.375 97.536 77.6356 92.8717 85.9381 84.5691C94.2407 76.2666 98.905 65.0059 98.905 53.2644C98.905 41.5228 94.2407 30.2622 85.9381 21.9596C77.6356 13.6571 66.375 8.9928 54.6334 8.9928C42.8918 8.9928 31.6312 13.6571 23.3287 21.9596C15.0261 30.2622 10.3618 41.5228 10.3618 53.2644V53.2644Z" fill="#44DB99"/>
<path d="M16.7749 53.2646C16.7749 63.305 20.7635 72.9343 27.8632 80.034C34.9629 87.1337 44.5921 91.1222 54.6326 91.1222C64.6731 91.1222 74.3023 87.1337 81.402 80.034C88.5017 72.9343 92.4903 63.305 92.4903 53.2646C92.4903 43.2241 88.5017 33.5948 81.402 26.4951C74.3023 19.3954 64.6731 15.4069 54.6326 15.4069C44.5921 15.4069 34.9629 19.3954 27.8632 26.4951C20.7635 33.5948 16.7749 43.2241 16.7749 53.2646V53.2646Z" fill="#47DE9D"/>
<path d="M23.189 53.2645C23.189 61.6039 26.5018 69.6017 32.3986 75.4986C38.2955 81.3954 46.2933 84.7082 54.6327 84.7082C62.9721 84.7082 70.97 81.3954 76.8668 75.4986C82.7637 69.6017 86.0765 61.6039 86.0765 53.2645C86.0765 44.925 82.7637 36.9272 76.8668 31.0303C70.97 25.1335 62.9721 21.8207 54.6327 21.8207C46.2933 21.8207 38.2955 25.1335 32.3986 31.0303C26.5018 36.9272 23.189 44.925 23.189 53.2645V53.2645Z" fill="#4BE0A2"/>
<path opacity="0.8" d="M56.4086 49.1188H93.7755C97.8607 49.1188 101.225 51.7261 101.225 54.9541V84.1308C101.225 87.3589 97.9808 89.9661 93.7755 89.9661H75.1521L60.3735 101.264L61.2146 89.842H56.5287C52.4436 89.842 49.0793 87.2347 49.0793 84.0066V54.9541C49.0793 51.7261 52.3234 49.1188 56.4086 49.1188V49.1188ZM89.8106 73.7017C92.3337 73.7017 94.3763 71.591 94.3763 68.9838C94.3763 66.3765 92.3337 64.2658 89.8106 64.2658C87.2874 64.2658 85.2448 66.3765 85.2448 68.9838C85.2448 71.591 87.2874 73.7017 89.8106 73.7017ZM75.5126 73.7017C78.0358 73.7017 80.0783 71.591 80.0783 68.9838C80.0783 66.3765 78.0358 64.2658 75.5126 64.2658C72.9894 64.2658 70.9468 66.3765 70.9468 68.9838C70.9468 71.591 72.9894 73.7017 75.5126 73.7017ZM60.8542 73.7017C63.3773 73.7017 65.4199 71.591 65.4199 68.9838C65.4199 66.3765 63.3773 64.2658 60.8542 64.2658C58.331 64.2658 56.2884 66.3765 56.2884 68.9838C56.2884 71.591 58.331 73.7017 60.8542 73.7017Z" fill="white"/>
</svg>
