<svg width="149" height="149" viewBox="0 0 149 149" fill="none" xmlns="http://www.w3.org/2000/svg">
<path d="M85.4145 148.847H63.2004C28.315 148.847 0 120.532 0 85.6468V63.4327C0 28.5473 28.315 0.2323 63.2004 0.2323H85.4145C120.3 0.2323 148.615 28.5473 148.615 63.4327V85.6468C148.615 120.532 120.3 148.847 85.4145 148.847Z" fill="#FF9A23"/>
<path d="M148.615 85.6468V63.4327C148.615 28.5473 120.3 0.2323 85.4145 0.2323H63.2004C28.315 0.2323 0 28.5473 0 63.4327V85.6468C0 120.532 28.315 148.847 63.2004 148.847H85.4145C87.4481 148.847 89.4818 148.691 91.3591 148.534C116.232 139.148 136.413 120.219 147.676 96.2845C148.302 92.8428 148.615 89.2448 148.615 85.6468V85.6468Z" fill="#FF9A23"/>
<path d="M85.4145 0.2323H63.2004C28.315 0.2323 0 28.5474 0 63.4328V85.6468C0 109.894 13.7664 131.013 33.9468 141.651C40.83 143.216 47.8696 144.154 55.2222 144.154C105.438 144.154 146.268 103.324 146.268 53.1079C146.268 50.4485 146.112 47.7891 145.956 45.2861C138.134 19.1611 114.042 0.2323 85.4145 0.2323V0.2323Z" fill="#FF9F23"/>
<path d="M135.318 53.1079C135.318 39.1851 131.72 26.0444 125.462 14.468C114.512 5.55115 100.745 0.2323 85.5709 0.2323H63.2005C28.3151 0.2323 0 28.5474 0 63.4328V85.6468C0 97.6924 3.44161 109.112 9.38621 118.655C22.3705 127.728 38.1706 133.047 55.2222 133.047C99.3374 133.204 135.318 97.2231 135.318 53.1079Z" fill="#FFA423"/>
<path d="M63.2004 0.2323C28.315 0.2323 0 28.5473 0 63.4327V85.6468C0 89.0884 0.312873 92.3735 0.782184 95.6587C13.4536 111.772 33.0082 122.097 55.2222 122.097C93.3927 122.097 124.367 91.122 124.367 52.9515C124.211 33.084 115.763 15.0938 102.31 2.57885C96.9908 1.17092 91.3591 0.2323 85.5709 0.2323H63.2004Z" fill="#FFAA23"/>
<path d="M79.3134 0.2323H63.2004C28.315 0.2323 0 28.5473 0 63.4327V71.2546C7.97827 95.5023 31.4438 112.71 58.8202 110.99C87.761 109.269 111.227 85.9596 113.104 57.0188C114.825 31.989 100.432 9.93138 79.3134 0.2323V0.2323Z" fill="#FFAF23"/>
<path d="M8.75952 53.7339C8.75952 59.9176 9.97747 66.0406 12.3438 71.7535C14.7102 77.4665 18.1786 82.6573 22.5511 87.0298C26.9236 91.4023 32.1145 94.8707 37.8274 97.2371C43.5403 99.6035 49.6634 100.821 55.847 100.821C62.0306 100.821 68.1537 99.6035 73.8666 97.2371C79.5795 94.8707 84.7704 91.4023 89.1428 87.0298C93.5153 82.6573 96.9838 77.4665 99.3501 71.7535C101.716 66.0406 102.934 59.9176 102.934 53.7339C102.934 47.5503 101.716 41.4273 99.3501 35.7144C96.9838 30.0014 93.5153 24.8106 89.1428 20.4381C84.7704 16.0656 79.5795 12.5972 73.8666 10.2308C68.1537 7.86444 62.0306 6.64648 55.847 6.64648C49.6634 6.64648 43.5403 7.86444 37.8274 10.2308C32.1145 12.5972 26.9236 16.0656 22.5511 20.4381C18.1786 24.8106 14.7102 30.0014 12.3438 35.7144C9.97747 41.4273 8.75952 47.5503 8.75952 53.7339V53.7339Z" fill="#FFB423"/>
<path d="M19.8674 53.5772C19.8674 58.3023 20.7981 62.981 22.6063 67.3464C24.4145 71.7117 27.0648 75.6782 30.4059 79.0193C33.747 82.3604 37.7134 85.0107 42.0788 86.8188C46.4441 88.627 51.1229 89.5577 55.8479 89.5577C60.5729 89.5577 65.2517 88.627 69.617 86.8188C73.9824 85.0107 77.9488 82.3604 81.2899 79.0193C84.631 75.6782 87.2813 71.7117 89.0895 67.3464C90.8977 62.981 91.8283 58.3023 91.8283 53.5772C91.8283 44.0346 88.0376 34.8829 81.2899 28.1352C74.5423 21.3876 65.3905 17.5968 55.8479 17.5968C46.3053 17.5968 37.1535 21.3876 30.4059 28.1352C23.6582 34.8829 19.8674 44.0346 19.8674 53.5772V53.5772Z" fill="#FFB923"/>
<path opacity="0.8" d="M65.7469 51.6728C66.6618 47.071 71.2359 44.0031 75.9408 44.8979C79.6001 45.537 82.3446 48.3492 82.8674 51.9284C89.6633 55.1241 94.4989 62.2824 94.4989 70.719L94.8909 77.7495C94.8909 77.7495 94.8909 79.7948 96.0672 82.9905C98.4196 82.9905 100.38 84.9079 100.38 87.3366C100.38 89.6375 98.4196 91.5549 95.9365 91.5549H52.5472C50.1947 91.5549 48.2344 89.6375 48.2344 87.3366C48.2344 85.0357 50.1947 83.1183 52.5472 83.1183H52.6779C53.7234 79.9226 53.7234 77.8774 53.7234 77.8774L53.3313 70.8469C53.3313 62.0268 58.8203 54.6128 65.7469 51.6728V51.6728ZM82.9981 95.901C82.9981 100.631 79.0774 104.338 74.2418 104.338C69.4063 104.338 65.4855 100.503 65.4855 95.7732L82.9981 95.901V95.901Z" fill="white"/>
</svg>
