<svg width="505" height="677" viewBox="0 0 505 677" fill="none" xmlns="http://www.w3.org/2000/svg">
  <g clip-path="url(#clip0_2676_1906)">
  <path d="M220.919 347.981L207.135 332.682L200.381 326.203L192.387 318.898L183.565 311.73L174.054 305.114L167.3 300.979L153.655 294.501L146.487 292.158L139.458 290.779L132.428 290.228L125.536 290.641L119.058 291.606L113.131 293.26L107.479 295.328L96.4525 300.704L72.0555 316.417L56.7557 325.101L43.2478 330.476L36.0803 332.268L28.2236 333.509L19.6777 333.922V320.138L26.8452 319.725L33.4614 318.76L39.664 317.106L51.3801 312.42L64.888 304.563L90.3878 288.298L102.793 282.233L109.547 279.89L116.577 278.098L124.158 276.858L132.428 276.444L138.493 276.72L144.833 277.685L151.311 279.201L158.203 281.406L165.371 284.439L173.641 288.712L182.325 293.95L191.56 300.566L201.208 308.285L217.059 323.033L231.808 339.436L220.919 347.981Z" fill="url(#paint0_linear_2676_1906)"/>
  <path d="M215.68 450.945L179.292 412.627L178.051 410.008L177.638 407.527V404.632L178.465 400.635L179.843 396.224L182.875 390.298L233.737 299.463L242.007 288.023L246.142 283.061L256.756 272.447L267.093 264.866L275.777 260.731L280.326 259.491L284.874 258.939L289.561 259.215L296.177 261.421L299.623 263.35L306.239 269.002L309.409 272.861L316.025 283.612L319.747 291.607L323.469 301.807L327.19 314.488L320.85 327.444L313.958 339.849L306.515 351.841L298.658 363.419L282.393 384.646L269.85 399.395L258.134 412.076L246.418 423.792L227.534 441.021L215.68 450.945Z" fill="#D9E6FF"/>
  <path d="M228.225 464.039L196.385 430.407L197.487 423.929L201.623 414.832L252.484 323.86L264.062 308.698L273.849 298.498L279.362 293.811L283.359 290.917L291.63 286.23L296.04 284.714L300.313 283.749L304.724 283.474L308.997 283.887L313.408 285.128L317.956 287.471L324.021 292.433L330.5 300.565L336.702 316.83L339.735 327.581L333.394 340.538L326.502 352.943L319.197 364.935L311.202 376.513L295.076 397.74L282.395 412.488L270.679 425.169L259.1 436.885L240.217 454.115L228.225 464.039Z" fill="#637FA8"/>
  <path d="M83.9105 481.958L80.7402 476.307L78.6726 474.239L76.0538 472.309L69.0241 469.415L64.889 468.312L57.4459 467.623L55.2405 468.174L50.4162 472.034L41.8704 480.58L37.1839 486.369L32.3596 493.261L26.7084 503.598L24.3651 509.25L22.4354 515.177L21.0571 521.241L20.23 527.72L19.6787 538.609L20.23 555.425L21.0571 561.352L22.4354 566.176L24.0895 570.449L26.157 573.895L28.9137 576.927L32.2218 579.546L36.2191 581.614L41.1812 583.13L44.6271 583.543L47.5216 583.268L52.8973 581.2L57.308 577.479L60.2026 573.895L62.5458 569.898L65.9917 562.041L68.4728 553.219L83.9105 481.958Z" fill="#6A87AA"/>
  <path d="M323.608 538.609L309.549 553.219L292.319 568.519L281.568 577.065L268.611 586.3L249.314 598.292L227.122 610.008L214.993 615.383L202.036 620.621L196.247 622.275L190.734 623.102L185.082 623.24L174.193 622L168.955 620.621L161.512 618.002L154.621 614.832L143.042 608.078L132.567 600.083L67.3701 496.431L75.9159 480.993L76.743 480.304H78.2592L80.8781 481.269L85.151 483.474L113.132 501.668L130.775 512.006L145.937 519.036L157.653 522.482L163.442 523.309L168.955 523.447L179.707 522.068L194.317 521.241L220.231 522.619L248.763 525.79L276.606 529.925L323.608 538.609Z" fill="#788AA8"/>
  <path d="M195.557 622.414L193.076 625.032L189.216 627.1H186.735L183.289 625.308L181.222 623.241L178.879 619.933L173.503 607.114L168.403 589.884L166.335 580.373L163.441 561.49L163.027 552.531L163.303 544.812L164.406 539.712L165.646 538.885L166.473 539.436L168.954 543.847L173.779 558.044L179.292 579.271L180.946 590.849L183.703 601.876L185.77 607.665L188.389 613.179L190.457 616.762L195.557 622.414Z" fill="#A04333"/>
  <path d="M81.704 481.546L78.5337 479.754L77.2932 479.892L76.0527 480.857L70.4014 489.816L66.8176 499.051L66.542 503.048L67.369 503.875L68.4717 503.737L73.8473 499.189L74.3986 493.951L75.6392 490.229L78.9473 484.854L81.704 481.546Z" fill="#A04333"/>
  <path d="M72.056 480.58L70.2641 476.859L68.6101 474.378L66.4047 472.172L63.648 470.243L55.9291 467.072L51.5184 465.97L47.3833 465.28L43.5239 465.143L41.1807 465.694L35.9429 469.829L26.8457 479.064L21.8836 485.267L16.6458 492.71L10.581 503.737L7.96212 509.939L5.89457 516.28L4.37836 522.896L3.55134 529.788L3 541.504L3.55134 559.561L4.51621 565.901L5.89457 571.139L7.68643 575.687L10.0297 579.409L12.235 582.166L14.8539 584.509L18.0242 586.439L21.7457 588.093L26.1565 589.333L29.7402 589.747L33.0483 589.609L35.9429 588.644L38.6996 587.266L43.5239 583.268L46.5563 579.409L49.0373 575.136L52.7589 566.59L55.5156 557.217L72.056 480.58Z" fill="#CFE3FF"/>
  <path d="M399.142 352.531L405.758 358.734L410.307 364.247L416.096 373.345L421.885 385.612L424.09 392.917L426.985 404.358L428.501 408.355L430.569 412.214L433.601 416.349L437.185 420.347L441.871 424.068L449.452 428.203L459.376 431.236L484.049 436.611L489.838 438.679L496.592 442.401L499.349 444.744L501.692 447.363L503.346 450.533L504.587 454.392L505 458.252L504.587 462.938L503.346 468.727L501.417 474.241L498.935 478.652L496.317 482.097L493.009 485.13L489.563 487.335L485.841 488.989L477.847 490.919H467.509L455.655 488.989L435.255 483.476L424.228 480.03L411.823 474.792L405.758 471.346L400.245 467.211L396.799 464.179L391.147 457.011L389.08 453.014L387.564 448.603L386.737 443.779L386.323 435.922L387.426 417.039L390.183 396.639L395.283 369.485L399.142 352.531Z" fill="#DAE4F7"/>
  <path d="M397.901 355.976L399.418 365.624L400.658 381.475L400.796 391.537L400.382 402.151L399.004 413.867L397.764 421.723L393.353 437.988L390.458 446.12L386.737 454.115L382.326 462.109L361.926 495.466L353.242 508.009L340.148 524.687L332.291 533.371L324.159 541.503L314.786 549.773L304.448 558.181L287.494 569.622L267.37 580.924L256.895 586.024L232.911 595.673L205.758 604.219L191.147 607.94L175.158 611.386L157.79 614.556L148.555 615.108L143.455 614.556L130.912 611.524L115.75 605.459L104.448 599.67L93.0074 592.916L81.8427 585.611L71.5049 578.306L53.4484 564.384L40.6296 553.357L34.9783 547.844L32.3594 542.744L31.1189 538.884L30.4297 533.371L30.981 525.101L32.3594 520.001L34.2891 515.039L37.1837 509.387L41.4566 503.047L46.143 497.12L52.4835 490.504L60.7537 483.061L62.9591 483.198L77.8454 489.539L134.91 519.174L137.529 520.001L140.561 520.414L144.145 520.001L151.588 517.795L162.063 512.695L168.404 508.56L174.744 504.012L186.185 494.363L195.282 485.128L198.177 481.269L200.106 477.823L209.755 453.426L226.984 405.734L236.771 381.062L246.695 359.421L253.449 347.843L259.927 339.711L262.96 337.23L279.362 331.165L290.94 326.065L293.559 325.514L296.316 325.652L323.056 334.197L397.901 355.976Z" fill="#D9E6FF"/>
  <path d="M249.178 464.316L252.899 464.041L259.653 462.387L273.575 455.77L281.294 451.36L289.426 445.984L297.283 440.057L304.726 433.303L310.79 426.963L315.615 420.898L319.474 414.833L322.507 408.906L324.712 402.703L326.09 396.501L326.504 390.574L326.09 384.509L323.334 372.104L321.266 366.728L316.304 356.942L309.274 347.155L300.591 338.196L292.045 331.58L285.566 327.858L282.81 327.031L281.156 327.996L280.742 328.823L280.604 329.788L281.569 331.442L287.634 334.474L296.455 340.953L301.418 345.639L309.826 355.839L315.615 366.177L317.958 371.966L319.888 378.306L321.266 385.336L321.542 389.747L320.715 398.43L318.923 404.633L316.166 410.422L312.996 415.936L305.277 425.722L294.112 436.198L286.531 441.987L278.675 447.225L271.231 451.497L257.861 457.7L253.588 458.941L249.315 459.354L244.767 458.941L240.356 457.976L231.397 454.668L224.918 451.084L213.202 442.676L197.489 428.203L195.559 428.065L194.732 428.617L193.905 430.271L194.594 432.063L205.07 442.4L216.097 451.084L223.678 456.046L230.57 459.63L236.91 462.111L241.321 463.351L249.178 464.316Z" fill="#7498D1"/>
  <path d="M397.074 424.757L394.593 434.13L388.804 449.843L382.326 462.11L370.058 482.372L364.407 482.51L352.691 480.856L335.875 476.17L352.691 426.135L362.34 428.065L375.71 429.305L384.807 428.478L397.074 424.757Z" fill="#D84545"/>
  <path d="M388.114 453.842L389.217 453.566L390.181 452.601L395.557 441.161L399.968 426.55L401.898 416.212L403.414 404.496L404.516 381.478L403.276 355.702L403 354.737L401.484 353.635L399.554 353.91L398.452 355.289L398.314 356.254L399.416 373.483L399.279 391.126L398.452 403.807L397.073 415.11L395.144 425.034L393.214 432.615L391.008 439.231L385.633 451.085L386.046 452.877L388.114 453.842Z" fill="#7498D1"/>
  <path d="M34.9793 547.843L32.3604 542.743L31.1198 538.883L30.4307 533.37L30.982 525.1L32.3604 520L34.2901 515.038L37.1846 509.386L41.4576 503.046L46.144 497.119L52.4845 490.503L60.7547 483.06H62.4087L60.8925 483.887L58.4115 486.919L52.898 496.016L46.971 508.146L44.2143 514.9L40.0792 527.994L39.1144 533.645L38.8387 540.262L39.39 542.605L40.4927 544.81L45.1792 550.324L49.8656 554.597L62.6844 564.383L85.1517 578.994L114.097 596.912L120.162 598.98L124.573 599.256L128.294 598.842L134.221 596.361L139.321 592.088L151.727 615.107L145.248 614.831L138.77 613.728L131.603 611.799L117.543 606.285L99.3488 596.775L88.5976 590.158L68.6113 576.237L51.9331 563.005L40.2171 552.943L34.9793 547.843Z" fill="#94A4C4" fill-opacity="0.8"/>
  <path d="M138.631 524.827L141.939 520.279L148.004 519.038L147.039 528.824L147.729 543.849L150.347 560.94L152.553 569.624L155.172 577.619L157.377 582.718L162.477 590.851L167.301 595.262L172.677 597.743L179.707 598.018L185.082 597.329L193.352 595.537L213.752 589.059L247.936 575.689L269.576 566.316L300.038 552.119L305.689 557.219L288.873 568.935L268.473 580.375L246.419 590.575L233.738 595.399L219.955 600.086L206.309 604.083L191.56 607.805L175.434 611.388L157.791 614.559L151.588 615.11L132.429 573.07L138.631 524.827Z" fill="#94A4C4" fill-opacity="0.64"/>
  <path d="M58.2723 479.615L60.4777 479.34L61.5803 479.891L62.1317 480.718L62.2695 483.061H60.7533L52.4831 490.505L46.1426 497.121L41.4562 503.048L37.1833 509.388L34.2888 515.039L32.359 520.002L30.9807 525.102L30.4293 533.372L31.1185 538.885L32.359 542.745L34.9779 547.845L33.7374 549.912L33.0482 550.188L32.2212 549.774L30.0158 546.466L27.1212 538.196L26.1564 533.785L26.0186 529.374L26.4321 524.964L28.7753 516.142L34.0131 505.529L42.1454 494.226L50.2777 485.542L53.5858 482.648L58.2723 479.615Z" fill="#DB6445"/>
  <path d="M212.511 445.983L214.441 452.461L216.922 457.423L220.23 462.661L225.33 469.139L234.152 477.823L240.216 482.647L246.695 487.058L254.413 491.607L263.649 496.293L273.021 500.29L284.186 504.287L297.281 508.285L310.375 511.455L345.11 517.52L346.488 518.622L347.453 520.001L348.142 523.585L348.004 525.514L346.902 528.409L345.248 530.752L343.869 531.993L340.561 532.682L325.261 530.614L315.751 528.822L293.559 523.309L281.567 519.449L268.886 514.625L252.346 506.631L244.214 501.944L236.495 496.706L229.327 490.917L222.573 484.577L217.887 479.339L213.614 473.963L209.892 468.037L206.584 461.834L205.068 457.147L204.379 453.15V450.531L204.792 448.602L205.757 447.085L207.136 446.121L209.203 445.707L212.511 445.983Z" fill="#DB6445"/>
  <path d="M305.687 557.217L290.663 542.882L282.531 534.061L274.123 523.861L263.509 509.113L254.136 493.124L250.139 484.853L246.831 476.445L243.523 465.143L241.042 454.805L239.388 445.57L238.423 437.024L238.147 428.203L238.285 420.208L238.974 412.903L242.007 399.671L246.28 388.368L252.758 377.479L256.893 372.379L261.028 368.106L265.577 364.384L273.571 359.284L277.569 357.768L281.566 357.079L285.701 357.217L294.109 359.422L298.244 361.49L304.033 365.074L309.133 369.347L313.682 373.895L316.99 378.306L318.782 381.338L320.022 385.887L320.298 422.689L321.125 437.851L322.503 450.532L323.606 455.494L324.709 458.113L326.638 460.594L332.841 466.383L343.592 474.24L351.449 479.34L357.927 485.129L364.406 491.607L357.376 502.083L349.381 513.248L337.39 527.858L322.917 542.607L305.687 557.217Z" fill="#94A4C4" fill-opacity="0.8"/>
  <path d="M345.798 517.934L333.669 531.855L314.096 528.547L296.315 524.136L276.605 517.658L266.543 513.523L256.894 498.223L252.621 490.229L266.405 497.258L274.951 500.842L293.421 507.182L316.026 512.558L343.042 516.969L345.798 517.934Z" fill="#A3412E"/>
  <path d="M400.796 345.363L403.001 346.879L404.793 349.636L404.931 351.565L403.966 354.184L402.588 355.976L398.59 358.457L388.666 361.49L380.809 363.006L372.401 363.833L363.166 364.384L353.793 364.108L344.283 363.144L338.08 362.041L326.64 358.457L319.472 354.46L310.651 347.292L296.591 334.198L291.078 330.339L287.77 328.96L287.494 327.03L288.183 325.79L290.527 323.585L292.181 323.033L294.11 323.171L299.486 325.928L307.894 331.579L327.191 345.914L379.569 351.014L400.796 345.363Z" fill="#DB6445"/>
  <path d="M444.352 270.242L443.249 284.164L442.009 290.917L437.736 303.598L431.809 315.452L428.225 320.828L419.817 330.89L410.03 339.436L404.655 343.157L393.077 349.222L380.533 353.495L374.055 354.874L360.272 355.976L346.626 354.874L333.807 351.565L321.677 346.466L316.026 343.157L305.551 335.301L296.453 326.066L292.456 320.828L285.702 309.663L280.464 297.396L278.672 290.917L276.605 277.41L276.191 270.242L276.605 263.075L277.294 256.183L280.464 243.088L285.702 230.821L288.872 225.032L296.453 214.418L305.551 205.183L310.65 201.048L321.677 194.019L327.604 191.262L340.01 186.989L346.626 185.611L353.38 184.784L360.272 184.508L374.055 185.611L380.533 186.989L393.077 191.262L404.655 197.327L410.03 201.048L419.817 209.594L428.225 219.518L431.809 225.032L437.736 236.748L442.009 249.567L443.249 256.183L444.352 270.242Z" fill="#EEF3FF"/>
  <path d="M441.733 276.583L441.319 284.44L440.217 292.021L438.425 299.326L435.944 306.218L432.774 312.972L429.19 319.312L424.917 325.101L420.23 330.477L414.993 335.439L409.341 339.85L403.414 343.571L396.936 346.879L390.32 349.36L383.29 351.29L376.123 352.393L368.542 352.806L360.823 352.393L353.655 351.29L346.626 349.36L340.01 346.879L333.531 343.571L327.604 339.85L321.953 335.439L316.715 330.477L312.029 325.101L307.756 319.312L304.172 312.972L301.002 306.218L298.521 299.326L296.729 292.021L295.626 284.44L295.213 276.583L295.626 268.588L296.729 261.145L298.521 253.84L301.002 246.948L304.172 240.194L307.756 233.854L312.029 228.064L316.715 222.689L321.953 217.727L327.604 213.316L333.531 209.594L340.01 206.286L346.626 203.805L353.655 201.876L360.823 200.773L368.542 200.359L376.123 200.773L383.29 201.876L390.32 203.805L396.936 206.286L403.414 209.594L409.341 213.316L414.993 217.727L420.23 222.689L424.917 228.064L429.19 233.854L432.774 240.194L435.944 246.948L438.425 253.84L440.217 261.145L441.319 268.588L441.733 276.583Z" fill="#97A9CC"/>
  <path d="M438.7 278.099L438.287 285.955L437.322 293.399L435.53 300.428L433.187 307.182L430.292 313.798L426.709 320.001L422.849 325.652L418.301 330.89L413.339 335.852L407.963 340.125L402.174 343.847L396.109 347.017L389.769 349.498L383.015 351.29L376.123 352.393L368.955 352.806L361.65 352.393L354.758 351.29L348.142 349.498L341.802 347.017L335.599 343.847L329.948 340.125L324.572 335.852L319.61 330.89L315.061 325.652L311.064 320.001L307.618 313.798L304.586 307.182L302.243 300.428L300.588 293.399L299.486 285.955L299.072 278.099L299.486 270.38L300.588 262.937L302.243 255.907L304.586 249.153L307.618 242.537L311.064 236.334L315.061 230.683L319.61 225.307L324.572 220.483L329.948 216.21L335.599 212.489L341.802 209.318L348.142 206.837L354.758 205.046L361.65 203.943L368.955 203.529L376.123 203.943L383.015 205.046L389.769 206.837L396.109 209.318L402.174 212.489L407.963 216.21L413.339 220.483L418.301 225.307L422.849 230.683L426.709 236.334L430.292 242.537L433.187 249.153L435.53 255.907L437.322 262.937L438.287 270.38L438.7 278.099Z" fill="#1D2751"/>
  <mask id="mask0_2676_1906" style="mask-type:luminance" maskUnits="userSpaceOnUse" x="299" y="203" width="140" height="150">
  <path d="M438.7 278.1L438.287 285.956L437.322 293.4L435.53 300.429L433.187 307.183L430.292 313.799L426.709 320.002L422.849 325.653L418.301 330.891L413.339 335.853L407.963 340.126L402.174 343.848L396.109 347.018L389.769 349.499L383.015 351.291L376.123 352.394L368.955 352.807L361.65 352.394L354.758 351.291L348.142 349.499L341.802 347.018L335.599 343.848L329.948 340.126L324.572 335.853L319.61 330.891L315.061 325.653L311.064 320.002L307.618 313.799L304.586 307.183L302.243 300.429L300.588 293.4L299.486 285.956L299.072 278.1L299.486 270.381L300.588 262.938L302.243 255.908L304.586 249.154L307.618 242.538L311.064 236.335L315.061 230.684L319.61 225.308L324.572 220.484L329.948 216.211L335.599 212.49L341.802 209.319L348.142 206.838L354.758 205.046L361.65 203.944L368.955 203.53L376.123 203.944L383.015 205.046L389.769 206.838L396.109 209.319L402.174 212.49L407.963 216.211L413.339 220.484L418.301 225.308L422.849 230.684L426.709 236.335L430.292 242.538L433.187 249.154L435.53 255.908L437.322 262.938L438.287 270.381L438.7 278.1Z" fill="white"/>
  </mask>
  <g mask="url(#mask0_2676_1906)">
  <path d="M452.486 259.492L451.659 266.522L448.902 276.722L446.559 282.235L442.148 288.989L439.391 292.022L436.083 294.64L432.361 296.708L427.951 298.224L420.645 299.051L411.273 297.811L407.137 296.295L403.278 294.365L399.694 291.884L394.732 287.335L390.184 282.373L375.297 263.352L373.092 261.284L370.886 260.044L368.957 259.492L365.787 259.63L359.17 262.387L347.868 268.589L343.457 270.243L338.771 271.208L335.463 271.346L327.882 270.106L323.195 268.314L318.784 265.833L314.925 262.8L311.479 259.217L308.584 255.495L306.241 251.498L304.312 247.087L302.382 238.817V234.682L302.933 230.822L304.174 227.514L305.414 225.447L310.238 220.622L320.438 213.455L332.568 206.701L356.276 195.536L424.505 214.833L452.486 259.492Z" fill="#11307F" fill-opacity="0.5"/>
  </g>
  <path d="M351.45 479.34L343.593 474.24L332.842 466.383L326.639 460.594L324.709 458.113L323.607 455.494L322.504 450.532L321.126 437.851L320.299 422.689L320.023 385.887L318.782 381.338L316.99 378.306L313.682 373.895L309.134 369.347L304.034 365.074L298.245 361.49L294.11 359.422L285.702 357.217L281.567 357.079L277.569 357.768L273.572 359.147L265.853 364.109L261.994 367.555L258.41 371.414L255.102 375.963L251.932 381.614L249.451 387.403L247.521 394.295L246.005 402.565L245.178 415.384L245.591 423.103L247.659 439.919L249.588 449.016L255.791 470.381L258.961 478.237L262.821 485.956L267.232 493.399L272.331 500.567L283.358 513.937L292.318 523.034L301.139 531.166L310.099 538.61L325.674 549.636L331.463 553.082L336.425 555.426L338.493 555.977L352.69 556.115L363.028 554.461L369.644 551.842L375.433 547.569L377.776 544.537L379.982 540.953L381.36 536.956L382.325 532.269L382.738 526.342L382.187 521.656L380.947 517.107L379.017 512.558L375.433 505.942L371.16 499.74L362.063 489.126L351.45 479.34Z" fill="#EEF3FF"/>
  <path d="M145.522 519.725L142.214 527.996L138.63 541.779L137.39 550.601L136.976 556.803L137.803 570.449L138.906 577.479L140.836 584.784L143.73 592.503L149.382 603.53L157.79 615.108L156.273 617.038L152.414 618.278L147.038 617.865L144.971 617.176L143.179 615.797L142.628 614.005L135.874 602.151L133.255 596.224L130.498 588.506L127.879 577.203L126.639 563.419L126.914 555.838L127.741 547.293L129.395 539.022L131.876 529.787L135.322 519.587L136.839 518.209L138.768 517.382L140.836 517.106L142.765 517.382L144.42 518.209L145.522 519.725Z" fill="#DB6445"/>
  <path d="M323.607 455.493L312.856 458.801L302.656 461.007L297.143 461.696L281.016 461.971L275.227 462.385L269.713 463.35L264.613 464.728L260.754 466.658L258.548 468.312L257.17 470.242L256.481 472.309L256.067 475.617L256.343 477.409L257.308 479.339H259.375L258.962 477.271L259.513 475.893L260.754 474.515L263.648 472.723L267.232 471.206L273.573 469.69L281.016 468.45L303.897 466.52L315.061 464.315L326.64 461.007L327.053 458.663L326.64 457.285L325.675 456.32L323.607 455.493Z" fill="#DB6445"/>
  <path d="M437.874 420.898L435.117 428.203L432.498 433.441L429.328 438.816L424.78 444.743L417.336 452.049L412.65 455.494L407.688 458.389L402.037 460.87L395.558 462.8L394.869 463.627L395.421 465.281L397.488 466.246L399.004 466.108L406.585 464.04L411.272 461.973L415.958 459.216L421.334 455.081L428.363 447.776L435.255 437.576L438.288 431.235L441.32 423.792V422L440.769 421.173L439.942 420.76L437.874 420.898Z" fill="#BC4839"/>
  <path d="M350.207 223.24L350.759 224.619L350.621 226.273L349.794 228.478L347.726 231.373L344.556 233.854L340.834 235.646L337.251 236.473L335.045 236.335L333.529 235.646L332.426 234.543L331.875 233.164L332.013 231.51L332.702 229.305L334.907 226.411L338.078 223.929L341.799 222.138L345.383 221.311L347.588 221.448L349.105 222.138L350.207 223.24Z" fill="white"/>
  <path d="M328.431 238.953L328.707 240.194L327.88 241.71L325.675 242.95L324.985 242.261V241.572L325.675 239.918L327.191 238.953H328.431Z" fill="white"/>
  <path d="M432.324 150.924L433.757 156.335L435.507 159.677L437.576 163.019L440.759 166.202L448.398 171.295L455.401 174.319L458.265 174.956H458.902V174.637L450.785 168.112L453.809 168.908L456.833 170.659L461.607 174.16L466.541 178.616L472.589 185.778L469.883 177.82L465.745 169.067L458.743 159.837L478 175.115L476.09 169.226L471.634 162.065L467.814 158.086L463.199 154.425L457.151 150.606L474.021 153.948L465.268 141.694L461.607 135.009L456.356 129.758L454.605 128.484L432.324 150.924Z" fill="url(#paint1_linear_2676_1906)"/>
  <path d="M437.735 146.468L439.168 150.765L441.873 153.948L445.534 156.335L449.035 157.767L450.626 158.085L446.648 154.743L449.671 156.016L454.287 159.995L457.311 163.337L455.083 157.449L453.332 154.266L450.626 150.765L459.857 158.245L459.22 155.698L456.196 151.242L453.65 148.855L449.831 146.308L457.947 147.9L451.104 137.714L449.353 136.123L448.557 135.646L437.735 146.468Z" fill="url(#paint2_linear_2676_1906)"/>
  <path d="M439.964 144.239L440.919 146.945L442.033 148.218L446.807 150.446L444.738 148.695L446.33 149.332L450.149 153.151L449.035 149.968L446.648 146.467L451.582 150.446L451.422 149.809L449.194 146.149L446.33 144.08L450.627 145.035L446.489 139.146L445.693 138.51L439.964 144.239Z" fill="#FEC500"/>
  <path d="M380.443 122.914L379.17 130.553L379.329 133.736L381.557 141.853L385.377 148.059L388.56 151.402L399.382 159.677L407.817 164.929L407.657 159.2L408.612 152.516L410.045 146.627L411.636 143.444L380.443 122.914Z" fill="#87080E"/>
  <path d="M426.596 76.7615L434.235 75.4883L437.418 75.6474L445.534 77.8755L451.741 81.6951L455.083 84.878L463.359 95.7001L468.611 104.135L462.881 103.976L456.197 104.931L450.309 106.363L447.126 107.954L426.596 76.7615Z" fill="#87080E"/>
  <path d="M378.692 122.277L372.167 114.956L366.437 106.999L361.504 98.7231L357.366 90.2882L354.342 81.8534L352.273 74.0551L351 64.3471L351.955 56.5489L353.228 53.5251L354.979 51.1379L358.003 49.0689L361.504 47.6366L365.96 47L375.668 47.7957L381.238 49.0689L389.514 51.7744L397.79 55.2757L405.906 59.4135L413.227 63.8697L419.752 68.485L424.526 72.6228L431.211 79.6253L440.919 91.8797L447.603 103.657L453.173 117.343L455.56 125.778L455.401 127.37L452.218 132.781L445.375 140.738L436.144 149.014L430.574 152.833L427.709 152.993L424.845 152.197L414.818 147.9L402.723 140.897L389.991 131.985L378.692 122.277Z" fill="url(#paint3_linear_2676_1906)"/>
  <path d="M414.977 88.856L414.658 93.153L413.385 97.2908L411.316 101.11L408.611 104.452L405.269 107.158L401.449 109.227L397.47 110.5L393.014 110.818L388.717 110.5L384.739 109.227L380.919 107.158L377.577 104.452L374.871 101.11L372.802 97.2908L371.529 93.153L371.052 88.856L371.529 84.559L372.802 80.4211L374.871 76.7607L377.577 73.4186L380.919 70.554L384.739 68.6442L388.717 67.371L393.014 66.8936L397.47 67.371L401.449 68.6442L405.269 70.554L408.611 73.4186L411.316 76.7607L413.385 80.4211L414.658 84.559L414.977 88.856Z" fill="url(#paint4_linear_2676_1906)"/>
  <path d="M407.021 88.8556L406.543 92.6752L405.111 95.8581L402.883 98.7228L400.018 100.951L396.835 102.224L393.016 102.861L389.355 102.224L386.013 100.951L383.308 98.7228L381.08 95.8581L379.647 92.6752L379.17 88.8556L379.647 85.1952L381.08 81.8531L383.308 78.9885L386.013 76.9195L389.355 75.4872L393.016 75.0098L396.835 75.4872L400.018 76.9195L402.883 78.9885L405.111 81.8531L406.543 85.1952L407.021 88.8556Z" fill="url(#paint5_linear_2676_1906)"/>
  <path d="M428.505 127.528L417.842 135.326L405.11 142.488L416.251 148.695L421.503 151.082L428.823 153.151L430.574 152.833L434.712 150.127L443.624 142.647L451.582 133.576L455.56 127.051V125.778L452.855 116.865L446.966 102.383L442.669 110.977L440.282 114.796L433.12 123.231L428.505 127.528Z" fill="#A40629"/>
  <path d="M414.182 110.182L435.507 128.325L445.375 138.351L446.011 139.942L443.624 142.33L442.51 142.011L440.441 140.101L426.754 125.46L414.182 110.182Z" fill="url(#paint6_linear_2676_1906)"/>
  <path d="M354.979 51.1379L353.387 53.3659L352.114 56.3897L351 63.8697L351.955 73.1002L353.865 80.5802L356.729 88.8559L361.345 80.7393L366.278 73.5777L372.167 67.0526L381.079 60.0501L392.538 53.0476L385.058 50.183L377.737 48.114L368.506 47L360.708 47.7957L357.684 49.2281L354.979 51.1379Z" fill="#A40629"/>
  <path d="M226.066 122.709L224.619 136.996L220.459 150.197L213.949 162.132L205.269 172.621L194.78 181.302L182.844 187.812L169.643 191.791L155.357 193.237L147.942 192.876L134.198 190.163L121.539 184.738L110.327 177.142L100.742 167.558L93.147 156.346L87.7218 143.687L85.0091 129.943L84.6475 122.709L85.0091 115.295L87.7218 101.551L93.147 88.8916L100.742 77.6794L110.327 68.0948L115.752 63.9355L127.869 57.4252L140.889 53.4467L155.357 52L169.643 53.4467L182.844 57.4252L194.78 63.9355L205.269 72.6159L213.949 83.1047L220.459 95.0403L224.619 108.242L226.066 122.709Z" fill="url(#paint7_linear_2676_1906)"/>
  <path d="M130.4 104.805L118.103 100.284L93.1471 89.0723L89.5303 96.8484L116.295 109.507L129.496 114.571L143.421 117.284L197.312 121.985L205.088 123.07L215.939 126.326L219.736 128.134L225.342 131.751L226.066 124.879L225.161 111.497L223.715 104.986L219.194 92.5082L209.247 92.3274L203.099 93.0507L193.695 94.6783L153.186 104.082L144.506 105.348L138.9 105.891L130.4 104.805Z" fill="#ED6943"/>
  <path d="M221.724 146.76L197.673 147.303L175.972 145.856L164.94 144.41L154.09 142.239L138.537 137.538L134.74 136.995L132.027 137.176L129.676 138.08L128.049 139.346L127.325 141.335V146.037L130.038 153.632L136.548 162.675L140.346 166.291L144.505 169.185L148.484 170.632L160.6 172.621L175.61 174.068L191.343 174.248L205.63 172.259L210.512 166.834L214.853 160.685L218.65 153.994L221.724 146.76Z" fill="#ED6943"/>
  <path d="M225.704 128.496L225.161 133.56L228.959 137.358L231.129 140.794L232.033 143.145V147.123L229.501 150.74L226.97 152.187L218.651 154.357L204.907 154.899L192.971 153.995L178.866 151.825L164.218 148.57L148.303 144.049L132.57 138.623L118.645 133.017L105.806 126.688L95.4978 120.901L84.4664 112.582L78.8603 105.891L77.7753 103.359L77.5944 98.8384L79.9454 95.5832L82.1155 94.1365L86.2748 92.5089L91.8809 91.4239L94.051 87.2646L82.8389 86.3604H73.7968L63.308 87.6262L56.436 90.3388L54.4467 92.1472L53.1808 94.3173L53 96.6682L53.5425 99.2001L55.1701 102.455L58.2444 106.072L69.0949 114.933L77.4136 120.359L96.2211 130.305L107.976 135.549L126.06 142.602L146.495 149.655L167.292 155.442L186.28 159.963L198.939 162.314L219.917 164.846L229.863 165.207L243.969 163.941L248.49 162.675L251.564 161.048L253.553 159.239L254.638 157.25L255 154.718L254.096 151.825L252.107 148.389L248.49 144.23L243.064 139.709L235.65 134.464L225.704 128.496Z" fill="#FFDFD7"/>
  </g>
  <defs>
  <linearGradient id="paint0_linear_2676_1906" x1="52115.9" y1="25919.3" x2="84756.9" y2="25919.3" gradientUnits="userSpaceOnUse">
  <stop stop-color="#E2E76A" stop-opacity="0"/>
  <stop offset="0.5056" stop-color="#E2E76A" stop-opacity="0.5"/>
  <stop offset="1" stop-color="#007CC1"/>
  </linearGradient>
  <linearGradient id="paint1_linear_2676_1906" x1="26040.2" y1="183906" x2="26873" y2="183906" gradientUnits="userSpaceOnUse">
  <stop stop-color="#FFB702"/>
  <stop offset="0.4918" stop-color="#FF9300"/>
  <stop offset="1" stop-color="#D57900"/>
  </linearGradient>
  <linearGradient id="paint2_linear_2676_1906" x1="12954" y1="88735.8" x2="13150.2" y2="88735.8" gradientUnits="userSpaceOnUse">
  <stop stop-color="#FF810D"/>
  <stop offset="0.4918" stop-color="#F46600"/>
  <stop offset="0.9696" stop-color="#E44900"/>
  </linearGradient>
  <linearGradient id="paint3_linear_2676_1906" x1="58144.6" y1="334171" x2="62202.2" y2="334171" gradientUnits="userSpaceOnUse">
  <stop offset="0.1474" stop-color="#E0EBFF"/>
  <stop offset="0.9522" stop-color="#B8CBFE"/>
  </linearGradient>
  <linearGradient id="paint4_linear_2676_1906" x1="24984" y1="138255" x2="26002.9" y2="138255" gradientUnits="userSpaceOnUse">
  <stop stop-color="#CADCFE"/>
  <stop offset="1" stop-color="#A5C5FF"/>
  </linearGradient>
  <linearGradient id="paint5_linear_2676_1906" x1="16139.4" y1="87692.7" x2="16495.4" y2="87695.9" gradientUnits="userSpaceOnUse">
  <stop stop-color="#0600D1"/>
  <stop offset="1" stop-color="#020264"/>
  </linearGradient>
  <linearGradient id="paint6_linear_2676_1906" x1="18592.5" y1="102294" x2="18654.5" y2="102294" gradientUnits="userSpaceOnUse">
  <stop stop-color="#A80263"/>
  <stop offset="1" stop-color="#7E3167"/>
  </linearGradient>
  <linearGradient id="paint7_linear_2676_1906" x1="-115623" y1="-130898" x2="-104566" y2="-130898" gradientUnits="userSpaceOnUse">
  <stop offset="0.5808" stop-color="#E83F08"/>
  <stop offset="0.9696" stop-color="#F4AA32"/>
  </linearGradient>
  <clipPath id="clip0_2676_1906">
  <rect width="505" height="677" fill="white"/>
  </clipPath>
  </defs>
  </svg>
  