<?xml version="1.0" encoding="utf-8"?>
<svg width="505px" height="677px" viewBox="0 0 505 677" version="1.1" xmlns:xlink="http://www.w3.org/1999/xlink" xmlns="http://www.w3.org/2000/svg">
  <desc>Created with Lunacy</desc>
  <defs>
    <radialGradient gradientUnits="objectBoundingBox" cx="50%" cy="46.35184%" fx="50%" fy="46.35184%" r="43.12863%" gradientTransform="translate(0.5,0.4635184),scale(0.9994749,1),rotate(-90),scale(1,0),translate(-0.5,-0.4635184)" id="gradient_1">
      <stop offset="0%" stop-color="#F58F9A" />
      <stop offset="100%" stop-color="#FFCBD1" />
    </radialGradient>
    <radialGradient gradientUnits="objectBoundingBox" cx="50%" cy="46.35184%" fx="50%" fy="46.35184%" r="43.12863%" gradientTransform="translate(0.5,0.4635184),scale(0.9994747,1),rotate(-90),scale(1,0),translate(-0.5,-0.4635184)" id="gradient_2">
      <stop offset="0%" stop-color="#F58F9A" />
      <stop offset="100%" stop-color="#FFCBD1" />
    </radialGradient>
  </defs>
  <g id="lizhong" transform="translate(1.5 1.5)">
    <g id="编组-26">
      <path d="M216.396 201.693C227.494 201.693 287.563 220.764 298.178 221.607C353.007 225.961 382.943 220.283 401.406 204.396C411.913 195.355 350.833 164.218 359.043 159.688C406.798 133.334 426 124.791 426 93.174C426 41.7154 330.636 0 213 0C95.3632 0 0 41.7154 0 93.174C0 115.779 18.4032 136.505 49.0134 152.639C57.4784 157.101 36.4216 187.213 40.2852 193.008C88.1636 264.82 86.8886 254.841 113.741 232.674C136.777 213.658 192.538 201.693 216.396 201.693Z" transform="translate(31.78512 308.369)" id="椭圆形" fill="#000000" fill-opacity="0.184012279" stroke="none" />
      <g id="编组" transform="matrix(0.8191521 0.5735765 -0.5735765 0.8191521 106.4834 417.3486)">
        <path d="M51.6775 2.64932e-16C51.6775 2.64932e-16 78.1876 34.877 78.1876 34.877C78.1876 34.877 74.1758 45.7036 74.196 55.0915C74.2162 64.4793 102.015 100.527 106.523 119.41C110.231 134.939 98.4549 147.455 94.1541 151.413C93.3417 152.16 92.0821 152.027 91.388 151.168L1.3136 39.755Q1.25012 39.6765 1.19487 39.5919Q1.13963 39.5074 1.09318 39.4178Q1.04673 39.3281 1.00955 39.2342Q0.972372 39.1404 0.944843 39.0432Q0.917313 38.9461 0.899714 38.8466Q0.882114 38.7472 0.874623 38.6465Q0.867131 38.5458 0.869825 38.4449Q0.872518 38.3439 0.885369 38.2438Q0.89822 38.1436 0.921097 38.0453Q0.943974 37.9469 0.976645 37.8514Q1.00932 37.7559 1.05145 37.6641Q1.09358 37.5723 1.14474 37.4853Q1.19591 37.3982 1.25558 37.3168Q1.31526 37.2353 1.38284 37.1603Q1.45042 37.0853 1.52521 37.0174Q1.60001 36.9496 1.68126 36.8897L51.6775 2.64932e-16Z" transform="matrix(0.8746197 -0.4848096 0.4848096 0.8746197 1.907349E-06 52.07348)" id="路径-15" fill="#3D231A" stroke="none" />
        <path d="M6.63741e-16 -1.13319e-12L31.8851 38.7264" transform="matrix(0.8746197 -0.4848096 0.4848096 0.8746197 40.84131 36.46582)" id="路径-16" fill="none" stroke="#D1D8E7" stroke-width="2" />
        <path d="M-3.22403e-13 3.9825e-16L88.7336 114.788" transform="matrix(0.8746197 -0.4848096 0.4848096 0.8746197 24.61426 75.50952)" id="路径-17" fill="none" stroke="#D1D8E7" stroke-width="2" />
        <path d="M4.37439 7.48203e-16C4.37439 7.48203e-16 -4.39115 10.2458 4.40798 23.7065C13.2071 37.1671 25.9251 33.4119 31.254 41.1196C36.5829 48.8273 27.2993 52.7027 36.2922 66.9815C45.2852 81.2604 55.5099 77.0866 60.6702 87.8263C65.8306 98.566 55.5535 107.827 55.5535 107.827" transform="matrix(0.8746197 -0.4848096 0.4848096 0.8746197 49.86279 61.86914)" id="路径-18" fill="none" stroke="#FFFFFF" stroke-opacity="0.3965774" stroke-width="3" />
        <path d="M4.03403e-16 9.80027e-13C5.04254e-15 9.90251e-13 29.0683 4.18554 29.0683 4.18554" transform="matrix(0.8746197 -0.4848096 0.4848096 0.8746197 84.02246 73.57788)" id="路径-19" fill="none" stroke="#A0C4FF" stroke-width="3" />
        <path d="M-3.03413e-13 -6.51641e-13L20.7628 2.79232" transform="matrix(0.8746197 -0.4848096 0.4848096 0.8746197 104.8613 79.34473)" id="路径-20" fill="none" stroke="#A0C4FF" stroke-width="3" />
        <path d="M3.04566e-13 1.30762e-12L20.7628 2.79232" transform="matrix(0.8746197 -0.4848096 0.4848096 0.8746197 116.5679 88.84595)" id="路径-21" fill="none" stroke="#A0C4FF" stroke-width="3" />
      </g>
      <g id="编组" transform="matrix(-0.8191521 0.5735765 0.5735765 0.8191521 395.0864 425.114)">
        <path d="M51.6775 -1.11748e-12C51.6775 -1.11748e-12 78.1876 34.877 78.1876 34.877C78.1876 34.877 74.1758 45.7036 74.196 55.0915C74.2162 64.4793 102.015 100.527 106.523 119.41C110.231 134.939 98.4549 147.455 94.1541 151.413C93.3417 152.16 92.0821 152.027 91.388 151.168L1.3136 39.755Q1.25012 39.6765 1.19487 39.5919Q1.13963 39.5074 1.09318 39.4178Q1.04673 39.3281 1.00955 39.2342Q0.972372 39.1404 0.944843 39.0432Q0.917313 38.9461 0.899714 38.8466Q0.882114 38.7472 0.874623 38.6465Q0.867131 38.5458 0.869825 38.4449Q0.872518 38.3439 0.885369 38.2438Q0.89822 38.1436 0.921097 38.0453Q0.943974 37.9469 0.976645 37.8514Q1.00932 37.7559 1.05145 37.6641Q1.09358 37.5723 1.14474 37.4853Q1.19591 37.3982 1.25558 37.3168Q1.31526 37.2353 1.38284 37.1603Q1.45042 37.0853 1.52521 37.0174Q1.60001 36.9496 1.68126 36.8897L51.6775 -1.11748e-12Z" transform="matrix(0.8746197 -0.4848096 0.4848096 0.8746197 1.907349E-06 52.07421)" id="路径-15" fill="#3D231A" stroke="none" />
        <path d="M-2.32531e-13 -5.66458e-13L31.8851 38.7264" transform="matrix(0.8746197 -0.4848096 0.4848096 0.8746197 40.84131 36.4668)" id="路径-16" fill="none" stroke="#D1D8E7" stroke-width="2" />
        <path d="M-3.24712e-13 3.98251e-16L88.7336 114.788" transform="matrix(0.8746197 -0.4848096 0.4848096 0.8746197 24.61426 75.50977)" id="路径-17" fill="none" stroke="#D1D8E7" stroke-width="2" />
        <path d="M4.37439 7.90476e-13C4.37439 7.90476e-13 -4.39115 10.2458 4.40798 23.7065C13.2071 37.1671 25.9251 33.4119 31.254 41.1196C36.5829 48.8273 27.2993 52.7027 36.2922 66.9815C45.2852 81.2604 55.5099 77.0866 60.6702 87.8263C65.8306 98.566 55.5535 107.827 55.5535 107.827" transform="matrix(0.8746197 -0.4848096 0.4848096 0.8746197 49.86279 61.87012)" id="路径-18" fill="none" stroke="#FFFFFF" stroke-opacity="0.3965774" stroke-width="3" />
        <path d="M6.05105e-16 -9.78169e-13C5.24424e-15 -9.67481e-13 29.0683 4.18554 29.0683 4.18554" transform="matrix(0.8746197 -0.4848096 0.4848096 0.8746197 84.02197 73.57813)" id="路径-19" fill="none" stroke="#A0C4FF" stroke-width="3" />
        <path d="M3.04277e-13 -1.30514e-12L20.7628 2.79232" transform="matrix(0.8746197 -0.4848096 0.4848096 0.8746197 104.8608 79.3457)" id="路径-20" fill="none" stroke="#A0C4FF" stroke-width="3" />
        <path d="M6.08267e-13 -1.30452e-12L20.7628 2.79232" transform="matrix(0.8746197 -0.4848096 0.4848096 0.8746197 116.5679 88.84668)" id="路径-21" fill="none" stroke="#A0C4FF" stroke-width="3" />
      </g>
      <path d="M34.2271 235.773C27.0485 227.318 30.3071 107.454 30.3071 107.454C30.3071 107.454 -5.13451 120.578 0.869869 102.996C3.39789 95.5935 3.64951 52.7601 20.971 32.249C29.6668 21.9519 50.7063 13.5126 80.9677 5.51872C90.8918 2.89717 120.905 0.0133888 120.905 0.0133888C120.905 0.0133888 143.407 12.3832 149.615 12.8613C165.581 14.0908 160.745 -0.502893 172.108 0.0133888C190.186 0.834792 203.471 -0.461827 231.106 9.13378C254.866 17.3839 276.67 38.6311 284.452 49.0498C297.588 66.6342 283.093 91.2956 284.452 96.1943C288.206 109.722 271.252 107.454 271.252 107.454C271.252 107.454 263.301 235.773 263.301 235.773C263.301 235.773 41.4057 244.227 34.2271 235.773Z" transform="translate(102.785 121.3691)" id="路径-51" fill="#2E3457" stroke="none" />
      <g id="编组-20" transform="translate(189.2674 191.369)">
        <path d="M48.9218 68C75.9406 68 97.8436 52.7777 97.8436 34C97.8436 15.2223 75.9406 0 48.9218 0C21.903 0 0 15.2223 0 34C0 52.7777 21.903 68 48.9218 68Z" transform="translate(14.53123 0)" id="椭圆形" fill="#FFFFFF" stroke="none" />
        <path d="M34.875 49.5428C54.1359 49.5428 69.7499 38.4523 69.7499 24.7714C69.7499 11.0905 54.1359 0 34.875 0C15.6141 0 0 11.0905 0 24.7714C0 38.4523 15.6141 49.5428 34.875 49.5428Z" transform="translate(28.09372 9.71429)" id="椭圆形" fill="#593B31" stroke="none" />
        <path d="M9.3212 0L118.974 0Q119.062 0 119.149 0.00511095Q119.236 0.0102219 119.323 0.0204264Q119.41 0.0306309 119.497 0.0458941Q119.583 0.0611573 119.668 0.0814273Q119.753 0.101697 119.837 0.126905Q119.921 0.152112 120.003 0.182172Q120.086 0.212231 120.166 0.24704Q120.246 0.281848 120.325 0.321287Q120.403 0.360727 120.479 0.404662Q120.554 0.448597 120.627 0.496879Q120.7 0.545161 120.771 0.597625Q120.841 0.650089 120.908 0.706555Q120.975 0.763022 121.038 0.8233Q121.102 0.883577 121.162 0.947459Q121.221 1.01134 121.278 1.07861Q121.334 1.14588 121.386 1.21631Q121.438 1.28674 121.486 1.36008Q121.533 1.43343 121.577 1.50944Q121.62 1.58546 121.659 1.66388Q121.698 1.7423 121.733 1.82287Q121.767 1.90343 121.797 1.98587Q121.826 2.0683 121.851 2.15232Q121.876 2.23633 121.896 2.32165Q121.915 2.40697 121.93 2.4933Q121.945 2.57962 121.955 2.66667Q121.964 2.75371 121.969 2.84117Q121.974 2.92863 121.973 3.01621Q121.972 3.10378 121.967 3.19119Q121.961 3.27859 121.951 3.36551Q121.94 3.45244 121.924 3.53859Q121.908 3.62474 121.888 3.70982Q121.867 3.79491 121.841 3.87864L118.019 16.3376Q117.984 16.4518 117.94 16.5628Q117.896 16.6737 117.843 16.7809Q117.79 16.888 117.729 16.9906Q117.668 17.0933 117.599 17.1907Q117.53 17.2881 117.454 17.3798Q117.377 17.4714 117.294 17.5567Q117.21 17.642 117.12 17.7204Q117.03 17.7987 116.934 17.8697Q116.838 17.9407 116.737 18.0038Q116.635 18.0669 116.529 18.1217Q116.423 18.1766 116.313 18.2228Q116.203 18.2691 116.09 18.3064Q115.977 18.3438 115.861 18.372Q115.745 18.4002 115.627 18.4191Q115.509 18.438 115.39 18.4475Q115.271 18.457 115.151 18.457L4.40719 18.4505Q4.31595 18.4505 4.22487 18.4449Q4.1338 18.4394 4.04323 18.4283Q3.95266 18.4172 3.86293 18.4007Q3.77321 18.3841 3.68465 18.3621Q3.5961 18.3401 3.50904 18.3128Q3.42199 18.2855 3.33676 18.2529Q3.25152 18.2203 3.16843 18.1826Q3.08534 18.1449 3.00469 18.1022Q2.92404 18.0596 2.84614 18.0121Q2.76823 17.9646 2.69336 17.9124Q2.61848 17.8603 2.54692 17.8037Q2.47536 17.7471 2.40736 17.6862Q2.33937 17.6254 2.27521 17.5605Q2.21104 17.4956 2.15094 17.427Q2.09083 17.3583 2.03502 17.2861Q1.9792 17.214 1.92787 17.1385Q1.87654 17.0631 1.8299 16.9847Q1.78325 16.9063 1.74146 16.8251Q1.69966 16.744 1.66288 16.6605Q1.62609 16.577 1.59445 16.4914Q1.56281 16.4059 1.53643 16.3185Q1.51005 16.2312 1.48903 16.1424Q1.46801 16.0536 1.45243 15.9637Q1.43685 15.8738 1.42676 15.7831Q1.41667 15.6924 1.41211 15.6013Q1.40756 15.5102 1.40855 15.4189Q1.40954 15.3277 1.41607 15.2367Q1.42261 15.1457 1.43467 15.0552Q1.44672 14.9648 1.46426 14.8752Q1.48179 14.7857 1.50473 14.6974Q1.52768 14.6091 1.55595 14.5223Q1.58422 14.4356 1.61771 14.3507L6.53154 1.89818Q6.6139 1.68945 6.72641 1.4953Q6.83893 1.30115 6.97908 1.12591Q7.11923 0.95066 7.2839 0.798222Q7.44857 0.645785 7.63409 0.51955Q7.81961 0.393314 8.02185 0.296093Q8.22409 0.198872 8.43855 0.132829Q8.65301 0.0667863 8.8749 0.0333931Q9.0968 0 9.3212 0Z" transform="translate(0 26.22856)" id="矩形" fill="#F58D48" stroke="none" />
      </g>
      <path d="M0 152.953C0 152.953 266.8 -63.1517 321.352 26.0743C375.903 115.3 41.3577 217 41.3577 217L0 152.953Z" transform="translate(125.785 297.369)" id="路径-50" fill="#432E27" stroke="none" />
      <path d="M278 0C278 0 271.54 41.4001 220.777 63.1835C170.015 84.9669 -6.34681e-14 163 -6.34681e-14 163" transform="translate(132.785 297.369)" id="路径-103" fill="none" stroke="#FFFFFF" stroke-width="1" />
      <path d="M0 153.658C0 153.658 266.8 -63.4427 321.352 26.1944C375.903 115.832 41.3577 218 41.3577 218L0 153.658Z" transform="matrix(-1 0 0 1 373.7847 303.369)" id="路径-50" fill="#54382F" stroke="none" />
      <path d="M4.999 0L198.001 0Q198.124 0 198.246 0.00602151Q198.369 0.012043 198.491 0.0240715Q198.613 0.0361001 198.734 0.0541066Q198.856 0.0721132 198.976 0.0960544Q199.096 0.119996 199.215 0.149814Q199.334 0.179632 199.452 0.215255Q199.569 0.250879 199.685 0.292221Q199.8 0.333564 199.914 0.380526Q200.027 0.427489 200.138 0.479957Q200.249 0.532426 200.357 0.590276Q200.466 0.648125 200.571 0.711215Q200.676 0.774305 200.778 0.842483Q200.88 0.910662 200.979 0.983765Q201.077 1.05687 201.172 1.13472Q201.267 1.21257 201.358 1.29499Q201.449 1.3774 201.536 1.46417Q201.622 1.55095 201.705 1.64188Q201.787 1.73281 201.865 1.82767Q201.943 1.92253 202.016 2.0211Q202.089 2.11967 202.157 2.2217Q202.225 2.32374 202.289 2.429Q202.352 2.53426 202.41 2.64249Q202.467 2.75072 202.52 2.86165Q202.572 2.97259 202.619 3.08597Q202.666 3.19934 202.708 3.31489Q202.749 3.43043 202.785 3.54787Q202.82 3.6653 202.85 3.78434Q202.88 3.90338 202.904 4.02374Q202.928 4.1441 202.946 4.26549Q202.964 4.38688 202.976 4.50901Q202.988 4.63114 202.994 4.75371Q203 4.87628 203 4.999L203 147.001Q203 147.124 202.994 147.246Q202.988 147.369 202.976 147.491Q202.964 147.613 202.946 147.734Q202.928 147.856 202.904 147.976Q202.88 148.097 202.85 148.216Q202.82 148.335 202.785 148.452Q202.749 148.57 202.708 148.685Q202.666 148.801 202.619 148.914Q202.572 149.027 202.52 149.138Q202.467 149.249 202.41 149.357Q202.352 149.466 202.289 149.571Q202.225 149.676 202.157 149.778Q202.089 149.88 202.016 149.979Q201.943 150.077 201.865 150.172Q201.787 150.267 201.705 150.358Q201.622 150.449 201.536 150.536Q201.449 150.623 201.358 150.705Q201.267 150.787 201.172 150.865Q201.077 150.943 200.979 151.016Q200.88 151.089 200.778 151.157Q200.676 151.226 200.571 151.289Q200.466 151.352 200.357 151.41Q200.249 151.467 200.138 151.52Q200.027 151.572 199.914 151.619Q199.8 151.666 199.685 151.708Q199.569 151.749 199.452 151.785Q199.334 151.82 199.215 151.85Q199.096 151.88 198.976 151.904Q198.856 151.928 198.734 151.946Q198.613 151.964 198.491 151.976Q198.369 151.988 198.246 151.994Q198.124 152 198.001 152L4.999 152Q4.87628 152 4.75371 151.994Q4.63114 151.988 4.50901 151.976Q4.38688 151.964 4.26549 151.946Q4.1441 151.928 4.02374 151.904Q3.90338 151.88 3.78434 151.85Q3.6653 151.82 3.54787 151.785Q3.43043 151.749 3.31489 151.708Q3.19934 151.666 3.08597 151.619Q2.97259 151.572 2.86165 151.52Q2.75072 151.467 2.64249 151.41Q2.53426 151.352 2.429 151.289Q2.32374 151.226 2.2217 151.157Q2.11967 151.089 2.0211 151.016Q1.92253 150.943 1.82767 150.865Q1.73281 150.787 1.64188 150.705Q1.55095 150.623 1.46417 150.536Q1.3774 150.449 1.29499 150.358Q1.21257 150.267 1.13472 150.172Q1.05687 150.077 0.983765 149.979Q0.910662 149.88 0.842483 149.778Q0.774305 149.676 0.711215 149.571Q0.648125 149.466 0.590276 149.357Q0.532426 149.249 0.479957 149.138Q0.427489 149.027 0.380526 148.914Q0.333564 148.801 0.292221 148.685Q0.250879 148.57 0.215255 148.452Q0.179632 148.335 0.149814 148.216Q0.119996 148.097 0.0960544 147.976Q0.0721132 147.856 0.0541066 147.734Q0.0361001 147.613 0.0240715 147.491Q0.012043 147.369 0.00602151 147.246Q0 147.124 0 147.001L0 4.999Q0 4.87628 0.00602151 4.75371Q0.012043 4.63114 0.0240715 4.50901Q0.0361001 4.38688 0.0541066 4.26549Q0.0721132 4.1441 0.0960544 4.02374Q0.119996 3.90338 0.149814 3.78434Q0.179632 3.6653 0.215255 3.54787Q0.250879 3.43043 0.292221 3.31489Q0.333564 3.19934 0.380526 3.08597Q0.427489 2.97259 0.479957 2.86165Q0.532426 2.75072 0.590276 2.64249Q0.648125 2.53426 0.711215 2.429Q0.774305 2.32374 0.842483 2.2217Q0.910662 2.11967 0.983765 2.0211Q1.05687 1.92253 1.13472 1.82767Q1.21257 1.73281 1.29499 1.64188Q1.3774 1.55095 1.46417 1.46417Q1.55095 1.3774 1.64188 1.29499Q1.73281 1.21257 1.82767 1.13472Q1.92253 1.05687 2.0211 0.983765Q2.11967 0.910662 2.2217 0.842483Q2.32374 0.774305 2.429 0.711215Q2.53426 0.648125 2.64249 0.590276Q2.75072 0.532426 2.86165 0.479957Q2.97259 0.427489 3.08597 0.380526Q3.19934 0.333564 3.31489 0.292221Q3.43043 0.250879 3.54787 0.215255Q3.6653 0.179632 3.78434 0.149814Q3.90338 0.119996 4.02374 0.0960544Q4.1441 0.0721132 4.26549 0.0541066Q4.38688 0.0361001 4.50901 0.0240715Q4.63114 0.012043 4.75371 0.00602151Q4.87628 0 4.999 0Z" transform="translate(149.785 254.369)" id="矩形" fill="#EBEAEA" stroke="none" />
      <path d="M0.965672 134.694C3.55846 181.011 60.405 190 83.059 190C93.1923 190 143.575 178.474 136.281 163.332C132.704 155.906 63.5309 139.545 63.5309 139.545C63.5309 139.545 80.4689 -1.14487 39.2808 0.00939287C-1.90729 1.16366 -1.62712 88.3766 0.965672 134.694Z" transform="translate(97.78505 151.3691)" id="路径-23" fill="#FFD533" stroke="none" />
      <path d="M0.965672 134.694C3.55846 181.011 60.405 190 83.059 190C93.1923 190 143.575 178.474 136.281 163.332C132.704 155.906 63.5309 139.545 63.5309 139.545C63.5309 139.545 80.4689 -1.14487 39.2808 0.00939287C-1.90729 1.16366 -1.62712 88.3766 0.965672 134.694Z" transform="matrix(-1 0 0 1 400.7847 150.3691)" id="路径-23" fill="#FFD533" stroke="none" />
      <path d="M14 28C21.732 28 28 21.732 28 14C28 6.26801 21.732 0 14 0C6.268 0 0 6.26801 0 14C0 21.732 6.268 28 14 28Z" transform="translate(237.7849 316.369)" id="椭圆形" fill="#FFFFFF" stroke="none" />
      <path d="M4.999 0L198.001 0Q198.124 0 198.246 0.00602151Q198.369 0.012043 198.491 0.0240715Q198.613 0.0361001 198.734 0.0541066Q198.856 0.0721132 198.976 0.0960544Q199.096 0.119996 199.215 0.149814Q199.334 0.179632 199.452 0.215255Q199.569 0.250879 199.685 0.292221Q199.8 0.333564 199.914 0.380526Q200.027 0.427489 200.138 0.479957Q200.249 0.532426 200.357 0.590276Q200.466 0.648125 200.571 0.711215Q200.676 0.774305 200.778 0.842483Q200.88 0.910662 200.979 0.983765Q201.077 1.05687 201.172 1.13472Q201.267 1.21257 201.358 1.29499Q201.449 1.3774 201.536 1.46417Q201.622 1.55095 201.705 1.64188Q201.787 1.73281 201.865 1.82767Q201.943 1.92253 202.016 2.0211Q202.089 2.11967 202.157 2.2217Q202.225 2.32374 202.289 2.429Q202.352 2.53426 202.41 2.64249Q202.467 2.75072 202.52 2.86165Q202.572 2.97259 202.619 3.08597Q202.666 3.19934 202.708 3.31489Q202.749 3.43043 202.785 3.54787Q202.82 3.6653 202.85 3.78434Q202.88 3.90338 202.904 4.02374Q202.928 4.1441 202.946 4.26549Q202.964 4.38688 202.976 4.50901Q202.988 4.63114 202.994 4.75371Q203 4.87628 203 4.999L203 147.001Q203 147.124 202.994 147.246Q202.988 147.369 202.976 147.491Q202.964 147.613 202.946 147.734Q202.928 147.856 202.904 147.976Q202.88 148.097 202.85 148.216Q202.82 148.335 202.785 148.452Q202.749 148.57 202.708 148.685Q202.666 148.801 202.619 148.914Q202.572 149.027 202.52 149.138Q202.467 149.249 202.41 149.357Q202.352 149.466 202.289 149.571Q202.225 149.676 202.157 149.778Q202.089 149.88 202.016 149.979Q201.943 150.077 201.865 150.172Q201.787 150.267 201.705 150.358Q201.622 150.449 201.536 150.536Q201.449 150.623 201.358 150.705Q201.267 150.787 201.172 150.865Q201.077 150.943 200.979 151.016Q200.88 151.089 200.778 151.157Q200.676 151.226 200.571 151.289Q200.466 151.352 200.357 151.41Q200.249 151.467 200.138 151.52Q200.027 151.572 199.914 151.619Q199.8 151.666 199.685 151.708Q199.569 151.749 199.452 151.785Q199.334 151.82 199.215 151.85Q199.096 151.88 198.976 151.904Q198.856 151.928 198.734 151.946Q198.613 151.964 198.491 151.976Q198.369 151.988 198.246 151.994Q198.124 152 198.001 152L4.999 152Q4.87628 152 4.75371 151.994Q4.63114 151.988 4.50901 151.976Q4.38688 151.964 4.26549 151.946Q4.1441 151.928 4.02374 151.904Q3.90338 151.88 3.78434 151.85Q3.6653 151.82 3.54787 151.785Q3.43043 151.749 3.31489 151.708Q3.19934 151.666 3.08597 151.619Q2.97259 151.572 2.86165 151.52Q2.75072 151.467 2.64249 151.41Q2.53426 151.352 2.429 151.289Q2.32374 151.226 2.2217 151.157Q2.11967 151.089 2.0211 151.016Q1.92253 150.943 1.82767 150.865Q1.73281 150.787 1.64188 150.705Q1.55095 150.623 1.46417 150.536Q1.3774 150.449 1.29499 150.358Q1.21257 150.267 1.13472 150.172Q1.05687 150.077 0.983765 149.979Q0.910662 149.88 0.842483 149.778Q0.774305 149.676 0.711215 149.571Q0.648125 149.466 0.590276 149.357Q0.532426 149.249 0.479957 149.138Q0.427489 149.027 0.380526 148.914Q0.333564 148.801 0.292221 148.685Q0.250879 148.57 0.215255 148.452Q0.179632 148.335 0.149814 148.216Q0.119996 148.097 0.0960544 147.976Q0.0721132 147.856 0.0541066 147.734Q0.0361001 147.613 0.0240715 147.491Q0.012043 147.369 0.00602151 147.246Q0 147.124 0 147.001L0 4.999Q0 4.87628 0.00602151 4.75371Q0.012043 4.63114 0.0240715 4.50901Q0.0361001 4.38688 0.0541066 4.26549Q0.0721132 4.1441 0.0960544 4.02374Q0.119996 3.90338 0.149814 3.78434Q0.179632 3.6653 0.215255 3.54787Q0.250879 3.43043 0.292221 3.31489Q0.333564 3.19934 0.380526 3.08597Q0.427489 2.97259 0.479957 2.86165Q0.532426 2.75072 0.590276 2.64249Q0.648125 2.53426 0.711215 2.429Q0.774305 2.32374 0.842483 2.2217Q0.910662 2.11967 0.983765 2.0211Q1.05687 1.92253 1.13472 1.82767Q1.21257 1.73281 1.29499 1.64188Q1.3774 1.55095 1.46417 1.46417Q1.55095 1.3774 1.64188 1.29499Q1.73281 1.21257 1.82767 1.13472Q1.92253 1.05687 2.0211 0.983765Q2.11967 0.910662 2.2217 0.842483Q2.32374 0.774305 2.429 0.711215Q2.53426 0.648125 2.64249 0.590276Q2.75072 0.532426 2.86165 0.479957Q2.97259 0.427489 3.08597 0.380526Q3.19934 0.333564 3.31489 0.292221Q3.43043 0.250879 3.54787 0.215255Q3.6653 0.179632 3.78434 0.149814Q3.90338 0.119996 4.02374 0.0960544Q4.1441 0.0721132 4.26549 0.0541066Q4.38688 0.0361001 4.50901 0.0240715Q4.63114 0.012043 4.75371 0.00602151Q4.87628 0 4.999 0Z" transform="translate(149.785 254.369)" id="矩形" fill="#EBEAEA" stroke="none" />
      <path d="M14 28C21.732 28 28 21.732 28 14C28 6.26801 21.732 0 14 0C6.268 0 0 6.26801 0 14C0 21.732 6.268 28 14 28Z" transform="translate(237.7849 316.369)" id="椭圆形" fill="#FFFFFF" stroke="none" />
      <g id="Group" transform="translate(200.1399 0)">
        <path d="M3.65167 0C3.65167 0 1.44878 61.8294 0.122941 66.4624C-1.2029 71.0954 8.23942 87.0298 26.2965 89.6616C44.3537 92.2934 55.4993 78.937 55.9833 71.5754C56.4673 64.2138 42.872 5.49841 42.872 5.49841L3.65167 0Z" transform="translate(22.645 53.36906)" id="路径-77" fill="#FFCBD1" stroke="none" />
        <path d="M19.8955 0C19.8955 0 -1.69343 21.3177 0.144139 26.4816C2.5809 33.3294 13.318 41.4974 27.5186 41.4974C36.502 41.4974 45.089 39.2801 49.6531 46.7323C56.0647 57.2013 51.9222 57.7381 53.2436 56.5574C53.9515 55.925 54.9469 53.4754 54.9469 50.615C54.9469 49.6294 55.0662 49.3423 54.9469 48.5476C54.5571 45.9499 54.0958 39.4085 51.7502 29.9374C49.8748 22.3651 43.3423 1.13718 43.3423 1.13718L19.8955 0Z" transform="translate(23.64499 74.36905)" id="路径-77" fill="#FD6E80" fill-opacity="0.1804083" stroke="none" />
        <g id="编组-4" transform="matrix(0.9986295 -0.05233596 0.05233596 0.9986295 2.622604E-06 4.777713)">
          <path d="M12.8298 52.1871C12.8298 52.1871 12.0729 43.1829 6.34118 44.1952C3.88069 44.6297 -1.88405 46.1087 0.614906 56.7672C2.14169 63.2792 11.168 65.3728 11.168 65.3728C11.168 65.3728 10.4706 79.3771 20.5005 88.7884C30.5304 98.1997 55.8372 105.208 71.1265 90.7272C76.9824 85.181 81.031 79.5874 81.5911 68.9058C81.8986 72.9823 98.2342 58.6814 87.8238 51.2515C86.3664 50.2113 83.4383 50.1957 82.6771 48.1937C79.7086 40.3863 81.23 31.5362 81.23 31.5362C82.749 28.764 78.1328 26.7171 78.9843 22.8353C81.076 13.3001 63.2298 1.75251 55.9737 0.677779C48.7175 -0.396951 30.9972 -1.95557 22.3411 11.571C13.685 25.0975 12.8298 52.1871 12.8298 52.1871Z" transform="translate(0 10.97437)" id="路径-69" fill="#FFCBD1" stroke="none" />
          <path d="M1.39798 0C1.18634 -1.08789e-13 2.18648 1.97723 1.82694 3.45995C1.4674 4.94267 -0.247529 5.64022 0.0302981 5.64022C0.308126 5.64022 2.46269 4.75683 2.77717 3.45995C3.09165 2.16308 1.60963 1.08789e-13 1.39798 0Z" transform="translate(71.32129 15.26477)" id="路径-76" fill="#FF8757" fill-opacity="0.21756418" stroke="none" />
          <g id="编组-5" transform="translate(14.54492 48.95081)">
            <path d="M12.1387 24.2647C18.8428 24.2647 24.2775 18.8329 24.2775 12.1324C24.2775 5.43184 18.8428 0 12.1387 0C5.43469 0 0 5.43184 0 12.1324C0 18.8329 5.43469 24.2647 12.1387 24.2647Z" transform="translate(0.6929007 15.4713)" id="椭圆形" fill="url(#gradient_1)" fill-opacity="0.777018249" stroke="none" />
            <path d="M12.1387 24.2647C18.8428 24.2647 24.2775 18.8329 24.2775 12.1324C24.2775 5.43184 18.8428 0 12.1387 0C5.43469 0 0 5.43184 0 12.1324C0 18.8329 5.43469 24.2647 12.1387 24.2647Z" transform="translate(37.49324 18.37083)" id="椭圆形" fill="url(#gradient_2)" fill-opacity="0.777018249" stroke="none" />
          </g>
          <path d="M4.14517 5.64022C4.14517 5.64022 3.32661 3.50837 2.82078 2.82011C1.2298 0.655308 0 0 0 0C0 0 1.22159 0.0929447 3.29766 2.16852C4.0159 2.88659 5.64157 5.64022 5.64157 5.64022L4.14517 5.64022Z" transform="translate(5.975586 62.09753)" id="路径-109" fill="#FA7886" stroke="none" />
          <path d="M4.14517 5.64022C4.14517 5.64022 3.32661 3.50837 2.82078 2.82011C1.2298 0.655308 0 0 0 0C0 0 1.22159 0.0929447 3.29765 2.16852C4.0159 2.88659 5.64156 5.64022 5.64156 5.64022L4.14517 5.64022Z" transform="matrix(-1 0 0 1 88.29346 67.45251)" id="路径-109" fill="#FA7886" stroke="none" />
          <path d="M6.20491 62.8648C6.20491 62.8648 5.97761 58.0434 6.71172 53.2028C7.44583 48.3622 9.13035 41.9898 9.13035 41.9898C9.13035 41.9898 14.6068 38.2126 15.6648 37.0626C17.7943 34.7482 19.1817 31.4513 19.3992 31.4626C19.8263 31.485 28.3458 37.2836 40.4681 37.4949C52.5905 37.7062 64.5578 31.4747 64.5578 31.4747C64.5578 31.4747 67.0944 34.9243 68.9628 36.9475C70.8312 38.9707 72.509 40.0849 72.509 40.0849C72.509 40.0849 74.6016 53.9234 74.7068 55.3719C75.4883 66.1278 74.2372 67.4748 74.6295 67.4953C75.4558 67.5386 79.9478 57.0376 79.9478 57.0376L81.0671 35.6977C81.0671 35.6977 76.0014 20.3473 72.5762 16.2176C69.151 12.0879 66.604 11.7974 59.0397 9.13959C56.4775 8.23931 50.0322 5.65013 50.0322 5.65013L52.2624 8.78471C52.2624 8.78471 43.8285 6.07628 40.4321 4.32597C37.0356 2.57566 35.2159 1.75629e-16 35.2159 1.75629e-16C35.2159 1.75629e-16 35.0798 2.59463 35.0038 4.04174C34.9279 5.48884 34.8656 6.67738 34.8656 6.67738C34.8656 6.67738 31.5311 4.35761 28.5741 3.70506C25.6171 3.05251 19.1638 3.21232 19.1638 3.21232C19.1638 3.21232 23.6505 4.85043 25.515 6.18777C27.3795 7.52511 26.7225 8.63382 26.7225 8.63382C26.7225 8.63382 22.2706 8.86715 20.418 9.46403C13.78 11.6027 9.62167 14.7289 7.50642 16.9382C3.448 21.1772 0.212329 36.2993 0.038822 39.6071C-0.134685 42.9149 0.242146 46.0336 1.80612 51.8725C3.3701 57.7115 6.20491 62.8648 6.20491 62.8648Z" transform="matrix(0.9993908 0.0348995 -0.0348995 0.9993908 8.739256 -8.34465E-07)" id="路径-2" fill="#000000" stroke="none" />
          <path d="M0 2.90082C0 2.4983 2.86698 0.331997 5.29757 0.0447808C7.72815 -0.242435 11.8276 0.934664 11.8276 1.22594C11.8276 1.51722 8.33484 0.934664 5.29757 1.22594C2.2603 1.51722 8.94086e-17 3.30333 0 2.90082Z" transform="translate(24.29053 51.95349)" id="路径-8" fill="#36195D" stroke="none" />
          <path d="M3.28277e-16 2.90117C1.87866e-05 2.49865 2.86703 0.332157 5.29757 0.0448207C7.72811 -0.242515 11.8274 0.934419 11.8274 1.22571C11.8274 1.51699 8.33472 0.934582 5.29751 1.22601C2.26031 1.51744 -1.87866e-05 3.30369 3.28277e-16 2.90117Z" transform="matrix(0.9510565 0.309017 -0.309017 0.9510565 60.08252 52.21924)" id="路径-8" fill="#36195D" stroke="none" />
        </g>
        <path d="M0.0265289 0.0451143C0.304721 -0.0910933 1.89636 0.284958 2.99491 0.284958C4.11769 0.284958 5.75399 -0.135601 5.97952 0.0451143C6.20506 0.22583 4.52255 0.936332 3.12035 0.996995C1.71815 1.05766 -0.251663 0.181322 0.0265289 0.0451143Z" transform="translate(48.64497 98.36904)" id="路径-11" fill="#F79497" fill-opacity="0.484002978" stroke="none" />
        <path d="M0 0C0.876483 0 5.43902 6 10.9698 6C16.5007 6 22 0 22 0" transform="translate(39.64498 103.369)" id="路径-100" fill="none" stroke="#FFBAC2" stroke-width="1" stroke-linecap="round" />
        <path d="M0 0.35553C0 -0.277335 3.7381 1.445 6.28586 1.445C8.83362 1.445 12 -0.863951 12 0.35553C12 1.57501 9.16675 5 6.28586 5C3.40498 5 8.7286e-17 0.988394 0 0.35553Z" transform="translate(44.64497 90.36904)" id="路径-101" fill="#F6959F" stroke="none" />
        <path d="M1.37808 0.0375731C1.49756 0.0533123 1.62818 0.073244 1.81205 0.103151L2.29504 0.182096C2.89093 0.277369 3.33101 0.329524 3.76225 0.345261C3.84432 0.348256 3.92447 0.349752 4.00277 0.349706C4.53033 0.349394 5.05997 0.293795 5.76082 0.182413C5.63564 0.202307 6.48555 0.063107 6.6655 0.0389035C7.01021 -0.00745979 7.2298 -0.0156511 7.42768 0.0371764C8.09589 0.215563 8.20333 0.95515 7.62071 1.3102C7.42002 1.43251 7.10131 1.54371 6.68633 1.64854C5.8658 1.85583 4.81457 2 4.00312 2C3.18724 2 2.12122 1.85859 1.30642 1.65649C0.882602 1.55137 0.563572 1.43995 0.3636 1.31172C-0.244546 0.921746 -0.0385088 0.208239 0.602266 0.0371764C0.802434 -0.0162612 1.02842 -0.00848812 1.37808 0.0375731Z" transform="translate(46.64497 80.36905)" id="路径" fill="#F37C85" stroke="none" />
        <path d="M4 9C6.20913 9 7.99999 6.98528 7.99999 4.5C7.99999 2.01472 6.20913 0 4 0C1.79086 0 0 2.01472 0 4.5C0 6.98528 1.79086 9 4 9Z" transform="translate(29.64499 64.36905)" id="椭圆形" fill="#FFFFFF" stroke="none" />
        <path d="M1.5 3C2.32843 3 3 2.32843 3 1.5C3 0.671573 2.32843 0 1.5 0C0.671572 0 0 0.671573 0 1.5C0 2.32843 0.671572 3 1.5 3Z" transform="translate(31.64499 70.36905)" id="椭圆形" fill="#000000" stroke="none" />
        <path d="M3.99999 9C6.20913 9 7.99999 6.98528 7.99999 4.5C7.99999 2.01472 6.20913 0 3.99999 0C1.79086 0 0 2.01472 0 4.5C0 6.98528 1.79086 9 3.99999 9Z" transform="translate(62.64495 64.36905)" id="椭圆形" fill="#FFFFFF" stroke="none" />
        <path d="M1.5 3C2.32843 3 3 2.32843 3 1.5C3 0.671573 2.32843 0 1.5 0C0.671573 0 0 0.671573 0 1.5C0 2.32843 0.671573 3 1.5 3Z" transform="translate(64.64495 70.36905)" id="椭圆形" fill="#000000" stroke="none" />
      </g>
      <path d="M0 0C0 0 28.2062 52.1247 105.867 93.8409C183.527 135.557 296 159 296 159" transform="translate(44.78511 345.369)" id="路径-102" fill="none" stroke="#FFFFFF" stroke-width="1" />
      <g id="Dickies" fill="#593B31" transform="translate(218.7849 212.369)">
        <path d="M45.2734 20.0635L42.666 20.0635L38.0468 14.8584L38.0078 14.8584L38.0078 20.0635L36.0937 20.0635L36.0937 4.07715L38.0078 4.07715L38.0078 14.2139L38.0468 14.2139L42.4316 9.2627L44.8925 9.2627L40.0097 14.458L45.2734 20.0635ZM20.5078 5.4541Q20.5078 4.94629 20.8545 4.59961Q21.2011 4.25293 21.7089 4.25293Q22.2265 4.25293 22.583 4.59473Q22.9394 4.93652 22.9394 5.4541Q22.9394 5.96192 22.583 6.29883Q22.2265 6.63574 21.7089 6.63574Q21.1914 6.63574 20.8496 6.29883Q20.5078 5.96191 20.5078 5.4541ZM47.0947 4.59961Q46.748 4.94629 46.748 5.4541Q46.748 5.96191 47.0898 6.29883Q47.4316 6.63574 47.9492 6.63574Q48.4668 6.63574 48.8232 6.29883Q49.1796 5.96192 49.1796 5.4541Q49.1796 4.93652 48.8232 4.59473Q48.4668 4.25293 47.9492 4.25293Q47.4414 4.25293 47.0947 4.59961ZM5.75191 20.0635L5.75191 4.93652L10.0683 4.93652Q13.5058 4.93652 15.7861 6.93848Q18.0664 8.94043 18.0664 12.3096Q18.0664 15.8252 15.7861 17.9443Q13.5058 20.0635 9.91207 20.0635L5.75191 20.0635ZM7.70504 6.6748L7.70504 18.335L9.90231 18.335Q12.7832 18.335 14.3994 16.7627Q16.0156 15.1904 16.0156 12.3584Q16.0156 9.52637 14.3554 8.10059Q12.6953 6.67481 9.9902 6.6748L7.70504 6.6748ZM30.5371 20.3174Q32.2851 20.3174 33.5254 19.5752L33.5254 17.8174Q32.2851 18.7354 30.8886 18.7354Q29.2382 18.7354 28.2666 17.6807Q27.2949 16.626 27.2949 14.7607Q27.2949 12.8662 28.3252 11.7285Q29.3554 10.5908 30.9961 10.5908Q32.3925 10.5908 33.5351 11.4307L33.5351 9.53613Q32.4804 9.00879 30.9961 9.00879Q28.4179 9.00879 26.8798 10.6348Q25.3418 12.2607 25.3418 14.917Q25.3418 17.3096 26.7675 18.8135Q28.1933 20.3174 30.5371 20.3174ZM61.1035 15.1514L53.5449 15.1514Q53.5937 16.8799 54.4921 17.8223Q55.3906 18.7646 57.0019 18.7646Q58.8183 18.7646 60.332 17.6025L60.332 19.3115Q58.9062 20.3174 56.5527 20.3174Q54.2089 20.3174 52.8955 18.833Q51.582 17.3486 51.582 14.7119Q51.582 12.2314 53.0224 10.6201Q54.4629 9.00879 56.6015 9.00879Q58.7207 9.00879 59.9121 10.3711Q61.1035 11.7334 61.1035 14.1846L61.1035 15.1514ZM66.1621 18.7744Q64.4921 18.7744 63.0468 17.7295L63.0468 19.6826Q64.2968 20.3174 65.9765 20.3174Q67.9101 20.3174 69.1259 19.4629Q70.3418 18.6084 70.3418 17.124Q70.3418 16.0596 69.707 15.3369Q69.0722 14.6143 67.2656 13.9404Q65.8398 13.374 65.4248 13.0127Q65.0097 12.6514 65.0097 12.0068Q65.0097 11.3525 65.5859 10.9521Q66.1621 10.5518 67.08 10.5518Q68.6132 10.5518 69.8242 11.333L69.8242 9.4873Q68.6425 9.00879 67.2656 9.00879Q65.4882 9.00879 64.2724 9.87305Q63.0566 10.7373 63.0566 12.1729Q63.0566 13.1787 63.5937 13.8867Q64.1308 14.5947 65.9277 15.3174Q67.4218 15.874 67.9101 16.2793Q68.3984 16.6846 68.3984 17.3096Q68.3984 18.7744 66.1621 18.7744ZM20.7324 20.0635L20.7324 9.2627L22.6464 9.2627L22.6464 20.0635L20.7324 20.0635ZM46.9726 9.2627L46.9726 20.0635L48.8867 20.0635L48.8867 9.2627L46.9726 9.2627ZM59.1894 13.6182Q59.1796 12.1533 58.4961 11.3525Q57.8125 10.5518 56.5722 10.5518Q55.4296 10.5518 54.5947 11.4014Q53.7597 12.251 53.5449 13.6182L59.1894 13.6182Z" />
      </g>
      <path d="M0 32.076L10.5347 0L19.0675 1.74311L9.89687 33.4754L0 32.076Z" transform="matrix(0.9659258 0.258819 -0.258819 0.9659258 352.34 471.8048)" id="路径-52" fill="#F6C0C6" stroke="none" />
      <path d="M4.02296e-15 32.081L10.5193 0L18.1178 0.882341L6.92295 32.3467L4.02296e-15 32.081Z" transform="matrix(-0.6293203 0.777146 -0.777146 -0.6293203 160.5472 485.6352)" id="路径-52" fill="#F6C0C6" stroke="none" />
    </g>
  </g>
</svg>