<?xml version="1.0" encoding="utf-8"?>
<svg width="559px" height="654px" viewBox="0 0 559 654" version="1.1" xmlns:xlink="http://www.w3.org/1999/xlink" xmlns="http://www.w3.org/2000/svg">
  <desc>Created with Lunacy</desc>
  <defs>
    <linearGradient x1="0.803739965" y1="0.3556514" x2="-0.08722162" y2="0.87411207" id="gradient_1">
      <stop offset="0" stop-color="#FF9687" />
      <stop offset="1" stop-color="#FFD4CE" />
    </linearGradient>
    <linearGradient x1="0.911211" y1="0.5" x2="0.137508854" y2="0.5611284" id="gradient_2">
      <stop offset="0" stop-color="#F6B3A4" />
      <stop offset="0.6790804" stop-color="#EA7C6B" />
      <stop offset="1" stop-color="#EA7C6B" />
    </linearGradient>
    <radialGradient gradientUnits="objectBoundingBox" cx="50%" cy="46.35184%" fx="50%" fy="46.35184%" r="43.12864%" gradientTransform="translate(0.5,0.4635184),scale(0.9966444,1),rotate(-90),scale(1,0),translate(-0.5,-0.4635184)" id="gradient_3">
      <stop offset="0%" stop-color="#F58F9A" />
      <stop offset="100%" stop-color="#FFC0C8" />
    </radialGradient>
    <linearGradient x1="0.07861396" y1="0.0332097858" x2="0.921386063" y2="0.9667902" id="gradient_4">
      <stop offset="0" stop-color="#FFFFFF" />
      <stop offset="0.08203125" stop-color="#FFFFFF" />
      <stop offset="0.183065876" stop-color="#FFFFFF" />
      <stop offset="0.3038429" stop-color="#FFFFFF" />
      <stop offset="0.3971706" stop-color="#FFFFFF" />
      <stop offset="0.4959882" stop-color="#FFFFFF" />
      <stop offset="0.6016153" stop-color="#FFFFFF" />
      <stop offset="0.731286943" stop-color="#FFFFFF" />
      <stop offset="0.816379845" stop-color="#FFFFFF" />
      <stop offset="0.890493035" stop-color="#FFFFFF" />
      <stop offset="1" stop-color="#FFFFFF" />
    </linearGradient>
    <path d="M59.6474 121.073C73.3089 121.073 93.8409 119.438 104.135 112.405C119.902 101.633 125.25 79.1429 125.25 59.3214C125.25 26.5591 97.2122 -1.53825e-11 62.6252 -1.53825e-11C28.0383 -1.53825e-11 0 26.5591 0 59.3214C0 77.337 9.46994 100.491 22.853 111.371C33.8078 120.276 44.0793 121.073 59.6474 121.073Z" transform="translate(3.331543 9.011353)" id="path_1" />
    <path d="M159.051 12.6534C167.194 23.2789 196.571 112.455 175.562 135.975C154.552 159.494 60.5131 163.696 -5.70445e-11 129.902L3.76378 104.768C3.76378 104.768 66.104 102.43 103.102 103.597C129.399 104.426 115.183 87.3808 107.743 66.9614C100.303 46.5421 86.8613 12.0645 113.377 3.96863C141.767 -4.69949 150.908 2.02796 159.051 12.6534Z" transform="matrix(0.9396926 0.3420201 -0.3420201 0.9396926 52.8208 0)" id="path_2" />
    <clipPath id="mask_1">
      <use xlink:href="#path_2" />
    </clipPath>
  </defs>
  <g id="jinhua" transform="translate(7 0)">
    <g id="Group-4" transform="translate(39.94092 22.25629)">
      <g id="编组-57">
        <g id="编组-49" transform="matrix(0.9396926 0.3420201 -0.3420201 0.9396926 123.3345 43.62036)">
          <path d="M0 0.924145L14.5933 115.202L124.248 134.08L124.248 127.581L21.8972 108.582L7.42746 3.81452e-14L0 0.924145Z" id="路径-26" fill="#FFFFFF" stroke="none" />
          <path d="M0 18.6094L33.0777 0.335923" transform="translate(32.4529 16.64447)" id="路径-91" fill="none" stroke="#FDCD44" stroke-width="4" stroke-linecap="round" />
          <path d="M0 10.1716L39.8707 0" transform="translate(40.79794 51.78278)" id="路径-92" fill="none" stroke="#FDCD44" stroke-width="4" stroke-linecap="round" />
          <path d="M0 0L39.8707 5.54816" transform="translate(40.79794 84.14701)" id="路径-94" fill="none" stroke="#FDCD44" stroke-width="4" stroke-linecap="round" />
        </g>
        <path d="M0 0L25.0622 0L25.0622 36.0388L0 36.0388L0 0Z" transform="matrix(-0.9396926 0.3420201 0.3420201 0.9396926 99.75439 510.3716)" id="矩形" fill="#FEACB6" stroke="none" />
        <path d="M1.66042e-14 -1.09656e-12L24.9238 0.00171943L24.9262 36.0472L0.00248015 36.0455L1.66042e-14 -1.09656e-12Z" transform="matrix(4.371139E-08 1 1 -4.371139E-08 188.5625 370.1362)" id="矩形" fill="#FEACB6" stroke="none" />
        <path d="M297.563 53.8838L190.907 0C190.907 0 12.0703 21.5985 1.2124 80.246C-9.64547 138.893 55.2792 160.337 82.1713 163.885C109.063 167.432 160.508 173.146 160.508 173.146L166.529 131.576C166.529 131.576 73.191 111.263 78.3171 97.283C83.4431 83.3033 297.563 53.8838 297.563 53.8838Z" transform="matrix(0.9396926 0.3420201 -0.3420201 0.9396926 99.90283 176.0931)" id="路径-28" fill="#CC4939" stroke="none" />
        <g id="编组备份" transform="matrix(-0.05233597 0.9986295 0.9986295 0.05233597 140.2402 321.7533)">
          <path d="M34.2934 28.7115C34.2934 28.7115 68.0917 -2.68297e-13 68.0917 -2.68297e-13C68.0917 -2.68297e-13 73.9134 20.1626 72.9568 31.2727C72.0003 42.3829 62.8275 61.1421 62.8275 61.1421C62.8275 61.1421 51.7214 68.1925 54.0902 71.1436C56.459 74.0947 74.3594 104.674 77.6404 118.612C80.2343 129.63 72.3961 138.599 68.9994 141.872C68.2044 142.638 66.9533 142.507 66.2644 141.644L1.19367 60.141Q1.13411 60.0664 1.08193 59.9865Q1.02975 59.9066 0.985427 59.822Q0.941102 59.7375 0.905035 59.6491Q0.868968 59.5607 0.841486 59.4693Q0.814005 59.3779 0.795359 59.2843Q0.776713 59.1907 0.767073 59.0957Q0.757433 59.0007 0.756886 58.9053Q0.756339 58.8098 0.76489 58.7147Q0.773441 58.6197 0.791013 58.5259Q0.808585 58.432 0.835017 58.3403Q0.861449 58.2486 0.896501 58.1598Q0.931553 58.071 0.974906 57.986Q1.01826 57.9009 1.06952 57.8204Q1.12078 57.7399 1.17948 57.6646Q1.23818 57.5893 1.30378 57.52Q1.36939 57.4506 1.4413 57.3878L34.2934 28.7115Z" transform="matrix(0.8746197 -0.4848096 0.4848096 0.8746197 -6.103516E-05 37.95313)" id="路径-15" fill="#FFFFFF" stroke="none" />
          <path d="M8.31799 16.6163C12.9119 16.6163 16.636 12.8966 16.636 8.30814C16.636 3.71968 12.9119 0 8.31799 0C3.72409 0 0 3.71968 0 8.30814C0 12.8966 3.72409 16.6163 8.31799 16.6163Z" transform="translate(47.51874 59.81885)" id="椭圆形" fill="#FFFFFF" fill-opacity="0.6745098" stroke="#3B814E" stroke-width="3" />
          <path d="M5.47399 -2.06809e-13C5.47399 -2.06809e-13 10.0818 9.71809 8.30975 27.2602C6.53773 44.8023 1.08568e-12 54.1897 1.08568e-12 54.1897" transform="matrix(0.8746197 -0.4848096 0.4848096 0.8746197 51.758 17.03271)" id="路径-16" fill="none" stroke="#3B814E" stroke-width="2" />
          <path d="M-2.27355e-16 -3.18714e-13L65.5305 84.7446" transform="matrix(0.8746197 -0.4848096 0.4848096 0.8746197 32.93781 81.89404)" id="路径-17" fill="none" stroke="#3B814E" stroke-width="2" />
          <path d="M2.08498e-15 6.86898e-15C4.76567e-15 5.49518e-15 21.4627 3.09351 21.4627 3.09351" transform="matrix(0.8746197 -0.4848096 0.4848096 0.8746197 76.80518 80.46777)" id="路径-19" fill="none" stroke="#D1D8E7" stroke-width="3" />
          <path d="M9.47589e-13 -2.47481e-13L15.3303 2.064" transform="matrix(0.8746197 -0.4848096 0.4848096 0.8746197 92.19281 84.72559)" id="路径-20" fill="none" stroke="#D1D8E7" stroke-width="3" />
          <path d="M3.404e-15 -7.55271e-13L15.3303 2.06398" transform="matrix(0.8746197 -0.4848096 0.4848096 0.8746197 100.8372 91.73779)" id="路径-21" fill="none" stroke="#D1D8E7" stroke-width="3" />
        </g>
        <path d="M101.282 127.154C101.282 127.154 -17.7379 97.6177 3.1065 80.1349C23.9509 62.652 205.077 21.6442 205.077 21.6442L227.143 -7.34082e-13" transform="matrix(0.9396926 0.3420201 -0.3420201 0.9396926 159.2588 210.4427)" id="路径-97" fill="none" stroke="#FDB1B1" stroke-width="1" />
        <path d="M141.431 0C141.431 0 46.7046 33.068 15.5682 117.257C-15.5682 201.446 15.5682 340.319 15.5682 340.319L53.0572 340.319C53.0572 340.319 43.5376 238.787 53.0572 188.805C62.5767 138.823 120.823 86.1962 181.34 86.1962C185.414 86.1962 220.378 86.8922 234.91 57.465C245.478 36.0664 234.91 3.23313 234.91 3.23313L141.431 0Z" transform="matrix(0.9396926 0.3420201 -0.3420201 0.9396926 187.6733 203.8821)" id="路径-27" fill="#EE604E" stroke="none" />
        <path d="M-9.21437e-12 0.917145L50.6873 0.268429Q51.226 0.261534 51.7645 0.278822Q52.303 0.29611 52.8401 0.337547Q53.3773 0.378983 53.9121 0.444485Q54.4469 0.509986 54.9782 0.59942Q55.5095 0.688854 56.0362 0.802041Q56.5629 0.915228 57.0841 1.05194Q57.6052 1.18865 58.1197 1.34861Q58.6342 1.50857 59.1409 1.69146Q59.6477 1.87435 60.1458 2.07979Q60.6438 2.28524 61.1322 2.51283Q61.6205 2.74042 62.0982 2.98969Q62.5758 3.23897 63.0418 3.50942Q63.5077 3.77988 63.9611 4.07098Q64.4144 4.36208 64.8543 4.67323Q65.2941 4.98438 65.7195 5.31495Q66.145 5.64552 66.5551 5.99486Q66.9653 6.34419 67.3594 6.71158Q67.7535 7.07897 68.1307 7.46367Q68.5079 7.84837 68.8674 8.24962Q69.227 8.65086 69.5681 9.06783Q69.9093 9.48481 70.2314 9.91667Q70.5536 10.3485 70.856 10.7944Q71.1584 11.2403 71.4405 11.6993Q71.7226 12.1583 71.9838 12.6295Q72.2451 13.1007 72.4849 13.5832Q72.7247 14.0656 72.9426 14.5584Q73.1605 15.0511 73.3561 15.5531Q73.5517 16.0551 73.7246 16.5654Q73.8974 17.0757 74.0472 17.5932Q74.197 18.1108 74.3234 18.6345Q74.4498 19.1582 74.5526 19.6871Q74.6554 20.216 74.7344 20.7489L92.1 137.983Q92.2011 138.665 92.2629 139.353Q92.3246 140.041 92.3467 140.731Q92.3688 141.421 92.3512 142.111Q92.3336 142.801 92.2764 143.489Q92.2191 144.177 92.1224 144.861Q92.0257 145.544 91.8899 146.221Q91.754 146.898 91.5795 147.566Q91.405 148.234 91.1923 148.891Q90.9797 149.548 90.7296 150.191Q90.4796 150.835 90.193 151.463Q89.9063 152.091 89.5841 152.701Q89.2618 153.312 88.905 153.903Q88.5482 154.494 88.1579 155.064Q87.7677 155.633 87.3454 156.179Q86.9231 156.725 86.4701 157.246Q86.0171 157.767 85.5349 158.261Q85.0527 158.756 84.5429 159.221Q84.0331 159.687 83.4973 160.122Q82.9616 160.558 82.4017 160.961Q81.8419 161.365 81.2597 161.737Q80.6775 162.108 80.075 162.445Q79.4724 162.782 78.8515 163.083Q78.2306 163.385 77.5933 163.651Q76.9561 163.916 76.3046 164.145Q75.6532 164.374 74.9896 164.564Q74.3261 164.755 73.6527 164.907Q72.9793 165.059 72.2983 165.173Q71.6173 165.286 70.9309 165.36Q70.2445 165.434 69.5549 165.468Q68.8654 165.503 68.175 165.497Q67.4847 165.492 66.7957 165.447Q66.1068 165.402 65.4216 165.318L8.62186 158.31L-9.21437e-12 0.917145Z" transform="matrix(0.9396926 0.3420201 -0.3420201 0.9396926 413.5908 151.6593)" id="矩形" fill="url(#gradient_1)" stroke="none" />
        <path d="M11.3994 0.170365C4.7285 1.76663 2.84929e-16 19.1882 0 32.306C0 45.4238 11.3994 85.1615 11.3994 85.1615C11.3994 85.1615 14.729 88.0643 19.3192 88.0643C23.9095 88.0643 34.0387 85.1615 34.0387 85.1615C34.0387 85.1615 32.8813 37.9714 29.2368 25.31C25.5923 12.6487 19.3469 -1.73137 11.3994 0.170365Z" transform="matrix(0.9396926 0.3420201 -0.3420201 0.9396926 436.3984 228.7227)" id="路径-14" fill="url(#gradient_2)" stroke="none" />
        <path d="M0 0L0.605917 30.0226L21.0272 30.0226L21.0272 25.1859L0 0Z" transform="matrix(0.9396926 0.3420201 -0.3420201 0.9396926 445.8369 282.3763)" id="路径-15" fill="#F55B48" stroke="none" />
        <g id="编组" transform="matrix(-0.9945219 0.1045284 0.1045284 0.9945219 137.1421 447.9226)">
          <path d="M34.2934 28.7115C34.2934 28.7115 68.0917 1.49054e-15 68.0917 1.49054e-15C68.0917 1.49054e-15 73.9134 20.1625 72.9568 31.2727C72.0002 42.3828 62.8274 61.1421 62.8274 61.1421C62.8274 61.1421 51.7213 68.1925 54.0902 71.1436C56.459 74.0947 74.3593 104.674 77.6404 118.612C80.2343 129.63 72.396 138.599 68.9994 141.872C68.2044 142.638 66.9532 142.507 66.2644 141.644L1.19367 60.141Q1.13411 60.0664 1.08193 59.9865Q1.02975 59.9065 0.985428 59.822Q0.941103 59.7375 0.905036 59.6491Q0.868968 59.5607 0.841487 59.4693Q0.814005 59.3779 0.795359 59.2842Q0.776714 59.1906 0.767074 59.0957Q0.757433 59.0007 0.756886 58.9052Q0.756339 58.8098 0.764891 58.7147Q0.773442 58.6196 0.791014 58.5258Q0.808585 58.432 0.835017 58.3402Q0.861449 58.2485 0.896501 58.1597Q0.931554 58.0709 0.974907 57.9859Q1.01826 57.9009 1.06952 57.8203Q1.12078 57.7398 1.17948 57.6645Q1.23818 57.5893 1.30378 57.5199Q1.36939 57.4506 1.4413 57.3878L34.2934 28.7115Z" transform="matrix(0.8746197 -0.4848096 0.4848096 0.8746197 0 37.95346)" id="路径-15" fill="#FFFFFF" stroke="none" />
          <path d="M8.31799 16.6163C12.9119 16.6163 16.636 12.8966 16.636 8.30814C16.636 3.71968 12.9119 0 8.31799 0C3.72409 0 0 3.71968 0 8.30814C0 12.8966 3.72409 16.6163 8.31799 16.6163Z" transform="translate(47.51758 59.81998)" id="椭圆形" fill="#FFFFFF" fill-opacity="0.6745098" stroke="#3B814E" stroke-width="3" />
          <path d="M5.47398 1.50407e-15C5.47398 1.50407e-15 10.0818 9.71809 8.30974 27.2602C6.53772 44.8023 4.88605e-15 54.1897 4.88605e-15 54.1897" transform="matrix(0.8746197 -0.4848096 0.4848096 0.8746197 51.7583 17.03271)" id="路径-16" fill="none" stroke="#3B814E" stroke-width="2" />
          <path d="M4.31974e-15 9.40853e-15L65.5305 84.7445" transform="matrix(0.8746197 -0.4848096 0.4848096 0.8746197 32.93701 81.89386)" id="路径-17" fill="none" stroke="#3B814E" stroke-width="2" />
          <path d="M9.93644e-13 1.53178e-12C9.94537e-13 1.53178e-12 21.4627 3.09351 21.4627 3.09351" transform="matrix(0.8746197 -0.4848096 0.4848096 0.8746197 76.80371 80.46829)" id="路径-19" fill="none" stroke="#D1D8E7" stroke-width="3" />
          <path d="M4.74007e-13 2.04217e-12L15.3302 2.06398" transform="matrix(0.8746197 -0.4848096 0.4848096 0.8746197 92.19336 84.72467)" id="路径-20" fill="none" stroke="#D1D8E7" stroke-width="3" />
          <path d="M4.73582e-13 5.49955e-15L15.3303 2.06398" transform="matrix(0.8746197 -0.4848096 0.4848096 0.8746197 100.8359 91.73752)" id="路径-21" fill="none" stroke="#D1D8E7" stroke-width="3" />
        </g>
        <path d="M102.106 7.75412C84.459 12.5941 70.0042 12.4106 57.3781 13.0902C52.8751 13.3325 45.0319 9.61576 39.5369 7.1832C38.2532 6.61492 27.9041 1.23163 18.6865 0.140803C11.7247 -0.683077 5.1877 2.30816 4.93829 3.93477C4.57749 6.28787 11.247 3.51516 17.7826 6.03618C24.9077 8.78462 31.0217 13.3661 29.144 14.0453C28.3377 14.337 23.2157 8.74154 17.6639 6.81038C11.0562 4.51199 3.91116 5.78832 3.70034 5.90341C0.644206 7.57173 0.173195 10.0831 2.00578 10.383C3.75559 10.6692 9.84887 10.8885 12.7385 11.3612C22.5153 12.9608 28.9552 16.5816 28.5388 17.9925C28.3161 18.7471 23.9496 13.1955 15.757 11.8551C6.97772 10.4187 -0.262769 13.9292 0.00731963 14.5806C1.02009 17.0231 9.09815 14.3702 16.0695 17.2085C23.004 20.0318 26.3595 27.0562 30.6342 27.0561C33.0006 27.056 9.17868 23.6755 6.9941 27.0569C6.18256 28.313 21.458 36.0275 52.6788 36.7612C67.6503 37.113 85.07 36.8262 102.755 36.1378C147.466 34.3977 136.219 -1.60223 102.106 7.75412Z" transform="matrix(0.9816272 0.190809 -0.190809 0.9816272 171.9199 152.5463)" id="路径-30" fill="#FBACB6" stroke="none" />
        <path d="M194.787 0C194.787 0 200.41 23.2503 189.163 42.1877C177.916 61.1251 96.3206 59.2402 58.7781 89.9015C21.2355 120.563 0 154.568 -3.41153e-16 196.679C1.19955e-15 238.789 1.89562 277.299 1.89562 277.299" transform="matrix(0.9396926 0.3420201 -0.3420201 0.9396926 208.561 222.8717)" id="路径-96" fill="none" stroke="#FDB1B1" stroke-width="1" />
        <path d="M0 0C1.78562 0 7.71399 10.6967 13.3442 13.3332C18.9745 15.9697 31.0501 14.54 31.0501 14.54" transform="matrix(0.9396926 0.3420201 -0.3420201 0.9396926 364.4106 287.4213)" id="路径-98" fill="none" stroke="#FFFFFF" stroke-width="1" />
        <path d="M0 1.77905L1.0436 9.01041L9.01724 7.72654L9.01724 0" transform="matrix(0.9396926 0.3420201 -0.3420201 0.9396926 380.1831 288.494)" id="路径-99" fill="none" stroke="#FFFFFF" stroke-width="1" />
        <g id="编组-3" transform="matrix(0.9998477 0.01745241 -0.01745241 0.9998477 226.2764 173.6425)">
          <path d="M179.372 32.3484C158.466 55.8465 60.2169 58.6524 0 24.8888L3.97882 2.7417C3.97882 2.7417 70.4244 2.2261e-14 107.267 2.2261e-14C113.42 2.2261e-14 200.278 8.85036 179.372 32.3484Z" id="路径-11" fill="#CC4939" stroke="none" />
          <path d="M7.999 0L14.1753 0Q14.3226 0 14.4697 0.00722606Q14.6167 0.0144521 14.7633 0.0288868Q14.9099 0.0433215 15.0555 0.0649301Q15.2012 0.0865387 15.3456 0.115269Q15.4901 0.143999 15.6329 0.179782Q15.7758 0.215565 15.9167 0.258315Q16.0576 0.301064 16.1963 0.350677Q16.335 0.40029 16.471 0.456647Q16.6071 0.513003 16.7402 0.575968Q16.8733 0.638933 17.0032 0.708354Q17.1331 0.777776 17.2594 0.853486Q17.3857 0.929196 17.5082 1.01101Q17.6306 1.09283 17.7489 1.18056Q17.8672 1.26828 17.981 1.36171Q18.0949 1.45514 18.204 1.55403Q18.3131 1.65293 18.4172 1.75707Q18.5214 1.8612 18.6203 1.97032Q18.7192 2.07944 18.8126 2.19327Q18.906 2.30711 18.9937 2.4254Q19.0815 2.54369 19.1633 2.66613Q19.2451 2.78858 19.3208 2.9149Q19.3965 3.04121 19.4659 3.17109Q19.5354 3.30097 19.5983 3.4341Q19.6613 3.56722 19.7176 3.70328Q19.774 3.83934 19.8236 3.978Q19.8732 4.11666 19.916 4.25758Q19.9587 4.39851 19.9945 4.54136Q20.0303 4.68422 20.059 4.82865Q20.0878 4.97309 20.1094 5.11876Q20.131 5.26444 20.1454 5.411Q20.1598 5.55755 20.1671 5.70464Q20.1743 5.85173 20.1743 5.999L20.1743 29.82Q20.1743 30.0676 20.1621 30.3149Q20.15 30.5622 20.1257 30.8086Q20.1015 31.055 20.0651 31.2999Q20.0288 31.5448 19.9805 31.7877Q19.9322 32.0305 19.872 32.2707Q19.8119 32.5109 19.74 32.7478Q19.6681 32.9848 19.5847 33.2179Q19.5013 33.451 19.4065 33.6798Q19.3118 33.9085 19.2059 34.1323Q19.1 34.3562 18.9833 34.5745Q18.8666 34.7929 18.7393 35.0053Q18.612 35.2177 18.4745 35.4235Q18.3369 35.6294 18.1894 35.8283Q18.0419 36.0271 17.8848 36.2185Q17.7278 36.4099 17.5615 36.5934Q17.3952 36.7769 17.2201 36.9519Q17.045 37.127 16.8616 37.2933Q16.6781 37.4596 16.4867 37.6167Q16.2953 37.7737 16.0965 37.9212Q15.8976 38.0687 15.6917 38.2063Q15.4858 38.3438 15.2735 38.4711Q15.0611 38.5984 14.8427 38.7152Q14.6244 38.8319 14.4005 38.9377Q14.1767 39.0436 13.9479 39.1383Q13.7192 39.2331 13.4861 39.3165Q13.2529 39.3999 13.016 39.4718Q12.7791 39.5437 12.5389 39.6038Q12.2987 39.664 12.0559 39.7123Q11.813 39.7606 11.5681 39.7969Q11.3232 39.8333 11.0768 39.8575Q10.8304 39.8818 10.583 39.894Q10.3357 39.9061 10.0881 39.9061L10.0861 39.9061Q9.83854 39.9061 9.59124 39.894Q9.34394 39.8818 9.09753 39.8575Q8.85112 39.8333 8.6062 39.7969Q8.36128 39.7606 8.11844 39.7123Q7.87559 39.664 7.63541 39.6038Q7.39523 39.5437 7.15829 39.4718Q6.92135 39.3999 6.68823 39.3165Q6.4551 39.2331 6.22634 39.1383Q5.99759 39.0436 5.77376 38.9377Q5.54993 38.8319 5.33157 38.7152Q5.1132 38.5984 4.90083 38.4711Q4.68846 38.3438 4.48258 38.2063Q4.27671 38.0687 4.07784 37.9212Q3.87896 37.7737 3.68756 37.6167Q3.49616 37.4596 3.3127 37.2933Q3.12924 37.127 2.95416 36.9519Q2.77908 36.7769 2.6128 36.5934Q2.44653 36.4099 2.28945 36.2185Q2.13237 36.0271 1.98488 35.8283Q1.83738 35.6294 1.69982 35.4235Q1.56226 35.2176 1.43497 35.0053Q1.30768 34.7929 1.19096 34.5745Q1.07424 34.3562 0.968378 34.1323Q0.862515 33.9085 0.767762 33.6798Q0.673009 33.451 0.589595 33.2179Q0.506181 32.9848 0.434306 32.7478Q0.362431 32.5109 0.302269 32.2707Q0.242107 32.0305 0.193802 31.7877Q0.145498 31.5448 0.109167 31.2999Q0.0728367 31.055 0.0485675 30.8086Q0.0242984 30.5622 0.0121492 30.3149Q0 30.0676 0 29.82L0 7.999Q0 7.80264 0.00963514 7.60651Q0.0192703 7.41038 0.0385174 7.21496Q0.0577644 7.01954 0.0865771 6.8253Q0.11539 6.63106 0.153699 6.43847Q0.192007 6.24588 0.23972 6.0554Q0.287433 5.86492 0.344434 5.67701Q0.401436 5.4891 0.467589 5.30422Q0.533742 5.11933 0.608888 4.93791Q0.684033 4.7565 0.76799 4.57899Q0.851946 4.40148 0.944512 4.2283Q1.03708 4.05512 1.13803 3.88669Q1.23898 3.71826 1.34807 3.55499Q1.45717 3.39172 1.57414 3.234Q1.69112 3.07628 1.81569 2.92449Q1.94026 2.7727 2.07213 2.6272Q2.204 2.4817 2.34285 2.34285Q2.4817 2.204 2.6272 2.07213Q2.7727 1.94026 2.92449 1.81569Q3.07628 1.69112 3.234 1.57414Q3.39172 1.45717 3.55499 1.34807Q3.71826 1.23898 3.88669 1.13803Q4.05512 1.03708 4.2283 0.944512Q4.40148 0.851946 4.57899 0.76799Q4.7565 0.684033 4.93791 0.608888Q5.11933 0.533742 5.30422 0.467589Q5.4891 0.401436 5.67701 0.344434Q5.86492 0.287433 6.0554 0.23972Q6.24588 0.192007 6.43847 0.153699Q6.63106 0.11539 6.8253 0.0865771Q7.01954 0.0577644 7.21496 0.0385174Q7.41038 0.0192703 7.60651 0.00963514Q7.80264 0 7.999 0L7.999 0Z" transform="translate(0 0.3415411)" id="矩形" fill="#FFFFFF" stroke="none" />
        </g>
        <path d="M61.0568 8.67068C57.4613 8.85896 20.5669 -0.949343 16.8196 0.0750162C13.0723 1.09938 32.1246 8.4684 35.9705 10.5015C37.6082 11.3673 11.1928 3.03214 10.16 3.65807C2.97576 8.01179 32.7531 14.4554 36.7576 16.2123C38.3906 16.9288 11.1476 8.06004 2.85804 8.22906C1.32071 8.2604 2.03153 9.45054 1.67568 10.1182C-0.0322084 13.3228 26.4106 23.6599 35.1445 26.2665C37.7725 27.0508 2.0055 13.0242 0.0854084 17.0093C-1.83469 20.9945 29.1891 33.4098 35.8382 33.7583C52.6584 34.64 112.366 41.3702 135.118 36.1265C152.271 32.1731 134.732 10.8851 93.2322 8.02786C79.6868 7.09526 68.3337 8.28963 61.0568 8.67068Z" transform="matrix(0.9205049 0.3907311 0.3907311 -0.9205049 170.0454 216.2525)" id="路径-30" fill="#FEACB6" stroke="none" />
        <path d="M0 0L6.4895 0L6.4895 42.5264L0 40.0629L0 0Z" transform="matrix(0.9396926 0.3420201 -0.3420201 0.9396926 288.4023 180.2054)" id="矩形" fill="#6BDDE6" stroke="none" />
        <path d="M61.6481 1.28049C91.656 -1.19106 126.53 -4.22489 137.972 35.616C149.414 75.4568 168.037 141.7 168.037 170.492C168.037 179.962 8.56808 176.493 2.10387 158.961C-4.36034 141.429 5.74628 34.9703 9.96176 26.6728C14.1773 18.3753 31.6401 3.75204 61.6481 1.28049Z" transform="matrix(0.9396926 0.3420201 -0.3420201 0.9396926 309.4697 112.0838)" id="路径-12" fill="#FFFFFF" stroke="none" />
        <path d="M61.6508 1.27724C91.6601 -1.18803 126.536 -4.21415 137.979 35.5255C149.421 75.2651 176.626 141.989 165.37 171.098C161.978 179.872 8.56846 176.044 2.10396 158.557C-4.36054 141.069 5.74653 40.4956 9.96221 32.2192C14.1779 23.9428 31.6415 3.74251 61.6508 1.27724Z" transform="matrix(0.9396926 0.3420201 -0.3420201 0.9396926 311.3696 106.8721)" id="路径-12" fill="#F55B48" stroke="none" />
        <path d="M15.5201 3.06826L60.7246 12.005Q60.9987 12.0592 61.2703 12.1251Q61.5418 12.1911 61.8103 12.2686Q62.0788 12.3461 62.3437 12.4351Q62.6086 12.5241 62.8694 12.6244Q63.1302 12.7248 63.3865 12.8362Q63.6427 12.9476 63.894 13.0699Q64.1452 13.1923 64.391 13.3253Q64.6367 13.4583 64.8765 13.6017Q65.1164 13.7452 65.3498 13.8988Q65.5832 14.0524 65.8098 14.216Q66.0364 14.3795 66.2558 14.5526Q66.4752 14.7257 66.6869 14.908Q66.8986 15.0904 67.1023 15.2817Q67.306 15.473 67.5013 15.6729Q67.6966 15.8728 67.8831 16.0809Q68.0696 16.2889 68.247 16.5049Q68.4245 16.7208 68.5924 16.9441Q68.7604 17.1674 68.9186 17.3978Q69.0768 17.6281 69.225 17.8651Q69.3731 18.102 69.511 18.3451Q69.6488 18.5881 69.7761 18.8369Q69.9034 19.0857 70.0198 19.3397Q70.1363 19.5937 70.2417 19.8525Q70.3472 20.1113 70.4414 20.3744Q70.5356 20.6375 70.6184 20.9044Q70.7012 21.1713 70.7725 21.4415Q70.8438 21.7117 70.9034 21.9847Q70.963 22.2577 71.0108 22.533Q71.0586 22.8083 71.0946 23.0854Q71.1305 23.3626 71.1545 23.641Q71.1785 23.9194 71.1905 24.1986Q71.2025 24.4778 71.2025 24.7572L71.2025 54.2215Q71.2025 54.6041 71.18 54.986Q71.1575 55.3679 71.1126 55.7478Q71.0677 56.1278 71.0005 56.5044Q70.9333 56.8811 70.8441 57.2531Q70.7548 57.6251 70.6439 57.9913Q70.533 58.3574 70.4007 58.7164Q70.2684 59.0754 70.1152 59.4259Q69.962 59.7765 69.7885 60.1175Q69.615 60.4585 69.4217 60.7886Q69.2284 61.1188 69.016 61.437Q68.8037 61.7553 68.5729 62.0604Q68.3422 62.3656 68.094 62.6567Q67.8457 62.9478 67.5807 63.2238Q67.3158 63.4998 67.0351 63.7597Q66.7543 64.0196 66.4588 64.2626Q66.1633 64.5056 65.854 64.7307Q65.5447 64.9559 65.2227 65.1625Q64.9007 65.3691 64.567 65.5564Q64.2334 65.7436 63.8894 65.911Q63.5454 66.0783 63.1921 66.2252Q62.8388 66.372 62.4775 66.4978Q62.1162 66.6236 61.7481 66.7279Q61.38 66.8322 61.0064 66.9147Q60.6328 66.9972 60.255 67.0576Q59.8773 67.118 59.4966 67.156Q59.1159 67.1941 58.7336 67.2097Q58.3514 67.2253 57.9688 67.2184Q57.5863 67.2115 57.2049 67.1821Q56.8234 67.1527 56.4444 67.1009Q56.0653 67.0491 55.6899 66.9751Q55.3146 66.9012 54.9442 66.8052Q54.5738 66.7093 54.2098 66.5918L9.00525 51.9975Q8.76196 51.9189 8.52196 51.8309Q8.28195 51.7428 8.04559 51.6454Q7.80923 51.548 7.57688 51.4414Q7.34454 51.3347 7.11656 51.219Q6.88859 51.1034 6.66534 50.9788Q6.44209 50.8542 6.22391 50.721Q6.00573 50.5877 5.79296 50.446Q5.58019 50.3043 5.37316 50.1543Q5.16612 50.0043 4.96515 49.8463Q4.76417 49.6883 4.56956 49.5226Q4.37495 49.3568 4.18701 49.1835Q3.99907 49.0102 3.81808 48.8296Q3.6371 48.6491 3.46336 48.4615Q3.28962 48.274 3.12338 48.0798Q2.95715 47.8856 2.79868 47.6849Q2.64021 47.4843 2.48975 47.2777Q2.33929 47.071 2.19707 46.8585Q2.05485 46.6461 1.9211 46.4282Q1.78734 46.2104 1.66226 45.9874Q1.53718 45.7645 1.42095 45.5368Q1.30473 45.309 1.19755 45.077Q1.09037 44.8448 0.992403 44.6087Q0.894433 44.3726 0.805822 44.1328Q0.717212 43.893 0.638098 43.6499Q0.558985 43.4068 0.489491 43.1608Q0.419997 42.9147 0.36023 42.6662Q0.300463 42.4176 0.250515 42.1669Q0.200567 41.9162 0.160516 41.6637Q0.120464 41.4112 0.0903716 41.1573Q0.0602788 40.9034 0.040191 40.6486Q0.0201033 40.3937 0.0100516 40.1383Q0 39.8828 0 39.6272L0 15.8204Q0 15.4617 0.0197897 15.1034Q0.0395794 14.7452 0.0790985 14.3886Q0.118618 14.032 0.177746 13.6781Q0.236874 13.3243 0.315432 12.9742Q0.393989 12.6241 0.491736 12.2789Q0.589483 11.9337 0.706123 11.5944Q0.822762 11.2551 0.957939 10.9228Q1.09312 10.5905 1.24642 10.2661Q1.39972 9.94172 1.57068 9.62629Q1.74164 9.31086 1.92974 9.00535Q2.11784 8.69983 2.3225 8.40516Q2.52717 8.11048 2.74778 7.82755Q2.96838 7.54461 3.20426 7.27427Q3.44014 7.00393 3.69057 6.74701Q3.941 6.4901 4.20522 6.24739Q4.46944 6.00467 4.74664 5.77691Q5.02385 5.54914 5.3132 5.33701Q5.60254 5.12488 5.90315 4.92903Q6.20376 4.73318 6.51471 4.55421Q6.82566 4.37524 7.14601 4.2137Q7.46636 4.05215 7.79514 3.90852Q8.12391 3.7649 8.4601 3.63962Q8.7963 3.51435 9.13889 3.40781Q9.48149 3.30127 9.82944 3.21378Q10.1774 3.1263 10.5296 3.05815Q10.8819 2.98999 11.2373 2.94137Q11.5928 2.89275 11.9504 2.86381Q12.308 2.83486 12.6667 2.82569Q13.0253 2.81652 13.384 2.82715Q13.7426 2.83777 14.1001 2.86816Q14.4576 2.89855 14.8128 2.94861Q15.1681 2.99868 15.5201 3.06826Z" transform="matrix(0.9396926 0.3420201 -0.3420201 0.9396926 309.144 152.8275)" id="矩形" fill="#F55B48" stroke="#FFFFFF" stroke-width="4" />
        <path d="M9.13777 1.97784L49.8461 10.789Q50.1157 10.8474 50.3825 10.9171Q50.6493 10.9868 50.913 11.0678Q51.1766 11.1488 51.4366 11.2408Q51.6965 11.3329 51.9524 11.436Q52.2082 11.539 52.4594 11.6528Q52.7106 11.7666 52.9568 11.8909Q53.203 12.0152 53.4436 12.1499Q53.6843 12.2846 53.9191 12.4293Q54.1538 12.5741 54.3822 12.7287Q54.6106 12.8833 54.8322 13.0474Q55.0539 13.2115 55.2683 13.3849Q55.4828 13.5583 55.6897 13.7406Q55.8967 13.9229 56.0957 14.1139Q56.2947 14.3048 56.4854 14.504Q56.6761 14.7032 56.8583 14.9103Q57.0404 15.1174 57.2135 15.3321Q57.3867 15.5467 57.5506 15.7685Q57.7145 15.9903 57.8688 16.2189Q58.0232 16.4474 58.1677 16.6823Q58.3122 16.9172 58.4466 17.1581Q58.5811 17.3989 58.7051 17.6452Q58.8292 17.8915 58.9428 18.1428Q59.0563 18.3941 59.1591 18.6501Q59.2618 18.906 59.3536 19.1661Q59.4455 19.4261 59.5262 19.6898Q59.6069 19.9536 59.6763 20.2205Q59.7458 20.4874 59.8038 20.757Q59.8619 21.0266 59.9085 21.2984Q59.9551 21.5702 59.9901 21.8438Q60.0251 22.1173 60.0484 22.3921Q60.0718 22.6669 60.0835 22.9425Q60.0952 23.218 60.0952 23.4938L60.0952 24.0567Q60.0952 24.299 60.0813 24.5408Q60.0674 24.7826 60.0397 25.0233Q60.0119 25.2639 59.9704 25.5025Q59.9289 25.7412 59.8737 25.9771Q59.8186 26.2129 59.75 26.4452Q59.6814 26.6776 59.5996 26.9056Q59.5178 27.1336 59.4231 27.3565Q59.3283 27.5794 59.2209 27.7965Q59.1135 28.0137 58.9939 28.2243Q58.8742 28.4349 58.7426 28.6383Q58.6111 28.8417 58.4681 29.0372Q58.3251 29.2327 58.1711 29.4197Q58.0171 29.6066 57.8526 29.7845Q57.6881 29.9623 57.5137 30.1304Q57.3393 30.2985 57.1556 30.4563Q56.9718 30.6141 56.7793 30.7612Q56.5868 30.9082 56.3861 31.0439Q56.1855 31.1796 55.9774 31.3036Q55.7693 31.4276 55.5544 31.5394Q55.3396 31.6513 55.1186 31.7506Q54.8977 31.8499 54.6715 31.9364Q54.4452 32.0229 54.2143 32.0963Q53.9835 32.1696 53.7488 32.2296Q53.5141 32.2896 53.2764 32.336Q53.0386 32.3825 52.7986 32.4152Q52.5586 32.4479 52.3171 32.4668Q52.0756 32.4857 51.8334 32.4907Q51.5913 32.4957 51.3492 32.4867Q51.1071 32.4778 50.866 32.455Q50.6248 32.4323 50.3854 32.3957Q50.1459 32.3591 49.909 32.3088Q49.672 32.2586 49.4383 32.1948L9.01991 21.1631Q8.77915 21.0974 8.54127 21.0219Q8.30338 20.9464 8.06877 20.8613Q7.83416 20.7762 7.60321 20.6817Q7.37226 20.5871 7.14536 20.4831Q6.91846 20.3792 6.69598 20.2661Q6.47351 20.1531 6.25582 20.031Q6.03813 19.9089 5.8256 19.7781Q5.61307 19.6473 5.40605 19.5079Q5.19902 19.3685 4.99785 19.2208Q4.79668 19.0732 4.60169 18.9174Q4.40671 18.7616 4.21823 18.598Q4.02975 18.4344 3.8481 18.2633Q3.66644 18.0922 3.49191 17.9138Q3.31738 17.7354 3.15027 17.55Q2.98315 17.3647 2.82373 17.1727Q2.6643 16.9807 2.51284 16.7823Q2.36137 16.584 2.21811 16.3796Q2.07485 16.1753 1.94004 15.9652Q1.80523 15.7552 1.67909 15.5399Q1.55295 15.3245 1.43568 15.1042Q1.31842 14.8839 1.21024 14.659Q1.10205 14.4341 1.00312 14.205Q0.904184 13.9759 0.81467 13.7429Q0.725156 13.5099 0.64521 13.2735Q0.565263 13.0371 0.495017 12.7976Q0.424771 12.5582 0.364342 12.316Q0.303913 12.0739 0.253401 11.8295Q0.20289 11.5851 0.162379 11.3388Q0.121869 11.0926 0.0914269 10.8448Q0.060985 10.5971 0.0406623 10.3484Q0.0203396 10.0997 0.0101698 9.8503Q0 9.60094 0 9.35137L0 9.34937Q0 9.13908 0.0117172 8.92912Q0.0234345 8.71916 0.0468325 8.51017Q0.0702306 8.30119 0.105237 8.09384Q0.140243 7.88648 0.186748 7.6814Q0.233254 7.47632 0.291114 7.27415Q0.348975 7.07197 0.41801 6.87334Q0.487046 6.67471 0.567042 6.48023Q0.647038 6.28575 0.737746 6.09603Q0.828454 5.90631 0.929592 5.72194Q1.03073 5.53757 1.14198 5.35912Q1.25324 5.18067 1.37426 5.0087Q1.49529 4.83673 1.62571 4.67176Q1.75613 4.5068 1.89553 4.34937Q2.03494 4.19193 2.1829 4.0425Q2.33087 3.89307 2.48693 3.75213Q2.64299 3.61118 2.80666 3.47914Q2.97033 3.34711 3.1411 3.2244Q3.31188 3.10169 3.48922 2.98868Q3.66657 2.87568 3.84993 2.77273Q4.0333 2.66978 4.22212 2.57721Q4.41094 2.48464 4.60462 2.40274Q4.7983 2.32083 4.99625 2.24985Q5.19419 2.17886 5.39579 2.11902Q5.59738 2.05917 5.80199 2.01065Q6.00661 1.96213 6.21361 1.92509Q6.42061 1.88804 6.62935 1.86259Q6.83809 1.83714 7.04793 1.82336Q7.25777 1.80957 7.46805 1.80751Q7.67832 1.80544 7.88839 1.81509Q8.09846 1.82474 8.30766 1.84608Q8.51687 1.86742 8.72455 1.90039Q8.93224 1.93335 9.13777 1.97784L9.13777 1.97784Z" transform="matrix(0.9396926 0.3420201 -0.3420201 0.9396926 310.6509 162.2285)" id="矩形" fill="#FFFFFF" stroke="none" />
        <path d="M3.53129 1.03606L24.8839 7.3008Q25.1361 7.37481 25.3816 7.46882Q25.6271 7.56284 25.8643 7.67625Q26.1015 7.78967 26.3288 7.92175Q26.5561 8.05383 26.772 8.20373Q26.988 8.35362 27.1912 8.52037Q27.3945 8.68711 27.5837 8.86963Q27.7729 9.05215 27.9468 9.24926Q28.1208 9.44638 28.2784 9.65681Q28.4359 9.86725 28.5761 10.0897Q28.7163 10.3121 28.8381 10.545Q28.96 10.7779 29.0628 11.0199Q29.1656 11.2618 29.2486 11.5113Q29.3316 11.7607 29.3944 12.016Q29.4571 12.2713 29.4992 12.5308Q29.5412 12.7903 29.5623 13.0523Q29.5834 13.3144 29.5834 13.5773L29.5834 13.5795Q29.5834 13.6818 29.5773 13.7839Q29.5711 13.886 29.5588 13.9876Q29.5465 14.0892 29.5281 14.1898Q29.5096 14.2905 29.4852 14.3898Q29.4608 14.4891 29.4304 14.5868Q29.4 14.6845 29.3637 14.7802Q29.3275 14.8759 29.2856 14.9692Q29.2437 15.0626 29.1962 15.1532Q29.1487 15.2438 29.0959 15.3314Q29.043 15.419 28.985 15.5033Q28.9269 15.5876 28.8639 15.6682Q28.8009 15.7488 28.7332 15.8254Q28.6654 15.9021 28.5931 15.9745Q28.5209 16.047 28.4444 16.1149Q28.3679 16.1829 28.2875 16.2461Q28.207 16.3093 28.1229 16.3676Q28.0388 16.4258 27.9513 16.4789Q27.8639 16.532 27.7734 16.5797Q27.6828 16.6274 27.5896 16.6695Q27.4964 16.7117 27.4008 16.7482Q27.3052 16.7846 27.2076 16.8153Q27.11 16.8459 27.0107 16.8706Q26.9114 16.8953 26.8108 16.914Q26.7102 16.9327 26.6087 16.9452Q26.5071 16.9578 26.405 16.9642Q26.3029 16.9707 26.2006 16.9709Q26.0983 16.9712 25.9961 16.9653Q25.894 16.9594 25.7924 16.9473Q25.6908 16.9353 25.5901 16.9171Q25.4894 16.899 25.39 16.8748Q25.2906 16.8506 25.1928 16.8204Q25.0951 16.7903 24.9993 16.7543L3.44567 8.65736Q3.25723 8.58657 3.07468 8.50173Q2.89214 8.41689 2.71654 8.31848Q2.54093 8.22008 2.37328 8.10867Q2.20562 7.99726 2.04687 7.87349Q1.88812 7.74972 1.73919 7.6143Q1.59026 7.47887 1.45199 7.33257Q1.31373 7.18627 1.18693 7.02993Q1.06013 6.87359 0.945525 6.7081Q0.830916 6.54262 0.729153 6.36894Q0.627389 6.19526 0.539055 6.01438Q0.450721 5.8335 0.376322 5.64646Q0.301923 5.45941 0.241886 5.26728Q0.181849 5.07514 0.136517 4.87902Q0.0911855 4.68289 0.0608194 4.4839Q0.0304533 4.2849 0.0152267 4.08418Q2.7717e-14 3.88346 2.62803e-14 3.68217L2.62658e-14 3.68014Q2.56953e-14 3.6002 0.00463441 3.52039Q0.00926882 3.44058 0.0185221 3.36118Q0.0277753 3.28178 0.0416162 3.20304Q0.0554571 3.12431 0.0738392 3.04651Q0.0922213 2.96871 0.115083 2.89211Q0.137944 2.81551 0.165208 2.74036Q0.192472 2.66521 0.224046 2.59177Q0.255621 2.51833 0.2914 2.44685Q0.327179 2.37536 0.367042 2.30607Q0.406905 2.23677 0.450718 2.16991Q0.494531 2.10305 0.542147 2.03883Q0.589763 1.97462 0.641021 1.91328Q0.69228 1.85193 0.747008 1.79366Q0.801736 1.73539 0.859751 1.6804Q0.917765 1.6254 0.978871 1.57385Q1.03998 1.52231 1.10397 1.4744Q1.16796 1.42649 1.23462 1.38236Q1.30128 1.33824 1.37039 1.29805Q1.43949 1.25787 1.51081 1.22176Q1.58213 1.18565 1.65543 1.15373Q1.72872 1.12182 1.80374 1.09421Q1.87876 1.06659 1.95525 1.04338Q2.03175 1.02016 2.10946 1.00142Q2.18717 0.982675 2.26584 0.968468Q2.34451 0.954262 2.42387 0.94464Q2.50323 0.935018 2.58301 0.930014Q2.6628 0.925009 2.74274 0.924638Q2.82268 0.924267 2.9025 0.92853Q2.98233 0.932794 3.06178 0.941679Q3.14122 0.950563 3.22002 0.964038Q3.29881 0.977514 3.3767 0.995534Q3.45458 1.01356 3.53129 1.03606L3.53129 1.03606Z" transform="matrix(0.9396926 0.3420201 -0.3420201 0.9396926 303.6113 184.2608)" id="矩形备份-3" fill="#FFFFFF" stroke="none" />
        <path d="M6.40729 2.0708L8.79324 2.84192Q9.01779 2.9145 9.23596 3.00449Q9.45412 3.09448 9.66454 3.20133Q9.87496 3.30818 10.0763 3.43124Q10.2777 3.55429 10.4688 3.69278Q10.6599 3.83127 10.8395 3.98434Q11.0191 4.13741 11.1861 4.30412Q11.3532 4.47084 11.5066 4.65015Q11.66 4.82947 11.7989 5.02028Q11.9378 5.2111 12.0612 5.41223Q12.1846 5.61337 12.2919 5.82358Q12.3992 6.03379 12.4896 6.25177Q12.58 6.46976 12.653 6.69418Q12.726 6.91859 12.7812 7.14805Q12.8364 7.37751 12.8733 7.61059Q12.9103 7.84367 12.9288 8.07894Q12.9474 8.3142 12.9474 8.5502L12.9474 12.2878Q12.9474 12.4306 12.9384 12.5732Q12.9295 12.7158 12.9117 12.8575Q12.8939 12.9993 12.8672 13.1396Q12.8406 13.28 12.8052 13.4184Q12.7699 13.5568 12.7259 13.6927Q12.682 13.8286 12.6297 13.9616Q12.5773 14.0945 12.5168 14.2239Q12.4562 14.3532 12.3877 14.4786Q12.3192 14.6039 12.243 14.7248Q12.1668 14.8456 12.0832 14.9614Q11.9996 15.0772 11.9089 15.1876Q11.8182 15.298 11.7208 15.4025Q11.6234 15.507 11.5196 15.6052Q11.4159 15.7034 11.3062 15.7949Q11.1965 15.8864 11.0813 15.9709Q10.9661 16.0554 10.8459 16.1326Q10.7257 16.2097 10.6009 16.2792Q10.476 16.3486 10.3471 16.4102Q10.2182 16.4717 10.0857 16.5251Q9.95316 16.5784 9.81757 16.6234Q9.68198 16.6684 9.54385 16.7048Q9.40572 16.7412 9.26558 16.7689Q9.12544 16.7966 8.98384 16.8155Q8.84225 16.8344 8.69974 16.8445Q8.55724 16.8545 8.4144 16.8556Q8.27155 16.8567 8.12891 16.8488Q7.98627 16.841 7.8444 16.8243Q7.70253 16.8075 7.56199 16.782Q7.42144 16.7564 7.28276 16.7221Q7.14409 16.6878 7.00783 16.6449Q6.87157 16.602 6.73826 16.5507Q6.60494 16.4994 6.4751 16.4398L3.49803 15.0744Q3.30356 14.9852 3.11594 14.8824Q2.92832 14.7795 2.7485 14.6636Q2.56868 14.5477 2.39758 14.4192Q2.22647 14.2908 2.06495 14.1505Q1.90343 14.0102 1.75232 13.8587Q1.6012 13.7073 1.46126 13.5454Q1.32132 13.3836 1.19326 13.2122Q1.0652 13.0408 0.949678 12.8607Q0.834156 12.6807 0.731755 12.4928Q0.629354 12.305 0.540595 12.1103Q0.451837 11.9156 0.377171 11.7151Q0.302506 11.5146 0.242313 11.3093Q0.182121 11.104 0.136707 10.8949Q0.0912923 10.6859 0.0608873 10.4741Q0.0304824 10.2623 0.0152412 10.0489Q0 9.8355 0 9.62155L0 6.73361Q0 6.58936 0.00848495 6.44537Q0.0169699 6.30137 0.0339104 6.15812Q0.0508509 6.01487 0.0761883 5.87286Q0.101526 5.73086 0.135172 5.59059Q0.168819 5.45032 0.210658 5.31228Q0.252497 5.17423 0.302384 5.03888Q0.352271 4.90354 0.410033 4.77136Q0.467795 4.63918 0.533232 4.51063Q0.598669 4.38208 0.671554 4.2576Q0.744439 4.13312 0.82452 4.01314Q0.904601 3.89317 0.991601 3.77811Q1.0786 3.66305 1.17222 3.55331Q1.26584 3.44357 1.36575 3.33952Q1.46566 3.23548 1.57151 3.13749Q1.67737 3.0395 1.78881 2.94791Q1.90025 2.85632 2.01688 2.77144Q2.13351 2.68656 2.25493 2.60869Q2.37636 2.53082 2.50215 2.46023Q2.62794 2.38964 2.75767 2.32657Q2.8874 2.26349 3.02061 2.20816Q3.15383 2.15283 3.29007 2.10543Q3.4263 2.05803 3.56509 2.01873Q3.70388 1.97943 3.84474 1.94835Q3.98561 1.91728 4.12805 1.89455Q4.2705 1.87182 4.41403 1.8575Q4.55757 1.84319 4.7017 1.83734Q4.84583 1.8315 4.99005 1.83414Q5.13427 1.83678 5.27809 1.8479Q5.42191 1.85902 5.56482 1.87859Q5.70774 1.89815 5.84926 1.92608Q5.99077 1.95402 6.1304 1.99023Q6.27003 2.02644 6.40729 2.0708L6.40729 2.0708Z" transform="matrix(0.9396926 0.3420201 -0.3420201 0.9396926 342.3047 213.0792)" id="矩形备份" fill="#FFFFFF" stroke="none" />
        <path d="M6.40731 2.07083L8.79314 2.84193Q9.0177 2.91451 9.23586 3.0045Q9.45402 3.09449 9.66444 3.20134Q9.87486 3.3082 10.0762 3.43125Q10.2776 3.5543 10.4687 3.69279Q10.6598 3.83128 10.8394 3.98435Q11.019 4.13743 11.186 4.30414Q11.3531 4.47085 11.5065 4.65016Q11.6599 4.82948 11.7988 5.0203Q11.9376 5.21111 12.0611 5.41224Q12.1845 5.61338 12.2918 5.82359Q12.3991 6.0338 12.4895 6.25178Q12.5799 6.46977 12.6529 6.69418Q12.7259 6.9186 12.7811 7.14806Q12.8362 7.37751 12.8732 7.61059Q12.9102 7.84367 12.9287 8.07894Q12.9472 8.3142 12.9472 8.5502L12.9472 12.2879Q12.9472 12.4308 12.9383 12.5734Q12.9294 12.7159 12.9116 12.8577Q12.8937 12.9994 12.8671 13.1397Q12.8405 13.2801 12.8051 13.4185Q12.7698 13.5569 12.7258 13.6928Q12.6819 13.8288 12.6295 13.9617Q12.5772 14.0946 12.5167 14.224Q12.4561 14.3534 12.3876 14.4787Q12.3191 14.6041 12.2429 14.7249Q12.1667 14.8457 12.083 14.9615Q11.9994 15.0774 11.9087 15.1877Q11.8181 15.2981 11.7207 15.4026Q11.6233 15.5071 11.5195 15.6053Q11.4158 15.7035 11.3061 15.795Q11.1964 15.8866 11.0812 15.971Q10.966 16.0555 10.8458 16.1327Q10.7256 16.2098 10.6007 16.2793Q10.4759 16.3487 10.347 16.4103Q10.2181 16.4718 10.0856 16.5252Q9.95306 16.5785 9.81748 16.6235Q9.68189 16.6685 9.54376 16.7049Q9.40563 16.7413 9.26549 16.769Q9.12535 16.7967 8.98376 16.8156Q8.84216 16.8345 8.69966 16.8445Q8.55716 16.8546 8.41431 16.8557Q8.27147 16.8567 8.12883 16.8489Q7.98619 16.8411 7.84433 16.8243Q7.70246 16.8076 7.56191 16.782Q7.42137 16.7565 7.28269 16.7222Q7.14402 16.6879 7.00776 16.645Q6.8715 16.6021 6.73819 16.5508Q6.60488 16.4994 6.47503 16.4399L3.498 15.0744Q3.30354 14.9852 3.11592 14.8824Q2.9283 14.7796 2.74848 14.6637Q2.56866 14.5477 2.39756 14.4193Q2.22645 14.2909 2.06493 14.1506Q1.90341 14.0103 1.7523 13.8588Q1.60119 13.7073 1.46125 13.5455Q1.3213 13.3837 1.19325 13.2123Q1.06519 13.0409 0.94967 12.8608Q0.834148 12.6807 0.731748 12.4929Q0.629348 12.305 0.54059 12.1104Q0.451833 11.9157 0.377168 11.7152Q0.302503 11.5147 0.242311 11.3094Q0.182119 11.1041 0.136705 10.895Q0.0912914 10.6859 0.0608868 10.4742Q0.0304821 10.2624 0.0152411 10.049Q0 9.83559 0 9.62164L0 6.73364Q0 6.5894 0.00848499 6.4454Q0.01697 6.3014 0.0339106 6.15815Q0.0508512 6.0149 0.0761887 5.87289Q0.101526 5.73089 0.135173 5.59062Q0.16882 5.45035 0.210659 5.3123Q0.252498 5.17426 0.302386 5.03891Q0.352273 4.90356 0.410035 4.77139Q0.467797 4.63921 0.533234 4.51066Q0.598671 4.3821 0.671557 4.25763Q0.744443 4.13315 0.824524 4.01317Q0.904606 3.89319 0.991606 3.77813Q1.07861 3.66307 1.17222 3.55333Q1.26584 3.44359 1.36575 3.33955Q1.46566 3.2355 1.57152 3.13751Q1.67738 3.03953 1.78882 2.94793Q1.90025 2.85634 2.01689 2.77147Q2.13352 2.68659 2.25494 2.60872Q2.37637 2.53085 2.50216 2.46025Q2.62796 2.38966 2.75768 2.32659Q2.88741 2.26352 3.02063 2.20819Q3.15384 2.15286 3.29008 2.10546Q3.42632 2.05806 3.56511 2.01876Q3.7039 1.97945 3.84476 1.94838Q3.98562 1.91731 4.12807 1.89458Q4.27051 1.87185 4.41405 1.85753Q4.55758 1.84322 4.70171 1.83737Q4.84584 1.83153 4.99007 1.83417Q5.13429 1.83681 5.27811 1.84793Q5.42193 1.85906 5.56484 1.87862Q5.70776 1.89818 5.84928 1.92612Q5.99079 1.95405 6.13042 1.99026Q6.27005 2.02647 6.40731 2.07083L6.40731 2.07083Z" transform="matrix(0.9396926 0.3420201 -0.3420201 0.9396926 329.4312 202.4988)" id="矩形备份-2" fill="#FFFFFF" stroke="none" />
        <g id="编组-2" transform="matrix(0.9816272 0.190809 -0.190809 0.9816272 318.166 0)">
          <path d="M30.976 22.2831C48.0835 22.2831 61.952 17.2948 61.952 11.1415C61.952 4.98824 48.0835 0 30.976 0C13.8684 0 0 4.98824 0 11.1415C0 17.2948 13.8684 22.2831 30.976 22.2831Z" transform="translate(37.26563 115.4132)" id="椭圆形" fill="#FFFFFF" stroke="none" />
          <path d="M23.1164 11.092C35.8832 11.092 46.2328 8.60898 46.2328 5.54601C46.2328 2.48303 35.8832 0 23.1164 0C10.3496 0 0 2.48303 0 5.54601C0 8.60898 10.3496 11.092 23.1164 11.092Z" transform="translate(47.43701 115.5123)" id="椭圆形" fill="#A8E9FF" stroke="none" />
          <g id="编组-19" transform="translate(26.01318 31.0321)">
            <path d="M27.0079 70.9666C27.0079 70.9666 9.2674 70.4757 3.61437 68.627C0.117816 67.4836 -2.36948 50.8633 3.61437 20.8837C4.08008 18.5505 5.7439 13.9584 10.314 4.65282C14.8841 -4.65282 32.6931 4.65282 32.6931 4.65282L61.6271 35.3104L27.0079 70.9666Z" transform="translate(2.868652 10.2782)" id="路径-90" fill="#01004C" stroke="none" />
            <g id="编组-7" transform="translate(-0.0009765625 0.0001220703)">
              <path d="M1.26571e-16 0C1.26571e-16 0 1.3554 31.3411 0.501615 34.2436C-0.35217 37.1461 3.62126 42.2471 14.967 41.5951C26.3128 40.9431 30.1246 36.8647 30.4363 32.2527C30.748 27.6407 25.2563 3.44472 25.2563 3.44472L1.26571e-16 0Z" transform="translate(24.72656 53.05261)" id="路径-77" fill="#FFAEB7" stroke="none" />
              <path d="M21.4298 73.9811C32.4055 73.9811 42.3163 71.622 48.6411 60.7249C52.0367 54.8745 52.3271 44.1067 52.3271 36.9734C52.3271 16.5536 40.7355 0 26.4367 0C12.1378 0 3.32028 19.1129 0.546316 36.9734C-0.866138 46.0676 0.320529 63.4802 5.75202 69.9701C10.1427 75.2164 21.2068 73.9811 21.4298 73.9811Z" transform="translate(8.883789 3.13855)" id="椭圆形" fill="#FFC0C8" stroke="none" />
              <g id="编组-5" transform="matrix(-0.9902682 -0.1391732 -0.1391732 0.9902682 46.21533 39.09021)">
                <path d="M2.5736 12.9546C4.4569 13.3745 6.62448 10.6738 7.33613 7.16171C8.04779 3.64965 7.09799 0.462153 5.21469 0.0422402C3.3314 -0.377672 0.919713 2.38797 0.208057 5.90003C-0.503599 9.41209 0.690309 12.5347 2.5736 12.9546Z" transform="translate(11.35889 0)" id="椭圆形" fill="#FDFAE9" stroke="none" />
                <path d="M1.80299 9.6758C2.93373 9.73329 3.96731 7.61415 4.11157 4.94257C4.25583 2.27099 3.45613 0.0586339 2.3254 0.00114265C1.19466 -0.0563486 0.161076 2.06279 0.0168186 4.73437C-0.127439 7.40596 0.672258 9.61831 1.80299 9.6758Z" transform="matrix(0.9986294 0.05233597 -0.05233597 0.9986294 30.43799 4.427979)" id="椭圆形" fill="#FDFAE9" stroke="none" />
                <path d="M0.615626 4.23627C1.30806 4.27294 1.96178 3.44526 2.38134 2.16285C2.50087 1.79747 2.70313 -0.0669652 1.38807 0.00185735C0.0730033 0.0706799 0.0281306 1.64108 0.00211779 2.28736C-0.037168 3.2634 0.481469 4.22917 0.615626 4.23627Z" transform="matrix(0.9986294 0.05233597 -0.05233597 0.9986294 31.53369 9.922363)" id="椭圆形" fill="#03003A" stroke="none" />
                <path d="M1.12658 5.89199C1.98901 6.07578 2.92079 4.91006 3.20776 3.2883C3.49474 1.66653 3.02825 0.202848 2.16582 0.0190638C1.30339 -0.16472 0.371607 1.00099 0.0846299 2.62276C-0.202347 4.24452 0.264149 5.70821 1.12658 5.89199Z" transform="matrix(0.9986294 0.05233597 -0.05233597 0.9986294 13.65625 6.605957)" id="椭圆形" fill="#03003A" stroke="none" />
                <path d="M1.73161 4.77148e-13C2.33767 -0.000147183 1.6914 3.32512 3.81651 8.74364C4.5264 10.5537 7.57195 14.3112 7.57195 14.3112C7.57195 14.3112 5.63748 15.4483 4.28826 15.5044C2.93903 15.5604 9.33548e-13 14.6258 9.33548e-13 14.6258C9.33548e-13 14.6258 2.93664 14.7878 4.28847 14.6248C5.6403 14.4617 6.02022 13.8996 6.02022 13.8996C6.02022 13.8996 3.46539 10.7968 2.87914 8.74387C1.56584 4.14495 1.12556 0.000147183 1.73161 4.77148e-13Z" transform="matrix(0.9848077 0.1736482 -0.1736482 0.9848077 24.23828 6.550293)" id="路径-80" fill="#FD8D9D" stroke="none" />
                <path d="M7.7828 15.5134C12.0811 15.5134 15.5656 12.0406 15.5656 7.75669C15.5656 3.47279 12.0811 0 7.7828 0C3.48448 0 0 3.47279 0 7.75669C0 12.0406 3.48448 15.5134 7.7828 15.5134Z" transform="translate(0.0009765625 13.41699)" id="椭圆形" fill="url(#gradient_3)" stroke="none" />
                <path d="M7.20754 1.2218L0.797943 0.321299" transform="translate(20.98047 9.371094)" id="路径-5" fill="none" stroke="#000000" stroke-width="2" />
              </g>
              <g id="编组-6" transform="translate(22.37402 35.66235)">
                <path d="M17.9528 7.03148C17.9912 6.70354 18.0119 6.37037 18.014 6.03298C18.026 4.05636 17.3956 2.23292 16.3176 0.756883C16.1249 0.493127 15.918 0.240463 15.6979 -2.94448e-16C15.6979 -3.0387e-13 0.622425 2.90539 0.622425 2.90539C0.227147 3.91087 0.0070994 5.0024 0.00013211 6.14228C-0.00982515 7.77134 0.544539 9.51897 1.17045 10.6086" transform="matrix(-0.5000001 0.8660254 -0.8660254 -0.5000001 19.06787 5.304199)" id="椭圆形" fill="#FFFFFF" fill-opacity="0.147763208" stroke="none" />
                <path d="M18.3682 9.56686C18.3682 14.8505 14.2563 19.1337 9.18408 19.1337C4.11186 19.1337 0 14.8505 0 9.56686C0 4.28323 4.11186 0 9.18408 0C14.2563 0 18.3682 4.28323 18.3682 9.56686ZM1.04961 9.56686C1.04961 14.2634 4.69154 18.0707 9.18408 18.0707C13.6766 18.0707 17.3186 14.2634 17.3186 9.56686C17.3186 4.8703 13.6766 1.06298 9.18408 1.06298C4.69154 1.06298 1.04961 4.8703 1.04961 9.56686Z" transform="translate(0 0.3596191)" id="椭圆形" fill="#000000" fill-rule="evenodd" stroke="none" />
              </g>
              <path d="M5.9257 35.5539L13.3585 23.9693C13.3585 23.9693 18.2587 29.7576 25.2649 36.0238C28.3099 38.7471 32.8288 42.6611 41.9476 43.4603C42.1548 43.4785 36.5173 42.0113 31.7735 38.819C26.1616 35.0424 21.2952 29.4401 21.6139 29.4399C21.9876 29.4397 26.8122 35.3487 32.5102 38.819C38.3945 42.4027 45.1532 43.5521 45.2397 43.6058C48.7032 45.7573 45.2397 81.2447 45.2397 81.2447C45.2397 81.2447 63.1833 81.6232 68.4953 81.2447C73.0805 80.9181 78.1135 81.4525 79.4889 80.2012C82.2282 77.709 89.8753 68.3084 89.8753 53.0525C89.8753 40.7996 80.3918 7.99064 58.437 1.58405C51.8443 -0.339756 40.7012 -1.17925 27.6276 3.01652C18.5467 5.93089 14.5253 11.3002 12.1931 15.2776C11.5822 16.3196 3.7332 28.6424 1.99799 37.5225C-1.99799 57.9723 1.99799 76.5576 1.99799 76.5576C1.99799 76.5576 1.82647 67.8254 2.71618 49.6199C2.85709 46.7367 5.9257 35.5539 5.9257 35.5539Z" id="路径-30" fill="#01004C" stroke="none" />
              <g id="编组-3" transform="translate(20.52686 6.835815)">
                <path d="M0.184959 0.746365C3.27419 2.7347 6.06851 7.31668 8.53367 14.4945C11.0758 21.8966 17.254 26.6369 27.0121 28.7095C27.2266 28.7551 27.4367 28.6148 27.4813 28.3962C27.526 28.1775 27.3884 27.9633 27.1739 27.9178C17.6696 25.899 11.7245 21.3375 9.28252 14.2273C6.76355 6.89279 3.88365 2.17047 0.608554 0.0625085C0.423299 -0.0567285 0.178294 -0.000302716 0.0613215 0.188539C-0.0556512 0.377381 -0.000296967 0.627128 0.184959 0.746365Z" id="路径-34" fill="#050133" stroke="none" />
                <path d="M0.137161 0.67601C2.40777 2.58425 4.39528 5.19136 6.09723 8.50013C7.84902 11.9058 10.185 14.6479 13.1036 16.7216C13.282 16.8484 13.5338 16.8124 13.6659 16.6412C13.7981 16.4699 13.7605 16.2283 13.5821 16.1015C10.7688 14.1026 8.51469 11.4566 6.81826 8.15862C5.07199 4.7637 3.02236 2.0751 0.666925 0.0955739C0.49989 -0.0448031 0.24589 -0.0286659 0.0995998 0.131617C-0.0466903 0.2919 -0.0298735 0.535634 0.137161 0.67601Z" transform="translate(7.697135 2.709257)" id="路径-35" fill="#050133" stroke="none" />
                <path d="M0.143065 0.682315C5.11757 4.70726 7.8505 8.97799 8.36579 13.4979C8.90507 18.2281 10.4821 21.4822 13.1205 23.232C13.3022 23.3525 13.5505 23.3076 13.675 23.1317C13.7995 22.9558 13.7532 22.7155 13.5714 22.595C11.1536 20.9915 9.67487 17.9402 9.15876 13.4132C8.61866 8.67578 5.776 4.23357 0.654728 0.089876C0.485707 -0.0468817 0.234148 -0.0251237 0.0928558 0.138474C-0.0484361 0.302071 -0.0259567 0.545557 0.143065 0.682315Z" transform="translate(20.89222 6.502219)" id="路径-36" fill="#050133" stroke="none" />
                <path d="M0 0C0 0 0.926835 5.21708 1.09958 7.85685C1.27233 10.4966 1.02832 15.7137 1.02832 15.7137C1.02832 15.7137 2.4583 13.0647 2.14182 8.22868C1.82534 3.39264 0 0 0 0Z" transform="translate(38.48568 15.71369)" id="路径-38" fill="#050133" stroke="none" />
              </g>
              <path d="M0.00837672 0.0469792C0.131763 -0.138269 1.87006 0.237276 2.59282 0.945384C3.31559 1.65349 3.52553 3.18544 3.24947 3.3423C2.97341 3.49917 3.05996 2.61289 2.1052 1.6775C1.15044 0.742102 -0.115009 0.232228 0.00837672 0.0469792Z" transform="matrix(0.6946584 -0.7193398 0.7193398 0.6946584 9.661133 36.28931)" id="路径-79" fill="#090543" stroke="none" />
              <path d="M0.00837338 0.0469554C0.131733 -0.138266 1.86997 0.237433 2.59277 0.945561C3.31557 1.65369 3.52566 3.18553 3.24963 3.34236C2.9736 3.49919 3.06005 2.61298 2.10525 1.67756C1.15044 0.742143 -0.114986 0.232177 0.00837338 0.0469554Z" transform="matrix(0.8571674 -0.5150381 0.5150381 0.8571674 22.3584 35.20972)" id="路径-79" fill="#090543" stroke="none" />
              <path d="M3.89235 3.99011C6.15765 3.99034 8.20354 2.4718 8.20337 0.815086C8.20321 -0.841624 6.00587 0.542165 3.74057 0.541941C1.47527 0.541717 -0.000164446 -0.842435 1.01049e-12 0.814275C0.000164446 2.47098 1.62705 3.98989 3.89235 3.99011Z" transform="matrix(0.9975641 -0.06975646 0.06975646 0.9975641 15.77393 64.43555)" id="椭圆形" fill="#EC6275" fill-opacity="0.6078172" stroke="none" />
            </g>
            <g id="编组-6" transform="translate(1.10791 37.51221)">
              <path d="M15.5508 6.03668C15.5858 5.75435 15.6056 5.46764 15.6092 5.17739C15.6303 3.47695 15.0938 1.91173 14.1677 0.647773C14.0022 0.421913 13.8243 0.205673 13.6349 1.27733e-15C13.6349 -2.64152e-13 0.557067 2.58043 0.557067 2.58043C0.209169 3.44752 0.012636 4.38768 0.000466951 5.3683C-0.0169243 6.76975 0.454005 8.27015 0.990466 9.20413" transform="matrix(-0.5000001 0.8660254 -0.8660254 -0.5000001 16.43359 4.601929)" id="椭圆形" fill="#FFFFFF" fill-opacity="0.147763208" stroke="none" />
              <path d="M15.57 8.42776C15.57 13.0823 12.0845 16.8555 7.78501 16.8555C3.48547 16.8555 0 13.0823 0 8.42776C0 3.77324 3.48547 0 7.78501 0C12.0845 0 15.57 3.77324 15.57 8.42776ZM0.889715 8.42776C0.889715 12.5651 3.97684 15.9191 7.78501 15.9191C11.5932 15.9191 14.6803 12.5651 14.6803 8.42776C14.6803 4.29041 11.5932 0.936418 7.78501 0.936418C3.97684 0.936418 0.889715 4.29041 0.889715 8.42776Z" transform="translate(0 0.3703613)" id="椭圆形" fill="#000000" fill-rule="evenodd" stroke="none" />
            </g>
          </g>
          <g id="椭圆形">
            <use xlink:href="#path_1" fill="none" stroke="#FFFFFF" stroke-width="14" />
            <use stroke="none" fill="#BFDFFA" fill-opacity="0.403921574" xlink:href="#path_1" />
          </g>
          <path d="M66.7482 133.08C66.7482 133.08 23.3929 106.097 23.3929 69.3475C23.3929 61.386 19.6367 30.363 52.2076 13.7798C74.6013 2.37823 104.486 11.5619 104.486 11.5619C96.1877 6.47223 85.1956 0 66.7482 0C29.8842 5.74999e-15 0 29.7909 0 66.5399C0 103.289 29.8842 133.08 66.7482 133.08Z" transform="translate(0.0004882813 0)" id="椭圆形" fill="#FFFFFF" fill-opacity="0.3254902" stroke="none" />
        </g>
        <g id="编组-80" transform="translate(238.5283 113.0085)">
          <path d="M159.051 12.6534C167.194 23.2789 196.571 112.455 175.562 135.975C154.552 159.494 60.5131 163.696 -5.70445e-11 129.902L3.76378 104.768C3.76378 104.768 66.104 102.43 103.102 103.597C129.399 104.426 115.183 87.3808 107.743 66.9614C100.303 46.5421 86.8613 12.0645 113.377 3.96863C141.767 -4.69949 150.908 2.02796 159.051 12.6534Z" transform="matrix(0.9396926 0.3420201 -0.3420201 0.9396926 52.8208 0)" id="蒙版" fill="#F9725D" stroke="none" />
          <g clip-path="url(#mask_1)">
            <g id="编组-80" transform="matrix(0.4539905 0.8910065 -0.8910065 0.4539905 174.4697 144.1372)">
              <path d="M22.2789 44.1049C31.9527 42.22 37.8919 30.8788 35.5445 18.7735C33.197 6.66827 23.4519 -1.61701 13.778 0.267854C4.10423 2.15271 -1.83497 13.494 0.512471 25.5992C2.85991 37.7045 12.6051 45.9898 22.2789 44.1049Z" transform="matrix(0.9396926 0.3420201 -0.3420201 0.9396926 15.17603 0)" id="形状结合备份-2" fill="#FFFFFF" stroke="none" />
              <path d="M12.1004 30.4893C18.7857 30.4874 24.2072 23.6606 24.2097 15.2412C24.2121 6.82177 18.7946 -0.00193278 12.1092 4.1066e-07C5.42393 0.0019336 0.00243845 6.82877 8.22284e-07 15.2482C-0.00243681 23.6676 5.41511 30.4913 12.1004 30.4893Z" transform="matrix(0.9876884 0.1564345 -0.1564345 0.9876884 15.39136 10.24951)" id="椭圆形备份-28" fill="#F55B48" stroke="none" />
            </g>
          </g>
        </g>
        <path d="M106.355 0C106.355 0 156.317 95.1283 128.767 114.361C101.217 133.594 0 112.362 0 112.362" transform="matrix(0.9396926 0.3420201 -0.3420201 0.9396926 301.3872 121.5283)" id="路径-29" fill="none" stroke="#CC4939" stroke-width="1" />
        <path d="M0 0L6.48959 0L6.48959 42.5264L0 40.0629L0 0Z" transform="matrix(0.9396926 0.3420201 -0.3420201 0.9396926 287.5049 223.1606)" id="矩形" fill="#FFFFFF" stroke="none" />
        <path d="M0 0L6.4895 0L6.4895 42.5264L0 40.0629L0 0Z" transform="matrix(0.9396926 0.3420201 -0.3420201 0.9396926 307.9644 232.0504)" id="矩形备份-69" fill="#FFFFFF" stroke="none" />
        <path d="M0 0L6.48959 0L6.48959 42.5264L0 40.0629L0 0Z" transform="matrix(0.9396926 0.3420201 -0.3420201 0.9396926 329.0049 240.0551)" id="矩形备份-70" fill="#FFFFFF" stroke="none" />
        <path d="M0 0L6.48962 0L6.48962 42.5264L0 40.063L0 0Z" transform="matrix(0.9396926 0.3420201 -0.3420201 0.9396926 346.0386 246.0587)" id="矩形备份-71" fill="#FFFFFF" stroke="none" />
        <path d="M5.999 0L20.3575 0L20.3575 30.5088Q20.3575 30.7587 20.3452 31.0082Q20.333 31.2578 20.3085 31.5064Q20.284 31.755 20.2473 32.0022Q20.2107 32.2493 20.1619 32.4944Q20.1132 32.7394 20.0525 32.9818Q19.9918 33.2242 19.9192 33.4633Q19.8467 33.7023 19.7625 33.9376Q19.6784 34.1728 19.5827 34.4037Q19.4871 34.6345 19.3803 34.8604Q19.2735 35.0862 19.1557 35.3066Q19.0379 35.5269 18.9095 35.7412Q18.781 35.9555 18.6422 36.1633Q18.5034 36.371 18.3546 36.5717Q18.2057 36.7724 18.0472 36.9655Q17.8887 37.1586 17.7209 37.3438Q17.5532 37.5289 17.3765 37.7056Q17.1998 37.8822 17.0147 38.05Q16.8296 38.2178 16.6364 38.3763Q16.4433 38.5348 16.2426 38.6836Q16.0419 38.8325 15.8342 38.9713Q15.6264 39.1101 15.4121 39.2385Q15.1978 39.367 14.9775 39.4848Q14.7571 39.6026 14.5313 39.7094Q14.3054 39.8162 14.0746 39.9118Q13.8438 40.0074 13.6085 40.0916Q13.3733 40.1758 13.1342 40.2483Q12.8951 40.3208 12.6527 40.3815Q12.4104 40.4422 12.1653 40.491Q11.9203 40.5397 11.6731 40.5764Q11.426 40.6131 11.1773 40.6375Q10.9287 40.662 10.6791 40.6743Q10.4296 40.6866 10.1797 40.6866L10.1777 40.6866Q9.92789 40.6866 9.67834 40.6743Q9.42879 40.662 9.18015 40.6375Q8.9315 40.6131 8.68435 40.5764Q8.43721 40.5397 8.19216 40.491Q7.94711 40.4422 7.70475 40.3815Q7.46239 40.3208 7.2233 40.2483Q6.98421 40.1758 6.74896 40.0916Q6.51372 40.0074 6.28289 39.9118Q6.05206 39.8162 5.82619 39.7094Q5.60033 39.6026 5.37999 39.4848Q5.15964 39.367 4.94534 39.2385Q4.73103 39.1101 4.52329 38.9713Q4.31555 38.8325 4.11487 38.6836Q3.91419 38.5348 3.72105 38.3763Q3.52791 38.2178 3.34279 38.05Q3.15766 37.8822 2.98099 37.7056Q2.80432 37.5289 2.63653 37.3438Q2.46874 37.1586 2.31024 36.9655Q2.15174 36.7724 2.0029 36.5717Q1.85407 36.371 1.71526 36.1633Q1.57645 35.9555 1.448 35.7412Q1.31955 35.5269 1.20177 35.3066Q1.084 35.0862 0.977172 34.8604Q0.870347 34.6345 0.774734 34.4037Q0.679121 34.1728 0.594949 33.9376Q0.510778 33.7023 0.43825 33.4633Q0.365723 33.2242 0.305014 32.9818Q0.244306 32.7394 0.195562 32.4944Q0.146819 32.2493 0.110159 32.0022Q0.0734981 31.7551 0.0490086 31.5064Q0.0245191 31.2578 0.0122595 31.0082Q0 30.7587 0 30.5088L0 5.999Q0 5.85173 0.00722606 5.70464Q0.0144521 5.55755 0.0288868 5.411Q0.0433215 5.26444 0.0649301 5.11876Q0.0865387 4.97309 0.115269 4.82865Q0.143999 4.68422 0.179783 4.54136Q0.215566 4.39851 0.258315 4.25758Q0.301064 4.11666 0.350677 3.978Q0.40029 3.83934 0.456647 3.70328Q0.513003 3.56722 0.575968 3.4341Q0.638933 3.30097 0.708354 3.17109Q0.777776 3.04121 0.853486 2.9149Q0.929196 2.78858 1.01101 2.66613Q1.09283 2.54369 1.18056 2.4254Q1.26829 2.30711 1.36171 2.19327Q1.45514 2.07944 1.55403 1.97032Q1.65293 1.8612 1.75707 1.75707Q1.8612 1.65293 1.97032 1.55403Q2.07944 1.45514 2.19327 1.36171Q2.30711 1.26829 2.4254 1.18056Q2.54369 1.09283 2.66613 1.01101Q2.78858 0.929196 2.9149 0.853486Q3.04121 0.777776 3.17109 0.708354Q3.30097 0.638933 3.4341 0.575968Q3.56723 0.513003 3.70328 0.456647Q3.83934 0.40029 3.978 0.350677Q4.11666 0.301064 4.25758 0.258315Q4.39851 0.215565 4.54136 0.179782Q4.68422 0.143999 4.82865 0.115269Q4.97309 0.0865387 5.11876 0.0649301Q5.26444 0.0433215 5.411 0.0288868Q5.55755 0.0144521 5.70464 0.00722606Q5.85173 0 5.999 0L5.999 0Z" transform="matrix(0.9396926 0.3420201 -0.3420201 0.9396926 251.8823 210.2064)" id="矩形" fill="#FFFFFF" stroke="none" />
        <path d="M22.2785 44.1043C31.9523 42.2195 37.8915 30.8783 35.5441 18.773C33.1966 6.66777 23.4515 -1.61748 13.7777 0.267373C4.10391 2.15223 -1.83528 13.4934 0.512157 25.5987C2.85959 37.7039 12.6047 45.9892 22.2785 44.1043Z" transform="matrix(0.9396926 0.3420201 -0.3420201 0.9396926 403.9102 192.6758)" id="形状结合" fill="#FFFFFF" stroke="none" />
        <path d="M12.1005 30.4894C18.7858 30.4875 24.2073 23.6606 24.2097 15.2412C24.2122 6.82179 18.7946 -0.00193278 12.1093 4.10661e-07C5.42395 0.0019336 0.00243846 6.82879 8.22286e-07 15.2482C-0.00243681 23.6676 5.41512 30.4913 12.1005 30.4894Z" transform="matrix(0.9876884 0.1564345 -0.1564345 0.9876884 404.1274 202.9266)" id="椭圆形" fill="#F55B48" stroke="none" />
        <path d="M10.7071 59.1997C9.73061 57.0024 -18.7535 15.2527 21.4063 2.14913C58.5975 -9.98584 76.1961 46.3987 76.1961 46.3987C76.1961 46.3987 55.4756 0.155113 25.0865 10.43C-7.38171 21.4077 11.6836 61.3969 10.7071 59.1997Z" transform="matrix(0.9396926 0.3420201 -0.3420201 0.9396926 380.8501 146.8002)" id="路径-13" fill="#FFFFFF" stroke="none" />
        <path d="M12.5845 65.8147C23.5777 70.786 36.7241 60.3604 41.9479 42.5285C47.1716 24.6966 42.4946 6.21103 31.5015 1.23976C20.5083 -3.73152 7.36189 6.69407 2.13812 24.5259C-3.08564 42.3578 1.59137 60.8434 12.5845 65.8147Z" transform="matrix(0.9396926 0.3420201 -0.3420201 0.9396926 139.5425 304.6715)" id="椭圆形" fill="#FFFFFF" stroke="none" />
        <path d="M16.6282 43.4108C25.8109 43.4115 33.2543 33.6941 33.2535 21.7066C33.2527 9.71899 25.8079 0.000632556 16.6252 6.65101e-13C7.44255 -0.000632556 -0.000826037 9.7167 -1.01896e-12 21.7043C0.000826037 33.6918 7.44554 43.4102 16.6282 43.4108Z" transform="matrix(0.7660444 0.6427876 -0.6427876 0.7660444 93.73828 229.603)" id="椭圆形备份" fill="#FFFFFF" stroke="none" />
        <path d="M8.13122 43.2695C15.3334 46.4389 24.036 39.4937 27.5692 27.7569C31.1023 16.02 28.128 3.93615 20.9259 0.766712C13.7237 -2.40272 5.02106 4.5425 1.48791 16.2793C-2.04523 28.0161 0.929081 40.1 8.13122 43.2695Z" transform="matrix(0.9396926 0.3420201 -0.3420201 0.9396926 140.1318 317.7321)" id="椭圆形" fill="#F9725D" stroke="none" />
        <path d="M10.6236 28.6327C16.4904 28.6331 21.2458 22.2238 21.2453 14.3171C21.2448 6.41038 16.4884 0.000404133 10.6217 6.35774e-15C4.75494 -0.000404133 -0.000544834 6.40892 -1.30672e-12 14.3156C0.000544834 22.2223 4.75691 28.6323 10.6236 28.6327Z" transform="matrix(0.7660444 0.6427876 -0.6427876 0.7660444 91.91504 239.37)" id="椭圆形备份-2" fill="#F9725D" stroke="none" />
        <path d="M0 0.908276C0 0.908276 22.8398 11.3465 28.6578 6.99916C34.4759 2.65186 34.8289 0 34.8289 0" transform="translate(438.7222 206.085)" id="路径-32" fill="none" stroke="#FFFFFF" stroke-opacity="0.691127241" stroke-width="4" stroke-linecap="round" stroke-linejoin="round" />
        <path d="M0 0C0 0 21.4165 11.3465 26.5881 6.99916C31.7597 2.65186 32.0735 0 32.0735 0" transform="translate(437.4683 229.8845)" id="路径-32备份" fill="none" stroke="#FFFFFF" stroke-opacity="0.691127241" stroke-width="4" stroke-linecap="round" stroke-linejoin="round" />
        <path d="M5.29611 0C5.29611 0 2.64647 15.4748 0 32.1635" transform="translate(453.5059 239.3853)" id="路径-46" fill="none" stroke="#FFFFFF" stroke-width="3" stroke-linecap="round" stroke-linejoin="round" />
      </g>
      <path d="M0.198664 0C0.198664 0 -4.10907 152.211 84.9899 140.073C174.089 127.934 146.523 250.001 146.523 250.001" transform="translate(292.0088 320.7455)" id="路径-415" fill="none" stroke="url(#gradient_4)" stroke-width="11" />
      <path d="M0 15.0001L31.5643 0L95.0225 0.206332" transform="translate(188.9849 299.7454)" id="路径-435" fill="none" stroke="#FFFFFF" stroke-width="6" stroke-linecap="round" stroke-linejoin="round" />
      <path d="M0 6.00003L39.6101 8.52656e-14L92.0217 5.52226" transform="translate(132.9712 244.7451)" id="路径-435备份-2" fill="none" stroke="#FFFFFF" stroke-opacity="0.458823532" stroke-width="5" stroke-linecap="round" stroke-linejoin="round" />
      <path d="M5.59137e-13 28.0243L38.9791 2.15485L78.6915 1.58218e-12" transform="matrix(0.6156615 -0.7880107 0.7880107 0.6156615 80.75 451.6038)" id="路径-435备份" fill="none" stroke="#FFFFFF" stroke-width="4" stroke-linecap="round" stroke-linejoin="round" />
    </g>
    <path d="M78 46C78 71.4051 57.4257 92 32.046 92C19.5831 92 8.2789 87.0337 0.000759166 78.9703C17.8246 78.225 32.046 63.5249 32.046 45.5C32.046 27.8127 18.3524 13.327 0.998589 12.0862C9.17625 4.58063 20.0767 0 32.046 0C57.4257 0 78 20.5949 78 46Z" id="形状结合" fill="#FFD122" fill-rule="evenodd" stroke="none" />
  </g>
</svg>